<svg xmlns="http://www.w3.org/2000/svg" xmlns:xlink="http://www.w3.org/1999/xlink" width="130" height="130" viewBox="0 0 130 130">
  <defs>
    <clipPath id="clip-path">
      <rect id="Rectángulo_454829" data-name="Rectángulo 454829" width="130" height="130" fill="#1e535a"/>
    </clipPath>
    <clipPath id="clip-path-2">
      <rect id="Rectángulo_465047" data-name="Rectángulo 465047" width="50.168" height="51.856" fill="#1e535a"/>
    </clipPath>
  </defs>
  <g id="Grupo_1211885" data-name="Grupo 1211885" transform="translate(-186 -4323.945)">
    <g id="Grupo_1177591" data-name="Grupo 1177591" transform="translate(186 4323.945)">
      <g id="Grupo_1177589" data-name="Grupo 1177589" transform="translate(0 0)">
        <g id="Grupo_1177587" data-name="Grupo 1177587" clip-path="url(#clip-path)">
          <path id="Trazado_997422" data-name="Trazado 997422" d="M124.692,57.54a59.768,59.768,0,0,0-13.5-31.1,6.874,6.874,0,0,0-9.672-9.26,59.68,59.68,0,0,0-30.9-12.073,6.875,6.875,0,0,0-13.353.271A59.762,59.762,0,0,0,27.622,18.05a6.877,6.877,0,0,0-9.545,9.61A59.712,59.712,0,0,0,5.568,57.481,6.88,6.88,0,0,0,5.4,70.954,59.7,59.7,0,0,0,17.522,101.38a6.876,6.876,0,0,0,9.342,9.709,59.757,59.757,0,0,0,30.35,13.274,6.877,6.877,0,0,0,13.473.271,59.706,59.706,0,0,0,31.125-12.3,6.875,6.875,0,0,0,9.624-9.308,59.783,59.783,0,0,0,13.418-32.141,6.877,6.877,0,0,0-.161-13.35M105.274,29.825a6.838,6.838,0,0,0,3.808-1.153,56.758,56.758,0,0,1,12.526,28.85,6.887,6.887,0,0,0-4.395,3.184L99.637,54.116c.014-.192.027-.388.027-.587a6.877,6.877,0,0,0-2.913-5.62L104.44,29.77a7.449,7.449,0,0,0,.834.055m-3.716-1.094L93.917,46.749a6.806,6.806,0,0,0-7.575,4.374L54.544,43.8A6.691,6.691,0,0,0,54.4,42.43L99.523,26.716a6.9,6.9,0,0,0,2.035,2.014M63.979,13.765a6.883,6.883,0,0,0,6.755-5.582A56.663,56.663,0,0,1,99.386,19.388a6.844,6.844,0,0,0-.995,3.554,7.226,7.226,0,0,0,.065.909L53.107,39.641A6.9,6.9,0,0,0,51.861,38.4L63.756,13.754c.075,0,.148.01.223.01M57.286,8.454a6.884,6.884,0,0,0,3.462,4.5L49.086,37.109a6.9,6.9,0,0,0-1.42-.148,6.832,6.832,0,0,0-3.922,1.232L29.921,26.648a6.842,6.842,0,0,0-.233-6.333,56.709,56.709,0,0,1,27.6-11.861M13.6,62.741l28.59-14.746a6.857,6.857,0,0,0,5.424,2.728l9.8,31.321a7,7,0,0,0-1.516,1.678L13.511,66.062a6.836,6.836,0,0,0,.254-1.825,6.916,6.916,0,0,0-.168-1.5m6.752-33.029a6.877,6.877,0,0,0,7.682-.655l13.648,11.4a6.863,6.863,0,0,0-.758,4.755L12.283,59.976a6.88,6.88,0,0,0-3.644-2.388,56.684,56.684,0,0,1,11.71-27.876M23.2,98.391a6.862,6.862,0,0,0-3.417.913,56.633,56.633,0,0,1-11.3-28.38,6.888,6.888,0,0,0,3.572-2.155L54.857,86.6a7.38,7.38,0,0,0-.055.827,6.881,6.881,0,0,0,.412,2.326l-25.886,12.4A6.881,6.881,0,0,0,23.2,98.391M57.347,121.3A56.765,56.765,0,0,1,29.029,108.91a6.81,6.81,0,0,0,1.05-3.637l0-.079,26.8-12.845a6.882,6.882,0,0,0,2.429,1.534l1.606,23.08a6.882,6.882,0,0,0-3.565,4.337M60.2,80.715,50.609,50.057a6.892,6.892,0,0,0,3.27-3.27l32.055,7.38A6.842,6.842,0,0,0,87.028,57.3L65.043,81.426a6.8,6.8,0,0,0-4.844-.71M70.68,121.567a6.88,6.88,0,0,0-6.7-5.332l-.051,0L62.4,94.278a6.87,6.87,0,0,0,4.206-2.041l32.048,14.135c0,.062-.01.117-.01.178a6.848,6.848,0,0,0,1.019,3.589A56.66,56.66,0,0,1,70.68,121.567m28.747-18.2L68.213,89.6a6.842,6.842,0,0,0-.9-6.121l21.92-24.061a6.841,6.841,0,0,0,3.551.995,7.576,7.576,0,0,0,.844-.055l8.193,40.4a6.867,6.867,0,0,0-2.391,2.611M109.3,100.8a6.84,6.84,0,0,0-4.573-1.081L96.532,59.3A6.91,6.91,0,0,0,98.7,57.032l17.566,6.587a6.1,6.1,0,0,0-.031.618,6.88,6.88,0,0,0,5.531,6.745A56.707,56.707,0,0,1,109.3,100.8" transform="translate(0 0.001)" fill="#1e535a"/>
        </g>
      </g>
    </g>
    <g id="Elipse_13614" data-name="Elipse 13614" transform="translate(210.273 4348.213)" fill="#fff" stroke="#1e535a" stroke-width="3">
      <ellipse cx="40.732" cy="40.733" rx="40.732" ry="40.733" stroke="none"/>
      <ellipse cx="40.732" cy="40.733" rx="39.232" ry="39.233" fill="none"/>
    </g>
    <g id="Grupo_1212165" data-name="Grupo 1212165" transform="translate(223.39 4363.018)">
      <g id="Grupo_1212164" data-name="Grupo 1212164" clip-path="url(#clip-path-2)">
        <path id="Trazado_1284401" data-name="Trazado 1284401" d="M150.006,266.6a1.673,1.673,0,0,1-1.679,1.735l-8.192.022a1.756,1.756,0,0,1-1.841-1.853c.012-.515.021-.981,0-1.5l-4.994,0-.021-3.339H119.941a8.221,8.221,0,0,1-.017-1.675h15.023l.02,3.343,3.309,0c.07-.6,0-1.1.026-1.69a1.666,1.666,0,0,1,1.668-1.651h8.371a1.645,1.645,0,0,1,1.66,1.654Zm-6.688-3.28h-1.673V265h1.673Zm3.345,0H144.99V265h1.673Z" transform="translate(-99.838 -216.497)" fill="#1e535a"/>
        <path id="Trazado_1284402" data-name="Trazado 1284402" d="M128.286,203.36l-1.682-.015-.006,3.339-6.654,0a10.956,10.956,0,0,1-.019-1.677l4.993,0,.017-3.348,3.316-.009A1.718,1.718,0,0,1,129.944,200h8.371a1.645,1.645,0,0,1,1.66,1.655v5.033a1.659,1.659,0,0,1-1.672,1.662l-8.193.022a1.767,1.767,0,0,1-1.842-1.851Zm5.007-.026h-1.673v1.684h1.673Zm3.345,0h-1.673v1.684h1.673Z" transform="translate(-99.849 -166.55)" fill="#1e535a"/>
        <path id="Trazado_1284403" data-name="Trazado 1284403" d="M30.095,25.017A15.047,15.047,0,1,1,15.047,9.97,15.047,15.047,0,0,1,30.095,25.017m-2.506,0A12.541,12.541,0,1,0,15.047,37.558,12.541,12.541,0,0,0,27.588,25.017" transform="translate(0 -8.303)" fill="#1e535a"/>
        <path id="Trazado_1284404" data-name="Trazado 1284404" d="M50.82,66.665l-4.991.006a15.383,15.383,0,0,0-.109-2.188l-1.554,1.471-3.5-3.5L42.137,60.9a14.081,14.081,0,0,0-2.18-.1L39.95,55.8a9.153,9.153,0,0,0,2.19-.092l-1.48-1.521L44.2,50.646l1.523,1.475a12.49,12.49,0,0,0,.095-2.181h5a19.51,19.51,0,0,0,.069,2.187l1.585-1.481,3.5,3.539-1.482,1.561a17.522,17.522,0,0,0,2.191.052v5l-2.185.07,1.476,1.549-3.5,3.537-1.583-1.478a16.229,16.229,0,0,0-.067,2.186m0-8.36a2.5,2.5,0,1,0-2.5,2.5,2.5,2.5,0,0,0,2.5-2.5" transform="translate(-33.268 -41.588)" fill="#1e535a"/>
        <path id="Trazado_1284405" data-name="Trazado 1284405" d="M75.887,241.67H70.8a.878.878,0,0,1-.839-.85l0-10.858h6.694l0,10.857a.9.9,0,0,1-.76.853" transform="translate(-58.257 -191.5)" fill="#1e535a"/>
        <path id="Trazado_1284406" data-name="Trazado 1284406" d="M76.708,201.641l-6.683.014.018-3.682a17.421,17.421,0,0,0,6.632.006Z" transform="translate(-58.313 -164.861)" fill="#1e535a"/>
        <path id="Trazado_1284407" data-name="Trazado 1284407" d="M189.809,5.015l-.006,8.352-3.641-.008a7.683,7.683,0,0,1-.408-1.651l2.375-.016,0-8.35,4.991,0c.073-.6,0-1.106.027-1.691A1.666,1.666,0,0,1,194.819,0h8.371a1.646,1.646,0,0,1,1.66,1.655V6.688a1.658,1.658,0,0,1-1.672,1.662l-8.193.021a1.755,1.755,0,0,1-1.841-1.853c.013-.516.017-.979,0-1.509Zm8.358-1.68h-1.673V5.019h1.673Zm3.345,0H199.84V5.019h1.673Z" transform="translate(-154.687)" fill="#1e535a"/>
        <path id="Trazado_1284408" data-name="Trazado 1284408" d="M206.791,121.592a1.673,1.673,0,0,1-1.679,1.735l-8.192.022a1.755,1.755,0,0,1-1.842-1.853c.012-.515.021-.982,0-1.5l-5-.007,0-8.354-1.989-.036.235-1.618,3.426-.024,0,8.362,3.318.006c.069-.6,0-1.1.025-1.691a1.665,1.665,0,0,1,1.668-1.651h8.371a1.645,1.645,0,0,1,1.66,1.654Zm-6.688-3.28H198.43V120H200.1Zm3.345,0h-1.673V120h1.673Z" transform="translate(-156.623 -91.562)" fill="#1e535a"/>
        <path id="Trazado_1284409" data-name="Trazado 1284409" d="M196.315,76.773l-.024-1.759H189.65a14.665,14.665,0,0,1-.107-1.645l6.733-.029c.077-.591,0-1.1.029-1.688A1.666,1.666,0,0,1,197.973,70h8.371A1.646,1.646,0,0,1,208,71.655v5.033a1.659,1.659,0,0,1-1.672,1.662l-8.2.02a1.682,1.682,0,0,1-1.822-1.6m5.006-3.439h-1.672v1.684h1.672Zm3.345,0h-1.672v1.684h1.672Z" transform="translate(-157.842 -58.292)" fill="#1e535a"/>
      </g>
    </g>
  </g>
</svg>
