<svg xmlns="http://www.w3.org/2000/svg" xmlns:xlink="http://www.w3.org/1999/xlink" width="85" height="85" viewBox="0 0 85 85">
  <defs>
    <clipPath id="clip-path">
      <rect id="Rectángulo_465004" data-name="Rectángulo 465004" width="60.368" height="62.824" fill="#344866"/>
    </clipPath>
  </defs>
  <g id="Grupo_1212381" data-name="Grupo 1212381" transform="translate(-290 -6086)">
    <g id="Grupo_1211870" data-name="Grupo 1211870" transform="translate(110.266 565.158)">
      <rect id="Rectángulo_402006" data-name="Rectángulo 402006" width="85" height="85" rx="5" transform="translate(179.734 5520.842)" fill="#69d7e5"/>
      <g id="Grupo_1212098" data-name="Grupo 1212098" transform="translate(192.05 5533.385)">
        <g id="Grupo_1212097" data-name="Grupo 1212097" clip-path="url(#clip-path)">
          <path id="Trazado_1284212" data-name="Trazado 1284212" d="M60.329,58c-.01,4.873-17.267,6.708-24.263,2.424a3.465,3.465,0,0,1-1.739-3.572L4.345,56.8A4.554,4.554,0,0,1,0,52.071L0,4.733C0,2.446,1.656,0,4.148,0l48.7,0c2.349,0,4.087,2.384,4.089,4.543l.031,29.969c1.645.835,3.4,1.657,3.4,3.769ZM54.959,9.418l0-4.871a2.63,2.63,0,0,0-2.511-2.635l-47.7-.017A2.687,2.687,0,0,0,1.991,4.713l.041,4.711ZM3.517,13.954a.988.988,0,0,1,.958-1.039l47.905,0a1.01,1.01,0,0,1,1.038,1.1l0,19.328a1.807,1.807,0,0,0,1.562.448L54.97,11.414l-52.963.008L1.99,52.061a2.671,2.671,0,0,0,2.953,2.8l29.3,0a2.885,2.885,0,0,0,.006-1.529H4.741c-.725,0-1.227-.277-1.227-1.078Zm30.8,23.815-2.952-.032a.961.961,0,0,1-1.017-.935c-.01-.349.137-.981.676-.988l4.494-.053a13.737,13.737,0,0,1,5.244-2.1,35.456,35.456,0,0,1,10.667-.44V14.943l-45.932,0-.008,36.4H34.311l0-7.953-3.935-.05a.966.966,0,0,1-1-1.017c.094-1.693,3.357-.62,4.94-1.005ZM57.8,38.89c2.236-1.509-2.883-3-3.905-3.217a31.578,31.578,0,0,0-13.1,0c-1.078.23-4.628,1.316-4.466,2.46.169,1.2,3.745,2.219,5,2.457,4.592.87,12.522.968,16.472-1.7m.389,5.977c.477-1.331.047-2.678.116-3.882-5.579,2.892-16.477,2.825-22.007-.011.181,1.365-.344,2.741.18,3.916.417.936,1.888,1.456,2.916,1.751a29.025,29.025,0,0,0,15.906.005c.987-.278,2.55-.832,2.889-1.778m.037,6.52c.378-1.321.017-2.568.117-3.846-5.638,2.874-16.352,2.927-22.044-.03.136,1.354-.27,2.667.147,3.914.272.814,1.51,1.251,2.3,1.543,4.661,1.731,12.421,1.765,17.038.057.821-.3,2.188-.743,2.444-1.638m.029,6.525a19.376,19.376,0,0,0,.071-3.824c-5.566,2.937-16.489,2.851-22.019.022.089,1.425-.222,2.63.111,3.846.191.7,1.224,1.137,1.876,1.4,4.824,1.971,13.15,1.988,17.961.05.683-.275,1.835-.714,2-1.5" transform="translate(0)" fill="#344866"/>
          <path id="Trazado_1284213" data-name="Trazado 1284213" d="M54.811,216.5l-16.26,0a1.557,1.557,0,0,1-1.585-1.624l0-5.342a1.5,1.5,0,0,1,1.575-1.569l16.173,0a1.421,1.421,0,0,1,1.489,1.408l0,5.653a1.486,1.486,0,0,1-1.4,1.472m-.561-6.567H38.944v4.593H54.25Z" transform="translate(-29.671 -166.92)" fill="#344866"/>
          <path id="Trazado_1284214" data-name="Trazado 1284214" d="M47.185,183.19l-8.938-.027a.994.994,0,0,1-.924-1.071,1.008,1.008,0,0,1,1.109-.888l8.476,0a1,1,0,0,1,1.054.724,1.069,1.069,0,0,1-.776,1.259" transform="translate(-29.953 -145.444)" fill="#344866"/>
          <path id="Trazado_1284215" data-name="Trazado 1284215" d="M148.138,96.944l-8.395-.02c-.564,0-.839-.64-.794-1.05a1,1,0,0,1,.986-.893l8.091-.014a1.036,1.036,0,0,1,1.09.911.967.967,0,0,1-.978,1.065" transform="translate(-111.524 -76.226)" fill="#344866"/>
          <path id="Trazado_1284216" data-name="Trazado 1284216" d="M215.512,126.166l-7.2.034a1.025,1.025,0,0,1-1.137-.941.993.993,0,0,1,.965-1.028l7.243,0a.98.98,0,0,1,1,.846.916.916,0,0,1-.874,1.091" transform="translate(-166.29 -99.713)" fill="#344866"/>
          <path id="Trazado_1284217" data-name="Trazado 1284217" d="M44.554,88.622a1.024,1.024,0,0,1,.324,1.392.982.982,0,0,1-1.348.3l-2.82-2.082a1.03,1.03,0,0,1,0-1.717l2.818-2.072a.985.985,0,0,1,1.264.169.958.958,0,0,1-.087,1.368l-1.8,1.4Z" transform="translate(-32.306 -67.645)" fill="#344866"/>
          <path id="Trazado_1284218" data-name="Trazado 1284218" d="M102.631,90.2a1.02,1.02,0,0,1-1.516-.155c-.827-1.182,1.163-1.808,1.9-2.666-.725-.844-2.744-1.491-1.9-2.671a.985.985,0,0,1,1.33-.254l2.842,2.081a1.05,1.05,0,0,1,.441.748,1.029,1.029,0,0,1-.427.931Z" transform="translate(-81.001 -67.657)" fill="#344866"/>
          <path id="Trazado_1284219" data-name="Trazado 1284219" d="M38.6,154.887l-6.782,0a1.047,1.047,0,0,1-1.015-.886.9.9,0,0,1,.812-1.053l7.278.02c.515,0,.712.689.659,1.057a.988.988,0,0,1-.952.857" transform="translate(-24.72 -122.768)" fill="#344866"/>
          <path id="Trazado_1284220" data-name="Trazado 1284220" d="M99.776,126.187l-6.416.006a1.007,1.007,0,0,1-1.127-.937.979.979,0,0,1,.955-1.026l6.65-.006a.971.971,0,0,1,.987.847.961.961,0,0,1-1.049,1.117" transform="translate(-74.03 -99.708)" fill="#344866"/>
          <path id="Trazado_1284221" data-name="Trazado 1284221" d="M153.445,126.182l-6.508,0a.97.97,0,0,1-.974-.924,1,1,0,0,1,1.01-1.029l6.454,0a.981.981,0,0,1,.962.847.968.968,0,0,1-.943,1.1" transform="translate(-117.158 -99.714)" fill="#344866"/>
          <path id="Trazado_1284222" data-name="Trazado 1284222" d="M74.369,87.254a1.018,1.018,0,0,1-1.261.722,1,1,0,0,1-.634-1.3l2.12-5.766a.974.974,0,0,1,1.847.622Z" transform="translate(-58.12 -64.413)" fill="#344866"/>
          <path id="Trazado_1284223" data-name="Trazado 1284223" d="M216.026,154.874c-2.074.1-4.005.057-5.986.018a1.029,1.029,0,0,1-.96-.868c-.057-.431.2-1.048.765-1.049l6.295-.01a.88.88,0,0,1,.784.895.988.988,0,0,1-.9,1.014" transform="translate(-167.813 -122.778)" fill="#344866"/>
          <path id="Trazado_1284224" data-name="Trazado 1284224" d="M103.68,156l-5.72-.013a.971.971,0,1,1,0-1.941l5.531-.014A.989.989,0,1,1,103.68,156" transform="translate(-77.844 -123.634)" fill="#344866"/>
          <path id="Trazado_1284225" data-name="Trazado 1284225" d="M155.935,154.881c-1.858.123-3.589.034-5.372.042a1.085,1.085,0,0,1-1.053-.8c-.108-.341.109-1.129.674-1.131l5.866-.016c.488,0,.743.543.773.881a1,1,0,0,1-.887,1.02" transform="translate(-119.983 -122.791)" fill="#344866"/>
          <path id="Trazado_1284226" data-name="Trazado 1284226" d="M213.567,98.094c-1.869.112-3.616.066-5.395.02a.98.98,0,1,1,.188-1.95h4.952a1,1,0,0,1,1.089.747.972.972,0,0,1-.835,1.183" transform="translate(-166.349 -77.186)" fill="#344866"/>
          <path id="Trazado_1284227" data-name="Trazado 1284227" d="M113.689,181.89c.454,1.839-3.067,1.288-5.65,1.269a.991.991,0,0,1-.958-1.106,1.021,1.021,0,0,1,1.143-.861h4.356a1.008,1.008,0,0,1,1.109.7" transform="translate(-85.945 -145.433)" fill="#344866"/>
          <path id="Trazado_1284228" data-name="Trazado 1284228" d="M35.763,126.168l-3.956,0a.978.978,0,1,1,0-1.955l3.946,0a.984.984,0,1,1,.011,1.964" transform="translate(-24.717 -99.693)" fill="#344866"/>
          <path id="Trazado_1284229" data-name="Trazado 1284229" d="M154.107,239.862l-1.678.009a1,1,0,0,1-1.1-.912.974.974,0,0,1,.906-1.042c1.1-.075,2.967-.294,2.881,1.037a.947.947,0,0,1-1.006.907" transform="translate(-121.46 -190.917)" fill="#344866"/>
          <path id="Trazado_1284230" data-name="Trazado 1284230" d="M186.49,25.561l-15.93.006a1,1,0,0,1-1.086-.9,1.017,1.017,0,0,1,1.081-1.073l15.772,0c.707,0,1.161.308,1.18.948a.966.966,0,0,1-1.017,1.018" transform="translate(-136.024 -18.935)" fill="#344866"/>
          <path id="Trazado_1284231" data-name="Trazado 1284231" d="M23.968,19.165a2.317,2.317,0,1,1-2.317-2.317,2.317,2.317,0,0,1,2.317,2.317" transform="translate(-15.518 -13.523)" fill="#344866"/>
          <path id="Trazado_1284232" data-name="Trazado 1284232" d="M48.8,19.153a2.318,2.318,0,1,1-2.318-2.318A2.318,2.318,0,0,1,48.8,19.153" transform="translate(-35.448 -13.513)" fill="#344866"/>
          <path id="Trazado_1284233" data-name="Trazado 1284233" d="M73.644,19.166a2.318,2.318,0,1,1-2.318-2.317,2.318,2.318,0,0,1,2.318,2.317" transform="translate(-55.39 -13.524)" fill="#344866"/>
          <path id="Trazado_1284234" data-name="Trazado 1284234" d="M233.454,226.887a13.367,13.367,0,0,1-2.429-.026.92.92,0,0,1-.731-1.023c.1-1.136,1.659-.947,2.864-.884a1,1,0,0,1,.895.737,1.057,1.057,0,0,1-.6,1.2" transform="translate(-184.843 -180.519)" fill="#344866"/>
          <path id="Trazado_1284235" data-name="Trazado 1284235" d="M233.489,260.166a11.332,11.332,0,0,1-2.489-.024.9.9,0,0,1-.7-1.063.973.973,0,0,1,.979-.834c1.057-.055,2.521-.215,2.76.675a1.043,1.043,0,0,1-.549,1.246" transform="translate(-184.845 -207.244)" fill="#344866"/>
          <path id="Trazado_1284236" data-name="Trazado 1284236" d="M234.073,292.706c.082,1.3-2.171,1.121-3.007.983a.97.97,0,0,1-.789-1.01.98.98,0,0,1,1.113-.917h1.585a.994.994,0,0,1,1.1.945" transform="translate(-184.833 -234.183)" fill="#344866"/>
        </g>
      </g>
    </g>
  </g>
</svg>
