<svg xmlns="http://www.w3.org/2000/svg" xmlns:xlink="http://www.w3.org/1999/xlink" width="500" height="234" viewBox="0 0 500 234">
  <defs>
    <clipPath id="clip-path">
      <rect id="Rectángulo_464846" data-name="Rectángulo 464846" width="457" height="231.891" fill="none"/>
    </clipPath>
    <clipPath id="clip-path-2">
      <rect id="Rectángulo_464845" data-name="Rectángulo 464845" width="457" height="231.89" fill="none"/>
    </clipPath>
    <clipPath id="clip-path-3">
      <rect id="Rectángulo_464839" data-name="Rectángulo 464839" width="49.883" height="13.947" fill="none"/>
    </clipPath>
    <clipPath id="clip-path-4">
      <rect id="Rectángulo_464840" data-name="Rectángulo 464840" width="100.857" height="31.879" fill="none"/>
    </clipPath>
    <clipPath id="clip-path-5">
      <rect id="Rectángulo_464842" data-name="Rectángulo 464842" width="63.725" height="63.726" fill="none"/>
    </clipPath>
    <clipPath id="clip-path-6">
      <rect id="Rectángulo_464843" data-name="Rectángulo 464843" width="58.691" height="58.692" fill="none"/>
    </clipPath>
    <clipPath id="clip-path-7">
      <rect id="Rectángulo_464844" data-name="Rectángulo 464844" width="62.719" height="62.718" fill="none"/>
    </clipPath>
  </defs>
  <g id="Grupo_1212000" data-name="Grupo 1212000" transform="translate(-290 -3536)">
    <rect id="Rectángulo_464522" data-name="Rectángulo 464522" width="500" height="234" transform="translate(290 3536)" fill="none"/>
    <g id="Grupo_1211999" data-name="Grupo 1211999" transform="translate(312 3537)">
      <g id="Grupo_1211998" data-name="Grupo 1211998" clip-path="url(#clip-path)">
        <g id="Grupo_1211997" data-name="Grupo 1211997" transform="translate(0 0)">
          <g id="Grupo_1211996" data-name="Grupo 1211996" clip-path="url(#clip-path-2)">
            <path id="Trazado_1283687" data-name="Trazado 1283687" d="M71.084,313.858S21.28,323,5.426,288.4c-20.569-44.892,21.689-78.93,54.1-72.589,70.622,13.819,53.616-138.633,166.954-107.519,31.869,8.749,117.976-43.223,141.991,40.109,5.711,19.816,25.943,22,55.314,34.572,57.482,24.608,31.2,131.3-9.874,131.717s-342.827-.834-342.827-.834" transform="translate(0 -83.062)" fill="#fff7df"/>
            <rect id="Rectángulo_464829" data-name="Rectángulo 464829" width="29.332" height="109.302" transform="translate(318.066 122.091)" fill="#82b479"/>
            <rect id="Rectángulo_464830" data-name="Rectángulo 464830" width="21.553" height="109.302" transform="translate(304.371 122.091)" fill="#a8d29f"/>
            <path id="Trazado_1283688" data-name="Trazado 1283688" d="M1824.862,1260.951a4.811,4.811,0,1,1-4.811-4.811,4.811,4.811,0,0,1,4.811,4.811" transform="translate(-1504.542 -1041.138)" fill="#82b479"/>
            <rect id="Rectángulo_464831" data-name="Rectángulo 464831" width="29.332" height="109.302" transform="translate(361.094 122.091)" fill="#699dee"/>
            <rect id="Rectángulo_464832" data-name="Rectángulo 464832" width="21.553" height="109.302" transform="translate(347.399 122.091)" fill="#afcdfb"/>
            <path id="Trazado_1283689" data-name="Trazado 1283689" d="M2076.249,1260.951a4.811,4.811,0,1,1-4.811-4.811,4.811,4.811,0,0,1,4.811,4.811" transform="translate(-1712.901 -1041.138)" fill="#699dee"/>
            <rect id="Rectángulo_464833" data-name="Rectángulo 464833" width="9.622" height="57.37" transform="translate(353.726 133.214)" fill="#fff"/>
            <rect id="Rectángulo_464834" data-name="Rectángulo 464834" width="29.332" height="109.302" transform="translate(403.617 122.091)" fill="#d86713"/>
            <rect id="Rectángulo_464835" data-name="Rectángulo 464835" width="21.553" height="109.302" transform="translate(389.922 122.091)" fill="#f1a34f"/>
            <path id="Trazado_1283690" data-name="Trazado 1283690" d="M2324.689,1260.951a4.811,4.811,0,1,1-4.811-4.811,4.811,4.811,0,0,1,4.811,4.811" transform="translate(-1918.817 -1041.138)" fill="#d86713"/>
            <rect id="Rectángulo_464836" data-name="Rectángulo 464836" width="9.622" height="57.37" transform="translate(396.249 133.214)" fill="#fff"/>
            <rect id="Rectángulo_464837" data-name="Rectángulo 464837" width="9.622" height="57.37" transform="translate(310.336 133.948)" fill="#fff"/>
            <path id="Trazado_1283691" data-name="Trazado 1283691" d="M1229.936,583.933,1240.277,706.9s1.084,7.454-4.461,7.467c-9.116.022-45.375,0-45.375,0s6.861-1.552,6.778-5.043c-.1-4.115-12.088-126.556-12.088-126.556Z" transform="translate(-982.284 -483.022)" fill="#d86713"/>
            <path id="Trazado_1283692" data-name="Trazado 1283692" d="M1172.907,701.331c1.793.005,36.425.114,45.3,0,3.869-.048,4.547-3.44,4.579-5.635a11,11,0,0,0-.117-1.83l-.269-3.2-.686-8.146-.605-7.2-.778-9.248-.655-7.806L1212.33,570.9l-44.8-1.163s5.05,51.241,8.621,88.54c.4,4.156.778,8.141,1.129,11.86q.171,1.781.329,3.479c.331,3.529.634,6.77.9,9.631.139,1.508.267,2.909.383,4.193.456,5.03.723,8.242.726,8.853a5.185,5.185,0,0,1-.087,1c-.735,3.919-5.945,4.047-6.618,4.047" transform="translate(-967.691 -472.217)" fill="#ee9849"/>
            <path id="Trazado_1283693" data-name="Trazado 1283693" d="M616.459,198.624h215.1L806.372,299.811l-3.449,13.858L791.19,360.8H573.215Z" transform="translate(-475.103 -164.628)" fill="#f1a34f"/>
            <path id="Trazado_1283694" data-name="Trazado 1283694" d="M1887.1,198.623l3.491,1.164-39.223,164.532-4.642-3.52Z" transform="translate(-1530.636 -164.627)" fill="#ee9849"/>
            <path id="Trazado_1283695" data-name="Trazado 1283695" d="M795.835,1149.646H579.2l-5.982-3.52H791.193Z" transform="translate(-475.106 -949.955)" fill="#d86713"/>
            <rect id="Rectángulo_464838" data-name="Rectángulo 464838" width="46.904" height="2.229" transform="translate(197.749 229.163)" fill="#f1a34f"/>
            <path id="Trazado_1283696" data-name="Trazado 1283696" d="M1225,1166.685l.242,1.7,44.111,8.911-.605-7.2-.288-3.419Z" transform="translate(-1015.329 -966.995)" fill="#d86713"/>
            <g id="Grupo_1211983" data-name="Grupo 1211983" transform="translate(205.215 215.219)" opacity="0.4">
              <g id="Grupo_1211982" data-name="Grupo 1211982">
                <g id="Grupo_1211981" data-name="Grupo 1211981" clip-path="url(#clip-path-3)">
                  <path id="Trazado_1283697" data-name="Trazado 1283697" d="M1198.963,1271.3c1.793.005,36.425.114,45.3,0,3.869-.048,4.547-3.44,4.58-5.635l-43.9-8.26c.456,5.03.723,8.242.726,8.853a5.176,5.176,0,0,1-.087,1c-.735,3.919-5.945,4.047-6.618,4.047" transform="translate(-1198.963 -1257.408)" fill="#d86713"/>
                </g>
              </g>
            </g>
            <g id="Grupo_1211986" data-name="Grupo 1211986" transform="translate(223.167 164.293)" opacity="0.4">
              <g id="Grupo_1211985" data-name="Grupo 1211985">
                <g id="Grupo_1211984" data-name="Grupo 1211984" clip-path="url(#clip-path-4)">
                  <path id="Trazado_1283698" data-name="Trazado 1283698" d="M1303.844,959.892l92.92,31.86,7.935-31.879Z" transform="translate(-1303.843 -959.873)" fill="#d86713"/>
                </g>
              </g>
            </g>
            <path id="Trazado_1283699" data-name="Trazado 1283699" d="M656.867,198.623h215.1l-32.419,130.3-217.585.041Z" transform="translate(-515.51 -164.627)" fill="#f1a34f"/>
            <path id="Trazado_1283700" data-name="Trazado 1283700" d="M1175.679,1028.351a7.371,7.371,0,0,1,6.913-5.788,4.632,4.632,0,0,1,4.663,5.788,7.371,7.371,0,0,1-6.913,5.788,4.632,4.632,0,0,1-4.663-5.788" transform="translate(-974.358 -847.54)" fill="#d86713"/>
            <path id="Trazado_1283701" data-name="Trazado 1283701" d="M681.237,357.121h201.4l22.808-90.861,1.748-6.968,1.492-5.943,3.5-13.936h-198.5l-3.841,13.936-1.638,5.943-1.921,6.968Z" transform="translate(-564.636 -198.435)" fill="#e9f3fe"/>
            <path id="Trazado_1283702" data-name="Trazado 1283702" d="M852.222,239.413h198.5l-3.5,13.936H848.38Z" transform="translate(-703.171 -198.435)" fill="#a8d29f"/>
            <path id="Trazado_1283703" data-name="Trazado 1283703" d="M1964.129,266.031a1.316,1.316,0,0,1,1.308,1.742,2.379,2.379,0,0,1-2.177,1.742,1.316,1.316,0,0,1-1.308-1.742,2.38,2.38,0,0,1,2.176-1.742" transform="translate(-1626.099 -220.497)" fill="#e9f3fe"/>
            <path id="Trazado_1283704" data-name="Trazado 1283704" d="M1930.31,266.031a1.316,1.316,0,0,1,1.308,1.742,2.38,2.38,0,0,1-2.176,1.742,1.316,1.316,0,0,1-1.308-1.742,2.38,2.38,0,0,1,2.177-1.742" transform="translate(-1598.068 -220.497)" fill="#e9f3fe"/>
            <path id="Trazado_1283705" data-name="Trazado 1283705" d="M1891.719,267.773a2.38,2.38,0,0,1,2.177-1.742,1.316,1.316,0,0,1,1.308,1.742,2.38,2.38,0,0,1-2.176,1.742,1.316,1.316,0,0,1-1.308-1.742" transform="translate(-1567.885 -220.497)" fill="#e9f3fe"/>
            <path id="Trazado_1283706" data-name="Trazado 1283706" d="M246.146,1273.257s-2.564,2.376-2.064,4.065,2.814,2.814,3.127,4.877,1.563,3.189,2.689,3.189h5.366s.828-1.452-1.172-1.89-2.756-2.863-2.63-5.114a40.312,40.312,0,0,0-.188-5.253l-4.252-1Z" transform="translate(-202.251 -1054.393)" fill="#233862"/>
            <path id="Trazado_1283707" data-name="Trazado 1283707" d="M454.4,1312.073H440.151a1.243,1.243,0,0,1-.278-.083c-.95-.475-.654-4.108-.539-5.234.022-.209.038-.331.038-.331s5-4,5.691-.937c.021.1.047.189.074.282.865,2.866,4.749,4.17,6.992,4.532a2.443,2.443,0,0,1,2.271,1.772" transform="translate(-364.025 -1081.081)" fill="#233862"/>
            <path id="Trazado_1283708" data-name="Trazado 1283708" d="M408.47,863.911s-.76,9.479-1.653,20.873c-1.214,15.478-2.673,34.49-2.818,38.092-.25,6.254-1.251,16.258-1.251,16.258s-2.375,2.377-7.128,1.375a163.668,163.668,0,0,1-5.446-29.392c-.019-.248-.038-.5-.056-.747-1.126-15.383-2.876-47.774-2.876-47.774Z" transform="translate(-320.961 -714.955)" fill="#699dee"/>
            <path id="Trazado_1283709" data-name="Trazado 1283709" d="M408.47,863.911s-.76,9.479-1.653,20.873l-16.643,26.334c-.019-.248-.038-.5-.056-.747-1.126-15.383-2.876-47.774-2.876-47.774Z" transform="translate(-320.961 -714.955)" fill="#4a75cb"/>
            <path id="Trazado_1283710" data-name="Trazado 1283710" d="M296.6,846.869S282.9,881.2,273.9,897.331s-11.818,20.635-11.818,20.635-5.159-2.063-5.628-3.47c0,0,3.443-31.145,9.473-38.737,3.407-4.29,7.41-17.164,7.6-21.667s1.219-13.412,1.219-13.412Z" transform="translate(-212.557 -696.788)" fill="#699dee"/>
            <path id="Trazado_1283711" data-name="Trazado 1283711" d="M559.631,821.476l.783,1.56a3.5,3.5,0,0,1,2.885,4.706s-.59,1.707-1.688,1.167-.557-.494-2.13-1.221-2.483-2.124-2.132-3.4l-.252-1.358Z" transform="translate(-461.744 -680.872)" fill="#ffb27d"/>
            <path id="Trazado_1283712" data-name="Trazado 1283712" d="M396.711,512.413a40.217,40.217,0,0,0,.628-5.726l-6.948-5.6c.258,7.7-4.676,11.4-4.676,11.4s9.259,4.558,14.611,2.87a12.82,12.82,0,0,0-3.615-2.946" transform="translate(-319.696 -415.322)" fill="#ffb27d"/>
            <path id="Trazado_1283713" data-name="Trazado 1283713" d="M411.989,462.247s-8.839,1.468-9.669-4.05-2.529-9.046,3.079-10.217,7.024.77,7.749,2.544,1.119,11.2-1.159,11.722" transform="translate(-332.71 -371.008)" fill="#ffb27d"/>
            <path id="Trazado_1283714" data-name="Trazado 1283714" d="M390.64,440.288a9.148,9.148,0,0,1,8.232-8.579c5.516-.813,2.176-5.422,1.545-6.152,0,0-4.217.8-8.533,1.752-9.059,1.988-2.2,11.88-1.244,12.979" transform="translate(-320.971 -352.719)" fill="#163560"/>
            <path id="Trazado_1283715" data-name="Trazado 1283715" d="M415.691,632.047a15.127,15.127,0,0,0,2.059-2.791s-10.043-12.477-10.859-13.771-6.916-22.048-6.916-22.048l-15.424-3.125s12.874,26.561,15.007,29.8c3.524,5.351,14.068,13.315,14.068,13.315a6.351,6.351,0,0,0,2.064-1.378" transform="translate(-318.731 -489.274)" fill="#82b479"/>
            <path id="Trazado_1283716" data-name="Trazado 1283716" d="M384.169,609.712a.865.865,0,0,1-.562.214c-2.009-.027-7.869,1.089-12.828.58a36.937,36.937,0,0,1-11.853-3.42c-.528-.236-1.742-.885-1.715-1.474.018-.646.082-1.582.162-2.762a147.678,147.678,0,0,0,.294-19.292c-.086-1.515-.131-3.018-.136-4.5-.041-11.029,2.108-20.784,6.5-24.067.376-.269,2.718.912,4.835,1.956a7.081,7.081,0,0,0,5.173.569l2.437,1.763a18.471,18.471,0,0,1,5.788,9.245c.912,3.671,1.447,10.291,1.742,17.151.134,3.108.242,6.244.269,9.219V595c.026.295.026.617.026.912.108,7.637,0,13.693-.134,13.8" transform="translate(-296.07 -459.966)" fill="#a8d29f"/>
            <path id="Trazado_1283717" data-name="Trazado 1283717" d="M358.162,682.484a147.721,147.721,0,0,0,.294-19.292c-.086-1.515-.131-3.018-.136-4.5,1.831-4.441,3.327-7.661,3.327-7.661h4.614s3.383,23.107-8.1,31.452" transform="translate(-296.859 -539.601)" fill="#82b479"/>
            <path id="Trazado_1283718" data-name="Trazado 1283718" d="M279.9,836.76l-.876,1.51a3.5,3.5,0,0,1-2.355,4.992s-1.752.442-1.9-.772.108-.737-.146-2.451.415-3.241,1.68-3.649l1-.955Z" transform="translate(-227.572 -692.441)" fill="#ffb27d"/>
            <path id="Trazado_1283719" data-name="Trazado 1283719" d="M281.085,608.7a15.119,15.119,0,0,0,3.463.193s4.933-15.238,5.568-16.631S304.768,574.4,304.768,574.4l-5.84-14.614s-15.161,25.325-16.7,28.884c-2.544,5.88-3.427,19.065-3.427,19.065a6.348,6.348,0,0,0,2.284.971" transform="translate(-231.081 -463.969)" fill="#a8d29f"/>
            <path id="Trazado_1283720" data-name="Trazado 1283720" d="M870.945,177.444H776.921L809.063,47.405h94.024Z" transform="translate(-643.942 -39.292)" fill="#afcdfb"/>
            <path id="Trazado_1283721" data-name="Trazado 1283721" d="M788.891,130.041H694.867L727.01,0h94.024Z" transform="translate(-575.933 -0.002)" fill="#c0d8f9"/>
            <path id="Trazado_1283722" data-name="Trazado 1283722" d="M898.228,47.405,868.479,168.553l-78.166.778L870.84,171.1Z" transform="translate(-655.042 -39.291)" fill="#699dee"/>
            <path id="Trazado_1283723" data-name="Trazado 1283723" d="M1973.107,1259.52l-2.1,8.829-3.14-.018-.115-8.812Z" transform="translate(-1630.953 -1043.939)" fill="#e49963"/>
            <path id="Trazado_1283724" data-name="Trazado 1283724" d="M1804.557,1256.091l-5.965,8.453-2.325-2.985,3.59-6.63Z" transform="translate(-1488.816 -1040.134)" fill="#e49963"/>
            <path id="Trazado_1283725" data-name="Trazado 1283725" d="M1918.825,576.865a6.08,6.08,0,0,1,3.292-.63,1.538,1.538,0,0,0-.694-.33,5.1,5.1,0,0,1,1.821.475c7.838-3.02,9.07,8.52,8.905,11.2s2.634,3.557,6.712,5.669c7.781,4.031,8.464,9.428,8.464,9.428-.06.036-.124.076-.191.123-.386-.654-1.181-1.882-1.851-2.068a27.788,27.788,0,0,1,1.078,2.626c-2.3,1.746-6.589,5.615-9.582,8.358a4.4,4.4,0,0,0-.2-1.7l-.37,2.226c-1.6,1.472-2.706,2.508-2.706,2.508.2-2.167-9.8-13.6-15.015-17.025a15.075,15.075,0,0,1-1.755-5.431,14.26,14.26,0,0,0,1.067,4.914c-4.417-4.065-1.845-18.714,1.028-20.346" transform="translate(-1587.576 -477.313)" fill="#163560"/>
            <path id="Trazado_1283726" data-name="Trazado 1283726" d="M1935.118,667.128c-.026.012,2.518,1.333,4.432.809,1.8-.491,2.977-2.825,2.952-2.83-.762-.151-.982-1.2-.966-5.7l-.345.068-5.8,1.148s.132,1.824.136,3.542c0,1.443-.083,2.811-.414,2.965" transform="translate(-1603.901 -546.542)" fill="#e49963"/>
            <path id="Trazado_1283727" data-name="Trazado 1283727" d="M1936.744,660.95s.132,1.824.136,3.542c3.243-.091,4.957-3.05,5.659-4.689Z" transform="translate(-1605.249 -546.871)" fill="#d68d5d"/>
            <path id="Trazado_1283728" data-name="Trazado 1283728" d="M1925.464,598.457a17.044,17.044,0,0,0,2.107-4.981c.291-1.639-.544-7.715-6.65-6.84a8.294,8.294,0,0,0-3.44,1.3c-1.326.9-3.239,2.828-1.1,8.13l.556,1.791Z" transform="translate(-1587.576 -486.156)" fill="#163560"/>
            <path id="Trazado_1283729" data-name="Trazado 1283729" d="M1801.8,958.261l3.072.094,3.325.1a65.633,65.633,0,0,0,11.988-22.259q.151-.478.319-.967c2.358-6.875,7.245-15.5,9.821-23.315.41-1.244.778-2.415,1.108-3.523.106-.355.209-.7.307-1.047a82.855,82.855,0,0,0,2.954-15.552l-18.6.149a346.712,346.712,0,0,1-14.3,66.319" transform="translate(-1493.4 -739.153)" fill="#2b478b"/>
            <path id="Trazado_1283730" data-name="Trazado 1283730" d="M1887.473,713.5c.047,8.851-1.3,12.648-1.3,12.648a24.993,24.993,0,0,0,17.428,1.068c.111-.035,7.119-1.441,7.119-1.441-.159-.358-2.091-6.481-2.246-6.81a26.337,26.337,0,0,1-2.51-7.691,28.06,28.06,0,0,1-.23-7.415,59.5,59.5,0,0,1,2.3-11.645,60.484,60.484,0,0,1-7.678-2.624,6,6,0,0,1-4.142,1.536c-1.885-.042-2.5-.849-2.4-1.73-2.009,1.118-3.612,2.174-3.612,2.174-1.708,2.966-5.171,5.846-5.422,10.4-.062,1.119,2.694,11.286,2.695,11.534" transform="translate(-1562.177 -571.399)" fill="#e7f1fd"/>
            <path id="Trazado_1283731" data-name="Trazado 1283731" d="M1761.123,700.35c2.73-3.19,9.8-10.107,17.1-10.955l-6.3,12.272a5.43,5.43,0,0,1-2.22,3.329,36.554,36.554,0,0,1-10.379,4.33,54.522,54.522,0,0,1-9.313-5.657c-1.688-1.237-4.654-5.955-4.654-5.955l.8-2.677s5.036,2.816,6.835,3.628c1.025.463,3.385,1.568,5.049,2.349a2.6,2.6,0,0,0,3.076-.663" transform="translate(-1446.625 -571.398)" fill="#699dee"/>
            <path id="Trazado_1283732" data-name="Trazado 1283732" d="M1918.042,613.319s7.673.127,7.678-4.653,1-7.982-3.9-8.265-5.852,1.54-6.242,3.135.468,9.627,2.464,9.783" transform="translate(-1587.63 -497.613)" fill="#e49963"/>
            <path id="Trazado_1283733" data-name="Trazado 1283733" d="M1932.076,595.155s2.1,5.607,5.325,6.436,4.622-.035,4.622-.035a9.13,9.13,0,0,1-2.986-5.394s-5.376-3.676-6.961-1.008" transform="translate(-1601.38 -492.483)" fill="#163560"/>
            <path id="Trazado_1283734" data-name="Trazado 1283734" d="M1916.306,598.092a6.777,6.777,0,0,0-1.951,2.469c-.382,1.217-.555,3.722-1.285,3.637,0,0-1.583-3.811.2-5.967,1.886-2.286,3.04-.139,3.04-.139" transform="translate(-1585.089 -494.964)" fill="#163560"/>
            <path id="Trazado_1283735" data-name="Trazado 1283735" d="M1717.7,705.887a4.789,4.789,0,0,0-5.367-3.347c-.492.154-1.929.727-1.01,2.266.677,1.134.97.549,2.035,2.073a3.394,3.394,0,0,0,3.542,1.686Z" transform="translate(-1418.162 -582.248)" fill="#e49963"/>
            <path id="Trazado_1283736" data-name="Trazado 1283736" d="M1967.72,1308.223a8.508,8.508,0,0,0,.4,3.62s.514,2.342-1.792,2.385-2.872-.174-2.611-1.61.758-3.92.758-3.92Z" transform="translate(-1627.557 -1084.306)" fill="#e49963"/>
            <path id="Trazado_1283737" data-name="Trazado 1283737" d="M1962.72,1332.468s.049.031.145.077h4.515a1.1,1.1,0,0,0,.127-.077,11.335,11.335,0,0,0-.166-3.386c-2.612,2.394-4.247-.059-4.247-.059a12.243,12.243,0,0,0-.375,3.445" transform="translate(-1626.777 -1101.546)" fill="#d86713"/>
            <path id="Trazado_1283738" data-name="Trazado 1283738" d="M1763.786,1300.787s4.252-4.719,5.557-7.121l3.162,1.62-7.068,6.637-1.654-.218Z" transform="translate(-1461.893 -1072.241)" fill="#e49963"/>
            <path id="Trazado_1283739" data-name="Trazado 1283739" d="M1748.383,1311.083h5.819a8.27,8.27,0,0,0,1.734-2.689,2.851,2.851,0,0,1,1.926-1.286v3.931h1.207l1.143-4.178c.752-1.384.059-2.638-.471-3.731-.616,0-2.273.42-5.414,3.959a4.117,4.117,0,0,1-3.3,1.542.3.3,0,0,1-.046.025,4.216,4.216,0,0,0-2.592,2.428" transform="translate(-1449.128 -1080.085)" fill="#d86713"/>
            <path id="Trazado_1283740" data-name="Trazado 1283740" d="M1881.3,689.395s-4.439,10.966-4.57,13.186-.522,36.293-.522,36.293.261,1.567-2.741.914-3.786-1.305-3.786-1.305,2.872-21.018,2.089-28.329,6.005-19.234,6.005-19.234Z" transform="translate(-1549.661 -571.398)" fill="#699dee"/>
            <path id="Trazado_1283741" data-name="Trazado 1283741" d="M1819.744,1023.6l3.325.1a65.634,65.634,0,0,0,11.988-22.259q.151-.478.319-.967c2.358-6.875,7.245-15.5,9.821-23.315.41-1.244.778-2.415,1.108-3.523.106-.355.209-.7.307-1.047l-2.739-2.078s-8.223,13.316-10.769,25.848c-2.212,10.885-11.068,23.983-13.361,27.24" transform="translate(-1508.275 -804.4)" fill="#233862"/>
            <path id="Trazado_1283742" data-name="Trazado 1283742" d="M1950.2,980.416c-.047,6.094.261,20.1,1.055,25.905h2.945c1.628,0,2.44-.023,2.44-.023,1.991-10.085,3.407-18.43,4.439-25.62.846-5.9,1.6-10.96,2.177-15.315.582-4.383.987-8.052,1.132-11.153.022-.488.039-.964.048-1.424s.012-.914.008-1.351l-16.071-1.566c.2,10.678,1.854,27.007,1.828,30.549" transform="translate(-1614.885 -787.287)" fill="#2b478b"/>
            <path id="Trazado_1283743" data-name="Trazado 1283743" d="M1982.418,1027.347c1.628,0,2.44-.023,2.44-.023,1.991-10.085,3.407-18.43,4.438-25.62.846-5.9,1.6-10.96,2.177-15.315.583-4.383.987-8.053,1.132-11.153l-5.9,3.469s3.764,1.328,2.328,11.38-4.619,35.84-6.617,37.263" transform="translate(-1643.105 -808.314)" fill="#233862"/>
            <path id="Trazado_1283744" data-name="Trazado 1283744" d="M1951.391,739.3s1.132,4.09,5.048,3.568a47.2,47.2,0,0,0,9.486-2.872s-1.674-5.289-3.754-12.237c-2.52-8.411-5.638-19.255-7.108-26.094a42.274,42.274,0,0,1-.8-4.663l-3.25-6.3s-4.845,10.873-5.106,13.615,5.483,34.987,5.483,34.987" transform="translate(-1612.837 -572.48)" fill="#699dee"/>
            <path id="Trazado_1283745" data-name="Trazado 1283745" d="M1978.982,763.17c.175,4.439,1.219,13.055,10.531,17.667.025.012.05.025.075.035-2.52-8.411-5.639-19.255-7.109-26.094-1.71,2.556-3.593,5.948-3.5,8.392" transform="translate(-1640.255 -625.59)" fill="#4a75cb"/>
            <rect id="Rectángulo_464841" data-name="Rectángulo 464841" width="4.153" height="16.517" transform="translate(283.422 104.333) rotate(-45)" fill="#2b478b"/>
            <path id="Trazado_1283746" data-name="Trazado 1283746" d="M1775.687,711.187l-1.024,1.025a5.162,5.162,0,0,1-7.3,0l-57.153-57.153a5.162,5.162,0,0,1,0-7.3l1.024-1.025a5.161,5.161,0,0,1,7.3,0l57.153,57.153a5.161,5.161,0,0,1,0,7.3" transform="translate(-1416.236 -534.786)" fill="#c65447"/>
            <path id="Trazado_1283747" data-name="Trazado 1283747" d="M1191.089,127.613a48.846,48.846,0,1,0,69.079,0,48.846,48.846,0,0,0-69.079,0m65.274,65.274a43.465,43.465,0,1,1,0-61.469,43.465,43.465,0,0,1,0,61.469" transform="translate(-975.363 -93.913)" fill="#c65447"/>
            <path id="Trazado_1283748" data-name="Trazado 1283748" d="M1927.528,703.907,1923.24,690.7a66.19,66.19,0,0,1,8.135,2.982s1.7,2.191,2.75,7.245c0,0,1.111,12.135-1.37,16.574,0,0-7.833,1.566-20.365-2.742v-2.872s13.708.718,16.514,1.044Z" transform="translate(-1585.063 -572.48)" fill="#e49963"/>
            <path id="Trazado_1283749" data-name="Trazado 1283749" d="M1973.553,690.7s7.949.56,9.864,4.825,2.524,18.451.087,22.628c0,0-3.355.955-9.289-.154l-.219-.042s-1.893-4.634-.2-5.548c0,0,5,.261,4.482-1.393s-4.729-20.316-4.729-20.316" transform="translate(-1635.376 -572.48)" fill="#699dee"/>
            <path id="Trazado_1283750" data-name="Trazado 1283750" d="M1887.4,792.576a6.855,6.855,0,0,1-1.325-2.675,2.907,2.907,0,0,0-2.84-2.6c-1.885-.248-2.7-.275-2.69.257a14.067,14.067,0,0,0,4.245,6.456c2.7,2.215,2.611-1.437,2.611-1.437" transform="translate(-1558.67 -652.405)" fill="#e49963"/>
            <g id="Grupo_1211989" data-name="Grupo 1211989" transform="translate(211.302 28.957)" opacity="0.4">
              <g id="Grupo_1211988" data-name="Grupo 1211988">
                <g id="Grupo_1211987" data-name="Grupo 1211987" clip-path="url(#clip-path-5)">
                  <path id="Trazado_1283751" data-name="Trazado 1283751" d="M1292.73,169.18l-58.212,58.212a43.458,43.458,0,0,0,3.249,5.514l60.476-60.476a43.431,43.431,0,0,0-5.514-3.25" transform="translate(-1234.519 -169.18)" fill="#fff"/>
                </g>
              </g>
            </g>
            <g id="Grupo_1211992" data-name="Grupo 1211992" transform="translate(206.829 24.484)" opacity="0.4">
              <g id="Grupo_1211991" data-name="Grupo 1211991">
                <g id="Grupo_1211990" data-name="Grupo 1211990" clip-path="url(#clip-path-6)">
                  <path id="Trazado_1283752" data-name="Trazado 1283752" d="M1267.08,145.8a43.487,43.487,0,0,0-55.947,55.947Z" transform="translate(-1208.389 -143.051)" fill="#fff"/>
                </g>
              </g>
            </g>
            <g id="Grupo_1211995" data-name="Grupo 1211995" transform="translate(231.042 48.697)" opacity="0.4">
              <g id="Grupo_1211994" data-name="Grupo 1211994">
                <g id="Grupo_1211993" data-name="Grupo 1211993" clip-path="url(#clip-path-7)">
                  <path id="Trazado_1283753" data-name="Trazado 1283753" d="M1349.847,342.738a43.477,43.477,0,0,0,58.229-58.229Z" transform="translate(-1349.847 -284.509)" fill="#fff"/>
                </g>
              </g>
            </g>
            <path id="Trazado_1283754" data-name="Trazado 1283754" d="M44.394,1350.389H485.544a.394.394,0,1,0,0-.787H44.394a.394.394,0,1,0,0,.787" transform="translate(-36.469 -1118.603)" fill="#283250"/>
          </g>
        </g>
      </g>
    </g>
  </g>
</svg>
