<svg xmlns="http://www.w3.org/2000/svg" xmlns:xlink="http://www.w3.org/1999/xlink" width="150" height="150" viewBox="0 0 150 150">
  <defs>
    <clipPath id="clip-path">
      <rect id="Rectángulo_454829" data-name="Rectángulo 454829" width="150" height="150" fill="#1e535a"/>
    </clipPath>
    <clipPath id="clip-path-2">
      <rect id="Rectángulo_465038" data-name="Rectángulo 465038" width="57.041" height="57.051" fill="#1e535a"/>
    </clipPath>
  </defs>
  <g id="Grupo_1211721" data-name="Grupo 1211721" transform="translate(-186 -4323.945)">
    <g id="Grupo_1177591" data-name="Grupo 1177591" transform="translate(186 4323.945)">
      <g id="Grupo_1177589" data-name="Grupo 1177589" transform="translate(0 0)">
        <g id="Grupo_1177587" data-name="Grupo 1177587" clip-path="url(#clip-path)">
          <path id="Trazado_997422" data-name="Trazado 997422" d="M143.876,66.392A68.963,68.963,0,0,0,128.3,30.506a7.931,7.931,0,0,0-11.16-10.685A68.861,68.861,0,0,0,81.486,5.891,7.933,7.933,0,0,0,66.079,6.2,68.956,68.956,0,0,0,31.872,20.827,7.935,7.935,0,0,0,20.859,31.915,68.9,68.9,0,0,0,6.425,66.324a7.938,7.938,0,0,0-.19,15.546,68.878,68.878,0,0,0,13.982,35.106A7.934,7.934,0,0,0,31,128.179,68.951,68.951,0,0,0,66.016,143.5a7.935,7.935,0,0,0,15.546.313,68.892,68.892,0,0,0,35.914-14.188,7.933,7.933,0,0,0,11.1-10.74A68.98,68.98,0,0,0,144.062,81.8a7.935,7.935,0,0,0-.186-15.4M121.469,34.413a7.89,7.89,0,0,0,4.394-1.33,65.489,65.489,0,0,1,14.453,33.289,7.946,7.946,0,0,0-5.071,3.674l-20.281-7.6c.016-.222.032-.447.032-.677a7.935,7.935,0,0,0-3.361-6.484l8.871-20.93a8.6,8.6,0,0,0,.962.063m-4.287-1.263-8.816,20.791a7.853,7.853,0,0,0-8.741,5.047L62.936,50.537a7.72,7.72,0,0,0-.166-1.58l52.065-18.131a7.961,7.961,0,0,0,2.348,2.324M73.822,15.882a7.941,7.941,0,0,0,7.795-6.441,65.381,65.381,0,0,1,33.059,12.929,7.9,7.9,0,0,0-1.148,4.1,8.337,8.337,0,0,0,.075,1.049L61.277,45.739A7.965,7.965,0,0,0,59.84,44.3L73.565,15.87c.087,0,.17.012.257.012M66.1,9.754a7.943,7.943,0,0,0,3.994,5.2L56.637,42.817A7.963,7.963,0,0,0,55,42.647a7.883,7.883,0,0,0-4.525,1.421L34.524,30.747a7.894,7.894,0,0,0-.269-7.308A65.433,65.433,0,0,1,66.1,9.754M15.688,72.393,48.676,55.378a7.912,7.912,0,0,0,6.259,3.147L66.241,94.665a8.071,8.071,0,0,0-1.75,1.936l-48.9-20.376a7.888,7.888,0,0,0,.293-2.106,7.98,7.98,0,0,0-.194-1.726m7.791-38.111a7.935,7.935,0,0,0,8.864-.756L48.091,46.677a7.919,7.919,0,0,0-.875,5.487L14.172,69.2a7.939,7.939,0,0,0-4.2-2.755A65.4,65.4,0,0,1,23.479,34.282m3.286,79.246a7.918,7.918,0,0,0-3.943,1.053A65.346,65.346,0,0,1,9.786,81.835a7.948,7.948,0,0,0,4.121-2.486L63.3,99.926a8.514,8.514,0,0,0-.063.954,7.939,7.939,0,0,0,.475,2.684L33.839,117.875a7.94,7.94,0,0,0-7.074-4.347M66.17,139.96a65.5,65.5,0,0,1-32.675-14.295,7.858,7.858,0,0,0,1.211-4.2l0-.091,30.926-14.821a7.941,7.941,0,0,0,2.8,1.77l1.853,26.63a7.941,7.941,0,0,0-4.113,5m3.29-46.828L58.4,57.758a7.952,7.952,0,0,0,3.773-3.773L99.154,62.5a7.894,7.894,0,0,0,1.263,3.61L75.049,93.952a7.843,7.843,0,0,0-5.59-.819m12.094,47.136a7.938,7.938,0,0,0-7.731-6.152l-.059,0L72,108.782a7.927,7.927,0,0,0,4.853-2.355l36.978,16.31c0,.071-.012.135-.012.206A7.9,7.9,0,0,0,115,127.083a65.377,65.377,0,0,1-33.443,13.186m33.17-21-36.016-15.89a7.894,7.894,0,0,0-1.041-7.062l25.292-27.762a7.894,7.894,0,0,0,4.1,1.148,8.74,8.74,0,0,0,.974-.063l9.453,46.618a7.923,7.923,0,0,0-2.759,3.013m11.393-2.969a7.893,7.893,0,0,0-5.277-1.247l-9.457-46.638a7.973,7.973,0,0,0,2.5-2.613l20.269,7.6a7.042,7.042,0,0,0-.036.713A7.938,7.938,0,0,0,140.5,81.9a65.431,65.431,0,0,1-14.382,34.4" transform="translate(0 0.002)" fill="#1e535a"/>
        </g>
      </g>
    </g>
    <g id="Elipse_13614" data-name="Elipse 13614" transform="translate(210.273 4348.213)" fill="#fff" stroke="#1e535a" stroke-width="3">
      <ellipse cx="50.732" cy="50.733" rx="50.732" ry="50.733" stroke="none"/>
      <ellipse cx="50.732" cy="50.733" rx="49.232" ry="49.233" fill="none"/>
    </g>
    <g id="Grupo_1212147" data-name="Grupo 1212147" transform="translate(232.48 4370.42)">
      <g id="Grupo_1212146" data-name="Grupo 1212146" clip-path="url(#clip-path-2)">
        <path id="Trazado_1284358" data-name="Trazado 1284358" d="M249.777,94.119a2.947,2.947,0,1,1-5.893.109l-.037-23.78a4.805,4.805,0,0,0-3.885-4.626l-.026-15.842,6.9.01a2.906,2.906,0,0,1,2.943,2.963Z" transform="translate(-192.737 -40.148)" fill="#1e535a"/>
        <path id="Trazado_1284359" data-name="Trazado 1284359" d="M47.068,45.474a3.634,3.634,0,0,0-3.692-2.7l-23.372.014-.02-3.943,9.824,0a1.026,1.026,0,0,0,.986-.992L30.8,30l20.655,0,0,19.633a12.213,12.213,0,0,1-1.975.024,1.62,1.62,0,0,1-1.553-1.192ZM48.505,34.9H36.7v1.981h11.8Zm0,3.934H32.768V40.82H48.505Z" transform="translate(-16.054 -24.094)" fill="#1e535a"/>
        <path id="Trazado_1284360" data-name="Trazado 1284360" d="M85.577,15.733l4.874,0a14.587,14.587,0,0,0,.019-1.968L85.6,13.764a14.2,14.2,0,0,1-.019-1.966l4.874.006a14.538,14.538,0,0,0,.018-1.969l-4.893-.008-.03-4.919a.961.961,0,0,0-.987-.976l-22.773.031c-.705,0-.976.9-1.72,1.176L60,0,93.434,0V25.567l-7.833.008a13.034,13.034,0,0,1-.025-1.974l4.874.006a14.641,14.641,0,0,0,.019-1.969L85.6,21.632a14.167,14.167,0,0,1-.019-1.966l4.875.006a14.64,14.64,0,0,0,.018-1.969l-4.87,0a12.862,12.862,0,0,1-.022-1.965" transform="translate(-48.195 -0.001)" fill="#1e535a"/>
        <path id="Trazado_1284361" data-name="Trazado 1284361" d="M36.6,41.592l-6.962-.08,6.871-5.64Z" transform="translate(-23.806 -28.815)" fill="#1e535a"/>
        <path id="Trazado_1284362" data-name="Trazado 1284362" d="M49.151,114.7l.02,23.481a5.725,5.725,0,0,0,.934,3.178l-47.132-.008A2.923,2.923,0,0,1,0,138.383l0-29.475a3.931,3.931,0,0,1,4.13-3.954l23.573.025a1.536,1.536,0,0,1,1.378,1.163l.942,3.208a3.5,3.5,0,0,0,3.41,2.487H46.031a2.917,2.917,0,0,1,3.12,2.862M22.494,137.948l3.664-3.662a1.053,1.053,0,0,0,.08-1.52L20.1,126.593l6.141-6.174a1.058,1.058,0,0,0,.006-1.427l-4-3.987a1.105,1.105,0,0,0-1.432.186l-6.071,6.051-6.072-6.052a1.08,1.08,0,0,0-1.53-.094L3.336,118.9a1.05,1.05,0,0,0-.084,1.516l6.142,6.176L3.251,132.77a1.05,1.05,0,0,0,.085,1.515L7.152,138.1a1.037,1.037,0,0,0,1.42-.01l6.178-6.144,5.971,5.966a1.122,1.122,0,0,0,1.774.037" transform="translate(0 -84.308)" fill="#1e535a"/>
        <path id="Trazado_1284363" data-name="Trazado 1284363" d="M43.533,186.007l-6.3-6.207a1,1,0,0,0-1.315.081l-6.156,6.128a31.83,31.83,0,0,1-2.521-2.521l6.044-6.055a1.058,1.058,0,0,0,.08-1.523l-6.122-6.155a32.178,32.178,0,0,1,2.518-2.52l6.161,6.134a1,1,0,0,0,1.312.08l6.264-6.212a31.908,31.908,0,0,1,2.52,2.519l-6.046,6.056a1.055,1.055,0,0,0-.085,1.519l6.128,6.155Z" transform="translate(-21.884 -134.336)" fill="#1e535a"/>
      </g>
    </g>
  </g>
</svg>
