<svg xmlns="http://www.w3.org/2000/svg" xmlns:xlink="http://www.w3.org/1999/xlink" width="85" height="85" viewBox="0 0 85 85">
  <defs>
    <clipPath id="clip-path">
      <rect id="Rectángulo_464994" data-name="Rectángulo 464994" width="60.564" height="58.161" fill="#344866"/>
    </clipPath>
  </defs>
  <g id="Grupo_1212385" data-name="Grupo 1212385" transform="translate(-706 -4795)">
    <g id="Grupo_1211734" data-name="Grupo 1211734" transform="translate(526.266 -725.842)">
      <rect id="Rectángulo_402006" data-name="Rectángulo 402006" width="85" height="85" rx="5" transform="translate(179.734 5520.842)" fill="#69d7e5"/>
      <g id="Grupo_1212083" data-name="Grupo 1212083" transform="translate(193.729 5537.927)">
        <g id="Grupo_1212082" data-name="Grupo 1212082" clip-path="url(#clip-path)">
          <path id="Trazado_1284130" data-name="Trazado 1284130" d="M23.906,30.279a1.273,1.273,0,1,1,.077,2.545l-16.018.141c-3.383.03-5.621,3.505-5.419,6.526A6.277,6.277,0,0,0,8.9,45.422l14.929.008A1.257,1.257,0,0,1,25.2,46.61a1.281,1.281,0,0,1-1.22,1.361l-15.43-.032A8.686,8.686,0,0,1,.372,41.626a8.831,8.831,0,0,1,3.88-10.079,8.868,8.868,0,0,1,0-15.141A8.843,8.843,0,0,1,8.911.006L46.538,0a8.842,8.842,0,0,1,4.744,16.382c.322.324.679.472.951.793a1.226,1.226,0,0,1,0,1.6c-1.3,1.47-2.344-1.055-4.941-1.051L8.156,17.79C4.825,17.8,2.5,21.064,2.537,24.038A6.083,6.083,0,0,0,8.328,30.2ZM47.215,2.626,8.334,2.615c-3.4,0-5.836,3.188-5.8,6.3.04,3.066,2.448,6.156,5.806,6.157l38.768.009a6.153,6.153,0,0,0,5.862-6.149c.043-3.04-2.3-6.3-5.76-6.3" transform="translate(0 -0.001)" fill="#344866"/>
          <path id="Trazado_1284131" data-name="Trazado 1284131" d="M47.594,30.517a3.778,3.778,0,1,1-3.778-3.778,3.778,3.778,0,0,1,3.778,3.778m-2.534,0a1.245,1.245,0,1,0-1.245,1.245,1.245,1.245,0,0,0,1.245-1.245" transform="translate(-32.461 -21.679)" fill="#344866"/>
          <path id="Trazado_1284132" data-name="Trazado 1284132" d="M114.257,30.52a3.777,3.777,0,1,1-3.777-3.777,3.777,3.777,0,0,1,3.777,3.777m-2.537,0a1.243,1.243,0,1,0-1.243,1.243,1.243,1.243,0,0,0,1.243-1.243" transform="translate(-86.509 -21.682)" fill="#344866"/>
          <path id="Trazado_1284133" data-name="Trazado 1284133" d="M47.593,110.517a3.778,3.778,0,1,1-3.778-3.778,3.778,3.778,0,0,1,3.778,3.778m-2.534,0a1.245,1.245,0,1,0-1.245,1.245,1.245,1.245,0,0,0,1.245-1.245" transform="translate(-32.46 -86.539)" fill="#344866"/>
          <path id="Trazado_1284134" data-name="Trazado 1284134" d="M47.594,190.517a3.778,3.778,0,1,1-3.778-3.778,3.778,3.778,0,0,1,3.778,3.778m-2.534,0a1.245,1.245,0,1,0-1.245,1.245,1.245,1.245,0,0,0,1.245-1.245" transform="translate(-32.46 -151.399)" fill="#344866"/>
          <path id="Trazado_1284135" data-name="Trazado 1284135" d="M114.257,110.52a3.777,3.777,0,1,1-3.777-3.777,3.777,3.777,0,0,1,3.777,3.777m-2.537,0a1.243,1.243,0,1,0-1.243,1.243,1.243,1.243,0,0,0,1.243-1.243" transform="translate(-86.509 -86.542)" fill="#344866"/>
          <path id="Trazado_1284136" data-name="Trazado 1284136" d="M114.258,190.52a3.777,3.777,0,1,1-3.777-3.777,3.777,3.777,0,0,1,3.777,3.777m-2.537,0a1.243,1.243,0,1,0-1.243,1.243,1.243,1.243,0,0,0,1.243-1.243" transform="translate(-86.51 -151.402)" fill="#344866"/>
          <path id="Trazado_1284137" data-name="Trazado 1284137" d="M175.16,155.241c-7.392-3.184-14.733-9.643-15.165-18.084l-.021-11.375a1.32,1.32,0,0,1,.727-1.174l14.423-4.867,14.289,4.813a1.322,1.322,0,0,1,.85,1.231l-.022,11.368a17.308,17.308,0,0,1-4.121,10.053,30.316,30.316,0,0,1-10.96,8.036m-.009-2.766a28.049,28.049,0,0,0,9.206-7.171,14.465,14.465,0,0,0,3.37-8.742l0-9.918-12.6-4.246-12.613,4.257-.007,8.786a14.408,14.408,0,0,0,3.272,9.751,27.193,27.193,0,0,0,9.37,7.283" transform="translate(-129.699 -97.08)" fill="#344866"/>
          <path id="Trazado_1284138" data-name="Trazado 1284138" d="M200.319,184.606a1.25,1.25,0,0,1,.212-1.742,1.286,1.286,0,0,1,1.758.2l4.177,5.174,7.922-7.873a1.247,1.247,0,0,1,1.753,1.761L207.288,191a1.318,1.318,0,0,1-2.005-.164Z" transform="translate(-162.196 -145.99)" fill="#344866"/>
        </g>
      </g>
    </g>
  </g>
</svg>
