<svg xmlns="http://www.w3.org/2000/svg" width="1020" height="335" viewBox="0 0 1020 335">
  <g id="Grupo_1212386" data-name="Grupo 1212386" transform="translate(-290 -7532)">
    <g id="Grupo_1212322" data-name="Grupo 1212322" transform="translate(0 -10348)">
      <path id="Trazado_1285061" data-name="Trazado 1285061" d="M18,0h984a18,18,0,0,1,18,18V317a18,18,0,0,1-18,18H18A18,18,0,0,1,0,317V18A18,18,0,0,1,18,0Z" transform="translate(290 17880)" fill="#cfe8ff"/>
      <path id="Trazado_1285062" data-name="Trazado 1285062" d="M15.5,0h218a15.5,15.5,0,0,1,0,31H15.5a15.5,15.5,0,0,1,0-31Z" transform="translate(364 17933)" fill="#1e535a"/>
      <path id="Trazado_1285063" data-name="Trazado 1285063" d="M15.5,0h218a15.5,15.5,0,0,1,0,31H15.5a15.5,15.5,0,0,1,0-31Z" transform="translate(988 17933)" fill="#1e535a"/>
      <path id="Trazado_1285064" data-name="Trazado 1285064" d="M40.158,12.762H35.376V16h5.611v2h-8.1V5.914h8.085V7.931H35.376v2.88h4.781ZM52.277,18h-2.49l-4.848-7.952V18h-2.49V5.914h2.49l4.856,7.969V5.914h2.482ZM63.549,7.931h-3.7V18h-2.49V7.931H53.7V5.914h9.845ZM67.617,18h-2.49V5.914h2.49Zm2.308,0V5.914h3.719a5.647,5.647,0,0,1,2.851.718,5.007,5.007,0,0,1,1.963,2.042,6.3,6.3,0,0,1,.706,3.009v.556a6.316,6.316,0,0,1-.693,3,4.964,4.964,0,0,1-1.955,2.034,5.69,5.69,0,0,1-2.847.73Zm2.49-10.069V16h1.2a2.7,2.7,0,0,0,2.233-.955,4.314,4.314,0,0,0,.789-2.731v-.639a4.382,4.382,0,0,0-.764-2.793,2.7,2.7,0,0,0-2.233-.95ZM87.8,15.51H83.43L82.6,18H79.952l4.5-12.086h2.308L91.282,18H88.634ZM84.1,13.493h3.021L85.6,8.969ZM92.411,18V5.914H96.13a5.647,5.647,0,0,1,2.851.718,5.007,5.007,0,0,1,1.963,2.042,6.3,6.3,0,0,1,.706,3.009v.556a6.316,6.316,0,0,1-.693,3A4.964,4.964,0,0,1,99,17.27a5.69,5.69,0,0,1-2.847.73ZM94.9,7.931V16h1.2a2.7,2.7,0,0,0,2.233-.955,4.314,4.314,0,0,0,.789-2.731v-.639a4.382,4.382,0,0,0-.764-2.793,2.7,2.7,0,0,0-2.233-.95Zm20.063,5.13h-4.781V18h-2.49V5.914h7.869V7.931h-5.379v3.121h4.781Zm11.189-7.147v7.96a4.076,4.076,0,0,1-1.241,3.138,4.784,4.784,0,0,1-3.391,1.154,4.838,4.838,0,0,1-3.362-1.121,4.006,4.006,0,0,1-1.27-3.08V5.914h2.49v7.977a2.3,2.3,0,0,0,.569,1.731,2.183,2.183,0,0,0,1.573.544q2.1,0,2.133-2.208V5.914Zm9.313,6.848h-4.781V16H136.3v2h-8.1V5.914h8.085V7.931h-5.595v2.88h4.781Zm6.765.813h-1.984V18h-2.49V5.914h4.491a5.076,5.076,0,0,1,3.3.955,3.3,3.3,0,0,1,1.162,2.7,3.718,3.718,0,0,1-.535,2.063,3.652,3.652,0,0,1-1.623,1.316l2.615,4.939V18H144.5Zm-1.984-2.017h2.009a2.057,2.057,0,0,0,1.453-.477,1.706,1.706,0,0,0,.515-1.316,1.826,1.826,0,0,0-.486-1.345,2.018,2.018,0,0,0-1.49-.49h-2ZM157.29,7.931h-3.7V18H151.1V7.931h-3.652V5.914h9.845Zm8.691,4.831H161.2V16h5.611v2h-8.1V5.914h8.085V7.931H161.2v2.88h4.781Z" transform="translate(389 17936)" fill="#fff"/>
      <path id="Trazado_1285065" data-name="Trazado 1285065" d="M31.658,15.51H27.292L26.461,18H23.813l4.5-12.086H30.62L35.144,18H32.5Zm-3.694-2.017h3.021L29.466,8.969ZM38.846,6.811V9.019h1.536v1.76H38.846v4.482a1.07,1.07,0,0,0,.191.714.959.959,0,0,0,.73.216,3.826,3.826,0,0,0,.706-.058V17.95a4.939,4.939,0,0,1-1.453.216,2.29,2.29,0,0,1-2.573-2.548V10.778H35.136V9.019h1.312V6.811Zm7.919,4.458A6.517,6.517,0,0,0,45.9,11.2a1.757,1.757,0,0,0-1.785.921V18h-2.4V9.019h2.266l.066,1.071a2.223,2.223,0,0,1,2-1.237,2.514,2.514,0,0,1,.747.108ZM50.451,18H48.043V9.019h2.407ZM47.9,6.694a1.181,1.181,0,0,1,.361-.888,1.556,1.556,0,0,1,1.963,0,1.175,1.175,0,0,1,.365.888,1.178,1.178,0,0,1-.369.9,1.539,1.539,0,0,1-1.951,0A1.178,1.178,0,0,1,47.9,6.694Zm12.617,6.9a5.439,5.439,0,0,1-.921,3.366,3.052,3.052,0,0,1-2.573,1.208,2.8,2.8,0,0,1-2.333-1.121L54.584,18H52.426V5.25h2.4V9.824a2.732,2.732,0,0,1,2.183-.971,3.077,3.077,0,0,1,2.577,1.208,5.446,5.446,0,0,1,.934,3.4Zm-2.4-.174a3.573,3.573,0,0,0-.432-1.988A1.46,1.46,0,0,0,56.4,10.8a1.582,1.582,0,0,0-1.577.938v3.544a1.6,1.6,0,0,0,1.594.946,1.481,1.481,0,0,0,1.527-1.146A5.909,5.909,0,0,0,58.121,13.418Zm9.255,3.669a3.008,3.008,0,0,1-2.457,1.079,2.837,2.837,0,0,1-2.2-.83,3.543,3.543,0,0,1-.776-2.432V9.019h2.4v5.809q0,1.4,1.278,1.4a1.732,1.732,0,0,0,1.677-.848V9.019H69.7V18H67.442ZM74.382,6.811V9.019h1.536v1.76H74.382v4.482a1.07,1.07,0,0,0,.191.714.959.959,0,0,0,.73.216,3.826,3.826,0,0,0,.706-.058V17.95a4.938,4.938,0,0,1-1.453.216,2.29,2.29,0,0,1-2.573-2.548V10.778H70.671V9.019h1.312V6.811Zm2.25,6.616a5.326,5.326,0,0,1,.515-2.382,3.768,3.768,0,0,1,1.482-1.619,4.323,4.323,0,0,1,2.245-.573,4.09,4.09,0,0,1,2.968,1.112,4.464,4.464,0,0,1,1.282,3.021l.017.614a4.694,4.694,0,0,1-1.154,3.316,4.472,4.472,0,0,1-6.2,0,4.777,4.777,0,0,1-1.158-3.387Zm2.4.17a3.357,3.357,0,0,0,.481,1.958,1.73,1.73,0,0,0,2.739.008,3.674,3.674,0,0,0,.49-2.141,3.324,3.324,0,0,0-.49-1.945,1.592,1.592,0,0,0-1.378-.69,1.566,1.566,0,0,0-1.361.686A3.736,3.736,0,0,0,79.03,13.6Zm15.556,2.635a1.573,1.573,0,0,0,1.079-.365A1.28,1.28,0,0,0,96.1,14.9h2.25a3.077,3.077,0,0,1-.5,1.673,3.286,3.286,0,0,1-1.341,1.179,4.2,4.2,0,0,1-1.88.419,3.9,3.9,0,0,1-3.038-1.224,4.845,4.845,0,0,1-1.112-3.383V13.4a4.79,4.79,0,0,1,1.1-3.312,3.854,3.854,0,0,1,3.03-1.237,3.778,3.778,0,0,1,2.7.959,3.4,3.4,0,0,1,1.033,2.552H96.1a1.648,1.648,0,0,0-.432-1.139A1.6,1.6,0,0,0,93.3,11.4a3.541,3.541,0,0,0-.427,1.983v.249a3.586,3.586,0,0,0,.423,2A1.463,1.463,0,0,0,94.586,16.232Zm4.756-2.806a5.326,5.326,0,0,1,.515-2.382,3.768,3.768,0,0,1,1.482-1.619,4.323,4.323,0,0,1,2.245-.573,4.09,4.09,0,0,1,2.968,1.112,4.464,4.464,0,0,1,1.282,3.021l.017.614a4.694,4.694,0,0,1-1.154,3.316,4.472,4.472,0,0,1-6.2,0,4.777,4.777,0,0,1-1.158-3.387Zm2.4.17a3.357,3.357,0,0,0,.481,1.958,1.73,1.73,0,0,0,2.739.008,3.674,3.674,0,0,0,.49-2.141,3.324,3.324,0,0,0-.49-1.945,1.592,1.592,0,0,0-1.378-.69,1.566,1.566,0,0,0-1.361.686A3.736,3.736,0,0,0,101.741,13.6Zm9.836-4.578.075,1a3.156,3.156,0,0,1,2.582-1.17,2.4,2.4,0,0,1,2.382,1.37,3.084,3.084,0,0,1,2.7-1.37,2.679,2.679,0,0,1,2.175.851,3.911,3.911,0,0,1,.714,2.561V18H119.8V12.272a1.71,1.71,0,0,0-.3-1.116,1.324,1.324,0,0,0-1.054-.353,1.5,1.5,0,0,0-1.494,1.029L116.957,18h-2.4V12.281a1.689,1.689,0,0,0-.307-1.129A1.337,1.337,0,0,0,113.2,10.8a1.555,1.555,0,0,0-1.478.847V18h-2.4V9.019Zm20.553,4.574a5.387,5.387,0,0,1-.942,3.324,3.021,3.021,0,0,1-2.544,1.249,2.8,2.8,0,0,1-2.2-.946v4.233h-2.4V9.019h2.225l.083.88a2.819,2.819,0,0,1,2.274-1.046,3.041,3.041,0,0,1,2.582,1.229,5.532,5.532,0,0,1,.921,3.387Zm-2.4-.174a3.535,3.535,0,0,0-.444-1.934A1.446,1.446,0,0,0,128,10.8a1.571,1.571,0,0,0-1.552.863v3.677a1.6,1.6,0,0,0,1.569.888Q129.731,16.232,129.731,13.418ZM139,17.087a3.008,3.008,0,0,1-2.457,1.079,2.837,2.837,0,0,1-2.2-.83,3.543,3.543,0,0,1-.776-2.432V9.019h2.4v5.809q0,1.4,1.278,1.4a1.732,1.732,0,0,0,1.677-.848V9.019h2.407V18h-2.258Zm8.268,1.079a4.409,4.409,0,0,1-3.217-1.212,4.308,4.308,0,0,1-1.241-3.229v-.232a5.426,5.426,0,0,1,.523-2.42,3.838,3.838,0,0,1,1.482-1.644A4.159,4.159,0,0,1,147,8.853a3.727,3.727,0,0,1,2.9,1.162,4.722,4.722,0,0,1,1.058,3.3v.979h-5.719a2.228,2.228,0,0,0,.7,1.411,2.12,2.12,0,0,0,1.482.531,2.589,2.589,0,0,0,2.167-1l1.179,1.32a3.6,3.6,0,0,1-1.461,1.191A4.793,4.793,0,0,1,147.263,18.166Zm-.274-7.379a1.5,1.5,0,0,0-1.158.484,2.5,2.5,0,0,0-.569,1.384H148.6v-.192a1.786,1.786,0,0,0-.432-1.238A1.547,1.547,0,0,0,146.989,10.787Zm10.193,4.731a.773.773,0,0,0-.436-.693,4.95,4.95,0,0,0-1.4-.452q-3.2-.672-3.2-2.723a2.468,2.468,0,0,1,.992-2,4,4,0,0,1,2.594-.8,4.307,4.307,0,0,1,2.735.805,2.538,2.538,0,0,1,1.025,2.092h-2.4a1.161,1.161,0,0,0-.332-.851,1.405,1.405,0,0,0-1.038-.336,1.436,1.436,0,0,0-.938.274.865.865,0,0,0-.332.7.739.739,0,0,0,.378.643,3.885,3.885,0,0,0,1.274.423,10.407,10.407,0,0,1,1.511.4,2.482,2.482,0,0,1,1.9,2.416,2.343,2.343,0,0,1-1.054,1.988,4.548,4.548,0,0,1-2.723.76,4.75,4.75,0,0,1-2-.4,3.363,3.363,0,0,1-1.374-1.1,2.565,2.565,0,0,1-.5-1.515h2.274a1.252,1.252,0,0,0,.473.979,1.877,1.877,0,0,0,1.179.34,1.737,1.737,0,0,0,1.042-.261A.814.814,0,0,0,157.182,15.518Zm6.749-8.708V9.019h1.536v1.76h-1.536v4.482a1.07,1.07,0,0,0,.191.714.959.959,0,0,0,.73.216,3.826,3.826,0,0,0,.706-.058V17.95a4.939,4.939,0,0,1-1.453.216,2.29,2.29,0,0,1-2.573-2.548V10.778H160.22V9.019h1.312V6.811Zm2.25,6.616a5.327,5.327,0,0,1,.515-2.382,3.767,3.767,0,0,1,1.482-1.619,4.323,4.323,0,0,1,2.245-.573,4.09,4.09,0,0,1,2.968,1.112,4.464,4.464,0,0,1,1.282,3.021l.017.614a4.694,4.694,0,0,1-1.154,3.316,4.472,4.472,0,0,1-6.2,0,4.777,4.777,0,0,1-1.158-3.387Zm2.4.17a3.357,3.357,0,0,0,.481,1.958,1.73,1.73,0,0,0,2.739.008,3.674,3.674,0,0,0,.49-2.141,3.324,3.324,0,0,0-.49-1.945,1.592,1.592,0,0,0-1.378-.69,1.566,1.566,0,0,0-1.361.686A3.735,3.735,0,0,0,168.579,13.6Z" transform="translate(1013 18003)" fill="#12263f"/>
      <path id="Trazado_1285066" data-name="Trazado 1285066" d="M47.637,12.762H42.855V16h5.611v2h-8.1V5.914H48.45V7.931H42.855v2.88h4.781ZM59.756,18h-2.49l-4.848-7.952V18h-2.49V5.914h2.49l4.856,7.969V5.914h2.482ZM71.028,7.931h-3.7V18h-2.49V7.931H61.184V5.914h9.845ZM75.1,18h-2.49V5.914H75.1ZM77.4,18V5.914h3.719a5.647,5.647,0,0,1,2.851.718,5.007,5.007,0,0,1,1.963,2.042,6.3,6.3,0,0,1,.706,3.009v.556a6.316,6.316,0,0,1-.693,3,4.964,4.964,0,0,1-1.955,2.034,5.69,5.69,0,0,1-2.847.73Zm2.49-10.069V16h1.2a2.7,2.7,0,0,0,2.233-.955,4.314,4.314,0,0,0,.789-2.731v-.639a4.382,4.382,0,0,0-.764-2.793,2.7,2.7,0,0,0-2.233-.95ZM95.275,15.51H90.909L90.079,18H87.431l4.5-12.086h2.308L98.761,18H96.113Zm-3.694-2.017H94.6L93.083,8.969ZM99.89,18V5.914h3.719a5.647,5.647,0,0,1,2.851.718,5.007,5.007,0,0,1,1.963,2.042,6.3,6.3,0,0,1,.706,3.009v.556a6.316,6.316,0,0,1-.693,3,4.964,4.964,0,0,1-1.955,2.034,5.69,5.69,0,0,1-2.847.73Zm2.49-10.069V16h1.2a2.7,2.7,0,0,0,2.233-.955,4.314,4.314,0,0,0,.789-2.731v-.639a4.382,4.382,0,0,0-.764-2.793,2.7,2.7,0,0,0-2.233-.95ZM115.172,18V5.914h3.719a5.647,5.647,0,0,1,2.851.718,5.007,5.007,0,0,1,1.963,2.042,6.3,6.3,0,0,1,.706,3.009v.556a6.316,6.316,0,0,1-.693,3,4.964,4.964,0,0,1-1.955,2.034,5.69,5.69,0,0,1-2.847.73Zm2.49-10.069V16h1.2a2.7,2.7,0,0,0,2.233-.955,4.314,4.314,0,0,0,.789-2.731v-.639a4.382,4.382,0,0,0-.764-2.793,2.7,2.7,0,0,0-2.233-.95Zm15.83,4.831H128.71V16h5.611v2h-8.1V5.914h8.085V7.931H128.71v2.88h4.781Zm-2.6-10.11h2.615l-2.3,2.573h-1.951ZM135.783,18V5.914h4.233a5.559,5.559,0,0,1,3.337.843,2.881,2.881,0,0,1,1.137,2.469,2.731,2.731,0,0,1-.457,1.565,2.637,2.637,0,0,1-1.27.992,2.551,2.551,0,0,1,1.465.938,2.773,2.773,0,0,1,.535,1.727,3.19,3.19,0,0,1-1.112,2.64,5.007,5.007,0,0,1-3.171.913Zm2.49-5.263V16h2.133a2.059,2.059,0,0,0,1.374-.419,1.437,1.437,0,0,0,.494-1.158,1.518,1.518,0,0,0-1.718-1.685Zm0-1.76h1.843Q142,10.944,142,9.475a1.388,1.388,0,0,0-.477-1.183,2.51,2.51,0,0,0-1.507-.361h-1.743ZM149.28,18h-2.49V5.914h2.49Zm4.8-2h5.288v2h-7.778V5.914h2.49Z" transform="translate(1013 17936)" fill="#fff"/>
      <g id="Grupo_1212318" data-name="Grupo 1212318" transform="translate(40 -56)">
        <text id="Atributo" transform="translate(786 18029)" fill="#12263f" font-size="17" font-family="Roboto-Bold, Roboto" font-weight="700"><tspan x="3.53" y="18">Atributo</tspan></text>
        <text id="Identificador" transform="translate(666 18029)" fill="#12263f" font-size="17" font-family="Roboto-Bold, Roboto" font-weight="700"><tspan x="2.395" y="18">Identificador</tspan></text>
        <g id="Elipse_13782" data-name="Elipse 13782" transform="translate(695 18065)" fill="#6cb9ff" stroke="#1e535a" stroke-width="3">
          <circle cx="22.5" cy="22.5" r="22.5" stroke="none"/>
          <circle cx="22.5" cy="22.5" r="21" fill="none"/>
        </g>
        <g id="Elipse_13783" data-name="Elipse 13783" transform="translate(798 18065)" fill="#a4e7f0" stroke="#1e535a" stroke-width="3">
          <circle cx="22.5" cy="22.5" r="22.5" stroke="none"/>
          <circle cx="22.5" cy="22.5" r="21" fill="none"/>
        </g>
      </g>
      <g id="Grupo_1212317" data-name="Grupo 1212317" transform="translate(1 -56)">
        <g id="Elipse_13778" data-name="Elipse 13778" transform="translate(997 18166)" fill="#a4e7f0" stroke="#1e535a" stroke-width="3">
          <circle cx="22.5" cy="22.5" r="22.5" stroke="none"/>
          <circle cx="22.5" cy="22.5" r="21" fill="none"/>
        </g>
        <g id="Elipse_13779" data-name="Elipse 13779" transform="translate(1089 18166)" fill="#a4e7f0" stroke="#1e535a" stroke-width="3">
          <circle cx="22.5" cy="22.5" r="22.5" stroke="none"/>
          <circle cx="22.5" cy="22.5" r="21" fill="none"/>
        </g>
        <g id="Elipse_13781" data-name="Elipse 13781" transform="translate(1089 18097)" fill="#a4e7f0" stroke="#1e535a" stroke-width="3">
          <circle cx="22.5" cy="22.5" r="22.5" stroke="none"/>
          <circle cx="22.5" cy="22.5" r="21" fill="none"/>
        </g>
        <g id="Elipse_13780" data-name="Elipse 13780" transform="translate(1181 18166)" fill="#a4e7f0" stroke="#1e535a" stroke-width="3">
          <circle cx="22.5" cy="22.5" r="22.5" stroke="none"/>
          <circle cx="22.5" cy="22.5" r="21" fill="none"/>
        </g>
        <path id="Trazado_1284977" data-name="Trazado 1284977" d="M0,0V26.666" transform="translate(1112 18166) rotate(180)" fill="none" stroke="#1e535a" stroke-width="3"/>
        <path id="Trazado_1284978" data-name="Trazado 1284978" d="M0,0V77.808" transform="translate(1187.341 18175.58) rotate(135)" fill="none" stroke="#1e535a" stroke-width="3"/>
        <path id="Trazado_1284979" data-name="Trazado 1284979" d="M0,77.808V0" transform="translate(1090.341 18120.563) rotate(45)" fill="none" stroke="#1e535a" stroke-width="3"/>
      </g>
      <path id="Trazado_1285067" data-name="Trazado 1285067" d="M18,0h91.517a18,18,0,0,1,18,18v91.517a18,18,0,0,1-18,18H18a18,18,0,0,1-18-18V18A18,18,0,0,1,18,0Z" transform="translate(488.168 17981.498) rotate(45)" fill="#ffd453"/>
      <path id="Trazado_1285068" data-name="Trazado 1285068" d="M22.47,13.576H20.487V18H18V5.914h4.491a5.076,5.076,0,0,1,3.3.955,3.3,3.3,0,0,1,1.162,2.7,3.718,3.718,0,0,1-.535,2.063,3.651,3.651,0,0,1-1.623,1.316l2.615,4.939V18H24.737Zm-1.984-2.017H22.5a2.057,2.057,0,0,0,1.453-.477,1.706,1.706,0,0,0,.515-1.316,1.826,1.826,0,0,0-.486-1.345,2.018,2.018,0,0,0-1.49-.49h-2Zm12.335,6.607A4.409,4.409,0,0,1,29.6,16.954a4.308,4.308,0,0,1-1.241-3.229v-.232a5.426,5.426,0,0,1,.523-2.42,3.838,3.838,0,0,1,1.482-1.644,4.159,4.159,0,0,1,2.187-.577,3.727,3.727,0,0,1,2.9,1.162,4.722,4.722,0,0,1,1.058,3.3v.979H30.8a2.229,2.229,0,0,0,.7,1.411,2.12,2.12,0,0,0,1.482.531,2.589,2.589,0,0,0,2.167-1l1.179,1.32a3.6,3.6,0,0,1-1.461,1.191A4.793,4.793,0,0,1,32.822,18.166Zm-.274-7.379a1.5,1.5,0,0,0-1.158.484,2.5,2.5,0,0,0-.569,1.384h3.337v-.192a1.786,1.786,0,0,0-.432-1.238A1.547,1.547,0,0,0,32.548,10.787ZM40.408,18H38V5.25h2.407Zm7.18,0a2.664,2.664,0,0,1-.241-.805,2.9,2.9,0,0,1-2.266.971,3.189,3.189,0,0,1-2.187-.764,2.456,2.456,0,0,1-.867-1.926,2.538,2.538,0,0,1,1.058-2.191,5.222,5.222,0,0,1,3.059-.772h1.1V12a1.48,1.48,0,0,0-.32-1,1.257,1.257,0,0,0-1.009-.374,1.429,1.429,0,0,0-.95.291.987.987,0,0,0-.344.8h-2.4a2.41,2.41,0,0,1,.481-1.444A3.182,3.182,0,0,1,44.069,9.23a4.961,4.961,0,0,1,1.976-.378,3.92,3.92,0,0,1,2.635.834,2.918,2.918,0,0,1,.975,2.345v3.893a4.294,4.294,0,0,0,.357,1.934V18ZM45.6,16.332a2.066,2.066,0,0,0,.979-.237,1.554,1.554,0,0,0,.664-.635V13.916h-.9q-1.8,0-1.917,1.245l-.008.141a.96.96,0,0,0,.315.739A1.225,1.225,0,0,0,45.6,16.332Zm9.629-.1a1.573,1.573,0,0,0,1.079-.365,1.28,1.28,0,0,0,.432-.971h2.25a3.077,3.077,0,0,1-.5,1.673,3.286,3.286,0,0,1-1.341,1.179,4.2,4.2,0,0,1-1.88.419,3.9,3.9,0,0,1-3.038-1.224,4.845,4.845,0,0,1-1.112-3.383V13.4a4.79,4.79,0,0,1,1.1-3.312,3.854,3.854,0,0,1,3.03-1.237,3.778,3.778,0,0,1,2.7.959,3.4,3.4,0,0,1,1.033,2.552h-2.25a1.648,1.648,0,0,0-.432-1.139,1.6,1.6,0,0,0-2.362.173,3.541,3.541,0,0,0-.427,1.983v.249a3.586,3.586,0,0,0,.423,2A1.463,1.463,0,0,0,55.234,16.232ZM62.9,18H60.488V9.019H62.9ZM60.347,6.694a1.181,1.181,0,0,1,.361-.888,1.556,1.556,0,0,1,1.963,0,1.175,1.175,0,0,1,.365.888,1.178,1.178,0,0,1-.369.9,1.539,1.539,0,0,1-1.951,0A1.178,1.178,0,0,1,60.347,6.694Zm4.15,6.732a5.326,5.326,0,0,1,.515-2.382,3.768,3.768,0,0,1,1.482-1.619,4.323,4.323,0,0,1,2.245-.573,4.09,4.09,0,0,1,2.968,1.112,4.464,4.464,0,0,1,1.282,3.021l.017.614a4.694,4.694,0,0,1-1.154,3.316,4.472,4.472,0,0,1-6.2,0A4.777,4.777,0,0,1,64.5,13.534Zm2.4.17a3.357,3.357,0,0,0,.481,1.958,1.73,1.73,0,0,0,2.739.008,3.674,3.674,0,0,0,.49-2.141,3.324,3.324,0,0,0-.49-1.945,1.592,1.592,0,0,0-1.378-.69,1.566,1.566,0,0,0-1.361.686A3.736,3.736,0,0,0,66.9,13.6ZM69.212,5.25h2.615l-2.3,2.573H67.577Zm7.479,3.769.075,1.038a3.136,3.136,0,0,1,2.582-1.2,2.606,2.606,0,0,1,2.125.838,3.912,3.912,0,0,1,.714,2.507V18h-2.4V12.256a1.556,1.556,0,0,0-.332-1.108,1.486,1.486,0,0,0-1.1-.344,1.65,1.65,0,0,0-1.519.863V18h-2.4V9.019Z" transform="translate(438 18059.498)" fill="#12263f"/>
    </g>
  </g>
</svg>
