<svg xmlns="http://www.w3.org/2000/svg" xmlns:xlink="http://www.w3.org/1999/xlink" width="96" height="96" viewBox="0 0 96 96">
  <defs>
    <clipPath id="clip-path">
      <rect id="Rectángulo_454829" data-name="Rectángulo 454829" width="96" height="96" fill="#1e535a"/>
    </clipPath>
    <clipPath id="clip-path-2">
      <rect id="Rectángulo_465008" data-name="Rectángulo 465008" width="31.668" height="31.665" fill="#1e535a"/>
    </clipPath>
  </defs>
  <g id="Grupo_1211493" data-name="Grupo 1211493" transform="translate(-1481 -8562.5)">
    <g id="Grupo_1177591" data-name="Grupo 1177591" transform="translate(1481 8562.5)">
      <g id="Grupo_1177589" data-name="Grupo 1177589" transform="translate(0 0)">
        <g id="Grupo_1177587" data-name="Grupo 1177587" clip-path="url(#clip-path)">
          <path id="Trazado_997422" data-name="Trazado 997422" d="M92.081,42.491a44.136,44.136,0,0,0-9.97-22.967,5.076,5.076,0,0,0-7.142-6.838A44.071,44.071,0,0,0,52.151,3.77a5.077,5.077,0,0,0-9.861.2A44.132,44.132,0,0,0,20.4,13.329a5.079,5.079,0,0,0-7.048,7.1A44.1,44.1,0,0,0,4.112,42.448,5.08,5.08,0,0,0,3.99,52.4a44.082,44.082,0,0,0,8.949,22.468,5.078,5.078,0,0,0,6.9,7.17,44.128,44.128,0,0,0,22.412,9.8,5.078,5.078,0,0,0,9.949.2,44.091,44.091,0,0,0,22.985-9.08,5.077,5.077,0,0,0,7.107-6.874A44.147,44.147,0,0,0,92.2,52.349a5.078,5.078,0,0,0-.119-9.858M77.74,22.024a5.05,5.05,0,0,0,2.812-.851,41.913,41.913,0,0,1,9.25,21.3,5.086,5.086,0,0,0-3.246,2.351l-12.98-4.867c.01-.142.02-.286.02-.433a5.079,5.079,0,0,0-2.151-4.15l5.678-13.4a5.5,5.5,0,0,0,.616.041M75,21.216,69.354,34.523a5.026,5.026,0,0,0-5.594,3.23L40.279,32.344a4.941,4.941,0,0,0-.106-1.011l33.322-11.6A5.1,5.1,0,0,0,75,21.216M47.246,10.165a5.083,5.083,0,0,0,4.989-4.122,41.844,41.844,0,0,1,21.158,8.275,5.054,5.054,0,0,0-.735,2.625,5.335,5.335,0,0,0,.048.671L39.217,29.273a5.1,5.1,0,0,0-.92-.92l8.784-18.2c.056,0,.109.008.165.008M42.3,6.243A5.083,5.083,0,0,0,44.86,9.569L36.248,27.4a5.1,5.1,0,0,0-1.049-.109,5.045,5.045,0,0,0-2.9.91L22.1,19.678A5.052,5.052,0,0,0,21.923,15,41.877,41.877,0,0,1,42.3,6.243M10.041,46.332,31.153,35.442a5.064,5.064,0,0,0,4.006,2.014l7.236,23.129a5.166,5.166,0,0,0-1.12,1.239l-31.3-13.04a5.048,5.048,0,0,0,.187-1.348,5.107,5.107,0,0,0-.124-1.1m4.986-24.391a5.079,5.079,0,0,0,5.673-.484l10.079,8.417a5.068,5.068,0,0,0-.56,3.512L9.07,44.29A5.081,5.081,0,0,0,6.38,42.526a41.859,41.859,0,0,1,8.647-20.585m2.1,50.717a5.067,5.067,0,0,0-2.523.674A41.822,41.822,0,0,1,6.263,52.374,5.087,5.087,0,0,0,8.9,50.783l31.609,13.17a5.45,5.45,0,0,0-.041.611,5.081,5.081,0,0,0,.3,1.718L21.657,75.44a5.081,5.081,0,0,0-4.528-2.782M42.349,89.575a41.919,41.919,0,0,1-20.912-9.149,5.029,5.029,0,0,0,.775-2.686l0-.058L42,68.2A5.082,5.082,0,0,0,43.8,69.329l1.186,17.043a5.082,5.082,0,0,0-2.632,3.2m2.105-29.97-7.081-22.64a5.089,5.089,0,0,0,2.415-2.415L63.459,40a5.052,5.052,0,0,0,.808,2.311L48.032,60.13a5.019,5.019,0,0,0-3.577-.524m7.74,30.167a5.081,5.081,0,0,0-4.948-3.937l-.038,0L46.081,69.62a5.073,5.073,0,0,0,3.106-1.507L72.853,78.551c0,.046-.008.086-.008.132a5.057,5.057,0,0,0,.752,2.65,41.841,41.841,0,0,1-21.4,8.439M73.423,76.334,50.373,66.165a5.052,5.052,0,0,0-.666-4.52L65.893,43.877a5.052,5.052,0,0,0,2.622.735,5.594,5.594,0,0,0,.623-.041l6.05,29.836a5.071,5.071,0,0,0-1.766,1.928m7.292-1.9a5.051,5.051,0,0,0-3.377-.8L71.285,43.788a5.1,5.1,0,0,0,1.6-1.672L85.858,46.98a4.506,4.506,0,0,0-.023.456,5.08,5.08,0,0,0,4.084,4.981,41.876,41.876,0,0,1-9.2,22.017" transform="translate(0 0.001)" fill="#1e535a"/>
        </g>
      </g>
    </g>
    <g id="Elipse_13614" data-name="Elipse 13614" transform="translate(1497.766 8579.268)" fill="#d5f4f8" stroke="#1e535a" stroke-width="3">
      <ellipse cx="31.232" cy="31.233" rx="31.232" ry="31.233" stroke="none"/>
      <ellipse cx="31.232" cy="31.233" rx="29.732" ry="29.733" fill="none"/>
    </g>
    <g id="Grupo_1212106" data-name="Grupo 1212106" transform="translate(1513.166 8594.668)">
      <g id="Grupo_1212105" data-name="Grupo 1212105" clip-path="url(#clip-path-2)">
        <path id="Trazado_1284261" data-name="Trazado 1284261" d="M116.854,228.146c-4.1,2.879-16.041,2.883-19.974-.123-.293-.288-.667-.6-.667-1.051l0-4.8a12.725,12.725,0,0,0,4.414,1.808,30.284,30.284,0,0,0,13.145-.127,12.076,12.076,0,0,0,3.886-1.681l-.018,4.9c0,.457-.475.758-.79,1.071" transform="translate(-86.015 -198.627)" fill="#1e535a"/>
        <path id="Trazado_1284262" data-name="Trazado 1284262" d="M116.336,164.368c-4.462,2.569-14.6,2.535-19.043.088-.47-.368-1.2-.722-1.25-1.38-.115-1.644-.021-3.214-.036-4.9a12.353,12.353,0,0,0,4.085,1.725,29.93,29.93,0,0,0,13.624-.081,12.075,12.075,0,0,0,3.744-1.642c-.008,1.69.066,3.259-.029,4.9-.034.59-.66.915-1.1,1.29" transform="translate(-85.812 -141.408)" fill="#1e535a"/>
        <path id="Trazado_1284263" data-name="Trazado 1284263" d="M116.631,100.294c-4.274,2.649-15.535,2.673-19.608-.2-.343-.3-.783-.646-.783-1.147v-4.8a11.68,11.68,0,0,0,3.646,1.621,29.777,29.777,0,0,0,14.074.023,11.919,11.919,0,0,0,3.727-1.642c-.005,1.694.063,3.261-.027,4.9-.031.558-.626.9-1.03,1.24m-17.78-2.607a2.957,2.957,0,0,0-.688-.333.558.558,0,1,0-.48,1.008c.35.172,1,.537,1.265.046a.582.582,0,0,0-.1-.721m2.736.752a1.754,1.754,0,0,0-.942-.19.539.539,0,0,0-.434.722c.122.432,1.284.706,1.562.25a.546.546,0,0,0-.186-.782" transform="translate(-86.039 -84.169)" fill="#1e535a"/>
        <path id="Trazado_1284264" data-name="Trazado 1284264" d="M113.83,48.749a29.8,29.8,0,0,1-13.76.01c-1.193-.282-3.725-1.156-3.862-2.49s2.058-2.185,3.162-2.52a29.642,29.642,0,0,1,14.79-.1c1.147.318,3.53,1.171,3.5,2.525s-2.567,2.276-3.827,2.576" transform="translate(-86.005 -38.229)" fill="#1e535a"/>
        <path id="Trazado_1284265" data-name="Trazado 1284265" d="M21.648,3.412c-3.254-.078-10.053.5-12.085,3.341C6.977,6.665,2.7,6.071.752,4.406A1.356,1.356,0,0,1,.2,3.381C.242,1.968,3.292,1,4.521.72A29.026,29.026,0,0,1,17.005.64c1.188.25,4.647,1.238,4.642,2.772" transform="translate(-0.181 0)" fill="#1e535a"/>
        <path id="Trazado_1284266" data-name="Trazado 1284266" d="M9.225,123.463c-2.488-.109-6.1-.675-8.133-2.061-.366-.25-.873-.653-.875-1.129l-.022-4.882a12.258,12.258,0,0,0,3.551,1.575,26.658,26.658,0,0,0,5.473.861Z" transform="translate(-0.174 -103.161)" fill="#1e535a"/>
        <path id="Trazado_1284267" data-name="Trazado 1284267" d="M9.05,187.383c-2.419-.077-6.085-.666-8.076-2.018-.328-.223-.883-.619-.912-1.069-.108-1.686-.049-3.317-.021-4.982a10.677,10.677,0,0,0,3.488,1.609,26.375,26.375,0,0,0,5.517.837Z" transform="translate(0 -160.309)" fill="#1e535a"/>
        <path id="Trazado_1284268" data-name="Trazado 1284268" d="M9.207,59.558c-2.469-.079-6.108-.673-8.13-2.055C.71,57.253.2,56.859.2,56.384L.176,51.51C2.757,53.2,6.113,53.739,9.2,53.92ZM2.913,55.73a.525.525,0,0,0-.11-.67,1.968,1.968,0,0,0-.82-.37.542.542,0,0,0-.434.981c.39.26,1.093.57,1.363.059m2.7.129a1.329,1.329,0,0,0-1.226-.177.539.539,0,0,0-.178.761c.148.253,1.131.6,1.474.183a.524.524,0,0,0-.071-.767" transform="translate(-0.157 -46.05)" fill="#1e535a"/>
      </g>
    </g>
  </g>
</svg>
