<svg xmlns="http://www.w3.org/2000/svg" xmlns:xlink="http://www.w3.org/1999/xlink" width="85" height="85" viewBox="0 0 85 85">
  <defs>
    <clipPath id="clip-path">
      <rect id="Rectángulo_464966" data-name="Rectángulo 464966" width="59.501" height="59.28" fill="#344866"/>
    </clipPath>
  </defs>
  <g id="Grupo_1210965" data-name="Grupo 1210965" transform="translate(-179.734 -5520.842)">
    <rect id="Rectángulo_402006" data-name="Rectángulo 402006" width="85" height="85" rx="5" transform="translate(179.734 5520.842)" fill="#69d7e5"/>
    <g id="Grupo_1212060" data-name="Grupo 1212060" transform="translate(192.484 5536.465)">
      <g id="Grupo_1212059" data-name="Grupo 1212059" clip-path="url(#clip-path)">
        <path id="Trazado_1284029" data-name="Trazado 1284029" d="M173.561,116.471a1.136,1.136,0,0,0,1.259-1.032.948.948,0,0,0-.26-.755c-.469-.476-1.445-.435-2.39-.394a8.088,8.088,0,0,1-1.227,0l0-8.66,2.795-.064a1.083,1.083,0,0,0,.793-.35,1.1,1.1,0,0,0,.271-.827,1.029,1.029,0,0,0-1.068-.96h0l-3.912.008a1.047,1.047,0,0,0-1.063,1.072l-.014,9.764a4.707,4.707,0,0,1-.669.022,2.183,2.183,0,0,0-1.588.364.99.99,0,0,0-.258.761,1.036,1.036,0,0,0,1.025,1.033l1.466.05.062,9.962c0,.551.607.873,1.022.884.684.019,1.331.029,1.962.029.672,0,1.326-.011,1.989-.033a1.089,1.089,0,0,0,.795-.355,1.071,1.071,0,0,0,.254-.807c-.1-1.1-1.426-1.027-2.595-.965a9.056,9.056,0,0,1-1.267.011l.016-8.731Z" transform="translate(-133.587 -83.117)" fill="#344866"/>
        <path id="Trazado_1284030" data-name="Trazado 1284030" d="M214.037,207.061h8.236V198.8h-8.236Zm6.1-2.208a29.519,29.519,0,0,1-3.406.033l-.5-.014v-3.853l3.853-.04Z" transform="translate(-172.009 -159.766)" fill="#344866"/>
        <path id="Trazado_1284031" data-name="Trazado 1284031" d="M214.037,151.633h8.236v-8.239h-8.236Zm6.093-2.154H216.2v-3.92h3.927Z" transform="translate(-172.009 -115.237)" fill="#344866"/>
        <path id="Trazado_1284032" data-name="Trazado 1284032" d="M214.037,96.1h8.236V87.85h-8.236Zm6.093-2.178H216.2V89.979h3.927Z" transform="translate(-172.009 -70.6)" fill="#344866"/>
        <rect id="Rectángulo_464965" data-name="Rectángulo 464965" width="28.907" height="2.169" transform="translate(24.336 5.58)" fill="#344866"/>
        <path id="Trazado_1284033" data-name="Trazado 1284033" d="M56.078,28.487a1.06,1.06,0,1,0,1.06,1.06,1.061,1.061,0,0,0-1.06-1.06" transform="translate(-44.215 -22.893)" fill="#344866"/>
        <path id="Trazado_1284034" data-name="Trazado 1284034" d="M79.121,28.47a1.063,1.063,0,1,0,1.063,1.063,1.065,1.065,0,0,0-1.063-1.063" transform="translate(-62.731 -22.88)" fill="#344866"/>
        <path id="Trazado_1284035" data-name="Trazado 1284035" d="M33.041,28.456A1.061,1.061,0,1,0,34.1,29.517a1.062,1.062,0,0,0-1.061-1.061" transform="translate(-25.701 -22.868)" fill="#344866"/>
        <path id="Trazado_1284036" data-name="Trazado 1284036" d="M59.5,2.958A2.859,2.859,0,0,0,56.417,0H3.083A3.21,3.21,0,0,0,.889.787,2.86,2.86,0,0,0,0,2.96L.034,50.415a2.394,2.394,0,0,0,.891,1.9,3.881,3.881,0,0,0,2.786.761c.15,3.418,4.615,4.849,6.577,5.313a33.293,33.293,0,0,0,7.659.894,32.357,32.357,0,0,0,7.678-.916c1.545-.378,6.453-1.853,6.414-5.287l24.579-.021A2.894,2.894,0,0,0,59.5,50.027ZM32.015,50.886,32,30.628A3.808,3.808,0,0,0,30.575,27.9l-.028-.024a12.338,12.338,0,0,0-4.54-2.155,32.818,32.818,0,0,0-16.062-.033c-2.274.569-6.124,2.215-6.13,4.776L3.769,50.85a1.957,1.957,0,0,1-1.313-.08c-.236-.123-.263-.266-.263-.363L2.159,13.2H57.34l.01,36.814a.784.784,0,0,1-.763.876Zm-26.038-1c.007-.255.015-.512.022-.77,5.806,3.5,18.155,3.487,23.834-.029,0,.34.012.678.019,1.009a27.985,27.985,0,0,1-.062,3.435c-.056.573-.623.95-1.171,1.314-.136.091-.269.179-.392.269-5.074,2.649-15.459,2.66-20.623.022-.159-.124-.335-.241-.506-.354-.515-.342-1-.666-1.056-1.15a26.08,26.08,0,0,1-.066-3.747m23.84-4c-.066,1.127-2.644,2.283-4.453,2.744a30.05,30.05,0,0,1-15.271-.1,11.321,11.321,0,0,1-3.293-1.5l-.14-.133c-.346-.326-.673-.634-.677-1.036l-.008-.6c-.018-1.278-.035-2.493.015-3.756,5.691,3.53,18.059,3.541,23.854.023,0,.292.007.579.011.862.017,1.192.033,2.318-.036,3.493m-1.065-6.272c-.138.1-.281.2-.412.3-5.191,2.781-15.988,2.727-21.06-.1-.135-.117-.282-.228-.425-.335-.4-.3-.786-.589-.821-.963A35.235,35.235,0,0,1,6,33.969c5.8,3.5,18.152,3.483,23.833-.023,0,.352.012.7.019,1.042a27.313,27.313,0,0,1-.065,3.42c-.053.521-.53.855-1.035,1.208m-3.317-6.143a30.126,30.126,0,0,1-14.574.129c-1.926-.453-4.815-1.608-4.882-2.935-.059-1.168,2.282-2.261,3.87-2.712A29.5,29.5,0,0,1,17.9,26.841a30.171,30.171,0,0,1,7.884,1.052c1.513.41,3.949,1.5,4.045,2.668.1,1.278-2.569,2.442-4.39,2.912M2.155,2.164H57.347v8.9H2.155Z" transform="translate(0)" fill="#344866"/>
        <path id="Trazado_1284037" data-name="Trazado 1284037" d="M37.509,225.057a1.007,1.007,0,0,0-.66.439,1.081,1.081,0,0,0-.137.827,1.36,1.36,0,0,0,.944.9,1.727,1.727,0,0,0,.54.091,1.139,1.139,0,0,0,.744-.248,1.03,1.03,0,0,0,.128-1.376,1.67,1.67,0,0,0-1.559-.63" transform="translate(-29.48 -180.846)" fill="#344866"/>
        <path id="Trazado_1284038" data-name="Trazado 1284038" d="M37.212,186.331a1.036,1.036,0,0,0-.431,1.339,1.714,1.714,0,0,0,1.225.811,1.384,1.384,0,0,0,.215.017.989.989,0,0,0,.786-.352,1.033,1.033,0,0,0-.065-1.461,1.6,1.6,0,0,0-1.731-.353" transform="translate(-29.488 -149.64)" fill="#344866"/>
        <path id="Trazado_1284039" data-name="Trazado 1284039" d="M38.072,266.135a1.507,1.507,0,0,0,.171.01,1.053,1.053,0,0,0,.874-.41.993.993,0,0,0,.076-1.131,1.617,1.617,0,0,0-1.872-.658.906.906,0,0,0-.5.512,1.245,1.245,0,0,0,.041.941,1.589,1.589,0,0,0,1.208.736" transform="translate(-29.533 -212.037)" fill="#344866"/>
      </g>
    </g>
  </g>
</svg>
