<svg xmlns="http://www.w3.org/2000/svg" xmlns:xlink="http://www.w3.org/1999/xlink" width="150" height="150" viewBox="0 0 150 150">
  <defs>
    <clipPath id="clip-path">
      <rect id="Rectángulo_454829" data-name="Rectángulo 454829" width="150" height="150" fill="#1e535a"/>
    </clipPath>
    <clipPath id="clip-path-2">
      <rect id="Rectángulo_465014" data-name="Rectángulo 465014" width="64.574" height="55.88" fill="#1e535a"/>
    </clipPath>
  </defs>
  <g id="Grupo_1212381" data-name="Grupo 1212381" transform="translate(-313.711 -6905.764)">
    <g id="Grupo_1211070" data-name="Grupo 1211070" transform="translate(127.711 2581.818)">
      <g id="Grupo_1177591" data-name="Grupo 1177591" transform="translate(186 4323.945)">
        <g id="Grupo_1177589" data-name="Grupo 1177589" transform="translate(0 0)">
          <g id="Grupo_1177587" data-name="Grupo 1177587" clip-path="url(#clip-path)">
            <path id="Trazado_997422" data-name="Trazado 997422" d="M143.876,66.392A68.963,68.963,0,0,0,128.3,30.506a7.931,7.931,0,0,0-11.16-10.685A68.861,68.861,0,0,0,81.486,5.891,7.933,7.933,0,0,0,66.079,6.2,68.956,68.956,0,0,0,31.872,20.827,7.935,7.935,0,0,0,20.859,31.915,68.9,68.9,0,0,0,6.425,66.324a7.938,7.938,0,0,0-.19,15.546,68.878,68.878,0,0,0,13.982,35.106A7.934,7.934,0,0,0,31,128.179,68.951,68.951,0,0,0,66.016,143.5a7.935,7.935,0,0,0,15.546.313,68.892,68.892,0,0,0,35.914-14.188,7.933,7.933,0,0,0,11.1-10.74A68.98,68.98,0,0,0,144.062,81.8a7.935,7.935,0,0,0-.186-15.4M121.469,34.413a7.89,7.89,0,0,0,4.394-1.33,65.489,65.489,0,0,1,14.453,33.289,7.946,7.946,0,0,0-5.071,3.674l-20.281-7.6c.016-.222.032-.447.032-.677a7.935,7.935,0,0,0-3.361-6.484l8.871-20.93a8.6,8.6,0,0,0,.962.063m-4.287-1.263-8.816,20.791a7.853,7.853,0,0,0-8.741,5.047L62.936,50.537a7.72,7.72,0,0,0-.166-1.58l52.065-18.131a7.961,7.961,0,0,0,2.348,2.324M73.822,15.882a7.941,7.941,0,0,0,7.795-6.441,65.381,65.381,0,0,1,33.059,12.929,7.9,7.9,0,0,0-1.148,4.1,8.337,8.337,0,0,0,.075,1.049L61.277,45.739A7.965,7.965,0,0,0,59.84,44.3L73.565,15.87c.087,0,.17.012.257.012M66.1,9.754a7.943,7.943,0,0,0,3.994,5.2L56.637,42.817A7.963,7.963,0,0,0,55,42.647a7.883,7.883,0,0,0-4.525,1.421L34.524,30.747a7.894,7.894,0,0,0-.269-7.308A65.433,65.433,0,0,1,66.1,9.754M15.688,72.393,48.676,55.378a7.912,7.912,0,0,0,6.259,3.147L66.241,94.665a8.071,8.071,0,0,0-1.75,1.936l-48.9-20.376a7.888,7.888,0,0,0,.293-2.106,7.98,7.98,0,0,0-.194-1.726m7.791-38.111a7.935,7.935,0,0,0,8.864-.756L48.091,46.677a7.919,7.919,0,0,0-.875,5.487L14.172,69.2a7.939,7.939,0,0,0-4.2-2.755A65.4,65.4,0,0,1,23.479,34.282m3.286,79.246a7.918,7.918,0,0,0-3.943,1.053A65.346,65.346,0,0,1,9.786,81.835a7.948,7.948,0,0,0,4.121-2.486L63.3,99.926a8.514,8.514,0,0,0-.063.954,7.939,7.939,0,0,0,.475,2.684L33.839,117.875a7.94,7.94,0,0,0-7.074-4.347M66.17,139.96a65.5,65.5,0,0,1-32.675-14.295,7.858,7.858,0,0,0,1.211-4.2l0-.091,30.926-14.821a7.941,7.941,0,0,0,2.8,1.77l1.853,26.63a7.941,7.941,0,0,0-4.113,5m3.29-46.828L58.4,57.758a7.952,7.952,0,0,0,3.773-3.773L99.154,62.5a7.894,7.894,0,0,0,1.263,3.61L75.049,93.952a7.843,7.843,0,0,0-5.59-.819m12.094,47.136a7.938,7.938,0,0,0-7.731-6.152l-.059,0L72,108.782a7.927,7.927,0,0,0,4.853-2.355l36.978,16.31c0,.071-.012.135-.012.206A7.9,7.9,0,0,0,115,127.083a65.377,65.377,0,0,1-33.443,13.186m33.17-21-36.016-15.89a7.894,7.894,0,0,0-1.041-7.062l25.292-27.762a7.894,7.894,0,0,0,4.1,1.148,8.74,8.74,0,0,0,.974-.063l9.453,46.618a7.923,7.923,0,0,0-2.759,3.013m11.393-2.969a7.893,7.893,0,0,0-5.277-1.247l-9.457-46.638a7.973,7.973,0,0,0,2.5-2.613l20.269,7.6a7.042,7.042,0,0,0-.036.713A7.938,7.938,0,0,0,140.5,81.9a65.431,65.431,0,0,1-14.382,34.4" transform="translate(0 0.002)" fill="#1e535a"/>
          </g>
        </g>
      </g>
      <g id="Elipse_13614" data-name="Elipse 13614" transform="translate(210.273 4348.213)" fill="#fff" stroke="#1e535a" stroke-width="3">
        <ellipse cx="50.732" cy="50.733" rx="50.732" ry="50.733" stroke="none"/>
        <ellipse cx="50.732" cy="50.733" rx="49.232" ry="49.233" fill="none"/>
      </g>
      <g id="Grupo_1212113" data-name="Grupo 1212113" transform="translate(231.997 4371.005)">
        <g id="Grupo_1212112" data-name="Grupo 1212112" clip-path="url(#clip-path-2)">
          <path id="Trazado_1284278" data-name="Trazado 1284278" d="M146.247,59.913c-.517.316-1.286.029-1.47.689a8.245,8.245,0,0,0-.063,3.726c.256,1.328,2.044-.039,1.856,1.733l-23.514.01.02-10.794c.618.7.991,1.4,1.894,1.081l4.456-6.118.023-21.676,24.156,0,.014,24.014a2.969,2.969,0,0,0-1.262.344c-.376.258-.164.78-.342,1.24a1.647,1.647,0,0,1-1.624.65c-.479-.227-.823-.881-1.424-.523a7.822,7.822,0,0,0-2.721,2.75c-.348.608.442.992.592,1.411a1.7,1.7,0,0,1-.591,1.459M139,58.527a.8.8,0,0,0,.784-.758l0-4.221c0-1.222-1.84-.564-2.613-.83l0-4.835a48.282,48.282,0,0,1,4.883.084c-.033.623-.2,1.676.432,1.773,1.771.274,3.555-.009,5.346.128a.907.907,0,0,0,1.012-.969l0-3.862c0-1.456-1.614-.668-2.473-1.019l-.037-5.607c-.005-.792-.6-1.044-1.318-1.046-2.278,0-4.473.08-6.695-.047.012-.594.169-1.652-.385-1.76-1.779-.348-3.622-.022-5.454-.151a.884.884,0,0,0-.963.944L131.5,40.2a.906.906,0,0,0,.974.994,49.6,49.6,0,0,0,5.386-.124c.617-.1.486-1.175.435-1.792l6.158-.074v4.869c-.76.153-1.472-.139-2.075.18-.533.282-.336,1.048-.346,1.744-1.906.184-3.787.016-5.723.091a.929.929,0,0,0-.986.989l-.022,5.611c-.587.29-2.3-.3-2.3.847l0,4.249a.818.818,0,0,0,.878.754Z" transform="translate(-98.185 -22.791)" fill="#1e535a"/>
          <path id="Trazado_1284279" data-name="Trazado 1284279" d="M10.91,58.849c-.034,1.559.054,2.9-.047,4.288A3.894,3.894,0,0,1,9.132,63.1l-.038-4.334A1.01,1.01,0,0,0,8.024,57.7L3.981,57.68A4.075,4.075,0,0,1,.006,53.765c-.112-2.009,1.339-4.252,3.556-4.271l11.432-.1a2.335,2.335,0,0,0,2.375-2.246A2.3,2.3,0,0,0,15.03,44.7L3.958,44.666a4.124,4.124,0,0,1,.035-8.242l17.253-.033a4.155,4.155,0,0,1,.022,1.817l-17.077.017a2.327,2.327,0,1,0-.025,4.653l10.871.013a4.144,4.144,0,0,1,4.15,3.874A4.055,4.055,0,0,1,15.3,51.144l-11.043.044a2.348,2.348,0,0,0-2.445,2.248,2.3,2.3,0,0,0,2.232,2.414l3.972.025a2.831,2.831,0,0,1,2.895,2.973" transform="translate(0 -29.036)" fill="#1e535a"/>
          <path id="Trazado_1284280" data-name="Trazado 1284280" d="M26.623,231.394l-5.416,0a3.768,3.768,0,0,1-3.882-3.7l0-7.716,13.03.006-.006,7.7a3.771,3.771,0,0,1-3.728,3.71" transform="translate(-13.823 -175.514)" fill="#1e535a"/>
          <path id="Trazado_1284281" data-name="Trazado 1284281" d="M26.041,182.665l.094-4.67a3.816,3.816,0,0,1,4.121,3.849,22.338,22.338,0,0,1-.054,2.8l-12.933,0a19.74,19.74,0,0,1-.071-2.81,3.781,3.781,0,0,1,4.114-3.834l.048,4.424a.985.985,0,0,0,.994.963c.748.045,3.666.316,3.687-.73" transform="translate(-13.711 -142.011)" fill="#1e535a"/>
          <rect id="Rectángulo_465011" data-name="Rectángulo 465011" width="2.418" height="22.465" transform="translate(27.018 3.813)" fill="#1e535a"/>
          <rect id="Rectángulo_465012" data-name="Rectángulo 465012" width="2.08" height="22.465" transform="translate(23.129 3.813)" fill="#1e535a"/>
          <path id="Trazado_1284282" data-name="Trazado 1284282" d="M120.576,2.022l-6.119.013A3.48,3.48,0,0,1,114.39.011L120.557,0a8.165,8.165,0,0,1,.018,2.022" transform="translate(-91.177)" fill="#1e535a"/>
          <path id="Trazado_1284283" data-name="Trazado 1284283" d="M123.708,138.827a28.206,28.206,0,0,1-2.106,3.023,31.109,31.109,0,0,1-2.174-2.954,18.505,18.505,0,0,1,4.28-.069" transform="translate(-95.289 -110.697)" fill="#1e535a"/>
          <rect id="Rectángulo_465013" data-name="Rectángulo 465013" width="1.081" height="3.595" transform="translate(9.479 35.963)" fill="#1e535a"/>
          <path id="Trazado_1284284" data-name="Trazado 1284284" d="M247.082,172.208c-.033.385-1.112.422-1.235.055-.162-.484-.038-1.09-.579-1.278-3.252-1.129-2.654-1.589-4.035-.609-.265.188-1.016-.589-.841-.863.382-.6.794-1.031.321-1.727-1.294-1.906-.2-2.628-2.194-2.848-.325-.036-.362-1.071-.084-1.226.372-.207,1.127,0,1.316-.555,1.084-3.184,1.639-2.718.658-3.985-.248-.319.517-1.122.825-.946.591.363,1.041.82,1.766.316,1.592-1.106,2.941-.354,2.768-2.261.3-.172,1.019-.332,1.264-.005s-.019,1.09.523,1.31a12.244,12.244,0,0,1,2.4.994c.672.456,1.238-.017,1.746-.4.3.018.915.565.824.879-.125.43-.828.8-.529,1.341a13.309,13.309,0,0,1,1.124,2.7c.17.565.881.43,1.322.6.295.116.294,1.063.01,1.2-.4.2-1.137.006-1.3.523a18.541,18.541,0,0,1-1.177,2.845c-.249.494.41.841.556,1.229.126.336-.635,1.074-.923.851-.543-.422-.97-.757-1.622-.349-2.121,1.327-2.751.335-2.911,2.2m4.808-7.9a5.445,5.445,0,1,0-5.445,5.445,5.445,5.445,0,0,0,5.445-5.445" transform="translate(-190.095 -124.538)" fill="#1e535a"/>
          <path id="Trazado_1284285" data-name="Trazado 1284285" d="M268.105,182.392a3.634,3.634,0,1,1-3.633-3.633,3.633,3.633,0,0,1,3.633,3.633" transform="translate(-208.118 -142.629)" fill="#1e535a"/>
        </g>
      </g>
    </g>
  </g>
</svg>
