<svg xmlns="http://www.w3.org/2000/svg" xmlns:xlink="http://www.w3.org/1999/xlink" width="96" height="96" viewBox="0 0 96 96">
  <defs>
    <clipPath id="clip-path">
      <rect id="Rectángulo_454829" data-name="Rectángulo 454829" width="96" height="96" fill="#1e535a"/>
    </clipPath>
    <clipPath id="clip-path-2">
      <rect id="Rectángulo_465007" data-name="Rectángulo 465007" width="41.198" height="42.336" fill="#1e535a"/>
    </clipPath>
  </defs>
  <g id="Grupo_1211492" data-name="Grupo 1211492" transform="translate(-1481 -8562.5)">
    <g id="Grupo_1177591" data-name="Grupo 1177591" transform="translate(1481 8562.5)">
      <g id="Grupo_1177589" data-name="Grupo 1177589" transform="translate(0 0)">
        <g id="Grupo_1177587" data-name="Grupo 1177587" clip-path="url(#clip-path)">
          <path id="Trazado_997422" data-name="Trazado 997422" d="M92.081,42.491a44.136,44.136,0,0,0-9.97-22.967,5.076,5.076,0,0,0-7.142-6.838A44.071,44.071,0,0,0,52.151,3.77a5.077,5.077,0,0,0-9.861.2A44.132,44.132,0,0,0,20.4,13.329a5.079,5.079,0,0,0-7.048,7.1A44.1,44.1,0,0,0,4.112,42.448,5.08,5.08,0,0,0,3.99,52.4a44.082,44.082,0,0,0,8.949,22.468,5.078,5.078,0,0,0,6.9,7.17,44.128,44.128,0,0,0,22.412,9.8,5.078,5.078,0,0,0,9.949.2,44.091,44.091,0,0,0,22.985-9.08,5.077,5.077,0,0,0,7.107-6.874A44.147,44.147,0,0,0,92.2,52.349a5.078,5.078,0,0,0-.119-9.858M77.74,22.024a5.05,5.05,0,0,0,2.812-.851,41.913,41.913,0,0,1,9.25,21.3,5.086,5.086,0,0,0-3.246,2.351l-12.98-4.867c.01-.142.02-.286.02-.433a5.079,5.079,0,0,0-2.151-4.15l5.678-13.4a5.5,5.5,0,0,0,.616.041M75,21.216,69.354,34.523a5.026,5.026,0,0,0-5.594,3.23L40.279,32.344a4.941,4.941,0,0,0-.106-1.011l33.322-11.6A5.1,5.1,0,0,0,75,21.216M47.246,10.165a5.083,5.083,0,0,0,4.989-4.122,41.844,41.844,0,0,1,21.158,8.275,5.054,5.054,0,0,0-.735,2.625,5.335,5.335,0,0,0,.048.671L39.217,29.273a5.1,5.1,0,0,0-.92-.92l8.784-18.2c.056,0,.109.008.165.008M42.3,6.243A5.083,5.083,0,0,0,44.86,9.569L36.248,27.4a5.1,5.1,0,0,0-1.049-.109,5.045,5.045,0,0,0-2.9.91L22.1,19.678A5.052,5.052,0,0,0,21.923,15,41.877,41.877,0,0,1,42.3,6.243M10.041,46.332,31.153,35.442a5.064,5.064,0,0,0,4.006,2.014l7.236,23.129a5.166,5.166,0,0,0-1.12,1.239l-31.3-13.04a5.048,5.048,0,0,0,.187-1.348,5.107,5.107,0,0,0-.124-1.1m4.986-24.391a5.079,5.079,0,0,0,5.673-.484l10.079,8.417a5.068,5.068,0,0,0-.56,3.512L9.07,44.29A5.081,5.081,0,0,0,6.38,42.526a41.859,41.859,0,0,1,8.647-20.585m2.1,50.717a5.067,5.067,0,0,0-2.523.674A41.822,41.822,0,0,1,6.263,52.374,5.087,5.087,0,0,0,8.9,50.783l31.609,13.17a5.45,5.45,0,0,0-.041.611,5.081,5.081,0,0,0,.3,1.718L21.657,75.44a5.081,5.081,0,0,0-4.528-2.782M42.349,89.575a41.919,41.919,0,0,1-20.912-9.149,5.029,5.029,0,0,0,.775-2.686l0-.058L42,68.2A5.082,5.082,0,0,0,43.8,69.329l1.186,17.043a5.082,5.082,0,0,0-2.632,3.2m2.105-29.97-7.081-22.64a5.089,5.089,0,0,0,2.415-2.415L63.459,40a5.052,5.052,0,0,0,.808,2.311L48.032,60.13a5.019,5.019,0,0,0-3.577-.524m7.74,30.167a5.081,5.081,0,0,0-4.948-3.937l-.038,0L46.081,69.62a5.073,5.073,0,0,0,3.106-1.507L72.853,78.551c0,.046-.008.086-.008.132a5.057,5.057,0,0,0,.752,2.65,41.841,41.841,0,0,1-21.4,8.439M73.423,76.334,50.373,66.165a5.052,5.052,0,0,0-.666-4.52L65.893,43.877a5.052,5.052,0,0,0,2.622.735,5.594,5.594,0,0,0,.623-.041l6.05,29.836a5.071,5.071,0,0,0-1.766,1.928m7.292-1.9a5.051,5.051,0,0,0-3.377-.8L71.285,43.788a5.1,5.1,0,0,0,1.6-1.672L85.858,46.98a4.506,4.506,0,0,0-.023.456,5.08,5.08,0,0,0,4.084,4.981,41.876,41.876,0,0,1-9.2,22.017" transform="translate(0 0.001)" fill="#1e535a"/>
        </g>
      </g>
    </g>
    <g id="Elipse_13614" data-name="Elipse 13614" transform="translate(1497.766 8579.268)" fill="#d5f4f8" stroke="#1e535a" stroke-width="3">
      <ellipse cx="31.232" cy="31.233" rx="31.232" ry="31.233" stroke="none"/>
      <ellipse cx="31.232" cy="31.233" rx="29.732" ry="29.733" fill="none"/>
    </g>
    <g id="Grupo_1212107" data-name="Grupo 1212107" transform="translate(1508.401 8589.332)">
      <g id="Grupo_1212103" data-name="Grupo 1212103" clip-path="url(#clip-path-2)">
        <path id="Trazado_1284252" data-name="Trazado 1284252" d="M40.976,211.88H34.361a2.965,2.965,0,0,1-3.064,2.387,2.9,2.9,0,1,1,3.044-3.42H41.1l.023-6.791c.252-.228.7-.113,1,.021l-.008,6.746a1.08,1.08,0,0,1-1.14,1.057" transform="translate(-24.798 -176.955)" fill="#1e535a"/>
        <path id="Trazado_1284253" data-name="Trazado 1284253" d="M188.219,210.983a3.012,3.012,0,0,1,3.086-2.393A2.9,2.9,0,1,1,188.264,212l-6.684-.017a1.106,1.106,0,0,1-1.1-1.182l.007-6.617a1.727,1.727,0,0,1,1-.108l.028,6.878Z" transform="translate(-156.611 -177.066)" fill="#1e535a"/>
        <path id="Trazado_1284254" data-name="Trazado 1284254" d="M137.238,215.371a3,3,0,0,1,2.387,3.08,2.9,2.9,0,1,1-3.421-3.04l.017-9.2a1.472,1.472,0,0,1,1.017-.051Z" transform="translate(-116.129 -178.837)" fill="#1e535a"/>
        <path id="Trazado_1284255" data-name="Trazado 1284255" d="M208.971,190.535c.154-.285.654-.242.9-.38l.058,1.467,6.731,0a2.949,2.949,0,0,1,3.1-2.386,2.9,2.9,0,1,1-3.082,3.423l-6.638-.018a1.066,1.066,0,0,1-1.12-.967,2.106,2.106,0,0,1,.053-1.143" transform="translate(-181.239 -164.203)" fill="#1e535a"/>
        <path id="Trazado_1284256" data-name="Trazado 1284256" d="M13.462,190.539c.227.337.04.854.063,1.262a1.118,1.118,0,0,1-1.122.853l-6.624,0a2.907,2.907,0,1,1,0-1.019l6.73,0,.058-1.438c.274.092.733.1.9.343" transform="translate(0 -164.214)" fill="#1e535a"/>
        <path id="Trazado_1284257" data-name="Trazado 1284257" d="M87.733,8.5A23.432,23.432,0,0,1,72,8.591,8.049,8.049,0,0,1,68.84,6.578,2.321,2.321,0,0,1,68.96,3.2,9.074,9.074,0,0,1,72.754,1.05a23.912,23.912,0,0,1,14,0A9.064,9.064,0,0,1,90.547,3.2a2.326,2.326,0,0,1,.112,3.382A7.781,7.781,0,0,1,87.733,8.5" transform="translate(-59.154 -0.001)" fill="#1e535a"/>
        <path id="Trazado_1284258" data-name="Trazado 1284258" d="M89.935,61.454a11.844,11.844,0,0,1-4.114,1.908A24.232,24.232,0,0,1,73.206,63.3a11.308,11.308,0,0,1-3.866-1.827,3.2,3.2,0,0,1-1.282-1.993,30.25,30.25,0,0,1,0-3.24,11.342,11.342,0,0,0,4.479,2.467,24.918,24.918,0,0,0,14.154,0,11.436,11.436,0,0,0,4.489-2.467c-.083,2.36.606,3.638-1.247,5.21m-13.375.267a.5.5,0,1,0-.5.5.5.5,0,0,0,.5-.5m7.125,0a.5.5,0,1,0-.5.5.5.5,0,0,0,.5-.5m-5.348.2a.5.5,0,1,0-.5.5.5.5,0,0,0,.5-.5m1.78.013a.5.5,0,1,0-.5.5.5.5,0,0,0,.5-.5m1.784-.011a.5.5,0,1,0-.5.5.5.5,0,0,0,.5-.5" transform="translate(-59.018 -48.804)" fill="#1e535a"/>
        <path id="Trazado_1284259" data-name="Trazado 1284259" d="M89.683,102.876a12.39,12.39,0,0,1-4.168,1.861,24.264,24.264,0,0,1-12.333-.083,11.939,11.939,0,0,1-3.9-1.8c-1.945-1.6-1.278-2.7-1.342-5.268A11.587,11.587,0,0,0,72.291,100,25.025,25.025,0,0,0,86.7,100a11.61,11.61,0,0,0,4.356-2.422c-.071,2.545.614,3.677-1.378,5.3m-13.245.168a.506.506,0,1,0-.506.506.506.506,0,0,0,.506-.506m7.128,0a.506.506,0,1,0-.506.506.506.506,0,0,0,.506-.506m-5.347.205a.5.5,0,1,0-.5.5.5.5,0,0,0,.5-.5m3.569,0a.5.5,0,1,0-.5.5.5.5,0,0,0,.5-.5M80,103.263a.5.5,0,1,0-.5.5.5.5,0,0,0,.5-.5" transform="translate(-58.898 -84.675)" fill="#1e535a"/>
        <path id="Trazado_1284260" data-name="Trazado 1284260" d="M91.032,138.686c-.04,2.4.591,3.729-1.261,5.2a10.433,10.433,0,0,1-3.739,1.821,24.066,24.066,0,0,1-13.1,0,11.421,11.421,0,0,1-3.686-1.752c-1.927-1.537-1.274-2.852-1.319-5.268,2.459,2.33,6.4,3.182,9.579,3.4,4.2.3,10.239-.288,13.526-3.4m-14.608,5.478a.509.509,0,1,0-.509.509.509.509,0,0,0,.509-.509m7.131,0a.509.509,0,1,0-.509.509.509.509,0,0,0,.509-.509m-5.354.2a.5.5,0,1,0-.5.5.5.5,0,0,0,.5-.5m1.785.016a.5.5,0,1,0-.5.5.5.5,0,0,0,.5-.5m1.784-.016a.5.5,0,1,0-.5.5.5.5,0,0,0,.5-.5" transform="translate(-58.881 -120.343)" fill="#1e535a"/>
      </g>
    </g>
  </g>
</svg>
