<svg xmlns="http://www.w3.org/2000/svg" xmlns:xlink="http://www.w3.org/1999/xlink" width="396" height="240" viewBox="0 0 396 240">
  <defs>
    <clipPath id="clip-path">
      <rect id="Rectángulo_464710" data-name="Rectángulo 464710" width="374.216" height="238.976" fill="none"/>
    </clipPath>
    <clipPath id="clip-path-2">
      <rect id="Rectángulo_464714" data-name="Rectángulo 464714" width="101.857" height="143.86" fill="none"/>
    </clipPath>
  </defs>
  <g id="Grupo_1211937" data-name="Grupo 1211937" transform="translate(-289.711 -11745)">
    <rect id="Rectángulo_464413" data-name="Rectángulo 464413" width="396" height="240" transform="translate(289.711 11745)" fill="none"/>
    <g id="Grupo_1211936" data-name="Grupo 1211936" transform="translate(300.711 11746)">
      <g id="Grupo_1211931" data-name="Grupo 1211931" transform="translate(0)">
        <g id="Grupo_1211930" data-name="Grupo 1211930" clip-path="url(#clip-path)">
          <path id="Trazado_1274489" data-name="Trazado 1274489" d="M15.507,194.158c17.418,32.835,53.877,43.224,96.915,43.224,75.164,0,68.089-13.086,103.826-19.381,53.552-9.025,129.391-5.514,154.29-63.175,16.349-46.641-24.958-98.085-61.884-124.182-117.435-78.226-374.1-.573-293.147,163.514" transform="translate(0 -0.001)" fill="#ffe79e"/>
        </g>
      </g>
      <g id="Grupo_1211933" data-name="Grupo 1211933" transform="translate(2.247 93.48)">
        <g id="Grupo_1211932" data-name="Grupo 1211932" transform="translate(0)" clip-path="url(#clip-path-2)">
          <path id="Trazado_1274490" data-name="Trazado 1274490" d="M503.337,184.4c-6.967,106.45-46.917,127.118-46.917,127.118S439.476,269.847,503.337,184.4" transform="translate(-407.006 -166.018)" fill="#ffa727"/>
          <rect id="Rectángulo_464711" data-name="Rectángulo 464711" width="0.606" height="111.14" transform="translate(51.067 141.891) rotate(-159.742)" fill="#25292b"/>
          <path id="Trazado_1274491" data-name="Trazado 1274491" d="M465.371,257.529l13.235-13.5-.433-.424-12.289,12.537-1.2-17.515-.605.041Z" transform="translate(-388.159 -187.35)" fill="#25292b"/>
          <path id="Trazado_1274492" data-name="Trazado 1274492" d="M498.3,346.737l13.235-13.5-.433-.424L498.81,345.348l-1.2-17.516-.605.041Z" transform="translate(-441.059 -222.442)" fill="#25292b"/>
          <path id="Trazado_1274493" data-name="Trazado 1274493" d="M480.775,299.261l13.235-13.5-.433-.424-12.288,12.537-1.2-17.515-.605.041Z" transform="translate(-412.907 -203.767)" fill="#25292b"/>
          <path id="Trazado_1274494" data-name="Trazado 1274494" d="M528.446,184.4c6.967,106.45,46.917,127.118,46.917,127.118s16.944-41.666-46.917-127.118" transform="translate(-525.997 -166.018)" fill="#ffa727"/>
          <rect id="Rectángulo_464712" data-name="Rectángulo 464712" width="111.139" height="0.606" transform="translate(47.72 141.888) rotate(-110.267)" fill="#25292b"/>
          <path id="Trazado_1274495" data-name="Trazado 1274495" d="M588.737,257.53l1.289-18.864-.605-.041-1.2,17.516L575.935,243.6l-.433.424Z" transform="translate(-567.169 -187.35)" fill="#25292b"/>
          <path id="Trazado_1274496" data-name="Trazado 1274496" d="M555.812,346.737l1.289-18.864-.605-.041-1.2,17.516L543.01,332.81l-.433.424Z" transform="translate(-514.271 -222.442)" fill="#25292b"/>
          <path id="Trazado_1274497" data-name="Trazado 1274497" d="M573.335,299.261l1.289-18.864-.605-.041-1.2,17.515-12.289-12.537-.433.424Z" transform="translate(-542.423 -203.767)" fill="#25292b"/>
          <path id="Trazado_1274498" data-name="Trazado 1274498" d="M523.038,170.578c-30.323,102.278,0,135.5,0,135.5s30.323-33.222,0-135.5" transform="translate(-473.656 -160.582)" fill="#ffbd29"/>
          <rect id="Rectángulo_464713" data-name="Rectángulo 464713" width="0.607" height="111.14" transform="translate(49.079 30.401)" fill="#25292b"/>
          <path id="Trazado_1274499" data-name="Trazado 1274499" d="M526.757,250.254,534.5,233l-.553-.249-7.188,16.018-7.187-16.018-.553.249Z" transform="translate(-477.375 -185.041)" fill="#25292b"/>
          <path id="Trazado_1274500" data-name="Trazado 1274500" d="M526.757,345.345l7.741-17.251-.553-.249-7.188,16.018-7.187-16.018-.553.249Z" transform="translate(-477.375 -222.448)" fill="#25292b"/>
          <path id="Trazado_1274501" data-name="Trazado 1274501" d="M526.757,294.739l7.741-17.25-.553-.249-7.188,16.018-7.187-16.018-.553.249Z" transform="translate(-477.375 -202.54)" fill="#25292b"/>
        </g>
      </g>
      <g id="Grupo_1211935" data-name="Grupo 1211935" transform="translate(0)">
        <g id="Grupo_1211934" data-name="Grupo 1211934" clip-path="url(#clip-path)">
          <path id="Trazado_1274502" data-name="Trazado 1274502" d="M496,197.147h0a.3.3,0,0,0,.263-.152l2.861-4.953a.3.3,0,0,0,0-.3l-2.861-4.952a.3.3,0,0,0-.525,0l-2.868,4.952a.3.3,0,0,0,0,.3L495.743,197a.3.3,0,0,0,.262.151m2.511-5.256L496,196.238l-2.516-4.347L496,187.544Z" transform="translate(-423.917 -73.419)" fill="#25292b"/>
          <path id="Trazado_1274503" data-name="Trazado 1274503" d="M483.813,191.94a1.728,1.728,0,1,0-1.728-1.728,1.73,1.73,0,0,0,1.728,1.728m0-2.849a1.121,1.121,0,1,1-1.121,1.121,1.122,1.122,0,0,1,1.121-1.121" transform="translate(-403.768 -74.146)" fill="#25292b"/>
          <path id="Trazado_1274504" data-name="Trazado 1274504" d="M492.355,181.748a1.509,1.509,0,1,0-1.509-1.51,1.511,1.511,0,0,0,1.509,1.51m0-2.412a.9.9,0,1,1-.9.9.9.9,0,0,1,.9-.9" transform="translate(-417.406 -70.309)" fill="#25292b"/>
          <path id="Trazado_1274505" data-name="Trazado 1274505" d="M481.861,183.4a1.118,1.118,0,1,0-1.117-1.117,1.119,1.119,0,0,0,1.117,1.117m0-1.629a.511.511,0,1,1-.511.511.512.512,0,0,1,.511-.511" transform="translate(-400.393 -71.267)" fill="#25292b"/>
          <path id="Trazado_1274506" data-name="Trazado 1274506" d="M200.83,85.869h0a.3.3,0,0,0,.262-.152l2.189-3.79a.3.3,0,0,0,0-.3l-2.189-3.79a.3.3,0,0,0-.525,0l-2.194,3.79a.3.3,0,0,0,0,.3l2.194,3.79a.3.3,0,0,0,.263.151m1.839-4.093L200.83,84.96l-1.843-3.184,1.843-3.184Z" transform="translate(50.581 -30.559)" fill="#25292b"/>
          <path id="Trazado_1274507" data-name="Trazado 1274507" d="M192.782,79.557a1.728,1.728,0,1,0-1.728-1.728,1.73,1.73,0,0,0,1.728,1.728m0-2.849a1.121,1.121,0,1,1-1.121,1.122,1.123,1.123,0,0,1,1.121-1.122" transform="translate(63.809 -29.937)" fill="#25292b"/>
          <path id="Trazado_1274508" data-name="Trazado 1274508" d="M201.324,72.8a1.509,1.509,0,1,0-1.509-1.509,1.511,1.511,0,0,0,1.509,1.509m0-2.412a.9.9,0,1,1-.9.9.9.9,0,0,1,.9-.9" transform="translate(50.17 -27.449)" fill="#25292b"/>
          <path id="Trazado_1274509" data-name="Trazado 1274509" d="M193.178,70.67a1.117,1.117,0,1,0-1.117-1.117,1.118,1.118,0,0,0,1.117,1.117m0-1.628a.511.511,0,1,1-.511.511.512.512,0,0,1,.511-.511" transform="translate(63.412 -26.921)" fill="#25292b"/>
          <path id="Trazado_1274510" data-name="Trazado 1274510" d="M44.089,370.514h0a.3.3,0,0,0,.263-.152l2.861-4.953a.3.3,0,0,0,0-.3l-2.861-4.952a.3.3,0,0,0-.525,0l-2.868,4.952a.3.3,0,0,0,0,.3l2.868,4.953a.3.3,0,0,0,.263.151m2.511-5.256L44.089,369.6l-2.517-4.347,2.517-4.346Z" transform="translate(302.14 -141.617)" fill="#25292b"/>
          <path id="Trazado_1274511" data-name="Trazado 1274511" d="M64.606,369.867a1.728,1.728,0,1,0-1.728-1.727,1.73,1.73,0,0,0,1.728,1.727m0-2.849a1.121,1.121,0,1,1-1.121,1.122,1.123,1.123,0,0,1,1.121-1.122" transform="translate(269.739 -144.139)" fill="#25292b"/>
          <path id="Trazado_1274512" data-name="Trazado 1274512" d="M40.7,355.115a1.509,1.509,0,1,0-1.509-1.509,1.511,1.511,0,0,0,1.509,1.509m0-2.412a.9.9,0,1,1-.9.9.9.9,0,0,1,.9-.9" transform="translate(308.237 -138.507)" fill="#25292b"/>
          <path id="Trazado_1274513" data-name="Trazado 1274513" d="M55.137,365a1.117,1.117,0,1,0-1.117-1.117A1.119,1.119,0,0,0,55.137,365m0-1.628a.511.511,0,1,1-.511.511.512.512,0,0,1,.511-.511" transform="translate(285.192 -142.706)" fill="#25292b"/>
          <path id="Trazado_1274514" data-name="Trazado 1274514" d="M55.07,352.645h0a.3.3,0,0,0,.263-.152l1.8-3.11a.3.3,0,0,0,0-.3l-1.8-3.111a.3.3,0,0,0-.525,0l-1.8,3.111a.3.3,0,0,0,0,.3l1.8,3.11a.3.3,0,0,0,.262.151m1.447-3.413-1.447,2.5-1.45-2.5,1.45-2.5Z" transform="translate(284.915 -136.037)" fill="#25292b"/>
          <path id="Trazado_1274515" data-name="Trazado 1274515" d="M30.061,374.822a1.117,1.117,0,1,0-1.117-1.117,1.119,1.119,0,0,0,1.117,1.117m0-1.628a.511.511,0,1,1-.511.511.512.512,0,0,1,.511-.511" transform="translate(325.479 -146.568)" fill="#25292b"/>
          <path id="Trazado_1274516" data-name="Trazado 1274516" d="M281.728,156.6c1.378,17.129,22.774,10.254,32.952,17.221,6.4,4.529,11.424,12.2,19.861,12.9,8.134.622,13.665-7.515,21.8-6.9,8.835.342,17.266,6.276,26.23,3.888,4.525-1.25,8.875-4.78,9.5-9.676.607-4.762-2.851-8.28-4.883-12.187-5.761-14.254,20.079-11.9,1.279-35.287-3.375-4.357-2.551-9.715,1.384-13.364,5.093-6.457,5.238-16.814-4.557-18.4C377.907,92.692,371.957,87.7,365.363,84c-14.735-9.6-36.619-1.974-41.05,15.342-2.106,6.875,1.092,13.026-7.31,16.972-15.537,5.072-12.055,6.383-16.165,20.111-4.966,7.91-18.652,9.216-19.11,20.176" transform="translate(-192.123 -31.394)" fill="#25292b"/>
          <path id="Trazado_1274517" data-name="Trazado 1274517" d="M304.986,141.6c1.468,5.617,5,9.118,10.228,8.384l-4.72,19.46-.54,2.214,8.887,9.124a13.967,13.967,0,0,0,22.663-3.822l-.71-2.857-1.025-4.107.855-.267a32.682,32.682,0,0,0,9.2-4.629,28.656,28.656,0,0,0,11.908-21.832l.661-12.866a17.651,17.651,0,0,0-2.511-5.842,24.238,24.238,0,0,0-9.845-8.28,27.076,27.076,0,0,1-4.434,5.387c-9.633,9.021-23.737,9.409-24.677,9.421l-.055.006v.073a.027.027,0,0,1-.024-.018,10.818,10.818,0,0,0-6.394-3.446,9.874,9.874,0,0,0-3.828.218c-5.575,1.468-7.219,7.643-5.635,13.679" transform="translate(-172.838 -45.742)" fill="#f2e9da"/>
          <path id="Trazado_1274518" data-name="Trazado 1274518" d="M307.775,160.022a2.849,2.849,0,1,0,3.487-2.39,3,3,0,0,0-3.487,2.39" transform="translate(-125.814 -61.981)" fill="#25292b"/>
          <path id="Trazado_1274519" data-name="Trazado 1274519" d="M335.406,153.41a2.849,2.849,0,1,0,3.487-2.39,3,3,0,0,0-3.487,2.39" transform="translate(-170.206 -59.38)" fill="#25292b"/>
          <path id="Trazado_1274520" data-name="Trazado 1274520" d="M304,150.042a6.721,6.721,0,0,1,5.887,2.608.87.87,0,0,1-1.322,1.131,5.848,5.848,0,0,0-.43-.517c-.075-.08-.153-.157-.233-.233l-.028-.024q-.064-.055-.129-.107a5.784,5.784,0,0,0-.547-.392c-.095-.06-.192-.116-.289-.172l-.047-.026c-.055-.027-.11-.053-.166-.079a5.964,5.964,0,0,0-.627-.245c-.107-.035-.215-.067-.323-.1-.055-.015-.109-.028-.164-.041h0l-.016,0a6.291,6.291,0,0,0-.667-.085c-.112-.007-.224-.012-.336-.012-.056,0-.112,0-.169,0h-.029l-.033,0a.894.894,0,0,1-1.02-.689.88.88,0,0,1,.689-1.02" transform="translate(-119.862 -59.016)" fill="#25292b"/>
          <path id="Trazado_1274521" data-name="Trazado 1274521" d="M340.038,145.811a.894.894,0,0,1-1.221.153l-.028-.017-.025-.013-.149-.078q-.151-.075-.306-.141a6.289,6.289,0,0,0-.633-.226l-.015,0h0l-.164-.038c-.11-.023-.22-.044-.331-.061a5.918,5.918,0,0,0-.67-.066c-.061,0-.123,0-.184,0l-.054,0c-.112.005-.224.012-.336.022a5.718,5.718,0,0,0-.665.1c-.055.012-.109.024-.164.038l-.036.009c-.1.032-.21.065-.313.1a5.678,5.678,0,0,0-.618.267.87.87,0,1,1-.667-1.608,6.721,6.721,0,0,1,6.43.34.88.88,0,0,1,.153,1.221" transform="translate(-167.949 -56.485)" fill="#25292b"/>
          <path id="Trazado_1274522" data-name="Trazado 1274522" d="M387.717,156.192a.3.3,0,0,0,.015-.606,4.9,4.9,0,0,1-3.316-8.257,3.432,3.432,0,0,1,2.3-1.159,2.037,2.037,0,0,1,2.013,1.2.3.3,0,0,0,.585-.084,12.262,12.262,0,0,0-.185-4.046,5.642,5.642,0,0,0-2.266-3.415,3.02,3.02,0,0,0-2.4-.493,4.3,4.3,0,0,0-2.269,2.108.3.3,0,0,0,.512.326,3.764,3.764,0,0,1,1.915-1.848,2.434,2.434,0,0,1,1.914.416,5.043,5.043,0,0,1,2.01,3.054,10.2,10.2,0,0,1,.231,2.968,2.818,2.818,0,0,0-2.076-.8,3.991,3.991,0,0,0-2.718,1.35,5.509,5.509,0,0,0,3.728,9.278h.015" transform="translate(-246.99 -54.78)" fill="#25292b"/>
          <path id="Trazado_1274523" data-name="Trazado 1274523" d="M340.962,201.223c.121,0,.242,0,.365-.009a13.041,13.041,0,0,0,5.7-2.055.3.3,0,0,0-.3-.527,12.2,12.2,0,0,1-5.427,1.976,9.324,9.324,0,0,1-5.4-1.7,27.227,27.227,0,0,1-4.377-3.917.3.3,0,0,0-.437.421,27.671,27.671,0,0,0,4.479,4,10.048,10.048,0,0,0,5.4,1.807" transform="translate(-173.751 -76.67)" fill="#25292b"/>
          <path id="Trazado_1274524" data-name="Trazado 1274524" d="M338.931,180.76a.3.3,0,0,0,.027-.605,4.542,4.542,0,0,1-4.118-4.727.3.3,0,0,0-.289-.317h-.013a.3.3,0,0,0-.3.29,5.148,5.148,0,0,0,4.668,5.358h.029" transform="translate(-167.768 -68.885)" fill="#25292b"/>
          <path id="Trazado_1274525" data-name="Trazado 1274525" d="M329.106,169.544a.3.3,0,0,0,.3-.3l.079-13.237a.3.3,0,0,0-.3-.305h0a.3.3,0,0,0-.3.3l-.076,12.772-5.481-2.456a.3.3,0,1,0-.248.553l5.905,2.647a.3.3,0,0,0,.124.027" transform="translate(-151.149 -61.25)" fill="#25292b"/>
          <path id="Trazado_1274526" data-name="Trazado 1274526" d="M297.684,162.165c6.007,0,10.894-6.1,10.894-13.592s-4.887-13.592-10.894-13.592-10.893,6.1-10.893,13.592,4.887,13.592,10.893,13.592m0-25.971c5.338,0,9.681,5.553,9.681,12.379s-4.343,12.379-9.681,12.379S288,155.4,288,148.573s4.342-12.379,9.68-12.379" transform="translate(-108.335 -53.099)" fill="#ffbd29"/>
          <path id="Trazado_1274527" data-name="Trazado 1274527" d="M334.914,153.99c6.007,0,10.894-6.1,10.894-13.592s-4.887-13.591-10.894-13.591-10.893,6.1-10.893,13.591,4.887,13.592,10.893,13.592m0-25.97c5.338,0,9.68,5.552,9.68,12.378s-4.343,12.379-9.68,12.379-9.68-5.553-9.68-12.379,4.342-12.378,9.68-12.378" transform="translate(-168.15 -49.884)" fill="#ffbd29"/>
          <path id="Trazado_1274528" data-name="Trazado 1274528" d="M366.706,142.661a.606.606,0,0,0,.118-1.2l-8.755-1.757a.607.607,0,0,0-.238,1.19l8.756,1.756a.575.575,0,0,0,.12.012" transform="translate(-209.868 -54.952)" fill="#ffbd29"/>
          <path id="Trazado_1274529" data-name="Trazado 1274529" d="M323.276,154.9a.607.607,0,0,0,.064-1.21l-2.086-.223a.606.606,0,1,0-.129,1.206l2.086.223a.588.588,0,0,0,.065,0" transform="translate(-144.139 -60.372)" fill="#ffbd29"/>
          <path id="Trazado_1274530" data-name="Trazado 1274530" d="M217.12,317.6h166.4V300.146l-44.265-12.4-7.856-51.266a28.692,28.692,0,0,0-18.824-22.718l-14.7-5.187.71,2.857a13.967,13.967,0,0,1-22.663,3.822l-8.887-9.124.54-2.214L229.4,205.356A28.693,28.693,0,0,0,204.1,231.616l-5.2,66.261A18.285,18.285,0,0,0,217.12,317.6" transform="translate(-129.916 -80.217)" fill="#ffbd29"/>
          <path id="Trazado_1274531" data-name="Trazado 1274531" d="M366.28,212.87l2.5,106.165H343.032l-8.3-111.467Z" transform="translate(-197.613 -81.653)" fill="#f2e9da"/>
          <path id="Trazado_1274532" data-name="Trazado 1274532" d="M359.428,228.5a.3.3,0,0,0,.19-.067c7.7-6.182,10.837-15.57,10.868-15.665a.3.3,0,0,0-.578-.188c-.029.092-3.078,9.2-10.526,15.264-1.43-.656-11.955-5.874-20.474-20.623a.3.3,0,1,0-.525.3c9.222,15.969,20.812,20.9,20.928,20.953a.309.309,0,0,0,.116.023" transform="translate(-201.53 -81.457)" fill="#25292b"/>
          <path id="Trazado_1274533" data-name="Trazado 1274533" d="M299.848,340.465a.3.3,0,0,0,.3-.274l2.7-28.175c.593-.94,6.519-10.469,7.418-16.922.926-6.652-7.082-32.509-7.423-33.606a.3.3,0,0,0-.58.18c.084.268,8.31,26.824,7.4,33.342s-7.3,16.641-7.369,16.743a.311.311,0,0,0-.046.134l-2.706,28.247a.3.3,0,0,0,.273.331h.03" transform="translate(-117.835 -102.78)" fill="#25292b"/>
          <path id="Trazado_1274534" data-name="Trazado 1274534" d="M403.454,289.814a.3.3,0,0,0,.279-.422c-.169-.4-16.925-39.76-17.008-55.87-.082-16.065,8.776-28.595,8.865-28.719a.3.3,0,0,0-.493-.354c-.091.126-9.063,12.809-8.979,29.077.084,16.231,16.888,55.707,17.057,56.1a.3.3,0,0,0,.279.184" transform="translate(-263.768 -80.376)" fill="#25292b"/>
          <path id="Trazado_1274535" data-name="Trazado 1274535" d="M317.156,292.482a.3.3,0,0,0,.288-.206c.088-.261,8.843-26.332,9.428-46.632.586-20.37-8.532-31.325-8.624-31.433a.3.3,0,0,0-.462.393c.09.107,9.059,10.9,8.479,31.022-.582,20.208-9.308,46.2-9.4,46.456a.3.3,0,0,0,.191.385.32.32,0,0,0,.1.016" transform="translate(-144.892 -84.224)" fill="#25292b"/>
          <path id="Trazado_1274536" data-name="Trazado 1274536" d="M272.641,350.1l30.776-1.939s5.567-.857,7.5,2.53c0,0,6.872-1.9,9.7,1.265a6.768,6.768,0,0,1,8.178,2.951c3.2,4.975,8.938,15.683,8.938,15.683h-33.9s-2.867,3.373-14.756,3.373-15.064-3.8-15.064-3.8Z" transform="translate(-128.909 -136.923)" fill="#f2e9da"/>
          <path id="Trazado_1274537" data-name="Trazado 1274537" d="M334.532,350.41h.019l27.429-1.728a.3.3,0,0,0,.284-.322.285.285,0,0,0-.321-.284L334.514,349.8a.3.3,0,0,0,.019.606" transform="translate(-190.799 -136.925)" fill="#25292b"/>
          <path id="Trazado_1274538" data-name="Trazado 1274538" d="M420.139,342.16h.023a.3.3,0,0,0,.28-.325l-1.952-26.2a.3.3,0,0,0-.279-.28l-40.894-3.2,7.034-46.222a.3.3,0,0,0-.6-.092l-7.083,46.544a.3.3,0,0,0,.276.348l40.959,3.2,1.933,25.943a.3.3,0,0,0,.3.281" transform="translate(-274.721 -104.475)" fill="#25292b"/>
          <path id="Trazado_1274539" data-name="Trazado 1274539" d="M396.311,373.74a.35.35,0,0,0,.056,0,.3.3,0,0,0,.243-.354L392,348.325a.3.3,0,0,0-.6.11l4.61,25.057a.3.3,0,0,0,.3.248" transform="translate(-259.83 -136.926)" fill="#25292b"/>
          <path id="Trazado_1274540" data-name="Trazado 1274540" d="M301.275,381.812c10.171,0,14.236-2.845,14.893-3.365h12.069c.107.013,3.341.317,5.09-1.265a3.323,3.323,0,0,0,1.08-2.58,4.139,4.139,0,0,0-3.02-4.217l-22.494-3.123a.309.309,0,0,0-.342.258.3.3,0,0,0,.259.342l22.47,3.119A3.49,3.49,0,0,1,333.8,374.6a2.741,2.741,0,0,1-.879,2.129c-1.548,1.4-4.622,1.113-4.653,1.111l-12.208,0a.3.3,0,0,0-.2.075c-.044.038-4.55,3.808-17.269,3.227a.29.29,0,0,0-.317.288.3.3,0,0,0,.288.317q1.423.066,2.713.064" transform="translate(-141.129 -144.472)" fill="#25292b"/>
          <path id="Trazado_1274541" data-name="Trazado 1274541" d="M306.94,372.4a.293.293,0,0,0,.072-.009.3.3,0,0,0,.223-.366l-.787-3.237a16.659,16.659,0,0,0-5.022-8.438l-9.248-8.377a.3.3,0,0,0-.408.449l9.248,8.377a16.066,16.066,0,0,1,4.84,8.132l.788,3.237a.3.3,0,0,0,.294.232" transform="translate(-109.961 -138.43)" fill="#25292b"/>
          <path id="Trazado_1274542" data-name="Trazado 1274542" d="M294.154,373.225a.3.3,0,0,0,.291-.389l-1.918-6.5a16.646,16.646,0,0,0-2.955-5.683l-5.214-6.552a.3.3,0,0,0-.476.378l5.215,6.552a16.028,16.028,0,0,1,2.848,5.477l1.919,6.5a.3.3,0,0,0,.291.217" transform="translate(-92.41 -139.25)" fill="#25292b"/>
          <rect id="Rectángulo_464715" data-name="Rectángulo 464715" width="136.062" height="4.722" transform="translate(175.211 233.671)" fill="#25292b"/>
          <path id="Trazado_1274543" data-name="Trazado 1274543" d="M147.087,336.647H53.76l30.331-74.875h93.326Z" transform="translate(164.186 -102.976)" fill="#25292b"/>
          <path id="Trazado_1274544" data-name="Trazado 1274544" d="M104.564,338.45h87.775a.3.3,0,1,0,0-.607h-87.32L134.946,266a.3.3,0,1,0-.561-.233l-30.1,72.261a.3.3,0,0,0,.28.42" transform="translate(118.327 -104.475)" fill="#f2e9da"/>
          <path id="Trazado_1274545" data-name="Trazado 1274545" d="M12.059,391.425H340.636a.3.3,0,0,0,0-.607H12.059a.3.3,0,0,0,0,.607" transform="translate(26.146 -153.74)" fill="#25292b"/>
          <path id="Trazado_1274546" data-name="Trazado 1274546" d="M402.386,73.819a18.743,18.743,0,0,1,21.007-16.512,24.542,24.542,0,0,1,23.2-15.924c12.642,0,23.112,9.13,24.447,21.274A19.891,19.891,0,0,1,486.069,81.6a19.114,19.114,0,0,1-5.174,13.024.294.294,0,0,1-.224.1H392.207a.3.3,0,0,1-.261-.146,13.574,13.574,0,0,1-1.984-7.067,13.8,13.8,0,0,1,12.424-13.685M392.376,94.111h88.16A18.494,18.494,0,0,0,485.463,81.6a19.3,19.3,0,0,0-14.777-18.4.3.3,0,0,1-.224-.261C469.26,50.992,459,41.99,446.6,41.99a23.919,23.919,0,0,0-22.712,15.748.307.307,0,0,1-.334.2,18.594,18.594,0,0,0-2.566-.176,17.864,17.864,0,0,0-18.011,16.355.3.3,0,0,1-.273.279A13.2,13.2,0,0,0,390.569,87.5a12.953,12.953,0,0,0,1.808,6.606" transform="translate(-348.413 -16.28)" fill="#25292b"/>
          <path id="Trazado_1274547" data-name="Trazado 1274547" d="M350.851,56.824a.3.3,0,0,0,.3-.3V54.235a.3.3,0,0,0-.607,0v2.286a.3.3,0,0,0,.3.3m0-5.926a.3.3,0,0,0,.3-.3v-3.64a.3.3,0,1,0-.607,0v3.64a.3.3,0,0,0,.3.3m-95.72-6.764a9.006,9.006,0,0,0,2.895-.468.3.3,0,1,0-.193-.574,8.374,8.374,0,0,1-2.676.436c-.282,0-.537-.012-.789-.035a.314.314,0,0,0-.329.275.3.3,0,0,0,.275.329q.4.036.818.037m34.8-.022a8.989,8.989,0,0,0,2.569-.372.3.3,0,1,0-.173-.582,8.454,8.454,0,0,1-3.475.278.3.3,0,0,0-.077.6,9.205,9.205,0,0,0,1.156.073m34.8,0a9.092,9.092,0,0,0,2.219-.269.3.3,0,1,0-.147-.588,8.659,8.659,0,0,1-3.486.132.309.309,0,0,0-.35.249.3.3,0,0,0,.249.349,9.154,9.154,0,0,0,1.515.127m26.11-.494a.3.3,0,0,0,.3-.3v-3.64a.3.3,0,0,0-.607,0v3.64a.3.3,0,0,0,.3.3m-99.962-.587a.3.3,0,0,0,.149-.568,8.385,8.385,0,0,1-2.624-2.3.3.3,0,1,0-.485.363,9,9,0,0,0,2.813,2.463.3.3,0,0,0,.148.038m34.521-.188a.3.3,0,0,0,.158-.562,8.491,8.491,0,0,1-2.535-2.394.3.3,0,0,0-.5.346,9.111,9.111,0,0,0,2.718,2.566.307.307,0,0,0,.158.044m34.509-.189a.3.3,0,0,0,.169-.556,8.494,8.494,0,0,1-2.437-2.493.3.3,0,0,0-.512.325,9.1,9.1,0,0,0,2.613,2.673.3.3,0,0,0,.168.051m10.21-.394a.3.3,0,0,0,.187-.065,8.957,8.957,0,0,0,2.4-2.866.3.3,0,0,0-.536-.285,8.485,8.485,0,0,1-2.238,2.673.3.3,0,0,0,.187.542m-34.539-.238a.3.3,0,0,0,.2-.073,8.968,8.968,0,0,0,2.274-2.966.3.3,0,1,0-.547-.261,8.362,8.362,0,0,1-2.121,2.766.3.3,0,0,0,.2.534m-34.552-.18a.3.3,0,0,0,.206-.079,8.974,8.974,0,0,0,2.169-3.043.3.3,0,0,0-.557-.241,8.335,8.335,0,0,1-2.023,2.838.3.3,0,0,0,.206.527m-14.386-4.467a.316.316,0,0,0,.067-.007.3.3,0,0,0,.229-.363,8.5,8.5,0,0,1-.208-1.869V33.449a.3.3,0,1,0-.607,0v1.688a9.047,9.047,0,0,0,.224,2,.3.3,0,0,0,.3.236m34.738-.345a.3.3,0,0,0,.3-.359,8.521,8.521,0,0,1-.144-1.557V33.1a.3.3,0,0,0-.607,0v2.017a9.1,9.1,0,0,0,.155,1.668.3.3,0,0,0,.3.248m34.747-.346a.344.344,0,0,0,.044,0,.3.3,0,0,0,.257-.344,8.6,8.6,0,0,1-.088-1.223V32.746a.3.3,0,1,0-.607,0v2.368a9.2,9.2,0,0,0,.094,1.31.3.3,0,0,0,.3.26m34.715-.345a.3.3,0,0,0,.3-.3V32.4a.3.3,0,0,0-.607,0v3.64a.3.3,0,0,0,.3.3m-17.41-.32a.3.3,0,0,0,.3-.283c.014-.206.021-.412.021-.622V32.077a.3.3,0,1,0-.607,0v3.038c0,.2-.007.388-.02.581a.3.3,0,0,0,.281.323h.022m-34.813-.375a.3.3,0,0,0,.3-.3l0-.233V31.7a.3.3,0,1,0-.607,0l0,3.632a.3.3,0,0,0,.3.311Zm-34.776-.283a.3.3,0,0,0,.3-.3v-3.64a.3.3,0,0,0-.607,0v3.64a.3.3,0,0,0,.3.3m-17.416-5.249a.3.3,0,0,0,.3-.3v-3.64a.3.3,0,1,0-.607,0v3.64a.3.3,0,0,0,.3.3m34.8-.351a.3.3,0,0,0,.3-.3v-3.64a.3.3,0,0,0-.607,0v3.64a.3.3,0,0,0,.3.3m34.8-.351a.3.3,0,0,0,.3-.3v-3.64a.3.3,0,1,0-.607,0v3.64a.3.3,0,0,0,.3.3m34.8-.35a.3.3,0,0,0,.3-.3v-3.64a.3.3,0,0,0-.607,0v3.64a.3.3,0,0,0,.3.3m-17.39-.32a.3.3,0,0,0,.3-.3V24.8a.3.3,0,1,0-.607,0v3.64a.3.3,0,0,0,.3.3m-34.83-.376a.3.3,0,0,0,.3-.3v-3.64a.3.3,0,1,0-.607,0v3.64a.3.3,0,0,0,.3.3m-34.779-.283a.3.3,0,0,0,.3-.3v-3.64a.3.3,0,0,0-.607,0v3.64a.3.3,0,0,0,.3.3m-34.83-.375a.3.3,0,0,0,.3-.3v-3.64a.3.3,0,1,0-.607,0V27.4a.3.3,0,0,0,.3.3m17.415-4.874a.3.3,0,0,0,.3-.3V18.89a.3.3,0,1,0-.607,0v3.64a.3.3,0,0,0,.3.3m34.8-.351a.3.3,0,0,0,.3-.3v-3.64a.3.3,0,0,0-.607,0v3.64a.3.3,0,0,0,.3.3m34.8-.351a.3.3,0,0,0,.3-.3v-3.64a.3.3,0,1,0-.607,0v3.64a.3.3,0,0,0,.3.3m34.8-.35a.3.3,0,0,0,.3-.3v-3.64a.3.3,0,0,0-.607,0v3.64a.3.3,0,0,0,.3.3m-17.39-.32a.3.3,0,0,0,.3-.3v-3.64a.3.3,0,1,0-.607,0v3.64a.3.3,0,0,0,.3.3m-34.83-.375a.3.3,0,0,0,.3-.3v-3.64a.3.3,0,1,0-.607,0v3.64a.3.3,0,0,0,.3.3M263.852,20.8a.3.3,0,0,0,.3-.3v-3.64a.3.3,0,0,0-.607,0V20.5a.3.3,0,0,0,.3.3m-34.83-.375a.3.3,0,0,0,.3-.3v-3.64a.3.3,0,1,0-.607,0v3.64a.3.3,0,0,0,.3.3m17.415-4.874a.3.3,0,0,0,.3-.3v-.266a8.95,8.95,0,0,0-.666-3.4.3.3,0,1,0-.562.23,8.349,8.349,0,0,1,.621,3.174v.266a.3.3,0,0,0,.3.3m34.8-.351h0a.3.3,0,0,0,.3-.306,8.93,8.93,0,0,0-.81-3.649.3.3,0,0,0-.552.252,8.333,8.333,0,0,1,.755,3.4.3.3,0,0,0,.3.3m34.8-.351h.015a.3.3,0,0,0,.288-.317,8.9,8.9,0,0,0-.948-3.617.3.3,0,0,0-.542.274,8.309,8.309,0,0,1,.884,3.372.3.3,0,0,0,.3.289m34.781-.35h.027a.3.3,0,0,0,.276-.328,8.89,8.89,0,0,0-1.094-3.575.3.3,0,1,0-.53.295,8.27,8.27,0,0,1,1.02,3.332.3.3,0,0,0,.3.277m-17.289-.317a.3.3,0,0,0,.3-.266,8.289,8.289,0,0,1,1.142-3.293.3.3,0,0,0-.519-.314,8.893,8.893,0,0,0-1.225,3.532.3.3,0,0,0,.264.338.262.262,0,0,0,.038,0m-34.776-.371a.3.3,0,0,0,.3-.253,8.293,8.293,0,0,1,1.284-3.24.3.3,0,1,0-.5-.337,8.9,8.9,0,0,0-1.377,3.476.3.3,0,0,0,.249.35.361.361,0,0,0,.051,0m-34.723-.277a.3.3,0,0,0,.3-.242,8.3,8.3,0,0,1,1.4-3.194.3.3,0,0,0-.493-.353,8.889,8.889,0,0,0-1.5,3.426.3.3,0,0,0,.237.359.355.355,0,0,0,.062.005M229.28,13.17a.3.3,0,0,0,.295-.23,8.3,8.3,0,0,1,1.534-3.13.3.3,0,1,0-.477-.374,8.9,8.9,0,0,0-1.646,3.358.3.3,0,0,0,.294.377m14.48-4.158a.3.3,0,0,0,.209-.522,8.947,8.947,0,0,0-3.175-1.973.3.3,0,1,0-.206.571,8.342,8.342,0,0,1,2.962,1.84.3.3,0,0,0,.21.084m34.547-.237a.3.3,0,0,0,.2-.53A8.914,8.914,0,0,0,275.256,6.4a.3.3,0,1,0-.183.578A8.312,8.312,0,0,1,278.106,8.7a.3.3,0,0,0,.2.076m34.554-.236a.3.3,0,0,0,.234-.111A.3.3,0,0,0,313.054,8a8.92,8.92,0,0,0-3.321-1.718.3.3,0,1,0-.16.585,8.306,8.306,0,0,1,3.095,1.6.3.3,0,0,0,.193.069m34.53-.216a.3.3,0,0,0,.183-.546,8.925,8.925,0,0,0-3.387-1.583.3.3,0,0,0-.136.591,8.3,8.3,0,0,1,3.158,1.477.308.308,0,0,0,.183.061M337.18,8.134a.3.3,0,0,0,.173-.055,8.3,8.3,0,0,1,3.211-1.358.3.3,0,0,0-.115-.6,8.9,8.9,0,0,0-3.443,1.457.3.3,0,0,0,.174.552m-34.519-.209a.3.3,0,0,0,.163-.047,8.291,8.291,0,0,1,3.265-1.217.3.3,0,0,0,.255-.345A.308.308,0,0,0,306,6.06a8.9,8.9,0,0,0-3.5,1.306.3.3,0,0,0,.163.559m-34.52-.137a.3.3,0,0,0,.154-.042,8.306,8.306,0,0,1,3.306-1.1.3.3,0,0,0,.268-.335.307.307,0,0,0-.335-.268,8.9,8.9,0,0,0-3.547,1.182.3.3,0,0,0,.154.565m-34.5-.183a.3.3,0,0,0,.142-.036,8.317,8.317,0,0,1,3.352-.957.3.3,0,0,0,.282-.323.3.3,0,0,0-.324-.282A8.908,8.908,0,0,0,233.5,7.035a.3.3,0,0,0,.142.571" transform="translate(-115.684 -2.363)" fill="#25292b"/>
          <path id="Trazado_1274548" data-name="Trazado 1274548" d="M458.791,164.212a.3.3,0,0,0,.3-.3v-3.64a.3.3,0,0,0-.607,0v3.64a.3.3,0,0,0,.3.3m0-7.279a.3.3,0,0,0,.3-.3v-3.64a.3.3,0,1,0-.607,0v3.64a.3.3,0,0,0,.3.3m0-7.279a.3.3,0,0,0,.3-.3v-3.64a.3.3,0,0,0-.607,0v3.64a.3.3,0,0,0,.3.3m0-7.279a.3.3,0,0,0,.3-.3v-3.64a.3.3,0,0,0-.607,0v3.64a.3.3,0,0,0,.3.3m0-7.279a.3.3,0,0,0,.3-.3v-3.64a.3.3,0,0,0-.607,0v3.64a.3.3,0,0,0,.3.3" transform="translate(-363.007 -51.473)" fill="#25292b"/>
          <rect id="Rectángulo_464716" data-name="Rectángulo 464716" width="75.887" height="46.934" transform="translate(290.346 105.346)" fill="#f2e9da"/>
          <rect id="Rectángulo_464717" data-name="Rectángulo 464717" width="70.827" height="9.866" transform="translate(292.875 107.04)" fill="#ffbd29"/>
          <path id="Trazado_1274549" data-name="Trazado 1274549" d="M106.443,185.763a.422.422,0,0,0,.264-.093l3.687-2.945a.424.424,0,0,0,0-.663l-3.64-2.908a.425.425,0,0,0-.53.664l3.224,2.576-3.272,2.613a.424.424,0,0,0,.265.756" transform="translate(199.35 -70.44)" fill="#f2e9da"/>
          <path id="Trazado_1274550" data-name="Trazado 1274550" d="M125.514,185.763a.424.424,0,0,0,.265-.756l-3.272-2.613,3.224-2.576a.425.425,0,0,0-.53-.664l-3.64,2.908a.424.424,0,0,0,0,.663l3.687,2.945a.422.422,0,0,0,.264.093" transform="translate(174.632 -70.44)" fill="#f2e9da"/>
          <path id="Trazado_1274551" data-name="Trazado 1274551" d="M117.939,186.034a.425.425,0,0,0,.463-.545l-2.282-7.417a.425.425,0,0,0-.812.249l2.282,7.417a.425.425,0,0,0,.349.3" transform="translate(185.858 -69.932)" fill="#f2e9da"/>
          <rect id="Rectángulo_464718" data-name="Rectángulo 464718" width="38.075" height="3.12" transform="translate(325.627 123.735)" fill="#ffa727"/>
          <rect id="Rectángulo_464719" data-name="Rectángulo 464719" width="18.532" height="3.12" transform="translate(305.367 123.735)" fill="#ffbd29"/>
          <rect id="Rectángulo_464720" data-name="Rectángulo 464720" width="10.588" height="3.12" transform="translate(292.875 123.735)" fill="#25292b"/>
          <path id="Trazado_1274552" data-name="Trazado 1274552" d="M91.48,218.771h25.943v-3.12H91.48" transform="translate(201.299 -84.833)" fill="#ffa727"/>
          <rect id="Rectángulo_464721" data-name="Rectángulo 464721" width="18.532" height="3.12" transform="translate(320.451 130.819)" fill="#ffbd29"/>
          <path id="Trazado_1274553" data-name="Trazado 1274553" d="M40.21,215.652H17.489v3.12H40.21" transform="translate(323.397 -84.833)" fill="#25292b"/>
          <rect id="Rectángulo_464722" data-name="Rectángulo 464722" width="13.81" height="3.12" transform="translate(349.796 138.491)" fill="#ffbd29"/>
          <rect id="Rectángulo_464723" data-name="Rectángulo 464723" width="38.55" height="3.12" transform="translate(309.517 138.491)" fill="#ffa727"/>
          <rect id="Rectángulo_464724" data-name="Rectángulo 464724" width="14.834" height="3.12" transform="translate(292.78 138.491)" fill="#25292b"/>
          <path id="Trazado_1274554" data-name="Trazado 1274554" d="M115.638,243.1h11.384v-3.12H115.638" transform="translate(177.045 -94.402)" fill="#ffa727"/>
          <rect id="Rectángulo_464725" data-name="Rectángulo 464725" width="33.091" height="3.12" transform="translate(305.796 145.574)" fill="#ffbd29"/>
          <path id="Trazado_1274555" data-name="Trazado 1274555" d="M40.368,239.976H17.648v3.12h22.72" transform="translate(323.143 -94.402)" fill="#25292b"/>
          <path id="Trazado_1274556" data-name="Trazado 1274556" d="M86.385,113.127V126.9a7.3,7.3,0,0,1-7.279,7.279H65.954L55.139,144.356,56.7,134.183H19.535a7.3,7.3,0,0,1-7.279-7.279V113.127a7.3,7.3,0,0,1,7.279-7.279h59.57a7.3,7.3,0,0,1,7.279,7.279" transform="translate(280.396 -41.639)" fill="#ffa727"/>
          <path id="Trazado_1274557" data-name="Trazado 1274557" d="M102.969,120.725a8.425,8.425,0,0,0-3.312-2.3,21.448,21.448,0,0,1-3.048-1.564,1.22,1.22,0,0,1-.561-.972,1.031,1.031,0,0,1,.441-.846,2.333,2.333,0,0,1,1.414-.34,11.066,11.066,0,0,1,4.467,1.186l1.527-3.849a14.309,14.309,0,0,0-5.843-1.325,8.177,8.177,0,0,0-5.1,1.426,4.73,4.73,0,0,0-1.855,3.975,5.871,5.871,0,0,0,.435,2.36,4.887,4.887,0,0,0,1.338,1.766,11.767,11.767,0,0,0,2.706,1.59q1.995.9,2.455,1.186a2.441,2.441,0,0,1,.669.574,1.093,1.093,0,0,1,.208.662,1.185,1.185,0,0,1-.517.991,2.746,2.746,0,0,1-1.628.385,11.037,11.037,0,0,1-2.826-.41,14.853,14.853,0,0,1-2.966-1.142v4.442a11.455,11.455,0,0,0,2.6.9,15.594,15.594,0,0,0,3.092.258,9.315,9.315,0,0,0,3.85-.738,5.71,5.71,0,0,0,2.511-2.07,5.447,5.447,0,0,0,.87-3.048,5,5,0,0,0-.928-3.1" transform="translate(215.131 -43.552)" fill="#f2e9da"/>
          <path id="Trazado_1274558" data-name="Trazado 1274558" d="M72.636,113.08q-2.271-2.41-6.675-2.41t-6.695,2.43q-2.3,2.429-2.3,7.035,0,4.656,2.315,7.092a8.749,8.749,0,0,0,6.656,2.436l.013.013v.013l.013.012,3.256,4.1h6.209l-4.505-5.187q3.987-2.183,3.988-8.455,0-4.668-2.272-7.079m-6.675,1.679a3.165,3.165,0,0,1,2.77,1.319,9.437,9.437,0,0,1,.013,8.133,3.2,3.2,0,0,1-2.808,1.3q-3.723,0-3.722-5.351,0-5.4,3.748-5.4" transform="translate(264.236 -43.536)" fill="#f2e9da"/>
          <path id="Trazado_1274559" data-name="Trazado 1274559" d="M44.485,129.6v-4.026h-7.1V111.148H32.4V129.6Z" transform="translate(310.079 -43.724)" fill="#f2e9da"/>
          <rect id="Rectángulo_464726" data-name="Rectángulo 464726" width="75.887" height="93.77" transform="translate(209.821 58.511)" fill="#f2e9da"/>
          <rect id="Rectángulo_464727" data-name="Rectángulo 464727" width="70.827" height="9.866" transform="translate(212.351 60.205)" fill="#ffbd29"/>
          <path id="Trazado_1274560" data-name="Trazado 1274560" d="M239.187,108.556a.422.422,0,0,0,.264-.093l3.687-2.945a.424.424,0,0,0,0-.663l-3.64-2.908a.425.425,0,0,0-.53.664l3.224,2.576-3.272,2.613a.424.424,0,0,0,.265.756" transform="translate(-13.92 -40.068)" fill="#f2e9da"/>
          <path id="Trazado_1274561" data-name="Trazado 1274561" d="M258.258,108.556a.424.424,0,0,0,.265-.756l-3.272-2.613,3.224-2.576a.425.425,0,0,0-.53-.664l-3.64,2.908a.424.424,0,0,0,0,.663l3.687,2.945a.422.422,0,0,0,.264.093" transform="translate(-38.638 -40.068)" fill="#f2e9da"/>
          <path id="Trazado_1274562" data-name="Trazado 1274562" d="M250.683,108.828a.425.425,0,0,0,.463-.545l-2.281-7.417a.425.425,0,0,0-.812.249l2.282,7.417a.425.425,0,0,0,.349.3" transform="translate(-27.411 -39.561)" fill="#f2e9da"/>
          <rect id="Rectángulo_464728" data-name="Rectángulo 464728" width="29.881" height="3.12" transform="translate(240.709 129.27)" fill="#ffbd29"/>
          <rect id="Rectángulo_464729" data-name="Rectángulo 464729" width="10.588" height="3.12" transform="translate(272.493 129.27)" fill="#25292b"/>
          <path id="Trazado_1274563" data-name="Trazado 1274563" d="M176.017,201.423H150.075v3.12h25.943" transform="translate(107.16 -79.236)" fill="#25292b"/>
          <rect id="Rectángulo_464730" data-name="Rectángulo 464730" width="18.532" height="3.12" transform="translate(236.974 122.187)" fill="#ffbd29"/>
          <path id="Trazado_1274564" data-name="Trazado 1274564" d="M229.377,204.543H252.1v-3.12h-22.72" transform="translate(-17.027 -79.236)" fill="#ffa727"/>
          <rect id="Rectángulo_464731" data-name="Rectángulo 464731" width="13.81" height="3.12" transform="translate(212.351 114.515)" fill="#ffbd29"/>
          <rect id="Rectángulo_464732" data-name="Rectángulo 464732" width="38.55" height="3.12" transform="translate(227.889 114.515)" fill="#ffa727"/>
          <rect id="Rectángulo_464733" data-name="Rectángulo 464733" width="14.834" height="3.12" transform="translate(268.343 114.515)" fill="#25292b"/>
          <rect id="Rectángulo_464734" data-name="Rectángulo 464734" width="9.17" height="3.12" transform="translate(237.07 107.432)" fill="#ffbd29"/>
          <path id="Trazado_1274565" data-name="Trazado 1274565" d="M229.219,180.219h22.72V177.1h-22.72" transform="translate(-16.773 -69.667)" fill="#25292b"/>
          <rect id="Rectángulo_464735" data-name="Rectángulo 464735" width="34.082" height="3.12" transform="translate(212.158 98.739)" fill="#ffa727"/>
          <rect id="Rectángulo_464736" data-name="Rectángulo 464736" width="9.362" height="3.12" transform="translate(236.878 91.656)" fill="#25292b"/>
          <path id="Trazado_1274566" data-name="Trazado 1274566" d="M229.536,154.213h22.72l.039-3.12h-22.72" transform="translate(-17.321 -59.437)" fill="#ffbd29"/>
          <rect id="Rectángulo_464737" data-name="Rectángulo 464737" width="13.81" height="3.12" transform="translate(212.255 83.983)" fill="#ffbd29"/>
          <rect id="Rectángulo_464738" data-name="Rectángulo 464738" width="18.447" height="3.12" transform="translate(227.793 83.983)" fill="#ffa727"/>
          <rect id="Rectángulo_464739" data-name="Rectángulo 464739" width="9.266" height="3.12" transform="translate(236.974 76.9)" fill="#ffbd29"/>
          <path id="Trazado_1274567" data-name="Trazado 1274567" d="M229.377,129.889H252.1v-3.12h-22.72" transform="translate(-17.027 -49.869)" fill="#25292b"/>
          <path id="Trazado_1274568" data-name="Trazado 1274568" d="M175.729,237.947H149.787v3.12h25.943" transform="translate(107.623 -93.604)" fill="#ffa727"/>
          <rect id="Rectángulo_464740" data-name="Rectángulo 464740" width="14.972" height="3.12" transform="translate(240.709 144.343)" fill="#25292b"/>
          <rect id="Rectángulo_464741" data-name="Rectángulo 464741" width="14.834" height="3.12" transform="translate(268.518 136.671)" fill="#25292b"/>
          <path id="Trazado_1274569" data-name="Trazado 1274569" d="M226.152,218.393v25.678a1.486,1.486,0,0,0,1.48,1.48h26.71a1.487,1.487,0,0,0,1.486-1.48V218.393a1.487,1.487,0,0,0-1.486-1.48h-26.71a1.486,1.486,0,0,0-1.48,1.48" transform="translate(-18.801 -85.329)" fill="#ffa727"/>
          <path id="Trazado_1274570" data-name="Trazado 1274570" d="M177.31,228.419h25.947V225.3H177.31" transform="translate(63.399 -88.628)" fill="#ffa727"/>
          <path id="Trazado_1274571" data-name="Trazado 1274571" d="M231.6,243.566h23.542a1.182,1.182,0,0,0,1.181-1.18V221.475a1.182,1.182,0,0,0-1.181-1.18H231.6a1.182,1.182,0,0,0-1.18,1.18v20.911a1.182,1.182,0,0,0,1.18,1.18M255.147,220.9a.574.574,0,0,1,.574.573v20.911a.574.574,0,0,1-.574.573H231.6a.574.574,0,0,1-.573-.573V221.475a.574.574,0,0,1,.573-.573Z" transform="translate(-21.892 -86.66)" fill="#f2e9da"/>
          <path id="Trazado_1274572" data-name="Trazado 1274572" d="M234.923,241.7a.578.578,0,0,0,.405-.175l5.645-5.561a.925.925,0,0,0,0-1.253l-5.572-5.49a.571.571,0,0,0-.913.126.932.932,0,0,0,.1,1.126l4.936,4.864-5.009,4.935a.932.932,0,0,0-.1,1.126.611.611,0,0,0,.508.3" transform="translate(-9.117 -90.102)" fill="#f2e9da"/>
          <path id="Trazado_1274573" data-name="Trazado 1274573" d="M264.121,241.7a.611.611,0,0,0,.508-.3.932.932,0,0,0-.1-1.126l-5.009-4.935,4.937-4.864a.933.933,0,0,0,.1-1.126.571.571,0,0,0-.913-.126l-5.572,5.49a.925.925,0,0,0,0,1.253l5.645,5.561a.578.578,0,0,0,.405.175" transform="translate(-46.959 -90.102)" fill="#f2e9da"/>
          <path id="Trazado_1274574" data-name="Trazado 1274574" d="M252.525,242.212a.527.527,0,0,0,.278-.029.847.847,0,0,0,.43-1l-3.493-14.006a.638.638,0,0,0-.812-.531.848.848,0,0,0-.43,1l3.493,14.006a.707.707,0,0,0,.534.559" transform="translate(-29.773 -89.144)" fill="#f2e9da"/>
          <rect id="Rectángulo_464742" data-name="Rectángulo 464742" width="33.952" height="9.893" transform="translate(249.033 75.052)" fill="#ffbd29"/>
          <rect id="Rectángulo_464743" data-name="Rectángulo 464743" width="33.952" height="9.893" transform="translate(249.033 88.023)" fill="#ffbd29"/>
          <rect id="Rectángulo_464744" data-name="Rectángulo 464744" width="33.952" height="9.893" transform="translate(249.033 100.839)" fill="#ffbd29"/>
          <path id="Trazado_1274575" data-name="Trazado 1274575" d="M156.4,142.908h26.661v-2H156.4Zm26.054-.607H157.008v-.784h25.448Z" transform="translate(96.278 -55.431)" fill="#25292b"/>
          <path id="Trazado_1274576" data-name="Trazado 1274576" d="M156.4,164.352h26.661v-2H156.4Zm26.054-.607H157.008v-.784h25.448Z" transform="translate(96.278 -63.867)" fill="#25292b"/>
          <path id="Trazado_1274577" data-name="Trazado 1274577" d="M156.214,132.991a2.643,2.643,0,1,0-2.643-2.643,2.646,2.646,0,0,0,2.643,2.643m0-4.679a2.036,2.036,0,1,1-2.036,2.036,2.038,2.038,0,0,1,2.036-2.036" transform="translate(122.199 -50.237)" fill="#25292b"/>
          <path id="Trazado_1274578" data-name="Trazado 1274578" d="M156.214,153.56a2.643,2.643,0,1,0-2.643-2.643,2.646,2.646,0,0,0,2.643,2.643m0-4.68a2.036,2.036,0,1,1-2.036,2.036,2.038,2.038,0,0,1,2.036-2.036" transform="translate(122.199 -58.328)" fill="#25292b"/>
          <path id="Trazado_1274579" data-name="Trazado 1274579" d="M156.214,175.782a2.643,2.643,0,1,0-2.643-2.643,2.646,2.646,0,0,0,2.643,2.643m0-4.679a2.036,2.036,0,1,1-2.036,2.036,2.038,2.038,0,0,1,2.036-2.036" transform="translate(122.199 -67.07)" fill="#25292b"/>
          <path id="Trazado_1274580" data-name="Trazado 1274580" d="M179.837,131.31A1.159,1.159,0,1,0,181,130.151a1.159,1.159,0,0,0-1.159,1.159" transform="translate(82.967 -51.199)" fill="#f2e9da"/>
          <path id="Trazado_1274581" data-name="Trazado 1274581" d="M198.613,131.31a1.159,1.159,0,1,0,1.159-1.159,1.159,1.159,0,0,0-1.159,1.159" transform="translate(52.802 -51.199)" fill="#f2e9da"/>
          <path id="Trazado_1274582" data-name="Trazado 1274582" d="M189.522,131.31a1.159,1.159,0,1,0,1.159-1.159,1.159,1.159,0,0,0-1.159,1.159" transform="translate(67.407 -51.199)" fill="#f2e9da"/>
          <path id="Trazado_1274583" data-name="Trazado 1274583" d="M179.837,152.507A1.159,1.159,0,1,0,181,151.348a1.159,1.159,0,0,0-1.159,1.159" transform="translate(82.967 -59.538)" fill="#f2e9da"/>
          <path id="Trazado_1274584" data-name="Trazado 1274584" d="M198.613,152.507a1.159,1.159,0,1,0,1.159-1.159,1.159,1.159,0,0,0-1.159,1.159" transform="translate(52.802 -59.538)" fill="#f2e9da"/>
          <path id="Trazado_1274585" data-name="Trazado 1274585" d="M189.522,152.507a1.159,1.159,0,1,0,1.159-1.159,1.159,1.159,0,0,0-1.159,1.159" transform="translate(67.407 -59.538)" fill="#f2e9da"/>
          <path id="Trazado_1274586" data-name="Trazado 1274586" d="M179.837,174.1A1.159,1.159,0,1,0,181,172.943a1.159,1.159,0,0,0-1.159,1.159" transform="translate(82.967 -68.033)" fill="#f2e9da"/>
          <path id="Trazado_1274587" data-name="Trazado 1274587" d="M198.613,174.1a1.159,1.159,0,1,0,1.159-1.159,1.159,1.159,0,0,0-1.159,1.159" transform="translate(52.802 -68.033)" fill="#f2e9da"/>
          <path id="Trazado_1274588" data-name="Trazado 1274588" d="M189.522,174.1a1.159,1.159,0,1,0,1.159-1.159,1.159,1.159,0,0,0-1.159,1.159" transform="translate(67.407 -68.033)" fill="#f2e9da"/>
        </g>
      </g>
    </g>
  </g>
</svg>
