<svg xmlns="http://www.w3.org/2000/svg" xmlns:xlink="http://www.w3.org/1999/xlink" width="85" height="85" viewBox="0 0 85 85">
  <defs>
    <clipPath id="clip-path">
      <rect id="Rectángulo_464969" data-name="Rectángulo 464969" width="69.069" height="69.067" fill="#344866"/>
    </clipPath>
  </defs>
  <g id="Grupo_1212386" data-name="Grupo 1212386" transform="translate(-290 -12652.711)">
    <g id="Grupo_1209820" data-name="Grupo 1209820" transform="translate(110.266 7131.869)">
      <rect id="Rectángulo_402006" data-name="Rectángulo 402006" width="85" height="85" rx="5" transform="translate(179.734 5520.842)" fill="#69d7e5"/>
      <g id="Grupo_1212065" data-name="Grupo 1212065" transform="translate(187.7 5528.808)">
        <g id="Grupo_1212064" data-name="Grupo 1212064" clip-path="url(#clip-path)">
          <path id="Trazado_1284048" data-name="Trazado 1284048" d="M188.927,53.021a1.232,1.232,0,0,1-1,.569,1.043,1.043,0,0,1-.95-.5L184.464,49.4a1.314,1.314,0,0,1-.2-1.307,1.074,1.074,0,0,1,1.21-.581c.568.056.727.61,1.279,1.2l.053-19.369-22.8-.006a1.132,1.132,0,0,1-1.164-1.046,1.093,1.093,0,0,1,1.175-1.2l23.787,0a1.108,1.108,0,0,1,1.216,1.1l.038,20.392c.373-.191.508-.637.884-.887a1.169,1.169,0,0,1,1.37.041A1.111,1.111,0,0,1,191.5,49.2Z" transform="translate(-126.561 -21.06)" fill="#344866"/>
          <path id="Trazado_1284049" data-name="Trazado 1284049" d="M209.915,200.55a9.33,9.33,0,1,1-9.33-9.33,9.33,9.33,0,0,1,9.33,9.33m-2.235,0a7.1,7.1,0,1,0-7.1,7.1,7.1,7.1,0,0,0,7.1-7.1" transform="translate(-148.645 -148.618)" fill="#344866"/>
          <path id="Trazado_1284050" data-name="Trazado 1284050" d="M55.987,66.25c-.69,1.161-.56,2.818-2.06,2.817l-4.027,0c-1.449,0-1.353-1.814-2.034-2.832a19.792,19.792,0,0,1-3.134-1.31c-1.3.267-2.407,1.617-3.484.544l-2.785-2.776c-1.309-1.3.7-2.8.389-3.563l-1.093-2.68c-5.04.374-13.736-.188-18.086-2.825-.933-.566-2.345-1.513-2.355-2.75l-.133-16.581c-1.026-.129-2.23.309-2.952-.37-.663-.624-.625-1.7-1.159-2.439a30.278,30.278,0,0,1-3.127-1.366c-1.173.17-2.441,1.594-3.445.592L3.495,27.7c-.917-.916.439-2.235.644-3.373a18.989,18.989,0,0,1-1.3-3.129c-1.03-.7-2.829-.575-2.83-2.037L0,15.138c0-1.54,1.708-1.366,2.8-2.06A24.927,24.927,0,0,1,4.154,9.871c-.363-1.331-1.593-2.4-.581-3.416L6.466,3.566a1.127,1.127,0,0,1,1.256-.342l2.154.922a23.247,23.247,0,0,1,3.21-1.332C13.8,1.595,13.621.006,15.145,0l4.027,0c1.45,0,1.344,1.756,2.039,2.856,1.134.223,2.061.882,3.138,1.2,1.251-.005,2.314-1.63,3.479-.467l2.78,2.775C31.9,7.66,29.988,9,30.219,9.93s.8,1.693,1.094,2.68c5.128-.322,13.812.167,18.237,2.918.871.541,2.2,1.478,2.2,2.648L51.882,34.7c1.686.4,2.769-.63,3.488,1.314.99,2.677.356,1.046,3.747,2.932,1.183-.2,2.474-1.57,3.451-.595l3.009,3a1.129,1.129,0,0,1,.229,1.263l-.885,2.018a24.375,24.375,0,0,1,1.312,3.22c1.067.7,2.833.591,2.834,2.035l0,4.029c0,1.525-1.662,1.355-2.8,2.061a24.969,24.969,0,0,1-1.351,3.2c.363,1.338,1.593,2.4.579,3.416l-2.887,2.89c-1.144,1.145-2.321-.568-3.49-.475-1.074.359-2.026.933-3.134,1.236m-37.5-34.41c.661-.544.458-1.844,1.155-2.195a35.5,35.5,0,0,0,4.6-2c.885.1,1.606.948,2.431.815.76-.266,1.285-1.227,1.911-1.747l-.906-2.59A21.143,21.143,0,0,0,29.6,19.605l2.277-1.135a3.606,3.606,0,0,0-.017-2.674c-.435-.7-1.911-.442-2.245-1.263a27.118,27.118,0,0,0-1.973-4.5l.941-2.461A20.321,20.321,0,0,0,26.7,5.659a6.16,6.16,0,0,0-1.531.625c-1.264.625-5.72-2.075-5.5-1.677L18.448,2.381c-.778-.4-1.932-.09-2.726-.081-.473.69-.442,1.839-1.108,2.313-4.072,1.166-3.743,2.791-6.9,1.042A6.852,6.852,0,0,0,5.67,7.7c.151.78,1.1,1.7.769,2.483L4.605,14.589c-.311.762-1.822.524-2.185,1.182a3.525,3.525,0,0,0,.016,2.719c.438.632,1.79.429,2.179,1.163.593,1.117.721,2.438,1.455,3.506,1.094,1.59-.244,2.213-.36,3.518a6.5,6.5,0,0,0,1.892,1.8c.833.1,1.541-.713,2.439-.824a29.943,29.943,0,0,0,4.5,1.964c.81.329.569,1.809,1.257,2.241a3.22,3.22,0,0,0,2.688-.012M48.964,19.791a1.386,1.386,0,0,0,.631-1,1.375,1.375,0,0,0-.608-.966c-3.5-2.583-10.314-3.017-14.667-3.1l-.114,4.817c-.033,1.383-3.375.59-3.166,3.191,4.869.369,13.972,0,17.923-2.946M21.82,31.3c6.421,2.694,19.289,2.787,25.805-.162.565-.459,1.812-.8,1.894-1.635.239-2.447.051-4.838.065-7.353C44.2,24.973,36.312,25.4,30.457,24.93c-.1.669,1.171,1.891.336,2.726l-3.12,3.122a1.276,1.276,0,0,1-1.368.163c-2.109-.6-.666-1.509-4.485.355M41.4,38.262c.8-.846,2.394.523,3.341.692.972-.637,2.082-.824,3.073-1.384.393-.245.564-1.093.677-1.512.462-1.726,1.533-.227,1.023-3.4-7.169,3.848-21.76,3.713-28.942.531-.207.524-.8.824-1.114,1.2.206,1.833-.4,3.963.215,5.731,2.25,3.563,15.063,4.09,18.828,3.482-1.442-2.077.72-3.032,2.9-5.347m13.12,26.172c1.549-.6,2.93-1.149,4.369-1.81.768-.352,1.7.6,2.476.79a7.271,7.271,0,0,0,2.037-2.06c-.163-.788-1.134-1.718-.764-2.511.688-1.473,1.243-2.908,1.821-4.383.352-.745,1.82-.53,2.194-1.186a3.545,3.545,0,0,0-.021-2.719c-.422-.624-1.856-.412-2.181-1.15-1.243-4.252-2.757-3.6-1.052-6.925a10.328,10.328,0,0,0-1.905-2l-2.459.927a23.143,23.143,0,0,0-4.667-1.953l-1.038-2.383c-.843.021-2.031-.321-2.759.133-.595.423-.429,1.817-1.139,2.208a34.864,34.864,0,0,0-4.6,2c-.9-.112-1.585-.938-2.459-.81A4.754,4.754,0,0,0,40.6,42.365c-.143.86.72,1.566.795,2.451a24.343,24.343,0,0,0-1.92,4.656l-2.338,1.081c-.062.824-.448,2.142.135,2.8.51.574,1.862.4,2.179,1.171A26.319,26.319,0,0,0,41.424,59l-.939,2.492a10.32,10.32,0,0,0,2.007,1.9c.771-.072,1.693-1.13,2.486-.778,1.5.668,2.934,1.278,4.432,1.834.751.322.528,1.767,1.159,2.187a3.534,3.534,0,0,0,2.729.012c.664-.37.395-1.889,1.224-2.211M34.755,49.025a12.7,12.7,0,0,0,2.827-1.212,6.152,6.152,0,0,0,.712-1.917c-5.727.442-13.428.025-18.809-2.771.061,2.533-.251,5.03.115,7.5,2.185,3.046,11.551,3.756,15.148,3.7l.033-2.943a8.034,8.034,0,0,0-1.808-.1,1.113,1.113,0,0,1-1.151-1.243c.122-1.474,2.382-.807,2.933-1.014" transform="translate(0 0)" fill="#344866"/>
          <path id="Trazado_1284051" data-name="Trazado 1284051" d="M44.758,188.263a1.082,1.082,0,0,1,1.129,1.2,1.134,1.134,0,0,1-1.235,1.027H21.066a1.211,1.211,0,0,1-1.356-1.332L19.7,168.926c-.5.225-.515.757-.946,1a1.293,1.293,0,0,1-1.37-.116,1.11,1.11,0,0,1-.217-1.282l2.748-4.122a1.182,1.182,0,0,1,1.92.166l2.577,3.812a1.171,1.171,0,0,1-.039,1.293,1.2,1.2,0,0,1-1.488.253l-.931-.991-.018,19.308Z" transform="translate(-13.248 -127.455)" fill="#344866"/>
          <path id="Trazado_1284052" data-name="Trazado 1284052" d="M53.668,44.3a9.331,9.331,0,1,1-9.331-9.331A9.331,9.331,0,0,1,53.668,44.3m-2.233,0a7.1,7.1,0,1,0-7.1,7.1,7.1,7.1,0,0,0,7.1-7.1" transform="translate(-27.207 -27.181)" fill="#344866"/>
          <path id="Trazado_1284053" data-name="Trazado 1284053" d="M148.235,174.022c-.106,1.395-2.421,1.091-4.287,1.013a1.082,1.082,0,0,1-1.149-1.014c-.133-1.63,2.92-1.29,4.47-1.152a1.072,1.072,0,0,1,.966,1.152" transform="translate(-110.981 -134.257)" fill="#344866"/>
          <path id="Trazado_1284054" data-name="Trazado 1284054" d="M147.219,128.025l-3.256.016a1.06,1.06,0,0,1-1.135-1,1.116,1.116,0,0,1,1.159-1.211c1.826-.033,4.15-.375,4.26.991a1.026,1.026,0,0,1-1.028,1.208" transform="translate(-111.004 -97.744)" fill="#344866"/>
        </g>
      </g>
    </g>
  </g>
</svg>
