<svg xmlns="http://www.w3.org/2000/svg" xmlns:xlink="http://www.w3.org/1999/xlink" width="84" height="84" viewBox="0 0 84 84">
  <defs>
    <clipPath id="clip-path">
      <rect id="Rectángulo_464971" data-name="Rectángulo 464971" width="58.933" height="59.967" fill="#344866"/>
    </clipPath>
  </defs>
  <g id="Grupo_1211608" data-name="Grupo 1211608" transform="translate(0.289 0.137)">
    <g id="Grupo_1119665" data-name="Grupo 1119665" transform="translate(-0.289 -0.137)">
      <rect id="Rectángulo_402006" data-name="Rectángulo 402006" width="84" height="84" rx="5" fill="#a4e7f0"/>
    </g>
    <g id="Grupo_1212069" data-name="Grupo 1212069" transform="translate(16.095 14.369)">
      <g id="Grupo_1212068" data-name="Grupo 1212068" clip-path="url(#clip-path)">
        <path id="Trazado_1284062" data-name="Trazado 1284062" d="M44.491,50.151c-3.491,3.187-7.592.709-11.075.965C25.069,51.73,16.8,53.109,8.5,50.69c-2.225-.648-4.486-1.152-6.381-2.635C1.2,47.34,0,46.346,0,44.987L.029,6.929c0-1.3,1.386-2.421,2.3-3.029A18.743,18.743,0,0,1,8.88,1.292a55.358,55.358,0,0,1,22.956-.174c2.773.558,9.56,2.586,9.582,6.046L41.55,27.8a13.04,13.04,0,0,1,7.9,6.3,12.329,12.329,0,0,1-.15,11.462c3.115,2.01,5.461,4.575,8.058,7.043,1.816,1.726,2.2,4.368.408,6.154a4.209,4.209,0,0,1-6.2-.334c-2.511-2.744-5-4.664-7.078-8.274M36.555,10.267a7.552,7.552,0,0,0,2.454-1.7,1.491,1.491,0,0,0,0-2.16C37.109,4.329,32.5,3.184,29.7,2.72,22.382,1.508,12.456,1.642,5.5,4.44a9.372,9.372,0,0,0-2.931,1.8,1.625,1.625,0,0,0,0,2.5,9.331,9.331,0,0,0,2.941,1.81c8.251,3.316,22.959,3.353,31.049-.282M3.867,22.149c7.873,4.3,25.77,4.267,33.567.063.685-.562,1.924-1.1,1.992-2.106.208-3.049.025-5.968.075-9.2a22.673,22.673,0,0,1-6.391,2.679,55.4,55.4,0,0,1-24.865-.017,22.229,22.229,0,0,1-6.264-2.643c0,3.215-.117,6.139.045,9.213.05.935,1.185,1.409,1.84,2.008M26.7,37.373a12.12,12.12,0,0,1,12.764-9.8l.011-4.308a23.5,23.5,0,0,1-8.181,3.119C23.012,27.951,9.313,27.965,1.97,23.321l.011,9.05c0,.684.629,1.127,1.058,1.551,5.43,3.843,17.112,4.305,23.658,3.452m22.121,2.319A10.182,10.182,0,1,0,38.635,49.875,10.182,10.182,0,0,0,48.818,39.692m-17.931,9.44a12.456,12.456,0,0,1-4.41-9.706,42.529,42.529,0,0,1-5.714.255c-5.786.05-13.735-.733-18.792-4.009.043,3.2-.152,6.178.081,9.293.06.81,1.187,1.513,1.822,1.877,6.538,3.749,19.777,3.942,27.013,2.289m16.549,1.637,2.308-2.357a4.343,4.343,0,0,0-1.557-1.142L46.2,49.283c.4.586.606,1.208,1.235,1.486m6.105,6.736a2.069,2.069,0,0,0,2.909-.234,2.108,2.108,0,0,0-.2-2.945c-1.617-1.588-3.087-3.189-4.875-4.674l-2.78,2.8c1.591,1.791,3.184,3.408,4.949,5.058" transform="translate(0 0)" fill="#344866"/>
        <path id="Trazado_1284063" data-name="Trazado 1284063" d="M94.114,99.114l-4.354.011a.992.992,0,1,1,.008-1.973l4.34.015a.974.974,0,0,1,.977.85.961.961,0,0,1-.971,1.1" transform="translate(-71.167 -77.975)" fill="#344866"/>
        <path id="Trazado_1284064" data-name="Trazado 1284064" d="M94.115,161.848l-4.352.006a1.022,1.022,0,0,1-1.083-.907,1.01,1.01,0,0,1,1.083-1.067l4.338.006a.981.981,0,1,1,.015,1.961" transform="translate(-71.172 -128.322)" fill="#344866"/>
        <path id="Trazado_1284065" data-name="Trazado 1284065" d="M94.168,224.611l-4.568.01a.988.988,0,0,1-.921-1.007.96.96,0,0,1,1.088-.941l4.368.008a.917.917,0,0,1,.961.939.965.965,0,0,1-.929.99" transform="translate(-71.174 -178.72)" fill="#344866"/>
        <path id="Trazado_1284066" data-name="Trazado 1284066" d="M167.407,163.54a9.233,9.233,0,1,1-9.233-9.233,9.233,9.233,0,0,1,9.233,9.233m-1.981,0a7.253,7.253,0,1,0-7.253,7.253,7.253,7.253,0,0,0,7.253-7.253" transform="translate(-119.541 -123.848)" fill="#344866"/>
      </g>
    </g>
  </g>
</svg>
