<svg xmlns="http://www.w3.org/2000/svg" xmlns:xlink="http://www.w3.org/1999/xlink" width="85" height="85" viewBox="0 0 85 85">
  <defs>
    <clipPath id="clip-path">
      <rect id="Rectángulo_464981" data-name="Rectángulo 464981" width="65.708" height="61.294" fill="#344866"/>
    </clipPath>
  </defs>
  <g id="Grupo_1212388" data-name="Grupo 1212388" transform="translate(-186 -7087.868)">
    <g id="Grupo_1211629" data-name="Grupo 1211629" transform="translate(6.266 1567.026)">
      <rect id="Rectángulo_402006" data-name="Rectángulo 402006" width="85" height="85" rx="5" transform="translate(179.734 5520.842)" fill="#69d7e5"/>
      <g id="Grupo_1212073" data-name="Grupo 1212073" transform="translate(189.38 5532.694)">
        <g id="Grupo_1212072" data-name="Grupo 1212072" clip-path="url(#clip-path)">
          <path id="Trazado_1284075" data-name="Trazado 1284075" d="M22.3,94.863a36.01,36.01,0,0,1-16.337-.045C3.85,94.319,0,92.917,0,90.283V64.033c0-2.595,3.722-3.979,5.8-4.485a35.806,35.806,0,0,1,16.883.007c2.479.6,5.81,1.893,5.809,4.888l-.011,25.635c0,2.871-3.739,4.227-6.182,4.785m-.463-28.407c1.2-.273,4.522-1.392,4.379-2.511-.131-1.03-3.076-2.06-4.155-2.31a34.466,34.466,0,0,0-15.587-.015c-1.043.243-4.386,1.338-4.232,2.478.147,1.084,3.259,2.1,4.386,2.356a33.909,33.909,0,0,0,15.209,0m4.223,6.489c.576-1.975.008-3.908.192-5.8-6.338,3.157-17.692,3.169-24.029.01a41.629,41.629,0,0,0,.1,5.881c.267.745,1.448,1.2,2.157,1.479,4.858,1.913,12.946,1.987,17.889.532,1.177-.347,3.326-.832,3.7-2.1m.016,8.831c.532-2-.015-3.919.2-5.878-6.051,3.1-17.9,3.169-24.03.022a35.778,35.778,0,0,0,.069,5.912A6.024,6.024,0,0,0,5.6,83.69a32.774,32.774,0,0,0,16.7.15c1.273-.32,3.24-.9,3.781-2.064m0,8.772c.517-1.98-.006-3.885.192-5.874-6.158,3.069-17.636,3.206-24,.028a29.274,29.274,0,0,0,.063,5.923,6.775,6.775,0,0,0,3.654,1.943,33.238,33.238,0,0,0,16.4.008c1.248-.317,3.14-.9,3.687-2.028" transform="translate(0 -46.521)" fill="#344866"/>
          <path id="Trazado_1284076" data-name="Trazado 1284076" d="M243.65,114.2l.034,13.139L224,127.348l-.035-15.3,6.966-.01,3.277,2.148Zm-2.219,2.185-7.956-.017-3.217-2.153h-4.081l-.023,10.926,15.327.015Z" transform="translate(-177.977 -89.032)" fill="#344866"/>
          <rect id="Rectángulo_464973" data-name="Rectángulo 464973" width="2.22" height="2.231" transform="translate(59.122 30.637)" fill="#344866"/>
          <rect id="Rectángulo_464974" data-name="Rectángulo 464974" width="2.186" height="2.23" transform="translate(50.37 30.637)" fill="#344866"/>
          <rect id="Rectángulo_464975" data-name="Rectángulo 464975" width="2.194" height="2.231" transform="translate(54.752 30.637)" fill="#344866"/>
          <path id="Trazado_1284077" data-name="Trazado 1284077" d="M156.83,77.915l5.393.16a5.165,5.165,0,0,1,0,2.108l-7.582-.019V59.209a4.725,4.725,0,0,1-2.017-1.893c-.992-.362-2.2.033-3.357-.153a4.533,4.533,0,0,1-.01-2.146l3.415-.062a3.744,3.744,0,0,1,1.965-1.966l0-20.936,7.589-.013a5.5,5.5,0,0,1-.006,2.12l-5.377.065-.006,18.756a3.927,3.927,0,0,1,2,2.007l3.4.064a5.639,5.639,0,0,1,0,2.1l-3.4.073a3.963,3.963,0,0,1-1.988,1.987ZM156.8,56.1a1.068,1.068,0,1,0-1.068,1.068A1.068,1.068,0,0,0,156.8,56.1" transform="translate(-118.512 -25.46)" fill="#344866"/>
          <path id="Trazado_1284078" data-name="Trazado 1284078" d="M243.648,226.144l.034,13.124-19.681,0-.039-15.287,6.957-.019,3.292,2.167Zm-2.226,2.184-7.951-.014-3.207-2.15-4.092.007,0,10.948,15.312-.039Z" transform="translate(-177.974 -177.978)" fill="#344866"/>
          <rect id="Rectángulo_464976" data-name="Rectángulo 464976" width="2.186" height="2.222" transform="translate(50.37 53.641)" fill="#344866"/>
          <path id="Trazado_1284079" data-name="Trazado 1284079" d="M290.069,263.289a7.93,7.93,0,0,1-2.142.071,11.617,11.617,0,0,1-.019-2.1,6.472,6.472,0,0,1,2.151-.019,10.641,10.641,0,0,1,.01,2.049" transform="translate(-228.76 -207.534)" fill="#344866"/>
          <rect id="Rectángulo_464977" data-name="Rectángulo 464977" width="2.194" height="2.22" transform="translate(54.752 53.642)" fill="#344866"/>
          <path id="Trazado_1284080" data-name="Trazado 1284080" d="M243.66,2.145l.032,13.156-19.684,0L223.975.02,230.93,0l3.143,2.106Zm-2.219,2.232-7.938-.03-3.363-2.209-3.96.031,0,10.948,15.307-.026Z" transform="translate(-177.985)" fill="#344866"/>
          <rect id="Rectángulo_464978" data-name="Rectángulo 464978" width="2.186" height="2.23" transform="translate(50.37 7.621)" fill="#344866"/>
          <rect id="Rectángulo_464979" data-name="Rectángulo 464979" width="2.23" height="2.249" transform="translate(59.109 7.629) rotate(-0.45)" fill="#344866"/>
          <rect id="Rectángulo_464980" data-name="Rectángulo 464980" width="2.194" height="2.255" transform="translate(54.752 7.621)" fill="#344866"/>
        </g>
      </g>
    </g>
  </g>
</svg>
