<svg xmlns="http://www.w3.org/2000/svg" width="1020" height="379" viewBox="0 0 1020 379">
  <g id="Grupo_1212390" data-name="Grupo 1212390" transform="translate(-290 -8747)">
    <g id="Grupo_1212293" data-name="Grupo 1212293" transform="translate(0 -4571)">
      <path id="Trazado_1285142" data-name="Trazado 1285142" d="M18,0h984a18,18,0,0,1,18,18V361a18,18,0,0,1-18,18H18A18,18,0,0,1,0,361V18A18,18,0,0,1,18,0Z" transform="translate(290 13318)" fill="#cfe8ff"/>
      <path id="Trazado_1285143" data-name="Trazado 1285143" d="M19.5,0h139a19.5,19.5,0,0,1,0,39H19.5a19.5,19.5,0,0,1,0-39Z" transform="translate(1028 13474)" fill="#6cb9ff"/>
      <path id="Trazado_1285144" data-name="Trazado 1285144" d="M19.5,0h139a19.5,19.5,0,0,1,0,39H19.5a19.5,19.5,0,0,1,0-39Z" transform="translate(1028 13406)" fill="#6cb9ff"/>
      <path id="Trazado_1285145" data-name="Trazado 1285145" d="M0,0H952V39H0Z" transform="translate(324 13352)" fill="#69d7e5"/>
      <path id="Trazado_1285146" data-name="Trazado 1285146" d="M19.5,0h139a19.5,19.5,0,0,1,0,39H19.5a19.5,19.5,0,0,1,0-39Z" transform="translate(1028 13541)" fill="#6cb9ff"/>
      <path id="Trazado_1285147" data-name="Trazado 1285147" d="M19.5,0h139a19.5,19.5,0,0,1,0,39H19.5a19.5,19.5,0,0,1,0-39Z" transform="translate(1028 13609)" fill="#ffd453"/>
      <path id="Trazado_1285148" data-name="Trazado 1285148" d="M33.6,12.762H28.823V16h5.611v2h-8.1V5.914h8.085V7.931H28.823v2.88H33.6Zm6.616-2.681,2.266-4.167H45.35l-3.52,5.993L45.441,18h-2.9L40.22,13.767,37.9,18H35l3.611-6.093L35.09,5.914h2.864Zm15.572-2.15h-3.7V18H49.6V7.931H45.948V5.914h9.845Zm8.691,4.831H59.7V16h5.611v2h-8.1V5.914H65.3V7.931H59.7v2.88h4.781ZM76.6,18h-2.49l-4.848-7.952V18h-2.49V5.914h2.49l4.856,7.969V5.914H76.6Zm2.175,0V5.914H82.5a5.647,5.647,0,0,1,2.851.718A5.007,5.007,0,0,1,87.31,8.674a6.3,6.3,0,0,1,.706,3.009v.556a6.316,6.316,0,0,1-.693,3,4.964,4.964,0,0,1-1.955,2.034,5.69,5.69,0,0,1-2.847.73Zm2.49-10.069V16h1.2a2.7,2.7,0,0,0,2.233-.955,4.314,4.314,0,0,0,.789-2.731v-.639a4.382,4.382,0,0,0-.764-2.793,2.7,2.7,0,0,0-2.233-.95Z" transform="translate(1060 13482)" fill="#12263f"/>
      <path id="Trazado_1285149" data-name="Trazado 1285149" d="M12.335,18V5.914h3.719a5.647,5.647,0,0,1,2.851.718,5.007,5.007,0,0,1,1.963,2.042,6.3,6.3,0,0,1,.706,3.009v.556a6.316,6.316,0,0,1-.693,3,4.964,4.964,0,0,1-1.955,2.034,5.69,5.69,0,0,1-2.847.73Zm2.49-10.069V16h1.2a2.7,2.7,0,0,0,2.233-.955,4.314,4.314,0,0,0,.789-2.731v-.639a4.382,4.382,0,0,0-.764-2.793,2.7,2.7,0,0,0-2.233-.95ZM30.207,15.51H25.841L25.011,18H22.363l4.5-12.086h2.308L33.693,18H31.045Zm-3.694-2.017h3.021L28.016,8.969ZM42.924,7.931h-3.7V18h-2.49V7.931H33.079V5.914h9.845ZM50.17,15.51H45.8L44.974,18H42.326l4.5-12.086h2.308L53.657,18H51.009Zm-3.694-2.017H49.5L47.979,8.969ZM57.276,16h5.288v2H54.786V5.914h2.49Zm9.363,2h-2.49V5.914h2.49Zm9.579-4.939H71.437V18h-2.49V5.914h7.869V7.931H71.437v3.121h4.781Zm9.313-.3H80.75V16h5.611v2h-8.1V5.914h8.085V7.931H80.75v2.88h4.781Z" transform="translate(1068 13414)" fill="#12263f"/>
      <path id="Trazado_1285150" data-name="Trazado 1285150" d="M34.5,13.061H29.721V18h-2.49V5.914H35.1V7.931H29.721v3.121H34.5ZM38.977,18h-2.4V9.019h2.4ZM38.271,5.375h2.615l-2.3,2.573H36.636Zm7.637,10.144a.773.773,0,0,0-.436-.693,4.95,4.95,0,0,0-1.4-.452q-3.2-.672-3.2-2.723a2.468,2.468,0,0,1,.992-2,4,4,0,0,1,2.594-.8,4.307,4.307,0,0,1,2.735.805,2.538,2.538,0,0,1,1.025,2.092h-2.4a1.161,1.161,0,0,0-.332-.851,1.405,1.405,0,0,0-1.038-.336,1.436,1.436,0,0,0-.938.274.865.865,0,0,0-.332.7.739.739,0,0,0,.378.643,3.885,3.885,0,0,0,1.274.423,10.407,10.407,0,0,1,1.511.4,2.482,2.482,0,0,1,1.9,2.416,2.343,2.343,0,0,1-1.054,1.988,4.548,4.548,0,0,1-2.723.76,4.75,4.75,0,0,1-2-.4,3.363,3.363,0,0,1-1.374-1.1,2.565,2.565,0,0,1-.5-1.515h2.274a1.252,1.252,0,0,0,.473.979,1.877,1.877,0,0,0,1.179.34,1.737,1.737,0,0,0,1.042-.261A.814.814,0,0,0,45.908,15.518ZM52.316,18H49.909V9.019h2.407ZM49.768,6.694a1.181,1.181,0,0,1,.361-.888,1.556,1.556,0,0,1,1.963,0,1.175,1.175,0,0,1,.365.888,1.178,1.178,0,0,1-.369.9,1.539,1.539,0,0,1-1.951,0A1.178,1.178,0,0,1,49.768,6.694Zm8.259,9.538a1.573,1.573,0,0,0,1.079-.365,1.28,1.28,0,0,0,.432-.971h2.25a3.077,3.077,0,0,1-.5,1.673,3.286,3.286,0,0,1-1.341,1.179,4.2,4.2,0,0,1-1.88.419,3.9,3.9,0,0,1-3.038-1.224,4.845,4.845,0,0,1-1.112-3.383V13.4a4.79,4.79,0,0,1,1.1-3.312,3.854,3.854,0,0,1,3.03-1.237,3.778,3.778,0,0,1,2.7.959,3.4,3.4,0,0,1,1.033,2.552h-2.25a1.648,1.648,0,0,0-.432-1.139,1.6,1.6,0,0,0-2.362.173,3.541,3.541,0,0,0-.427,1.983v.249a3.586,3.586,0,0,0,.423,2A1.463,1.463,0,0,0,58.027,16.232Zm4.756-2.806a5.327,5.327,0,0,1,.515-2.382A3.768,3.768,0,0,1,64.78,9.425a4.323,4.323,0,0,1,2.245-.573,4.09,4.09,0,0,1,2.968,1.112,4.464,4.464,0,0,1,1.282,3.021l.017.614a4.694,4.694,0,0,1-1.154,3.316,4.472,4.472,0,0,1-6.2,0,4.777,4.777,0,0,1-1.158-3.387Zm2.4.17a3.357,3.357,0,0,0,.481,1.958,1.73,1.73,0,0,0,2.739.008,3.674,3.674,0,0,0,.49-2.141,3.324,3.324,0,0,0-.49-1.945,1.592,1.592,0,0,0-1.378-.69,1.566,1.566,0,0,0-1.361.686A3.736,3.736,0,0,0,65.182,13.6Z" transform="translate(1068 13360)" fill="#12263f"/>
      <path id="Trazado_1285151" data-name="Trazado 1285151" d="M30.116,16.473a4.322,4.322,0,0,1-1.9,1.249,7.961,7.961,0,0,1-2.723.444,5.393,5.393,0,0,1-2.752-.685,4.568,4.568,0,0,1-1.826-1.988,7,7,0,0,1-.66-3.063v-.822a7.431,7.431,0,0,1,.61-3.134,4.513,4.513,0,0,1,1.76-2.025,5.069,5.069,0,0,1,2.694-.7A5.048,5.048,0,0,1,28.68,6.773a4.381,4.381,0,0,1,1.436,2.984H27.692a2.41,2.41,0,0,0-.735-1.519,2.346,2.346,0,0,0-1.565-.481,2.208,2.208,0,0,0-1.934.955,5.019,5.019,0,0,0-.672,2.839v.772a4.778,4.778,0,0,0,.722,2.872,2.473,2.473,0,0,0,2.117.971,2.762,2.762,0,0,0,2-.6V13.484H25.359V11.65h4.756Zm5.993,1.693a4.409,4.409,0,0,1-3.217-1.212,4.308,4.308,0,0,1-1.241-3.229v-.232a5.426,5.426,0,0,1,.523-2.42,3.838,3.838,0,0,1,1.482-1.644,4.159,4.159,0,0,1,2.187-.577,3.727,3.727,0,0,1,2.9,1.162,4.722,4.722,0,0,1,1.058,3.3v.979H34.083a2.229,2.229,0,0,0,.7,1.411,2.12,2.12,0,0,0,1.482.531,2.589,2.589,0,0,0,2.167-1l1.179,1.32a3.6,3.6,0,0,1-1.461,1.191A4.793,4.793,0,0,1,36.109,18.166Zm-.274-7.379a1.5,1.5,0,0,0-1.158.484,2.5,2.5,0,0,0-.569,1.384h3.337v-.192a1.786,1.786,0,0,0-.432-1.238A1.547,1.547,0,0,0,35.835,10.787Zm7.537-1.768.075,1.038a3.136,3.136,0,0,1,2.582-1.2,2.606,2.606,0,0,1,2.125.838,3.912,3.912,0,0,1,.714,2.507V18h-2.4V12.256a1.556,1.556,0,0,0-.332-1.108,1.486,1.486,0,0,0-1.1-.344,1.65,1.65,0,0,0-1.519.863V18h-2.4V9.019Zm11.447,9.147A4.409,4.409,0,0,1,51.6,16.954a4.308,4.308,0,0,1-1.241-3.229v-.232a5.426,5.426,0,0,1,.523-2.42,3.838,3.838,0,0,1,1.482-1.644,4.159,4.159,0,0,1,2.187-.577,3.727,3.727,0,0,1,2.9,1.162,4.722,4.722,0,0,1,1.058,3.3v.979H52.793a2.229,2.229,0,0,0,.7,1.411,2.12,2.12,0,0,0,1.482.531,2.589,2.589,0,0,0,2.167-1l1.179,1.32a3.6,3.6,0,0,1-1.461,1.191A4.793,4.793,0,0,1,54.819,18.166Zm-.274-7.379a1.5,1.5,0,0,0-1.158.484,2.5,2.5,0,0,0-.569,1.384h3.337v-.192a1.786,1.786,0,0,0-.432-1.238A1.547,1.547,0,0,0,54.545,10.787Zm10.376.481a6.517,6.517,0,0,0-.863-.066,1.757,1.757,0,0,0-1.785.921V18h-2.4V9.019H62.14l.066,1.071a2.223,2.223,0,0,1,2-1.237,2.514,2.514,0,0,1,.747.108ZM71.03,18a2.664,2.664,0,0,1-.241-.805,2.9,2.9,0,0,1-2.266.971,3.189,3.189,0,0,1-2.187-.764,2.456,2.456,0,0,1-.867-1.926,2.538,2.538,0,0,1,1.058-2.191,5.222,5.222,0,0,1,3.059-.772h1.1V12a1.48,1.48,0,0,0-.32-1,1.257,1.257,0,0,0-1.009-.374,1.429,1.429,0,0,0-.95.291.987.987,0,0,0-.344.8h-2.4a2.41,2.41,0,0,1,.481-1.444A3.182,3.182,0,0,1,67.511,9.23a4.961,4.961,0,0,1,1.976-.378,3.92,3.92,0,0,1,2.635.834,2.918,2.918,0,0,1,.975,2.345v3.893a4.294,4.294,0,0,0,.357,1.934V18Zm-1.984-1.668a2.066,2.066,0,0,0,.979-.237,1.554,1.554,0,0,0,.664-.635V13.916h-.9q-1.8,0-1.917,1.245l-.008.141a.96.96,0,0,0,.315.739A1.225,1.225,0,0,0,69.046,16.332ZM77.472,18H75.064V5.25h2.407Z" transform="translate(434 13360)" fill="#12263f"/>
      <path id="Trazado_1285152" data-name="Trazado 1285152" d="M26.816,16H32.1v2H24.326V5.914h2.49ZM33,13.426a5.327,5.327,0,0,1,.515-2.382A3.767,3.767,0,0,1,35,9.425a4.323,4.323,0,0,1,2.245-.573,4.09,4.09,0,0,1,2.968,1.112,4.464,4.464,0,0,1,1.282,3.021l.017.614a4.694,4.694,0,0,1-1.154,3.316,4.472,4.472,0,0,1-6.2,0A4.777,4.777,0,0,1,33,13.534Zm2.4.17a3.357,3.357,0,0,0,.481,1.958,1.73,1.73,0,0,0,2.739.008,3.674,3.674,0,0,0,.49-2.141,3.324,3.324,0,0,0-.49-1.945,1.592,1.592,0,0,0-1.378-.69,1.566,1.566,0,0,0-1.361.686A3.735,3.735,0,0,0,35.4,13.6ZM37.715,5.25H40.33l-2.3,2.573H36.08Zm4.922,8.193a5.264,5.264,0,0,1,.984-3.329,3.187,3.187,0,0,1,2.652-1.262,2.8,2.8,0,0,1,2.3,1.013l.1-.847h2.175V17.7a3.839,3.839,0,0,1-.535,2.05A3.439,3.439,0,0,1,48.8,21.08a5.3,5.3,0,0,1-2.274.457,4.925,4.925,0,0,1-1.926-.394,3.418,3.418,0,0,1-1.419-1.017l1.063-1.461a2.81,2.81,0,0,0,2.175,1,2.057,2.057,0,0,0,1.486-.51,1.915,1.915,0,0,0,.531-1.448v-.481a2.775,2.775,0,0,1-2.183.938A3.179,3.179,0,0,1,43.638,16.9a5.262,5.262,0,0,1-1-3.358Zm2.4.179a3.278,3.278,0,0,0,.49,1.916,1.558,1.558,0,0,0,1.345.694,1.666,1.666,0,0,0,1.569-.823V11.626a1.662,1.662,0,0,0-1.552-.823,1.568,1.568,0,0,0-1.357.707A3.694,3.694,0,0,0,45.036,13.621ZM55.221,18H52.814V9.019h2.407ZM52.673,6.694a1.181,1.181,0,0,1,.361-.888,1.556,1.556,0,0,1,1.963,0,1.175,1.175,0,0,1,.365.888,1.178,1.178,0,0,1-.369.9,1.539,1.539,0,0,1-1.951,0A1.178,1.178,0,0,1,52.673,6.694Zm8.259,9.538a1.573,1.573,0,0,0,1.079-.365,1.28,1.28,0,0,0,.432-.971h2.25a3.077,3.077,0,0,1-.5,1.673,3.286,3.286,0,0,1-1.341,1.179,4.2,4.2,0,0,1-1.88.419,3.9,3.9,0,0,1-3.038-1.224,4.845,4.845,0,0,1-1.112-3.383V13.4a4.79,4.79,0,0,1,1.1-3.312,3.854,3.854,0,0,1,3.03-1.237,3.778,3.778,0,0,1,2.7.959,3.4,3.4,0,0,1,1.033,2.552h-2.25a1.648,1.648,0,0,0-.432-1.139,1.6,1.6,0,0,0-2.362.173,3.541,3.541,0,0,0-.427,1.983v.249a3.586,3.586,0,0,0,.423,2A1.463,1.463,0,0,0,60.932,16.232Zm4.756-2.806a5.326,5.326,0,0,1,.515-2.382,3.768,3.768,0,0,1,1.482-1.619,4.323,4.323,0,0,1,2.245-.573A4.09,4.09,0,0,1,72.9,9.965a4.464,4.464,0,0,1,1.282,3.021l.017.614a4.694,4.694,0,0,1-1.154,3.316,4.472,4.472,0,0,1-6.2,0,4.777,4.777,0,0,1-1.158-3.387Zm2.4.17a3.357,3.357,0,0,0,.481,1.958,1.73,1.73,0,0,0,2.739.008,3.674,3.674,0,0,0,.49-2.141,3.324,3.324,0,0,0-.49-1.945,1.592,1.592,0,0,0-1.378-.69,1.566,1.566,0,0,0-1.361.686A3.736,3.736,0,0,0,68.088,13.6Z" transform="translate(751 13360)" fill="#12263f"/>
      <path id="Trazado_1285153" data-name="Trazado 1285153" d="M31.535,13.742V18h-2.49V5.914H33.76a5.455,5.455,0,0,1,2.395.5,3.67,3.67,0,0,1,1.59,1.415A3.946,3.946,0,0,1,38.3,9.915a3.47,3.47,0,0,1-1.216,2.8,5.065,5.065,0,0,1-3.366,1.025Zm0-2.017H33.76a2.187,2.187,0,0,0,1.507-.465,1.691,1.691,0,0,0,.519-1.328A1.994,1.994,0,0,0,35.262,8.5a1.953,1.953,0,0,0-1.444-.564H31.535ZM45.356,15.51H40.99L40.16,18H37.512l4.5-12.086h2.308L48.842,18H46.194Zm-3.694-2.017h3.021L43.165,8.969Zm17.872,2.98a4.322,4.322,0,0,1-1.9,1.249,7.961,7.961,0,0,1-2.723.444,5.393,5.393,0,0,1-2.752-.685,4.568,4.568,0,0,1-1.826-1.988,7,7,0,0,1-.66-3.063v-.822a7.431,7.431,0,0,1,.61-3.134,4.513,4.513,0,0,1,1.76-2.025,5.794,5.794,0,0,1,6.055.324,4.381,4.381,0,0,1,1.436,2.984H57.11a2.41,2.41,0,0,0-.735-1.519,2.346,2.346,0,0,0-1.565-.481,2.208,2.208,0,0,0-1.934.955A5.02,5.02,0,0,0,52.2,11.55v.772a4.778,4.778,0,0,0,.722,2.872,2.473,2.473,0,0,0,2.117.971,2.762,2.762,0,0,0,2-.6V13.484H54.777V11.65h4.756Zm9.289-3.71H64.041V16h5.611v2h-8.1V5.914h8.085V7.931H64.041v2.88h4.781Z" transform="translate(1068 13549)" fill="#12263f"/>
      <path id="Trazado_1285154" data-name="Trazado 1285154" d="M20.055,16h5.288v2H17.565V5.914h2.49Zm16.112-3.769a7.3,7.3,0,0,1-.631,3.129,4.751,4.751,0,0,1-1.805,2.075,5.335,5.335,0,0,1-5.375.008,4.8,4.8,0,0,1-1.826-2.063,7.087,7.087,0,0,1-.656-3.084v-.6a7.258,7.258,0,0,1,.643-3.142,4.79,4.79,0,0,1,1.818-2.083,5.327,5.327,0,0,1,5.371,0,4.79,4.79,0,0,1,1.818,2.083,7.237,7.237,0,0,1,.643,3.134Zm-2.523-.548a5.086,5.086,0,0,0-.681-2.889,2.4,2.4,0,0,0-3.876-.012,5.028,5.028,0,0,0-.689,2.86v.589a5.15,5.15,0,0,0,.681,2.872,2.383,2.383,0,0,0,3.885.037,5.12,5.12,0,0,0,.681-2.868Zm13.9,4.79a4.322,4.322,0,0,1-1.9,1.249,7.961,7.961,0,0,1-2.723.444,5.393,5.393,0,0,1-2.752-.685,4.568,4.568,0,0,1-1.826-1.988,7,7,0,0,1-.66-3.063v-.822a7.431,7.431,0,0,1,.61-3.134,4.513,4.513,0,0,1,1.76-2.025,5.794,5.794,0,0,1,6.055.324,4.381,4.381,0,0,1,1.436,2.984H45.115a2.41,2.41,0,0,0-.735-1.519,2.346,2.346,0,0,0-1.565-.481,2.208,2.208,0,0,0-1.934.955,5.02,5.02,0,0,0-.672,2.839v.772a4.778,4.778,0,0,0,.722,2.872,2.473,2.473,0,0,0,2.117.971,2.762,2.762,0,0,0,2-.6V13.484H42.783V11.65h4.756ZM52.046,16h5.288v2H49.556V5.914h2.49Zm9.363,2h-2.49V5.914h2.49Zm9.579-4.939H66.208V18h-2.49V5.914h7.869V7.931H66.208v3.121h4.781Zm9.313-.3H75.521V16h5.611v2h-8.1V5.914h8.085V7.931H75.521v2.88H80.3Z" transform="translate(1069 13616)" fill="#12263f"/>
      <path id="Trazado_1284648" data-name="Trazado 1284648" d="M0,0V303" transform="translate(641.5 13655) rotate(180)" fill="none" stroke="#1e535a" stroke-width="3"/>
      <path id="Trazado_1284649" data-name="Trazado 1284649" d="M0,0V303" transform="translate(958.5 13655) rotate(180)" fill="none" stroke="#1e535a" stroke-width="3"/>
      <path id="Trazado_1284650" data-name="Trazado 1284650" d="M0,0V952" transform="translate(1276 13391) rotate(90)" fill="none" stroke="#1e535a" stroke-width="3"/>
      <g id="Trazado_1285155" data-name="Trazado 1285155" transform="translate(4671 1708)" fill="#ffd453">
        <path d="M -3681.000732421875 11734.3154296875 L -3681.000732421875 11726.0009765625 L -3681.000732421875 11725.0009765625 L -3682.000732421875 11725.0009765625 L -3801 11725.0009765625 L -3801 11710.9990234375 L -3682.000732421875 11710.9990234375 L -3681.000732421875 11710.9990234375 L -3681.000732421875 11709.9990234375 L -3681.000732421875 11701.68359375 L -3651.08935546875 11718.0009765625 L -3681.000732421875 11734.3154296875 Z" stroke="none"/>
        <path d="M -3680.000732421875 11732.630859375 L -3653.177490234375 11718.0009765625 L -3680.000732421875 11703.3681640625 L -3680.000732421875 11711.9990234375 L -3800 11711.9990234375 L -3800 11724.0009765625 L -3680.000732421875 11724.0009765625 L -3680.000732421875 11732.630859375 M -3682.000732421875 11736 L -3682.000732421875 11726.0009765625 L -3802 11726.0009765625 L -3802 11709.9990234375 L -3682.000732421875 11709.9990234375 L -3682.000732421875 11699.9990234375 L -3649.0009765625 11718.0009765625 L -3682.000732421875 11736 Z" stroke="none" fill="#1e535a"/>
      </g>
      <g id="Trazado_1285156" data-name="Trazado 1285156" transform="translate(4380 1708)" fill="#ffd453">
        <path d="M -3681.000732421875 11734.3154296875 L -3681.000732421875 11726.0009765625 L -3681.000732421875 11725.0009765625 L -3682.000732421875 11725.0009765625 L -3826.998779296875 11725.0009765625 L -3826.998779296875 11710.9990234375 L -3682.000732421875 11710.9990234375 L -3681.000732421875 11710.9990234375 L -3681.000732421875 11709.9990234375 L -3681.000732421875 11701.68359375 L -3651.08935546875 11718.0009765625 L -3681.000732421875 11734.3154296875 Z" stroke="none"/>
        <path d="M -3680.000732421875 11732.630859375 L -3653.177490234375 11718.0009765625 L -3680.000732421875 11703.3681640625 L -3680.000732421875 11711.9990234375 L -3825.998779296875 11711.9990234375 L -3825.998779296875 11724.0009765625 L -3680.000732421875 11724.0009765625 L -3680.000732421875 11732.630859375 M -3682.000732421875 11736 L -3682.000732421875 11726.0009765625 L -3827.998779296875 11726.0009765625 L -3827.998779296875 11709.9990234375 L -3682.000732421875 11709.9990234375 L -3682.000732421875 11699.9990234375 L -3649.0009765625 11718.0009765625 L -3682.000732421875 11736 Z" stroke="none" fill="#1e535a"/>
      </g>
      <g id="Trazado_1285157" data-name="Trazado 1285157" transform="translate(4671 1910.001)" fill="#ffd453">
        <path d="M -3681.000732421875 11734.3154296875 L -3681.000732421875 11726.0009765625 L -3681.000732421875 11725.0009765625 L -3682.000732421875 11725.0009765625 L -4117.9990234375 11725.0009765625 L -4117.9990234375 11710.9990234375 L -3682.000732421875 11710.9990234375 L -3681.000732421875 11710.9990234375 L -3681.000732421875 11709.9990234375 L -3681.000732421875 11701.68359375 L -3651.089111328125 11718.0009765625 L -3681.000732421875 11734.3154296875 Z" stroke="none"/>
        <path d="M -3680.000732421875 11732.630859375 L -3653.177490234375 11718.0009765625 L -3680.000732421875 11703.3681640625 L -3680.000732421875 11711.9990234375 L -4116.9990234375 11711.9990234375 L -4116.9990234375 11724.0009765625 L -3680.000732421875 11724.0009765625 L -3680.000732421875 11732.630859375 M -3682.000732421875 11736 L -3682.000732421875 11726.0009765625 L -4118.9990234375 11726.0009765625 L -4118.9990234375 11709.9990234375 L -3682.000732421875 11709.9990234375 L -3682.000732421875 11699.9990234375 L -3649.0009765625 11718.0009765625 L -3682.000732421875 11736 Z" stroke="none" fill="#1e535a"/>
      </g>
      <g id="Trazado_1285158" data-name="Trazado 1285158" transform="translate(324 13352)" fill="none">
        <path d="M0,0H952V311H0Z" stroke="none"/>
        <path d="M 3 3 L 3 308 L 949 308 L 949 3 L 3 3 M 0 0 L 952 0 L 952 311 L 0 311 L 0 0 Z" stroke="none" fill="#1e535a"/>
      </g>
      <path id="Trazado_1284652" data-name="Trazado 1284652" d="M4159.828-1851v17.236" transform="translate(5275.828 11679.236) rotate(180)" fill="none" stroke="#1e535a" stroke-width="2"/>
      <path id="Trazado_1284653" data-name="Trazado 1284653" d="M4159.828-1851v18.236" transform="translate(5275.828 11612.236) rotate(180)" fill="none" stroke="#1e535a" stroke-width="2"/>
      <path id="Trazado_1285159" data-name="Trazado 1285159" d="M6,0l6,11H0Z" transform="translate(1122 13541) rotate(180)" fill="#1e535a"/>
      <path id="Trazado_1285160" data-name="Trazado 1285160" d="M6,0l6,11H0Z" transform="translate(1122 13474) rotate(180)" fill="#1e535a"/>
      <g id="Trazado_1285161" data-name="Trazado 1285161" transform="translate(738 13418)" fill="#69d7e5" stroke-linecap="round">
        <path d="M 62.00146484375 79 C 46.90903472900391 79 32.38628387451172 77.88279724121094 21.10843276977539 75.85418701171875 C 15.64990043640137 74.872314453125 11.14563369750977 73.71855163574219 7.720766544342041 72.42493438720703 C 3.530149936676025 70.84206390380859 1.950716614723206 69.41680145263672 1.363666653633118 68.49987030029297 L 1.068633317947388 68.03907012939453 L 1 68.03907012939453 L 1 67.39746856689453 L 1 1 L 123 1 L 123 68.03907012939453 L 122.9308700561523 68.03907012939453 L 122.6358337402344 68.49990081787109 C 122.0488357543945 69.41680145263672 120.4694671630859 70.84206390380859 116.2789306640625 72.42493438720703 C 112.8541641235352 73.71855163574219 108.3500366210938 74.872314453125 102.8916854858398 75.85418701171875 C 91.61428070068359 77.88279724121094 77.09251403808594 79 62.00146484375 79 Z" stroke="none"/>
        <path d="M 62.00147247314453 78 C 77.03498077392578 78 91.49385833740234 76.88839721679688 102.7146377563477 74.86997985839844 C 108.1130218505859 73.89888763427734 112.5578155517578 72.76152801513672 115.9255828857422 71.48943328857422 C 120.0672149658203 69.92503356933594 121.3798370361328 68.60709381103516 121.7936553955078 67.96072387695312 L 122 67.63841247558594 L 122 2 L 2 2 L 2 67.63915252685547 L 2.205854654312134 67.96067047119141 C 2.619690895080566 68.60707092285156 3.932381868362427 69.92503356933594 8.074109077453613 71.48943328857422 C 11.44198226928711 72.76152801513672 15.88692760467529 73.89891052246094 21.28547286987305 74.86996459960938 C 32.50669097900391 76.88839721679688 46.96658325195312 78 62.00147247314453 78 M 62.00147247314453 80 C 30.4955997467041 80 4.480472564697266 75.22265625 0.5214909315109253 69.03907012939453 L 0 69.03907012939453 L 0 0 L 124 0 L 124 69.03907012939453 L 123.4780349731445 69.03907012939453 C 119.519287109375 75.22265625 93.50414276123047 80 62.00147247314453 80 Z" stroke="none" fill="#1e535a"/>
      </g>
      <g id="Trazado_1285162" data-name="Trazado 1285162" transform="translate(421 13568)" fill="#69d7e5" stroke-linecap="round">
        <path d="M 62.00146484375 79 C 46.90903472900391 79 32.38628387451172 77.88279724121094 21.10843276977539 75.85418701171875 C 15.64990043640137 74.872314453125 11.14563369750977 73.71855163574219 7.720766544342041 72.42493438720703 C 3.530149936676025 70.84206390380859 1.950716614723206 69.41680145263672 1.363666653633118 68.49987030029297 L 1.068633317947388 68.03907012939453 L 1 68.03907012939453 L 1 67.39746856689453 L 1 1 L 123 1 L 123 68.03907012939453 L 122.9308700561523 68.03907012939453 L 122.6358337402344 68.49990081787109 C 122.0488357543945 69.41680145263672 120.4694671630859 70.84206390380859 116.2789306640625 72.42493438720703 C 112.8541641235352 73.71855163574219 108.3500366210938 74.872314453125 102.8916854858398 75.85418701171875 C 91.61428070068359 77.88279724121094 77.09251403808594 79 62.00146484375 79 Z" stroke="none"/>
        <path d="M 62.00147247314453 78 C 77.03498077392578 78 91.49385833740234 76.88839721679688 102.7146377563477 74.86997985839844 C 108.1130218505859 73.89888763427734 112.5578155517578 72.76152801513672 115.9255828857422 71.48943328857422 C 120.0672149658203 69.92503356933594 121.3798370361328 68.60709381103516 121.7936553955078 67.96072387695312 L 122 67.63841247558594 L 122 2 L 2 2 L 2 67.63915252685547 L 2.205854654312134 67.96067047119141 C 2.619690895080566 68.60707092285156 3.932381868362427 69.92503356933594 8.074109077453613 71.48943328857422 C 11.44198226928711 72.76152801513672 15.88692760467529 73.89891052246094 21.28547286987305 74.86996459960938 C 32.50669097900391 76.88839721679688 46.96658325195312 78 62.00147247314453 78 M 62.00147247314453 80 C 30.4955997467041 80 4.480472564697266 75.22265625 0.5214909315109253 69.03907012939453 L 0 69.03907012939453 L 0 0 L 124 0 L 124 69.03907012939453 L 123.4780349731445 69.03907012939453 C 119.519287109375 75.22265625 93.50414276123047 80 62.00147247314453 80 Z" stroke="none" fill="#1e535a"/>
      </g>
      <g id="Trazado_1285163" data-name="Trazado 1285163" transform="translate(738 13406)" fill="#a4e7f0">
        <path d="M 62 24 C 45.5035514831543 24 30.00418281555176 22.70678329467773 18.35701751708984 20.35856628417969 C 5.559700012207031 17.77846717834473 1 14.60735034942627 1 12.5 C 1 10.39264965057373 5.559700012207031 7.221533298492432 18.35701751708984 4.641433238983154 C 30.00418281555176 2.293216705322266 45.5035514831543 1 62 1 C 78.49645233154297 1 93.99581909179688 2.293216705322266 105.6429824829102 4.641433238983154 C 118.440299987793 7.221533298492432 123 10.39264965057373 123 12.5 C 123 14.60735034942627 118.440299987793 17.77846717834473 105.6429824829102 20.35856628417969 C 93.99581909179688 22.70678329467773 78.49645233154297 24 62 24 Z" stroke="none"/>
        <path d="M 62 2 C 45.56790924072266 2 30.13872528076172 3.286218643188477 18.55465698242188 5.621709823608398 C 13.09934234619141 6.721582412719727 8.665634155273438 8.041854858398438 5.732833862304688 9.439818382263184 C 2.977615356445312 10.75314521789551 2 11.9091272354126 2 12.5 C 2 13.0908727645874 2.977615356445312 14.24685478210449 5.732833862304688 15.56018161773682 C 8.665634155273438 16.95814514160156 13.09934234619141 18.27841758728027 18.55465698242188 19.37829208374023 C 30.13872528076172 21.71378135681152 45.56790924072266 23 62 23 C 78.43209075927734 23 93.86127471923828 21.71378135681152 105.4453430175781 19.37829208374023 C 110.9006576538086 18.27841758728027 115.3343658447266 16.95814514160156 118.2671661376953 15.56018161773682 C 121.0223846435547 14.24685478210449 122 13.0908727645874 122 12.5 C 122 11.9091272354126 121.0223846435547 10.75314521789551 118.2671661376953 9.439818382263184 C 115.3343658447266 8.041854858398438 110.9006576538086 6.721582412719727 105.4453430175781 5.621709823608398 C 93.86127471923828 3.286218643188477 78.43209075927734 2 62 2 M 62 0 C 96.24165344238281 0 124 5.596435546875 124 12.5 C 124 19.403564453125 96.24165344238281 25 62 25 C 27.75834655761719 25 0 19.403564453125 0 12.5 C 0 5.596435546875 27.75834655761719 0 62 0 Z" stroke="none" fill="#1e535a"/>
      </g>
      <g id="Trazado_1285164" data-name="Trazado 1285164" transform="translate(421 13556)" fill="#a4e7f0">
        <path d="M 62 24 C 45.5035514831543 24 30.00418281555176 22.70678329467773 18.35701751708984 20.35856628417969 C 5.559700012207031 17.77846717834473 1 14.60735034942627 1 12.5 C 1 10.39264965057373 5.559700012207031 7.221533298492432 18.35701751708984 4.641433238983154 C 30.00418281555176 2.293216705322266 45.5035514831543 1 62 1 C 78.49645233154297 1 93.99581909179688 2.293216705322266 105.6429824829102 4.641433238983154 C 118.440299987793 7.221533298492432 123 10.39264965057373 123 12.5 C 123 14.60735034942627 118.440299987793 17.77846717834473 105.6429824829102 20.35856628417969 C 93.99581909179688 22.70678329467773 78.49645233154297 24 62 24 Z" stroke="none"/>
        <path d="M 62 2 C 45.56790924072266 2 30.13872528076172 3.286218643188477 18.55465698242188 5.621709823608398 C 13.09934234619141 6.721582412719727 8.665634155273438 8.041854858398438 5.732833862304688 9.439818382263184 C 2.977615356445312 10.75314521789551 2 11.9091272354126 2 12.5 C 2 13.0908727645874 2.977615356445312 14.24685478210449 5.732833862304688 15.56018161773682 C 8.665634155273438 16.95814514160156 13.09934234619141 18.27841758728027 18.55465698242188 19.37829208374023 C 30.13872528076172 21.71378135681152 45.56790924072266 23 62 23 C 78.43209075927734 23 93.86127471923828 21.71378135681152 105.4453430175781 19.37829208374023 C 110.9006576538086 18.27841758728027 115.3343658447266 16.95814514160156 118.2671661376953 15.56018161773682 C 121.0223846435547 14.24685478210449 122 13.0908727645874 122 12.5 C 122 11.9091272354126 121.0223846435547 10.75314521789551 118.2671661376953 9.439818382263184 C 115.3343658447266 8.041854858398438 110.9006576538086 6.721582412719727 105.4453430175781 5.621709823608398 C 93.86127471923828 3.286218643188477 78.43209075927734 2 62 2 M 62 0 C 96.24165344238281 0 124 5.596435546875 124 12.5 C 124 19.403564453125 96.24165344238281 25 62 25 C 27.75834655761719 25 0 19.403564453125 0 12.5 C 0 5.596435546875 27.75834655761719 0 62 0 Z" stroke="none" fill="#1e535a"/>
      </g>
      <path id="Trazado_1285165" data-name="Trazado 1285165" d="M12.672,13.061H7.89V18H5.4V5.914h7.869V7.931H7.89v3.121h4.781ZM17.362,18h-2.49V5.914h2.49Zm4.8-2h5.288v2H19.669V5.914h2.49Zm13.987-3.237H31.365V16h5.611v2h-8.1V5.914H36.96V7.931H31.365v2.88h4.781ZM48,16.473a4.322,4.322,0,0,1-1.9,1.249,7.961,7.961,0,0,1-2.723.444,5.393,5.393,0,0,1-2.752-.685A4.568,4.568,0,0,1,38.8,15.493a7,7,0,0,1-.66-3.063v-.822a7.431,7.431,0,0,1,.61-3.134,4.513,4.513,0,0,1,1.76-2.025,5.794,5.794,0,0,1,6.055.324A4.381,4.381,0,0,1,48,9.757H45.576a2.41,2.41,0,0,0-.735-1.519,2.346,2.346,0,0,0-1.565-.481,2.208,2.208,0,0,0-1.934.955,5.02,5.02,0,0,0-.672,2.839v.772a4.778,4.778,0,0,0,.722,2.872,2.473,2.473,0,0,0,2.117.971,2.762,2.762,0,0,0,2-.6V13.484H43.243V11.65H48Zm6.491-2.9H52.507V18h-2.49V5.914h4.491a5.076,5.076,0,0,1,3.3.955,3.3,3.3,0,0,1,1.162,2.7,3.718,3.718,0,0,1-.535,2.063,3.651,3.651,0,0,1-1.623,1.316l2.615,4.939V18H56.757Zm-1.984-2.017h2.009a2.057,2.057,0,0,0,1.453-.477,1.706,1.706,0,0,0,.515-1.316A1.826,1.826,0,0,0,56,8.421a2.018,2.018,0,0,0-1.49-.49h-2Zm18.287.672a7.3,7.3,0,0,1-.631,3.129,4.751,4.751,0,0,1-1.805,2.075,5.335,5.335,0,0,1-5.375.008,4.8,4.8,0,0,1-1.826-2.063A7.087,7.087,0,0,1,60.5,12.3v-.6a7.258,7.258,0,0,1,.643-3.142,4.79,4.79,0,0,1,1.818-2.083,5.327,5.327,0,0,1,5.371,0A4.79,4.79,0,0,1,70.15,8.558a7.237,7.237,0,0,1,.643,3.134Zm-2.523-.548a5.086,5.086,0,0,0-.681-2.889,2.4,2.4,0,0,0-3.876-.012,5.028,5.028,0,0,0-.689,2.86v.589A5.15,5.15,0,0,0,63.7,15.1a2.383,2.383,0,0,0,3.885.037,5.12,5.12,0,0,0,.681-2.868Zm13.48-5.769v7.96a4.076,4.076,0,0,1-1.241,3.138,4.784,4.784,0,0,1-3.391,1.154,4.838,4.838,0,0,1-3.362-1.121,4.006,4.006,0,0,1-1.27-3.08V5.914h2.49v7.977a2.3,2.3,0,0,0,.569,1.731,2.183,2.183,0,0,0,1.573.544q2.1,0,2.133-2.208V5.914Zm4.532,7.828V18h-2.49V5.914h4.715a5.455,5.455,0,0,1,2.395.5,3.67,3.67,0,0,1,1.59,1.415,3.946,3.946,0,0,1,.556,2.088,3.47,3.47,0,0,1-1.216,2.8,5.065,5.065,0,0,1-3.366,1.025Zm0-2.017h2.225a2.187,2.187,0,0,0,1.507-.465,1.691,1.691,0,0,0,.519-1.328A1.994,1.994,0,0,0,90.01,8.5a1.953,1.953,0,0,0-1.444-.564H86.283Z" transform="translate(751 13450)" fill="#12263f"/>
      <g id="Trazado_1285166" data-name="Trazado 1285166" transform="translate(421 13493)" fill="#69d7e5" stroke-linecap="round">
        <path d="M 62.00146484375 79 C 46.90903472900391 79 32.38628387451172 77.88279724121094 21.10843276977539 75.85418701171875 C 15.64990043640137 74.872314453125 11.14563369750977 73.71855163574219 7.720766544342041 72.42493438720703 C 3.530149936676025 70.84206390380859 1.950716614723206 69.41680145263672 1.363666653633118 68.49987030029297 L 1.068633317947388 68.03907012939453 L 1 68.03907012939453 L 1 67.39746856689453 L 1 1 L 123 1 L 123 68.03907012939453 L 122.9308700561523 68.03907012939453 L 122.6358337402344 68.49990081787109 C 122.0488357543945 69.41680145263672 120.4694671630859 70.84206390380859 116.2789306640625 72.42493438720703 C 112.8541641235352 73.71855163574219 108.3500366210938 74.872314453125 102.8916854858398 75.85418701171875 C 91.61428070068359 77.88279724121094 77.09251403808594 79 62.00146484375 79 Z" stroke="none"/>
        <path d="M 62.00147247314453 78 C 77.03498077392578 78 91.49385833740234 76.88839721679688 102.7146377563477 74.86997985839844 C 108.1130218505859 73.89888763427734 112.5578155517578 72.76152801513672 115.9255828857422 71.48943328857422 C 120.0672149658203 69.92503356933594 121.3798370361328 68.60709381103516 121.7936553955078 67.96072387695312 L 122 67.63841247558594 L 122 2 L 2 2 L 2 67.63915252685547 L 2.205854654312134 67.96067047119141 C 2.619690895080566 68.60707092285156 3.932381868362427 69.92503356933594 8.074109077453613 71.48943328857422 C 11.44198226928711 72.76152801513672 15.88692760467529 73.89891052246094 21.28547286987305 74.86996459960938 C 32.50669097900391 76.88839721679688 46.96658325195312 78 62.00147247314453 78 M 62.00147247314453 80 C 30.4955997467041 80 4.480472564697266 75.22265625 0.5214909315109253 69.03907012939453 L 0 69.03907012939453 L 0 0 L 124 0 L 124 69.03907012939453 L 123.4780349731445 69.03907012939453 C 119.519287109375 75.22265625 93.50414276123047 80 62.00147247314453 80 Z" stroke="none" fill="#1e535a"/>
      </g>
      <g id="Trazado_1285167" data-name="Trazado 1285167" transform="translate(421 13481)" fill="#a4e7f0">
        <path d="M 62 24 C 45.5035514831543 24 30.00418281555176 22.70678329467773 18.35701751708984 20.35856628417969 C 5.559700012207031 17.77846717834473 1 14.60735034942627 1 12.5 C 1 10.39264965057373 5.559700012207031 7.221533298492432 18.35701751708984 4.641433238983154 C 30.00418281555176 2.293216705322266 45.5035514831543 1 62 1 C 78.49645233154297 1 93.99581909179688 2.293216705322266 105.6429824829102 4.641433238983154 C 118.440299987793 7.221533298492432 123 10.39264965057373 123 12.5 C 123 14.60735034942627 118.440299987793 17.77846717834473 105.6429824829102 20.35856628417969 C 93.99581909179688 22.70678329467773 78.49645233154297 24 62 24 Z" stroke="none"/>
        <path d="M 62 2 C 45.56790924072266 2 30.13872528076172 3.286218643188477 18.55465698242188 5.621709823608398 C 13.09934234619141 6.721582412719727 8.665634155273438 8.041854858398438 5.732833862304688 9.439818382263184 C 2.977615356445312 10.75314521789551 2 11.9091272354126 2 12.5 C 2 13.0908727645874 2.977615356445312 14.24685478210449 5.732833862304688 15.56018161773682 C 8.665634155273438 16.95814514160156 13.09934234619141 18.27841758728027 18.55465698242188 19.37829208374023 C 30.13872528076172 21.71378135681152 45.56790924072266 23 62 23 C 78.43209075927734 23 93.86127471923828 21.71378135681152 105.4453430175781 19.37829208374023 C 110.9006576538086 18.27841758728027 115.3343658447266 16.95814514160156 118.2671661376953 15.56018161773682 C 121.0223846435547 14.24685478210449 122 13.0908727645874 122 12.5 C 122 11.9091272354126 121.0223846435547 10.75314521789551 118.2671661376953 9.439818382263184 C 115.3343658447266 8.041854858398438 110.9006576538086 6.721582412719727 105.4453430175781 5.621709823608398 C 93.86127471923828 3.286218643188477 78.43209075927734 2 62 2 M 62 0 C 96.24165344238281 0 124 5.596435546875 124 12.5 C 124 19.403564453125 96.24165344238281 25 62 25 C 27.75834655761719 25 0 19.403564453125 0 12.5 C 0 5.596435546875 27.75834655761719 0 62 0 Z" stroke="none" fill="#1e535a"/>
      </g>
      <path id="Trazado_1285168" data-name="Trazado 1285168" d="M7.7,18V5.914h3.719a5.647,5.647,0,0,1,2.851.718,5.007,5.007,0,0,1,1.963,2.042,6.3,6.3,0,0,1,.706,3.009v.556a6.316,6.316,0,0,1-.693,3,4.964,4.964,0,0,1-1.955,2.034,5.69,5.69,0,0,1-2.847.73Zm2.49-10.069V16h1.2a2.7,2.7,0,0,0,2.233-.955,4.314,4.314,0,0,0,.789-2.731v-.639a4.382,4.382,0,0,0-.764-2.793,2.7,2.7,0,0,0-2.233-.95ZM25.575,15.51H21.209L20.379,18H17.731l4.5-12.086h2.308L29.062,18H26.414Zm-3.694-2.017H24.9L23.384,8.969ZM38.292,7.931h-3.7V18H32.1V7.931H28.447V5.914h9.845Zm7.247,7.579H41.172L40.342,18H37.694l4.5-12.086H44.5L49.025,18H46.377Zm-3.694-2.017h3.021L43.347,8.969ZM50.154,18V5.914h4.233a5.559,5.559,0,0,1,3.337.843,2.881,2.881,0,0,1,1.137,2.469,2.731,2.731,0,0,1-.457,1.565,2.637,2.637,0,0,1-1.27.992,2.551,2.551,0,0,1,1.465.938,2.773,2.773,0,0,1,.535,1.727,3.19,3.19,0,0,1-1.112,2.64A5.007,5.007,0,0,1,54.852,18Zm2.49-5.263V16h2.133a2.059,2.059,0,0,0,1.374-.419,1.437,1.437,0,0,0,.494-1.158,1.518,1.518,0,0,0-1.718-1.685Zm0-1.76h1.843q1.884-.033,1.884-1.5a1.388,1.388,0,0,0-.477-1.183,2.51,2.51,0,0,0-1.507-.361H52.644ZM67.826,15.51H63.46L62.63,18H59.982l4.5-12.086h2.308L71.313,18H68.665Zm-3.694-2.017h3.021L65.635,8.969Zm14.576,1.336a1.278,1.278,0,0,0-.5-1.083,6.533,6.533,0,0,0-1.793-.8,12.71,12.71,0,0,1-2.05-.826,3.35,3.35,0,0,1-2.059-3,2.919,2.919,0,0,1,.552-1.747,3.6,3.6,0,0,1,1.585-1.2,5.967,5.967,0,0,1,2.32-.432,5.432,5.432,0,0,1,2.308.469,3.674,3.674,0,0,1,1.573,1.324,3.464,3.464,0,0,1,.56,1.942h-2.49a1.63,1.63,0,0,0-.523-1.291,2.15,2.15,0,0,0-1.469-.461,2.3,2.3,0,0,0-1.419.386A1.217,1.217,0,0,0,74.8,9.135a1.166,1.166,0,0,0,.594.988,6.705,6.705,0,0,0,1.747.747,7.55,7.55,0,0,1,3.1,1.585,3.157,3.157,0,0,1,.971,2.357,2.909,2.909,0,0,1-1.187,2.461,5.2,5.2,0,0,1-3.2.892,6.171,6.171,0,0,1-2.54-.51,4.019,4.019,0,0,1-1.747-1.4,3.582,3.582,0,0,1-.6-2.059h2.5q0,2,2.391,2a2.326,2.326,0,0,0,1.386-.361A1.175,1.175,0,0,0,78.708,14.829Zm11.455-2.067H85.382V16h5.611v2h-8.1V5.914h8.085V7.931H85.382v2.88h4.781Z" transform="translate(434 13525)" fill="#12263f"/>
      <g id="Trazado_1285169" data-name="Trazado 1285169" transform="translate(421 13418)" fill="#69d7e5" stroke-linecap="round">
        <path d="M 62.00146484375 79 C 46.90903472900391 79 32.38628387451172 77.88279724121094 21.10843276977539 75.85418701171875 C 15.64990043640137 74.872314453125 11.14563369750977 73.71855163574219 7.720766544342041 72.42493438720703 C 3.530149936676025 70.84206390380859 1.950716614723206 69.41680145263672 1.363666653633118 68.49987030029297 L 1.068633317947388 68.03907012939453 L 1 68.03907012939453 L 1 67.39746856689453 L 1 1 L 123 1 L 123 68.03907012939453 L 122.9308700561523 68.03907012939453 L 122.6358337402344 68.49990081787109 C 122.0488357543945 69.41680145263672 120.4694671630859 70.84206390380859 116.2789306640625 72.42493438720703 C 112.8541641235352 73.71855163574219 108.3500366210938 74.872314453125 102.8916854858398 75.85418701171875 C 91.61428070068359 77.88279724121094 77.09251403808594 79 62.00146484375 79 Z" stroke="none"/>
        <path d="M 62.00147247314453 78 C 77.03498077392578 78 91.49385833740234 76.88839721679688 102.7146377563477 74.86997985839844 C 108.1130218505859 73.89888763427734 112.5578155517578 72.76152801513672 115.9255828857422 71.48943328857422 C 120.0672149658203 69.92503356933594 121.3798370361328 68.60709381103516 121.7936553955078 67.96072387695312 L 122 67.63841247558594 L 122 2 L 2 2 L 2 67.63915252685547 L 2.205854654312134 67.96067047119141 C 2.619690895080566 68.60707092285156 3.932381868362427 69.92503356933594 8.074109077453613 71.48943328857422 C 11.44198226928711 72.76152801513672 15.88692760467529 73.89891052246094 21.28547286987305 74.86996459960938 C 32.50669097900391 76.88839721679688 46.96658325195312 78 62.00147247314453 78 M 62.00147247314453 80 C 30.4955997467041 80 4.480472564697266 75.22265625 0.5214909315109253 69.03907012939453 L 0 69.03907012939453 L 0 0 L 124 0 L 124 69.03907012939453 L 123.4780349731445 69.03907012939453 C 119.519287109375 75.22265625 93.50414276123047 80 62.00147247314453 80 Z" stroke="none" fill="#1e535a"/>
      </g>
      <g id="Trazado_1285170" data-name="Trazado 1285170" transform="translate(421 13406)" fill="#a4e7f0">
        <path d="M 62 24 C 45.5035514831543 24 30.00418281555176 22.70678329467773 18.35701751708984 20.35856628417969 C 5.559700012207031 17.77846717834473 1 14.60735034942627 1 12.5 C 1 10.39264965057373 5.559700012207031 7.221533298492432 18.35701751708984 4.641433238983154 C 30.00418281555176 2.293216705322266 45.5035514831543 1 62 1 C 78.49645233154297 1 93.99581909179688 2.293216705322266 105.6429824829102 4.641433238983154 C 118.440299987793 7.221533298492432 123 10.39264965057373 123 12.5 C 123 14.60735034942627 118.440299987793 17.77846717834473 105.6429824829102 20.35856628417969 C 93.99581909179688 22.70678329467773 78.49645233154297 24 62 24 Z" stroke="none"/>
        <path d="M 62 2 C 45.56790924072266 2 30.13872528076172 3.286218643188477 18.55465698242188 5.621709823608398 C 13.09934234619141 6.721582412719727 8.665634155273438 8.041854858398438 5.732833862304688 9.439818382263184 C 2.977615356445312 10.75314521789551 2 11.9091272354126 2 12.5 C 2 13.0908727645874 2.977615356445312 14.24685478210449 5.732833862304688 15.56018161773682 C 8.665634155273438 16.95814514160156 13.09934234619141 18.27841758728027 18.55465698242188 19.37829208374023 C 30.13872528076172 21.71378135681152 45.56790924072266 23 62 23 C 78.43209075927734 23 93.86127471923828 21.71378135681152 105.4453430175781 19.37829208374023 C 110.9006576538086 18.27841758728027 115.3343658447266 16.95814514160156 118.2671661376953 15.56018161773682 C 121.0223846435547 14.24685478210449 122 13.0908727645874 122 12.5 C 122 11.9091272354126 121.0223846435547 10.75314521789551 118.2671661376953 9.439818382263184 C 115.3343658447266 8.041854858398438 110.9006576538086 6.721582412719727 105.4453430175781 5.621709823608398 C 93.86127471923828 3.286218643188477 78.43209075927734 2 62 2 M 62 0 C 96.24165344238281 0 124 5.596435546875 124 12.5 C 124 19.403564453125 96.24165344238281 25 62 25 C 27.75834655761719 25 0 19.403564453125 0 12.5 C 0 5.596435546875 27.75834655761719 0 62 0 Z" stroke="none" fill="#1e535a"/>
      </g>
    </g>
  </g>
</svg>
