<svg xmlns="http://www.w3.org/2000/svg" xmlns:xlink="http://www.w3.org/1999/xlink" width="128" height="128" viewBox="0 0 128 128">
  <defs>
    <clipPath id="clip-path">
      <rect id="Rectángulo_454829" data-name="Rectángulo 454829" width="128" height="128" fill="#1e535a"/>
    </clipPath>
    <clipPath id="clip-path-2">
      <rect id="Rectángulo_465021" data-name="Rectángulo 465021" width="51.421" height="43.67" fill="#1e535a"/>
    </clipPath>
  </defs>
  <g id="Grupo_1211636" data-name="Grupo 1211636" transform="translate(-186 -4323.945)">
    <g id="Grupo_1177591" data-name="Grupo 1177591" transform="translate(186 4323.945)">
      <g id="Grupo_1177589" data-name="Grupo 1177589" transform="translate(0 0)">
        <g id="Grupo_1177587" data-name="Grupo 1177587" clip-path="url(#clip-path)">
          <path id="Trazado_997422" data-name="Trazado 997422" d="M122.774,56.654a58.848,58.848,0,0,0-13.293-30.623,6.768,6.768,0,0,0-9.523-9.118A58.761,58.761,0,0,0,69.535,5.027a6.769,6.769,0,0,0-13.148.267A58.842,58.842,0,0,0,27.2,17.772a6.771,6.771,0,0,0-9.4,9.462A58.794,58.794,0,0,0,5.483,56.6a6.774,6.774,0,0,0-.162,13.266A58.776,58.776,0,0,0,17.252,99.82a6.771,6.771,0,0,0,9.2,9.56,58.838,58.838,0,0,0,29.883,13.07,6.771,6.771,0,0,0,13.266.267,58.788,58.788,0,0,0,30.646-12.107,6.769,6.769,0,0,0,9.476-9.165A58.863,58.863,0,0,0,122.933,69.8a6.771,6.771,0,0,0-.159-13.144m-19.12-27.288a6.733,6.733,0,0,0,3.75-1.135,55.884,55.884,0,0,1,12.333,28.407,6.781,6.781,0,0,0-4.327,3.135L98.1,53.283c.013-.189.027-.382.027-.578a6.772,6.772,0,0,0-2.868-5.533l7.57-17.86a7.335,7.335,0,0,0,.821.054M100,28.288,92.472,46.03a6.7,6.7,0,0,0-7.459,4.307L53.705,43.125a6.588,6.588,0,0,0-.142-1.348L97.992,26.305a6.793,6.793,0,0,0,2,1.983M63,13.553a6.777,6.777,0,0,0,6.651-5.5A55.792,55.792,0,0,1,97.857,19.09a6.739,6.739,0,0,0-.98,3.5,7.114,7.114,0,0,0,.064.9L52.29,39.031A6.8,6.8,0,0,0,51.064,37.8L62.775,13.543c.074,0,.145.01.22.01M56.4,8.324a6.778,6.778,0,0,0,3.409,4.435L48.331,36.538a6.8,6.8,0,0,0-1.4-.145,6.727,6.727,0,0,0-3.861,1.213L29.461,26.238A6.736,6.736,0,0,0,29.231,20,55.836,55.836,0,0,1,56.4,8.324M13.387,61.776l28.15-14.519a6.751,6.751,0,0,0,5.341,2.686l9.648,30.839a6.887,6.887,0,0,0-1.493,1.652L13.3,65.046a6.731,6.731,0,0,0,.25-1.8,6.81,6.81,0,0,0-.166-1.473m6.648-32.521a6.771,6.771,0,0,0,7.564-.645L41.037,39.831a6.758,6.758,0,0,0-.747,4.682l-28.2,14.539A6.774,6.774,0,0,0,8.506,56.7,55.812,55.812,0,0,1,20.036,29.254m2.8,67.623a6.756,6.756,0,0,0-3.365.9A55.762,55.762,0,0,1,8.351,69.832a6.783,6.783,0,0,0,3.517-2.121L54.013,85.27a7.266,7.266,0,0,0-.054.814,6.775,6.775,0,0,0,.405,2.29L28.876,100.587a6.775,6.775,0,0,0-6.037-3.709m33.626,22.556a55.892,55.892,0,0,1-27.883-12.2,6.705,6.705,0,0,0,1.034-3.581l0-.078L56,90.929a6.776,6.776,0,0,0,2.392,1.51l1.581,22.725a6.776,6.776,0,0,0-3.51,4.27m2.807-39.96L49.831,49.287a6.786,6.786,0,0,0,3.219-3.219l31.562,7.266a6.736,6.736,0,0,0,1.078,3.081L64.042,80.173a6.692,6.692,0,0,0-4.77-.7M69.592,119.7a6.774,6.774,0,0,0-6.6-5.25l-.051,0-1.5-21.623a6.764,6.764,0,0,0,4.142-2.01l31.555,13.918c0,.061-.01.115-.01.176a6.743,6.743,0,0,0,1,3.534A55.789,55.789,0,0,1,69.592,119.7M97.9,101.779,67.164,88.22a6.736,6.736,0,0,0-.888-6.027L87.858,58.5a6.736,6.736,0,0,0,3.5.98,7.46,7.46,0,0,0,.831-.054l8.067,39.781a6.761,6.761,0,0,0-2.355,2.571m9.722-2.534a6.735,6.735,0,0,0-4.5-1.064l-8.07-39.8a6.8,6.8,0,0,0,2.135-2.23l17.3,6.486a6.009,6.009,0,0,0-.03.608,6.774,6.774,0,0,0,5.445,6.641A55.835,55.835,0,0,1,107.62,99.246" transform="translate(0 0.001)" fill="#1e535a"/>
        </g>
      </g>
    </g>
    <g id="Elipse_13614" data-name="Elipse 13614" transform="translate(210.273 4348.213)" fill="#fff" stroke="#1e535a" stroke-width="3">
      <ellipse cx="39.732" cy="39.733" rx="39.732" ry="39.733" stroke="none"/>
      <ellipse cx="39.732" cy="39.733" rx="38.232" ry="38.233" fill="none"/>
    </g>
    <g id="Grupo_1212123" data-name="Grupo 1212123" transform="translate(224.29 4364.687)">
      <g id="Grupo_1212122" data-name="Grupo 1212122" clip-path="url(#clip-path-2)">
        <path id="Trazado_1284314" data-name="Trazado 1284314" d="M65.525,108.147l-27.283,0,0-13.413a2.357,2.357,0,0,1,2.278-2.355H63.177a2.387,2.387,0,0,1,2.359,2.5Zm-12.779-7.725a2.07,2.07,0,0,0,1.1-2.321,2.013,2.013,0,0,0-3.918.073,2.124,2.124,0,0,0,1.115,2.277l.032,2.738a.822.822,0,0,0,.841.767c1.333-.077.594-2.38.835-3.534" transform="translate(-32.099 -77.536)" fill="#1e535a"/>
        <path id="Trazado_1284315" data-name="Trazado 1284315" d="M213.407,45.544a7.684,7.684,0,0,1-1.845,1.892c-.581.445-1.973-1.087-2.669-.733a17.637,17.637,0,0,1-2.97,1.208L205,50.227a6.733,6.733,0,0,1-2.9-.036c-.834-.3-.1-2.4-2.057-2.631a40.554,40.554,0,0,1-.061-4.7,6.342,6.342,0,1,0-2.015-8.37,3.932,3.932,0,0,1-1.081-.395c-.079-2.458.138-3.795-.488-6.184l1.527.62a15.6,15.6,0,0,1,3.118-1.291l.972-2.344a14.966,14.966,0,0,1,2.969-.007,20.84,20.84,0,0,1,.9,2.3,22.7,22.7,0,0,1,3.154,1.29c.623.131,2.085-1.276,2.584-.78a11.379,11.379,0,0,1,1.777,1.86c.354.568-1.092,1.926-.761,2.6a17.614,17.614,0,0,1,1.2,2.969l2.3.893a10.4,10.4,0,0,1,.029,3.031l-2.306.907a22.526,22.526,0,0,1-1.243,3.076c-.264.578,1.115,1.972.78,2.508" transform="translate(-164.851 -20.827)" fill="#1e535a"/>
        <path id="Trazado_1284316" data-name="Trazado 1284316" d="M74.964,10.313A7,7,0,0,0,67.8,3.52a7.094,7.094,0,0,0-6.952,6.893c-.03.947.054,1.789-.043,2.744l-3.436.018c-.066-.876-.033-1.673-.033-2.606a10.572,10.572,0,0,1,21.113-.8c.092,1.163,0,2.193.021,3.379l-3.461.013Z" transform="translate(-48.118 0)" fill="#1e535a"/>
        <path id="Trazado_1284317" data-name="Trazado 1284317" d="M38.413,212.342l-37.1,0A1.247,1.247,0,0,1,0,211.065l0-8.836a1.231,1.231,0,0,1,1.152-1.275l37.2.005a1.213,1.213,0,0,1,1.213,1.266l0,8.838a1.239,1.239,0,0,1-1.151,1.278m-30-3.192a5.889,5.889,0,0,1,.073-1.041,6.9,6.9,0,0,1,1.053.491.846.846,0,0,0,1.144-.407c.407-.95-.868-1.149-1.194-1.57.311-.263.634-.353.925-.574A.813.813,0,0,0,10.64,205a.763.763,0,0,0-.974-.37l-1.177.534a9.723,9.723,0,0,1-.1-1.167.8.8,0,0,0-1.045-.621c-.847.231-.423,1.312-.64,1.808a6.326,6.326,0,0,1-.972-.481.85.85,0,0,0-1.221.371c-.422.983.926,1.189,1.215,1.576-.564.441-1.582.624-1.213,1.554.418,1.053,1.717.006,2.2-.1.187.541-.216,1.715.767,1.819a.791.791,0,0,0,.927-.774m8.133-.091a4.125,4.125,0,0,1,.05-.978c.539.178,1.8,1.174,2.2.135a.791.791,0,0,0-.323-1.038l-.974-.541c.393-.247.739-.345,1.06-.6a.837.837,0,0,0,.111-1.184c-.585-.7-1.492.185-2.08.341-.092-.379-.009-.762-.071-1.181a.794.794,0,0,0-1-.644c-.914.186-.483,1.337-.73,1.8-.449-.129-.684-.375-1.039-.5a.817.817,0,0,0-1.115.438c-.326.882.669,1.078,1.186,1.51-.235.38-1.563.61-1.195,1.531a.819.819,0,0,0,1.129.458c.362-.131.611-.37,1.051-.5.2.51-.185,1.763.857,1.828a.806.806,0,0,0,.876-.879m8.138.119a6.538,6.538,0,0,1,.091-1.087l1.11.531a.762.762,0,0,0,1.044-.406c.35-1.032-.719-1.119-1.2-1.59.311-.261.624-.347.922-.561a.862.862,0,0,0,.228-1.1c-.492-.907-1.56.071-2.115.191a9.455,9.455,0,0,1-.088-1.1.828.828,0,0,0-.969-.7c-.921.14-.549,1.24-.778,1.786-.421-.072-.689-.372-1.088-.487a.8.8,0,0,0-1.1.549c-.2.965.872.983,1.235,1.456-.579.465-1.54.581-1.192,1.553a.773.773,0,0,0,1.043.418l1.117-.523c.213.46-.181,1.677.764,1.822a.822.822,0,0,0,.973-.752M32.9,208.1l1.046.5a.808.808,0,0,0,1.127-.41c.4-.956-.878-1.157-1.187-1.574l.929-.578a.761.761,0,0,0,.211-1.05c-.54-.925-1.584.054-2.146.18a11.39,11.39,0,0,1-.111-1.181.778.778,0,0,0-1.019-.607c-.863.209-.468,1.287-.646,1.8-.6-.215-1.774-1.143-2.19-.114-.369.915.642,1.147,1.174,1.51-.231.491-1.6.552-1.169,1.638.41,1.03,1.633.044,2.193-.127a3.426,3.426,0,0,1,.045.884.85.85,0,0,0,.875.962c1.086-.068.625-1.363.869-1.839" transform="translate(-0.001 -168.672)" fill="#1e535a"/>
      </g>
    </g>
  </g>
</svg>
