<svg xmlns="http://www.w3.org/2000/svg" width="396" height="333" viewBox="0 0 396 333">
  <g id="Grupo_1212391" data-name="Grupo 1212391" transform="translate(3764 2695)">
    <g id="Grupo_1212292" data-name="Grupo 1212292" transform="translate(-4054 -16461)">
      <path id="Trazado_1285171" data-name="Trazado 1285171" d="M18,0H378a18,18,0,0,1,18,18V315a18,18,0,0,1-18,18H18A18,18,0,0,1,0,315V18A18,18,0,0,1,18,0Z" transform="translate(290 13766)" fill="#cfe8ff"/>
      <path id="Trazado_1285172" data-name="Trazado 1285172" d="M0,0H375V39H0Z" transform="translate(301 13777)" fill="#69d7e5"/>
      <path id="Trazado_1285173" data-name="Trazado 1285173" d="M11.5,13.061H6.721V18H4.231V5.914H12.1V7.931H6.721v3.121H11.5ZM15.977,18h-2.4V9.019h2.4ZM15.271,5.375h2.615l-2.3,2.573H13.636Zm7.637,10.144a.773.773,0,0,0-.436-.693,4.95,4.95,0,0,0-1.4-.452q-3.2-.672-3.2-2.723a2.468,2.468,0,0,1,.992-2,4,4,0,0,1,2.594-.8,4.307,4.307,0,0,1,2.735.805,2.538,2.538,0,0,1,1.025,2.092h-2.4a1.161,1.161,0,0,0-.332-.851,1.405,1.405,0,0,0-1.038-.336,1.436,1.436,0,0,0-.938.274.865.865,0,0,0-.332.7.739.739,0,0,0,.378.643,3.885,3.885,0,0,0,1.274.423,10.407,10.407,0,0,1,1.511.4,2.482,2.482,0,0,1,1.9,2.416,2.343,2.343,0,0,1-1.054,1.988,4.548,4.548,0,0,1-2.723.76,4.75,4.75,0,0,1-2-.4,3.363,3.363,0,0,1-1.374-1.1,2.565,2.565,0,0,1-.5-1.515h2.274a1.252,1.252,0,0,0,.473.979,1.877,1.877,0,0,0,1.179.34,1.737,1.737,0,0,0,1.042-.261A.814.814,0,0,0,22.908,15.518ZM29.316,18H26.909V9.019h2.407ZM26.768,6.694a1.181,1.181,0,0,1,.361-.888,1.556,1.556,0,0,1,1.963,0,1.175,1.175,0,0,1,.365.888,1.178,1.178,0,0,1-.369.9,1.539,1.539,0,0,1-1.951,0A1.178,1.178,0,0,1,26.768,6.694Zm8.259,9.538a1.573,1.573,0,0,0,1.079-.365,1.28,1.28,0,0,0,.432-.971h2.25a3.077,3.077,0,0,1-.5,1.673,3.286,3.286,0,0,1-1.341,1.179,4.2,4.2,0,0,1-1.88.419,3.9,3.9,0,0,1-3.038-1.224,4.845,4.845,0,0,1-1.112-3.383V13.4a4.79,4.79,0,0,1,1.1-3.312,3.854,3.854,0,0,1,3.03-1.237,3.778,3.778,0,0,1,2.7.959,3.4,3.4,0,0,1,1.033,2.552h-2.25a1.648,1.648,0,0,0-.432-1.139,1.6,1.6,0,0,0-2.362.173,3.541,3.541,0,0,0-.427,1.983v.249a3.586,3.586,0,0,0,.423,2A1.463,1.463,0,0,0,35.027,16.232Zm4.756-2.806a5.327,5.327,0,0,1,.515-2.382A3.767,3.767,0,0,1,41.78,9.425a4.323,4.323,0,0,1,2.245-.573,4.09,4.09,0,0,1,2.968,1.112,4.464,4.464,0,0,1,1.282,3.021l.017.614a4.694,4.694,0,0,1-1.154,3.316,4.472,4.472,0,0,1-6.2,0,4.777,4.777,0,0,1-1.158-3.387Zm2.4.17a3.357,3.357,0,0,0,.481,1.958,1.73,1.73,0,0,0,2.739.008,3.674,3.674,0,0,0,.49-2.141,3.324,3.324,0,0,0-.49-1.945,1.592,1.592,0,0,0-1.378-.69,1.566,1.566,0,0,0-1.361.686A3.735,3.735,0,0,0,42.182,13.6Z" transform="translate(587 13785)" fill="#12263f"/>
      <path id="Trazado_1285174" data-name="Trazado 1285174" d="M15.116,16.473a4.322,4.322,0,0,1-1.9,1.249,7.961,7.961,0,0,1-2.723.444,5.393,5.393,0,0,1-2.752-.685,4.568,4.568,0,0,1-1.826-1.988,7,7,0,0,1-.66-3.063v-.822a7.431,7.431,0,0,1,.61-3.134,4.513,4.513,0,0,1,1.76-2.025,5.069,5.069,0,0,1,2.694-.7A5.048,5.048,0,0,1,13.68,6.773a4.381,4.381,0,0,1,1.436,2.984H12.692a2.41,2.41,0,0,0-.735-1.519,2.346,2.346,0,0,0-1.565-.481,2.208,2.208,0,0,0-1.934.955,5.02,5.02,0,0,0-.672,2.839v.772a4.778,4.778,0,0,0,.722,2.872,2.473,2.473,0,0,0,2.117.971,2.762,2.762,0,0,0,2-.6V13.484H10.359V11.65h4.756Zm5.993,1.693a4.409,4.409,0,0,1-3.217-1.212,4.308,4.308,0,0,1-1.241-3.229v-.232a5.426,5.426,0,0,1,.523-2.42,3.838,3.838,0,0,1,1.482-1.644,4.159,4.159,0,0,1,2.187-.577,3.727,3.727,0,0,1,2.9,1.162,4.722,4.722,0,0,1,1.058,3.3v.979H19.083a2.229,2.229,0,0,0,.7,1.411,2.12,2.12,0,0,0,1.482.531,2.589,2.589,0,0,0,2.167-1l1.179,1.32a3.6,3.6,0,0,1-1.461,1.191A4.793,4.793,0,0,1,21.109,18.166Zm-.274-7.379a1.5,1.5,0,0,0-1.158.484,2.5,2.5,0,0,0-.569,1.384h3.337v-.192a1.786,1.786,0,0,0-.432-1.238A1.547,1.547,0,0,0,20.835,10.787Zm7.537-1.768.075,1.038a3.136,3.136,0,0,1,2.582-1.2,2.606,2.606,0,0,1,2.125.838,3.912,3.912,0,0,1,.714,2.507V18h-2.4V12.256a1.556,1.556,0,0,0-.332-1.108,1.486,1.486,0,0,0-1.1-.344,1.65,1.65,0,0,0-1.519.863V18h-2.4V9.019Zm11.447,9.147A4.409,4.409,0,0,1,36.6,16.954a4.308,4.308,0,0,1-1.241-3.229v-.232a5.426,5.426,0,0,1,.523-2.42,3.838,3.838,0,0,1,1.482-1.644,4.159,4.159,0,0,1,2.187-.577,3.727,3.727,0,0,1,2.9,1.162,4.722,4.722,0,0,1,1.058,3.3v.979H37.793a2.229,2.229,0,0,0,.7,1.411,2.12,2.12,0,0,0,1.482.531,2.589,2.589,0,0,0,2.167-1l1.179,1.32a3.6,3.6,0,0,1-1.461,1.191A4.793,4.793,0,0,1,39.819,18.166Zm-.274-7.379a1.5,1.5,0,0,0-1.158.484,2.5,2.5,0,0,0-.569,1.384h3.337v-.192a1.786,1.786,0,0,0-.432-1.238A1.547,1.547,0,0,0,39.545,10.787Zm10.376.481a6.517,6.517,0,0,0-.863-.066,1.757,1.757,0,0,0-1.785.921V18h-2.4V9.019H47.14l.066,1.071a2.223,2.223,0,0,1,2-1.237,2.514,2.514,0,0,1,.747.108ZM56.03,18a2.664,2.664,0,0,1-.241-.805,2.9,2.9,0,0,1-2.266.971,3.189,3.189,0,0,1-2.187-.764,2.456,2.456,0,0,1-.867-1.926,2.538,2.538,0,0,1,1.058-2.191,5.222,5.222,0,0,1,3.059-.772h1.1V12a1.48,1.48,0,0,0-.32-1,1.257,1.257,0,0,0-1.009-.374,1.429,1.429,0,0,0-.95.291.987.987,0,0,0-.344.8h-2.4a2.41,2.41,0,0,1,.481-1.444A3.182,3.182,0,0,1,52.511,9.23a4.961,4.961,0,0,1,1.976-.378,3.92,3.92,0,0,1,2.635.834,2.918,2.918,0,0,1,.975,2.345v3.893a4.294,4.294,0,0,0,.357,1.934V18Zm-1.984-1.668a2.066,2.066,0,0,0,.979-.237,1.554,1.554,0,0,0,.664-.635V13.916h-.9q-1.8,0-1.917,1.245l-.008.141a.96.96,0,0,0,.315.739A1.225,1.225,0,0,0,54.046,16.332ZM62.472,18H60.064V5.25h2.407Z" transform="translate(330 13785)" fill="#12263f"/>
      <path id="Trazado_1285175" data-name="Trazado 1285175" d="M5.816,16H11.1v2H3.326V5.914h2.49ZM12,13.426a5.327,5.327,0,0,1,.515-2.382A3.768,3.768,0,0,1,14,9.425a4.323,4.323,0,0,1,2.245-.573,4.09,4.09,0,0,1,2.968,1.112,4.464,4.464,0,0,1,1.282,3.021l.017.614a4.694,4.694,0,0,1-1.154,3.316,4.011,4.011,0,0,1-3.1,1.249,4.031,4.031,0,0,1-3.1-1.245A4.777,4.777,0,0,1,12,13.534Zm2.4.17a3.357,3.357,0,0,0,.481,1.958,1.73,1.73,0,0,0,2.739.008,3.674,3.674,0,0,0,.49-2.141,3.324,3.324,0,0,0-.49-1.945,1.592,1.592,0,0,0-1.378-.69,1.566,1.566,0,0,0-1.361.686A3.735,3.735,0,0,0,14.4,13.6ZM16.715,5.25H19.33l-2.3,2.573H15.08Zm4.922,8.193a5.264,5.264,0,0,1,.984-3.329,3.187,3.187,0,0,1,2.652-1.262,2.8,2.8,0,0,1,2.3,1.013l.1-.847h2.175V17.7a3.839,3.839,0,0,1-.535,2.05A3.439,3.439,0,0,1,27.8,21.08a5.3,5.3,0,0,1-2.274.457,4.925,4.925,0,0,1-1.926-.394,3.418,3.418,0,0,1-1.419-1.017l1.063-1.461a2.81,2.81,0,0,0,2.175,1,2.057,2.057,0,0,0,1.486-.51,1.915,1.915,0,0,0,.531-1.448v-.481a2.775,2.775,0,0,1-2.183.938A3.179,3.179,0,0,1,22.638,16.9a5.262,5.262,0,0,1-1-3.358Zm2.4.179a3.278,3.278,0,0,0,.49,1.916,1.558,1.558,0,0,0,1.345.694,1.666,1.666,0,0,0,1.569-.823V11.626a1.662,1.662,0,0,0-1.552-.823,1.568,1.568,0,0,0-1.357.707A3.694,3.694,0,0,0,24.036,13.621ZM34.221,18H31.814V9.019h2.407ZM31.673,6.694a1.181,1.181,0,0,1,.361-.888,1.556,1.556,0,0,1,1.963,0,1.175,1.175,0,0,1,.365.888,1.178,1.178,0,0,1-.369.9,1.539,1.539,0,0,1-1.951,0A1.178,1.178,0,0,1,31.673,6.694Zm8.259,9.538a1.573,1.573,0,0,0,1.079-.365,1.28,1.28,0,0,0,.432-.971h2.25a3.077,3.077,0,0,1-.5,1.673,3.286,3.286,0,0,1-1.341,1.179,4.2,4.2,0,0,1-1.88.419,3.9,3.9,0,0,1-3.038-1.224,4.845,4.845,0,0,1-1.112-3.383V13.4a4.79,4.79,0,0,1,1.1-3.312,3.854,3.854,0,0,1,3.03-1.237,3.778,3.778,0,0,1,2.7.959,3.4,3.4,0,0,1,1.033,2.552h-2.25a1.648,1.648,0,0,0-.432-1.139,1.6,1.6,0,0,0-2.362.173,3.541,3.541,0,0,0-.427,1.983v.249a3.586,3.586,0,0,0,.423,2A1.463,1.463,0,0,0,39.932,16.232Zm4.756-2.806a5.327,5.327,0,0,1,.515-2.382,3.767,3.767,0,0,1,1.482-1.619,4.323,4.323,0,0,1,2.245-.573A4.09,4.09,0,0,1,51.9,9.965a4.464,4.464,0,0,1,1.282,3.021l.017.614a4.694,4.694,0,0,1-1.154,3.316,4.472,4.472,0,0,1-6.2,0,4.777,4.777,0,0,1-1.158-3.387Zm2.4.17a3.357,3.357,0,0,0,.481,1.958,1.73,1.73,0,0,0,2.739.008,3.674,3.674,0,0,0,.49-2.141,3.324,3.324,0,0,0-.49-1.945,1.592,1.592,0,0,0-1.378-.69,1.566,1.566,0,0,0-1.361.686A3.735,3.735,0,0,0,47.088,13.6Z" transform="translate(461 13785)" fill="#12263f"/>
      <path id="Trazado_1284659" data-name="Trazado 1284659" d="M0,0V308" transform="translate(426.5 14085) rotate(180)" fill="none" stroke="#1e535a" stroke-width="3"/>
      <path id="Trazado_1284655" data-name="Trazado 1284655" d="M0,0V308" transform="translate(551.5 14088) rotate(180)" fill="none" stroke="#1e535a" stroke-width="3"/>
      <path id="Trazado_1284660" data-name="Trazado 1284660" d="M0,0V373.4" transform="translate(674.397 13816) rotate(90)" fill="none" stroke="#1e535a" stroke-width="3"/>
      <g id="Trazado_1285176" data-name="Trazado 1285176" transform="translate(4341.559 2146.442)" fill="#ffd453">
        <path d="M -3795.4091796875 11711.8388671875 L -3795.4091796875 11710.115234375 L -3795.4091796875 11708.9443359375 L -3801.999755859375 11708.9443359375 L -3802.999755859375 11708.9443359375 L -3802.999755859375 11707.9443359375 L -3802.999755859375 11702.232421875 L -3802.999755859375 11701.232421875 L -3801.999755859375 11701.232421875 L -3795.4091796875 11701.232421875 L -3795.4091796875 11700 L -3795.4091796875 11698.2763671875 L -3793.9130859375 11699.1318359375 L -3785.062744140625 11704.189453125 L -3783.54345703125 11705.0576171875 L -3785.062744140625 11705.92578125 L -3793.9130859375 11710.9833984375 L -3795.4091796875 11711.8388671875 Z" stroke="none"/>
        <path d="M -3794.4091796875 11710.115234375 L -3785.558837890625 11705.0576171875 L -3794.4091796875 11700 L -3794.4091796875 11702.232421875 L -3801.999755859375 11702.232421875 L -3801.999755859375 11707.9443359375 L -3794.4091796875 11707.9443359375 L -3794.4091796875 11710.115234375 M -3796.4091796875 11713.5615234375 L -3796.4091796875 11709.9443359375 L -3803.999755859375 11709.9443359375 L -3803.999755859375 11700.232421875 L -3796.4091796875 11700.232421875 L -3796.4091796875 11696.5537109375 L -3781.52783203125 11705.0576171875 L -3796.4091796875 11713.5615234375 Z" stroke="none" fill="#1e535a"/>
      </g>
      <g id="Trazado_1285177" data-name="Trazado 1285177" transform="translate(4219.559 2146.442)" fill="#ffd453">
        <path d="M -3795.407958984375 11711.8388671875 L -3795.407958984375 11710.115234375 L -3795.407958984375 11708.943359375 L -3807.0009765625 11708.943359375 L -3808.0009765625 11708.943359375 L -3808.0009765625 11707.943359375 L -3808.0009765625 11702.2333984375 L -3808.0009765625 11701.2333984375 L -3807.0009765625 11701.2333984375 L -3795.407958984375 11701.2333984375 L -3795.407958984375 11700 L -3795.407958984375 11698.2763671875 L -3793.91162109375 11699.1318359375 L -3785.062744140625 11704.189453125 L -3783.5439453125 11705.0576171875 L -3785.062744140625 11705.92578125 L -3793.91162109375 11710.9833984375 L -3795.407958984375 11711.8388671875 Z" stroke="none"/>
        <path d="M -3794.407958984375 11710.115234375 L -3785.55908203125 11705.0576171875 L -3794.407958984375 11700 L -3794.407958984375 11702.2333984375 L -3807.0009765625 11702.2333984375 L -3807.0009765625 11707.943359375 L -3794.407958984375 11707.943359375 L -3794.407958984375 11710.115234375 M -3796.407958984375 11713.5615234375 L -3796.407958984375 11709.943359375 L -3809.0009765625 11709.943359375 L -3809.0009765625 11700.2333984375 L -3796.407958984375 11700.2333984375 L -3796.407958984375 11696.5537109375 L -3781.528564453125 11705.0576171875 L -3796.407958984375 11713.5615234375 Z" stroke="none" fill="#1e535a"/>
      </g>
      <g id="Trazado_1285178" data-name="Trazado 1285178" transform="matrix(0.951, 0.309, -0.309, 0.951, 7771.172, 4091.649)" fill="#ffd453">
        <path d="M -3795.407958984375 11711.8388671875 L -3795.407958984375 11710.115234375 L -3795.407958984375 11708.943359375 L -3972.9990234375 11708.943359375 L -3973.9990234375 11708.943359375 L -3973.9990234375 11707.943359375 L -3973.9990234375 11702.2333984375 L -3973.9990234375 11701.2333984375 L -3972.9990234375 11701.2333984375 L -3795.407958984375 11701.2333984375 L -3795.407958984375 11700 L -3795.407958984375 11698.2763671875 L -3793.911865234375 11699.1318359375 L -3785.062744140625 11704.189453125 L -3783.5439453125 11705.0576171875 L -3785.062744140625 11705.92578125 L -3793.911865234375 11710.9833984375 L -3795.407958984375 11711.8388671875 Z" stroke="none"/>
        <path d="M -3794.407958984375 11710.115234375 L -3785.55908203125 11705.0576171875 L -3794.407958984375 11700 L -3794.407958984375 11702.2333984375 L -3972.9990234375 11702.2333984375 L -3972.9990234375 11707.943359375 L -3794.407958984375 11707.943359375 L -3794.407958984375 11710.115234375 M -3796.407958984375 11713.5615234375 L -3796.407958984375 11709.943359375 L -3974.9990234375 11709.943359375 L -3974.9990234375 11700.2333984375 L -3796.407958984375 11700.2333984375 L -3796.407958984375 11696.5537109375 L -3781.528564453125 11705.0576171875 L -3796.407958984375 11713.5615234375 Z" stroke="none" fill="#1e535a"/>
      </g>
      <g id="Trazado_1285179" data-name="Trazado 1285179" transform="translate(301 13777)" fill="none">
        <path d="M0,0H375V311H0Z" stroke="none"/>
        <path d="M 3 3 L 3 308 L 372 308 L 372 3 L 3 3 M 0 0 L 375 0 L 375 311 L 0 311 L 0 0 Z" stroke="none" fill="#1e535a"/>
      </g>
      <g id="Trazado_1285180" data-name="Trazado 1285180" transform="translate(437 13842)" fill="#69d7e5" stroke-linecap="round">
        <path d="M 52.00122833251953 66 C 39.35227203369141 66 27.18194198608398 65.06523132324219 17.73215675354004 63.36788558959961 C 13.16362857818604 62.54731369018555 9.395371437072754 61.58365631103516 6.532028675079346 60.50368499755859 C 3.058628559112549 59.1936149597168 1.758357167243958 58.02778625488281 1.279199957847595 57.28047180175781 L 1 56.84501266479492 L 1 56.44536972045898 L 1 1 L 103 1 L 103 56.84434509277344 L 102.7203750610352 57.28048706054688 C 102.2412567138672 58.02780151367188 100.9410400390625 59.1936149597168 97.46771240234375 60.50368499755859 C 94.60446929931641 61.58364105224609 90.83631134033203 62.54729843139648 86.2679443359375 63.36790084838867 C 76.81852722167969 65.06523132324219 64.64904022216797 66 52.00122833251953 66 Z" stroke="none"/>
        <path d="M 52.0012321472168 65 C 64.59158325195312 65 76.69828033447266 64.07083129882812 86.09115600585938 62.38364791870117 C 90.59961700439453 61.57381439208984 94.30850982666016 60.62650680541992 97.11479949951172 59.56803131103516 C 100.6278762817383 58.24296951293945 101.6165390014648 57.1494140625 101.8785400390625 56.74076843261719 L 102 56.55131530761719 L 102 2 L 2 2 L 2 56.55196380615234 L 2.121015310287476 56.74070739746094 C 2.38304615020752 57.14938354492188 3.371769189834595 58.24296951293945 6.884922981262207 59.56803131103516 C 9.691323280334473 60.62650680541992 13.40032291412354 61.57381439208984 17.90893936157227 62.38364791870117 C 27.30218505859375 64.07083129882812 39.40972137451172 65 52.0012321472168 65 M 52.0012321472168 67 C 25.57695388793945 67 3.757815361022949 62.99897003173828 0.4373692274093628 57.82021713256836 L 0 57.82021713256836 L 0 0 L 104 0 L 104 57.82021713256836 L 103.5622177124023 57.82021713256836 C 100.2419815063477 62.99897003173828 78.42282867431641 67 52.0012321472168 67 Z" stroke="none" fill="#1e535a"/>
      </g>
      <g id="Trazado_1285181" data-name="Trazado 1285181" transform="translate(312 13969)" fill="#69d7e5" stroke-linecap="round">
        <path d="M 52.00122833251953 67 C 39.35311508178711 67 27.18368530273438 66.05135345458984 17.73469924926758 64.32882690429688 C 13.1669282913208 63.49614334106445 9.39934253692627 62.51828384399414 6.536628723144531 61.42244338989258 C 3.063514232635498 60.09292984008789 1.762571454048157 58.9085578918457 1.282799959182739 58.14911270141602 L 1 57.70145034790039 L 1 57.287841796875 L 1 1 L 103 1 L 103 57.70077133178711 L 102.7167739868164 58.14914321899414 C 102.2370452880859 58.90857315063477 100.9361572265625 60.09292984008789 97.46311187744141 61.42244338989258 C 94.60048675537109 62.51828384399414 90.83303070068359 63.49612808227539 86.26538848876953 64.32884216308594 C 76.81678771972656 66.05135345458984 64.64820098876953 67 52.00122833251953 67 Z" stroke="none"/>
        <path d="M 52.0012321472168 66 C 64.58988952636719 66 76.69477081298828 65.05712127685547 86.08604431152344 63.34504699707031 C 90.59303283691406 62.52339935302734 94.300537109375 61.56232452392578 97.10561370849609 60.48852157592773 C 100.618049621582 59.14393997192383 101.6085205078125 58.03110885620117 101.8713226318359 57.61507797241211 L 102 57.411376953125 L 102 2 L 2 2 L 2 57.41204071044922 L 2.128230810165405 57.61501693725586 C 2.391061544418335 58.03107833862305 3.381599903106689 59.14392471313477 6.894123077392578 60.48852157592773 C 9.699276924133301 61.56232452392578 13.40690803527832 62.52339935302734 17.9140453338623 63.34504699707031 C 27.30569267272949 65.05712127685547 39.41141510009766 66 52.0012321472168 66 M 52.0012321472168 68 C 25.57695388793945 68 3.757815361022949 63.93924713134766 0.4373692274093628 58.68320083618164 L 0 58.68320083618164 L 0 0 L 104 0 L 104 58.68320083618164 L 103.5622177124023 58.68320083618164 C 100.2419815063477 63.93924713134766 78.42282867431641 68 52.0012321472168 68 Z" stroke="none" fill="#1e535a"/>
      </g>
      <g id="Trazado_1285182" data-name="Trazado 1285182" transform="translate(437 13832)" fill="#a4e7f0">
        <path d="M 52 20 C 38.17475891113281 20 25.18670082092285 18.91482925415039 15.42837142944336 16.94440078735352 C 10.73324298858643 15.99634265899658 7.062214374542236 14.8996000289917 4.517242908477783 13.6846284866333 C 2.249114274978638 12.60182857513428 1 11.47084331512451 1 10.5 C 1 9.529156684875488 2.249114274978638 8.398171424865723 4.517242908477783 7.315371513366699 C 7.062214374542236 6.100399971008301 10.73324298858643 5.003657341003418 15.42837142944336 4.055600166320801 C 25.18670082092285 2.085171461105347 38.17475891113281 1 52 1 C 65.82524108886719 1 78.81330108642578 2.085171461105347 88.57163238525391 4.055600166320801 C 93.26675415039062 5.003657341003418 96.93778228759766 6.100399971008301 99.48275756835938 7.315371513366699 C 101.7508850097656 8.398171424865723 103 9.529156684875488 103 10.5 C 103 11.47084331512451 101.7508850097656 12.60182857513428 99.48275756835938 13.6846284866333 C 96.93778228759766 14.8996000289917 93.26675415039062 15.99634265899658 88.57163238525391 16.94440078735352 C 78.81330108642578 18.91482925415039 65.82524108886719 20 52 20 Z" stroke="none"/>
        <path d="M 52 2 C 38.23921203613281 2 25.32144927978516 3.07813835144043 15.62630462646484 5.035815238952637 C 11.07662963867188 5.954492568969727 7.3841552734375 7.054815292358398 4.94805908203125 8.217800140380859 C 2.541603088378906 9.366645812988281 2 10.27304649353027 2 10.5 C 2 10.72695350646973 2.541603088378906 11.63335418701172 4.94805908203125 12.78219985961914 C 7.3841552734375 13.9451847076416 11.07662963867188 15.04550743103027 15.62630462646484 15.96418476104736 C 25.32144927978516 17.92186164855957 38.23921203613281 19 52 19 C 65.76078796386719 19 78.67855834960938 17.92186164855957 88.37369537353516 15.96418476104736 C 92.92337036132812 15.04550743103027 96.6158447265625 13.9451847076416 99.05194091796875 12.78219985961914 C 101.4583969116211 11.63335418701172 102 10.72695350646973 102 10.5 C 102 10.27304649353027 101.4583969116211 9.366645812988281 99.05194091796875 8.217800140380859 C 96.6158447265625 7.054815292358398 92.92337036132812 5.954492568969727 88.37369537353516 5.035815238952637 C 78.67855834960938 3.07813835144043 65.76078796386719 2 52 2 M 52 0 C 80.71879577636719 0 104 4.701015472412109 104 10.5 C 104 16.29898452758789 80.71879577636719 21 52 21 C 23.28119659423828 21 0 16.29898452758789 0 10.5 C 0 4.701015472412109 23.28119659423828 0 52 0 Z" stroke="none" fill="#1e535a"/>
      </g>
      <g id="Trazado_1285183" data-name="Trazado 1285183" transform="translate(312 13959)" fill="#a4e7f0">
        <path d="M 52 20 C 38.17475891113281 20 25.18670082092285 18.91482925415039 15.42837142944336 16.94440078735352 C 10.73324298858643 15.99634265899658 7.062214374542236 14.8996000289917 4.517242908477783 13.6846284866333 C 2.249114274978638 12.60182857513428 1 11.47084331512451 1 10.5 C 1 9.529156684875488 2.249114274978638 8.398171424865723 4.517242908477783 7.315371513366699 C 7.062214374542236 6.100399971008301 10.73324298858643 5.003657341003418 15.42837142944336 4.055600166320801 C 25.18670082092285 2.085171461105347 38.17475891113281 1 52 1 C 65.82524108886719 1 78.81330108642578 2.085171461105347 88.57163238525391 4.055600166320801 C 93.26675415039062 5.003657341003418 96.93778228759766 6.100399971008301 99.48275756835938 7.315371513366699 C 101.7508850097656 8.398171424865723 103 9.529156684875488 103 10.5 C 103 11.47084331512451 101.7508850097656 12.60182857513428 99.48275756835938 13.6846284866333 C 96.93778228759766 14.8996000289917 93.26675415039062 15.99634265899658 88.57163238525391 16.94440078735352 C 78.81330108642578 18.91482925415039 65.82524108886719 20 52 20 Z" stroke="none"/>
        <path d="M 52 2 C 38.23921203613281 2 25.32144927978516 3.07813835144043 15.62630462646484 5.035815238952637 C 11.07662963867188 5.954492568969727 7.3841552734375 7.054815292358398 4.94805908203125 8.217800140380859 C 2.541603088378906 9.366645812988281 2 10.27304649353027 2 10.5 C 2 10.72695350646973 2.541603088378906 11.63335418701172 4.94805908203125 12.78219985961914 C 7.3841552734375 13.9451847076416 11.07662963867188 15.04550743103027 15.62630462646484 15.96418476104736 C 25.32144927978516 17.92186164855957 38.23921203613281 19 52 19 C 65.76078796386719 19 78.67855834960938 17.92186164855957 88.37369537353516 15.96418476104736 C 92.92337036132812 15.04550743103027 96.6158447265625 13.9451847076416 99.05194091796875 12.78219985961914 C 101.4583969116211 11.63335418701172 102 10.72695350646973 102 10.5 C 102 10.27304649353027 101.4583969116211 9.366645812988281 99.05194091796875 8.217800140380859 C 96.6158447265625 7.054815292358398 92.92337036132812 5.954492568969727 88.37369537353516 5.035815238952637 C 78.67855834960938 3.07813835144043 65.76078796386719 2 52 2 M 52 0 C 80.71879577636719 0 104 4.701015472412109 104 10.5 C 104 16.29898452758789 80.71879577636719 21 52 21 C 23.28119659423828 21 0 16.29898452758789 0 10.5 C 0 4.701015472412109 23.28119659423828 0 52 0 Z" stroke="none" fill="#1e535a"/>
      </g>
      <path id="Trazado_1285184" data-name="Trazado 1285184" d="M12.672,13.061H7.89V18H5.4V5.914h7.869V7.931H7.89v3.121h4.781ZM17.362,18h-2.49V5.914h2.49Zm4.8-2h5.288v2H19.669V5.914h2.49Zm13.987-3.237H31.365V16h5.611v2h-8.1V5.914H36.96V7.931H31.365v2.88h4.781ZM48,16.473a4.322,4.322,0,0,1-1.9,1.249,7.961,7.961,0,0,1-2.723.444,5.393,5.393,0,0,1-2.752-.685A4.568,4.568,0,0,1,38.8,15.493a7,7,0,0,1-.66-3.063v-.822a7.431,7.431,0,0,1,.61-3.134,4.513,4.513,0,0,1,1.76-2.025,5.794,5.794,0,0,1,6.055.324A4.381,4.381,0,0,1,48,9.757H45.576a2.41,2.41,0,0,0-.735-1.519,2.346,2.346,0,0,0-1.565-.481,2.208,2.208,0,0,0-1.934.955,5.02,5.02,0,0,0-.672,2.839v.772a4.778,4.778,0,0,0,.722,2.872,2.473,2.473,0,0,0,2.117.971,2.762,2.762,0,0,0,2-.6V13.484H43.243V11.65H48Zm6.491-2.9H52.507V18h-2.49V5.914h4.491a5.076,5.076,0,0,1,3.3.955,3.3,3.3,0,0,1,1.162,2.7,3.718,3.718,0,0,1-.535,2.063,3.651,3.651,0,0,1-1.623,1.316l2.615,4.939V18H56.757Zm-1.984-2.017h2.009a2.057,2.057,0,0,0,1.453-.477,1.706,1.706,0,0,0,.515-1.316A1.826,1.826,0,0,0,56,8.421a2.018,2.018,0,0,0-1.49-.49h-2Zm18.287.672a7.3,7.3,0,0,1-.631,3.129,4.751,4.751,0,0,1-1.805,2.075,5.335,5.335,0,0,1-5.375.008,4.8,4.8,0,0,1-1.826-2.063A7.087,7.087,0,0,1,60.5,12.3v-.6a7.258,7.258,0,0,1,.643-3.142,4.79,4.79,0,0,1,1.818-2.083,5.327,5.327,0,0,1,5.371,0A4.79,4.79,0,0,1,70.15,8.558a7.237,7.237,0,0,1,.643,3.134Zm-2.523-.548a5.086,5.086,0,0,0-.681-2.889,2.4,2.4,0,0,0-3.876-.012,5.028,5.028,0,0,0-.689,2.86v.589A5.15,5.15,0,0,0,63.7,15.1a2.383,2.383,0,0,0,3.885.037,5.12,5.12,0,0,0,.681-2.868Zm13.48-5.769v7.96a4.076,4.076,0,0,1-1.241,3.138,4.784,4.784,0,0,1-3.391,1.154,4.838,4.838,0,0,1-3.362-1.121,4.006,4.006,0,0,1-1.27-3.08V5.914h2.49v7.977a2.3,2.3,0,0,0,.569,1.731,2.183,2.183,0,0,0,1.573.544q2.1,0,2.133-2.208V5.914Zm4.532,7.828V18h-2.49V5.914h4.715a5.455,5.455,0,0,1,2.395.5,3.67,3.67,0,0,1,1.59,1.415,3.946,3.946,0,0,1,.556,2.088,3.47,3.47,0,0,1-1.216,2.8,5.065,5.065,0,0,1-3.366,1.025Zm0-2.017h2.225a2.187,2.187,0,0,0,1.507-.465,1.691,1.691,0,0,0,.519-1.328A1.994,1.994,0,0,0,90.01,8.5a1.953,1.953,0,0,0-1.444-.564H86.283Z" transform="translate(440 13864)" fill="#12263f"/>
      <g id="Trazado_1285185" data-name="Trazado 1285185" transform="translate(312 13906)" fill="#69d7e5" stroke-linecap="round">
        <path d="M 52.00122833251953 67 C 39.35311508178711 67 27.18368530273438 66.05135345458984 17.73469924926758 64.32882690429688 C 13.1669282913208 63.49614334106445 9.39934253692627 62.51828384399414 6.536628723144531 61.42244338989258 C 3.063514232635498 60.09292984008789 1.762571454048157 58.9085578918457 1.282799959182739 58.14911270141602 L 1 57.70145034790039 L 1 57.287841796875 L 1 1 L 103 1 L 103 57.70077133178711 L 102.7167739868164 58.14914321899414 C 102.2370452880859 58.90857315063477 100.9361572265625 60.09292984008789 97.46311187744141 61.42244338989258 C 94.60048675537109 62.51828384399414 90.83303070068359 63.49612808227539 86.26538848876953 64.32884216308594 C 76.81678771972656 66.05135345458984 64.64820098876953 67 52.00122833251953 67 Z" stroke="none"/>
        <path d="M 52.0012321472168 66 C 64.58988952636719 66 76.69477081298828 65.05712127685547 86.08604431152344 63.34504699707031 C 90.59303283691406 62.52339935302734 94.300537109375 61.56232452392578 97.10561370849609 60.48852157592773 C 100.618049621582 59.14393997192383 101.6085205078125 58.03110885620117 101.8713226318359 57.61507797241211 L 102 57.411376953125 L 102 2 L 2 2 L 2 57.41204071044922 L 2.128230810165405 57.61501693725586 C 2.391061544418335 58.03107833862305 3.381599903106689 59.14392471313477 6.894123077392578 60.48852157592773 C 9.699276924133301 61.56232452392578 13.40690803527832 62.52339935302734 17.9140453338623 63.34504699707031 C 27.30569267272949 65.05712127685547 39.41141510009766 66 52.0012321472168 66 M 52.0012321472168 68 C 25.57695388793945 68 3.757815361022949 63.93924713134766 0.4373692274093628 58.68320083618164 L 0 58.68320083618164 L 0 0 L 104 0 L 104 58.68320083618164 L 103.5622177124023 58.68320083618164 C 100.2419815063477 63.93924713134766 78.42282867431641 68 52.0012321472168 68 Z" stroke="none" fill="#1e535a"/>
      </g>
      <g id="Trazado_1285186" data-name="Trazado 1285186" transform="translate(312 13896)" fill="#a4e7f0">
        <path d="M 52 19 C 38.1717414855957 19 25.18047142028809 17.96621513366699 15.4193000793457 16.08905792236328 C 10.72119998931885 15.18558597564697 7.047528743743896 14.14025688171387 4.500314235687256 12.98212814331055 C 2.275814294815063 11.9707145690918 1 10.8837718963623 1 10 C 1 9.116228103637695 2.275814294815063 8.029285430908203 4.500314235687256 7.017871379852295 C 7.047528743743896 5.859742641448975 10.72119998931885 4.814414501190186 15.4193000793457 3.910942792892456 C 25.18047142028809 2.033785820007324 38.1717414855957 1 52 1 C 65.82825469970703 1 78.81952667236328 2.033785820007324 88.58070373535156 3.910942792892456 C 93.27880096435547 4.814414501190186 96.95246887207031 5.859742641448975 99.49968719482422 7.017871379852295 C 101.7241821289062 8.029285430908203 103 9.116228103637695 103 10 C 103 10.8837718963623 101.7241821289062 11.9707145690918 99.49968719482422 12.98212814331055 C 96.95246887207031 14.14025688171387 93.27880096435547 15.18558597564697 88.58070373535156 16.08905792236328 C 78.81952667236328 17.96621513366699 65.82825469970703 19 52 19 Z" stroke="none"/>
        <path d="M 52 2 C 38.45395660400391 2 25.67753601074219 2.999307632446289 16.02432250976562 4.813815116882324 C 11.48297119140625 5.667461395263672 7.754722595214844 6.694000244140625 5.242645263671875 7.782461166381836 C 2.332244873046875 9.043511390686035 2.017738342285156 9.940036773681641 2.000648498535156 10 C 2.017738342285156 10.05996322631836 2.332244873046875 10.95648860931396 5.242645263671875 12.21753883361816 C 7.754722595214844 13.30599975585938 11.48297119140625 14.33253860473633 16.02432250976562 15.18618392944336 C 25.67753601074219 17.00069236755371 38.45395660400391 18 52 18 C 65.54605102539062 18 78.32246398925781 17.00069236755371 87.97567749023438 15.18618392944336 C 92.51702880859375 14.33253860473633 96.24527740478516 13.30599975585938 98.75735473632812 12.21753883361816 C 101.6677551269531 10.95648860931396 101.9822616577148 10.05996322631836 101.9993515014648 10 C 101.9822616577148 9.940036773681641 101.6677551269531 9.043511390686035 98.75735473632812 7.782461166381836 C 96.24527740478516 6.694000244140625 92.51702880859375 5.667461395263672 87.97567749023438 4.813815116882324 C 78.32246398925781 2.999307632446289 65.54605102539062 2 52 2 M 52 0 C 80.71879577636719 0 104 4.477153778076172 104 10 C 104 15.52284622192383 80.71879577636719 20 52 20 C 23.28119659423828 20 0 15.52284622192383 0 10 C 0 4.477153778076172 23.28119659423828 0 52 0 Z" stroke="none" fill="#1e535a"/>
      </g>
      <path id="Trazado_1285187" data-name="Trazado 1285187" d="M3.2,18V5.914H6.922a5.647,5.647,0,0,1,2.851.718,5.007,5.007,0,0,1,1.963,2.042,6.3,6.3,0,0,1,.706,3.009v.556a6.316,6.316,0,0,1-.693,3A4.964,4.964,0,0,1,9.794,17.27,5.69,5.69,0,0,1,6.947,18ZM5.694,7.931V16H6.9a2.7,2.7,0,0,0,2.233-.955,4.314,4.314,0,0,0,.789-2.731v-.639a4.382,4.382,0,0,0-.764-2.793,2.7,2.7,0,0,0-2.233-.95ZM21.075,15.51H16.709L15.879,18H13.231l4.5-12.086h2.308L24.562,18H21.914Zm-3.694-2.017H20.4L18.884,8.969ZM33.792,7.931h-3.7V18H27.6V7.931H23.947V5.914h9.845Zm7.247,7.579H36.672L35.842,18H33.194l4.5-12.086H40L44.525,18H41.877Zm-3.694-2.017h3.021L38.847,8.969ZM45.654,18V5.914h4.233a5.559,5.559,0,0,1,3.337.843,2.881,2.881,0,0,1,1.137,2.469,2.731,2.731,0,0,1-.457,1.565,2.637,2.637,0,0,1-1.27.992,2.551,2.551,0,0,1,1.465.938,2.773,2.773,0,0,1,.535,1.727,3.19,3.19,0,0,1-1.112,2.64A5.007,5.007,0,0,1,50.352,18Zm2.49-5.263V16h2.133a2.059,2.059,0,0,0,1.374-.419,1.437,1.437,0,0,0,.494-1.158,1.518,1.518,0,0,0-1.718-1.685Zm0-1.76h1.843q1.884-.033,1.884-1.5a1.388,1.388,0,0,0-.477-1.183,2.51,2.51,0,0,0-1.507-.361H48.144ZM63.326,15.51H58.96L58.13,18H55.482l4.5-12.086h2.308L66.813,18H64.165Zm-3.694-2.017h3.021L61.135,8.969Zm14.576,1.336a1.278,1.278,0,0,0-.5-1.083,6.533,6.533,0,0,0-1.793-.8,12.71,12.71,0,0,1-2.05-.826,3.35,3.35,0,0,1-2.059-3,2.919,2.919,0,0,1,.552-1.747,3.6,3.6,0,0,1,1.585-1.2,5.967,5.967,0,0,1,2.32-.432,5.432,5.432,0,0,1,2.308.469,3.674,3.674,0,0,1,1.573,1.324,3.464,3.464,0,0,1,.56,1.942h-2.49a1.63,1.63,0,0,0-.523-1.291,2.15,2.15,0,0,0-1.469-.461,2.3,2.3,0,0,0-1.419.386A1.217,1.217,0,0,0,70.3,9.135a1.166,1.166,0,0,0,.594.988,6.705,6.705,0,0,0,1.747.747,7.55,7.55,0,0,1,3.1,1.585,3.157,3.157,0,0,1,.971,2.357,2.909,2.909,0,0,1-1.187,2.461,5.2,5.2,0,0,1-3.2.892,6.171,6.171,0,0,1-2.54-.51,4.019,4.019,0,0,1-1.747-1.4,3.582,3.582,0,0,1-.6-2.059h2.5q0,2,2.391,2a2.326,2.326,0,0,0,1.386-.361A1.175,1.175,0,0,0,74.208,14.829Zm11.455-2.067H80.882V16h5.611v2h-8.1V5.914h8.085V7.931H80.882v2.88h4.781Z" transform="translate(319 13932)" fill="#12263f"/>
      <g id="Trazado_1285188" data-name="Trazado 1285188" transform="translate(312 13842)" fill="#69d7e5" stroke-linecap="round">
        <path d="M 52.00122833251953 67 C 39.35311508178711 67 27.18368530273438 66.05135345458984 17.73469924926758 64.32882690429688 C 13.1669282913208 63.49614334106445 9.39934253692627 62.51828384399414 6.536628723144531 61.42244338989258 C 3.063514232635498 60.09292984008789 1.762571454048157 58.9085578918457 1.282799959182739 58.14911270141602 L 1 57.70145034790039 L 1 57.287841796875 L 1 1 L 103 1 L 103 57.70077133178711 L 102.7167739868164 58.14914321899414 C 102.2370452880859 58.90857315063477 100.9361572265625 60.09292984008789 97.46311187744141 61.42244338989258 C 94.60048675537109 62.51828384399414 90.83303070068359 63.49612808227539 86.26538848876953 64.32884216308594 C 76.81678771972656 66.05135345458984 64.64820098876953 67 52.00122833251953 67 Z" stroke="none"/>
        <path d="M 52.0012321472168 66 C 64.58988952636719 66 76.69477081298828 65.05712127685547 86.08604431152344 63.34504699707031 C 90.59303283691406 62.52339935302734 94.300537109375 61.56232452392578 97.10561370849609 60.48852157592773 C 100.618049621582 59.14393997192383 101.6085205078125 58.03110885620117 101.8713226318359 57.61507797241211 L 102 57.411376953125 L 102 2 L 2 2 L 2 57.41204071044922 L 2.128230810165405 57.61501693725586 C 2.391061544418335 58.03107833862305 3.381599903106689 59.14392471313477 6.894123077392578 60.48852157592773 C 9.699276924133301 61.56232452392578 13.40690803527832 62.52339935302734 17.9140453338623 63.34504699707031 C 27.30569267272949 65.05712127685547 39.41141510009766 66 52.0012321472168 66 M 52.0012321472168 68 C 25.57695388793945 68 3.757815361022949 63.93924713134766 0.4373692274093628 58.68320083618164 L 0 58.68320083618164 L 0 0 L 104 0 L 104 58.68320083618164 L 103.5622177124023 58.68320083618164 C 100.2419815063477 63.93924713134766 78.42282867431641 68 52.0012321472168 68 Z" stroke="none" fill="#1e535a"/>
      </g>
      <g id="Trazado_1285189" data-name="Trazado 1285189" transform="translate(312 13832)" fill="#a4e7f0">
        <path d="M 52 21 C 38.17775726318359 21 25.19291496276855 19.86348533630371 15.43741416931152 17.79982948303223 C 4.79271411895752 15.54805755615234 1 12.81081390380859 1 11 C 1 9.189186096191406 4.79271411895752 6.451942920684814 15.43741416931152 4.20017147064209 C 25.19291496276855 2.136514186859131 38.17775726318359 1 52 1 C 65.82224273681641 1 78.80708312988281 2.136514186859131 88.56258392333984 4.20017147064209 C 99.20728302001953 6.451942920684814 103 9.189186096191406 103 11 C 103 12.81081390380859 99.20728302001953 15.54805755615234 88.56258392333984 17.79982948303223 C 78.80708312988281 19.86348533630371 65.82224273681641 21 52 21 Z" stroke="none"/>
        <path d="M 52 2 C 38.24521636962891 2 25.33387756347656 3.128814697265625 15.64437103271484 5.178524017333984 C 11.10032653808594 6.139754295349121 7.413002014160156 7.290754318237305 4.981033325195312 8.507061958312988 C 2.623046875 9.686368942260742 2 10.65341567993164 2 11 C 2 11.34658432006836 2.623046875 12.31363105773926 4.981033325195312 13.49293804168701 C 7.413002014160156 14.7092456817627 11.10032653808594 15.8602466583252 15.64437103271484 16.82147598266602 C 25.33387756347656 18.87118530273438 38.24521636962891 20 52 20 C 65.75478363037109 20 78.66612243652344 18.87118530273438 88.35562896728516 16.82147598266602 C 92.89967346191406 15.8602466583252 96.58699798583984 14.7092456817627 99.01896667480469 13.49293804168701 C 101.376953125 12.31363105773926 102 11.34658432006836 102 11 C 102 10.65341567993164 101.376953125 9.686368942260742 99.01896667480469 8.507061958312988 C 96.58699798583984 7.290754318237305 92.89967346191406 6.139754295349121 88.35562896728516 5.178524017333984 C 78.66612243652344 3.128814697265625 65.75478363037109 2 52 2 M 52 0 C 80.71879577636719 0 104 4.924861907958984 104 11 C 104 17.07513809204102 80.71879577636719 22 52 22 C 23.28119659423828 22 0 17.07513809204102 0 11 C 0 4.924861907958984 23.28119659423828 0 52 0 Z" stroke="none" fill="#1e535a"/>
      </g>
      <path id="Trazado_1285190" data-name="Trazado 1285190" d="M19.5,0h73a19.5,19.5,0,0,1,0,39h-73a19.5,19.5,0,0,1,0-39Z" transform="translate(556 13832)" fill="#6cb9ff"/>
      <path id="Trazado_1285191" data-name="Trazado 1285191" d="M19.5,0h73a19.5,19.5,0,0,1,0,39h-73a19.5,19.5,0,0,1,0-39Z" transform="translate(556 13900)" fill="#6cb9ff"/>
      <path id="Trazado_1285192" data-name="Trazado 1285192" d="M19.5,0h73a19.5,19.5,0,0,1,0,39h-73a19.5,19.5,0,0,1,0-39Z" transform="translate(556 13968)" fill="#6cb9ff"/>
      <path id="Trazado_1285193" data-name="Trazado 1285193" d="M19.5,0h73a19.5,19.5,0,0,1,0,39h-73a19.5,19.5,0,0,1,0-39Z" transform="translate(556 14036)" fill="#ffd453"/>
      <path id="Trazado_1285194" data-name="Trazado 1285194" d="M7.835,18V5.914h3.719a5.647,5.647,0,0,1,2.851.718,5.007,5.007,0,0,1,1.963,2.042,6.3,6.3,0,0,1,.706,3.009v.556a6.316,6.316,0,0,1-.693,3,4.964,4.964,0,0,1-1.955,2.034,5.69,5.69,0,0,1-2.847.73Zm2.49-10.069V16h1.2a2.7,2.7,0,0,0,2.233-.955,4.314,4.314,0,0,0,.789-2.731v-.639a4.382,4.382,0,0,0-.764-2.793,2.7,2.7,0,0,0-2.233-.95ZM25.707,15.51H21.341L20.511,18H17.863l4.5-12.086h2.308L29.193,18H26.545Zm-3.694-2.017h3.021L23.516,8.969ZM38.424,7.931h-3.7V18h-2.49V7.931H28.579V5.914h9.845ZM45.67,15.51H41.3L40.474,18H37.826l4.5-12.086h2.308L49.157,18H46.509Zm-3.694-2.017H45L43.479,8.969ZM52.776,16h5.288v2H50.286V5.914h2.49Zm9.363,2h-2.49V5.914h2.49Zm9.579-4.939H66.937V18h-2.49V5.914h7.869V7.931H66.937v3.121h4.781Zm9.313-.3H76.25V16h5.611v2h-8.1V5.914h8.085V7.931H76.25v2.88h4.781Z" transform="translate(568 13840)" fill="#12263f"/>
      <path id="Trazado_1285195" data-name="Trazado 1285195" d="M21.1,12.762H16.323V16h5.611v2h-8.1V5.914h8.085V7.931H16.323v2.88H21.1Zm6.616-2.681,2.266-4.167H32.85l-3.52,5.993L32.941,18h-2.9L27.72,13.767,25.4,18H22.5l3.611-6.093L22.59,5.914h2.864Zm15.572-2.15h-3.7V18H37.1V7.931H33.448V5.914h9.845Zm8.691,4.831H47.2V16h5.611v2h-8.1V5.914H52.8V7.931H47.2v2.88h4.781ZM64.1,18h-2.49l-4.848-7.952V18h-2.49V5.914h2.49l4.856,7.969V5.914H64.1Zm2.175,0V5.914H70a5.647,5.647,0,0,1,2.851.718A5.007,5.007,0,0,1,74.81,8.674a6.3,6.3,0,0,1,.706,3.009v.556a6.316,6.316,0,0,1-.693,3,4.964,4.964,0,0,1-1.955,2.034,5.69,5.69,0,0,1-2.847.73Zm2.49-10.069V16h1.2a2.7,2.7,0,0,0,2.233-.955,4.314,4.314,0,0,0,.789-2.731v-.639a4.382,4.382,0,0,0-.764-2.793A2.7,2.7,0,0,0,70,7.931Z" transform="translate(568 13908)" fill="#12263f"/>
      <path id="Trazado_1285196" data-name="Trazado 1285196" d="M27.035,13.742V18h-2.49V5.914H29.26a5.455,5.455,0,0,1,2.395.5,3.67,3.67,0,0,1,1.59,1.415A3.946,3.946,0,0,1,33.8,9.915a3.47,3.47,0,0,1-1.216,2.8,5.065,5.065,0,0,1-3.366,1.025Zm0-2.017H29.26a2.187,2.187,0,0,0,1.507-.465,1.691,1.691,0,0,0,.519-1.328A1.994,1.994,0,0,0,30.762,8.5a1.953,1.953,0,0,0-1.444-.564H27.035ZM40.856,15.51H36.49L35.66,18H33.012l4.5-12.086h2.308L44.342,18H41.694Zm-3.694-2.017h3.021L38.665,8.969Zm17.872,2.98a4.322,4.322,0,0,1-1.9,1.249,7.961,7.961,0,0,1-2.723.444,5.393,5.393,0,0,1-2.752-.685,4.568,4.568,0,0,1-1.826-1.988,7,7,0,0,1-.66-3.063v-.822a7.431,7.431,0,0,1,.61-3.134,4.513,4.513,0,0,1,1.76-2.025,5.794,5.794,0,0,1,6.055.324,4.381,4.381,0,0,1,1.436,2.984H52.61a2.41,2.41,0,0,0-.735-1.519,2.346,2.346,0,0,0-1.565-.481,2.208,2.208,0,0,0-1.934.955A5.02,5.02,0,0,0,47.7,11.55v.772a4.778,4.778,0,0,0,.722,2.872,2.473,2.473,0,0,0,2.117.971,2.762,2.762,0,0,0,2-.6V13.484H50.277V11.65h4.756Zm9.289-3.71H59.541V16h5.611v2h-8.1V5.914h8.085V7.931H59.541v2.88h4.781Z" transform="translate(568 13976)" fill="#12263f"/>
      <path id="Trazado_1285197" data-name="Trazado 1285197" d="M15.555,16h5.288v2H13.065V5.914h2.49Zm16.112-3.769a7.3,7.3,0,0,1-.631,3.129,4.751,4.751,0,0,1-1.805,2.075,5.335,5.335,0,0,1-5.375.008,4.8,4.8,0,0,1-1.826-2.063,7.087,7.087,0,0,1-.656-3.084v-.6a7.258,7.258,0,0,1,.643-3.142,4.79,4.79,0,0,1,1.818-2.083,5.327,5.327,0,0,1,5.371,0,4.79,4.79,0,0,1,1.818,2.083,7.237,7.237,0,0,1,.643,3.134Zm-2.523-.548a5.086,5.086,0,0,0-.681-2.889,2.4,2.4,0,0,0-3.876-.012,5.028,5.028,0,0,0-.689,2.86v.589a5.15,5.15,0,0,0,.681,2.872,2.383,2.383,0,0,0,3.885.037,5.12,5.12,0,0,0,.681-2.868Zm13.9,4.79a4.322,4.322,0,0,1-1.9,1.249,7.961,7.961,0,0,1-2.723.444,5.393,5.393,0,0,1-2.752-.685,4.568,4.568,0,0,1-1.826-1.988,7,7,0,0,1-.66-3.063v-.822a7.431,7.431,0,0,1,.61-3.134,4.513,4.513,0,0,1,1.76-2.025,5.069,5.069,0,0,1,2.694-.7A5.048,5.048,0,0,1,41.6,6.773a4.381,4.381,0,0,1,1.436,2.984H40.615a2.41,2.41,0,0,0-.735-1.519,2.346,2.346,0,0,0-1.565-.481,2.208,2.208,0,0,0-1.934.955,5.02,5.02,0,0,0-.672,2.839v.772a4.778,4.778,0,0,0,.722,2.872,2.473,2.473,0,0,0,2.117.971,2.762,2.762,0,0,0,2-.6V13.484H38.283V11.65h4.756ZM47.546,16h5.288v2H45.056V5.914h2.49Zm9.363,2h-2.49V5.914h2.49Zm9.579-4.939H61.708V18h-2.49V5.914h7.869V7.931H61.708v3.121h4.781Zm9.313-.3H71.021V16h5.611v2h-8.1V5.914h8.085V7.931H71.021v2.88H75.8Z" transform="translate(568 14044)" fill="#12263f"/>
    </g>
  </g>
</svg>
