<svg xmlns="http://www.w3.org/2000/svg" xmlns:xlink="http://www.w3.org/1999/xlink" width="85" height="85" viewBox="0 0 85 85">
  <defs>
    <clipPath id="clip-path">
      <rect id="Rectángulo_464983" data-name="Rectángulo 464983" width="64.069" height="64.686" fill="#344866"/>
    </clipPath>
  </defs>
  <g id="Grupo_1212399" data-name="Grupo 1212399" transform="translate(-602 -15481.007)">
    <g id="Grupo_1211697" data-name="Grupo 1211697" transform="translate(422.266 9960.165)">
      <rect id="Rectángulo_402006" data-name="Rectángulo 402006" width="85" height="85" rx="5" transform="translate(179.734 5520.842)" fill="#69d7e5"/>
      <g id="Grupo_1212077" data-name="Grupo 1212077" transform="translate(190.2 5530.999)">
        <g id="Grupo_1212076" data-name="Grupo 1212076" clip-path="url(#clip-path)">
          <path id="Trazado_1284101" data-name="Trazado 1284101" d="M32.449,78.728a19.8,19.8,0,0,1,.039,3.066,1.088,1.088,0,0,1-1.11,1.068L7,82.87a1.128,1.128,0,0,1-1.188-1.118,23.177,23.177,0,0,1,.043-3.037,2.982,2.982,0,0,1,2.845-2.5l3.677-.1a9.668,9.668,0,0,0-.027-2.267L3.637,73.8A3.757,3.757,0,0,1,0,70L0,50.778a3.739,3.739,0,0,1,3.681-3.751l10.057-.036a17.44,17.44,0,0,1-.016-4.928c.477-.676,1.5-.483,1.972-1.034a6.643,6.643,0,0,0,1.141-2.621c.143-.682-1.053-1.539-.589-2.306a19.909,19.909,0,0,1,2.8-2.965c.918-.976,2.017,1.217,3.672.1.461-.312,1.185-.261,1.562-.708.427-.506.38-1.573,1-1.978a12.119,12.119,0,0,1,4.73-.011c.6.427.563,1.459.983,1.964s1.2.451,1.7.8c1.409.963,2.622-.989,3.406-.239l2.884,2.76,23.9.011a1.065,1.065,0,0,1,1.176,1.125l-.013,11.983a1.021,1.021,0,0,1-.992,1.032l-4.371.072.006,5.238,4.219.016a1.1,1.1,0,0,1,1.147,1.11L64.05,68.495a1.007,1.007,0,0,1-.946.968l-24.785.017a3.885,3.885,0,0,1-3.781,4.332l-8.522.038a5.081,5.081,0,0,0-.024,2.284l3.529.066a3.006,3.006,0,0,1,2.929,2.53m-3.734-22.6c.495-.506.35-1.487.97-1.708,1.228-.438,2.4-.936,3.6-1.475.695-.313,1.4.657,2.022.516a2.447,2.447,0,0,0,1.4-1.432c.1-.654-.825-1.3-.528-1.975.525-1.2,1.053-2.347,1.475-3.586.221-.651,1.314-.509,1.728-.995a2.158,2.158,0,0,0,.005-2.124c-.4-.5-1.492-.334-1.72-.982-.432-1.23-.933-2.39-1.481-3.583-.312-.679.578-1.31.522-1.968a2.2,2.2,0,0,0-1.486-1.477c-.657-.053-1.289.845-1.945.54a34.025,34.025,0,0,0-3.548-1.47c-.688-.23-.524-1.3-1.012-1.723a2.075,2.075,0,0,0-2.154,0c-.479.453-.315,1.485-1,1.721-1.223.42-2.368.929-3.552,1.468-.64.291-1.333-.568-1.921-.543a2.147,2.147,0,0,0-1.5,1.488c-.014.71.871,1.414.466,2.144a24.375,24.375,0,0,0-1.408,3.363c-.258.687-1.312.52-1.749,1.02a2.09,2.09,0,0,0,.007,2.125c.44.479,1.487.328,1.739,1a26.631,26.631,0,0,0,1.422,3.406c.4.738-.543,1.433-.474,2.144a2.242,2.242,0,0,0,1.469,1.449c.594.052,1.306-.834,1.971-.523,1.183.553,2.358,1.022,3.569,1.473.66.246.508,1.322.991,1.739a2.063,2.063,0,0,0,2.123-.032m12.967-10.66c.2,2.211-1.284,1.454-2.1,2.419l22.358.015.035-9.983-22.844,0a.6.6,0,0,0-.69.293c-.176.388.534,1.732.857,2.113l11.081,0a1.122,1.122,0,0,1,1.194,1.186c0,1.9.408,3.941-1.176,3.944ZM49.5,42.4l-7.808.006v.966l7.808-.006ZM25.378,58.26c-.786-.207-.577-1.578-1.094-1.927a6.884,6.884,0,0,0-2.723-1.13c-.739.034-1.581,1.053-2.315.549a25.116,25.116,0,0,1-2.789-2.666,1.321,1.321,0,0,1,.071-1.737c.414-.492.532-2.159-.371-2.167L3.9,49.071a1.792,1.792,0,0,0-1.808,1.751L2.074,66.549l34.136.006.012-10.724a3.529,3.529,0,0,1-2.494-.741A12.4,12.4,0,0,0,31,56.337c-.505.427-.345,1.8-1.142,1.956a10.567,10.567,0,0,1-4.48-.034m13.2-2.967,17.984,0-.034-5.317-18.15.052c.215,1.843,1.5,1.895.155,3.423-.342.389-.411,1.509.045,1.838m11.7,9.646H38.38a9.265,9.265,0,0,0-.011,2.444l23.612-.007-.028-10-23.576.005a9.466,9.466,0,0,0-.006,2.462l12.037.014a1.06,1.06,0,0,1,1.165,1.086v2.881c0,.7-.5,1.113-1.294,1.113M38.311,61.929v.918l11.186,0v-.919Zm-3.541,9.763c1.468,0,1.682-2.05,1.329-3.032L2.23,68.645a2.089,2.089,0,0,0-.133,1.35,1.8,1.8,0,0,0,1.8,1.768ZM23.813,73.824H14.5v2.341h9.316Zm6.514,6.924a2.908,2.908,0,0,0-.091-2.012,1.385,1.385,0,0,0-1.154-.486l-19.988.005a1.176,1.176,0,0,0-1.125.667,3.035,3.035,0,0,0,.052,1.843Z" transform="translate(0 -23.983)" fill="#344866"/>
          <path id="Trazado_1284102" data-name="Trazado 1284102" d="M64.617,10.454A30.294,30.294,0,0,0,15.606,21.089a1.079,1.079,0,0,1-1.3.6,1.013,1.013,0,0,1-.651-1.332A32.345,32.345,0,0,1,65.834,8.752a1.083,1.083,0,0,1,.3,1.406,1.007,1.007,0,0,1-1.517.3" transform="translate(-10.75 -0.001)" fill="#344866"/>
          <path id="Trazado_1284103" data-name="Trazado 1284103" d="M89.713,238.914a1.073,1.073,0,0,1-.648-1.333,1.039,1.039,0,0,1,1.368-.63,30.32,30.32,0,0,0,39.29-12.476,1.1,1.1,0,0,1,1.335-.4c.358.141.815.8.552,1.272a32.342,32.342,0,0,1-41.9,13.57" transform="translate(-70.437 -177.253)" fill="#344866"/>
          <path id="Trazado_1284104" data-name="Trazado 1284104" d="M112.429,70.627a7.181,7.181,0,1,1-7.181-7.181,7.181,7.181,0,0,1,7.181,7.181m-2.088,0a5.093,5.093,0,1,0-5.093,5.093,5.093,5.093,0,0,0,5.093-5.093" transform="translate(-77.604 -50.206)" fill="#344866"/>
          <path id="Trazado_1284105" data-name="Trazado 1284105" d="M262.153,171.991a3.184,3.184,0,1,1-3.184-3.184,3.184,3.184,0,0,1,3.184,3.184m-2.1,0a1.086,1.086,0,1,0-1.087,1.086,1.087,1.087,0,0,0,1.087-1.086" transform="translate(-202.41 -133.581)" fill="#344866"/>
          <path id="Trazado_1284106" data-name="Trazado 1284106" d="M262.142,78.5a3.186,3.186,0,1,1-3.186-3.186,3.186,3.186,0,0,1,3.186,3.186m-2.1,0a1.09,1.09,0,1,0-1.089,1.089,1.089,1.089,0,0,0,1.089-1.089" transform="translate(-202.398 -59.6)" fill="#344866"/>
        </g>
      </g>
    </g>
  </g>
</svg>
