<svg xmlns="http://www.w3.org/2000/svg" xmlns:xlink="http://www.w3.org/1999/xlink" width="396" height="438.341" viewBox="0 0 396 438.341">
  <defs>
    <clipPath id="clip-path">
      <path id="Trazado_608976" data-name="Trazado 608976" d="M6.151,0h383.7C393.246,0,396,6.8,396,15.181v407.98c0,8.384-2.754,15.181-6.151,15.181H6.151c-3.4,0-6.151-6.8-6.151-15.181V15.181C0,6.8,2.754,0,6.151,0Z" transform="translate(0 -0.78)" fill="#cfe8ff"/>
    </clipPath>
  </defs>
  <g id="Grupo_1212398" data-name="Grupo 1212398" transform="translate(3766.116 -3377)">
    <g id="Grupo_1212310" data-name="Grupo 1212310" transform="translate(-4056.116 -12914.658)">
      <g id="Enmascarar_grupo_1098656" data-name="Enmascarar grupo 1098656" transform="translate(290 16292.438)" clip-path="url(#clip-path)">
        <path id="Trazado_874294" data-name="Trazado 874294" d="M0,0H403.689V459.215H0Z" transform="translate(-3.46 -11.217)" fill="#cfe8ff"/>
      </g>
      <path id="Trazado_1285339" data-name="Trazado 1285339" d="M0,0H93V48H0Z" transform="translate(593 16486.855)" fill="#d5f4f8"/>
      <path id="Trazado_1285340" data-name="Trazado 1285340" d="M0,0H93V48H0Z" transform="translate(290 16428.684)" fill="#d5f4f8"/>
      <path id="Trazado_1285341" data-name="Trazado 1285341" d="M0,0H93V48H0Z" transform="translate(290 16477.184)" fill="#d5f4f8"/>
      <path id="Trazado_1285342" data-name="Trazado 1285342" d="M0,0H93V67.711H0Z" transform="translate(593 16534.855)" fill="#fff"/>
      <path id="Trazado_1285343" data-name="Trazado 1285343" d="M0,0H93V48.5H0Z" transform="translate(290 16476.684)" fill="#fff"/>
      <path id="Trazado_1285344" data-name="Trazado 1285344" d="M10.907,18H8.417L3.569,10.048V18H1.079V5.914h2.49l4.856,7.969V5.914h2.482Zm7.4-.913a3.008,3.008,0,0,1-2.457,1.079,2.837,2.837,0,0,1-2.2-.83,3.543,3.543,0,0,1-.776-2.432V9.019h2.4v5.809q0,1.4,1.278,1.4a1.732,1.732,0,0,0,1.677-.848V9.019h2.407V18H18.37Zm6.383-8.068.075,1a3.156,3.156,0,0,1,2.582-1.17,2.4,2.4,0,0,1,2.382,1.37,3.084,3.084,0,0,1,2.7-1.37A2.679,2.679,0,0,1,34.6,9.7a3.911,3.911,0,0,1,.714,2.561V18H32.9V12.272a1.71,1.71,0,0,0-.3-1.116,1.324,1.324,0,0,0-1.054-.353,1.5,1.5,0,0,0-1.494,1.029L30.065,18h-2.4V12.281a1.689,1.689,0,0,0-.307-1.129,1.337,1.337,0,0,0-1.046-.349,1.555,1.555,0,0,0-1.478.847V18h-2.4V9.019Zm18.893,5.811a1.278,1.278,0,0,0-.5-1.083,6.533,6.533,0,0,0-1.793-.8,12.71,12.71,0,0,1-2.05-.826,3.35,3.35,0,0,1-2.059-3,2.919,2.919,0,0,1,.552-1.747,3.6,3.6,0,0,1,1.585-1.2,5.967,5.967,0,0,1,2.32-.432,5.432,5.432,0,0,1,2.308.469,3.674,3.674,0,0,1,1.573,1.324,3.464,3.464,0,0,1,.56,1.942h-2.49a1.63,1.63,0,0,0-.523-1.291A2.15,2.15,0,0,0,41.6,7.732a2.3,2.3,0,0,0-1.419.386,1.217,1.217,0,0,0-.506,1.017,1.166,1.166,0,0,0,.594.988,6.705,6.705,0,0,0,1.747.747,7.55,7.55,0,0,1,3.1,1.585,3.157,3.157,0,0,1,.971,2.357,2.909,2.909,0,0,1-1.187,2.461,5.2,5.2,0,0,1-3.2.892,6.171,6.171,0,0,1-2.54-.51,4.019,4.019,0,0,1-1.747-1.4,3.582,3.582,0,0,1-.6-2.059h2.5q0,2,2.391,2a2.326,2.326,0,0,0,1.386-.361A1.175,1.175,0,0,0,43.579,14.829Zm8.16,3.337a4.409,4.409,0,0,1-3.217-1.212,4.308,4.308,0,0,1-1.241-3.229v-.232a5.426,5.426,0,0,1,.523-2.42,3.838,3.838,0,0,1,1.482-1.644,4.159,4.159,0,0,1,2.187-.577,3.727,3.727,0,0,1,2.9,1.162,4.722,4.722,0,0,1,1.058,3.3v.979H49.713a2.229,2.229,0,0,0,.7,1.411,2.12,2.12,0,0,0,1.482.531,2.589,2.589,0,0,0,2.167-1l1.179,1.32a3.6,3.6,0,0,1-1.461,1.191A4.793,4.793,0,0,1,51.739,18.166Zm-.274-7.379a1.5,1.5,0,0,0-1.158.484,2.5,2.5,0,0,0-.569,1.384h3.337v-.192a1.786,1.786,0,0,0-.432-1.238A1.547,1.547,0,0,0,51.465,10.787Zm10.376.481a6.517,6.517,0,0,0-.863-.066,1.757,1.757,0,0,0-1.785.921V18h-2.4V9.019H59.06l.066,1.071a2.223,2.223,0,0,1,2-1.237,2.514,2.514,0,0,1,.747.108ZM65.526,18H63.119V9.019h2.407ZM62.978,6.694a1.181,1.181,0,0,1,.361-.888,1.556,1.556,0,0,1,1.963,0,1.175,1.175,0,0,1,.365.888,1.178,1.178,0,0,1-.369.9,1.539,1.539,0,0,1-1.951,0A1.178,1.178,0,0,1,62.978,6.694Zm8.658,11.472a4.409,4.409,0,0,1-3.217-1.212,4.308,4.308,0,0,1-1.241-3.229v-.232a5.426,5.426,0,0,1,.523-2.42,3.838,3.838,0,0,1,1.482-1.644,4.159,4.159,0,0,1,2.187-.577,3.727,3.727,0,0,1,2.9,1.162,4.722,4.722,0,0,1,1.058,3.3v.979H69.61a2.229,2.229,0,0,0,.7,1.411,2.12,2.12,0,0,0,1.482.531,2.589,2.589,0,0,0,2.167-1l1.179,1.32a3.6,3.6,0,0,1-1.461,1.191A4.793,4.793,0,0,1,71.636,18.166Zm-.274-7.379a1.5,1.5,0,0,0-1.158.484,2.5,2.5,0,0,0-.569,1.384h3.337v-.192a1.786,1.786,0,0,0-.432-1.238A1.547,1.547,0,0,0,71.362,10.787Z" transform="translate(600 16497.965)" fill="#12263f"/>
      <path id="Trazado_1285345" data-name="Trazado 1285345" d="M1.079,18V5.914H4.8a5.647,5.647,0,0,1,2.851.718A5.007,5.007,0,0,1,9.612,8.674a6.3,6.3,0,0,1,.706,3.009v.556a6.316,6.316,0,0,1-.693,3A4.964,4.964,0,0,1,7.67,17.27,5.69,5.69,0,0,1,4.823,18ZM3.569,7.931V16h1.2a2.7,2.7,0,0,0,2.233-.955,4.314,4.314,0,0,0,.789-2.731v-.639a4.382,4.382,0,0,0-.764-2.793A2.7,2.7,0,0,0,4.8,7.931ZM21.956,18h-2.49l-4.848-7.952V18h-2.49V5.914h2.49l4.856,7.969V5.914h2.482Zm4.823,0h-2.49V5.914h2.49Z" transform="translate(297 16439.793)" fill="#12263f"/>
      <path id="Trazado_1284892" data-name="Trazado 1284892" d="M0,0V28.169" transform="translate(411.02 16382.894) rotate(180)" fill="none" stroke="#1e535a" stroke-width="3"/>
      <path id="Trazado_1284898" data-name="Trazado 1284898" d="M0,0V12.894" transform="translate(582 16534.629) rotate(180)" fill="none" stroke="#1e535a" stroke-width="3"/>
      <path id="Trazado_1284899" data-name="Trazado 1284899" d="M0,0V9.94" transform="translate(586.5 16533.152) rotate(180)" fill="none" stroke="#1e535a" stroke-width="3"/>
      <path id="Trazado_1284897" data-name="Trazado 1284897" d="M-17.667,132.844H0V0H18.45" transform="translate(400.5 16501.184) rotate(180)" fill="none" stroke="#1e535a" stroke-width="3"/>
      <g id="Trazado_1285346" data-name="Trazado 1285346" transform="translate(593 16474.52)" fill="none">
        <path d="M0,0H93V129.05H0Z" stroke="none"/>
        <path d="M 2 1.999992370605469 L 2 127.0498123168945 L 91 127.0498123168945 L 91 1.999992370605469 L 2 1.999992370605469 M 0 0 L 93 0 L 93 129.0498046875 L 0 129.0498046875 L 0 0 Z" stroke="none" fill="#1e535a"/>
      </g>
      <g id="Trazado_1285347" data-name="Trazado 1285347" transform="translate(290 16416.348)" fill="none">
        <path d="M0,0H93V108.836H0Z" stroke="none"/>
        <path d="M 2 2 L 2 106.8359375 L 91 106.8359375 L 91 2 L 2 2 M 0 0 L 93 0 L 93 108.8359375 L 0 108.8359375 L 0 0 Z" stroke="none" fill="#1e535a"/>
      </g>
      <path id="Trazado_1285348" data-name="Trazado 1285348" d="M5,0H88a5,5,0,0,1,5,5V32a5,5,0,0,1-5,5H5a5,5,0,0,1-5-5V5A5,5,0,0,1,5,0Z" transform="translate(593 16451.52)" fill="#1e535a"/>
      <path id="Trazado_1285349" data-name="Trazado 1285349" d="M5,0H88a5,5,0,0,1,5,5V32a5,5,0,0,1-5,5H5a5,5,0,0,1-5-5V5A5,5,0,0,1,5,0Z" transform="translate(290 16393.348)" fill="#1e535a"/>
      <path id="Trazado_1285350" data-name="Trazado 1285350" d="M7.994,15.186H3.312L2.333,18H.149L4.715,5.914H6.6L11.173,18H8.981ZM3.9,13.493H7.4L5.653,8.479Zm13.082-.141H14.643V18h-2.1V5.914h4.25a4.944,4.944,0,0,1,3.229.939A3.321,3.321,0,0,1,21.159,9.57a3.4,3.4,0,0,1-.585,2.031,3.724,3.724,0,0,1-1.631,1.259l2.714,5.033V18h-2.25Zm-2.341-1.693H16.8a2.4,2.4,0,0,0,1.66-.535,1.867,1.867,0,0,0,.6-1.465,1.988,1.988,0,0,0-.552-1.5,2.345,2.345,0,0,0-1.648-.548H14.643ZM31.468,7.607H27.7V18H25.616V7.607H21.881V5.914h9.587ZM35.27,18H33.178V5.914H35.27ZM34.813,2.619h2.3l-2.3,2.515-1.619,0Zm12.26,11.447a4.364,4.364,0,0,1-1.428,3.017,4.867,4.867,0,0,1-3.312,1.083,4.713,4.713,0,0,1-2.544-.685,4.5,4.5,0,0,1-1.7-1.947,7.024,7.024,0,0,1-.623-2.93V11.476a7.075,7.075,0,0,1,.606-3.013,4.567,4.567,0,0,1,1.739-2.009,4.851,4.851,0,0,1,2.619-.706,4.672,4.672,0,0,1,3.221,1.083A4.527,4.527,0,0,1,47.074,9.9H44.982a2.985,2.985,0,0,0-.76-1.88,2.51,2.51,0,0,0-1.789-.577,2.452,2.452,0,0,0-2.1,1,5,5,0,0,0-.751,2.937v1.072a5.308,5.308,0,0,0,.7,2.991,2.328,2.328,0,0,0,2.054,1.03,2.715,2.715,0,0,0,1.859-.556,2.9,2.9,0,0,0,.789-1.851ZM57.79,5.914v8.077a3.925,3.925,0,0,1-1.233,3.051,5.4,5.4,0,0,1-6.578.017,3.944,3.944,0,0,1-1.22-3.075V5.914h2.092V14a2.568,2.568,0,0,0,.614,1.851,2.4,2.4,0,0,0,1.81.639q2.424,0,2.424-2.557V5.914Zm4.341,10.409h5.487V18H60.031V5.914h2.1Zm16.211-4.051a7.415,7.415,0,0,1-.614,3.117,4.644,4.644,0,0,1-1.756,2.059,5.15,5.15,0,0,1-5.246,0A4.716,4.716,0,0,1,68.95,15.4a7.183,7.183,0,0,1-.635-3.063v-.681a7.351,7.351,0,0,1,.627-3.121A4.71,4.71,0,0,1,70.71,6.466a5.161,5.161,0,0,1,5.238-.008A4.651,4.651,0,0,1,77.712,8.5a7.336,7.336,0,0,1,.631,3.1Zm-2.1-.631a5.283,5.283,0,0,0-.76-3.08,2.68,2.68,0,0,0-4.283,0,5.181,5.181,0,0,0-.784,3.017v.7a5.243,5.243,0,0,0,.776,3.08,2.5,2.5,0,0,0,2.154,1.087,2.47,2.47,0,0,0,2.146-1.062,5.356,5.356,0,0,0,.751-3.1Z" transform="translate(600 16458.52)" fill="#fff"/>
      <path id="Trazado_1285351" data-name="Trazado 1285351" d="M15.6,14.065a4.364,4.364,0,0,1-1.428,3.017,4.867,4.867,0,0,1-3.312,1.083,4.713,4.713,0,0,1-2.544-.685,4.5,4.5,0,0,1-1.7-1.947,7.024,7.024,0,0,1-.623-2.93V11.476A7.075,7.075,0,0,1,6.6,8.462,4.567,4.567,0,0,1,8.339,6.454a4.851,4.851,0,0,1,2.619-.706,4.672,4.672,0,0,1,3.221,1.083A4.527,4.527,0,0,1,15.6,9.9H13.506a2.985,2.985,0,0,0-.76-1.88,2.51,2.51,0,0,0-1.789-.577,2.452,2.452,0,0,0-2.1,1A5,5,0,0,0,8.1,11.38v1.072a5.308,5.308,0,0,0,.7,2.991,2.328,2.328,0,0,0,2.054,1.03,2.715,2.715,0,0,0,1.859-.556,2.9,2.9,0,0,0,.789-1.851Zm3.976,2.258h5.487V18H17.474V5.914h2.1ZM28.888,18H26.8V5.914h2.092Zm9.646-5.4H33.569v3.719h5.8V18h-7.9V5.914h7.844V7.607H33.569v3.337h4.964ZM50.669,18h-2.1L43.182,9.425V18h-2.1V5.914h2.1l5.4,8.608V5.914h2.083ZM61.883,7.607H58.115V18H56.031V7.607H52.3V5.914h9.587Zm8.649,5H65.569v3.719h5.8V18h-7.9V5.914h7.844V7.607H65.569v3.337h4.964Z" transform="translate(298 16400.348)" fill="#fff"/>
      <path id="Trazado_1285352" data-name="Trazado 1285352" d="M10.907,18H8.417L3.569,10.048V18H1.079V5.914h2.49l4.856,7.969V5.914h2.482Zm1.644-4.574a5.327,5.327,0,0,1,.515-2.382,3.768,3.768,0,0,1,1.482-1.619,4.323,4.323,0,0,1,2.245-.573A4.09,4.09,0,0,1,19.76,9.965a4.464,4.464,0,0,1,1.282,3.021l.017.614a4.694,4.694,0,0,1-1.154,3.316,4.011,4.011,0,0,1-3.1,1.249,4.031,4.031,0,0,1-3.1-1.245,4.777,4.777,0,0,1-1.158-3.387Zm2.4.17a3.357,3.357,0,0,0,.481,1.958,1.73,1.73,0,0,0,2.739.008,3.674,3.674,0,0,0,.49-2.141,3.324,3.324,0,0,0-.49-1.945,1.592,1.592,0,0,0-1.378-.69,1.566,1.566,0,0,0-1.361.686A3.735,3.735,0,0,0,14.95,13.6Zm9.836-4.578.075,1a3.156,3.156,0,0,1,2.582-1.17,2.4,2.4,0,0,1,2.382,1.37,3.084,3.084,0,0,1,2.7-1.37A2.679,2.679,0,0,1,34.7,9.7a3.911,3.911,0,0,1,.714,2.561V18H33V12.272a1.71,1.71,0,0,0-.3-1.116,1.324,1.324,0,0,0-1.054-.353,1.5,1.5,0,0,0-1.494,1.029L30.165,18h-2.4V12.281a1.689,1.689,0,0,0-.307-1.129,1.337,1.337,0,0,0-1.046-.349,1.555,1.555,0,0,0-1.478.847V18h-2.4V9.019Zm20.561,4.574a5.439,5.439,0,0,1-.921,3.366,3.052,3.052,0,0,1-2.573,1.208,2.8,2.8,0,0,1-2.333-1.121L39.412,18H37.254V5.25h2.4V9.824a2.732,2.732,0,0,1,2.183-.971,3.077,3.077,0,0,1,2.577,1.208,5.446,5.446,0,0,1,.934,3.4Zm-2.4-.174a3.573,3.573,0,0,0-.432-1.988A1.46,1.46,0,0,0,41.23,10.8a1.582,1.582,0,0,0-1.577.938v3.544a1.6,1.6,0,0,0,1.594.946,1.481,1.481,0,0,0,1.527-1.146A5.909,5.909,0,0,0,42.948,13.418Zm8.923-2.15a6.517,6.517,0,0,0-.863-.066,1.757,1.757,0,0,0-1.785.921V18h-2.4V9.019h2.266l.066,1.071a2.223,2.223,0,0,1,2-1.237,2.514,2.514,0,0,1,.747.108Zm5.288,6.9a4.409,4.409,0,0,1-3.217-1.212A4.308,4.308,0,0,1,52.7,13.725v-.232a5.426,5.426,0,0,1,.523-2.42,3.838,3.838,0,0,1,1.482-1.644,4.159,4.159,0,0,1,2.187-.577,3.727,3.727,0,0,1,2.9,1.162,4.722,4.722,0,0,1,1.058,3.3v.979H55.134a2.229,2.229,0,0,0,.7,1.411,2.12,2.12,0,0,0,1.482.531,2.589,2.589,0,0,0,2.167-1l1.179,1.32A3.6,3.6,0,0,1,59.2,17.739,4.793,4.793,0,0,1,57.159,18.166Zm-.274-7.379a1.5,1.5,0,0,0-1.158.484,2.5,2.5,0,0,0-.569,1.384H58.5v-.192a1.786,1.786,0,0,0-.432-1.238A1.547,1.547,0,0,0,56.885,10.787ZM10.567,37.974a4.277,4.277,0,0,1-1.44,3.071A5.058,5.058,0,0,1,5.7,42.166,4.548,4.548,0,0,1,2.046,40.6a6.416,6.416,0,0,1-1.332-4.3v-.739A7.245,7.245,0,0,1,1.328,32.5a4.6,4.6,0,0,1,1.756-2.038,4.918,4.918,0,0,1,2.652-.71,4.927,4.927,0,0,1,3.37,1.121,4.6,4.6,0,0,1,1.478,3.146H8.093a2.524,2.524,0,0,0-.652-1.7,2.413,2.413,0,0,0-1.706-.527,2.116,2.116,0,0,0-1.864.892,5,5,0,0,0-.635,2.768v.913a5.352,5.352,0,0,0,.594,2.864,2.077,2.077,0,0,0,1.872.9,2.458,2.458,0,0,0,1.722-.527,2.381,2.381,0,0,0,.652-1.631ZM17.249,42a2.664,2.664,0,0,1-.241-.805,2.9,2.9,0,0,1-2.266.971,3.189,3.189,0,0,1-2.187-.764,2.456,2.456,0,0,1-.867-1.926,2.538,2.538,0,0,1,1.058-2.191,5.222,5.222,0,0,1,3.059-.772h1.1V36a1.48,1.48,0,0,0-.32-1,1.257,1.257,0,0,0-1.009-.374,1.429,1.429,0,0,0-.95.291.987.987,0,0,0-.344.8h-2.4a2.41,2.41,0,0,1,.481-1.444,3.182,3.182,0,0,1,1.361-1.042,4.961,4.961,0,0,1,1.976-.378,3.92,3.92,0,0,1,2.635.834,2.918,2.918,0,0,1,.975,2.345v3.893a4.294,4.294,0,0,0,.357,1.934V42Zm-1.984-1.668a2.066,2.066,0,0,0,.979-.237,1.554,1.554,0,0,0,.664-.635V37.916h-.9q-1.8,0-1.917,1.245l-.008.141a.96.96,0,0,0,.315.739A1.225,1.225,0,0,0,15.265,40.332Zm8.1-7.313.075,1.038a3.136,3.136,0,0,1,2.582-1.2,2.606,2.606,0,0,1,2.125.838,3.912,3.912,0,0,1,.714,2.507V42h-2.4V36.256a1.556,1.556,0,0,0-.332-1.108,1.486,1.486,0,0,0-1.1-.344,1.65,1.65,0,0,0-1.519.863V42h-2.4V33.019Zm10.185-2.208v2.208h1.536v1.76H33.552v4.482a1.07,1.07,0,0,0,.191.714.959.959,0,0,0,.73.216,3.826,3.826,0,0,0,.706-.058V41.95a4.939,4.939,0,0,1-1.453.216,2.29,2.29,0,0,1-2.573-2.548V34.778H29.841v-1.76h1.312V30.811ZM38.956,42H36.548V33.019h2.407ZM36.407,30.694a1.181,1.181,0,0,1,.361-.888,1.556,1.556,0,0,1,1.963,0,1.268,1.268,0,0,1,0,1.785,1.539,1.539,0,0,1-1.951,0A1.178,1.178,0,0,1,36.407,30.694Zm4.15,6.749A5.413,5.413,0,0,1,41.5,34.1a3.057,3.057,0,0,1,2.577-1.245,2.751,2.751,0,0,1,2.167.979V29.25h2.407V42H46.484l-.116-.955a2.823,2.823,0,0,1-2.308,1.121,3.049,3.049,0,0,1-2.544-1.249A5.587,5.587,0,0,1,40.558,37.443Zm2.4.179a3.546,3.546,0,0,0,.44,1.937,1.433,1.433,0,0,0,1.278.673,1.605,1.605,0,0,0,1.569-.939v-3.55a1.582,1.582,0,0,0-1.552-.939Q42.957,34.8,42.957,37.621ZM55.715,42a2.664,2.664,0,0,1-.241-.805,2.9,2.9,0,0,1-2.266.971,3.189,3.189,0,0,1-2.187-.764,2.456,2.456,0,0,1-.867-1.926,2.538,2.538,0,0,1,1.058-2.191,5.222,5.222,0,0,1,3.059-.772h1.1V36a1.48,1.48,0,0,0-.32-1,1.257,1.257,0,0,0-1.009-.374,1.429,1.429,0,0,0-.95.291.987.987,0,0,0-.344.8h-2.4a2.41,2.41,0,0,1,.481-1.444A3.182,3.182,0,0,1,52.2,33.23a4.961,4.961,0,0,1,1.976-.378,3.92,3.92,0,0,1,2.635.834,2.918,2.918,0,0,1,.975,2.345v3.893a4.294,4.294,0,0,0,.357,1.934V42Zm-1.984-1.668a2.066,2.066,0,0,0,.979-.237,1.554,1.554,0,0,0,.664-.635V37.916h-.9q-1.8,0-1.917,1.245l-.008.141a.96.96,0,0,0,.315.739A1.225,1.225,0,0,0,53.731,40.332Zm5.52-2.889a5.413,5.413,0,0,1,.942-3.345,3.057,3.057,0,0,1,2.577-1.245,2.751,2.751,0,0,1,2.167.979V29.25h2.407V42H65.178l-.116-.955a2.823,2.823,0,0,1-2.308,1.121,3.049,3.049,0,0,1-2.544-1.249A5.587,5.587,0,0,1,59.251,37.443Zm2.4.179a3.546,3.546,0,0,0,.44,1.937,1.433,1.433,0,0,0,1.278.673,1.605,1.605,0,0,0,1.569-.939v-3.55a1.582,1.582,0,0,0-1.552-.939Q61.65,34.8,61.65,37.621Z" transform="translate(600 16545.855)" fill="#12263f"/>
      <path id="Trazado_1285353" data-name="Trazado 1285353" d="M10.907,18H8.417L3.569,10.048V18H1.079V5.914h2.49l4.856,7.969V5.914h2.482Zm1.644-4.574a5.327,5.327,0,0,1,.515-2.382,3.768,3.768,0,0,1,1.482-1.619,4.323,4.323,0,0,1,2.245-.573A4.09,4.09,0,0,1,19.76,9.965a4.464,4.464,0,0,1,1.282,3.021l.017.614a4.694,4.694,0,0,1-1.154,3.316,4.011,4.011,0,0,1-3.1,1.249,4.031,4.031,0,0,1-3.1-1.245,4.777,4.777,0,0,1-1.158-3.387Zm2.4.17a3.357,3.357,0,0,0,.481,1.958,1.73,1.73,0,0,0,2.739.008,3.674,3.674,0,0,0,.49-2.141,3.324,3.324,0,0,0-.49-1.945,1.592,1.592,0,0,0-1.378-.69,1.566,1.566,0,0,0-1.361.686A3.735,3.735,0,0,0,14.95,13.6Zm9.836-4.578.075,1a3.156,3.156,0,0,1,2.582-1.17,2.4,2.4,0,0,1,2.382,1.37,3.084,3.084,0,0,1,2.7-1.37A2.679,2.679,0,0,1,34.7,9.7a3.911,3.911,0,0,1,.714,2.561V18H33V12.272a1.71,1.71,0,0,0-.3-1.116,1.324,1.324,0,0,0-1.054-.353,1.5,1.5,0,0,0-1.494,1.029L30.165,18h-2.4V12.281a1.689,1.689,0,0,0-.307-1.129,1.337,1.337,0,0,0-1.046-.349,1.555,1.555,0,0,0-1.478.847V18h-2.4V9.019Zm20.561,4.574a5.439,5.439,0,0,1-.921,3.366,3.052,3.052,0,0,1-2.573,1.208,2.8,2.8,0,0,1-2.333-1.121L39.412,18H37.254V5.25h2.4V9.824a2.732,2.732,0,0,1,2.183-.971,3.077,3.077,0,0,1,2.577,1.208,5.446,5.446,0,0,1,.934,3.4Zm-2.4-.174a3.573,3.573,0,0,0-.432-1.988A1.46,1.46,0,0,0,41.23,10.8a1.582,1.582,0,0,0-1.577.938v3.544a1.6,1.6,0,0,0,1.594.946,1.481,1.481,0,0,0,1.527-1.146A5.909,5.909,0,0,0,42.948,13.418Zm8.923-2.15a6.517,6.517,0,0,0-.863-.066,1.757,1.757,0,0,0-1.785.921V18h-2.4V9.019h2.266l.066,1.071a2.223,2.223,0,0,1,2-1.237,2.514,2.514,0,0,1,.747.108Zm5.288,6.9a4.409,4.409,0,0,1-3.217-1.212A4.308,4.308,0,0,1,52.7,13.725v-.232a5.426,5.426,0,0,1,.523-2.42,3.838,3.838,0,0,1,1.482-1.644,4.159,4.159,0,0,1,2.187-.577,3.727,3.727,0,0,1,2.9,1.162,4.722,4.722,0,0,1,1.058,3.3v.979H55.134a2.229,2.229,0,0,0,.7,1.411,2.12,2.12,0,0,0,1.482.531,2.589,2.589,0,0,0,2.167-1l1.179,1.32A3.6,3.6,0,0,1,59.2,17.739,4.793,4.793,0,0,1,57.159,18.166Zm-.274-7.379a1.5,1.5,0,0,0-1.158.484,2.5,2.5,0,0,0-.569,1.384H58.5v-.192a1.786,1.786,0,0,0-.432-1.238A1.547,1.547,0,0,0,56.885,10.787Z" transform="translate(297 16487.684)" fill="#12263f"/>
      <path id="Trazado_1284889" data-name="Trazado 1284889" d="M0,0V93" transform="translate(686 16535.355) rotate(90)" fill="none" stroke="#1e535a" stroke-width="2"/>
      <path id="Trazado_1284903" data-name="Trazado 1284903" d="M0,0V93" transform="translate(383 16477.184) rotate(90)" fill="none" stroke="#1e535a" stroke-width="2"/>
      <path id="Trazado_1285354" data-name="Trazado 1285354" d="M0,0H142V48H0Z" transform="translate(417 16344.339)" fill="#d5f4f8"/>
      <path id="Trazado_1285355" data-name="Trazado 1285355" d="M0,0H141.706V47.831H0Z" transform="translate(417 16503.629)" fill="#fff"/>
      <path id="Trazado_1285356" data-name="Trazado 1285356" d="M0,0H141.706V48H0Z" transform="translate(417 16618.855)" fill="#d5f4f8"/>
      <path id="Trazado_1285357" data-name="Trazado 1285357" d="M0,0H142V45H0Z" transform="translate(417 16392.34)" fill="#fff"/>
      <path id="Trazado_1285358" data-name="Trazado 1285358" d="M0,0H141.706V45H0Z" transform="translate(417 16666.855)" fill="#fff"/>
      <path id="Trazado_1285359" data-name="Trazado 1285359" d="M3.727,18H1.237V5.914h2.49Zm2.308,0V5.914H9.753a5.647,5.647,0,0,1,2.851.718,5.007,5.007,0,0,1,1.963,2.042,6.3,6.3,0,0,1,.706,3.009v.556a6.316,6.316,0,0,1-.693,3,4.964,4.964,0,0,1-1.955,2.034A5.69,5.69,0,0,1,9.778,18ZM8.525,7.931V16h1.2a2.7,2.7,0,0,0,2.233-.955,4.314,4.314,0,0,0,.789-2.731v-.639a4.382,4.382,0,0,0-.764-2.793,2.7,2.7,0,0,0-2.233-.95Zm11.048,5.811V18h-2.49V5.914H21.8a5.455,5.455,0,0,1,2.395.5,3.67,3.67,0,0,1,1.59,1.415,3.946,3.946,0,0,1,.556,2.088,3.47,3.47,0,0,1-1.216,2.8,5.065,5.065,0,0,1-3.366,1.025Zm0-2.017H21.8A2.187,2.187,0,0,0,23.3,11.26a1.691,1.691,0,0,0,.519-1.328A1.994,1.994,0,0,0,23.3,8.5a1.953,1.953,0,0,0-1.444-.564H19.573Zm12.451,6.441a4.409,4.409,0,0,1-3.217-1.212,4.308,4.308,0,0,1-1.241-3.229v-.232a5.426,5.426,0,0,1,.523-2.42,3.838,3.838,0,0,1,1.482-1.644,4.159,4.159,0,0,1,2.187-.577,3.727,3.727,0,0,1,2.9,1.162,4.722,4.722,0,0,1,1.058,3.3v.979H30a2.229,2.229,0,0,0,.7,1.411,2.12,2.12,0,0,0,1.482.531,2.589,2.589,0,0,0,2.167-1l1.179,1.32a3.6,3.6,0,0,1-1.461,1.191A4.793,4.793,0,0,1,32.024,18.166Zm-.274-7.379a1.5,1.5,0,0,0-1.158.484,2.5,2.5,0,0,0-.569,1.384h3.337v-.192a1.786,1.786,0,0,0-.432-1.238A1.547,1.547,0,0,0,31.75,10.787Zm4.956,2.656a5.413,5.413,0,0,1,.942-3.345,3.057,3.057,0,0,1,2.577-1.245,2.751,2.751,0,0,1,2.167.979V5.25H44.8V18H42.633l-.116-.955a2.823,2.823,0,0,1-2.308,1.121,3.049,3.049,0,0,1-2.544-1.249A5.587,5.587,0,0,1,36.706,13.443Zm2.4.179a3.546,3.546,0,0,0,.44,1.937,1.433,1.433,0,0,0,1.278.673,1.605,1.605,0,0,0,1.569-.939v-3.55A1.582,1.582,0,0,0,40.84,10.8Q39.1,10.8,39.1,13.621ZM49.19,18H46.783V9.019H49.19ZM46.642,6.694A1.181,1.181,0,0,1,47,5.806a1.556,1.556,0,0,1,1.963,0,1.175,1.175,0,0,1,.365.888,1.178,1.178,0,0,1-.369.9,1.539,1.539,0,0,1-1.951,0A1.178,1.178,0,0,1,46.642,6.694Zm4.15,6.749a5.413,5.413,0,0,1,.942-3.345,3.057,3.057,0,0,1,2.577-1.245,2.751,2.751,0,0,1,2.167.979V5.25h2.407V18H56.719l-.116-.955A2.823,2.823,0,0,1,54.3,18.166a3.049,3.049,0,0,1-2.544-1.249A5.587,5.587,0,0,1,50.792,13.443Zm2.4.179a3.546,3.546,0,0,0,.44,1.937,1.433,1.433,0,0,0,1.278.673,1.605,1.605,0,0,0,1.569-.939v-3.55a1.582,1.582,0,0,0-1.552-.939Q53.191,10.8,53.191,13.621Zm7.18-.2a5.327,5.327,0,0,1,.515-2.382,3.767,3.767,0,0,1,1.482-1.619,4.323,4.323,0,0,1,2.245-.573,4.09,4.09,0,0,1,2.968,1.112,4.464,4.464,0,0,1,1.282,3.021l.017.614a4.694,4.694,0,0,1-1.154,3.316,4.472,4.472,0,0,1-6.2,0,4.777,4.777,0,0,1-1.158-3.387Zm2.4.17a3.357,3.357,0,0,0,.481,1.958,1.73,1.73,0,0,0,2.739.008,3.674,3.674,0,0,0,.49-2.141,3.324,3.324,0,0,0-.49-1.945,1.592,1.592,0,0,0-1.378-.69,1.566,1.566,0,0,0-1.361.686A3.735,3.735,0,0,0,62.771,13.6Z" transform="translate(428 16355.448)" fill="#12263f"/>
      <path id="Trazado_1285360" data-name="Trazado 1285360" d="M10.907,18H8.417L3.569,10.048V18H1.079V5.914h2.49l4.856,7.969V5.914h2.482Zm7.4-.913a3.008,3.008,0,0,1-2.457,1.079,2.837,2.837,0,0,1-2.2-.83,3.543,3.543,0,0,1-.776-2.432V9.019h2.4v5.809q0,1.4,1.278,1.4a1.732,1.732,0,0,0,1.677-.848V9.019h2.407V18H18.37Zm6.383-8.068.075,1a3.156,3.156,0,0,1,2.582-1.17,2.4,2.4,0,0,1,2.382,1.37,3.084,3.084,0,0,1,2.7-1.37A2.679,2.679,0,0,1,34.6,9.7a3.911,3.911,0,0,1,.714,2.561V18H32.9V12.272a1.71,1.71,0,0,0-.3-1.116,1.324,1.324,0,0,0-1.054-.353,1.5,1.5,0,0,0-1.494,1.029L30.065,18h-2.4V12.281a1.689,1.689,0,0,0-.307-1.129,1.337,1.337,0,0,0-1.046-.349,1.555,1.555,0,0,0-1.478.847V18h-2.4V9.019Zm18.893,5.811a1.278,1.278,0,0,0-.5-1.083,6.533,6.533,0,0,0-1.793-.8,12.71,12.71,0,0,1-2.05-.826,3.35,3.35,0,0,1-2.059-3,2.919,2.919,0,0,1,.552-1.747,3.6,3.6,0,0,1,1.585-1.2,5.967,5.967,0,0,1,2.32-.432,5.432,5.432,0,0,1,2.308.469,3.674,3.674,0,0,1,1.573,1.324,3.464,3.464,0,0,1,.56,1.942h-2.49a1.63,1.63,0,0,0-.523-1.291A2.15,2.15,0,0,0,41.6,7.732a2.3,2.3,0,0,0-1.419.386,1.217,1.217,0,0,0-.506,1.017,1.166,1.166,0,0,0,.594.988,6.705,6.705,0,0,0,1.747.747,7.55,7.55,0,0,1,3.1,1.585,3.157,3.157,0,0,1,.971,2.357,2.909,2.909,0,0,1-1.187,2.461,5.2,5.2,0,0,1-3.2.892,6.171,6.171,0,0,1-2.54-.51,4.019,4.019,0,0,1-1.747-1.4,3.582,3.582,0,0,1-.6-2.059h2.5q0,2,2.391,2a2.326,2.326,0,0,0,1.386-.361A1.175,1.175,0,0,0,43.579,14.829Zm8.16,3.337a4.409,4.409,0,0,1-3.217-1.212,4.308,4.308,0,0,1-1.241-3.229v-.232a5.426,5.426,0,0,1,.523-2.42,3.838,3.838,0,0,1,1.482-1.644,4.159,4.159,0,0,1,2.187-.577,3.727,3.727,0,0,1,2.9,1.162,4.722,4.722,0,0,1,1.058,3.3v.979H49.713a2.229,2.229,0,0,0,.7,1.411,2.12,2.12,0,0,0,1.482.531,2.589,2.589,0,0,0,2.167-1l1.179,1.32a3.6,3.6,0,0,1-1.461,1.191A4.793,4.793,0,0,1,51.739,18.166Zm-.274-7.379a1.5,1.5,0,0,0-1.158.484,2.5,2.5,0,0,0-.569,1.384h3.337v-.192a1.786,1.786,0,0,0-.432-1.238A1.547,1.547,0,0,0,51.465,10.787Zm10.376.481a6.517,6.517,0,0,0-.863-.066,1.757,1.757,0,0,0-1.785.921V18h-2.4V9.019H59.06l.066,1.071a2.223,2.223,0,0,1,2-1.237,2.514,2.514,0,0,1,.747.108ZM65.526,18H63.119V9.019h2.407ZM62.978,6.694a1.181,1.181,0,0,1,.361-.888,1.556,1.556,0,0,1,1.963,0,1.175,1.175,0,0,1,.365.888,1.178,1.178,0,0,1-.369.9,1.539,1.539,0,0,1-1.951,0A1.178,1.178,0,0,1,62.978,6.694Zm8.658,11.472a4.409,4.409,0,0,1-3.217-1.212,4.308,4.308,0,0,1-1.241-3.229v-.232a5.426,5.426,0,0,1,.523-2.42,3.838,3.838,0,0,1,1.482-1.644,4.159,4.159,0,0,1,2.187-.577,3.727,3.727,0,0,1,2.9,1.162,4.722,4.722,0,0,1,1.058,3.3v.979H69.61a2.229,2.229,0,0,0,.7,1.411,2.12,2.12,0,0,0,1.482.531,2.589,2.589,0,0,0,2.167-1l1.179,1.32a3.6,3.6,0,0,1-1.461,1.191A4.793,4.793,0,0,1,71.636,18.166Zm-.274-7.379a1.5,1.5,0,0,0-1.158.484,2.5,2.5,0,0,0-.569,1.384h3.337v-.192a1.786,1.786,0,0,0-.432-1.238A1.547,1.547,0,0,0,71.362,10.787Z" transform="translate(428 16515.738)" fill="#12263f"/>
      <path id="Trazado_1285361" data-name="Trazado 1285361" d="M8.351,13.061H3.569V18H1.079V5.914H8.948V7.931H3.569v3.121H8.351Zm6.018,5.1a4.409,4.409,0,0,1-3.217-1.212,4.308,4.308,0,0,1-1.241-3.229v-.232a5.426,5.426,0,0,1,.523-2.42,3.838,3.838,0,0,1,1.482-1.644A4.159,4.159,0,0,1,14.1,8.853,3.727,3.727,0,0,1,17,10.015a4.722,4.722,0,0,1,1.058,3.3v.979H12.343a2.229,2.229,0,0,0,.7,1.411,2.12,2.12,0,0,0,1.482.531,2.589,2.589,0,0,0,2.167-1l1.179,1.32a3.6,3.6,0,0,1-1.461,1.191A4.793,4.793,0,0,1,14.369,18.166Zm-.274-7.379a1.5,1.5,0,0,0-1.158.484,2.5,2.5,0,0,0-.569,1.384h3.337v-.192a1.786,1.786,0,0,0-.432-1.238A1.547,1.547,0,0,0,14.095,10.787Zm9.064,5.445a1.573,1.573,0,0,0,1.079-.365,1.28,1.28,0,0,0,.432-.971h2.25a3.077,3.077,0,0,1-.5,1.673,3.286,3.286,0,0,1-1.341,1.179,4.2,4.2,0,0,1-1.88.419,3.9,3.9,0,0,1-3.038-1.224,4.845,4.845,0,0,1-1.112-3.383V13.4a4.79,4.79,0,0,1,1.1-3.312,3.854,3.854,0,0,1,3.03-1.237,3.778,3.778,0,0,1,2.7.959,3.4,3.4,0,0,1,1.033,2.552H24.67a1.648,1.648,0,0,0-.432-1.139,1.6,1.6,0,0,0-2.362.173,3.541,3.541,0,0,0-.427,1.983v.249a3.586,3.586,0,0,0,.423,2A1.463,1.463,0,0,0,23.159,16.232ZM30.63,10a2.994,2.994,0,0,1,2.4-1.146q2.922,0,2.963,3.4V18h-2.4V12.314a1.669,1.669,0,0,0-.332-1.141,1.423,1.423,0,0,0-1.1-.369,1.633,1.633,0,0,0-1.527.813V18h-2.4V5.25h2.4Zm12.376,8a2.664,2.664,0,0,1-.241-.805,2.9,2.9,0,0,1-2.266.971,3.189,3.189,0,0,1-2.187-.764,2.456,2.456,0,0,1-.867-1.926A2.538,2.538,0,0,1,38.5,13.285a5.222,5.222,0,0,1,3.059-.772h1.1V12a1.48,1.48,0,0,0-.32-1,1.257,1.257,0,0,0-1.009-.374,1.429,1.429,0,0,0-.95.291.987.987,0,0,0-.344.8h-2.4a2.41,2.41,0,0,1,.481-1.444A3.182,3.182,0,0,1,39.487,9.23a4.961,4.961,0,0,1,1.976-.378,3.92,3.92,0,0,1,2.635.834,2.918,2.918,0,0,1,.975,2.345v3.893a4.294,4.294,0,0,0,.357,1.934V18Zm-1.984-1.668A2.066,2.066,0,0,0,42,16.095a1.554,1.554,0,0,0,.664-.635V13.916h-.9q-1.8,0-1.917,1.245l-.008.141a.96.96,0,0,0,.315.739A1.225,1.225,0,0,0,41.022,16.332Z" transform="translate(428 16629.965)" fill="#12263f"/>
      <path id="Trazado_1285362" data-name="Trazado 1285362" d="M1.029,13.086a12.739,12.739,0,0,1,.506-3.619A9.551,9.551,0,0,1,3.03,6.425,5.579,5.579,0,0,1,5.171,4.586l.465,1.295A5.778,5.778,0,0,0,3.744,8.653a12.837,12.837,0,0,0-.681,4.383v.257a13.082,13.082,0,0,0,.672,4.4,5.89,5.89,0,0,0,1.9,2.814l-.465,1.27a5.581,5.581,0,0,1-2.1-1.789,9.391,9.391,0,0,1-1.49-2.959,12.663,12.663,0,0,1-.548-3.5Zm8.508.656V18H7.047V5.914h4.715a5.455,5.455,0,0,1,2.395.5,3.67,3.67,0,0,1,1.59,1.415A3.946,3.946,0,0,1,16.3,9.915a3.47,3.47,0,0,1-1.216,2.8,5.065,5.065,0,0,1-3.366,1.025Zm0-2.017h2.225a2.187,2.187,0,0,0,1.507-.465,1.691,1.691,0,0,0,.519-1.328A1.994,1.994,0,0,0,13.265,8.5a1.953,1.953,0,0,0-1.444-.564H9.538ZM21.8,13.152,20.5,14.547V18h-2.49V5.914H20.5v5.479l1.1-1.5,3.08-3.976h3.063L23.45,11.285,27.866,18H24.9Zm10.982.125a12.088,12.088,0,0,1-.54,3.611,9.8,9.8,0,0,1-1.552,3.063,5.592,5.592,0,0,1-2.167,1.826l-.465-1.27a5.837,5.837,0,0,0,1.859-2.739,12.685,12.685,0,0,0,.706-4.258v-.44a12.971,12.971,0,0,0-.677-4.375,6.084,6.084,0,0,0-1.888-2.839l.465-1.27a5.594,5.594,0,0,1,2.129,1.776,9.675,9.675,0,0,1,1.552,3A12,12,0,0,1,32.78,12.9Z" transform="translate(517.206 16355.894)" fill="#12263f"/>
      <path id="Trazado_1285363" data-name="Trazado 1285363" d="M1.029,13.086a12.739,12.739,0,0,1,.506-3.619A9.551,9.551,0,0,1,3.03,6.425,5.579,5.579,0,0,1,5.171,4.586l.465,1.295A5.778,5.778,0,0,0,3.744,8.653a12.837,12.837,0,0,0-.681,4.383v.257a13.082,13.082,0,0,0,.672,4.4,5.89,5.89,0,0,0,1.9,2.814l-.465,1.27a5.581,5.581,0,0,1-2.1-1.789,9.391,9.391,0,0,1-1.49-2.959,12.663,12.663,0,0,1-.548-3.5Zm13.29-.025H9.538V18H7.047V5.914h7.869V7.931H9.538v3.121h4.781Zm5.827.091-1.295,1.395V18h-2.49V5.914h2.49v5.479l1.1-1.5,3.08-3.976h3.063L21.8,11.285,26.214,18H23.25Zm10.982.125a12.088,12.088,0,0,1-.54,3.611,9.8,9.8,0,0,1-1.552,3.063,5.592,5.592,0,0,1-2.167,1.826l-.465-1.27a5.837,5.837,0,0,0,1.859-2.739,12.685,12.685,0,0,0,.706-4.258v-.44a12.971,12.971,0,0,0-.677-4.375A6.084,6.084,0,0,0,26.4,5.856l.465-1.27A5.594,5.594,0,0,1,29,6.362a9.675,9.675,0,0,1,1.552,3,12,12,0,0,1,.577,3.544Z" transform="translate(517.206 16516.184)" fill="#12263f"/>
      <path id="Trazado_1285364" data-name="Trazado 1285364" d="M1.029,13.086a12.739,12.739,0,0,1,.506-3.619A9.551,9.551,0,0,1,3.03,6.425,5.579,5.579,0,0,1,5.171,4.586l.465,1.295A5.778,5.778,0,0,0,3.744,8.653a12.837,12.837,0,0,0-.681,4.383v.257a13.082,13.082,0,0,0,.672,4.4,5.89,5.89,0,0,0,1.9,2.814l-.465,1.27a5.581,5.581,0,0,1-2.1-1.789,9.391,9.391,0,0,1-1.49-2.959,12.663,12.663,0,0,1-.548-3.5Zm13.29-.025H9.538V18H7.047V5.914h7.869V7.931H9.538v3.121h4.781Zm5.827.091-1.295,1.395V18h-2.49V5.914h2.49v5.479l1.1-1.5,3.08-3.976h3.063L21.8,11.285,26.214,18H23.25Zm10.982.125a12.088,12.088,0,0,1-.54,3.611,9.8,9.8,0,0,1-1.552,3.063,5.592,5.592,0,0,1-2.167,1.826l-.465-1.27a5.837,5.837,0,0,0,1.859-2.739,12.685,12.685,0,0,0,.706-4.258v-.44a12.971,12.971,0,0,0-.677-4.375A6.084,6.084,0,0,0,26.4,5.856l.465-1.27A5.594,5.594,0,0,1,29,6.362a9.675,9.675,0,0,1,1.552,3,12,12,0,0,1,.577,3.544Z" transform="translate(517.206 16674.461)" fill="#12263f"/>
      <path id="Trazado_1284882" data-name="Trazado 1284882" d="M0,0V92.339" transform="translate(511.226 16438.34) rotate(180)" fill="none" stroke="#1e535a" stroke-width="2"/>
      <path id="Trazado_1284894" data-name="Trazado 1284894" d="M0,0V28.169" transform="translate(473.774 16453.066) rotate(-90)" fill="none" stroke="#1e535a" stroke-width="3"/>
      <path id="Trazado_1284896" data-name="Trazado 1284896" d="M0,0V28.169" transform="translate(473.774 16568.352) rotate(-90)" fill="none" stroke="#1e535a" stroke-width="3"/>
      <path id="Trazado_1284893" data-name="Trazado 1284893" d="M0,0V30.449" transform="translate(487.858 16468.289) rotate(180)" fill="none" stroke="#1e535a" stroke-width="3"/>
      <path id="Trazado_1284905" data-name="Trazado 1284905" d="M18.292,94.51H0V0H-17.525" transform="translate(576 16510.855) rotate(180)" fill="none" stroke="#1e535a" stroke-width="3"/>
      <path id="Trazado_1284895" data-name="Trazado 1284895" d="M0,0V30.449" transform="translate(487.858 16583.578) rotate(180)" fill="none" stroke="#1e535a" stroke-width="3"/>
      <path id="Trazado_1284883" data-name="Trazado 1284883" d="M0,0V47.838" transform="translate(511.226 16553.129) rotate(180)" fill="none" stroke="#1e535a" stroke-width="2"/>
      <path id="Trazado_1284885" data-name="Trazado 1284885" d="M0,0V92.339" transform="translate(511.226 16712.855) rotate(180)" fill="none" stroke="#1e535a" stroke-width="2"/>
      <g id="Trazado_1285365" data-name="Trazado 1285365" transform="translate(417 16331.999)" fill="none">
        <path d="M0,0H141.706V106.339H0Z" stroke="none"/>
        <path d="M 2 1.999992370605469 L 2 104.3388748168945 L 139.7060546875 104.3388748168945 L 139.7060546875 1.999992370605469 L 2 1.999992370605469 M 0 -7.62939453125e-06 L 141.7060546875 -7.62939453125e-06 L 141.7060546875 106.3388748168945 L 0 106.3388748168945 L 0 -7.62939453125e-06 Z" stroke="none" fill="#1e535a"/>
      </g>
      <g id="Trazado_1285366" data-name="Trazado 1285366" transform="translate(417 16491.289)" fill="none">
        <path d="M0,0H141.706V61.838H0Z" stroke="none"/>
        <path d="M 2 2.000003814697266 L 2 59.83788681030273 L 139.7060546875 59.83788681030273 L 139.7060546875 2.000003814697266 L 2 2.000003814697266 M 0 3.814697265625e-06 L 141.7060546875 3.814697265625e-06 L 141.7060546875 61.83788681030273 L 0 61.83788681030273 L 0 3.814697265625e-06 Z" stroke="none" fill="#1e535a"/>
      </g>
      <g id="Trazado_1285367" data-name="Trazado 1285367" transform="translate(417 16606.516)" fill="none">
        <path d="M0,0H141.706V106.339H0Z" stroke="none"/>
        <path d="M 2 1.999992370605469 L 2 104.3388748168945 L 139.7060546875 104.3388748168945 L 139.7060546875 1.999992370605469 L 2 1.999992370605469 M 0 -7.62939453125e-06 L 141.7060546875 -7.62939453125e-06 L 141.7060546875 106.3388748168945 L 0 106.3388748168945 L 0 -7.62939453125e-06 Z" stroke="none" fill="#1e535a"/>
      </g>
      <path id="Trazado_1285368" data-name="Trazado 1285368" d="M5,0H136.706a5,5,0,0,1,5,5V32a5,5,0,0,1-5,5H5a5,5,0,0,1-5-5V5A5,5,0,0,1,5,0Z" transform="translate(417 16309)" fill="#1e535a"/>
      <path id="Trazado_1285369" data-name="Trazado 1285369" d="M5,0H136.706a5,5,0,0,1,5,5V32a5,5,0,0,1-5,5H5a5,5,0,0,1-5-5V5A5,5,0,0,1,5,0Z" transform="translate(417 16468.289)" fill="#1e535a"/>
      <path id="Trazado_1285370" data-name="Trazado 1285370" d="M5,0H136.706a5,5,0,0,1,5,5V32a5,5,0,0,1-5,5H5a5,5,0,0,1-5-5V5A5,5,0,0,1,5,0Z" transform="translate(417 16583.516)" fill="#1e535a"/>
      <path id="Trazado_1285371" data-name="Trazado 1285371" d="M29.173,13.518V18h-2.1V5.914H31.7a4.675,4.675,0,0,1,3.217,1.055A3.549,3.549,0,0,1,36.1,9.761a3.431,3.431,0,0,1-1.166,2.767,4.9,4.9,0,0,1-3.266.989Zm0-1.693H31.7a2.485,2.485,0,0,0,1.71-.527A1.937,1.937,0,0,0,34,9.774a2.09,2.09,0,0,0-.6-1.565,2.3,2.3,0,0,0-1.644-.6H29.173ZM45,12.6H40.039v3.719h5.8V18h-7.9V5.914h7.844V7.607H40.039v3.337H45ZM47.551,18V5.914H51.12a5.6,5.6,0,0,1,2.843.714,4.868,4.868,0,0,1,1.922,2.025,6.429,6.429,0,0,1,.681,3v.606a6.4,6.4,0,0,1-.685,3.021,4.809,4.809,0,0,1-1.951,2.009,5.858,5.858,0,0,1-2.9.706Zm2.1-10.393v8.716h1.37a3.154,3.154,0,0,0,2.536-1.033,4.5,4.5,0,0,0,.9-2.968V11.65a4.619,4.619,0,0,0-.855-3A3.031,3.031,0,0,0,51.12,7.607ZM60.874,18H58.782V5.914h2.092Zm2.582,0V5.914h3.569a5.6,5.6,0,0,1,2.843.714,4.868,4.868,0,0,1,1.922,2.025,6.429,6.429,0,0,1,.681,3v.606a6.4,6.4,0,0,1-.685,3.021,4.809,4.809,0,0,1-1.951,2.009,5.858,5.858,0,0,1-2.9.706Zm2.1-10.393v8.716h1.37a3.154,3.154,0,0,0,2.536-1.033,4.5,4.5,0,0,0,.9-2.968V11.65a4.619,4.619,0,0,0-.855-3,3.031,3.031,0,0,0-2.482-1.038Zm18.652,4.665a7.415,7.415,0,0,1-.614,3.117,4.644,4.644,0,0,1-1.756,2.059,5.15,5.15,0,0,1-5.246,0A4.716,4.716,0,0,1,74.815,15.4a7.183,7.183,0,0,1-.635-3.063v-.681a7.351,7.351,0,0,1,.627-3.121,4.71,4.71,0,0,1,1.768-2.071,5.161,5.161,0,0,1,5.238-.008A4.651,4.651,0,0,1,83.576,8.5a7.336,7.336,0,0,1,.631,3.1Zm-2.1-.631a5.283,5.283,0,0,0-.76-3.08,2.68,2.68,0,0,0-4.283,0,5.181,5.181,0,0,0-.784,3.017v.7a5.243,5.243,0,0,0,.776,3.08,2.5,2.5,0,0,0,2.154,1.087,2.47,2.47,0,0,0,2.146-1.062,5.356,5.356,0,0,0,.751-3.1Z" transform="translate(433 16316)" fill="#fff"/>
      <path id="Trazado_1285372" data-name="Trazado 1285372" d="M3.445,18H1.353V5.914H3.445Zm2.582,0V5.914H9.6a5.6,5.6,0,0,1,2.843.714A4.868,4.868,0,0,1,14.36,8.653a6.429,6.429,0,0,1,.681,3v.606a6.4,6.4,0,0,1-.685,3.021,4.809,4.809,0,0,1-1.951,2.009A5.858,5.858,0,0,1,9.5,18Zm2.1-10.393v8.716H9.5a3.154,3.154,0,0,0,2.536-1.033,4.5,4.5,0,0,0,.9-2.968V11.65a4.619,4.619,0,0,0-.855-3A3.031,3.031,0,0,0,9.6,7.607Zm11.106,5.91V18h-2.1V5.914h4.624a4.675,4.675,0,0,1,3.217,1.055,3.549,3.549,0,0,1,1.191,2.792A3.431,3.431,0,0,1,25,12.529a4.9,4.9,0,0,1-3.266.989Zm0-1.693h2.523a2.485,2.485,0,0,0,1.71-.527,1.937,1.937,0,0,0,.589-1.523,2.09,2.09,0,0,0-.6-1.565,2.3,2.3,0,0,0-1.644-.6H19.233Zm12.526,6.342a4.173,4.173,0,0,1-3.109-1.208,4.381,4.381,0,0,1-1.191-3.217v-.249a5.389,5.389,0,0,1,.519-2.4,3.949,3.949,0,0,1,1.457-1.648,3.851,3.851,0,0,1,2.092-.589,3.525,3.525,0,0,1,2.835,1.17,4.949,4.949,0,0,1,1,3.312v.813H29.493a2.7,2.7,0,0,0,.743,1.76,2.23,2.23,0,0,0,1.639.647,2.731,2.731,0,0,0,2.258-1.121l1.087,1.038a3.631,3.631,0,0,1-1.44,1.249A4.509,4.509,0,0,1,31.759,18.166Zm-.241-7.695a1.7,1.7,0,0,0-1.341.581,3.012,3.012,0,0,0-.652,1.619h3.843v-.149a2.452,2.452,0,0,0-.54-1.531A1.686,1.686,0,0,0,31.518,10.471Zm5.03,2.972a5.34,5.34,0,0,1,.963-3.333,3.085,3.085,0,0,1,2.582-1.258,2.931,2.931,0,0,1,2.308,1V5.25h2.017V18H42.591l-.1-.93a2.973,2.973,0,0,1-2.416,1.1,3.068,3.068,0,0,1-2.552-1.27A5.535,5.535,0,0,1,36.548,13.443Zm2.017.174a3.739,3.739,0,0,0,.527,2.137,1.71,1.71,0,0,0,1.5.768,1.9,1.9,0,0,0,1.81-1.1V11.583A1.876,1.876,0,0,0,40.607,10.5a1.723,1.723,0,0,0-1.511.776A4.163,4.163,0,0,0,38.565,13.617ZM48.667,18H46.65V9.019h2.017ZM46.526,6.686a1.071,1.071,0,0,1,.295-.772,1.113,1.113,0,0,1,.843-.307,1.127,1.127,0,0,1,.847.307,1.062,1.062,0,0,1,.3.772,1.038,1.038,0,0,1-.3.76,1.136,1.136,0,0,1-.847.3,1.122,1.122,0,0,1-.843-.3A1.046,1.046,0,0,1,46.526,6.686Zm3.959,6.757a5.34,5.34,0,0,1,.963-3.333A3.085,3.085,0,0,1,54.03,8.853a2.931,2.931,0,0,1,2.308,1V5.25h2.017V18H56.528l-.1-.93a2.973,2.973,0,0,1-2.416,1.1,3.068,3.068,0,0,1-2.552-1.27A5.535,5.535,0,0,1,50.485,13.443Zm2.017.174a3.739,3.739,0,0,0,.527,2.137,1.71,1.71,0,0,0,1.5.768,1.9,1.9,0,0,0,1.81-1.1V11.583A1.876,1.876,0,0,0,54.544,10.5a1.723,1.723,0,0,0-1.511.776A4.163,4.163,0,0,0,52.5,13.617Zm7.579-.191a5.3,5.3,0,0,1,.523-2.378,3.819,3.819,0,0,1,1.469-1.627,4.14,4.14,0,0,1,2.175-.569,3.923,3.923,0,0,1,2.951,1.17,4.6,4.6,0,0,1,1.224,3.1l.008.473a5.343,5.343,0,0,1-.51,2.374,3.773,3.773,0,0,1-1.461,1.619,4.17,4.17,0,0,1-2.2.573A3.9,3.9,0,0,1,61.222,16.9a4.848,4.848,0,0,1-1.141-3.374ZM62.1,13.6a3.619,3.619,0,0,0,.573,2.171,1.862,1.862,0,0,0,1.594.784,1.842,1.842,0,0,0,1.59-.8,4,4,0,0,0,.569-2.333,3.572,3.572,0,0,0-.585-2.158,1.973,1.973,0,0,0-3.158-.012A3.922,3.922,0,0,0,62.1,13.6Z" transform="translate(428 16475.289)" fill="#fff"/>
      <path id="Trazado_1285373" data-name="Trazado 1285373" d="M1.063,13.086a12.649,12.649,0,0,1,.515-3.64,9.991,9.991,0,0,1,1.511-3.08A6,6,0,0,1,5.2,4.461l.4,1.179A6.162,6.162,0,0,0,3.7,8.35a12.138,12.138,0,0,0-.793,4.171l-.008.714a13.2,13.2,0,0,0,.71,4.487,6.613,6.613,0,0,0,1.988,3l-.4,1.121A6.009,6.009,0,0,1,3.084,19.93a9.989,9.989,0,0,1-1.511-3.08A13.148,13.148,0,0,1,1.063,13.086Zm13.057-.208H9.255V18h-2.1V5.914h7.678V7.607H9.255V11.2H14.12Zm5.844-.1-1.37,1.453V18h-2.1V5.914h2.1v5.669l1.162-1.436,3.536-4.233h2.54l-4.491,5.354L26.089,18H23.6Zm10.94.44a12.489,12.489,0,0,1-.506,3.557A10.078,10.078,0,0,1,28.862,19.9a6.014,6.014,0,0,1-2.15,1.947l-.4-1.121a6.379,6.379,0,0,0,1.971-2.943,13.071,13.071,0,0,0,.726-4.52v-.191a13.264,13.264,0,0,0-.631-4.2,7.416,7.416,0,0,0-1.81-3.042l-.257-.232.4-1.129a5.951,5.951,0,0,1,2.059,1.826A9.909,9.909,0,0,1,30.3,9.222a12.223,12.223,0,0,1,.6,3.349Z" transform="translate(517.206 16475.289)" fill="#fff"/>
      <path id="Trazado_1285374" data-name="Trazado 1285374" d="M1.063,13.086a12.649,12.649,0,0,1,.515-3.64,9.991,9.991,0,0,1,1.511-3.08A6,6,0,0,1,5.2,4.461l.4,1.179A6.162,6.162,0,0,0,3.7,8.35a12.138,12.138,0,0,0-.793,4.171l-.008.714a13.2,13.2,0,0,0,.71,4.487,6.613,6.613,0,0,0,1.988,3l-.4,1.121A6.009,6.009,0,0,1,3.084,19.93a9.989,9.989,0,0,1-1.511-3.08A13.148,13.148,0,0,1,1.063,13.086Zm13.057-.208H9.255V18h-2.1V5.914h7.678V7.607H9.255V11.2H14.12Zm5.844-.1-1.37,1.453V18h-2.1V5.914h2.1v5.669l1.162-1.436,3.536-4.233h2.54l-4.491,5.354L26.089,18H23.6Zm10.94.44a12.489,12.489,0,0,1-.506,3.557A10.078,10.078,0,0,1,28.862,19.9a6.014,6.014,0,0,1-2.15,1.947l-.4-1.121a6.379,6.379,0,0,0,1.971-2.943,13.071,13.071,0,0,0,.726-4.52v-.191a13.264,13.264,0,0,0-.631-4.2,7.416,7.416,0,0,0-1.81-3.042l-.257-.232.4-1.129a5.951,5.951,0,0,1,2.059,1.826A9.909,9.909,0,0,1,30.3,9.222a12.223,12.223,0,0,1,.6,3.349Z" transform="translate(517.206 16590.547)" fill="#fff"/>
      <path id="Trazado_1285375" data-name="Trazado 1285375" d="M3.445,18H1.353V5.914H3.445Zm2.582,0V5.914H9.6a5.6,5.6,0,0,1,2.843.714A4.868,4.868,0,0,1,14.36,8.653a6.429,6.429,0,0,1,.681,3v.606a6.4,6.4,0,0,1-.685,3.021,4.809,4.809,0,0,1-1.951,2.009A5.858,5.858,0,0,1,9.5,18Zm2.1-10.393v8.716H9.5a3.154,3.154,0,0,0,2.536-1.033,4.5,4.5,0,0,0,.9-2.968V11.65a4.619,4.619,0,0,0-.855-3A3.031,3.031,0,0,0,9.6,7.607Zm11.106,5.91V18h-2.1V5.914h4.624a4.675,4.675,0,0,1,3.217,1.055,3.549,3.549,0,0,1,1.191,2.792A3.431,3.431,0,0,1,25,12.529a4.9,4.9,0,0,1-3.266.989Zm0-1.693h2.523a2.485,2.485,0,0,0,1.71-.527,1.937,1.937,0,0,0,.589-1.523,2.09,2.09,0,0,0-.6-1.565,2.3,2.3,0,0,0-1.644-.6H19.233Zm12.526,6.342a4.173,4.173,0,0,1-3.109-1.208,4.381,4.381,0,0,1-1.191-3.217v-.249a5.389,5.389,0,0,1,.519-2.4,3.949,3.949,0,0,1,1.457-1.648,3.851,3.851,0,0,1,2.092-.589,3.525,3.525,0,0,1,2.835,1.17,4.949,4.949,0,0,1,1,3.312v.813H29.493a2.7,2.7,0,0,0,.743,1.76,2.23,2.23,0,0,0,1.639.647,2.731,2.731,0,0,0,2.258-1.121l1.087,1.038a3.631,3.631,0,0,1-1.44,1.249A4.509,4.509,0,0,1,31.759,18.166Zm-.241-7.695a1.7,1.7,0,0,0-1.341.581,3.012,3.012,0,0,0-.652,1.619h3.843v-.149a2.452,2.452,0,0,0-.54-1.531A1.686,1.686,0,0,0,31.518,10.471Zm5.03,2.972a5.34,5.34,0,0,1,.963-3.333,3.085,3.085,0,0,1,2.582-1.258,2.931,2.931,0,0,1,2.308,1V5.25h2.017V18H42.591l-.1-.93a2.973,2.973,0,0,1-2.416,1.1,3.068,3.068,0,0,1-2.552-1.27A5.535,5.535,0,0,1,36.548,13.443Zm2.017.174a3.739,3.739,0,0,0,.527,2.137,1.71,1.71,0,0,0,1.5.768,1.9,1.9,0,0,0,1.81-1.1V11.583A1.876,1.876,0,0,0,40.607,10.5a1.723,1.723,0,0,0-1.511.776A4.163,4.163,0,0,0,38.565,13.617ZM48.667,18H46.65V9.019h2.017ZM46.526,6.686a1.071,1.071,0,0,1,.295-.772,1.113,1.113,0,0,1,.843-.307,1.127,1.127,0,0,1,.847.307,1.062,1.062,0,0,1,.3.772,1.038,1.038,0,0,1-.3.76,1.136,1.136,0,0,1-.847.3,1.122,1.122,0,0,1-.843-.3A1.046,1.046,0,0,1,46.526,6.686Zm3.959,6.757a5.34,5.34,0,0,1,.963-3.333A3.085,3.085,0,0,1,54.03,8.853a2.931,2.931,0,0,1,2.308,1V5.25h2.017V18H56.528l-.1-.93a2.973,2.973,0,0,1-2.416,1.1,3.068,3.068,0,0,1-2.552-1.27A5.535,5.535,0,0,1,50.485,13.443Zm2.017.174a3.739,3.739,0,0,0,.527,2.137,1.71,1.71,0,0,0,1.5.768,1.9,1.9,0,0,0,1.81-1.1V11.583A1.876,1.876,0,0,0,54.544,10.5a1.723,1.723,0,0,0-1.511.776A4.163,4.163,0,0,0,52.5,13.617Zm7.579-.191a5.3,5.3,0,0,1,.523-2.378,3.819,3.819,0,0,1,1.469-1.627,4.14,4.14,0,0,1,2.175-.569,3.923,3.923,0,0,1,2.951,1.17,4.6,4.6,0,0,1,1.224,3.1l.008.473a5.343,5.343,0,0,1-.51,2.374,3.773,3.773,0,0,1-1.461,1.619,4.17,4.17,0,0,1-2.2.573A3.9,3.9,0,0,1,61.222,16.9a4.848,4.848,0,0,1-1.141-3.374ZM62.1,13.6a3.619,3.619,0,0,0,.573,2.171,1.862,1.862,0,0,0,1.594.784,1.842,1.842,0,0,0,1.59-.8,4,4,0,0,0,.569-2.333,3.572,3.572,0,0,0-.585-2.158,1.973,1.973,0,0,0-3.158-.012A3.922,3.922,0,0,0,62.1,13.6Z" transform="translate(428 16590.516)" fill="#fff"/>
      <path id="Trazado_1285376" data-name="Trazado 1285376" d="M8.351,13.061H3.569V18H1.079V5.914H8.948V7.931H3.569v3.121H8.351Zm6.018,5.1a4.409,4.409,0,0,1-3.217-1.212,4.308,4.308,0,0,1-1.241-3.229v-.232a5.426,5.426,0,0,1,.523-2.42,3.838,3.838,0,0,1,1.482-1.644A4.159,4.159,0,0,1,14.1,8.853,3.727,3.727,0,0,1,17,10.015a4.722,4.722,0,0,1,1.058,3.3v.979H12.343a2.229,2.229,0,0,0,.7,1.411,2.12,2.12,0,0,0,1.482.531,2.589,2.589,0,0,0,2.167-1l1.179,1.32a3.6,3.6,0,0,1-1.461,1.191A4.793,4.793,0,0,1,14.369,18.166Zm-.274-7.379a1.5,1.5,0,0,0-1.158.484,2.5,2.5,0,0,0-.569,1.384h3.337v-.192a1.786,1.786,0,0,0-.432-1.238A1.547,1.547,0,0,0,14.095,10.787Zm9.064,5.445a1.573,1.573,0,0,0,1.079-.365,1.28,1.28,0,0,0,.432-.971h2.25a3.077,3.077,0,0,1-.5,1.673,3.286,3.286,0,0,1-1.341,1.179,4.2,4.2,0,0,1-1.88.419,3.9,3.9,0,0,1-3.038-1.224,4.845,4.845,0,0,1-1.112-3.383V13.4a4.79,4.79,0,0,1,1.1-3.312,3.854,3.854,0,0,1,3.03-1.237,3.778,3.778,0,0,1,2.7.959,3.4,3.4,0,0,1,1.033,2.552H24.67a1.648,1.648,0,0,0-.432-1.139,1.6,1.6,0,0,0-2.362.173,3.541,3.541,0,0,0-.427,1.983v.249a3.586,3.586,0,0,0,.423,2A1.463,1.463,0,0,0,23.159,16.232ZM30.63,10a2.994,2.994,0,0,1,2.4-1.146q2.922,0,2.963,3.4V18h-2.4V12.314a1.669,1.669,0,0,0-.332-1.141,1.423,1.423,0,0,0-1.1-.369,1.633,1.633,0,0,0-1.527.813V18h-2.4V5.25h2.4Zm12.376,8a2.664,2.664,0,0,1-.241-.805,2.9,2.9,0,0,1-2.266.971,3.189,3.189,0,0,1-2.187-.764,2.456,2.456,0,0,1-.867-1.926A2.538,2.538,0,0,1,38.5,13.285a5.222,5.222,0,0,1,3.059-.772h1.1V12a1.48,1.48,0,0,0-.32-1,1.257,1.257,0,0,0-1.009-.374,1.429,1.429,0,0,0-.95.291.987.987,0,0,0-.344.8h-2.4a2.41,2.41,0,0,1,.481-1.444A3.182,3.182,0,0,1,39.487,9.23a4.961,4.961,0,0,1,1.976-.378,3.92,3.92,0,0,1,2.635.834,2.918,2.918,0,0,1,.975,2.345v3.893a4.294,4.294,0,0,0,.357,1.934V18Zm-1.984-1.668A2.066,2.066,0,0,0,42,16.095a1.554,1.554,0,0,0,.664-.635V13.916h-.9q-1.8,0-1.917,1.245l-.008.141a.96.96,0,0,0,.315.739A1.225,1.225,0,0,0,41.022,16.332Z" transform="translate(428 16403.34)" fill="#12263f"/>
      <path id="Trazado_1285377" data-name="Trazado 1285377" d="M1.079,18V5.914H4.8a5.647,5.647,0,0,1,2.851.718A5.007,5.007,0,0,1,9.612,8.674a6.3,6.3,0,0,1,.706,3.009v.556a6.316,6.316,0,0,1-.693,3A4.964,4.964,0,0,1,7.67,17.27,5.69,5.69,0,0,1,4.823,18ZM3.569,7.931V16h1.2a2.7,2.7,0,0,0,2.233-.955,4.314,4.314,0,0,0,.789-2.731v-.639a4.382,4.382,0,0,0-.764-2.793A2.7,2.7,0,0,0,4.8,7.931ZM21.956,18h-2.49l-4.848-7.952V18h-2.49V5.914h2.49l4.856,7.969V5.914h2.482Zm4.823,0h-2.49V5.914h2.49Z" transform="translate(428 16677.855)" fill="#12263f"/>
      <path id="Trazado_1285378" data-name="Trazado 1285378" d="M1.029,13.086a12.739,12.739,0,0,1,.506-3.619A9.551,9.551,0,0,1,3.03,6.425,5.579,5.579,0,0,1,5.171,4.586l.465,1.295A5.778,5.778,0,0,0,3.744,8.653a12.837,12.837,0,0,0-.681,4.383v.257a13.082,13.082,0,0,0,.672,4.4,5.89,5.89,0,0,0,1.9,2.814l-.465,1.27a5.581,5.581,0,0,1-2.1-1.789,9.391,9.391,0,0,1-1.49-2.959,12.663,12.663,0,0,1-.548-3.5Zm13.29-.025H9.538V18H7.047V5.914h7.869V7.931H9.538v3.121h4.781Zm5.827.091-1.295,1.395V18h-2.49V5.914h2.49v5.479l1.1-1.5,3.08-3.976h3.063L21.8,11.285,26.214,18H23.25Zm10.982.125a12.088,12.088,0,0,1-.54,3.611,9.8,9.8,0,0,1-1.552,3.063,5.592,5.592,0,0,1-2.167,1.826l-.465-1.27a5.837,5.837,0,0,0,1.859-2.739,12.685,12.685,0,0,0,.706-4.258v-.44a12.971,12.971,0,0,0-.677-4.375A6.084,6.084,0,0,0,26.4,5.856l.465-1.27A5.594,5.594,0,0,1,29,6.362a9.675,9.675,0,0,1,1.552,3,12,12,0,0,1,.577,3.544Z" transform="translate(517.206 16403.785)" fill="#12263f"/>
      <path id="Trazado_1285379" data-name="Trazado 1285379" d="M1.029,13.086a12.739,12.739,0,0,1,.506-3.619A9.551,9.551,0,0,1,3.03,6.425,5.579,5.579,0,0,1,5.171,4.586l.465,1.295A5.778,5.778,0,0,0,3.744,8.653a12.837,12.837,0,0,0-.681,4.383v.257a13.082,13.082,0,0,0,.672,4.4,5.89,5.89,0,0,0,1.9,2.814l-.465,1.27a5.581,5.581,0,0,1-2.1-1.789,9.391,9.391,0,0,1-1.49-2.959,12.663,12.663,0,0,1-.548-3.5Zm13.29-.025H9.538V18H7.047V5.914h7.869V7.931H9.538v3.121h4.781Zm5.827.091-1.295,1.395V18h-2.49V5.914h2.49v5.479l1.1-1.5,3.08-3.976h3.063L21.8,11.285,26.214,18H23.25Zm10.982.125a12.088,12.088,0,0,1-.54,3.611,9.8,9.8,0,0,1-1.552,3.063,5.592,5.592,0,0,1-2.167,1.826l-.465-1.27a5.837,5.837,0,0,0,1.859-2.739,12.685,12.685,0,0,0,.706-4.258v-.44a12.971,12.971,0,0,0-.677-4.375A6.084,6.084,0,0,0,26.4,5.856l.465-1.27A5.594,5.594,0,0,1,29,6.362a9.675,9.675,0,0,1,1.552,3,12,12,0,0,1,.577,3.544Z" transform="translate(517.206 16630.855)" fill="#12263f"/>
      <path id="Trazado_1284881" data-name="Trazado 1284881" d="M0,0V141.706" transform="translate(558.706 16392.84) rotate(90)" fill="none" stroke="#1e535a" stroke-width="2"/>
      <path id="Trazado_1284886" data-name="Trazado 1284886" d="M0,0V141.706" transform="translate(558.706 16667.355) rotate(90)" fill="none" stroke="#1e535a" stroke-width="2"/>
      <g id="Trazado_1285380" data-name="Trazado 1285380" transform="translate(477 16459.34)" fill="none">
        <path d="M10,0A10,10,0,1,1,0,10,10,10,0,0,1,10,0Z" stroke="none"/>
        <path d="M 10 3 C 6.140190124511719 3 3 6.140190124511719 3 10 C 3 13.85980987548828 6.140190124511719 17 10 17 C 13.85980987548828 17 17 13.85980987548828 17 10 C 17 6.140190124511719 13.85980987548828 3 10 3 M 10 0 C 15.52285003662109 0 20 4.477149963378906 20 10 C 20 15.52285003662109 15.52285003662109 20 10 20 C 4.477149963378906 20 0 15.52285003662109 0 10 C 0 4.477149963378906 4.477149963378906 0 10 0 Z" stroke="none" fill="#1e535a"/>
      </g>
      <g id="Trazado_1285381" data-name="Trazado 1285381" transform="translate(477.858 16574.625)" fill="none">
        <path d="M10,0A10,10,0,1,1,0,10,10,10,0,0,1,10,0Z" stroke="none"/>
        <path d="M 10 3 C 6.140190124511719 3 3 6.140190124511719 3 10 C 3 13.85980987548828 6.140190124511719 17 10 17 C 13.85980987548828 17 17 13.85980987548828 17 10 C 17 6.140190124511719 13.85980987548828 3 10 3 M 10 0 C 15.52285003662109 0 20 4.477149963378906 20 10 C 20 15.52285003662109 15.52285003662109 20 10 20 C 4.477149963378906 20 0 15.52285003662109 0 10 C 0 4.477149963378906 4.477149963378906 0 10 0 Z" stroke="none" fill="#1e535a"/>
      </g>
      <path id="Trazado_1284901" data-name="Trazado 1284901" d="M0,0V37" transform="translate(511.226 16505.289) rotate(180)" fill="none" stroke="#fff" stroke-width="2"/>
      <path id="Trazado_1284902" data-name="Trazado 1284902" d="M0,0V36.94" transform="translate(511.226 16620.516) rotate(180)" fill="none" stroke="#fff" stroke-width="2"/>
      <path id="Trazado_1284904" data-name="Trazado 1284904" d="M0,0V35.242" transform="translate(593 16528.184) rotate(90)" fill="none" stroke="#1e535a" stroke-width="3"/>
    </g>
  </g>
</svg>
