<svg xmlns="http://www.w3.org/2000/svg" xmlns:xlink="http://www.w3.org/1999/xlink" width="84" height="84" viewBox="0 0 84 84">
  <defs>
    <clipPath id="clip-path">
      <rect id="Rectángulo_465000" data-name="Rectángulo 465000" width="55.97" height="62.849" fill="#344866"/>
    </clipPath>
  </defs>
  <g id="Grupo_1211765" data-name="Grupo 1211765" transform="translate(0.289 0.137)">
    <g id="Grupo_1119665" data-name="Grupo 1119665" transform="translate(-0.289 -0.137)">
      <rect id="Rectángulo_402006" data-name="Rectángulo 402006" width="84" height="84" rx="5" fill="#a4e7f0"/>
    </g>
    <g id="Grupo_1212090" data-name="Grupo 1212090" transform="translate(13.726 10.439)">
      <g id="Grupo_1212089" data-name="Grupo 1212089" clip-path="url(#clip-path)">
        <path id="Trazado_1284164" data-name="Trazado 1284164" d="M47.471,59.005l-9.011.01a.949.949,0,0,1-.959-.82.923.923,0,0,1,.889-1.026l8.745-.05V40.651L42.3,40.619l-.08,3.352c-.017.723-.805,1.153-1.484,1.154a1.178,1.178,0,0,0-1.318.922c-.243.635-.379,1.1.194,1.623a1.467,1.467,0,0,1,.106,2.154l-3.35,3.339A1.464,1.464,0,0,1,34.278,53c-.552-.607-.938-.468-1.6-.2-.586.241-.974.448-.935,1.223a1.448,1.448,0,0,1-1.407,1.61H25.618a1.451,1.451,0,0,1-1.41-1.621c.043-1.439-2.072-1.446-1.825-1.484-.308.047-1.69,1.691-2.677.717l-3.47-3.428a1.466,1.466,0,0,1,.1-2.152c.576-.526.439-.991.193-1.626a1.176,1.176,0,0,0-1.291-.919c-2.361.017-1.251-2.918-1.59-4.511l-8.862.015-.024,5.7a.935.935,0,0,1-.844,1.05.858.858,0,0,1-.993-.875l-.077-5.929C1.723,40.789,0,40.347,0,39L.013,19.911c0-1.311,1.785-1.663,2.809-1.439.467-2.53-.668-4.989,1.129-6.788L14.629,1A3.222,3.222,0,0,1,17,0l30.587,0A1.411,1.411,0,0,1,48.963,1.36l.073,2.374a16.455,16.455,0,0,0,2.431.073A1.59,1.59,0,0,1,53.044,5.5l-.009,4.87a.936.936,0,0,1-.989.989c-.577-.026-.856-.523-.86-1.15l-.03-4.483a7.623,7.623,0,0,0-2.154,0l0,12.675a7.275,7.275,0,0,0,2.154-.035l.031-3.445a.916.916,0,0,1,.837-1.029c1.8-.091.616,2.915,1.107,4.6,1.144-.281,2.839.178,2.836,1.564l-.048,19.089c0,1.277-1.787,1.578-2.857,1.446l-.045,20.783a1.53,1.53,0,0,1-1.7,1.475l-42.753,0a1.528,1.528,0,0,1-1.6-1.574L6.932,59.1c-1.053-.3-4.01.569-4.007-1.592l.011-6.775a.894.894,0,0,1,.8-.817.876.876,0,0,1,.993.784l.077,6.45,29.234.009a.934.934,0,1,1-.014,1.866H8.921a4.5,4.5,0,0,0-.03,2.007l42.287.017.008-20.363A8.385,8.385,0,0,0,49,40.66L48.982,57.5a1.526,1.526,0,0,1-1.51,1.5M1.813,38.759l52.349-.007,0-18.493H15.437c-.624-.02-1-.273-1.092-.8a.9.9,0,0,1,.709-1.015l32.082-.007,0-16.614-29.014,0-.015,12.3a1,1,0,0,1-1.127,1.073L4.79,15.21l.015,3.218,5.9,0c.679,0,1.109.31,1.112.907s-.462.921-1.13.922l-8.9.013ZM16.282,13.273,16.208,2.039,4.972,13.282Zm14.294,38.5a13.67,13.67,0,0,1,2.906-1.21c.77-.206,1.3.666,1.934.931l2.714-2.74c-.4-.624-1.2-1.221-.925-2.012.911-2.579.945-3.365,3.132-3.4a10.986,10.986,0,0,0,.028-2.719l-4.072.024a8.344,8.344,0,1,1-16.629,0L15.6,40.622a9.965,9.965,0,0,0,.029,2.729c.695.108,1.688,0,2.013.7,1.184,2.534,1.69,3.043.188,4.718A29.207,29.207,0,0,0,20.612,51.5c.595-.363,1.14-1.151,1.855-.944a13.251,13.251,0,0,1,2.959,1.245c.617.365.371,1.347.637,1.968a36.847,36.847,0,0,0,3.832,0c.265-.613,0-1.627.682-2m3.806-11.154-12.819.01a6.455,6.455,0,1,0,12.819-.01" transform="translate(0 -0.001)" fill="#344866"/>
        <path id="Trazado_1284165" data-name="Trazado 1284165" d="M126.415,125.427c.44.756,1.953,1.478,1.245,2.432a.891.891,0,0,1-1.286.186c-.465-.333-.759-.786-1.291-1.223a7.142,7.142,0,1,1,1.332-1.395m-1.305-1.388a5.185,5.185,0,0,0-1.127-6.908,5.231,5.231,0,0,0-7.255,7.471,5.182,5.182,0,0,0,6.966.9c-.459-.831-2.229-1.7-1.438-2.675,1.01-1.246,2.2,1.071,2.855,1.209" transform="translate(-91.319 -91.72)" fill="#344866"/>
        <path id="Trazado_1284166" data-name="Trazado 1284166" d="M66.683,127.736c-3.766,1.793-8.689-1.659-7.1-2.9,1.289-1.01,2.092,2.167,5.551,1.511a2.313,2.313,0,0,0,1.992-2.406,2.217,2.217,0,0,0-1.536-1.631l-3.4-1.293a3.337,3.337,0,0,1-2.235-3.133A3.589,3.589,0,0,1,62,114.611a6.06,6.06,0,0,1,6.142.814.986.986,0,0,1,.393,1.336c-.91,1.594-2.618-1.846-5.7-.508a1.766,1.766,0,0,0-1.044,1.636,1.649,1.649,0,0,0,1.23,1.485l3.533,1.346a3.655,3.655,0,0,1,2.422,3.463,3.978,3.978,0,0,1-2.3,3.554" transform="translate(-47.633 -91.687)" fill="#344866"/>
        <path id="Trazado_1284167" data-name="Trazado 1284167" d="M199.578,128.3l-4.153,0a.859.859,0,0,1-.95-.832l-.012-12.353a.915.915,0,0,1,.882-.946c.63-.015.926.486.926,1.133l0,11.165c1.527.3,4.27-.612,4.291.923a.873.873,0,0,1-.988.914" transform="translate(-156.27 -91.745)" fill="#344866"/>
        <path id="Trazado_1284168" data-name="Trazado 1284168" d="M119.883,33.828c.7,1.14,3.357,2.672,2.811,3.79-.21.428-.912.721-1.291.351l-3.452-3.38a1.013,1.013,0,0,1-.019-1.457l3.347-3.328a.974.974,0,0,1,1.207-.016.93.93,0,0,1,.156,1.169Z" transform="translate(-94.529 -23.776)" fill="#344866"/>
        <path id="Trazado_1284169" data-name="Trazado 1284169" d="M189.763,37.835a.96.96,0,0,1-1.194.018.913.913,0,0,1-.123-1.239l2.73-2.821-2.706-2.78a.908.908,0,0,1,1.367-1.195l3.338,3.34a.94.94,0,0,1-.027,1.316Z" transform="translate(-151.275 -23.721)" fill="#344866"/>
        <path id="Trazado_1284170" data-name="Trazado 1284170" d="M155.557,34.737c-.231.642-.652.91-1.226.759a.9.9,0,0,1-.6-1.135l3-8.336a.93.93,0,0,1,1.05-.666.9.9,0,0,1,.707,1.211Z" transform="translate(-123.502 -20.366)" fill="#344866"/>
      </g>
    </g>
  </g>
</svg>
