<svg xmlns="http://www.w3.org/2000/svg" xmlns:xlink="http://www.w3.org/1999/xlink" width="85" height="85" viewBox="0 0 85 85">
  <defs>
    <clipPath id="clip-path">
      <rect id="Rectángulo_465001" data-name="Rectángulo 465001" width="56.371" height="60.168" fill="#344866"/>
    </clipPath>
  </defs>
  <g id="Grupo_1211775" data-name="Grupo 1211775" transform="translate(-179.734 -5520.842)">
    <rect id="Rectángulo_402006" data-name="Rectángulo 402006" width="85" height="85" rx="5" transform="translate(179.734 5520.842)" fill="#69d7e5"/>
    <g id="Grupo_1212092" data-name="Grupo 1212092" transform="translate(196.605 5535.598)">
      <g id="Grupo_1212091" data-name="Grupo 1212091" clip-path="url(#clip-path)">
        <path id="Trazado_1284171" data-name="Trazado 1284171" d="M32.925,31.959a.936.936,0,0,0-1.063.968V76.082a.945.945,0,0,0,.957.976l18.763.017a.879.879,0,0,1,.923.846.924.924,0,0,1-.925,1.023l-18.772-.008A2.786,2.786,0,0,1,29.984,76.1l-.008-43.182a2.814,2.814,0,0,1,2.65-2.836l26.876.007,9.927,9.931.025,11.662a.941.941,0,0,1-.866.943.923.923,0,0,1-1.009-.941L67.57,41.356l-8.45,0a.985.985,0,0,1-.943-.953l-.006-8.443Zm33.179,7.4-6-6-.047,6.13Z" transform="translate(-24.342 -24.424)" fill="#344866"/>
        <path id="Trazado_1284172" data-name="Trazado 1284172" d="M1.881,2.8l.011,39.645c0,1.188,2.026.486,2.561,1.114a1.01,1.01,0,0,1,.08,1.13c-.214.383-.633.4-1.172.448A2.9,2.9,0,0,1,.018,42.461L0,2.845A2.736,2.736,0,0,1,2.645.036L32.685,0a2.934,2.934,0,0,1,3.029,3.416c-.037.386-.025.815-.326,1.05a1.018,1.018,0,0,1-1.129.072c-.832-.492.028-2.628-1.21-2.629L2.844,1.9a.907.907,0,0,0-.963.9" transform="translate(0 0)" fill="#344866"/>
        <path id="Trazado_1284173" data-name="Trazado 1284173" d="M77.907,69.487H60.949a1,1,0,0,1-.959-.956L60,61.021a.914.914,0,0,1,.942-.928l16.891,0a.914.914,0,0,1,.939.933l.013,7.508a1.009,1.009,0,0,1-.879.957m-1-7.53H61.869v5.652H76.906Z" transform="translate(-48.714 -48.794)" fill="#344866"/>
        <path id="Trazado_1284174" data-name="Trazado 1284174" d="M85.463,131.965l-24.386,0a.92.92,0,0,1-.935-.861.892.892,0,0,1,.93-1.008l24.394,0a.881.881,0,0,1,.928.848.921.921,0,0,1-.931,1.024" transform="translate(-48.835 -105.64)" fill="#344866"/>
        <path id="Trazado_1284175" data-name="Trazado 1284175" d="M78.886,156.962l-17.821,0a.922.922,0,0,1-.929-.859.9.9,0,0,1,.924-1.008l17.829,0a.886.886,0,0,1,.922.848.921.921,0,0,1-.925,1.022" transform="translate(-48.83 -125.94)" fill="#344866"/>
        <path id="Trazado_1284176" data-name="Trazado 1284176" d="M74.189,181.96l-13.133,0a.92.92,0,0,1-.925-.857.9.9,0,0,1,.919-1.007l13.141-.005a.888.888,0,0,1,.917.847.919.919,0,0,1-.92,1.02" transform="translate(-48.826 -146.242)" fill="#344866"/>
        <path id="Trazado_1284177" data-name="Trazado 1284177" d="M74.189,206.96l-13.133,0a.92.92,0,0,1-.925-.857.9.9,0,0,1,.919-1.007l13.141-.005a.888.888,0,0,1,.917.847.919.919,0,0,1-.92,1.02" transform="translate(-48.826 -166.543)" fill="#344866"/>
        <path id="Trazado_1284178" data-name="Trazado 1284178" d="M180.912,189.07a29.03,29.03,0,0,1-15.19.059c-2-.531-5.653-2.06-5.653-4.49V165.481c0-2.437,3.667-3.971,5.665-4.493a29.44,29.44,0,0,1,14.955,0c2.013.532,5.663,2.064,5.663,4.5v19.16c0,2.323-3.379,3.864-5.438,4.43m-.48-20.593c1.362-.371,4.122-1.521,4.025-2.9-.1-1.347-2.966-2.472-4.242-2.8a28.057,28.057,0,0,0-14.153.039c-1.249.331-4.2,1.5-4.1,2.92.095,1.341,2.967,2.474,4.237,2.8a27.822,27.822,0,0,0,14.233-.062m2.762,8.194c.531-.325,1.238-.857,1.242-1.433l.044-6.5c-5.59,3.421-16.958,3.433-22.54,0l.038,6.5c0,.554.648,1.034,1.076,1.319,4.483,2.979,15.367,3.037,20.14.119m1.246,7.961.039-6.5c-5.58,3.42-16.967,3.434-22.538,0l.037,6.5c0,.553.648,1.035,1.076,1.318,3.97,2.625,11.5,2.631,16.078,1.655,1.336-.285,5.3-1.52,5.308-2.973" transform="translate(-129.98 -129.942)" fill="#344866"/>
        <path id="Trazado_1284179" data-name="Trazado 1284179" d="M189.2,229.467c.672.012,1.069.222,1.178.709.088.394-.1,1.126-.72,1.142a25.141,25.141,0,0,1-8.824-1.287.948.948,0,1,1,.655-1.766,24.354,24.354,0,0,0,7.711,1.2" transform="translate(-146.263 -185.297)" fill="#344866"/>
        <path id="Trazado_1284180" data-name="Trazado 1284180" d="M246.92,236.021A.924.924,0,1,1,246,235.1a.924.924,0,0,1,.924.924" transform="translate(-199.006 -190.907)" fill="#344866"/>
        <path id="Trazado_1284181" data-name="Trazado 1284181" d="M189.2,279.467c.672.012,1.069.222,1.178.709.088.394-.1,1.126-.72,1.142a25.143,25.143,0,0,1-8.824-1.287.948.948,0,1,1,.655-1.766,24.35,24.35,0,0,0,7.711,1.2" transform="translate(-146.263 -225.898)" fill="#344866"/>
        <path id="Trazado_1284182" data-name="Trazado 1284182" d="M246.92,286.021A.924.924,0,1,1,246,285.1a.924.924,0,0,1,.924.924" transform="translate(-199.006 -231.508)" fill="#344866"/>
      </g>
    </g>
  </g>
</svg>
