<svg xmlns="http://www.w3.org/2000/svg" xmlns:xlink="http://www.w3.org/1999/xlink" width="500" height="299" viewBox="0 0 500 299">
  <defs>
    <clipPath id="clip-path">
      <rect id="Rectángulo_464786" data-name="Rectángulo 464786" width="420.864" height="298.87" fill="none"/>
    </clipPath>
  </defs>
  <g id="Grupo_1211940" data-name="Grupo 1211940" transform="translate(-186 -4355)">
    <rect id="Rectángulo_464590" data-name="Rectángulo 464590" width="500" height="299" transform="translate(186 4355)" fill="none"/>
    <g id="Grupo_1211939" data-name="Grupo 1211939" transform="translate(226 4355)">
      <g id="Grupo_1211938" data-name="Grupo 1211938" clip-path="url(#clip-path)">
        <path id="Trazado_1274589" data-name="Trazado 1274589" d="M6.362,191.271c14.989,45,60.511,78.2,109.1,73.346,65.468-3.115,128.457-63.348,194.188-33.773,48.457,26.2,101.753,14.84,109.411-45.387,10.819-49.25-28.888-118.63-70.616-144.728C300.4,11.94,242.427.751,186.725.159,85.683-4.27-28.357,84.039,6.362,191.271" transform="translate(0 0)" fill="#fff7df"/>
        <path id="Trazado_1274590" data-name="Trazado 1274590" d="M191.67,333.522v31.421c0,4.5-27,8.138-60.3,8.138s-60.3-3.642-60.3-8.138V333.522c0,4.5,27,8.138,60.3,8.138s60.3-3.642,60.3-8.138" transform="translate(-22.289 -104.594)" fill="#ffe79e"/>
        <path id="Trazado_1274591" data-name="Trazado 1274591" d="M191.67,329.8c0,4.5-27,8.138-60.3,8.138s-60.3-3.642-60.3-8.138,27-8.138,60.3-8.138,60.3,3.642,60.3,8.138" transform="translate(-22.289 -100.876)" fill="#fff"/>
        <path id="Trazado_1274592" data-name="Trazado 1274592" d="M185.308,308.855v15.13c0,2.165-21.753,3.919-48.585,3.919s-48.585-1.754-48.585-3.919v-15.13c0-2.165,21.753-3.919,48.585-3.919s48.585,1.754,48.585,3.919" transform="translate(-27.64 -95.629)" fill="#ddae3a"/>
        <path id="Trazado_1274593" data-name="Trazado 1274593" d="M191.67,270.183V301.6c0,4.5-27,8.138-60.3,8.138s-60.3-3.642-60.3-8.138V270.183c0,4.5,27,8.138,60.3,8.138s60.3-3.642,60.3-8.138" transform="translate(-22.289 -84.731)" fill="#ffe79e"/>
        <path id="Trazado_1274594" data-name="Trazado 1274594" d="M191.67,266.465c0,4.5-27,8.138-60.3,8.138s-60.3-3.642-60.3-8.138,27-8.138,60.3-8.138,60.3,3.642,60.3,8.138" transform="translate(-22.289 -81.013)" fill="#fff"/>
        <path id="Trazado_1274595" data-name="Trazado 1274595" d="M185.308,245.516v15.13c0,2.165-21.753,3.919-48.585,3.919s-48.585-1.754-48.585-3.919v-15.13c0-2.165,21.753-3.919,48.585-3.919s48.585,1.754,48.585,3.919" transform="translate(-27.64 -75.766)" fill="#ddae3a"/>
        <path id="Trazado_1274596" data-name="Trazado 1274596" d="M191.67,198.995v31.421c0,4.5-27,8.138-60.3,8.138s-60.3-3.642-60.3-8.138V198.995c0,4.5,27,8.138,60.3,8.138s60.3-3.642,60.3-8.138" transform="translate(-22.289 -62.406)" fill="#ffe79e"/>
        <path id="Trazado_1274597" data-name="Trazado 1274597" d="M191.67,195.277c0,4.5-27,8.138-60.3,8.138s-60.3-3.642-60.3-8.138,27-8.138,60.3-8.138,60.3,3.642,60.3,8.138" transform="translate(-22.289 -58.688)" fill="#fff"/>
        <path id="Trazado_1274598" data-name="Trazado 1274598" d="M84.918,231.164a7.723,7.723,0,1,1,7.723-7.723,7.732,7.732,0,0,1-7.723,7.723m0-14.76a7.037,7.037,0,1,0,7.037,7.037,7.045,7.045,0,0,0-7.037-7.037" transform="translate(-24.209 -67.65)" fill="#644602"/>
        <path id="Trazado_1274599" data-name="Trazado 1274599" d="M92.146,295.628a7.38,7.38,0,1,1-7.38-7.38,7.38,7.38,0,0,1,7.38,7.38" transform="translate(-24.269 -90.396)" fill="#ffd453"/>
        <path id="Trazado_1274600" data-name="Trazado 1274600" d="M84.609,366.533a7.724,7.724,0,1,1,7.723-7.723,7.732,7.732,0,0,1-7.723,7.723m0-14.761a7.037,7.037,0,1,0,7.037,7.038,7.045,7.045,0,0,0-7.037-7.038" transform="translate(-24.112 -110.102)" fill="#644602"/>
        <path id="Trazado_1274601" data-name="Trazado 1274601" d="M184.322,226.7H119.334a1.216,1.216,0,0,1,0-2.433h64.988a1.216,1.216,0,0,1,0,2.433" transform="translate(-37.042 -70.331)" fill="#fff"/>
        <path id="Trazado_1274602" data-name="Trazado 1274602" d="M184.322,236.61H119.334a1.216,1.216,0,1,1,0-2.433h64.988a1.216,1.216,0,0,1,0,2.433" transform="translate(-37.042 -73.439)" fill="#fff"/>
        <path id="Trazado_1274603" data-name="Trazado 1274603" d="M183.071,298.731H118.083a1.216,1.216,0,1,1,0-2.433h64.988a1.216,1.216,0,0,1,0,2.433" transform="translate(-36.65 -92.92)" fill="#fff"/>
        <path id="Trazado_1274604" data-name="Trazado 1274604" d="M183.071,308.641H118.083a1.216,1.216,0,1,1,0-2.433h64.988a1.216,1.216,0,1,1,0,2.433" transform="translate(-36.65 -96.028)" fill="#fff"/>
        <path id="Trazado_1274605" data-name="Trazado 1274605" d="M183.071,361.409H118.083a1.216,1.216,0,1,1,0-2.433h64.988a1.216,1.216,0,1,1,0,2.433" transform="translate(-36.65 -112.577)" fill="#fff"/>
        <path id="Trazado_1274606" data-name="Trazado 1274606" d="M183.071,371.318H118.083a1.216,1.216,0,1,1,0-2.433h64.988a1.216,1.216,0,1,1,0,2.433" transform="translate(-36.65 -115.684)" fill="#fff"/>
        <path id="Trazado_1274607" data-name="Trazado 1274607" d="M527.927,352.246V373.9c0,3.1-18.6,5.609-41.554,5.609S444.82,377,444.82,373.9V352.246c0,3.1,18.6,5.608,41.554,5.608s41.554-2.51,41.554-5.608" transform="translate(-139.498 -110.466)" fill="#ffe79e"/>
        <path id="Trazado_1274608" data-name="Trazado 1274608" d="M527.927,349.684c0,3.1-18.6,5.609-41.554,5.609s-41.554-2.51-41.554-5.609,18.6-5.609,41.554-5.609,41.554,2.51,41.554,5.609" transform="translate(-139.498 -107.904)" fill="#fff"/>
        <path id="Trazado_1274609" data-name="Trazado 1274609" d="M523.544,335.247v10.426c0,1.492-14.991,2.7-33.482,2.7s-33.482-1.208-33.482-2.7V335.247c0-1.492,14.991-2.7,33.482-2.7s33.482,1.209,33.482,2.7" transform="translate(-143.186 -104.288)" fill="#ddae3a"/>
        <path id="Trazado_1274610" data-name="Trazado 1274610" d="M527.927,308.6v21.654c0,3.1-18.6,5.609-41.554,5.609s-41.554-2.51-41.554-5.609V308.6c0,3.1,18.6,5.609,41.554,5.609s41.554-2.51,41.554-5.609" transform="translate(-139.498 -96.777)" fill="#ffe79e"/>
        <path id="Trazado_1274611" data-name="Trazado 1274611" d="M527.927,306.034c0,3.1-18.6,5.609-41.554,5.609s-41.554-2.51-41.554-5.609,18.6-5.608,41.554-5.608,41.554,2.51,41.554,5.608" transform="translate(-139.498 -94.215)" fill="#fff"/>
        <path id="Trazado_1274612" data-name="Trazado 1274612" d="M523.544,291.6v10.426c0,1.492-14.991,2.7-33.482,2.7s-33.482-1.208-33.482-2.7V291.6c0-1.492,14.991-2.7,33.482-2.7s33.482,1.209,33.482,2.7" transform="translate(-143.186 -90.599)" fill="#ddae3a"/>
        <path id="Trazado_1274613" data-name="Trazado 1274613" d="M527.927,259.538v21.654c0,3.1-18.6,5.609-41.554,5.609s-41.554-2.51-41.554-5.609V259.538c0,3.1,18.6,5.609,41.554,5.609s41.554-2.51,41.554-5.609" transform="translate(-139.498 -81.392)" fill="#ffe79e"/>
        <path id="Trazado_1274614" data-name="Trazado 1274614" d="M527.927,256.975c0,3.1-18.6,5.609-41.554,5.609s-41.554-2.51-41.554-5.609,18.6-5.609,41.554-5.609,41.554,2.51,41.554,5.609" transform="translate(-139.498 -78.83)" fill="#fff"/>
        <path id="Trazado_1274615" data-name="Trazado 1274615" d="M454.312,281.764a5.429,5.429,0,1,1,5.429-5.429,5.435,5.435,0,0,1-5.429,5.429m0-10.172a4.743,4.743,0,1,0,4.743,4.743,4.748,4.748,0,0,0-4.743-4.743" transform="translate(-140.772 -84.957)" fill="#644602"/>
        <path id="Trazado_1274616" data-name="Trazado 1274616" d="M459.342,326.132a5.087,5.087,0,1,1-5.087-5.086,5.087,5.087,0,0,1,5.087,5.086" transform="translate(-140.862 -100.682)" fill="#ffd453"/>
        <path id="Trazado_1274617" data-name="Trazado 1274617" d="M454.1,375.053a5.429,5.429,0,1,1,5.429-5.429,5.435,5.435,0,0,1-5.429,5.429m0-10.172a4.743,4.743,0,1,0,4.743,4.743,4.748,4.748,0,0,0-4.743-4.743" transform="translate(-140.705 -114.213)" fill="#644602"/>
        <rect id="Rectángulo_464746" data-name="Rectángulo 464746" width="60.965" height="26.618" transform="translate(199.442 230.865)" fill="#644602"/>
        <path id="Trazado_1274618" data-name="Trazado 1274618" d="M262.114,172.653l-27.43,3.492A24.905,24.905,0,0,0,213.622,195l-4.045,33.307h28.431l-4.166,44.014,25.791,14.5h61.187l-7-48.848,3.943-15.519h22.77l-5.793-26.345A24.9,24.9,0,0,0,315.3,177.036l-21.939-4.383Z" transform="translate(-65.724 -54.145)" fill="#ddae3a"/>
        <path id="Trazado_1274619" data-name="Trazado 1274619" d="M270.914,276.631v19.335H217.821a9.605,9.605,0,0,1-9.582-10.241l2.121-31.993h28.746l-2.032,16.281Z" transform="translate(-65.298 -79.572)" fill="#fff"/>
        <path id="Trazado_1274620" data-name="Trazado 1274620" d="M252.863,246.347H236.357v-.686H252.29l3-16.572.675.122Z" transform="translate(-74.123 -71.844)" fill="#644602"/>
        <rect id="Rectángulo_464747" data-name="Rectángulo 464747" width="28.463" height="0.687" transform="translate(247.778 183.753) rotate(-76.478)" fill="#644602"/>
        <path id="Trazado_1274621" data-name="Trazado 1274621" d="M455.99,187.559h0a3.939,3.939,0,0,1-2.658-4.876l6.7-22.765a3.927,3.927,0,1,1,7.534,2.218l-6.7,22.765a3.939,3.939,0,0,1-4.876,2.658" transform="translate(-142.117 -49.268)" fill="#fff"/>
        <path id="Trazado_1274622" data-name="Trazado 1274622" d="M462.5,198.288h0a3.939,3.939,0,0,1-2.278-5.065l4.079-10.747a3.927,3.927,0,1,1,7.342,2.787l-4.078,10.747a3.939,3.939,0,0,1-5.065,2.278" transform="translate(-144.248 -56.431)" fill="#fff"/>
        <path id="Trazado_1274623" data-name="Trazado 1274623" d="M469.872,204.452h0a3.939,3.939,0,0,1-2.278-5.065l4.19-11.042a3.927,3.927,0,1,1,7.342,2.787l-4.19,11.042a3.939,3.939,0,0,1-5.065,2.278" transform="translate(-146.56 -58.272)" fill="#fff"/>
        <path id="Trazado_1274624" data-name="Trazado 1274624" d="M477.686,206.082h0a3.938,3.938,0,0,1-.7-5.51L481.31,195a3.927,3.927,0,1,1,6.2,4.814l-4.32,5.569a3.938,3.938,0,0,1-5.51.7" transform="translate(-149.329 -60.679)" fill="#fff"/>
        <path id="Trazado_1274625" data-name="Trazado 1274625" d="M467,193.848h0a3.938,3.938,0,0,1-4.66,3.02L450.792,194.4a3.927,3.927,0,0,1,1.64-7.68l11.551,2.466a3.938,3.938,0,0,1,3.02,4.66" transform="translate(-140.396 -58.53)" fill="#fff"/>
        <path id="Trazado_1274626" data-name="Trazado 1274626" d="M444.366,203.961c-1.8,8.909-12.17,14.215-12.17,14.215l-30.62,34.533a23.243,23.243,0,0,1-18.478,9.129l-20.084-.316-2.862-19.651,4.42-13.721h19.6l.769,2.533,30.97-23.1,4.407-16.419Z" transform="translate(-112.945 -59.949)" fill="#fff"/>
        <path id="Trazado_1274627" data-name="Trazado 1274627" d="M468.5,206.364h-.013a.344.344,0,0,1-.33-.356,4.239,4.239,0,0,1,.273-1.345l.908-2.763a.343.343,0,1,1,.651.215l-.912,2.777a3.583,3.583,0,0,0-.234,1.142.344.344,0,0,1-.343.33" transform="translate(-146.816 -63.243)" fill="#644602"/>
        <path id="Trazado_1274628" data-name="Trazado 1274628" d="M471.333,212.628a4.223,4.223,0,0,1-1.5-.272,4.271,4.271,0,0,1-2.173-1.85.344.344,0,0,1,.594-.345,3.577,3.577,0,0,0,1.823,1.552,3.616,3.616,0,0,0,4.114-1.169.343.343,0,1,1,.544.418,4.31,4.31,0,0,1-3.407,1.666" transform="translate(-146.647 -65.854)" fill="#644602"/>
        <path id="Trazado_1274629" data-name="Trazado 1274629" d="M480.37,212.525a4.229,4.229,0,0,1-2.6-.892,4.287,4.287,0,0,1-.584-.548.343.343,0,0,1,.515-.454,3.616,3.616,0,0,0,.49.461,3.6,3.6,0,0,0,5.029-.636.344.344,0,0,1,.543.421,4.242,4.242,0,0,1-2.84,1.614,4.323,4.323,0,0,1-.548.035" transform="translate(-149.62 -65.958)" fill="#644602"/>
        <path id="Trazado_1274630" data-name="Trazado 1274630" d="M468.049,212.289h-.009a.343.343,0,0,1-.334-.352,9.956,9.956,0,0,0-.083-1.559.343.343,0,1,1,.68-.091,10.591,10.591,0,0,1,.089,1.669.344.344,0,0,1-.343.334" transform="translate(-146.648 -65.853)" fill="#644602"/>
        <path id="Trazado_1274631" data-name="Trazado 1274631" d="M463.722,203.234a.343.343,0,0,1-.339-.3,10.67,10.67,0,0,0-5.162-7.427.344.344,0,0,1-.16-.428.34.34,0,0,1,.406-.209l5.973,1.546a3.584,3.584,0,0,0,1.482-7.012l-11.55-2.466a.343.343,0,1,1,.143-.671l11.55,2.466a4.27,4.27,0,1,1-1.783,8.352l-4.129-1.069a10.763,10.763,0,0,1,3.909,6.828.342.342,0,0,1-.294.385.256.256,0,0,1-.046,0" transform="translate(-142.408 -58.412)" fill="#644602"/>
        <path id="Trazado_1274632" data-name="Trazado 1274632" d="M466.648,186.736a.323.323,0,0,1-.1-.014.342.342,0,0,1-.231-.426l1.815-6.167a.343.343,0,0,1,.658.194l-1.816,6.167a.343.343,0,0,1-.329.246" transform="translate(-146.236 -56.412)" fill="#644602"/>
        <path id="Trazado_1274633" data-name="Trazado 1274633" d="M474.844,190.563a.338.338,0,0,1-.121-.022.343.343,0,0,1-.2-.442l1.6-4.255a.343.343,0,0,1,.642.242l-1.6,4.255a.344.344,0,0,1-.321.222" transform="translate(-148.806 -58.212)" fill="#644602"/>
        <path id="Trazado_1274634" data-name="Trazado 1274634" d="M477.44,206.457a.334.334,0,0,1-.126-.024.343.343,0,0,1-.194-.445l4.162-10.575a.343.343,0,1,1,.638.251l-4.161,10.575a.343.343,0,0,1-.319.218" transform="translate(-149.62 -61.215)" fill="#644602"/>
        <path id="Trazado_1274635" data-name="Trazado 1274635" d="M332.6,92.613c-2.9,5.707-9.227,8.782-15.467,8.559a17.832,17.832,0,0,1-1.5,4.168,18.127,18.127,0,0,1-9.881,8.725c-3.908,1.411-8.623,1.456-11.82-1.284a18.978,18.978,0,0,1-9.43-.769,18.1,18.1,0,0,1-11.971-16.878,15.784,15.784,0,0,1,3.52-10.491,10.016,10.016,0,0,1,8.408-3.5,9.585,9.585,0,0,1-.089-2.218c.33-4.195,3.762-7.333,7.746-8.134a10.668,10.668,0,0,1,9.532,3.221,12.506,12.506,0,0,1,1.1-1.97,11.356,11.356,0,0,1,20.468,4.976,9.466,9.466,0,0,1,4.391.458c6.075,2.091,7.67,9.874,4.995,15.136" transform="translate(-85.467 -21.114)" fill="#644602"/>
        <path id="Trazado_1274636" data-name="Trazado 1274636" d="M275.519,127.836c1.865,4.714,5.3,7.364,9.739,6.18l-2.789,17.376,21.437,21.435,9.962-18.443-.4-7.848,3.344-3.085a25.045,25.045,0,0,0,8-20.147l-1.152-16.527a.711.711,0,0,1-.119.038,24.4,24.4,0,0,1-8.952.518,30.305,30.305,0,0,1-10.058-2.477,4.194,4.194,0,0,1-1.125,2.618,7.151,7.151,0,0,1-4.681,1.893A13.583,13.583,0,0,1,291.7,108q-1.62,4.584-3.543,9.06l0,.076-.024-.021a9.43,9.43,0,0,0-5.894-2.3,8.445,8.445,0,0,0-3.289.594c-4.67,1.854-5.44,7.375-3.437,12.429" transform="translate(-86.079 -32.883)" fill="#fff"/>
        <path id="Trazado_1274637" data-name="Trazado 1274637" d="M336.935,126.325a2.485,2.485,0,1,0,2.275-2.9,2.613,2.613,0,0,0-2.275,2.9" transform="translate(-105.662 -38.705)" fill="#644602"/>
        <path id="Trazado_1274638" data-name="Trazado 1274638" d="M315.093,127.849a2.485,2.485,0,1,0,2.276-2.9,2.614,2.614,0,0,0-2.276,2.9" transform="translate(-98.812 -39.183)" fill="#644602"/>
        <path id="Trazado_1274639" data-name="Trazado 1274639" d="M336.727,118.125a5.861,5.861,0,0,1,5.579.63.759.759,0,0,1-.8,1.286,4.89,4.89,0,0,0-.493-.318c-.084-.047-.169-.091-.255-.132l-.03-.013c-.045-.019-.09-.038-.136-.056a4.945,4.945,0,0,0-.557-.183c-.095-.025-.19-.047-.286-.067l-.046-.01-.159-.023a5.23,5.23,0,0,0-.586-.04c-.1,0-.2,0-.294,0l-.146.009h0l-.014,0a5.5,5.5,0,0,0-.577.1c-.095.023-.189.049-.283.078l-.139.045-.024.008-.026.011a.78.78,0,0,1-1.029-.307.767.767,0,0,1,.307-1.028" transform="translate(-105.478 -36.91)" fill="#644602"/>
        <path id="Trazado_1274640" data-name="Trazado 1274640" d="M318.843,120.327a.779.779,0,0,1-.976.446l-.027-.007-.025,0-.145-.025c-.1-.016-.194-.028-.29-.038a5.58,5.58,0,0,0-.586-.023h-.016l-.146.012c-.1.01-.195.021-.292.036a5.152,5.152,0,0,0-.575.121c-.051.014-.1.029-.154.045l-.045.015c-.092.034-.183.069-.274.106a5.063,5.063,0,0,0-.526.259l-.126.074-.027.016c-.079.054-.157.109-.233.167a4.927,4.927,0,0,0-.444.384.759.759,0,0,1-.975-1.163,5.861,5.861,0,0,1,5.438-1.4.768.768,0,0,1,.446.976" transform="translate(-98.061 -37.375)" fill="#644602"/>
        <path id="Trazado_1274641" data-name="Trazado 1274641" d="M335.549,137.882l-8.161-.482.04-.685,7.169.423L331,125.612l.656-.2Z" transform="translate(-102.671 -39.329)" fill="#644602"/>
        <path id="Trazado_1274642" data-name="Trazado 1274642" d="M284.407,137.5a4.882,4.882,0,0,1-3.952-7.774,3.554,3.554,0,0,1,2.261-1.485,2.55,2.55,0,0,1,1.8.383,8.579,8.579,0,0,0-.495-2.354A4.311,4.311,0,0,0,282,123.883a2.038,2.038,0,0,0-1.637-.156,3.232,3.232,0,0,0-1.421,1.763l-.619-.3a3.809,3.809,0,0,1,1.783-2.1,2.717,2.717,0,0,1,2.2.176,5,5,0,0,1,2.361,2.759,10.751,10.751,0,0,1,.592,3.508l.051,1.476-.7-1.3a1.734,1.734,0,0,0-1.788-.787,2.917,2.917,0,0,0-1.815,1.214,4.2,4.2,0,0,0,3.674,6.672l.048.685c-.108.008-.216.011-.323.011" transform="translate(-87.284 -38.552)" fill="#644602"/>
        <path id="Trazado_1274643" data-name="Trazado 1274643" d="M319.589,167.228a9.312,9.312,0,0,1-4.082-1.052,24.142,24.142,0,0,1-4.313-3l.432-.532a23.656,23.656,0,0,0,4.188,2.919,7.991,7.991,0,0,0,4.807.892,10.58,10.58,0,0,0,4.456-2.268l.412.55a11.459,11.459,0,0,1-4.751,2.394,6.723,6.723,0,0,1-1.148.1" transform="translate(-97.592 -51.006)" fill="#644602"/>
        <path id="Trazado_1274644" data-name="Trazado 1274644" d="M323.822,149.071a8.878,8.878,0,0,1-6.946-5.733l.649-.226a8.174,8.174,0,0,0,6.4,5.28Z" transform="translate(-99.374 -44.881)" fill="#644602"/>
        <rect id="Rectángulo_464748" data-name="Rectángulo 464748" width="65.004" height="6.233" transform="translate(178.517 221.483)" fill="#ffe79e"/>
        <path id="Trazado_1274645" data-name="Trazado 1274645" d="M373.344,306.3H280.426l13.728-55.717h92.918Z" transform="translate(-87.943 -78.584)" fill="#ffe79e"/>
        <rect id="Rectángulo_464749" data-name="Rectángulo 464749" width="108.229" height="0.686" transform="translate(178.517 221.141)" fill="#644602"/>
        <path id="Trazado_1274646" data-name="Trazado 1274646" d="M422.671,386.587a17.467,17.467,0,0,1-12.946,7.527,17.667,17.667,0,0,1-2.216.04l-49.154-2.148-5.975-5.1,3.366-17.846,6.806-.565,41.766-9.118a17.454,17.454,0,0,1,16.985,5.7l.226.262a17.465,17.465,0,0,1,1.141,21.247" transform="translate(-110.508 -112.576)" fill="#ddae3a"/>
        <path id="Trazado_1274647" data-name="Trazado 1274647" d="M436.135,393.962l-.467-.5a23.167,23.167,0,0,0,6.784-11.164,18.97,18.97,0,0,0-1.249-12.871,16.029,16.029,0,0,0-9.744-8.272l.186-.661a16.732,16.732,0,0,1,10.173,8.627,19.672,19.672,0,0,1,1.3,13.343,23.862,23.862,0,0,1-6.983,11.5" transform="translate(-135.308 -113.052)" fill="#fff"/>
        <path id="Trazado_1274648" data-name="Trazado 1274648" d="M364.861,393.7l-.686-.02a146.212,146.212,0,0,1,1.466-16.7l.68.1a145.336,145.336,0,0,0-1.459,16.626" transform="translate(-114.207 -118.22)" fill="#644602"/>
        <path id="Trazado_1274649" data-name="Trazado 1274649" d="M384.031,392.7a31.607,31.607,0,0,1,.158-15.922l.662.179a30.914,30.914,0,0,0-.154,15.576Z" transform="translate(-120.139 -118.159)" fill="#fff"/>
        <path id="Trazado_1274650" data-name="Trazado 1274650" d="M390.8,392.5a26.758,26.758,0,0,1,.544-15.167l.65.22a26.067,26.067,0,0,0-.53,14.773Z" transform="translate(-122.293 -118.334)" fill="#fff"/>
        <path id="Trazado_1274651" data-name="Trazado 1274651" d="M396.854,392.236a24.933,24.933,0,0,1,1.518-14.834l.63.272a24.235,24.235,0,0,0-1.476,14.423Z" transform="translate(-124.297 -118.355)" fill="#fff"/>
        <path id="Trazado_1274652" data-name="Trazado 1274652" d="M421.286,393.206a20.572,20.572,0,0,1,.3-25.454l.535.43a19.887,19.887,0,0,0-.288,24.606Z" transform="translate(-130.781 -115.329)" fill="#644602"/>
        <path id="Trazado_1274653" data-name="Trazado 1274653" d="M291.842,343.625l-10.325,33.349-91.343-23.912a24.276,24.276,0,1,1,15.609-45.842Z" transform="translate(-53.953 -95.741)" fill="#644602"/>
        <path id="Trazado_1274654" data-name="Trazado 1274654" d="M290.566,355.879l9.89,27.888,107.708-43.2a24.276,24.276,0,1,0-22.947-42.644Z" transform="translate(-91.123 -92.241)" fill="#644602"/>
        <rect id="Rectángulo_464750" data-name="Rectángulo 464750" width="73.508" height="0.686" transform="translate(201.416 263.194) rotate(-31.799)" fill="#fff"/>
        <rect id="Rectángulo_464751" data-name="Rectángulo 464751" width="0.686" height="38.149" transform="translate(196.311 230.668) rotate(-66.725)" fill="#fff"/>
        <path id="Trazado_1274655" data-name="Trazado 1274655" d="M204.114,413.971a17.394,17.394,0,0,0,16.2,4.965l48.129-10.216,5.053-6.014-6.261-17.047-6.806.564-42.7-2.113a17.455,17.455,0,0,0-15.815,8.42l-.179.3a17.464,17.464,0,0,0,2.374,21.145" transform="translate(-62.478 -120.452)" fill="#ddae3a"/>
        <path id="Trazado_1274656" data-name="Trazado 1274656" d="M219.511,419.4a23.856,23.856,0,0,1-8.782-10.193,19.675,19.675,0,0,1-.916-13.375,16.73,16.73,0,0,1,8.613-10.185l.293.621a16.031,16.031,0,0,0-8.249,9.764,18.97,18.97,0,0,0,.889,12.9,23.155,23.155,0,0,0,8.53,9.894Z" transform="translate(-65.557 -120.94)" fill="#fff"/>
        <path id="Trazado_1274657" data-name="Trazado 1274657" d="M293.177,407.489A145.278,145.278,0,0,0,289,391.332l.653-.211a146.1,146.1,0,0,1,4.2,16.236Z" transform="translate(-90.631 -122.657)" fill="#644602"/>
        <path id="Trazado_1274658" data-name="Trazado 1274658" d="M286.572,409.456a4.3,4.3,0,0,1-2.582-.989c-1.691-1.357-2.732-3.567-3.184-6.756-.1-.721-.175-1.448-.248-2.174a21.849,21.849,0,0,0-.908-5.045l.174-.061c0-.023-.008-.046-.012-.069l-.253-.2.184-.228c-.789-4.883-1.538-9.916-.854-14.931.168-1.229.55-2.95,1.923-3.716a3.33,3.33,0,0,1,3.671.509,5.715,5.715,0,0,1,1.773,3.23,13.19,13.19,0,0,1-1.3,8.491,35.866,35.866,0,0,1-4.482,6.609c.011.07.023.14.034.21a15.253,15.253,0,0,1,8.616,10.409c.2.927.495,3.2-1.058,4.27a2.586,2.586,0,0,1-1.49.447m-6.011-14.342a26.837,26.837,0,0,1,.681,4.353c.072.718.144,1.436.245,2.147.426,3.008,1.386,5.075,2.934,6.318.888.712,2.284,1.179,3.251.511,1.212-.834.947-2.768.777-3.559a14.535,14.535,0,0,0-7.888-9.77M282.2,375.62a2.15,2.15,0,0,0-1.053.261c-1.105.616-1.429,2.127-1.577,3.21-.642,4.707.01,9.473.752,14.114a33.056,33.056,0,0,0,4.013-5.994,12.525,12.525,0,0,0,1.252-8.04,5.056,5.056,0,0,0-1.545-2.855,2.908,2.908,0,0,0-1.842-.7" transform="translate(-87.377 -117.582)" fill="#fff"/>
        <path id="Trazado_1274659" data-name="Trazado 1274659" d="M274.283,409.636l-.684-.055a30.906,30.906,0,0,0-2.718-15.337l.625-.287a31.61,31.61,0,0,1,2.778,15.679" transform="translate(-84.95 -123.547)" fill="#fff"/>
        <path id="Trazado_1274660" data-name="Trazado 1274660" d="M267.452,410.579l-.684-.062a26.06,26.06,0,0,0-2.956-14.483l.6-.325a26.753,26.753,0,0,1,3.035,14.869" transform="translate(-82.733 -124.097)" fill="#fff"/>
        <path id="Trazado_1274661" data-name="Trazado 1274661" d="M261.163,411.362l-.686-.027a24.238,24.238,0,0,0-3.831-13.982l.577-.373a24.925,24.925,0,0,1,3.941,14.381" transform="translate(-80.485 -124.495)" fill="#fff"/>
        <path id="Trazado_1274662" data-name="Trazado 1274662" d="M236.139,416.534l-.606-.323a19.887,19.887,0,0,0-4.337-24.222l.456-.513a20.573,20.573,0,0,1,4.487,25.058" transform="translate(-72.504 -122.769)" fill="#644602"/>
        <path id="Trazado_1274663" data-name="Trazado 1274663" d="M518.46,174.49H432.944V70.986H518.46ZM433.63,173.8h84.143V71.672H433.63Z" transform="translate(-135.773 -22.262)" fill="#644602"/>
        <rect id="Rectángulo_464752" data-name="Rectángulo 464752" width="80.141" height="11.163" transform="translate(299.858 51.167)" fill="#ddae3a"/>
        <path id="Trazado_1274664" data-name="Trazado 1274664" d="M530.2,84.735a.478.478,0,0,1-.3-.105L525.727,81.3a.48.48,0,0,1,0-.75l4.118-3.29a.48.48,0,0,1,.6.751L526.8,80.922l3.7,2.957a.48.48,0,0,1-.3.855" transform="translate(-164.814 -24.195)" fill="#fff"/>
        <path id="Trazado_1274665" data-name="Trazado 1274665" d="M541.411,84.735a.48.48,0,0,1-.3-.855l3.7-2.957-3.648-2.914a.48.48,0,0,1,.6-.751l4.118,3.29a.48.48,0,0,1,0,.75l-4.172,3.332a.479.479,0,0,1-.3.105" transform="translate(-169.639 -24.195)" fill="#fff"/>
        <path id="Trazado_1274666" data-name="Trazado 1274666" d="M535.363,85.211a.481.481,0,0,1-.524-.617l2.581-8.393a.48.48,0,0,1,.918.282l-2.582,8.393a.481.481,0,0,1-.395.335" transform="translate(-167.721 -23.791)" fill="#fff"/>
        <rect id="Rectángulo_464753" data-name="Rectángulo 464753" width="43.082" height="3.53" transform="translate(299.859 70.057)" fill="#ffe79e"/>
        <rect id="Rectángulo_464754" data-name="Rectángulo 464754" width="20.969" height="3.53" transform="translate(344.896 70.057)" fill="#ddae3a"/>
        <rect id="Rectángulo_464755" data-name="Rectángulo 464755" width="11.98" height="3.53" transform="translate(368.019 70.057)" fill="#644602"/>
        <path id="Trazado_1274667" data-name="Trazado 1274667" d="M540.363,117.272H511.008v-3.53h29.354" transform="translate(-160.255 -35.67)" fill="#ffe79e"/>
        <rect id="Rectángulo_464756" data-name="Rectángulo 464756" width="20.969" height="3.53" transform="translate(327.829 78.072)" fill="#ddae3a"/>
        <path id="Trazado_1274668" data-name="Trazado 1274668" d="M437.017,113.742h25.708v3.53H437.017" transform="translate(-137.051 -35.67)" fill="#644602"/>
        <rect id="Rectángulo_464757" data-name="Rectángulo 464757" width="15.626" height="3.53" transform="translate(299.967 86.753)" fill="#ddae3a"/>
        <rect id="Rectángulo_464758" data-name="Rectángulo 464758" width="43.62" height="3.53" transform="translate(317.549 86.753)" fill="#ffe79e"/>
        <rect id="Rectángulo_464759" data-name="Rectángulo 464759" width="16.785" height="3.53" transform="translate(363.323 86.753)" fill="#644602"/>
        <path id="Trazado_1274669" data-name="Trazado 1274669" d="M548.047,141.6H535.167v-3.53h12.881" transform="translate(-167.831 -43.298)" fill="#ffe79e"/>
        <rect id="Rectángulo_464760" data-name="Rectángulo 464760" width="37.442" height="3.53" transform="translate(327.938 94.768)" fill="#ddae3a"/>
        <path id="Trazado_1274670" data-name="Trazado 1274670" d="M437.176,138.066h25.708v3.53H437.176" transform="translate(-137.1 -43.298)" fill="#644602"/>
        <rect id="Rectángulo_464761" data-name="Rectángulo 464761" width="43.082" height="3.53" transform="translate(300.076 108.192)" fill="#ffe79e"/>
        <rect id="Rectángulo_464762" data-name="Rectángulo 464762" width="20.969" height="3.53" transform="translate(345.114 108.192)" fill="#ddae3a"/>
        <rect id="Rectángulo_464763" data-name="Rectángulo 464763" width="11.98" height="3.53" transform="translate(368.237 108.192)" fill="#644602"/>
        <path id="Trazado_1274671" data-name="Trazado 1274671" d="M540.68,172.831H511.325V169.3H540.68" transform="translate(-160.354 -53.093)" fill="#ffe79e"/>
        <rect id="Rectángulo_464764" data-name="Rectángulo 464764" width="20.969" height="3.53" transform="translate(328.046 116.207)" fill="#ddae3a"/>
        <path id="Trazado_1274672" data-name="Trazado 1274672" d="M437.334,169.3h25.708v3.53H437.334" transform="translate(-137.15 -53.094)" fill="#644602"/>
        <rect id="Rectángulo_464765" data-name="Rectángulo 464765" width="15.626" height="3.53" transform="translate(300.185 124.888)" fill="#ddae3a"/>
        <rect id="Rectángulo_464766" data-name="Rectángulo 464766" width="43.62" height="3.53" transform="translate(317.767 124.888)" fill="#ffe79e"/>
        <rect id="Rectángulo_464767" data-name="Rectángulo 464767" width="16.785" height="3.53" transform="translate(363.54 124.888)" fill="#644602"/>
        <path id="Trazado_1274673" data-name="Trazado 1274673" d="M548.364,197.155H535.484v-3.53h12.881" transform="translate(-167.93 -60.722)" fill="#ffe79e"/>
        <rect id="Rectángulo_464768" data-name="Rectángulo 464768" width="37.442" height="3.53" transform="translate(328.155 132.903)" fill="#ddae3a"/>
        <path id="Trazado_1274674" data-name="Trazado 1274674" d="M437.493,193.625H463.2v3.53H437.493" transform="translate(-137.2 -60.722)" fill="#644602"/>
        <path id="Trazado_1274675" data-name="Trazado 1274675" d="M184.5,130H98.981V26.5H184.5Zm-84.83-.686h84.143V27.185H99.667Z" transform="translate(-31.041 -8.31)" fill="#644602"/>
        <rect id="Rectángulo_464769" data-name="Rectángulo 464769" width="80.141" height="11.163" transform="translate(70.627 20.631)" fill="#ddae3a"/>
        <path id="Trazado_1274676" data-name="Trazado 1274676" d="M196.236,40.248a.478.478,0,0,1-.3-.105l-4.172-3.332a.48.48,0,0,1,0-.75l4.118-3.29a.48.48,0,0,1,.6.751l-3.648,2.914,3.7,2.957a.48.48,0,0,1-.3.855" transform="translate(-60.082 -10.244)" fill="#fff"/>
        <path id="Trazado_1274677" data-name="Trazado 1274677" d="M207.449,40.248a.48.48,0,0,1-.3-.855l3.7-2.957L207.2,33.521a.48.48,0,0,1,.6-.751l4.118,3.29a.48.48,0,0,1,0,.75l-4.172,3.332a.476.476,0,0,1-.3.105" transform="translate(-64.906 -10.244)" fill="#fff"/>
        <path id="Trazado_1274678" data-name="Trazado 1274678" d="M201.4,40.724a.481.481,0,0,1-.524-.617l2.582-8.393a.48.48,0,0,1,.918.282L201.8,40.389a.481.481,0,0,1-.395.335" transform="translate(-62.989 -9.839)" fill="#fff"/>
        <rect id="Rectángulo_464770" data-name="Rectángulo 464770" width="43.082" height="3.53" transform="translate(70.628 39.521)" fill="#ffe79e"/>
        <rect id="Rectángulo_464771" data-name="Rectángulo 464771" width="20.969" height="3.53" transform="translate(115.666 39.521)" fill="#ddae3a"/>
        <rect id="Rectángulo_464772" data-name="Rectángulo 464772" width="11.98" height="3.53" transform="translate(138.788 39.521)" fill="#fff"/>
        <path id="Trazado_1274679" data-name="Trazado 1274679" d="M206.4,72.784H177.045v-3.53H206.4" transform="translate(-55.522 -21.718)" fill="#ffe79e"/>
        <rect id="Rectángulo_464773" data-name="Rectángulo 464773" width="20.969" height="3.53" transform="translate(98.599 47.536)" fill="#ddae3a"/>
        <path id="Trazado_1274680" data-name="Trazado 1274680" d="M103.055,69.255h25.708v3.53H103.055" transform="translate(-32.318 -21.719)" fill="#fff"/>
        <rect id="Rectángulo_464774" data-name="Rectángulo 464774" width="15.626" height="3.53" transform="translate(70.736 56.217)" fill="#ddae3a"/>
        <rect id="Rectángulo_464775" data-name="Rectángulo 464775" width="43.62" height="3.53" transform="translate(88.319 56.217)" fill="#ffe79e"/>
        <rect id="Rectángulo_464776" data-name="Rectángulo 464776" width="16.785" height="3.53" transform="translate(134.092 56.217)" fill="#fff"/>
        <path id="Trazado_1274681" data-name="Trazado 1274681" d="M214.085,97.109H201.2v-3.53h12.881" transform="translate(-63.099 -29.347)" fill="#ffe79e"/>
        <rect id="Rectángulo_464777" data-name="Rectángulo 464777" width="37.442" height="3.53" transform="translate(98.707 64.232)" fill="#ddae3a"/>
        <path id="Trazado_1274682" data-name="Trazado 1274682" d="M103.213,93.579h25.708v3.53H103.213" transform="translate(-32.368 -29.347)" fill="#fff"/>
        <rect id="Rectángulo_464778" data-name="Rectángulo 464778" width="43.082" height="3.53" transform="translate(70.846 77.657)" fill="#ffe79e"/>
        <rect id="Rectángulo_464779" data-name="Rectángulo 464779" width="20.969" height="3.53" transform="translate(115.883 77.657)" fill="#ddae3a"/>
        <rect id="Rectángulo_464780" data-name="Rectángulo 464780" width="11.98" height="3.53" transform="translate(139.006 77.657)" fill="#fff"/>
        <path id="Trazado_1274683" data-name="Trazado 1274683" d="M206.717,128.344H177.362v-3.53h29.354" transform="translate(-55.622 -39.142)" fill="#ffe79e"/>
        <rect id="Rectángulo_464781" data-name="Rectángulo 464781" width="20.969" height="3.53" transform="translate(98.816 85.672)" fill="#ddae3a"/>
        <path id="Trazado_1274684" data-name="Trazado 1274684" d="M103.372,124.814H129.08v3.53H103.372" transform="translate(-32.418 -39.142)" fill="#fff"/>
        <rect id="Rectángulo_464782" data-name="Rectángulo 464782" width="15.626" height="3.53" transform="translate(70.954 94.353)" fill="#ddae3a"/>
        <rect id="Rectángulo_464783" data-name="Rectángulo 464783" width="43.62" height="3.53" transform="translate(88.536 94.353)" fill="#ffe79e"/>
        <rect id="Rectángulo_464784" data-name="Rectángulo 464784" width="16.785" height="3.53" transform="translate(134.31 94.353)" fill="#fff"/>
        <path id="Trazado_1274685" data-name="Trazado 1274685" d="M214.4,152.668H201.521v-3.53H214.4" transform="translate(-63.198 -46.77)" fill="#ffe79e"/>
        <rect id="Rectángulo_464785" data-name="Rectángulo 464785" width="37.442" height="3.53" transform="translate(98.925 102.368)" fill="#ddae3a"/>
        <path id="Trazado_1274686" data-name="Trazado 1274686" d="M103.53,149.138h25.708v3.53H103.53" transform="translate(-32.468 -46.77)" fill="#fff"/>
      </g>
    </g>
  </g>
</svg>
