<svg xmlns="http://www.w3.org/2000/svg" xmlns:xlink="http://www.w3.org/1999/xlink" width="130" height="130" viewBox="0 0 130 130">
  <defs>
    <clipPath id="clip-path">
      <rect id="Rectángulo_454829" data-name="Rectángulo 454829" width="130" height="130" fill="#1e535a"/>
    </clipPath>
    <clipPath id="clip-path-2">
      <rect id="Rectángulo_465041" data-name="Rectángulo 465041" width="53.808" height="52.945" fill="#1e535a"/>
    </clipPath>
  </defs>
  <g id="Grupo_1211810" data-name="Grupo 1211810" transform="translate(-186 -4323.945)">
    <g id="Grupo_1177591" data-name="Grupo 1177591" transform="translate(186 4323.945)">
      <g id="Grupo_1177589" data-name="Grupo 1177589" transform="translate(0 0)">
        <g id="Grupo_1177587" data-name="Grupo 1177587" clip-path="url(#clip-path)">
          <path id="Trazado_997422" data-name="Trazado 997422" d="M124.692,57.54a59.768,59.768,0,0,0-13.5-31.1,6.874,6.874,0,0,0-9.672-9.26,59.68,59.68,0,0,0-30.9-12.073,6.875,6.875,0,0,0-13.353.271A59.762,59.762,0,0,0,27.622,18.05a6.877,6.877,0,0,0-9.545,9.61A59.712,59.712,0,0,0,5.568,57.481,6.88,6.88,0,0,0,5.4,70.954,59.7,59.7,0,0,0,17.522,101.38a6.876,6.876,0,0,0,9.342,9.709,59.757,59.757,0,0,0,30.35,13.274,6.877,6.877,0,0,0,13.473.271,59.706,59.706,0,0,0,31.125-12.3,6.875,6.875,0,0,0,9.624-9.308,59.783,59.783,0,0,0,13.418-32.141,6.877,6.877,0,0,0-.161-13.35M105.274,29.825a6.838,6.838,0,0,0,3.808-1.153,56.758,56.758,0,0,1,12.526,28.85,6.887,6.887,0,0,0-4.395,3.184L99.637,54.116c.014-.192.027-.388.027-.587a6.877,6.877,0,0,0-2.913-5.62L104.44,29.77a7.449,7.449,0,0,0,.834.055m-3.716-1.094L93.917,46.749a6.806,6.806,0,0,0-7.575,4.374L54.544,43.8A6.691,6.691,0,0,0,54.4,42.43L99.523,26.716a6.9,6.9,0,0,0,2.035,2.014M63.979,13.765a6.883,6.883,0,0,0,6.755-5.582A56.663,56.663,0,0,1,99.386,19.388a6.844,6.844,0,0,0-.995,3.554,7.226,7.226,0,0,0,.065.909L53.107,39.641A6.9,6.9,0,0,0,51.861,38.4L63.756,13.754c.075,0,.148.01.223.01M57.286,8.454a6.884,6.884,0,0,0,3.462,4.5L49.086,37.109a6.9,6.9,0,0,0-1.42-.148,6.832,6.832,0,0,0-3.922,1.232L29.921,26.648a6.842,6.842,0,0,0-.233-6.333,56.709,56.709,0,0,1,27.6-11.861M13.6,62.741l28.59-14.746a6.857,6.857,0,0,0,5.424,2.728l9.8,31.321a7,7,0,0,0-1.516,1.678L13.511,66.062a6.836,6.836,0,0,0,.254-1.825,6.916,6.916,0,0,0-.168-1.5m6.752-33.029a6.877,6.877,0,0,0,7.682-.655l13.648,11.4a6.863,6.863,0,0,0-.758,4.755L12.283,59.976a6.88,6.88,0,0,0-3.644-2.388,56.684,56.684,0,0,1,11.71-27.876M23.2,98.391a6.862,6.862,0,0,0-3.417.913,56.633,56.633,0,0,1-11.3-28.38,6.888,6.888,0,0,0,3.572-2.155L54.857,86.6a7.38,7.38,0,0,0-.055.827,6.881,6.881,0,0,0,.412,2.326l-25.886,12.4A6.881,6.881,0,0,0,23.2,98.391M57.347,121.3A56.765,56.765,0,0,1,29.029,108.91a6.81,6.81,0,0,0,1.05-3.637l0-.079,26.8-12.845a6.882,6.882,0,0,0,2.429,1.534l1.606,23.08a6.882,6.882,0,0,0-3.565,4.337M60.2,80.715,50.609,50.057a6.892,6.892,0,0,0,3.27-3.27l32.055,7.38A6.842,6.842,0,0,0,87.028,57.3L65.043,81.426a6.8,6.8,0,0,0-4.844-.71M70.68,121.567a6.88,6.88,0,0,0-6.7-5.332l-.051,0L62.4,94.278a6.87,6.87,0,0,0,4.206-2.041l32.048,14.135c0,.062-.01.117-.01.178a6.848,6.848,0,0,0,1.019,3.589A56.66,56.66,0,0,1,70.68,121.567m28.747-18.2L68.213,89.6a6.842,6.842,0,0,0-.9-6.121l21.92-24.061a6.841,6.841,0,0,0,3.551.995,7.576,7.576,0,0,0,.844-.055l8.193,40.4a6.867,6.867,0,0,0-2.391,2.611M109.3,100.8a6.84,6.84,0,0,0-4.573-1.081L96.532,59.3A6.91,6.91,0,0,0,98.7,57.032l17.566,6.587a6.1,6.1,0,0,0-.031.618,6.88,6.88,0,0,0,5.531,6.745A56.707,56.707,0,0,1,109.3,100.8" transform="translate(0 0.001)" fill="#1e535a"/>
        </g>
      </g>
    </g>
    <g id="Elipse_13614" data-name="Elipse 13614" transform="translate(210.273 4348.213)" fill="#fff" stroke="#1e535a" stroke-width="3">
      <ellipse cx="40.732" cy="40.733" rx="40.732" ry="40.733" stroke="none"/>
      <ellipse cx="40.732" cy="40.733" rx="39.232" ry="39.233" fill="none"/>
    </g>
    <g id="Grupo_1212153" data-name="Grupo 1212153" transform="translate(225.595 4362.474)">
      <g id="Grupo_1212152" data-name="Grupo 1212152" clip-path="url(#clip-path-2)">
        <path id="Trazado_1284370" data-name="Trazado 1284370" d="M40.379,92.386a11.532,11.532,0,0,1,.059,3.077H7.8a10.8,10.8,0,0,1,.008-2.979,2.7,2.7,0,0,1,2.652-2.022l6.069-.074-.006-5.861L3.775,84.513A3.693,3.693,0,0,1,0,80.9l0-25.75a3.692,3.692,0,0,1,3.771-3.569l6.5.005.026,3.1-7.192.088.009,23.508,30.435,0a11.752,11.752,0,0,0,.865,6.164l-2.711.1,0,5.858,6.02.057a2.747,2.747,0,0,1,2.658,1.933" transform="translate(0 -42.518)" fill="#1e535a"/>
        <path id="Trazado_1284371" data-name="Trazado 1284371" d="M225.891,69.455a19.269,19.269,0,0,0-3.1-.636l-.043-14.058-7.146-.067a27.726,27.726,0,0,1-.01-3.111l6.659.015a3.654,3.654,0,0,1,3.632,3.678Z" transform="translate(-177.667 -42.517)" fill="#1e535a"/>
        <path id="Trazado_1284372" data-name="Trazado 1284372" d="M80.871,30.12c-6.652-1.254-12.01-6.9-12.038-13.688L68.787,5.167,80.79,0,92.8,5.162l.025,10.583A14.9,14.9,0,0,1,80.871,30.12M78.589,22.7a1.079,1.079,0,0,0,.312.824l1.463,1.535c.74.776,1.967-1.317,2.626-1.927l0-9.831a4.632,4.632,0,1,0-4.409-.012l.057,4.317a13.775,13.775,0,0,1,1.215,1.144l-1.164,1.224,1.15,1.195c-.373.648-1.249.871-1.254,1.531" transform="translate(-56.697)" fill="#1e535a"/>
        <path id="Trazado_1284373" data-name="Trazado 1284373" d="M132.119,39.6a1.363,1.363,0,1,1-1.363-1.363,1.363,1.363,0,0,1,1.363,1.363" transform="translate(-106.651 -31.514)" fill="#1e535a"/>
        <path id="Trazado_1284374" data-name="Trazado 1284374" d="M218.975,169.11a9.294,9.294,0,1,1-9.294-9.294,9.294,9.294,0,0,1,9.294,9.294m-3.934,5.285a7.528,7.528,0,1,0-10.689-.016,5.939,5.939,0,0,1,5.463-3.348,6.044,6.044,0,0,1,5.226,3.364" transform="translate(-165.167 -131.727)" fill="#1e535a"/>
        <path id="Trazado_1284375" data-name="Trazado 1284375" d="M242.325,186.522a2.963,2.963,0,1,1-2.963-2.963,2.963,2.963,0,0,1,2.963,2.963" transform="translate(-194.85 -151.297)" fill="#1e535a"/>
      </g>
    </g>
  </g>
</svg>
