<svg xmlns="http://www.w3.org/2000/svg" xmlns:xlink="http://www.w3.org/1999/xlink" width="85" height="85" viewBox="0 0 85 85">
  <defs>
    <clipPath id="clip-path">
      <rect id="Rectángulo_465003" data-name="Rectángulo 465003" width="62.568" height="56.279" fill="#344866"/>
    </clipPath>
  </defs>
  <g id="Grupo_1211812" data-name="Grupo 1211812" transform="translate(-179.734 -5520.842)">
    <rect id="Rectángulo_402006" data-name="Rectángulo 402006" width="85" height="85" rx="5" transform="translate(179.734 5520.842)" fill="#69d7e5"/>
    <g id="Grupo_1212096" data-name="Grupo 1212096" transform="translate(190.951 5535.202)">
      <g id="Grupo_1212095" data-name="Grupo 1212095" clip-path="url(#clip-path)">
        <path id="Trazado_1284205" data-name="Trazado 1284205" d="M62.568,55.195a.952.952,0,0,1-1.011,1.085l-32.022,0a4.65,4.65,0,0,1-3.544-1.494A4.978,4.978,0,0,1,24.9,50.716C18.719,51.1,7.6,50.64,2.313,47.3c-.862-.545-2.3-1.546-2.3-2.789L0,6.436c0-1.2,1.228-2.209,2.091-2.758A20.058,20.058,0,0,1,9.3,1.069a59.843,59.843,0,0,1,22.588.013,22.322,22.322,0,0,1,6.932,2.433c.981.737,2.214,1.554,2.231,2.883l.1,8.164,11.4.028,5.994,6.016.052,12.641c.179.27.917.189,1.218.161a2.342,2.342,0,0,1,2.752,2.354ZM31.476,10.878c1.933-.369,7.881-1.927,7.886-4.078S33.21,3.063,31.39,2.727a57.558,57.558,0,0,0-23,.3c-1.7.378-6.8,1.912-6.667,3.868C1.86,8.9,7.285,10.405,9.146,10.783a57.558,57.558,0,0,0,22.33.1m1.654,3.7,6.252-.04-.013-4.772a21.553,21.553,0,0,1-6.987,2.694c-8.206,1.773-23.29,1.939-30.675-2.7.071,3.257-.157,6.354.1,9.524.07.878,1.313,1.271,1.851,1.78,7.771,3.616,20.247,3.551,28.541,1.8l.045-7.449a.835.835,0,0,1,.889-.839m23.741,7.257-4.645-.017a.9.9,0,0,1-.892-.927l-.066-4.628h-17.3l-.006,22.1,10.788.01L47.8,33.461l9.032-.054ZM55.52,20.01l-2.415-2.416a9.965,9.965,0,0,0-.058,2.482,9.993,9.993,0,0,0,2.473-.066M25.712,32.938l6.51-.068L32.2,24.624a59.616,59.616,0,0,1-23.677-.108A20.669,20.669,0,0,1,1.73,21.9l.082,9.928c.171,1.084,1.692,1.54,2.5,2.105,6.305,2.583,13.761,2.838,20.5,2.509.325-1.133-.5-3.486.9-3.5m-.827,16-.028-10.813A57.89,57.89,0,0,1,7.851,36.915a20.807,20.807,0,0,1-6.144-2.48l.069,9.9c0,.61.918,1.207,1.4,1.486,5.349,3.115,15.64,3.648,21.712,3.116m5.882-10.577a3.858,3.858,0,0,0,1.447-.086l-.026-3.635-5.608.008-.016,16.935a2.684,2.684,0,0,0,1.8,2.747l.005-13.88a2.028,2.028,0,0,1,2.395-2.089m-.655,16.167,30.718,0-.017-19.373-12.064-.024-3.042,4.9-15.611.04Z" transform="translate(0 0)" fill="#344866"/>
        <path id="Trazado_1284206" data-name="Trazado 1284206" d="M199.717,141.658l-18.438,0a.871.871,0,0,1-.892-.874.881.881,0,0,1,.886-.851l18.533.008a.863.863,0,0,1,.809.849.846.846,0,0,1-.9.864" transform="translate(-145.1 -112.563)" fill="#344866"/>
        <path id="Trazado_1284207" data-name="Trazado 1284207" d="M200.01,123.136l-18.423.026c-.558,0-.915-.159-1.017-.544-.076-.287-.053-1.088.47-1.089l18.716-.038a.863.863,0,0,1,.943.589c.087.3-.012,1.056-.69,1.057" transform="translate(-145.221 -97.724)" fill="#344866"/>
        <path id="Trazado_1284208" data-name="Trazado 1284208" d="M193.889,104.451l-12.52.022a.9.9,0,0,1-.87-.669c-.087-.4.106-1.035.663-1.036l12.676-.023a.854.854,0,1,1,.051,1.706" transform="translate(-145.174 -82.646)" fill="#344866"/>
        <path id="Trazado_1284209" data-name="Trazado 1284209" d="M98.051,91.609c.2,1.378-2.417,1.1-3.85,1.012-.465-.029-.651-.515-.649-.846a.823.823,0,0,1,.862-.815l2.712-.044a.862.862,0,0,1,.925.693" transform="translate(-75.251 -73.13)" fill="#344866"/>
        <path id="Trazado_1284210" data-name="Trazado 1284210" d="M97.111,156.5c-1.712.072-3.6.4-3.58-.835a.855.855,0,0,1,.87-.828l2.733-.06a.864.864,0,1,1-.023,1.723" transform="translate(-75.235 -124.503)" fill="#344866"/>
        <path id="Trazado_1284211" data-name="Trazado 1284211" d="M98.044,219.618c.263,1.416-2.126,1.011-3.644,1.05a.8.8,0,0,1-.85-.893.809.809,0,0,1,.872-.787l2.707-.062a.842.842,0,0,1,.914.691" transform="translate(-75.25 -176.1)" fill="#344866"/>
      </g>
    </g>
  </g>
</svg>
