<svg xmlns="http://www.w3.org/2000/svg" xmlns:xlink="http://www.w3.org/1999/xlink" width="96.667" height="96.667" viewBox="0 0 96.667 96.667">
  <defs>
    <clipPath id="clip-path">
      <rect id="Rectángulo_454829" data-name="Rectángulo 454829" width="96.667" height="96.667" fill="none"/>
    </clipPath>
    <clipPath id="clip-path-2">
      <rect id="Rectángulo_458180" data-name="Rectángulo 458180" width="34.052" height="33.875" fill="#6cb9ff"/>
    </clipPath>
  </defs>
  <g id="Grupo_1212381" data-name="Grupo 1212381" transform="translate(12935.111 11996.146)">
    <g id="Grupo_1177591" data-name="Grupo 1177591" transform="translate(-13847.444 -12166)">
      <g id="Grupo_1177589" data-name="Grupo 1177589" transform="translate(912.333 169.854)">
        <g id="Grupo_1177587" data-name="Grupo 1177587" transform="translate(0 0)" clip-path="url(#clip-path)">
          <path id="Trazado_997422" data-name="Trazado 997422" d="M92.72,42.786A44.443,44.443,0,0,0,82.681,19.659a5.111,5.111,0,0,0-7.192-6.886A44.377,44.377,0,0,0,52.514,3.8a5.112,5.112,0,0,0-9.929.2A44.438,44.438,0,0,0,20.54,13.422a5.114,5.114,0,0,0-7.1,7.146,44.4,44.4,0,0,0-9.3,22.175,5.116,5.116,0,0,0-.122,10.019,44.388,44.388,0,0,0,9.011,22.624,5.113,5.113,0,0,0,6.947,7.22,44.435,44.435,0,0,0,22.568,9.871,5.114,5.114,0,0,0,10.019.2,44.4,44.4,0,0,0,23.144-9.143,5.112,5.112,0,0,0,7.156-6.921,44.454,44.454,0,0,0,9.978-23.9,5.114,5.114,0,0,0-.12-9.927M78.281,22.177a5.085,5.085,0,0,0,2.832-.857,42.2,42.2,0,0,1,9.314,21.453,5.121,5.121,0,0,0-3.268,2.367l-13.07-4.9c.01-.143.02-.288.02-.436a5.114,5.114,0,0,0-2.166-4.179l5.717-13.488a5.54,5.54,0,0,0,.62.041m-2.763-.814-5.681,13.4A5.061,5.061,0,0,0,64.2,38.015L40.559,32.568a4.975,4.975,0,0,0-.107-1.018L74,19.866a5.13,5.13,0,0,0,1.513,1.5M47.575,10.235A5.118,5.118,0,0,0,52.6,6.085a42.135,42.135,0,0,1,21.3,8.332,5.089,5.089,0,0,0-.74,2.643,5.372,5.372,0,0,0,.048.676L39.49,29.476a5.133,5.133,0,0,0-.926-.926l8.845-18.323c.056,0,.11.008.166.008M42.6,6.286a5.119,5.119,0,0,0,2.574,3.35L36.5,27.594a5.132,5.132,0,0,0-1.056-.11,5.08,5.08,0,0,0-2.916.916L22.249,19.815a5.087,5.087,0,0,0-.173-4.709A42.168,42.168,0,0,1,42.6,6.286M10.11,46.654,31.369,35.689A5.1,5.1,0,0,0,35.4,37.717l7.286,23.29a5.2,5.2,0,0,0-1.128,1.248L10.047,49.123a5.083,5.083,0,0,0,.189-1.357,5.143,5.143,0,0,0-.125-1.112m5.021-24.56a5.114,5.114,0,0,0,5.712-.487l10.149,8.475a5.1,5.1,0,0,0-.564,3.536L9.133,44.6a5.116,5.116,0,0,0-2.709-1.776,42.149,42.149,0,0,1,8.707-20.728m2.117,51.07a5.1,5.1,0,0,0-2.541.679,42.112,42.112,0,0,1-8.4-21.1,5.122,5.122,0,0,0,2.656-1.6L40.791,64.4a5.487,5.487,0,0,0-.041.615,5.117,5.117,0,0,0,.306,1.73L21.808,75.964a5.117,5.117,0,0,0-4.559-2.8M42.643,90.2a42.21,42.21,0,0,1-21.057-9.212,5.064,5.064,0,0,0,.781-2.7l0-.059,19.93-9.552a5.118,5.118,0,0,0,1.806,1.14l1.194,17.162A5.117,5.117,0,0,0,42.643,90.2m2.12-30.178-7.131-22.8a5.125,5.125,0,0,0,2.431-2.431L63.9,40.278a5.087,5.087,0,0,0,.814,2.327L48.365,60.547a5.054,5.054,0,0,0-3.6-.528M52.557,90.4a5.116,5.116,0,0,0-4.982-3.965l-.038,0L46.4,70.1a5.108,5.108,0,0,0,3.128-1.518L73.359,79.1c0,.046-.008.087-.008.133a5.092,5.092,0,0,0,.758,2.669,42.132,42.132,0,0,1-21.552,8.5M73.933,76.865,50.723,66.624a5.087,5.087,0,0,0-.671-4.551l16.3-17.891a5.087,5.087,0,0,0,2.64.74,5.635,5.635,0,0,0,.628-.041l6.092,30.043a5.106,5.106,0,0,0-1.778,1.941m7.342-1.913a5.087,5.087,0,0,0-3.4-.8L71.78,44.092a5.138,5.138,0,0,0,1.612-1.684l13.062,4.9a4.535,4.535,0,0,0-.023.459,5.116,5.116,0,0,0,4.113,5.016,42.167,42.167,0,0,1-9.268,22.17" transform="translate(0 0.001)" fill="#fff"/>
        </g>
      </g>
    </g>
    <circle id="Elipse_13615" data-name="Elipse 13615" cx="28" cy="28" r="28" transform="translate(-12915.506 -11975.546)" fill="#fff"/>
    <g id="Grupo_1184528" data-name="Grupo 1184528" transform="translate(-12904.506 -11962.546)" clip-path="url(#clip-path-2)">
      <path id="Trazado_1030181" data-name="Trazado 1030181" d="M83.067,145.051c.045,1.041-.043,2.188-1.3,2.331-1.952.222-3.084-.1-2.859-2.331a7.364,7.364,0,0,1-3.294-1.892c-.439-.084-1.128,1.132-2.311.412a5.77,5.77,0,0,1-1.3-2.284c-.086-1.186,1.48-1.447,1.518-1.768a7.674,7.674,0,0,1,.03-3.842c-.684-.331-1.487-.642-1.548-1.532a4.937,4.937,0,0,1,1.22-2.333c1.067-.882,1.965.377,2.378.267a9.2,9.2,0,0,1,3.206-1.824c.286-.238-.193-1.5.7-2.092a3.635,3.635,0,0,1,2.979-.026c.683.451.508,1.375.613,2.065a13.746,13.746,0,0,1,1.7.757c.339.192,1.414,1.079,1.567,1.119.449.118,1.1-.972,2.193-.416a5.391,5.391,0,0,1,1.4,2.287c.12,1.287-1.38,1.4-1.452,1.886-.049.33.192,1.408.187,1.875a7.351,7.351,0,0,1-.253,1.808c.633.585,1.531.71,1.522,1.783A5.209,5.209,0,0,1,88.6,143.61c-1.17.661-1.843-.528-2.238-.452a7.35,7.35,0,0,1-3.295,1.893M80.8,132.9c-6.364.235-5.931,10.139.854,9.457,5.65-.568,5.335-9.685-.854-9.457" transform="translate(-63.972 -113.566)" fill="#6cb9ff"/>
      <path id="Trazado_1030182" data-name="Trazado 1030182" d="M124.189,184.163c4.579-.417,5.23,6.483.849,6.988-5.029.579-5.482-6.566-.849-6.988" transform="translate(-107.474 -163.597)" fill="#6cb9ff"/>
      <path id="Trazado_1030183" data-name="Trazado 1030183" d="M32.4,0,1.935,0A1.765,1.765,0,0,0,0,1.723V4.914H14.116c1.121,0,4.362-2.455,5.356-2.455H34.034C34.122,1.178,33.924-.013,32.4,0M1.885,3.93a.645.645,0,1,1,.645-.645.645.645,0,0,1-.645.645m2,0a.645.645,0,1,1,.645-.645.645.645,0,0,1-.645.645m1.922,0a.645.645,0,1,1,.645-.645A.645.645,0,0,1,5.8,3.93" transform="translate(0 0.001)" fill="#6cb9ff"/>
      <path id="Trazado_1030184" data-name="Trazado 1030184" d="M19.472,33.041c-.232,0-3.493,1.863-4.143,2.106a6.67,6.67,0,0,1-.655.237H0V53.518a1.5,1.5,0,0,0,1.2,1.369,1.623,1.623,0,0,0,.309.026H7.979l.167-.167V52.011c0-.015-.182-.015-.277-.108a2.505,2.505,0,0,1-.711-3.279c.621-1.454,1.62-2.762,3.378-2.517.309.043.785.363.99.309.066-.017.929-.639,1.141-.764.2-.116,1-.431,1.033-.474a6.883,6.883,0,0,0,.215-.956c.625-1.833,2.333-1.826,4-1.7a2.619,2.619,0,0,1,2.417,2.66l2.348,1.235a2.646,2.646,0,0,1,3.1.407,12.01,12.01,0,0,1,1.251,2.1,2.551,2.551,0,0,1-.862,2.984c-.1.093-.277.093-.277.108v2.734l.167.167H32.64c.788.021,1.334-.376,1.395-1.395V33.041Zm12.542,7.1a.694.694,0,0,1-.694.694H23.806a.694.694,0,0,1-.694-.694v-.273a.694.694,0,0,1,.694-.694H31.32a.694.694,0,0,1,.694.694Zm0-2.789a.694.694,0,0,1-.694.694H23.806a.694.694,0,0,1-.694-.694v-.273a.694.694,0,0,1,.694-.694H31.32a.694.694,0,0,1,.694.694Z" transform="translate(0 -29.354)" fill="#6cb9ff"/>
    </g>
  </g>
</svg>
