<svg xmlns="http://www.w3.org/2000/svg" xmlns:xlink="http://www.w3.org/1999/xlink" width="96.667" height="96.667" viewBox="0 0 96.667 96.667">
  <defs>
    <clipPath id="clip-path">
      <rect id="Rectángulo_454829" data-name="Rectángulo 454829" width="96.667" height="96.667" fill="none"/>
    </clipPath>
    <clipPath id="clip-path-2">
      <rect id="Rectángulo_458181" data-name="Rectángulo 458181" width="37.72" height="37.487" fill="#6cb9ff"/>
    </clipPath>
  </defs>
  <g id="Grupo_1212380" data-name="Grupo 1212380" transform="translate(13062.611 11994.844)">
    <g id="Grupo_1177591" data-name="Grupo 1177591" transform="translate(-13974.944 -12164.697)">
      <g id="Grupo_1177589" data-name="Grupo 1177589" transform="translate(912.333 169.854)">
        <g id="Grupo_1177587" data-name="Grupo 1177587" transform="translate(0 0)" clip-path="url(#clip-path)">
          <path id="Trazado_997422" data-name="Trazado 997422" d="M92.72,42.786A44.443,44.443,0,0,0,82.681,19.659a5.111,5.111,0,0,0-7.192-6.886A44.377,44.377,0,0,0,52.514,3.8a5.112,5.112,0,0,0-9.929.2A44.438,44.438,0,0,0,20.54,13.422a5.114,5.114,0,0,0-7.1,7.146,44.4,44.4,0,0,0-9.3,22.175,5.116,5.116,0,0,0-.122,10.019,44.388,44.388,0,0,0,9.011,22.624,5.113,5.113,0,0,0,6.947,7.22,44.435,44.435,0,0,0,22.568,9.871,5.114,5.114,0,0,0,10.019.2,44.4,44.4,0,0,0,23.144-9.143,5.112,5.112,0,0,0,7.156-6.921,44.454,44.454,0,0,0,9.978-23.9,5.114,5.114,0,0,0-.12-9.927M78.281,22.177a5.085,5.085,0,0,0,2.832-.857,42.2,42.2,0,0,1,9.314,21.453,5.121,5.121,0,0,0-3.268,2.367l-13.07-4.9c.01-.143.02-.288.02-.436a5.114,5.114,0,0,0-2.166-4.179l5.717-13.488a5.54,5.54,0,0,0,.62.041m-2.763-.814-5.681,13.4A5.061,5.061,0,0,0,64.2,38.015L40.559,32.568a4.975,4.975,0,0,0-.107-1.018L74,19.866a5.13,5.13,0,0,0,1.513,1.5M47.575,10.235A5.118,5.118,0,0,0,52.6,6.085a42.135,42.135,0,0,1,21.3,8.332,5.089,5.089,0,0,0-.74,2.643,5.372,5.372,0,0,0,.048.676L39.49,29.476a5.133,5.133,0,0,0-.926-.926l8.845-18.323c.056,0,.11.008.166.008M42.6,6.286a5.119,5.119,0,0,0,2.574,3.35L36.5,27.594a5.132,5.132,0,0,0-1.056-.11,5.08,5.08,0,0,0-2.916.916L22.249,19.815a5.087,5.087,0,0,0-.173-4.709A42.168,42.168,0,0,1,42.6,6.286M10.11,46.654,31.369,35.689A5.1,5.1,0,0,0,35.4,37.717l7.286,23.29a5.2,5.2,0,0,0-1.128,1.248L10.047,49.123a5.083,5.083,0,0,0,.189-1.357,5.143,5.143,0,0,0-.125-1.112m5.021-24.56a5.114,5.114,0,0,0,5.712-.487l10.149,8.475a5.1,5.1,0,0,0-.564,3.536L9.133,44.6a5.116,5.116,0,0,0-2.709-1.776,42.149,42.149,0,0,1,8.707-20.728m2.117,51.07a5.1,5.1,0,0,0-2.541.679,42.112,42.112,0,0,1-8.4-21.1,5.122,5.122,0,0,0,2.656-1.6L40.791,64.4a5.487,5.487,0,0,0-.041.615,5.117,5.117,0,0,0,.306,1.73L21.808,75.964a5.117,5.117,0,0,0-4.559-2.8M42.643,90.2a42.21,42.21,0,0,1-21.057-9.212,5.064,5.064,0,0,0,.781-2.7l0-.059,19.93-9.552a5.118,5.118,0,0,0,1.806,1.14l1.194,17.162A5.117,5.117,0,0,0,42.643,90.2m2.12-30.178-7.131-22.8a5.125,5.125,0,0,0,2.431-2.431L63.9,40.278a5.087,5.087,0,0,0,.814,2.327L48.365,60.547a5.054,5.054,0,0,0-3.6-.528M52.557,90.4a5.116,5.116,0,0,0-4.982-3.965l-.038,0L46.4,70.1a5.108,5.108,0,0,0,3.128-1.518L73.359,79.1c0,.046-.008.087-.008.133a5.092,5.092,0,0,0,.758,2.669,42.132,42.132,0,0,1-21.552,8.5M73.933,76.865,50.723,66.624a5.087,5.087,0,0,0-.671-4.551l16.3-17.891a5.087,5.087,0,0,0,2.64.74,5.635,5.635,0,0,0,.628-.041l6.092,30.043a5.106,5.106,0,0,0-1.778,1.941m7.342-1.913a5.087,5.087,0,0,0-3.4-.8L71.78,44.092a5.138,5.138,0,0,0,1.612-1.684l13.062,4.9a4.535,4.535,0,0,0-.023.459,5.116,5.116,0,0,0,4.113,5.016,42.167,42.167,0,0,1-9.268,22.17" transform="translate(0 0.001)" fill="#fff"/>
        </g>
      </g>
    </g>
    <circle id="Elipse_13614" data-name="Elipse 13614" cx="28" cy="28" r="28" transform="translate(-13042.111 -11974.697)" fill="#fff"/>
    <g id="Grupo_1184530" data-name="Grupo 1184530" transform="translate(-13033.138 -11965.254)" clip-path="url(#clip-path-2)">
      <path id="Trazado_1030185" data-name="Trazado 1030185" d="M41.515,177.852a3.793,3.793,0,0,0,3.793,3.793H64.271a3.793,3.793,0,0,0,3.793-3.793Z" transform="translate(-35.93 -153.924)" fill="#6cb9ff"/>
      <path id="Trazado_1030186" data-name="Trazado 1030186" d="M78.945,74.838A2.248,2.248,0,0,0,76.7,72.59H60.469a2.817,2.817,0,0,0-2.817,2.817V85.756H78.945ZM65.353,81.892a.671.671,0,0,1-.882,1.01l-3.847-3.359a.671.671,0,0,1,0-1.01l3.847-3.359a.671.671,0,0,1,.882,1.01l-3.269,2.854Zm4.39-6.469-1.354,7.206a.671.671,0,0,1-.658.547.681.681,0,0,1-.125-.012.67.67,0,0,1-.535-.783l1.354-7.206a.67.67,0,0,1,1.318.248m6.23,4.12L72.126,82.9a.671.671,0,1,1-.882-1.01l3.269-2.854-3.269-2.854a.67.67,0,1,1,.882-1.01l3.847,3.359a.67.67,0,0,1,0,1.01" transform="translate(-49.896 -62.824)" fill="#6cb9ff"/>
      <path id="Trazado_1030187" data-name="Trazado 1030187" d="M49.214,1.01A20.237,20.237,0,0,0,43.023,0,18.591,18.591,0,0,0,30.962,4.034l-.737-.722a1.3,1.3,0,0,0-2.175.655L27.236,7.78A1.3,1.3,0,0,0,28.8,9.313L32.6,8.419a1.3,1.3,0,0,0,.61-2.188l-.5-.489a15.979,15.979,0,0,1,10.2-3.32,18.191,18.191,0,0,1,5.472.86,1.211,1.211,0,0,0,.837-2.273" transform="translate(-23.547 0.001)" fill="#6cb9ff"/>
      <path id="Trazado_1030188" data-name="Trazado 1030188" d="M.95,90.255A20.225,20.225,0,0,0,0,96.455a18.592,18.592,0,0,0,4.148,12.022l-.714.744a1.3,1.3,0,0,0,.676,2.168l3.82.777a1.3,1.3,0,0,0,1.517-1.58l-.93-3.785a1.3,1.3,0,0,0-2.194-.589l-.484.5A15.98,15.98,0,0,1,2.422,96.55a18.178,18.178,0,0,1,.808-5.48A1.211,1.211,0,0,0,.95,90.255" transform="translate(-0.001 -77.418)" fill="#6cb9ff"/>
      <path id="Trazado_1030189" data-name="Trazado 1030189" d="M88.106,216.267a20.23,20.23,0,0,0,6.2.92,18.591,18.591,0,0,0,12-4.2l.747.711a1.3,1.3,0,0,0,2.165-.686l.76-3.823a1.3,1.3,0,0,0-1.586-1.51l-3.781.947a1.3,1.3,0,0,0-.579,2.2l.506.482a15.98,15.98,0,0,1-10.151,3.465,18.2,18.2,0,0,1-5.484-.783,1.211,1.211,0,0,0-.8,2.284" transform="translate(-75.553 -179.7)" fill="#6cb9ff"/>
      <path id="Trazado_1030190" data-name="Trazado 1030190" d="M220.233,50.135a20.232,20.232,0,0,0,1.083-6.178,18.592,18.592,0,0,0-3.888-12.109l.731-.728a1.3,1.3,0,0,0-.629-2.182l-3.8-.86a1.3,1.3,0,0,0-1.551,1.546l.848,3.8a1.3,1.3,0,0,0,2.18.636l.495-.493a15.979,15.979,0,0,1,3.2,10.238,18.186,18.186,0,0,1-.926,5.462,1.211,1.211,0,0,0,2.262.864" transform="translate(-183.602 -24.271)" fill="#6cb9ff"/>
    </g>
  </g>
</svg>
