<svg xmlns="http://www.w3.org/2000/svg" xmlns:xlink="http://www.w3.org/1999/xlink" width="396" height="440" viewBox="0 0 396 440">
  <defs>
    <clipPath id="clip-path">
      <rect id="Rectángulo_464364" data-name="Rectángulo 464364" width="370.805" height="440" fill="none"/>
    </clipPath>
  </defs>
  <g id="Grupo_1211506" data-name="Grupo 1211506" transform="translate(-185.711 -704)">
    <rect id="Rectángulo_464348" data-name="Rectángulo 464348" width="396" height="440" transform="translate(185.711 704)" fill="none"/>
    <g id="Grupo_1211505" data-name="Grupo 1211505" transform="translate(198.309 704.004)">
      <g id="Grupo_1211504" data-name="Grupo 1211504" transform="translate(0 -0.004)" clip-path="url(#clip-path)">
        <path id="Trazado_1273972" data-name="Trazado 1273972" d="M132.054,751.047S83.462,587.9,118.43,551.573c23.373-24.282,48.148,29.246,77.718.929,26.326-25.211-10.377-88.72,33.548-105.335,46.169-17.463,83.994,123.96,122.733,104.406,47.008-23.728,93.768,24.439,53.359,199.786Z" transform="translate(-78.761 -331.85)" fill="#ffe79e"/>
        <path id="Trazado_1273973" data-name="Trazado 1273973" d="M15.272,589.749c-.816-3.243-1.623-6.6-2.4-9.987l1.913-.738c.771,3.362,1.573,6.7,2.383,9.922Zm342.12-4.188-1.98-.317c.329-3.452.641-6.929.928-10.333l1.983.282c-.288,3.417-.6,6.905-.931,10.369M10.671,569.7c-.7-3.344-1.376-6.751-2.013-10.125l1.938-.616c.634,3.354,1.307,6.74,2,10.065Zm348.469-4.9-1.986-.244c.252-3.466.486-6.952.695-10.362l1.989.2c-.209,3.423-.444,6.923-.7,10.4M6.835,549.391c-.576-3.407-1.125-6.853-1.63-10.241l1.959-.491c.5,3.367,1.047,6.791,1.62,10.177Zm353.575-5.4-1.991-.164c.169-3.464.317-6.957.44-10.384l1.993.121c-.124,3.441-.272,6.949-.442,10.427M3.776,528.859c-.444-3.449-.855-6.927-1.221-10.338l1.976-.357c.364,3.388.772,6.843,1.213,10.269Zm357.381-5.733-1.994-.075c.078-3.479.131-6.976.159-10.4l2,.027c-.028,3.435-.082,6.949-.16,10.443M1.554,508.142c-.3-3.484-.556-6.988-.769-10.414l1.989-.208c.212,3.4.468,6.879.764,10.338Zm357.777-5.883c-.023-3.482-.074-6.978-.151-10.392l1.994-.076c.077,3.432.129,6.946.152,10.445ZM.261,487.286c-.132-3.5-.22-7.023-.261-10.457l1.995-.04c.04,3.406.127,6.9.259,10.371Zm358.6-5.8c-.137-3.477-.305-6.966-.5-10.369l1.989-.192c.2,3.424.365,6.932.5,10.429ZM2.014,466.414.019,466.36c.055-3.514.163-7.033.318-10.46l1.992.152c-.155,3.394-.261,6.88-.316,10.361m355.652-5.648c-.266-3.476-.568-6.948-.9-10.32l1.979-.325c.331,3.394.635,6.889.9,10.388ZM2.962,445.719l-1.985-.259c.271-3.5.6-7,.982-10.4l1.974.372c-.376,3.362-.7,6.823-.971,10.285m352.69-5.554c-.415-3.455-.871-6.9-1.355-10.229l1.961-.479c.488,3.359.947,6.828,1.365,10.309ZM119.689,439.8c-2.772-.567-4.778-2.2-7.555-5.032l1.261-2.006c2.433,2.471,4.191,3.953,6.507,4.464Zm6.922-6.159-1.777-1.177a49.864,49.864,0,0,0,2.4-9.57l1.949.553a52.073,52.073,0,0,1-2.572,10.195m-20.333-6.3c-1.589-2.3-3.288-4.939-5.193-8.08l1.568-1.6c1.878,3.1,3.549,5.7,5.109,7.951ZM5.266,425.221l-1.959-.493c.517-3.455,1.1-6.9,1.738-10.239l1.937.622c-.629,3.3-1.206,6.7-1.716,10.111m347.419-5.446c-.591-3.419-1.228-6.808-1.894-10.074l1.929-.662c.673,3.3,1.316,6.719,1.912,10.17Zm-222.159-6.747-1.979-.33c.306-3.09.581-6.473.839-10.344l1.988.223c-.261,3.907-.538,7.325-.848,10.451m-34.327-2.1c-1.622-2.841-3.3-5.845-4.754-8.437l1.615-1.52c1.447,2.587,3.125,5.585,4.742,8.417Zm146.069-.213a7.125,7.125,0,0,1-4.531-1.79l1.064-2.19a5.2,5.2,0,0,0,6.647.366l.858,2.337a7.7,7.7,0,0,1-4.039,1.278M9.1,405.135,7.2,404.378c.793-3.363,1.663-6.708,2.585-9.942l1.871.9c-.909,3.187-1.767,6.485-2.548,9.8m243.727-2.468-1.466-1.756a87.221,87.221,0,0,0,4.958-8.016l1.616,1.518a89.674,89.674,0,0,1-5.108,8.254m-20.767-1.78a89.546,89.546,0,0,1-3.912-9.3l1.8-1.107a86.759,86.759,0,0,0,3.783,9Zm116.521-1.146c-.8-3.354-1.661-6.655-2.549-9.813l1.875-.887c.9,3.2,1.767,6.538,2.58,9.931ZM86.717,394.048c-1.825-3.236-3.347-5.894-4.787-8.362l1.591-1.563c1.448,2.48,2.975,5.148,4.807,8.4Zm45.257-1.924-1.991-.167c.151-3.033.305-6.441.47-10.421l1.992.139c-.165,3.989-.32,7.406-.471,10.449M14.643,385.752l-1.826-1.045q1.643-4.828,3.5-9.469l1.769,1.2q-1.831,4.561-3.446,9.317m247.867,0-1.667-1.422c1.418-2.8,2.882-5.759,4.365-8.753l1.679,1.4c-1.486,3-2.952,5.966-4.376,8.776m-37.569-3.828c-.9-2.941-1.838-6.15-2.855-9.809l1.877-.878c1.01,3.632,1.936,6.815,2.832,9.729ZM343.1,380.309c-1.073-3.242-2.207-6.391-3.372-9.359l1.778-1.175c1.185,3.019,2.338,6.219,3.428,9.513ZM77,377.484c-1.81-2.915-3.5-5.51-5.152-7.933l1.493-1.718c1.677,2.453,3.382,5.079,5.213,8.027Zm55.857-6.25-1.993-.13c.135-3.458.268-6.918.41-10.439l1.993.136c-.143,3.519-.276,6.977-.41,10.434m138.4-3-1.664-1.427c1.667-3.272,3.158-6.1,4.558-8.654l1.625,1.5c-1.386,2.526-2.865,5.332-4.519,8.58M22.047,367.5l-1.682-1.393a82.73,82.73,0,0,1,4.8-8.552l1.524,1.671a80.041,80.041,0,0,0-4.647,8.274m197.376-5.266c-.915-3.479-1.813-6.959-2.57-9.905l1.893-.819c.756,2.942,1.653,6.417,2.566,9.888Zm-153.056-.181a78.238,78.238,0,0,0-5.959-6.763l1.217-2.052a80.464,80.464,0,0,1,6.134,6.96Zm269.489-.111c-1.43-3.027-2.929-5.889-4.455-8.508l1.591-1.562c1.566,2.686,3.1,5.619,4.565,8.717ZM32.29,352.186l-1.21-2.058a22.442,22.442,0,0,1,7.37-5.054l.584,2.475a20.572,20.572,0,0,0-6.744,4.637m248.3-.792-1.55-1.63c1.871-3,3.644-5.573,5.42-7.879l1.411,1.829c-1.727,2.243-3.454,4.755-5.282,7.68m-146.873-1.018-1.992-.154c.173-3.763.344-7.179.524-10.446l1.99.185c-.18,3.256-.351,6.663-.523,10.415m-79.908-.542a20.072,20.072,0,0,0-7.278-3.049l.271-2.565a21.741,21.741,0,0,1,7.9,3.3Zm272.457-4.184a53.4,53.4,0,0,0-5.911-6.7l1.175-2.092a55.638,55.638,0,0,1,6.164,6.982Zm-111.961-3.224c-.992-3.851-1.81-6.991-2.574-9.883l1.887-.839c.765,2.9,1.585,6.043,2.579,9.9Zm77.537-5.319-1.143-2.121a26.471,26.471,0,0,1,7.366-4.9l.616,2.462a24.627,24.627,0,0,0-6.839,4.561m21.769-3.171a20.723,20.723,0,0,0-7.434-2.488l.185-2.577a22.361,22.361,0,0,1,8.024,2.68Zm-178.734-4.367-1.987-.229c.249-3.632.519-7.139.8-10.425l1.983.29c-.283,3.266-.552,6.753-.8,10.365m74.2-6.871c-.964-3.491-1.872-6.683-2.778-9.756l1.864-.924c.91,3.091,1.823,6.3,2.792,9.807Zm-72.384-13.815-1.975-.37c.4-3.624.847-7.109,1.318-10.359l1.961.478c-.466,3.214-.905,6.663-1.3,10.251m66.643-5.606c-1.072-3.346-2.152-6.547-3.212-9.514l1.81-1.088c1.07,3,2.162,6.231,3.244,9.608ZM139.693,288.5l-1.936-.628c.7-3.614,1.463-7.019,2.28-10.119l1.888.837c-.8,3.031-1.55,6.366-2.232,9.91m56.889-4.03c-1.312-3.206-2.653-6.216-3.984-8.946l1.686-1.384c1.358,2.785,2.724,5.853,4.06,9.117Zm-51.66-15.363-1.789-1.146a55.707,55.707,0,0,1,4.318-9.051l1.567,1.6a52.951,52.951,0,0,0-4.1,8.595m43.1-1.978a60.008,60.008,0,0,0-5.348-7.465l1.338-1.92a62.436,62.436,0,0,1,5.57,7.771Zm-33.441-13.325-1.076-2.18a17.408,17.408,0,0,1,7.74-3.793l.3,2.558a15.669,15.669,0,0,0-6.968,3.415m21.8,0a20.741,20.741,0,0,0-7.2-3.3l.35-2.549a22.457,22.457,0,0,1,7.793,3.573Z" transform="translate(0 -184.539)" fill="#ffe79e"/>
        <path id="Trazado_1273974" data-name="Trazado 1273974" d="M56.614,1617.97s-2.5,6.217,7.859,7.773c14.169,2.129,97.342,7.722,77.136,11.973-11.406,2.4,5.823,5.657,61.378,6.857s150.885-3.5,118.827-10.456,98.554-1.68,90.6-16.147Z" transform="translate(-41.958 -1204.76)" fill="#ffd453"/>
        <path id="Trazado_1273975" data-name="Trazado 1273975" d="M508.461,656.242c-2.5,7.445-15.234,12.534-20.665,14.4-3.253,37.332-17.069,66.086-41.509,73.827a93.581,93.581,0,0,1-25.267,4.088l3.961,31.906,3.33,26.82H305.719L311.842,699.2a145.686,145.686,0,0,1-31.034-59.144c-10.749-40.7-1.989-76.554,15.853-102.371v0c.452-.652,8.041-2.277,19.34-3.945,15.678-2.309,38.506-4.7,59.349-4.7,35,0,78.652,6.924,79.974,8.65,13.712,17.885,23.458,40.57,28.4,66.329q.65,3.4,1.213,6.791c4.019,6.61,16.409,27.084,22.721,38.442a8.382,8.382,0,0,1,.806,7" transform="translate(-205.602 -393.923)" fill="#69d7e5"/>
        <path id="Trazado_1273976" data-name="Trazado 1273976" d="M665.123,1355.846s-44.9-18.833-66.5-54.085c.471.34,30.792,22.163,62.536,22.179Z" transform="translate(-445.745 -969.307)" fill="#06acc2"/>
        <path id="Trazado_1273977" data-name="Trazado 1273977" d="M1104.54,1026.021c-2.5,7.445-15.234,12.533-20.665,14.4-6.919.442-7.233-4.147-7.233-4.147,15.734-1.8,27.8-10.635,27.8-10.635Z" transform="translate(-801.681 -763.702)" fill="#06acc2"/>
        <path id="Trazado_1273978" data-name="Trazado 1273978" d="M365.4,820.946l-.106.048h-59.58l6.123-108.085a145.682,145.682,0,0,1-31.034-59.144c-10.749-40.7-1.99-76.554,15.853-102.371v0c.452-.652,8.041-2.277,19.341-3.945l45.331,19.583s-9.589,29.137-10.3,61.98c0,0-13.529-18.787-29.077-4.454-13.316,12.275-8.012,62.237,29.077,60.4,0,0-12.087,14.119-13.529,39.814s13.228,72.12,27.9,96.176" transform="translate(-205.602 -407.634)" fill="#06acc2"/>
        <path id="Trazado_1273979" data-name="Trazado 1273979" d="M515.218,531.572c1.026,8.725-35.518,15.908-79.332,15.908s-79.332-7.122-79.332-15.908v0c2.273-5.263,43.463-10.745,79.332-10.745,35.006,0,78.675,5.159,79.332,10.747" transform="translate(-265.494 -387.812)" fill="#1e535a"/>
        <path id="Trazado_1273980" data-name="Trazado 1273980" d="M830.309,874.315c-2.083-.164-19.468-.335-17.638-5.658a2.659,2.659,0,0,1,3.3-1.811c28.348,8.146,34.674-8.261,39.9-4.586,2.659,3.581-2.76,6.353-11.034,9.727a44.7,44.7,0,0,1-14.525,2.328" transform="translate(-605.025 -641.643)" fill="#06acc2"/>
        <path id="Trazado_1273981" data-name="Trazado 1273981" d="M596.423,40.537V27.312h-7.592a26.756,26.756,0,0,0-2.682-6.661l5.425-5.425-9.351-9.351L577,11.1a26.8,26.8,0,0,0-7.678-3.291V0H556.1V7.805a26.779,26.779,0,0,0-7.174,2.981l-4.912-4.912-9.351,9.351,4.912,4.912a26.793,26.793,0,0,0-2.982,7.174H529V40.537h7.592a26.8,26.8,0,0,0,3.291,7.678l-5.221,5.221,9.351,9.351,5.425-5.425a26.773,26.773,0,0,0,6.661,2.682v7.809h13.224V60.044a26.788,26.788,0,0,0,7.174-2.982l5.725,5.725,9.351-9.351-5.725-5.725a26.782,26.782,0,0,0,2.981-7.175ZM563.5,45.981c-15.793.939-17.313-22.993-1.578-24.113,15.792-.939,17.312,22.993,1.578,24.113" transform="translate(-393.9 0.004)" fill="#344866"/>
        <path id="Trazado_1273982" data-name="Trazado 1273982" d="M407.712,274.378v-5.861h-5.18a34.148,34.148,0,0,0-3.117-11.655l4.48-2.587-2.931-5.076-4.485,2.589a34.558,34.558,0,0,0-8.53-8.53l2.589-4.485-5.076-2.931-2.587,4.481a34.148,34.148,0,0,0-11.655-3.117v-5.18h-5.861v5.18a34.148,34.148,0,0,0-11.655,3.117l-2.587-4.481-5.076,2.931,2.589,4.485a34.558,34.558,0,0,0-8.53,8.53l-4.485-2.589-2.931,5.076,4.48,2.587a34.148,34.148,0,0,0-3.117,11.655h-5.18v5.861h5.18a34.148,34.148,0,0,0,3.117,11.655l-4.48,2.587,2.931,5.076,4.485-2.589a34.558,34.558,0,0,0,8.53,8.53l-2.589,4.485,5.076,2.931,2.587-4.48a34.148,34.148,0,0,0,11.655,3.117v5.18h5.861v-5.18a34.148,34.148,0,0,0,11.655-3.117l2.587,4.48,5.076-2.931-2.589-4.485a34.558,34.558,0,0,0,8.53-8.53l4.485,2.589,2.931-5.076-4.48-2.587a34.149,34.149,0,0,0,3.117-11.655Zm-39.42,19.411c-29.368-.5-29.363-44.186,0-44.683,29.367.5,29.362,44.186,0,44.683" transform="translate(-244.882 -172.769)" fill="#6cb9ff"/>
        <path id="Trazado_1273983" data-name="Trazado 1273983" d="M742.949,284.01l-1.111-13.057-10,.851a36.674,36.674,0,0,0-2.085-5.8l8.226-5.731-7.491-10.752-8.237,5.739a37.162,37.162,0,0,0-4.71-3.972L721.8,242.2l-11.863-5.566-4.259,9.076a36.676,36.676,0,0,0-6.071-1.074l-.851-10L685.7,235.743l.851,10a36.683,36.683,0,0,0-5.8,2.085L675.02,239.6l-10.752,7.491,5.739,8.237a37.213,37.213,0,0,0-3.972,4.711l-9.088-4.264-5.566,11.864,9.076,4.258a36.683,36.683,0,0,0-1.074,6.071l-10,.851,1.111,13.057,10-.851a36.663,36.663,0,0,0,2.085,5.8l-8.226,5.731,7.491,10.752,8.237-5.739a37.164,37.164,0,0,0,4.71,3.972l-4.264,9.088,11.864,5.566,4.259-9.076a36.678,36.678,0,0,0,6.071,1.074l.851,10,13.057-1.111-.851-10a36.684,36.684,0,0,0,5.8-2.085l5.731,8.226,10.752-7.491-5.739-8.237a37.159,37.159,0,0,0,3.971-4.711l9.088,4.264,5.566-11.863-9.076-4.259a36.676,36.676,0,0,0,1.074-6.071Zm-45.217,15.814c-24.233,1.646-27.292-34.347-3.133-36.816,24.232-1.646,27.291,34.347,3.133,36.816" transform="translate(-483.538 -174.709)" fill="#4896dc"/>
        <path id="Trazado_1273984" data-name="Trazado 1273984" d="M1285.031,1174.6c-.05-.376-.081-.783-.1-1.207a36.952,36.952,0,0,1,.484-6.634c.054-.308.094-.476.109-.455q.026-.108.062-.212a2.315,2.315,0,0,1,1.47-1.548h0a2.785,2.785,0,0,1,2.816.675c.015.015.028.031.041.046a2.3,2.3,0,0,1,.577,1.959c-.006.037-.01.075-.018.112s-.019.1-.031.152a28.45,28.45,0,0,0-.451,5.442,10.159,10.159,0,0,0,.125,1.861c4.762,1.428-9.56,6.125-5.088-.19" transform="translate(-956.197 -867.034)" fill="#f99370"/>
        <path id="Trazado_1273985" data-name="Trazado 1273985" d="M1219.934,1198.694c-3.411,4.442-4.977,9.594-8.449,13.8-.24.21.179.082.313.153-.066.009-.139.02-.2.027-.112.034-.36-.015-.266.125.105.1.156.435-.049.148-1.221-4.6,1.315-9.763,2.506-14.249a7.978,7.978,0,0,1,.532-2.681,1.859,1.859,0,0,0-1.243-2.505,18.893,18.893,0,0,0-3.817,3.687c-4.63,6.338-10.763,20.34.483,23.708,9.512,2.147,13.87-10.333,18.372-16.327,3.65-5.335-4.3-11.034-8.184-5.882" transform="translate(-896.047 -888.7)" fill="#f99370"/>
        <path id="Trazado_1273986" data-name="Trazado 1273986" d="M1198.4,1224.044a7.427,7.427,0,0,0,7.822,7.344h.019c3.26-.009,5.668-2.329,7.481-5.621,3.421-6.209,4.722-15.884,5.6-20.057-3.819.419-9.023,6.125-10.638,10.822.444-2.018,1.078-5.051,1.329-7.223a13.922,13.922,0,0,0,.109-1.551,5.065,5.065,0,0,1-4.24-1.905c-.063.078-.39.446-.872,1.067-1.985,2.545-6.619,9.294-6.615,17.125" transform="translate(-892.346 -897.786)" fill="#1d3f70"/>
        <path id="Trazado_1273987" data-name="Trazado 1273987" d="M1273.273,1146.166a13.559,13.559,0,0,1,.359-4.545l1.588.566Z" transform="translate(-948.056 -850.065)" fill="#8e4a35"/>
        <path id="Trazado_1273988" data-name="Trazado 1273988" d="M1270.093,1146.717c2.605,2.021,7.765,1.792,9.323-.346,5.814-7.974-5.6-21.911-9.372-9.282-1.365,3.639-4.243,5.711.049,9.627" transform="translate(-944.041 -842.909)" fill="#f99370"/>
        <path id="Trazado_1273989" data-name="Trazado 1273989" d="M1287.628,1159.593a.339.339,0,1,1,.47.1.338.338,0,0,1-.47-.1" transform="translate(-958.742 -863.056)" fill="#c16256"/>
        <path id="Trazado_1273990" data-name="Trazado 1273990" d="M1276.331,1159a.339.339,0,1,1,.47.1.339.339,0,0,1-.47-.1" transform="translate(-950.33 -862.617)" fill="#c16256"/>
        <path id="Trazado_1273991" data-name="Trazado 1273991" d="M1278.453,1163.418a1.379,1.379,0,0,0,.564-.107.128.128,0,1,0-.105-.233,1.151,1.151,0,0,1-1.146-.143c-.037-.065.047-.143.124-.2a3.949,3.949,0,0,0,1.018-1.957.128.128,0,0,0-.1-.153.13.13,0,0,0-.153.1,3.8,3.8,0,0,1-.916,1.8c-.325.228-.248.449-.2.533a1.1,1.1,0,0,0,.91.356" transform="translate(-951.242 -864.216)" fill="#c16256"/>
        <path id="Trazado_1273992" data-name="Trazado 1273992" d="M1277.746,1135.069c1.749-1.18,5.081-.6,6.728-.805a5.4,5.4,0,0,0,3,4.482c.529,2.531,1.077,3.6-1.193,7.02h0a5.119,5.119,0,0,0,.516-.469h0c7.178-9.07-4.665-21.528-9.058-10.228" transform="translate(-951.426 -841.835)" fill="#e57d61"/>
        <path id="Trazado_1273993" data-name="Trazado 1273993" d="M1268.982,1119.963c.812-2.187,3.792-3.666,6.767-1.417,2.29,1.732,4.52,1.462,4.71,3.54,4.359,1.41,2.823,6.213,2.823,6.213l-2.105-.009a6.415,6.415,0,0,1-2.842-4.484h0a5.487,5.487,0,0,1-1.594.058,10.151,10.151,0,0,0-5.509.685c-1.652.832-3.158-2.141-2.25-4.586" transform="translate(-944.696 -832.048)" fill="#8e4a35"/>
        <path id="Trazado_1273994" data-name="Trazado 1273994" d="M1267.8,1160.49a5.636,5.636,0,0,0,.094.84c.4,2.172,2.041,4.9,4.864,4.789a4.436,4.436,0,0,0,.664-.077,14.509,14.509,0,0,0,4.4-1.057c2.121-.934,3.87-2.609,3.49-5.563h0a.04.04,0,0,0,0-.007l-.3-1.277h0l0-.011-.033-.14h0l-.479-2.05-1.527-1.385h0c.014.275.195.854.342,1.57.294,1.433.451,3.412-1.142,4.592l-.039.025c-1.365.876-3.1-.127-4.956-.934-1.732-.751-3.573-1.332-5.331-.066-.008.048-.016.1-.022.146h0a3.876,3.876,0,0,0-.023.6m6.686,1.678a13.8,13.8,0,0,1-1.61.188c-1.547.082-3.187-.161-3.892-1.371.262-2.147,2.526-1.426,4.074-.337a3.871,3.871,0,0,1,1.427,1.52" transform="translate(-944.015 -859.691)" fill="#8e4a35"/>
        <path id="Trazado_1273995" data-name="Trazado 1273995" d="M1318.358,1160.21a1.638,1.638,0,1,1-1.407-2.129,1.826,1.826,0,0,1,1.407,2.129" transform="translate(-979.286 -862.317)" fill="#f99370"/>
        <path id="Trazado_1273996" data-name="Trazado 1273996" d="M1318.758,1161.221c.032-.017.785-.409,1.274-.052a.823.823,0,0,1,.278.392l0,0a2.665,2.665,0,0,1,.016,1.348.129.129,0,0,1-.127.1l-.023,0a.128.128,0,0,1-.1-.149,2.828,2.828,0,0,0,.034-1.079,1.751,1.751,0,0,0-.995,1.1.128.128,0,0,1-.123.092.134.134,0,0,1-.036-.005.128.128,0,0,1-.087-.159,1.98,1.98,0,0,1,1.153-1.266.523.523,0,0,0-.141-.169c-.358-.264-1,.068-1,.071a.128.128,0,0,1-.12-.226" transform="translate(-981.913 -864.509)" fill="#c16256"/>
        <path id="Trazado_1273997" data-name="Trazado 1273997" d="M1341.544,1302.583h.834c-.023-.153-.035-.232-.035-.232l-.1.031q-.3.09-.607.176l-.09.025" transform="translate(-998.931 -969.746)" fill="#e8c0a6"/>
        <path id="Trazado_1273998" data-name="Trazado 1273998" d="M1277.483,1176.512a.112.112,0,0,0,.045-.009.114.114,0,0,0,.06-.149,1.5,1.5,0,0,0-1.273-.8.114.114,0,0,0-.021.228,1.273,1.273,0,0,1,1.083.667.115.115,0,0,0,.105.069" transform="translate(-950.268 -875.328)" fill="#c16256"/>
        <path id="Trazado_1273999" data-name="Trazado 1273999" d="M1227.723,1185.008l4.24,1.906c.031-.017-.054-1.909,1.125-2.238a5.637,5.637,0,0,0,2.546-1.969c.405,1.041,2.383-.939,1.71-1.309.452-.417.148-.89-.417-1.164.378-.366-.026-.8-.569-.976a10.235,10.235,0,0,1,1.924-.746c1-.31.34-.885-.253-.782-4.843.846-6.957,2.784-10.3,7.279" transform="translate(-914.178 -876.942)" fill="#f99370"/>
        <path id="Trazado_1274000" data-name="Trazado 1274000" d="M1275.942,1151.894a.113.113,0,0,0,.026,0,2.249,2.249,0,0,0,1.548-1.2.114.114,0,0,0-.21-.09,2.058,2.058,0,0,1-1.389,1.066.114.114,0,0,0,.026.225" transform="translate(-949.997 -856.701)" fill="#c16256"/>
        <path id="Trazado_1274001" data-name="Trazado 1274001" d="M1287.943,1153.905a.114.114,0,0,0,.1-.176,2.436,2.436,0,0,0-1.717-.979.114.114,0,0,0-.028.227,2.251,2.251,0,0,1,1.553.876.114.114,0,0,0,.1.052" transform="translate(-957.716 -858.351)" fill="#c16256"/>
        <path id="Trazado_1274002" data-name="Trazado 1274002" d="M1229.107,1260.02c3.259-.009,5.667-2.329,7.481-5.622l-.541-10.237a102.457,102.457,0,0,0-4.945,12.247,9.509,9.509,0,0,1-2,3.611" transform="translate(-915.209 -926.417)" fill="#163356"/>
        <path id="Trazado_1274003" data-name="Trazado 1274003" d="M1324.568,1586.047l.2-.107c0,.143.177.64.32.64l6.045.124c.143,0,.231-.27.231-.412l.516-.148a3.1,3.1,0,0,0-.474-1.934c-1.471-1.942.286-10.7.234-12.972.363-.624-6.366-.134-6.46-.282a.259.259,0,0,0-.258.28l.792,9.982c.286,2.344-1.144,2.987-1.15,4.828" transform="translate(-986.29 -1169.72)" fill="#f99370"/>
        <path id="Trazado_1274004" data-name="Trazado 1274004" d="M1219.16,1587.048H1231.2c1.051-.042,1.043-1.115.849-1.946-.663-3,.509-9.878.726-12.96a.957.957,0,0,0-.952-1.055h-5.314a.958.958,0,0,0-.95,1.077l.967,7.707c.371,3.567-3.318,3.865-5.745,4.357a4,4,0,0,0-2.412,1.322.958.958,0,0,0,.791,1.5" transform="translate(-907.088 -1169.851)" fill="#f99370"/>
        <path id="Trazado_1274005" data-name="Trazado 1274005" d="M1231.916,1617.744c-.032.591-.325,1.264-1.009,1.25h-12.491c-3.115-.955,1.444-5.316,7.069-4.986a15.36,15.36,0,0,0,5.015.117c1.4-.144,1.467,2.4,1.416,3.62" transform="translate(-906.495 -1201.796)" fill="#103663"/>
        <path id="Trazado_1274006" data-name="Trazado 1274006" d="M1330.348,1619.044h-5.339c-2.579-.293-.771-4.952,2.669-4.986,3.459-.034,5.246,4.7,2.67,4.986" transform="translate(-985.711 -1201.848)" fill="#103663"/>
        <path id="Trazado_1274007" data-name="Trazado 1274007" d="M1227.8,1620.425a.266.266,0,0,1-.247-.166,2.826,2.826,0,0,0-1.381-1.561.265.265,0,0,1,.194-.494,3.334,3.334,0,0,1,1.679,1.856.267.267,0,0,1-.246.365" transform="translate(-912.905 -1204.918)" fill="#e8c0a6"/>
        <path id="Trazado_1274008" data-name="Trazado 1274008" d="M1235.2,1618.108a.265.265,0,0,1-.253-.187,3.671,3.671,0,0,0-1.631-2.012.266.266,0,0,1,.245-.471,4.178,4.178,0,0,1,1.893,2.326.267.267,0,0,1-.254.344" transform="translate(-918.237 -1202.849)" fill="#e8c0a6"/>
        <path id="Trazado_1274009" data-name="Trazado 1274009" d="M1244.4,1616.473a.266.266,0,0,1-.25-.178,4.786,4.786,0,0,0-1.652-2.208.266.266,0,0,1,.293-.443,5.24,5.24,0,0,1,1.86,2.476.267.267,0,0,1-.251.353" transform="translate(-925.094 -1201.504)" fill="#e8c0a6"/>
        <path id="Trazado_1274010" data-name="Trazado 1274010" d="M1334.461,1617.435c-2.034-1.145-3.832.358-4.118-.156-.238-.537,2.415-1.343,4.252-.339a.267.267,0,0,1-.134.495" transform="translate(-990.579 -1203.637)" fill="#e8c0a6"/>
        <path id="Trazado_1274011" data-name="Trazado 1274011" d="M1217.77,1628.69h14.374a3.287,3.287,0,0,1-.394,1.25h-13.106a.928.928,0,0,1-.874-1.25" transform="translate(-906.723 -1212.742)" fill="#0f2e54"/>
        <path id="Trazado_1274012" data-name="Trazado 1274012" d="M1330.444,1629.939h-5.339a1.183,1.183,0,0,1-1.184-1.249h7.706a1.183,1.183,0,0,1-1.184,1.249" transform="translate(-985.807 -1212.742)" fill="#0f2e54"/>
        <path id="Trazado_1274013" data-name="Trazado 1274013" d="M1268.071,1376.77s-5.694,1.383-8.627-.1c-1.527-9.575-5.765-36.234-7.241-54.5-.056,1.065-3.158,44.026-3.748,54.5-2.025.678-6.1,1.5-8.377-.146-1.023-11.028-4.311-47.336.641-76.99,0,0,13.569,1.509,24.165-1.693,2.917,9.406,3.69,67.644,3.187,78.932" transform="translate(-921.875 -966.386)" fill="#3a72aa"/>
        <path id="Trazado_1274014" data-name="Trazado 1274014" d="M1251.378,1429.51c-2.754-31.865.5-58.977,1.319-59.279.6.137-2.806,27.705-1.319,59.279" transform="translate(-930.983 -1020.29)" fill="#23659b"/>
        <path id="Trazado_1274015" data-name="Trazado 1274015" d="M1320.035,1417.108c-1.9-32.652-6.692-63.1-6.126-63.533.728-.044,5.591,31.092,6.126,63.533" transform="translate(-978.319 -1007.888)" fill="#23659b"/>
        <path id="Trazado_1274016" data-name="Trazado 1274016" d="M1317.661,1242.185q-.727.884-1.549,1.773a5.1,5.1,0,0,1-4.754-2.276c8.508-18.4-7.9-19.406-4.638-35.78,10.982,1.3,26.26,17.687,10.941,36.283" transform="translate(-972.677 -897.929)" fill="#1d3f70"/>
        <path id="Trazado_1274017" data-name="Trazado 1274017" d="M1332.452,1340.238q-.727.884-1.548,1.773a5.1,5.1,0,0,1-4.754-2.276c.249-.886.621-1.409.881-2.149a9.969,9.969,0,0,0,5.421,2.652" transform="translate(-987.468 -995.983)" fill="#163356"/>
        <path id="Trazado_1274018" data-name="Trazado 1274018" d="M1329.056,1345.812c-4.585.278-6.85-4.562-5-3.429.047.122,1.17,2.908,5.4,2.724.667.132.391.85-.4.705" transform="translate(-985.428 -999.427)" fill="#23659b"/>
        <path id="Trazado_1274019" data-name="Trazado 1274019" d="M1240.749,1338.991s.829,3.555,7.461,5.309c1.9.5,3,.254,3.276-1.063a3.811,3.811,0,0,1,1.165-2.239,5.285,5.285,0,0,1,2.044,1.55c1.228,1.993,3.077.182,3.978-1.9,1.114-2.581,3.935-4.767,4.553-6.932Z" transform="translate(-923.878 -993.099)" fill="#f4d4be"/>
        <path id="Trazado_1274020" data-name="Trazado 1274020" d="M1264.923,1238.248c-.216.382-.345.321-.566.1-5.96-4.449-8.091,5.273-14.511,5.447-6.535.647-10.17,1.016-11.95-1.153-3.108-4.817,1.835-26.348,5.833-31.562a33.881,33.881,0,0,1,6.13-6.761c-.034.142-.646,3.858,5.088.19.288.122,2.228,2.109,2.114,3.058.291,4.359,10.634,25.784,7.863,30.681" transform="translate(-921.025 -896.75)" fill="#1d3f70"/>
        <path id="Trazado_1274021" data-name="Trazado 1274021" d="M1317.109,1273.656l-1.306-.271c5.223-11.757-.92-16.728-4.169-23.352,7.535,8.719,8.674,13.5,5.475,23.623" transform="translate(-976.659 -930.789)" fill="#163356"/>
        <path id="Trazado_1274022" data-name="Trazado 1274022" d="M1286.879,1205.038c.031,2.188-5.58,4.118-5.9,4.122l-.673-1.991c-.863.213-1.624,1.422-1.624,1.422-2.329-2.272-1.212-3.638-.628-3.917a5.731,5.731,0,0,1,1.849-.355c-.034.141-.125,3.513,5.088.19.672-.311,1.886.529,1.886.529" transform="translate(-951.072 -896.751)" fill="#f4d4be"/>
        <path id="Trazado_1274023" data-name="Trazado 1274023" d="M1273.639,1447.6a13.381,13.381,0,0,1-1.758.468s2.861-42.634,3.287-48.323,2.219-6.647,2.219-6.647-3.8,53.581-3.748,54.5" transform="translate(-947.059 -1037.315)" fill="#23659b"/>
        <path id="Trazado_1274024" data-name="Trazado 1274024" d="M1253.9,1598.41c-.077,1.23-.118,1.965-.113,2.067-2.025.678-6.1,1.5-8.376-.146,0,0-.073-.676-.191-1.921a11.91,11.91,0,0,0,8.68,0" transform="translate(-927.206 -1190.196)" fill="#23659b"/>
        <path id="Trazado_1274025" data-name="Trazado 1274025" d="M1329.45,1600.58s-5.694,1.383-8.627-.1c0,0-.121-.741-.333-2.067a20.278,20.278,0,0,0,9.029,0c.022,1.292-.087,2.063-.069,2.17" transform="translate(-983.254 -1190.196)" fill="#23659b"/>
        <path id="Trazado_1274026" data-name="Trazado 1274026" d="M1224.306,1207.336c.023.031.046.063.071.094a6.432,6.432,0,0,0,4.932,2.3,13.944,13.944,0,0,0,.109-1.551,5.066,5.066,0,0,1-4.24-1.905c-.062.077-.39.446-.872,1.067" transform="translate(-911.634 -898.202)" fill="#163356"/>
        <path id="Trazado_1274027" data-name="Trazado 1274027" d="M324.042,803.9c2.6-11.556,6.816-24.023,16.469-31.569a1.437,1.437,0,0,1,1.942,2.077,22.956,22.956,0,0,0-2.291,3.272,37.681,37.681,0,0,0-3.962,11.2,67.463,67.463,0,0,0-1.247,15.794c1.013,9.274-13.012,8.373-10.911-.779" transform="translate(-241.126 -574.873)" fill="#f99370"/>
        <path id="Trazado_1274028" data-name="Trazado 1274028" d="M389.942,758.782a9.838,9.838,0,0,0-4.112,4.392l2.266,1.893a7.131,7.131,0,0,0,3.032-2.187c1.2-2.154-1.186-4.1-1.186-4.1" transform="translate(-287.294 -564.998)" fill="#f99370"/>
        <path id="Trazado_1274029" data-name="Trazado 1274029" d="M459.3,781.319a8.333,8.333,0,0,1,.665,5.684l-3.066.411a7.133,7.133,0,0,1-1.051-3.588c.376-2.436,3.452-2.507,3.452-2.507" transform="translate(-339.415 -581.779)" fill="#f99370"/>
        <path id="Trazado_1274030" data-name="Trazado 1274030" d="M422.78,640.194a19.353,19.353,0,1,0-35.326,3.637l-.161,7.817a6.367,6.367,0,0,0,4.446,6.2l9.373,2.966a6.368,6.368,0,0,0,7.2-2.516l4.365-6.487a19.3,19.3,0,0,0,10.1-11.619" transform="translate(-286.654 -457.934)" fill="#ffd453"/>
        <path id="Trazado_1274031" data-name="Trazado 1274031" d="M412.882,791.413l-10.82-3.423a1.212,1.212,0,0,1,.731-2.312l10.821,3.423a1.212,1.212,0,1,1-.731,2.312" transform="translate(-298.749 -584.983)" fill="#ffbf00"/>
        <path id="Trazado_1274032" data-name="Trazado 1274032" d="M408.721,804.562l-10.82-3.423a1.212,1.212,0,0,1,.731-2.312l10.821,3.423a1.212,1.212,0,0,1-.731,2.312" transform="translate(-295.651 -594.774)" fill="#ffbf00"/>
        <path id="Trazado_1274033" data-name="Trazado 1274033" d="M404.561,817.711l-10.82-3.423a1.212,1.212,0,0,1,.731-2.312l10.821,3.423a1.212,1.212,0,1,1-.731,2.312" transform="translate(-292.554 -604.565)" fill="#ffbf00"/>
        <path id="Trazado_1274034" data-name="Trazado 1274034" d="M403.7,830.9l-6.716-2.125A1.508,1.508,0,0,1,396,826.88l.292-.923,9.591,3.034-.292.923a1.508,1.508,0,0,1-1.892.983" transform="translate(-294.815 -615.017)" fill="#ffbf00"/>
        <path id="Trazado_1274035" data-name="Trazado 1274035" d="M417.175,682.845a1.212,1.212,0,0,1-.193-2.232l10.072-5.231a1.212,1.212,0,1,1,1.118,2.152L418.1,682.765a1.21,1.21,0,0,1-.924.08" transform="translate(-310.003 -502.796)" fill="#ffbf00"/>
        <path id="Trazado_1274036" data-name="Trazado 1274036" d="M435.494,688.641a1.212,1.212,0,0,1-.193-2.232l10.072-5.231a1.212,1.212,0,1,1,1.118,2.152l-10.072,5.231a1.21,1.21,0,0,1-.924.08" transform="translate(-323.644 -507.111)" fill="#ffbf00"/>
        <path id="Trazado_1274037" data-name="Trazado 1274037" d="M453.814,694.437a1.212,1.212,0,0,1-.193-2.232l10.072-5.231a1.212,1.212,0,1,1,1.118,2.152l-10.072,5.231a1.21,1.21,0,0,1-.924.08" transform="translate(-337.285 -511.427)" fill="#ffbf00"/>
        <path id="Trazado_1274038" data-name="Trazado 1274038" d="M396.969,582.012a1.21,1.21,0,0,1-.71-.6l-4.137-7.966a1.212,1.212,0,0,1,2.152-1.118l4.137,7.966a1.212,1.212,0,0,1-1.441,1.715" transform="translate(-291.877 -425.678)" fill="#ffbf00"/>
        <path id="Trazado_1274039" data-name="Trazado 1274039" d="M334.831,655.918l-8.558-2.708A1.212,1.212,0,1,1,327,650.9l8.558,2.707a1.212,1.212,0,0,1-.731,2.312" transform="translate(-242.316 -484.624)" fill="#ffbf00"/>
        <path id="Trazado_1274040" data-name="Trazado 1274040" d="M335.186,744.189a1.212,1.212,0,0,1-.193-2.232l7.966-4.137a1.212,1.212,0,0,1,1.118,2.152l-7.966,4.137a1.21,1.21,0,0,1-.925.08" transform="translate(-248.953 -549.288)" fill="#ffbf00"/>
        <path id="Trazado_1274041" data-name="Trazado 1274041" d="M505.329,790.671a1.208,1.208,0,0,1-.71-.6l-4.137-7.966a1.212,1.212,0,1,1,2.152-1.117l4.137,7.966a1.212,1.212,0,0,1-1.442,1.714" transform="translate(-372.563 -581.048)" fill="#ffbf00"/>
        <path id="Trazado_1274042" data-name="Trazado 1274042" d="M559,726.84l-8.558-2.708a1.212,1.212,0,1,1,.731-2.312l8.558,2.707A1.212,1.212,0,0,1,559,726.84" transform="translate(-409.234 -537.433)" fill="#ffbf00"/>
        <path id="Trazado_1274043" data-name="Trazado 1274043" d="M543.845,635.829a1.212,1.212,0,0,1-.193-2.232l7.966-4.137a1.212,1.212,0,1,1,1.118,2.152l-7.966,4.137a1.209,1.209,0,0,1-.924.08" transform="translate(-404.323 -468.602)" fill="#ffbf00"/>
        <path id="Trazado_1274044" data-name="Trazado 1274044" d="M485.272,573.692a1.212,1.212,0,0,1-.79-1.522l2.708-8.558a1.212,1.212,0,1,1,2.312.731l-2.707,8.558a1.213,1.213,0,0,1-1.522.79" transform="translate(-360.709 -419.041)" fill="#ffbf00"/>
        <path id="Trazado_1274045" data-name="Trazado 1274045" d="M430.037,740.168a1.212,1.212,0,0,1-.79-1.522l3.587-11.338a1.212,1.212,0,0,1,2.312.731l-3.587,11.339a1.212,1.212,0,0,1-1.522.79" transform="translate(-319.58 -540.931)" fill="#ffbf00"/>
        <path id="Trazado_1274046" data-name="Trazado 1274046" d="M348.1,1313.9c-12.262-36.542-25.83-76.979-38.054-113.406-.757-2.38-4.766-1.232-3.921,1.163l3.3,9.82H285.529l-3.685-10.982c-.755-2.37-4.767-1.24-3.921,1.163,12.212,36.4,25.778,76.822,38.054,113.407.768,2.377,4.764,1.231,3.921-1.163l-3.7-11.025h23.893l4.09,12.187a2.048,2.048,0,0,0,1.96,1.351,1.965,1.965,0,0,0,1.961-2.514m-43.976-47h23.893l4.47,13.322H308.595Zm16.83-21.049H297.062l-4.47-13.322h23.893Zm1.3,3.863,4.47,13.322H302.828l-4.47-13.322Zm-11.533-34.37,4.47,13.321H291.3l-4.47-13.321Zm4.7,83.672a2.165,2.165,0,0,0-.5.061l-5.03-14.991h23.893l5.01,14.931Z" transform="translate(-206.858 -892.927)" fill="#143256"/>
        <path id="Trazado_1274047" data-name="Trazado 1274047" d="M304.941,1206.14l-11.661-.1c.163-4.038.8-10.013,1.421-14.158l5.939.237-2.247,8.353a1.948,1.948,0,0,0,1.258,2.249c2.155.866,4.8.419,6.017,2.331a.779.779,0,0,1-.727,1.093" transform="translate(-218.38 -887.486)" fill="#f99370"/>
        <path id="Trazado_1274048" data-name="Trazado 1274048" d="M291.87,1233.258a3.4,3.4,0,0,0,.3,1.221h11.706a.829.829,0,0,0,.8-1.087c-.432-1.255-1.953-3.084-7.328-3.413a11.368,11.368,0,0,1-4.838-.044,7.207,7.207,0,0,0-.642,3.322" transform="translate(-217.311 -915.825)" fill="#eb5648"/>
        <path id="Trazado_1274049" data-name="Trazado 1274049" d="M327.968,1236.012a.237.237,0,0,0,.218-.146,2.5,2.5,0,0,1,1.243-1.38c.617-.942-1.147-.284-1.68,1.2a.238.238,0,0,0,.218.327" transform="translate(-244.033 -918.888)" fill="#e8c0a6"/>
        <path id="Trazado_1274050" data-name="Trazado 1274050" d="M320.784,1233.883a.237.237,0,0,0,.225-.164,3.269,3.269,0,0,1,1.469-1.778c.513-1.095-1.469.058-1.919,1.635a.237.237,0,0,0,.225.308" transform="translate(-238.683 -916.996)" fill="#e8c0a6"/>
        <path id="Trazado_1274051" data-name="Trazado 1274051" d="M312.608,1232.339a.237.237,0,0,0,.222-.157,4.261,4.261,0,0,1,1.489-1.953c.381-1.144-1.406.223-1.933,1.793a.237.237,0,0,0,.222.316" transform="translate(-232.596 -915.729)" fill="#e8c0a6"/>
        <path id="Trazado_1274052" data-name="Trazado 1274052" d="M304.746,1243.06l-12.8-.115a2.931,2.931,0,0,0,.341,1.116l11.667.1a.829.829,0,0,0,.793-1.106" transform="translate(-217.386 -925.512)" fill="#ce3932"/>
        <path id="Trazado_1274053" data-name="Trazado 1274053" d="M376.4,832.109c17.248-3.711,27.051-14.7,19.9-32.362-1.082-2.1-3.377-1.549-3.037.693,2.235,14.724-4.531,19.794-17.879,20.375,0,0-.033,0,.008-.007-7.389.7-6.378,11.93,1.012,11.3" transform="translate(-275.753 -594.523)" fill="#f99370"/>
        <path id="Trazado_1274054" data-name="Trazado 1274054" d="M356.872,1204.756l-11.491.015c-.426-2.841,2.081-12.115,2.78-14.732l6.238,1.3-3.147,7.526s-1.455,1.982.466,2.519c2.131.725,4.41.469,5.859,1.969a.878.878,0,0,1-.7,1.4" transform="translate(-257.139 -886.117)" fill="#f99370"/>
        <path id="Trazado_1274055" data-name="Trazado 1274055" d="M344.051,1233.646a2.928,2.928,0,0,0,.352,1.112l11.667-.016a.829.829,0,0,0,.788-1.095c-.445-1.25-1.985-3.063-7.363-3.337a11.366,11.366,0,0,1-4.838.006,7.207,7.207,0,0,0-.607,3.329" transform="translate(-256.162 -916.104)" fill="#eb5648"/>
        <path id="Trazado_1274056" data-name="Trazado 1274056" d="M380.14,1236.016a.237.237,0,0,0,.219-.148,2.5,2.5,0,0,1,1.229-1.392c.607-.949-1.15-.272-1.668,1.215a.238.238,0,0,0,.219.325" transform="translate(-282.881 -918.879)" fill="#e8c0a6"/>
        <path id="Trazado_1274057" data-name="Trazado 1274057" d="M372.946,1233.954a.237.237,0,0,0,.226-.167,3.294,3.294,0,0,1,1.451-1.794c.5-1.1-1.468.074-1.9,1.655a.237.237,0,0,0,.226.306" transform="translate(-277.524 -917.036)" fill="#e8c0a6"/>
        <path id="Trazado_1274058" data-name="Trazado 1274058" d="M364.76,1232.455a.237.237,0,0,0,.223-.159,4.263,4.263,0,0,1,1.468-1.968.237.237,0,0,0-.262-.394,4.673,4.673,0,0,0-1.654,2.207.238.238,0,0,0,.223.314" transform="translate(-271.428 -915.792)" fill="#e8c0a6"/>
        <path id="Trazado_1274059" data-name="Trazado 1274059" d="M356.942,1243.3l-12.8.017a2.928,2.928,0,0,0,.352,1.112l11.667-.016a.829.829,0,0,0,.781-1.114" transform="translate(-256.252 -925.779)" fill="#ce3932"/>
        <path id="Trazado_1274060" data-name="Trazado 1274060" d="M323.251,911.492l-24.53-3.734c5.3-37.562,23.048-38.946,25.928-17.717.852,5.389-.6,18.316-1.4,21.451" transform="translate(-222.431 -652.476)" fill="#1d3f70"/>
        <path id="Trazado_1274061" data-name="Trazado 1274061" d="M392.089,943.227a30.966,30.966,0,0,0-2.563-12.666l2.736-.351a67.312,67.312,0,0,1-.173,13.016" transform="translate(-290.046 -692.646)" fill="#163356"/>
        <path id="Trazado_1274062" data-name="Trazado 1274062" d="M367.7,780.438s-.287.457-.678,1.163c-.859,1.535-2.224,4.237-2.224,5.868,0,2.375-5.738-3.022-5.738-3.022a28.99,28.99,0,0,1,4.857-5.147c.378-.314.777-.628,1.192-.934a4.051,4.051,0,0,0,2.591,2.072" transform="translate(-267.364 -579.58)" fill="#1d3f70"/>
        <path id="Trazado_1274063" data-name="Trazado 1274063" d="M408.282,822.8a19.887,19.887,0,0,1-13.651,14.97,96.234,96.234,0,0,1-10.148,2.184s-4.251-11.9.572-12.236,11.262-1.968,14.6-5.908c2.463-2.91,2.926-8.538,3-11.278.027-.968.005-1.575.005-1.575a4.3,4.3,0,0,0,3.383-.434s.229.455.546,1.25c.939,2.338,2.663,7.626,1.7,13.026" transform="translate(-285.003 -602.033)" fill="#1d3f70"/>
        <path id="Trazado_1274064" data-name="Trazado 1274064" d="M288.82,1038.394s4.385,2.3,8.551.977c5.47-13.225,8.064-31.276,6.645-44.375.373-.572,7.665,18.6-.236,44.482a8.767,8.767,0,0,0,6.779,1.551c4.8-9.226,15.85-31.45,6.42-60.843-3.109-1.213-20.972-2.935-24.718-1.116a28.518,28.518,0,0,0-2.179,17.477c2.48,13.371-.021,33.339-.945,39.769h-.005c-.188,1.326-.311,2.077-.311,2.077" transform="translate(-215.059 -728.438)" fill="#3a72aa"/>
        <path id="Trazado_1274065" data-name="Trazado 1274065" d="M355.266,1211.869c-.671,1.3-1.094,2-1.094,2a8.778,8.778,0,0,1-6.783-1.551c.183-.649.36-1.288.528-1.923a9.255,9.255,0,0,0,7.35,1.479" transform="translate(-258.67 -901.271)" fill="#23659b"/>
        <path id="Trazado_1274066" data-name="Trazado 1274066" d="M300.549,973.986s10.231-3.228,24.745,1.531a2.785,2.785,0,0,1,.332,1.9s-15.538-3.2-25.732-1a4.3,4.3,0,0,1,.656-2.427" transform="translate(-223.301 -724.445)" fill="#23659b"/>
        <path id="Trazado_1274067" data-name="Trazado 1274067" d="M315.975,798.241c-3.167-.642-7.833.86-9.346,6.817-1.226,4.824-5.98,4.054-9.529,9.846-3.71,6.055-.729,11.5,4.622,14.629,9.859,5.913,25.849-4.825,20.8-16.532-2.135-5.065-1.111-13.657-6.547-14.76" transform="translate(-219.996 -594.277)" fill="#8e4a35"/>
        <path id="Trazado_1274068" data-name="Trazado 1274068" d="M288.82,1207.61s4.385,2.3,8.551.977c0,0,.227-.626.58-1.675a14.2,14.2,0,0,1-8.819-1.38c-.188,1.326-.311,2.077-.311,2.077" transform="translate(-215.059 -897.654)" fill="#23659b"/>
        <path id="Trazado_1274069" data-name="Trazado 1274069" d="M316.395,1073.747h1.82c5.275-12.685,7.713-31.027,6.334-43.457a6.1,6.1,0,0,1-2.6-4.649c1.051,12.952,2.582,27.363-5.55,48.105" transform="translate(-235.592 -763.705)" fill="#23659b"/>
        <path id="Trazado_1274070" data-name="Trazado 1274070" d="M130.083,1316.414a2.048,2.048,0,0,0,1.96-1.351l4.09-12.187h23.893l-3.7,11.025c-.843,2.394,3.153,3.539,3.921,1.163,12.276-36.584,25.842-77.012,38.054-113.407.847-2.4-3.165-3.532-3.921-1.163l-3.685,10.982H166.8l3.3-9.82c.845-2.4-3.163-3.542-3.921-1.163-12.223,36.427-25.792,76.865-38.054,113.406a1.965,1.965,0,0,0,1.961,2.514m37.545-36.2H143.735l4.47-13.322H172.1Zm-7.89-47.692h23.893l-4.47,13.322H155.268Zm18.126,17.185-4.47,13.322H149.5l4.47-13.322Zm11.533-34.37-4.47,13.321H161.035l4.47-13.321Zm-51.969,83.672,5.01-14.931h23.893l-5.03,14.991a2.161,2.161,0,0,0-.5-.061Z" transform="translate(-95.327 -892.927)" fill="#1d3f70"/>
        <path id="Trazado_1274071" data-name="Trazado 1274071" d="M463.589,787.475c.648-1.847-1.084-3.546-.445-3.95,1.467-.039,2.012,2.937,1.949,4.145a.76.76,0,1,1-1.5-.2" transform="translate(-344.756 -583.421)" fill="#f99370"/>
        <path id="Trazado_1274072" data-name="Trazado 1274072" d="M388.753,765.439c.564-.916,3.242-3.183,4.1-2a.433.433,0,0,1-.284.477,4.424,4.424,0,0,0-2.521,2.314.76.76,0,1,1-1.3-.789" transform="translate(-289.354 -568.216)" fill="#f99370"/>
        <path id="Trazado_1274073" data-name="Trazado 1274073" d="M464.59,809.769a5.845,5.845,0,0,1-3.931.755l0,0c.027-.968.005-1.574.005-1.574a4.3,4.3,0,0,0,3.384-.434s.229.455.545,1.25" transform="translate(-343.01 -602.033)" fill="#163356"/>
        <path id="Trazado_1274074" data-name="Trazado 1274074" d="M381.865,780.438s-.287.457-.678,1.163c-2.056.01-3.1-2.3-3.1-2.3.378-.314.777-.628,1.192-.934a4.051,4.051,0,0,0,2.591,2.072" transform="translate(-281.525 -579.58)" fill="#163356"/>
        <path id="Trazado_1274075" data-name="Trazado 1274075" d="M981.452,1595.214l10.387-1.071c.9-.13.8-1.054.56-1.754-.838-2.526-.44-8.566-.527-11.243a.83.83,0,0,0-.915-.825l-4.584.473a.831.831,0,0,0-.724,1.013l1.52,6.561c.637,3.043-2.518,3.629-4.568,4.269a3.467,3.467,0,0,0-1.963,1.355.831.831,0,0,0,.815,1.222" transform="translate(-730.119 -1176.723)" fill="#f99370"/>
        <path id="Trazado_1274076" data-name="Trazado 1274076" d="M992.313,1620.987c.024.512-.168,1.119-.759,1.167l-10.774,1.111c-2.772-.547.772-4.714,5.654-4.93a13.315,13.315,0,0,0,4.336-.346c1.193-.248,1.479,1.94,1.543,3" transform="translate(-729.576 -1204.76)" fill="#103663"/>
        <path id="Trazado_1274077" data-name="Trazado 1274077" d="M988.069,1626.713a.23.23,0,0,1-.227-.121,2.449,2.449,0,0,0-1.33-1.224.23.23,0,0,1,.124-.443,2.89,2.89,0,0,1,1.613,1.451.231.231,0,0,1-.179.337" transform="translate(-734.447 -1209.931)" fill="#e8c0a6"/>
        <path id="Trazado_1274078" data-name="Trazado 1274078" d="M994.24,1624.054a.23.23,0,0,1-.235-.139,3.185,3.185,0,0,0-1.586-1.59.23.23,0,0,1,.169-.428,3.621,3.621,0,0,1,1.84,1.838.231.231,0,0,1-.188.319" transform="translate(-738.862 -1207.67)" fill="#e8c0a6"/>
        <path id="Trazado_1274079" data-name="Trazado 1274079" d="M1002.035,1621.824a.23.23,0,0,1-.232-.132,4.149,4.149,0,0,0-1.621-1.757.23.23,0,0,1,.214-.408,4.543,4.543,0,0,1,1.824,1.97.232.232,0,0,1-.185.327" transform="translate(-744.658 -1205.898)" fill="#e8c0a6"/>
        <path id="Trazado_1274080" data-name="Trazado 1274080" d="M980.151,1631.06l12.4-1.279a2.855,2.855,0,0,1-.229,1.113l-11.3,1.166a.8.8,0,0,1-.865-1" transform="translate(-729.813 -1213.555)" fill="#0f2e54"/>
        <path id="Trazado_1274081" data-name="Trazado 1274081" d="M1153.926,1520.543l3.314-9.9c.255-.876-.63-1.165-1.366-1.234-2.646-.279-7.982-3.137-10.457-4.164a.83.83,0,0,0-1.129.493l-1.463,4.37a.83.83,0,0,0,.624,1.078l6.6,1.326c3.035.677,2.265,3.792,2,5.923a3.468,3.468,0,0,0,.423,2.348.831.831,0,0,0,1.45-.238" transform="translate(-850.93 -1120.767)" fill="#f99370"/>
        <path id="Trazado_1274082" data-name="Trazado 1274082" d="M1180.731,1519.532c.477.189.95.615.75,1.174l-3.438,10.271c-1.642,2.3-3.974-2.65-2.155-7.185a13.318,13.318,0,0,0,1.476-4.092c.266-1.189,2.378-.546,3.366-.168" transform="translate(-875.088 -1131.077)" fill="#103663"/>
        <path id="Trazado_1274083" data-name="Trazado 1274083" d="M1177.384,1553.557a.23.23,0,0,1-.2.157,2.45,2.45,0,0,0-1.664.706.23.23,0,0,1-.352-.3,2.89,2.89,0,0,1,1.988-.87.231.231,0,0,1,.233.3" transform="translate(-875 -1156.572)" fill="#e8c0a6"/>
        <path id="Trazado_1274084" data-name="Trazado 1274084" d="M1177.518,1546.647a.23.23,0,0,1-.224.157,3.185,3.185,0,0,0-2.1.788c-.211.21-.538-.127-.32-.331a3.624,3.624,0,0,1,2.433-.917.231.231,0,0,1,.213.3" transform="translate(-874.77 -1151.426)" fill="#e8c0a6"/>
        <path id="Trazado_1274085" data-name="Trazado 1274085" d="M1178.712,1538.781a.23.23,0,0,1-.216.157,4.145,4.145,0,0,0-2.27.751.23.23,0,0,1-.283-.363,4.547,4.547,0,0,1,2.548-.848.231.231,0,0,1,.221.3" transform="translate(-875.556 -1145.569)" fill="#e8c0a6"/>
        <path id="Trazado_1274086" data-name="Trazado 1274086" d="M1181.292,1532.858l3.956-11.82a2.855,2.855,0,0,1,.919.668l-3.607,10.777a.805.805,0,0,1-1.268.375" transform="translate(-879.605 -1132.583)" fill="#0f2e54"/>
        <path id="Trazado_1274087" data-name="Trazado 1274087" d="M1027.368,1206.76c4.7,4.708-.946,10.533-5.728,5.838-4.7-4.707.946-10.533,5.728-5.838" transform="translate(-759.41 -897.278)" fill="#662948"/>
        <path id="Trazado_1274088" data-name="Trazado 1274088" d="M920.414,1251.513c-13.827,16.084-28.706,12.483-32.639-8.543-.414-2.523,2.474-2.839,3.119.095,2.549,6.147,8.285,15.575,15.913,10.618,2.866-1.885,6.148-7.618,11.54-10.166a11.31,11.31,0,0,1,1.746,1.141h0c2.146,1.751,3.651,4.134.32,6.855" transform="translate(-661.019 -924.042)" fill="#e57d61"/>
        <path id="Trazado_1274089" data-name="Trazado 1274089" d="M974.365,1253.808s-2.858.122-5.38,3.74-4.258,3.737-4.243,5.263a9.356,9.356,0,0,1,3.4,6.479s2.374.6,3.746-.72,8.847-9.357,2.473-14.762" transform="translate(-718.359 -933.601)" fill="#23659b"/>
        <path id="Trazado_1274090" data-name="Trazado 1274090" d="M887.941,1173.82a14.369,14.369,0,1,0-26.357-.734l-.873,5.739a4.729,4.729,0,0,0,2.674,5l6.614,3.088a4.728,4.728,0,0,0,5.546-1.156l3.84-4.354a14.329,14.329,0,0,0,8.556-7.578" transform="translate(-640.776 -858.811)" fill="#ffd453"/>
        <path id="Trazado_1274091" data-name="Trazado 1274091" d="M871.49,1279.409l-7.635-3.565a.9.9,0,1,1,.762-1.631l7.635,3.565a.9.9,0,1,1-.761,1.631" transform="translate(-642.851 -948.731)" fill="#ffbf00"/>
        <path id="Trazado_1274092" data-name="Trazado 1274092" d="M867.158,1288.687l-7.635-3.565a.9.9,0,0,1,.762-1.631l7.635,3.565a.9.9,0,1,1-.762,1.631" transform="translate(-639.625 -955.639)" fill="#ffbf00"/>
        <path id="Trazado_1274093" data-name="Trazado 1274093" d="M862.826,1297.965l-7.635-3.565a.9.9,0,1,1,.761-1.631l7.635,3.565a.9.9,0,1,1-.762,1.631" transform="translate(-636.399 -962.548)" fill="#ffbf00"/>
        <path id="Trazado_1274094" data-name="Trazado 1274094" d="M860.866,1307.37l-4.739-2.213a1.119,1.119,0,0,1-.541-1.488l.3-.651,6.767,3.16-.3.651a1.12,1.12,0,0,1-1.488.541" transform="translate(-637.002 -970.243)" fill="#ffbf00"/>
        <path id="Trazado_1274095" data-name="Trazado 1274095" d="M883.665,1202.735a.9.9,0,0,1,.073-1.662l7.92-2.878a.9.9,0,1,1,.615,1.692l-7.919,2.878a.9.9,0,0,1-.688-.03" transform="translate(-657.601 -892.15)" fill="#ffbf00"/>
        <path id="Trazado_1274096" data-name="Trazado 1274096" d="M896.591,1208.772a.9.9,0,0,1,.073-1.661l7.92-2.878a.9.9,0,0,1,.615,1.692l-7.92,2.878a.9.9,0,0,1-.688-.031" transform="translate(-667.226 -896.645)" fill="#ffbf00"/>
        <path id="Trazado_1274097" data-name="Trazado 1274097" d="M909.517,1214.808a.9.9,0,0,1,.073-1.661l7.919-2.878a.9.9,0,1,1,.615,1.692l-7.92,2.878a.9.9,0,0,1-.688-.03" transform="translate(-676.851 -901.14)" fill="#ffbf00"/>
        <path id="Trazado_1274098" data-name="Trazado 1274098" d="M885.876,1244.351a.9.9,0,0,1-.435-1.2l3.736-8a.9.9,0,0,1,1.631.762l-3.736,8a.9.9,0,0,1-1.2.435" transform="translate(-659.248 -919.324)" fill="#ffbf00"/>
        <path id="Trazado_1274099" data-name="Trazado 1274099" d="M1006.907,1241.363l.178,2c.85,2.276,3.788,1.118,4.961-.443,0,0-.319-1.47-.38-2.159Z" transform="translate(-749.756 -923.883)" fill="#f99370"/>
        <path id="Trazado_1274100" data-name="Trazado 1274100" d="M993.486,1178.048c-6.884-2.031-9.565,7.932-5.926,12.349Z" transform="translate(-734.139 -876.988)" fill="#662948"/>
        <path id="Trazado_1274101" data-name="Trazado 1274101" d="M1010.326,1214.586c0,.083-.007.168-.016.25a25.931,25.931,0,0,0,.188,5.1,8.7,8.7,0,0,1-4.733,1.017c-.274-3.467-1.373-6.744.992-8.472a2.437,2.437,0,0,1,3.568,2.106" transform="translate(-748.538 -902.615)" fill="#e57d61"/>
        <path id="Trazado_1274102" data-name="Trazado 1274102" d="M997.879,1190.517c-.09,2.158-.538,4.622-2.067,6.2h0c-4.115,4.646-14.5-.625-10.346-6.327a6.22,6.22,0,0,0,1.2-2.443c1.552-8.468,11.816-4.9,11.219,2.566" transform="translate(-733.073 -880.908)" fill="#f99370"/>
        <path id="Trazado_1274103" data-name="Trazado 1274103" d="M997.332,1221.525l2.662-1.742a1.63,1.63,0,0,1-2.662,1.742" transform="translate(-742.626 -908.265)" fill="#f9f8f3"/>
        <path id="Trazado_1274104" data-name="Trazado 1274104" d="M1003.784,1209.516c-.243-.349.321-.7.548-.357.243.349-.321.7-.548.357" transform="translate(-747.386 -900.248)" fill="#c16256"/>
        <path id="Trazado_1274105" data-name="Trazado 1274105" d="M992.8,1209c-.243-.349.321-.7.548-.357.243.349-.321.7-.548.357" transform="translate(-739.205 -899.865)" fill="#c16256"/>
        <path id="Trazado_1274106" data-name="Trazado 1274106" d="M996.974,1221.362a.124.124,0,0,1-.067-.226c.079.02,2.805-2.008,2.833-1.707.184.2-2.7,1.866-2.765,1.933" transform="translate(-742.269 -907.979)" fill="#c16256"/>
        <path id="Trazado_1274107" data-name="Trazado 1274107" d="M994.9,1213.174c-.56-.012-1.329-.294-.69-.845.739-.506.729-1.809,1.029-1.807.346.2-.471,1.65-1.01,2.19a1.15,1.15,0,0,0,1.119.132.123.123,0,0,1,.162.063c.04.271-.41.242-.611.267" transform="translate(-740.121 -901.369)" fill="#c16256"/>
        <path id="Trazado_1274108" data-name="Trazado 1274108" d="M1022.282,1409.378a25.308,25.308,0,0,1-3.069-.7c-6.85-1.934-23.182-8.728-28.148-30.223,0,0-2.3,17.12,2.1,40.041q.292,1.52.622,3.075a21.579,21.579,0,0,1-2.138,1.013c-3.195,1.338-9.414,3.251-14.758.8-.13-.78-.253-1.551-.372-2.312-3.82-24.474-2.179-40.208,1.41-56.349l24.509-3.615c3.937,7.4,3.876,16.58,7.014,21.527a29.522,29.522,0,0,0,14.518,12.2,15.916,15.916,0,0,0,2.617.763,24.131,24.131,0,0,1-4.3,13.784" transform="translate(-725.497 -1013.497)" fill="#1d3f70"/>
        <path id="Trazado_1274109" data-name="Trazado 1274109" d="M1007.434,1277.174s-12.542,7.278-24.147,3.811a2.343,2.343,0,0,1-.528-2.359c2.248-6.505-.364-9.728-1.176-13.377-.479-2.148-.336-4.445,1.791-7.646.946-1.451,2.517-4.127,3.675-6.155.4-.7.752-1.324,1.011-1.793-.015.151.209.3.8.718a2,2,0,0,0,.945.423h0c.655.08,1.631-.206,3.216-1.583a11.431,11.431,0,0,1,1.373.164c3.943.713,6.532,3.427,8.3,6.955,3.372,6.746,3.722,16.464,4.743,20.843" transform="translate(-730.731 -930.178)" fill="#f99370"/>
        <path id="Trazado_1274110" data-name="Trazado 1274110" d="M1009.35,1190.212c-.09,2.158-.538,4.622-2.067,6.2h0a11.582,11.582,0,0,0,1.083-3.889l-.587-1.088c-7.794-1.49-7.869-7.445-7.869-7.445,4.209-3.86,9.918,1.219,9.442,6.218" transform="translate(-744.544 -880.604)" fill="#e57d61"/>
        <path id="Trazado_1274111" data-name="Trazado 1274111" d="M1002.781,1178.311s.1,5.869,7.112,7.468l2.608,1.177c3.907-7.239-4.2-15.306-9.72-8.645" transform="translate(-746.684 -875.536)" fill="#662948"/>
        <path id="Trazado_1274112" data-name="Trazado 1274112" d="M1033.687,1210.106c-.194,2.436-3.35,2.171-3.1-.272.193-2.436,3.35-2.171,3.1.272" transform="translate(-767.378 -899.592)" fill="#f99370"/>
        <path id="Trazado_1274113" data-name="Trazado 1274113" d="M1035.632,1212.535a.123.123,0,0,1-.121-.145c.134-.729.069-1.215-.188-1.405-.394-.324-.9.2-1.151.015.6-1.015,2.337.1,1.461,1.536" transform="translate(-770.057 -901.433)" fill="#c16256"/>
        <path id="Trazado_1274114" data-name="Trazado 1274114" d="M1034.965,1214.054c-.435.073.508-1.7,1.294-1.3a.123.123,0,0,1-.1.144c-.962.211-.945,1.115-1.195,1.161" transform="translate(-770.566 -902.986)" fill="#c16256"/>
        <path id="Trazado_1274115" data-name="Trazado 1274115" d="M1036.366,1220.117a.28.28,0,0,1-.556.065.28.28,0,0,1,.556-.065" transform="translate(-771.275 -908.339)" fill="#f4d4be"/>
        <path id="Trazado_1274116" data-name="Trazado 1274116" d="M1007.669,1278.267s-12.9,7.081-24.51,3.614a3.924,3.924,0,0,1-.4-2.778c2.248-6.505-.364-9.728-1.176-13.377-.479-2.148-.336-4.445,1.791-7.646.752-1.154,2.055-5.037,3.363-7.217a2.167,2.167,0,0,1,.666-.385c.093.95.128,3.553,1.458,3.646a3,3,0,0,0,2.406-1.381c.925-1.076,1.794-2.457,3.129-2.891,4.058.5,6.532,3.428,8.3,6.956,3.372,6.746,3.958,17.08,4.978,21.458" transform="translate(-730.731 -930.656)" fill="#3a72aa"/>
        <path id="Trazado_1274117" data-name="Trazado 1274117" d="M960.016,1258.866c-7.972,16.2-26.551,19.378-32.59-.064-1.038-2.261,1.722-3.485,2.7-1.2,7.248,12.042,16.395,9.636,21.429-2.4,2.419-5.526,10.834-1.885,8.466,3.66" transform="translate(-690.402 -932.598)" fill="#f99370"/>
        <path id="Trazado_1274118" data-name="Trazado 1274118" d="M1013.064,1251.771c-2.874.021-4,1.265-5.04,3.462s-4.478,4.912-4.316,6.868c0,0,4.892,1.2,5.622,5.95a9.438,9.438,0,0,0,4.363-3.155c1.6-2.276,4.234-5.414,4.274-7.379s-1.1-5.774-4.9-5.746" transform="translate(-747.37 -932.083)" fill="#23659b"/>
        <path id="Trazado_1274119" data-name="Trazado 1274119" d="M914.017,1240.658c-.723.113-.293,1.637-.631,2.212a9.924,9.924,0,0,1-1.26-1.9c-.344-1.269-.622-2.554-.844-3.851a.672.672,0,0,0-.275-.443c-1.013-.695-.129,3.833-.138,4.359l-.02,0a31.785,31.785,0,0,1-1.661-3.781.678.678,0,0,0-.367-.4c-1.18-.5.872,4.308,1.026,4.8l-.009,0a18.2,18.2,0,0,1-1.988-3.382.627.627,0,0,0-.437-.364c-1.152-.234,1.259,4.271,1.575,4.743l-.009.014a18.081,18.081,0,0,1-1.957-2.371.677.677,0,0,0-.484-.292c-1.12-.1,1.519,3.509,1.85,3.9a17.82,17.82,0,0,0,3.56,3.5c.63.515,2.294-1.015,2.433-1.8-.078-1.113.47-4.845-.364-4.937" transform="translate(-674.815 -920.788)" fill="#f99370"/>
        <path id="Trazado_1274120" data-name="Trazado 1274120" d="M1003.329,1205.4a.117.117,0,0,1-.091-.043,1.73,1.73,0,0,0-1.441-.609.118.118,0,0,1-.134-.1.117.117,0,0,1,.1-.134,1.921,1.921,0,0,1,1.66.693.117.117,0,0,1-.091.191" transform="translate(-745.85 -896.883)" fill="#c16256"/>
        <path id="Trazado_1274121" data-name="Trazado 1274121" d="M991.77,1204.918a.12.12,0,0,1-.051-.011.118.118,0,0,1-.055-.157,1.227,1.227,0,0,1,1.381-.715.117.117,0,0,1-.057.228.98.98,0,0,0-1.112.589.118.118,0,0,1-.106.067" transform="translate(-738.397 -896.52)" fill="#c16256"/>
        <path id="Trazado_1274122" data-name="Trazado 1274122" d="M999.539,1458.817c-4.4-22.921-2.1-40.04-2.1-40.04a8.025,8.025,0,0,1-2.1-3.519s-3.756,23.248,1.833,44.653a25.753,25.753,0,0,1-14.281,1.481c.12.761.242,1.532.373,2.312,5.344,2.453,11.563.54,14.757-.8a21.639,21.639,0,0,0,2.139-1.013q-.331-1.552-.622-3.075" transform="translate(-731.875 -1053.818)" fill="#163356"/>
        <path id="Trazado_1274123" data-name="Trazado 1274123" d="M1153.151,1507.7a25.291,25.291,0,0,1-3.069-.7v0s5.078-6.11,4.753-13.845a15.911,15.911,0,0,0,2.618.763,24.131,24.131,0,0,1-4.3,13.784" transform="translate(-856.365 -1111.821)" fill="#163356"/>
      </g>
    </g>
  </g>
</svg>
