<svg xmlns="http://www.w3.org/2000/svg" xmlns:xlink="http://www.w3.org/1999/xlink" width="150" height="150" viewBox="0 0 150 150">
  <defs>
    <clipPath id="clip-path">
      <rect id="Rectángulo_454829" data-name="Rectángulo 454829" width="150" height="150" fill="#1e535a"/>
    </clipPath>
    <clipPath id="clip-path-2">
      <rect id="Rectángulo_465036" data-name="Rectángulo 465036" width="67.146" height="47.961" fill="#1e535a"/>
    </clipPath>
  </defs>
  <g id="Grupo_1211719" data-name="Grupo 1211719" transform="translate(-186 -4323.945)">
    <g id="Grupo_1177591" data-name="Grupo 1177591" transform="translate(186 4323.945)">
      <g id="Grupo_1177589" data-name="Grupo 1177589" transform="translate(0 0)">
        <g id="Grupo_1177587" data-name="Grupo 1177587" clip-path="url(#clip-path)">
          <path id="Trazado_997422" data-name="Trazado 997422" d="M143.876,66.392A68.963,68.963,0,0,0,128.3,30.506a7.931,7.931,0,0,0-11.16-10.685A68.861,68.861,0,0,0,81.486,5.891,7.933,7.933,0,0,0,66.079,6.2,68.956,68.956,0,0,0,31.872,20.827,7.935,7.935,0,0,0,20.859,31.915,68.9,68.9,0,0,0,6.425,66.324a7.938,7.938,0,0,0-.19,15.546,68.878,68.878,0,0,0,13.982,35.106A7.934,7.934,0,0,0,31,128.179,68.951,68.951,0,0,0,66.016,143.5a7.935,7.935,0,0,0,15.546.313,68.892,68.892,0,0,0,35.914-14.188,7.933,7.933,0,0,0,11.1-10.74A68.98,68.98,0,0,0,144.062,81.8a7.935,7.935,0,0,0-.186-15.4M121.469,34.413a7.89,7.89,0,0,0,4.394-1.33,65.489,65.489,0,0,1,14.453,33.289,7.946,7.946,0,0,0-5.071,3.674l-20.281-7.6c.016-.222.032-.447.032-.677a7.935,7.935,0,0,0-3.361-6.484l8.871-20.93a8.6,8.6,0,0,0,.962.063m-4.287-1.263-8.816,20.791a7.853,7.853,0,0,0-8.741,5.047L62.936,50.537a7.72,7.72,0,0,0-.166-1.58l52.065-18.131a7.961,7.961,0,0,0,2.348,2.324M73.822,15.882a7.941,7.941,0,0,0,7.795-6.441,65.381,65.381,0,0,1,33.059,12.929,7.9,7.9,0,0,0-1.148,4.1,8.337,8.337,0,0,0,.075,1.049L61.277,45.739A7.965,7.965,0,0,0,59.84,44.3L73.565,15.87c.087,0,.17.012.257.012M66.1,9.754a7.943,7.943,0,0,0,3.994,5.2L56.637,42.817A7.963,7.963,0,0,0,55,42.647a7.883,7.883,0,0,0-4.525,1.421L34.524,30.747a7.894,7.894,0,0,0-.269-7.308A65.433,65.433,0,0,1,66.1,9.754M15.688,72.393,48.676,55.378a7.912,7.912,0,0,0,6.259,3.147L66.241,94.665a8.071,8.071,0,0,0-1.75,1.936l-48.9-20.376a7.888,7.888,0,0,0,.293-2.106,7.98,7.98,0,0,0-.194-1.726m7.791-38.111a7.935,7.935,0,0,0,8.864-.756L48.091,46.677a7.919,7.919,0,0,0-.875,5.487L14.172,69.2a7.939,7.939,0,0,0-4.2-2.755A65.4,65.4,0,0,1,23.479,34.282m3.286,79.246a7.918,7.918,0,0,0-3.943,1.053A65.346,65.346,0,0,1,9.786,81.835a7.948,7.948,0,0,0,4.121-2.486L63.3,99.926a8.514,8.514,0,0,0-.063.954,7.939,7.939,0,0,0,.475,2.684L33.839,117.875a7.94,7.94,0,0,0-7.074-4.347M66.17,139.96a65.5,65.5,0,0,1-32.675-14.295,7.858,7.858,0,0,0,1.211-4.2l0-.091,30.926-14.821a7.941,7.941,0,0,0,2.8,1.77l1.853,26.63a7.941,7.941,0,0,0-4.113,5m3.29-46.828L58.4,57.758a7.952,7.952,0,0,0,3.773-3.773L99.154,62.5a7.894,7.894,0,0,0,1.263,3.61L75.049,93.952a7.843,7.843,0,0,0-5.59-.819m12.094,47.136a7.938,7.938,0,0,0-7.731-6.152l-.059,0L72,108.782a7.927,7.927,0,0,0,4.853-2.355l36.978,16.31c0,.071-.012.135-.012.206A7.9,7.9,0,0,0,115,127.083a65.377,65.377,0,0,1-33.443,13.186m33.17-21-36.016-15.89a7.894,7.894,0,0,0-1.041-7.062l25.292-27.762a7.894,7.894,0,0,0,4.1,1.148,8.74,8.74,0,0,0,.974-.063l9.453,46.618a7.923,7.923,0,0,0-2.759,3.013m11.393-2.969a7.893,7.893,0,0,0-5.277-1.247l-9.457-46.638a7.973,7.973,0,0,0,2.5-2.613l20.269,7.6a7.042,7.042,0,0,0-.036.713A7.938,7.938,0,0,0,140.5,81.9a65.431,65.431,0,0,1-14.382,34.4" transform="translate(0 0.002)" fill="#1e535a"/>
        </g>
      </g>
    </g>
    <g id="Elipse_13614" data-name="Elipse 13614" transform="translate(210.273 4348.213)" fill="#fff" stroke="#1e535a" stroke-width="3">
      <ellipse cx="50.732" cy="50.733" rx="50.732" ry="50.733" stroke="none"/>
      <ellipse cx="50.732" cy="50.733" rx="49.232" ry="49.233" fill="none"/>
    </g>
    <g id="Grupo_1212143" data-name="Grupo 1212143" transform="translate(227.432 4374.964)">
      <g id="Grupo_1212142" data-name="Grupo 1212142" clip-path="url(#clip-path-2)">
        <path id="Trazado_1284350" data-name="Trazado 1284350" d="M217.947,166.378l-8.362-9.56,4.269-4.26,9.446,8.172c1.5,1.294.974,3.692-.207,5.031-1.108,1.258-3.767,2.194-5.147.616" transform="translate(-163.822 -119.247)" fill="#1e535a"/>
        <path id="Trazado_1284351" data-name="Trazado 1284351" d="M198.937,145.76a10.2,10.2,0,0,1-1.726-1.917,28.529,28.529,0,0,0,3.726-3.713,20.634,20.634,0,0,1,1.928,1.658Z" transform="translate(-154.15 -109.533)" fill="#1e535a"/>
        <path id="Trazado_1284352" data-name="Trazado 1284352" d="M113.324,42.447a13.081,13.081,0,1,1-13.081-13.081,13.081,13.081,0,0,1,13.081,13.081m-4.34,6.052c.627-.2.909-.738.62-1.239L100.84,32.048a.861.861,0,0,0-.762-.493.809.809,0,0,0-.731.374L90.524,47.217a.846.846,0,0,0,.714,1.276Z" transform="translate(-68.129 -22.954)" fill="#1e535a"/>
        <path id="Trazado_1284353" data-name="Trazado 1284353" d="M4.482,41.066l3.33-4.359a3.407,3.407,0,0,1,.109-4.255,3.273,3.273,0,0,1,4.148-.657,3.317,3.317,0,0,1,1.411,3.98,40.426,40.426,0,0,0,3.532,2.377,5.336,5.336,0,0,1,2.87-.631,44.612,44.612,0,0,0,2.429-4.47A16.728,16.728,0,1,1,48.772,20.81c-.27.014-.5-.1-.6,0A2.377,2.377,0,0,0,48,22.237c.055.131.476.276.555.114.224-.459.053-.99.3-1.436l4.357,1.5a3.733,3.733,0,0,1,3.25-1.639L61.911,6.029c-1.093-1.2-1.829-2.763-.924-4.344a3.292,3.292,0,0,1,6.119,2.158c-.282,1.792-1.844,2.59-3.576,2.806L58.04,21.356c1.185,1.2,1.772,2.729.957,4.246a3.288,3.288,0,0,1-3.733,1.666A3.484,3.484,0,0,1,52.755,24l-4.192-1.453a16.8,16.8,0,0,1-8.638,11.732,16.455,16.455,0,0,1-15.963-.226c-.506-.385-.7-1.481-1.675-1.157.341.516.912.62,1.365,1.089l-2.211,4.374a3.352,3.352,0,0,1,.411,4.278,3.257,3.257,0,0,1-4.184,1.047,3.332,3.332,0,0,1-1.614-4.048l-3.493-2.517a4.134,4.134,0,0,1-3.389.633l-3.3,4.277a3.373,3.373,0,0,1-.193,4.315,3.229,3.229,0,0,1-4.348.4,3.277,3.277,0,0,1,3.149-5.683m42.35-21.571A14.718,14.718,0,1,0,32.113,34.213,14.718,14.718,0,0,0,46.831,19.495" transform="translate(0 0)" fill="#1e535a"/>
        <path id="Trazado_1284354" data-name="Trazado 1284354" d="M127.084,63.507l-14.811.032,7.429-12.8ZM120.491,58.9l-.013-4.024a.813.813,0,0,0-.781-.857.8.8,0,0,0-.8.852l-.012,4.151c0,.614.3.893.811.9.479,0,.8-.3.793-1.017m-.006,2.7a.795.795,0,1,0-.795.795.795.795,0,0,0,.795-.795" transform="translate(-87.758 -39.661)" fill="#1e535a"/>
      </g>
    </g>
  </g>
</svg>
