<svg xmlns="http://www.w3.org/2000/svg" xmlns:xlink="http://www.w3.org/1999/xlink" width="150" height="150" viewBox="0 0 150 150">
  <defs>
    <clipPath id="clip-path">
      <rect id="Rectángulo_454829" data-name="Rectángulo 454829" width="150" height="150" fill="#1e535a"/>
    </clipPath>
    <clipPath id="clip-path-2">
      <rect id="Rectángulo_465037" data-name="Rectángulo 465037" width="60.501" height="62.31" fill="#1e535a"/>
    </clipPath>
  </defs>
  <g id="Grupo_1211720" data-name="Grupo 1211720" transform="translate(-186 -4323.945)">
    <g id="Grupo_1177591" data-name="Grupo 1177591" transform="translate(186 4323.945)">
      <g id="Grupo_1177589" data-name="Grupo 1177589" transform="translate(0 0)">
        <g id="Grupo_1177587" data-name="Grupo 1177587" clip-path="url(#clip-path)">
          <path id="Trazado_997422" data-name="Trazado 997422" d="M143.876,66.392A68.963,68.963,0,0,0,128.3,30.506a7.931,7.931,0,0,0-11.16-10.685A68.861,68.861,0,0,0,81.486,5.891,7.933,7.933,0,0,0,66.079,6.2,68.956,68.956,0,0,0,31.872,20.827,7.935,7.935,0,0,0,20.859,31.915,68.9,68.9,0,0,0,6.425,66.324a7.938,7.938,0,0,0-.19,15.546,68.878,68.878,0,0,0,13.982,35.106A7.934,7.934,0,0,0,31,128.179,68.951,68.951,0,0,0,66.016,143.5a7.935,7.935,0,0,0,15.546.313,68.892,68.892,0,0,0,35.914-14.188,7.933,7.933,0,0,0,11.1-10.74A68.98,68.98,0,0,0,144.062,81.8a7.935,7.935,0,0,0-.186-15.4M121.469,34.413a7.89,7.89,0,0,0,4.394-1.33,65.489,65.489,0,0,1,14.453,33.289,7.946,7.946,0,0,0-5.071,3.674l-20.281-7.6c.016-.222.032-.447.032-.677a7.935,7.935,0,0,0-3.361-6.484l8.871-20.93a8.6,8.6,0,0,0,.962.063m-4.287-1.263-8.816,20.791a7.853,7.853,0,0,0-8.741,5.047L62.936,50.537a7.72,7.72,0,0,0-.166-1.58l52.065-18.131a7.961,7.961,0,0,0,2.348,2.324M73.822,15.882a7.941,7.941,0,0,0,7.795-6.441,65.381,65.381,0,0,1,33.059,12.929,7.9,7.9,0,0,0-1.148,4.1,8.337,8.337,0,0,0,.075,1.049L61.277,45.739A7.965,7.965,0,0,0,59.84,44.3L73.565,15.87c.087,0,.17.012.257.012M66.1,9.754a7.943,7.943,0,0,0,3.994,5.2L56.637,42.817A7.963,7.963,0,0,0,55,42.647a7.883,7.883,0,0,0-4.525,1.421L34.524,30.747a7.894,7.894,0,0,0-.269-7.308A65.433,65.433,0,0,1,66.1,9.754M15.688,72.393,48.676,55.378a7.912,7.912,0,0,0,6.259,3.147L66.241,94.665a8.071,8.071,0,0,0-1.75,1.936l-48.9-20.376a7.888,7.888,0,0,0,.293-2.106,7.98,7.98,0,0,0-.194-1.726m7.791-38.111a7.935,7.935,0,0,0,8.864-.756L48.091,46.677a7.919,7.919,0,0,0-.875,5.487L14.172,69.2a7.939,7.939,0,0,0-4.2-2.755A65.4,65.4,0,0,1,23.479,34.282m3.286,79.246a7.918,7.918,0,0,0-3.943,1.053A65.346,65.346,0,0,1,9.786,81.835a7.948,7.948,0,0,0,4.121-2.486L63.3,99.926a8.514,8.514,0,0,0-.063.954,7.939,7.939,0,0,0,.475,2.684L33.839,117.875a7.94,7.94,0,0,0-7.074-4.347M66.17,139.96a65.5,65.5,0,0,1-32.675-14.295,7.858,7.858,0,0,0,1.211-4.2l0-.091,30.926-14.821a7.941,7.941,0,0,0,2.8,1.77l1.853,26.63a7.941,7.941,0,0,0-4.113,5m3.29-46.828L58.4,57.758a7.952,7.952,0,0,0,3.773-3.773L99.154,62.5a7.894,7.894,0,0,0,1.263,3.61L75.049,93.952a7.843,7.843,0,0,0-5.59-.819m12.094,47.136a7.938,7.938,0,0,0-7.731-6.152l-.059,0L72,108.782a7.927,7.927,0,0,0,4.853-2.355l36.978,16.31c0,.071-.012.135-.012.206A7.9,7.9,0,0,0,115,127.083a65.377,65.377,0,0,1-33.443,13.186m33.17-21-36.016-15.89a7.894,7.894,0,0,0-1.041-7.062l25.292-27.762a7.894,7.894,0,0,0,4.1,1.148,8.74,8.74,0,0,0,.974-.063l9.453,46.618a7.923,7.923,0,0,0-2.759,3.013m11.393-2.969a7.893,7.893,0,0,0-5.277-1.247l-9.457-46.638a7.973,7.973,0,0,0,2.5-2.613l20.269,7.6a7.042,7.042,0,0,0-.036.713A7.938,7.938,0,0,0,140.5,81.9a65.431,65.431,0,0,1-14.382,34.4" transform="translate(0 0.002)" fill="#1e535a"/>
        </g>
      </g>
    </g>
    <g id="Elipse_13614" data-name="Elipse 13614" transform="translate(210.273 4348.213)" fill="#fff" stroke="#1e535a" stroke-width="3">
      <ellipse cx="50.732" cy="50.733" rx="50.732" ry="50.733" stroke="none"/>
      <ellipse cx="50.732" cy="50.733" rx="49.232" ry="49.233" fill="none"/>
    </g>
    <g id="Grupo_1212145" data-name="Grupo 1212145" transform="translate(230.754 4367.79)">
      <g id="Grupo_1212144" data-name="Grupo 1212144" clip-path="url(#clip-path-2)">
        <path id="Trazado_1284355" data-name="Trazado 1284355" d="M60.5,72.376a2.008,2.008,0,0,1-2.042,2.106L35.1,74.509l-.011,6.22,6.64.036a2.519,2.519,0,0,1,2.5,2.631c-.015.8.05,1.512-.036,2.353H16.309c-.085-.845-.025-1.548-.037-2.36a2.469,2.469,0,0,1,2.328-2.6l6.814-.061L25.4,74.508,2.035,74.485A2.008,2.008,0,0,1,0,72.475V31.07a1.917,1.917,0,0,1,1.822-1.962l13.555,0c-1.683,1.951,3.251,3.4,1.245,4.092l-12.477.019.011,37.132,52.187,0,.011-37.13L43.875,33.2c-2-.7,2.913-2.128,1.248-4.092l13.542,0A1.92,1.92,0,0,1,60.5,31.071Z" transform="translate(0 -23.44)" fill="#1e535a"/>
        <path id="Trazado_1284356" data-name="Trazado 1284356" d="M88.9,33.024a14.477,14.477,0,0,1-4.327.01c-.333-1.388.566-3.282-.965-3.635a12.725,12.725,0,0,1-3.837-1.6c-1.118-.685-2.031,1.161-3.074,1.954a13.656,13.656,0,0,1-3.131-3.067c.6-1.007,2.627-1.974,1.981-3.072A13.637,13.637,0,0,1,73.9,19.653c-.321-1.433-2.173-.472-3.594-.9a13.93,13.93,0,0,1-.021-4.321c1.218-.274,3.257.548,3.589-.83a13.825,13.825,0,0,1,1.658-3.993c.665-1.1-1.27-2.07-1.971-3.064a13.388,13.388,0,0,1,3.076-3.1c.985.568,1.985,2.633,3.052,1.983A13.6,13.6,0,0,1,83.632,3.78c1.489-.358.612-2.227.946-3.611a13.631,13.631,0,0,1,4.292,0c.333,1.379-.54,3.267.94,3.61a13.253,13.253,0,0,1,3.946,1.65c1.061.646,2.094-1.433,3.05-1.981A14.075,14.075,0,0,1,99.88,6.514c-.57.973-2.647,1.964-1.963,3.1a13.878,13.878,0,0,1,1.654,3.992c.329,1.383,2.395.548,3.6.831a14.334,14.334,0,0,1-.033,4.342c-1.462.385-3.239-.552-3.582.875a13.1,13.1,0,0,1-1.587,3.825c-.77,1.256,1.15,2.032,1.913,3.191a15.17,15.17,0,0,1-3.086,3.1L94.863,27.89A1.014,1.014,0,0,0,93.68,27.8c-2.9,1.787-4.725,1.309-4.742,2.6ZM94.116,16.6a7.393,7.393,0,1,0-7.393,7.393A7.393,7.393,0,0,0,94.116,16.6" transform="translate(-56.475 0)" fill="#1e535a"/>
        <path id="Trazado_1284357" data-name="Trazado 1284357" d="M88.817,200.223H46.375v-7.43H88.817Zm-36.938-4.93h-1.79V197.7h1.79Zm3.71,0H53.783V197.7h1.806Zm3.713,0H57.488v2.41H59.3Zm3.69,0H61.223v2.41h1.769Zm3.688,2.349a9.219,9.219,0,0,0-.029-2.276,3.7,3.7,0,0,0-1.728.014,15.39,15.39,0,0,0,.009,2.284,6.038,6.038,0,0,0,1.747-.022m3.693,0a9.29,9.29,0,0,0-.031-2.26,3.91,3.91,0,0,0-1.691,0,15.41,15.41,0,0,0,0,2.236,4.263,4.263,0,0,0,1.718.022m3.772-2.342H72.324V197.7h1.821Z" transform="translate(-37.347 -155.261)" fill="#1e535a"/>
      </g>
    </g>
  </g>
</svg>
