<svg xmlns="http://www.w3.org/2000/svg" xmlns:xlink="http://www.w3.org/1999/xlink" width="396" height="232" viewBox="0 0 396 232">
  <defs>
    <clipPath id="clip-path">
      <rect id="Rectángulo_464934" data-name="Rectángulo 464934" width="382.688" height="229.529" fill="none"/>
    </clipPath>
  </defs>
  <g id="Grupo_1212015" data-name="Grupo 1212015" transform="translate(-290 -627)">
    <rect id="Rectángulo_464612" data-name="Rectángulo 464612" width="396" height="232" transform="translate(290 627)" fill="none"/>
    <g id="Grupo_1212014" data-name="Grupo 1212014" transform="translate(297 628)">
      <g id="Grupo_1212013" data-name="Grupo 1212013" clip-path="url(#clip-path)">
        <path id="Trazado_1283863" data-name="Trazado 1283863" d="M20.094,229.215a183.227,183.227,0,1,1,354.808,0Z" transform="translate(-6.154)" fill="#fff7df"/>
        <path id="Trazado_1283864" data-name="Trazado 1283864" d="M417.049,363.786l-4-14.516H404.5l-4.28,14.58-3.707-14.58h-9.237l8.262,30.721,8.9-.054,4.137-15.005,3.957,15.013h8.942l8.57-30.675h-9.291Z" transform="translate(-166.992 -150.605)" fill="#1e4b97"/>
        <path id="Trazado_1283865" data-name="Trazado 1283865" d="M494.32,363.786l-4-14.516h-8.552l-4.28,14.58-3.707-14.58h-9.237l8.263,30.721,8.9-.054,4.137-15.005,3.957,15.013h8.943l8.57-30.675h-9.291Z" transform="translate(-200.311 -150.605)" fill="#1e4b97"/>
        <path id="Trazado_1283866" data-name="Trazado 1283866" d="M575.293,349.27l-3.7,14.516-4-14.516h-8.552l-4.28,14.58-3.707-14.58h-9.237l8.262,30.721,8.9-.054,4.137-15.005,3.957,15.013h8.943l8.569-30.675Z" transform="translate(-233.63 -150.605)" fill="#1e4b97"/>
        <rect id="Rectángulo_464868" data-name="Rectángulo 464868" width="0.284" height="6.378" transform="translate(337.885 213.147) rotate(-14.539)" fill="#091724"/>
        <rect id="Rectángulo_464869" data-name="Rectángulo 464869" width="0.284" height="6.378" transform="translate(320.9 213.147) rotate(-14.539)" fill="#091724"/>
        <rect id="Rectángulo_464870" data-name="Rectángulo 464870" width="0.284" height="6.378" transform="translate(293.933 213.147) rotate(-14.539)" fill="#091724"/>
        <rect id="Rectángulo_464871" data-name="Rectángulo 464871" width="0.284" height="6.378" transform="translate(276.948 213.147) rotate(-14.539)" fill="#091724"/>
        <rect id="Rectángulo_464872" data-name="Rectángulo 464872" width="0.284" height="6.378" transform="translate(249.982 213.147) rotate(-14.539)" fill="#091724"/>
        <rect id="Rectángulo_464873" data-name="Rectángulo 464873" width="0.284" height="6.378" transform="translate(232.996 213.147) rotate(-14.539)" fill="#091724"/>
        <path id="Trazado_1283867" data-name="Trazado 1283867" d="M134.373,325.912H61.547V226.523a2.67,2.67,0,0,1,2.67-2.67h67.469a2.686,2.686,0,0,1,2.686,2.686Z" transform="translate(-26.539 -96.525)" fill="#1e4b97"/>
        <rect id="Rectángulo_464874" data-name="Rectángulo 464874" width="83.975" height="28.966" transform="translate(29.433 130.13)" fill="#6cb9ff"/>
        <rect id="Rectángulo_464875" data-name="Rectángulo 464875" width="83.975" height="28.966" transform="translate(29.433 162.21)" fill="#6cb9ff"/>
        <rect id="Rectángulo_464876" data-name="Rectángulo 464876" width="83.975" height="28.966" transform="translate(29.433 194.29)" fill="#6cb9ff"/>
        <path id="Trazado_1283868" data-name="Trazado 1283868" d="M68.357,252.162a2.745,2.745,0,1,1-2.744-2.744,2.745,2.745,0,0,1,2.744,2.744" transform="translate(-27.109 -107.549)" fill="#ffd453"/>
        <path id="Trazado_1283869" data-name="Trazado 1283869" d="M87.317,252.162a2.745,2.745,0,1,1-2.744-2.744,2.745,2.745,0,0,1,2.744,2.744" transform="translate(-35.284 -107.549)" fill="#fff"/>
        <path id="Trazado_1283870" data-name="Trazado 1283870" d="M106.276,252.162a2.745,2.745,0,1,1-2.744-2.744,2.745,2.745,0,0,1,2.744,2.744" transform="translate(-43.459 -107.549)" fill="#fff"/>
        <path id="Trazado_1283871" data-name="Trazado 1283871" d="M68.357,308.561a2.745,2.745,0,1,1-2.744-2.744,2.745,2.745,0,0,1,2.744,2.744" transform="translate(-27.109 -131.868)" fill="#ffd453"/>
        <path id="Trazado_1283872" data-name="Trazado 1283872" d="M87.317,308.561a2.745,2.745,0,1,1-2.744-2.744,2.745,2.745,0,0,1,2.744,2.744" transform="translate(-35.284 -131.868)" fill="#fff"/>
        <path id="Trazado_1283873" data-name="Trazado 1283873" d="M106.276,308.561a2.745,2.745,0,1,1-2.744-2.744,2.745,2.745,0,0,1,2.744,2.744" transform="translate(-43.459 -131.868)" fill="#fff"/>
        <path id="Trazado_1283874" data-name="Trazado 1283874" d="M68.357,364.96a2.745,2.745,0,1,1-2.744-2.744,2.744,2.744,0,0,1,2.744,2.744" transform="translate(-27.109 -156.187)" fill="#ffd453"/>
        <path id="Trazado_1283875" data-name="Trazado 1283875" d="M87.317,364.96a2.745,2.745,0,1,1-2.744-2.744,2.744,2.744,0,0,1,2.744,2.744" transform="translate(-35.284 -156.187)" fill="#fff"/>
        <path id="Trazado_1283876" data-name="Trazado 1283876" d="M106.276,364.96a2.745,2.745,0,1,1-2.744-2.744,2.744,2.744,0,0,1,2.744,2.744" transform="translate(-43.459 -156.187)" fill="#fff"/>
        <rect id="Rectángulo_464877" data-name="Rectángulo 464877" width="83.975" height="0.284" transform="translate(29.433 221.268)" fill="#1e4b97"/>
        <rect id="Rectángulo_464878" data-name="Rectángulo 464878" width="83.975" height="0.284" transform="translate(29.433 189.252)" fill="#1e4b97"/>
        <rect id="Rectángulo_464879" data-name="Rectángulo 464879" width="83.975" height="0.284" transform="translate(29.433 157.149)" fill="#1e4b97"/>
        <path id="Trazado_1283877" data-name="Trazado 1283877" d="M342.82,348.461H289.736l5.12-72.314H337.7Z" transform="translate(-124.934 -119.074)" fill="#495172"/>
        <path id="Trazado_1283878" data-name="Trazado 1283878" d="M347.263,398.59H257.444a6.189,6.189,0,0,1,6.189-6.189h77.442a6.188,6.188,0,0,1,6.189,6.189" transform="translate(-111.01 -169.203)" fill="#495172"/>
        <path id="Trazado_1283879" data-name="Trazado 1283879" d="M358.437,215.973H148.273a4.463,4.463,0,0,1-4.463-4.463V71.737a4.463,4.463,0,0,1,4.463-4.463H358.437a4.463,4.463,0,0,1,4.463,4.463V211.51a4.463,4.463,0,0,1-4.463,4.463" transform="translate(-62.011 -29.009)" fill="#495172"/>
        <rect id="Rectángulo_464880" data-name="Rectángulo 464880" width="197.704" height="123.499" transform="translate(92.492 47.76)" fill="#fff"/>
        <rect id="Rectángulo_464881" data-name="Rectángulo 464881" width="46.987" height="0.284" transform="translate(167.896 186.822)" fill="#091724"/>
        <rect id="Rectángulo_464882" data-name="Rectángulo 464882" width="52.323" height="0.284" transform="translate(165.183 223.056)" fill="#091724"/>
        <path id="Trazado_1283880" data-name="Trazado 1283880" d="M166.96,312.721a2.176,2.176,0,1,1-2.176-2.176,2.176,2.176,0,0,1,2.176,2.176" transform="translate(-70.117 -133.907)" fill="#e05a77"/>
        <path id="Trazado_1283881" data-name="Trazado 1283881" d="M189.155,310.829a1.891,1.891,0,1,1,0,3.782h-10.11a1.891,1.891,0,1,1,0-3.782Zm0-.284h-10.11a2.175,2.175,0,1,0,0,4.351h10.11a2.175,2.175,0,1,0,0-4.351" transform="translate(-76.266 -133.907)" fill="#091724"/>
        <path id="Trazado_1283882" data-name="Trazado 1283882" d="M147.286,349.27l-15.624,15.624,15.1,15.1h11.4l-15.1-15.1,15.623-15.624Z" transform="translate(-56.772 -150.605)" fill="#ffd453"/>
        <path id="Trazado_1283883" data-name="Trazado 1283883" d="M230.987,349.27h-11.4l15.624,15.624-15.1,15.1h11.4l15.1-15.1Z" transform="translate(-94.685 -150.605)" fill="#ffd453"/>
        <path id="Trazado_1283884" data-name="Trazado 1283884" d="M182.434,349.27l11.229,30.721H201.5L190.27,349.27Z" transform="translate(-78.665 -150.605)" fill="#ffd453"/>
        <rect id="Rectángulo_464883" data-name="Rectángulo 464883" width="382.688" height="0.284" transform="translate(0 229.244)" fill="#091724"/>
        <path id="Trazado_1283885" data-name="Trazado 1283885" d="M357.454,180.806H183.39V27.343a5.2,5.2,0,0,1,5.2-5.2h163.66a5.2,5.2,0,0,1,5.2,5.2Z" transform="translate(-79.078 -9.547)" fill="#6cb9ff"/>
        <path id="Trazado_1283886" data-name="Trazado 1283886" d="M357.454,32.853v-5.51a5.2,5.2,0,0,0-5.2-5.2H188.592a5.2,5.2,0,0,0-5.2,5.2v5.51Z" transform="translate(-79.078 -9.547)" fill="#1e4b97"/>
        <path id="Trazado_1283887" data-name="Trazado 1283887" d="M192.4,28.426a1.781,1.781,0,1,0,1.78,1.78,1.78,1.78,0,0,0-1.78-1.78" transform="translate(-82.195 -12.257)" fill="#ffce00"/>
        <path id="Trazado_1283888" data-name="Trazado 1283888" d="M203.19,28.426a1.781,1.781,0,1,0,1.78,1.78,1.78,1.78,0,0,0-1.78-1.78" transform="translate(-86.848 -12.257)" fill="#fff"/>
        <path id="Trazado_1283889" data-name="Trazado 1283889" d="M213.982,28.426a1.781,1.781,0,1,0,1.78,1.78,1.78,1.78,0,0,0-1.78-1.78" transform="translate(-91.501 -12.257)" fill="#fff"/>
        <rect id="Rectángulo_464884" data-name="Rectángulo 464884" width="105.5" height="4.201" transform="translate(114.926 38.589)" fill="#fff"/>
        <rect id="Rectángulo_464885" data-name="Rectángulo 464885" width="36.279" height="4.201" transform="translate(114.926 50.017)" fill="#ffd453"/>
        <rect id="Rectángulo_464886" data-name="Rectángulo 464886" width="36.279" height="4.201" transform="translate(160.103 50.017)" fill="#fff"/>
        <rect id="Rectángulo_464887" data-name="Rectángulo 464887" width="8.159" height="4.201" transform="translate(144.051 61.446)" fill="#ffd453"/>
        <rect id="Rectángulo_464888" data-name="Rectángulo 464888" width="28.125" height="4.201" transform="translate(157.756 61.446)" fill="#fff"/>
        <rect id="Rectángulo_464889" data-name="Rectángulo 464889" width="39.123" height="4.201" transform="translate(191.428 61.446)" fill="#fff"/>
        <rect id="Rectángulo_464890" data-name="Rectángulo 464890" width="31.665" height="4.201" transform="translate(236.098 61.446)" fill="#fff"/>
        <rect id="Rectángulo_464891" data-name="Rectángulo 464891" width="37.77" height="4.201" transform="translate(129.33 72.874)" fill="#ffd453"/>
        <rect id="Rectángulo_464892" data-name="Rectángulo 464892" width="21.414" height="4.201" transform="translate(172.646 72.874)" fill="#fff"/>
        <rect id="Rectángulo_464893" data-name="Rectángulo 464893" width="48.599" height="4.201" transform="translate(199.606 72.874)" fill="#fff"/>
        <rect id="Rectángulo_464894" data-name="Rectángulo 464894" width="14.011" height="4.201" transform="translate(253.751 72.874)" fill="#fff"/>
        <rect id="Rectángulo_464895" data-name="Rectángulo 464895" width="28.148" height="4.201" transform="translate(114.926 84.302)" fill="#ffd453"/>
        <rect id="Rectángulo_464896" data-name="Rectángulo 464896" width="10.81" height="4.201" transform="translate(148.62 84.302)" fill="#fff"/>
        <rect id="Rectángulo_464897" data-name="Rectángulo 464897" width="46.907" height="4.201" transform="translate(164.976 84.302)" fill="#fff"/>
        <rect id="Rectángulo_464898" data-name="Rectángulo 464898" width="28.785" height="4.201" transform="translate(217.429 84.302)" fill="#fff"/>
        <rect id="Rectángulo_464899" data-name="Rectángulo 464899" width="31.791" height="4.201" transform="translate(139.144 95.731)" fill="#ffd453"/>
        <rect id="Rectángulo_464900" data-name="Rectángulo 464900" width="15.548" height="4.201" transform="translate(176.482 95.731)" fill="#fff"/>
        <rect id="Rectángulo_464901" data-name="Rectángulo 464901" width="42.959" height="4.201" transform="translate(197.576 95.731)" fill="#fff"/>
        <rect id="Rectángulo_464902" data-name="Rectángulo 464902" width="21.682" height="4.201" transform="translate(246.081 95.731)" fill="#fff"/>
        <rect id="Rectángulo_464903" data-name="Rectángulo 464903" width="17.015" height="4.201" transform="translate(153.019 107.159)" fill="#ffd453"/>
        <rect id="Rectángulo_464904" data-name="Rectángulo 464904" width="37.77" height="4.201" transform="translate(175.579 107.159)" fill="#ffd453"/>
        <rect id="Rectángulo_464905" data-name="Rectángulo 464905" width="48.867" height="4.201" transform="translate(218.895 107.159)" fill="#fff"/>
        <rect id="Rectángulo_464906" data-name="Rectángulo 464906" width="0.284" height="3.76" transform="translate(163.212 145.798)" fill="#fff"/>
        <path id="Trazado_1283893" data-name="Trazado 1283893" d="M343.2,235.881h-.284V231.87h-55.7v4.011h-.284v-4.3H343.2Z" transform="translate(-123.729 -99.86)" fill="#fff"/>
        <path id="Trazado_1283894" data-name="Trazado 1283894" d="M294.076,266.981h-.284V262.97H238.1v4.011h-.284v-4.3h56.264Z" transform="translate(-102.544 -113.27)" fill="#fff"/>
        <rect id="Rectángulo_464907" data-name="Rectángulo 464907" width="0.284" height="3.76" transform="translate(219.147 145.798)" fill="#fff"/>
        <rect id="Rectángulo_464908" data-name="Rectángulo 464908" width="0.284" height="3.76" transform="translate(191.202 128.109)" fill="#fff"/>
        <path id="Trazado_1283895" data-name="Trazado 1283895" d="M392.413,266.981h-.284V262.97h-55.7v4.011h-.284v-4.3h56.264Z" transform="translate(-144.947 -113.27)" fill="#fff"/>
        <rect id="Rectángulo_464909" data-name="Rectángulo 464909" width="32.153" height="9.777" transform="translate(175.267 118.332)" fill="#1e4b97"/>
        <rect id="Rectángulo_464910" data-name="Rectángulo 464910" width="32.153" height="9.777" transform="translate(147.278 136.022)" fill="#1e4b97"/>
        <rect id="Rectángulo_464911" data-name="Rectángulo 464911" width="32.153" height="9.777" transform="translate(203.257 136.022)" fill="#1e4b97"/>
        <rect id="Rectángulo_464912" data-name="Rectángulo 464912" width="32.153" height="9.777" transform="translate(119.288 153.711)" fill="#1e4b97"/>
        <rect id="Rectángulo_464913" data-name="Rectángulo 464913" width="32.153" height="9.777" transform="translate(175.268 153.711)" fill="#1e4b97"/>
        <rect id="Rectángulo_464914" data-name="Rectángulo 464914" width="32.153" height="9.777" transform="translate(231.247 153.711)" fill="#1e4b97"/>
        <path id="Trazado_1283896" data-name="Trazado 1283896" d="M111.275,160.649c-4.011,10.633-12.519,10.46-12.519,10.46s-5.593-4.722-3.205-13.888l2.9.507-2.189-2.742a29.909,29.909,0,0,1,7.1-10.539l2.1,1.025-.932-2.128a36.718,36.718,0,0,1,6.505-4.78,38.186,38.186,0,0,1,1.939,13.325l-2.8.94,2.66,1.045a26.905,26.905,0,0,1-1.558,6.774" transform="translate(-40.946 -59.749)" fill="#a2c167"/>
        <rect id="Rectángulo_464915" data-name="Rectángulo 464915" width="31.543" height="0.285" transform="translate(57.674 111.309) rotate(-69.325)" fill="#64822a"/>
        <rect id="Rectángulo_464916" data-name="Rectángulo 464916" width="0.284" height="7.277" transform="matrix(0.775, -0.632, 0.632, 0.775, 58.67, 91.052)" fill="#64822a"/>
        <rect id="Rectángulo_464917" data-name="Rectángulo 464917" width="6.815" height="0.284" transform="translate(60.089 105.132) rotate(-6.784)" fill="#64822a"/>
        <rect id="Rectángulo_464918" data-name="Rectángulo 464918" width="3.22" height="0.284" transform="translate(66.765 87.417) rotate(-9.916)" fill="#64822a"/>
        <path id="Trazado_1283897" data-name="Trazado 1283897" d="M87.2,150.764c4.172,12.564-3.653,18.65-3.653,18.65s-8.525-.169-13.09-10.216l3-1.671-3.992-.874a34.835,34.835,0,0,1-1.311-14.743l2.65-.611-2.4-1.242a42.781,42.781,0,0,1,2.38-9.1A44.492,44.492,0,0,1,82.31,141.594l-1.843,2.9,3.174-1.006a31.34,31.34,0,0,1,3.561,7.273" transform="translate(-29.278 -56.47)" fill="#a2c167"/>
        <path id="Trazado_1283898" data-name="Trazado 1283898" d="M100.225,179.006l-.247-.141c1.691-2.953,3.211-7.966.85-15.079-.291-.875-.633-1.756-1.015-2.618l.26-.115c.386.87.731,1.759,1.024,2.643,2.395,7.214.847,12.307-.873,15.31" transform="translate(-43.039 -69.446)" fill="#64822a"/>
        <rect id="Rectángulo_464919" data-name="Rectángulo 464919" width="0.284" height="36.745" transform="translate(42.555 78.117) rotate(-18.369)" fill="#64822a"/>
        <rect id="Rectángulo_464920" data-name="Rectángulo 464920" width="0.284" height="8.477" transform="translate(40.153 93.915) rotate(-78.203)" fill="#64822a"/>
        <rect id="Rectángulo_464921" data-name="Rectángulo 464921" width="7.938" height="0.285" transform="matrix(0.697, -0.717, 0.717, 0.697, 51.779, 105.653)" fill="#64822a"/>
        <rect id="Rectángulo_464922" data-name="Rectángulo 464922" width="3.751" height="0.284" transform="translate(44.824 84.727) rotate(-48.977)" fill="#64822a"/>
        <path id="Trazado_1283899" data-name="Trazado 1283899" d="M77.627,192.9v11.5a6.108,6.108,0,0,0,6.108,6.108h9.07a6.108,6.108,0,0,0,6.108-6.108V192.9Z" transform="translate(-33.473 -83.18)" fill="#e05a77"/>
        <rect id="Rectángulo_464923" data-name="Rectángulo 464923" width="21.287" height="0.501" transform="translate(44.154 115.248)" fill="#fff"/>
        <rect id="Rectángulo_464924" data-name="Rectángulo 464924" width="21.287" height="1.405" transform="translate(44.155 116.774)" fill="#fff"/>
        <rect id="Rectángulo_464925" data-name="Rectángulo 464925" width="23.499" height="5.293" transform="translate(43.049 108.268)" fill="#e05a77"/>
        <rect id="Rectángulo_464926" data-name="Rectángulo 464926" width="21.287" height="0.284" transform="translate(44.154 113.418)" fill="#a31c46"/>
        <path id="Trazado_1283900" data-name="Trazado 1283900" d="M453.279,170.42l.014-.044a1.1,1.1,0,0,1,1.374-.709h0l-1.66-.534a1.1,1.1,0,0,1-.708-1.379l.014-.044a1.1,1.1,0,0,1,1.379-.708l-.73-.235a1.1,1.1,0,0,1-.708-1.379l.014-.044a1.1,1.1,0,0,1,1.379-.709l.73.235a1.1,1.1,0,0,1-.709-1.379l.014-.044a1.1,1.1,0,0,1,1.379-.708l.49.158,4.174,1.342,3.653,1.174L462.819,163a1.533,1.533,0,0,1,.905-2.143l3.525,4.792a5.636,5.636,0,0,1,.825,5.063l-.408,1.269a4.009,4.009,0,0,1-5.043,2.589l-3.972-1.276-4.279-1.376-.385-.123a1.1,1.1,0,0,1-.708-1.379" transform="translate(-194.989 -69.364)" fill="#e0a47c"/>
        <path id="Trazado_1283901" data-name="Trazado 1283901" d="M461.66,169.775l-5.707-1.835.086-.27,5.707,1.834Z" transform="translate(-196.607 -72.299)" fill="#c9773f"/>
        <path id="Trazado_1283902" data-name="Trazado 1283902" d="M460.455,173.522l-5.708-1.835.086-.27,5.708,1.834Z" transform="translate(-196.087 -73.915)" fill="#c9773f"/>
        <path id="Trazado_1283903" data-name="Trazado 1283903" d="M460.347,177.635l-4.256-1.369.086-.27,4.256,1.368Z" transform="translate(-196.666 -75.89)" fill="#c9773f"/>
        <rect id="Rectángulo_464927" data-name="Rectángulo 464927" width="11.58" height="27.806" transform="translate(320.624 66.687)" fill="#e0a47c"/>
        <path id="Trazado_1283904" data-name="Trazado 1283904" d="M562.727,139.224v4.519l12.516.035V139.3Z" transform="translate(-242.648 -60.033)" fill="#fff"/>
        <path id="Trazado_1283905" data-name="Trazado 1283905" d="M557.818,118.137h0a7.623,7.623,0,0,0,7.59-7.611v-6.01a7.623,7.623,0,0,0-7.59-7.611c-4.174,0-7.59-5.569-7.59-1.384V102.8l-1.491,4.582a1.259,1.259,0,0,0,.5,1.436l.994.665c.038,6.987,3.416,8.655,7.59,8.655" transform="translate(-236.588 -40.517)" fill="#e0a47c"/>
        <path id="Trazado_1283906" data-name="Trazado 1283906" d="M567.946,111.389c-4.222,0-6.849-.749-10.131-5.154,0,0-4.008-2.783-3.762-9.794-8.878-.143-7.216-8.433-7.216-8.433l15.39-.072a5.647,5.647,0,0,1,5.673,5.6c6.7,2.408,2.72,10.76.046,17.851" transform="translate(-235.743 -37.918)" fill="#495172"/>
        <rect id="Rectángulo_464928" data-name="Rectángulo 464928" width="0.284" height="2.593" transform="translate(320.47 75.027)" fill="#c16d34"/>
        <path id="Trazado_1283907" data-name="Trazado 1283907" d="M564.1,113.49a2.966,2.966,0,1,1-2.966-2.966,2.966,2.966,0,0,1,2.966,2.966" transform="translate(-240.682 -47.658)" fill="#e0a47c"/>
        <path id="Trazado_1283908" data-name="Trazado 1283908" d="M563.118,116.168a1.779,1.779,0,0,1-.58-.1l.094-.269a1.489,1.489,0,1,0,.486-2.9v-.284a1.774,1.774,0,0,1,0,3.548" transform="translate(-242.566 -48.562)" fill="#c16d34"/>
        <path id="Trazado_1283909" data-name="Trazado 1283909" d="M563.325,120.653c-.089,0-.181,0-.275-.013l.028-.283a2.508,2.508,0,0,0,1.693-.445l.178.222a2.752,2.752,0,0,1-1.623.519" transform="translate(-242.787 -51.706)" fill="#c16d34"/>
        <path id="Trazado_1283910" data-name="Trazado 1283910" d="M539.981,386.2c-.933,2.283-12.48,3.959-12.439,9.277H548.95a23.59,23.59,0,0,0-1.25-9.277s-6.787-2.283-7.719,0" transform="translate(-227.476 -166.093)" fill="#fff"/>
        <path id="Trazado_1283911" data-name="Trazado 1283911" d="M593.379,386.2c-.932,2.283-12.48,3.959-12.439,9.277h21.409a23.593,23.593,0,0,0-1.25-9.277s-6.787-2.283-7.719,0" transform="translate(-250.501 -166.093)" fill="#fff"/>
        <path id="Trazado_1283912" data-name="Trazado 1283912" d="M594.938,185h0l-10.376-27.154,0,0a7.491,7.491,0,1,1,14.243-4.6h.006l9.28,27.7a6.944,6.944,0,0,1,.366,1.094v0h0A6.921,6.921,0,1,1,594.938,185" transform="translate(-251.856 -63.699)" fill="#ffd453"/>
        <path id="Trazado_1283913" data-name="Trazado 1283913" d="M572.628,215.446s22.914-1.656,25.109-2.579a8.123,8.123,0,0,0,3.818-2.545,6.923,6.923,0,0,0-1.394-9.692c-2.135-1.6-7.142-.723-7.142-.723l-21.457,4.536c-1.012,3.026-.536,8.327,1.065,11" transform="translate(-246.229 -86.096)" fill="#ffd453"/>
        <path id="Trazado_1283914" data-name="Trazado 1283914" d="M574.307,237.442H536.942c.353,8.92,3.235,81.57,3.7,86.909h11.949l4.321-76.377,14.13,76.377h12c-.375-6.914-8.173-81.5-8.74-86.909" transform="translate(-231.529 -102.385)" fill="#e05a77"/>
        <path id="Trazado_1283915" data-name="Trazado 1283915" d="M574.683,241.04l-.376-3.6H536.942c.03.761.079,1.993.143,3.6Z" transform="translate(-231.529 -102.385)" fill="#fff"/>
        <path id="Trazado_1283916" data-name="Trazado 1283916" d="M573.677,198.161l3.594-43c1.034-9.923-12.042-10.96-12.042-10.96H549.8c-6.844,0-16.314,1.9-16.1,11.56l1.057,42.4Z" transform="translate(-230.132 -62.179)" fill="#ffd453"/>
        <path id="Trazado_1283917" data-name="Trazado 1283917" d="M473.454,181.4c-.09-.157-3.751-2.522-3.751-2.522l5.9-8.469,3.5,2.8Z" transform="translate(-202.536 -73.479)" fill="#fff"/>
        <path id="Trazado_1283918" data-name="Trazado 1283918" d="M505.412,174.433l0,0,16.957-23.611.005,0a7.491,7.491,0,1,1,11.68,9.358l0,.006L516.04,183.181a6.907,6.907,0,0,1-.712.908l0,0a6.922,6.922,0,1,1-9.914-9.659" transform="translate(-217.053 -63.699)" fill="#ffd453"/>
        <path id="Trazado_1283919" data-name="Trazado 1283919" d="M473.215,182.105s18.45,13.689,20.716,14.421a8.131,8.131,0,0,0,4.554.561,6.923,6.923,0,0,0,5.265-8.256c-.574-2.607-4.942-5.206-4.942-5.206L479.584,173.07Z" transform="translate(-204.05 -74.628)" fill="#ffd453"/>
        <rect id="Rectángulo_464929" data-name="Rectángulo 464929" width="13.49" height="0.285" transform="matrix(0.617, -0.787, 0.787, 0.617, 303.949, 112.912)" fill="#64822a"/>
        <rect id="Rectángulo_464930" data-name="Rectángulo 464930" width="31.844" height="0.284" transform="translate(344.108 127.82) rotate(-85.296)" fill="#64822a"/>
        <path id="Trazado_1283920" data-name="Trazado 1283920" d="M566.782,255.551a41.621,41.621,0,0,1-6.953-.582l.048-.28a42.151,42.151,0,0,0,13.909,0l.047.28a43.369,43.369,0,0,1-7.05.582" transform="translate(-241.398 -109.822)" fill="#a31c46"/>
        <rect id="Rectángulo_464931" data-name="Rectángulo 464931" width="12.213" height="0.284" transform="translate(308.975 219.62)" fill="#a31c46"/>
        <rect id="Rectángulo_464932" data-name="Rectángulo 464932" width="12.213" height="0.284" transform="translate(339.104 219.62)" fill="#a31c46"/>
        <rect id="Rectángulo_464933" data-name="Rectángulo 464933" width="4.413" height="0.284" transform="matrix(0.588, -0.809, 0.809, 0.588, 288.36, 110.427)" fill="#64822a"/>
      </g>
    </g>
  </g>
</svg>
