<svg xmlns="http://www.w3.org/2000/svg" xmlns:xlink="http://www.w3.org/1999/xlink" width="396.37" height="214" viewBox="0 0 396.37 214">
  <defs>
    <clipPath id="clip-path">
      <rect id="Rectángulo_464699" data-name="Rectángulo 464699" width="396" height="203.57" fill="none"/>
    </clipPath>
    <clipPath id="clip-path-3">
      <rect id="Rectángulo_464690" data-name="Rectángulo 464690" width="64.172" height="122.63" fill="none"/>
    </clipPath>
    <clipPath id="clip-path-4">
      <rect id="Rectángulo_464694" data-name="Rectángulo 464694" width="52.778" height="86.85" fill="none"/>
    </clipPath>
    <clipPath id="clip-path-5">
      <rect id="Rectángulo_464695" data-name="Rectángulo 464695" width="37.094" height="86.85" fill="none"/>
    </clipPath>
    <clipPath id="clip-path-6">
      <rect id="Rectángulo_464696" data-name="Rectángulo 464696" width="45.767" height="52.479" fill="none"/>
    </clipPath>
  </defs>
  <g id="Grupo_1211906" data-name="Grupo 1211906" transform="translate(-288.63 -880)">
    <g id="Grupo_1211905" data-name="Grupo 1211905" transform="translate(289 890.215)">
      <g id="Grupo_1211904" data-name="Grupo 1211904" clip-path="url(#clip-path)">
        <g id="Grupo_1211903" data-name="Grupo 1211903">
          <g id="Grupo_1211902" data-name="Grupo 1211902" clip-path="url(#clip-path)">
            <path id="Trazado_1274287" data-name="Trazado 1274287" d="M9.417,193.882c-18.769-16.358-2.15-39.066,11.75-35.5s32.053-27.2,20.788-55.355S54.5,29.681,98.9,19.163C153.378,6.26,197.712,41.506,237.78,19c56.537-31.758,94.791,16.287,89.456,66.187s4.395,42.9,25.346,54,36.592,26.309,24.078,44.9c0,0,14.39-2.972,13.764,9.795Z" transform="translate(-0.167 -1.437)" fill="#fff7df"/>
            <path id="Trazado_1274288" data-name="Trazado 1274288" d="M387.884,239.948H5.811a5.811,5.811,0,1,1,0-11.621H387.884a5.811,5.811,0,1,1,0,11.621" transform="translate(0 -37.294)" fill="#b8c9ff"/>
            <path id="Trazado_1274289" data-name="Trazado 1274289" d="M73.76,227.174c7.544-12.124-7.112-17.1-11.1-10.573,0,0,1.423-13.935-10.4-14.135s-9.726,16.818-9.726,16.818-.656-8.532-8.711-7.012-.371,12.229-.371,12.229-1.816-5.858-6.426-1.367,3.536,2.989,3.536,2.989Z" transform="translate(-4.183 -33.07)" fill="#588e4d"/>
            <path id="Trazado_1274290" data-name="Trazado 1274290" d="M419.382,220.6c14.837-26.815,45.118-17.124,45.118-17.124l-33.227,20.048h-8.645Z" transform="translate(-68.5 -32.956)" fill="#406d35"/>
            <path id="Trazado_1274291" data-name="Trazado 1274291" d="M409.407,214.973C425.634,164.153,446.5,162.3,446.5,162.3s-3.709,36.183-25.5,54.779Z" transform="translate(-66.871 -26.509)" fill="#588e4d"/>
            <path id="Trazado_1274292" data-name="Trazado 1274292" d="M420.357,201.311c-2.491-20.611-15.937-22.874-15.937-22.874l4.172,39.173,11.764-.822V199.121" transform="translate(-66.056 -29.145)" fill="#406d35"/>
            <path id="Trazado_1274293" data-name="Trazado 1274293" d="M408.6,216.2c-4.006-16.028-14.814-14.365-14.814-14.365l4.306,18.353h12.561Z" transform="translate(-64.319 -32.959)" fill="#406d35"/>
            <path id="Trazado_1274294" data-name="Trazado 1274294" d="M431.7,226.145c8.152-5.94,21.786-2.55,21.786-2.55l-17.53,8.671-9.09-3.2Z" transform="translate(-69.723 -36.364)" fill="#406d35"/>
            <path id="Trazado_1274295" data-name="Trazado 1274295" d="M372.828,232.071c4.061-16.6,15.6-15.473,18.935-10.784,0,0,2.227-9.2,14.476-7.695S418.487,224.6,418.487,224.6s5.939-2.308,8.166.89a9.049,9.049,0,0,1,1.485,6.583Z" transform="translate(-60.896 -34.86)" fill="#588e4d"/>
            <path id="Trazado_1274296" data-name="Trazado 1274296" d="M284.824,231.676c2.758-11.272,10.589-10.506,12.856-7.322,0,0,1.513-6.248,9.828-5.224s8.316,7.471,8.316,7.471,4.032-1.567,5.545.6a6.145,6.145,0,0,1,1.008,4.469Z" transform="translate(-46.522 -35.773)" fill="#588e4d"/>
            <rect id="Rectángulo_464685" data-name="Rectángulo 464685" width="128.348" height="48.774" transform="translate(108.179 138.457)" fill="#6e80db"/>
            <path id="Trazado_1274297" data-name="Trazado 1274297" d="M257.646,221.385c0,6.783-28.732,12.282-64.174,12.282s-64.174-5.5-64.174-12.282S158.03,209.1,193.472,209.1s64.174,5.5,64.174,12.282" transform="translate(-21.119 -34.154)" fill="#6e80db"/>
            <path id="Trazado_1274298" data-name="Trazado 1274298" d="M257.646,163.089c0,6.783-28.732,12.282-64.174,12.282s-64.174-5.5-64.174-12.282,28.732-12.282,64.174-12.282,64.174,5.5,64.174,12.282" transform="translate(-21.119 -24.632)" fill="#a0b2f2"/>
            <rect id="Rectángulo_464686" data-name="Rectángulo 464686" width="117.781" height="42.973" transform="translate(113.463 91.918)" fill="#465daf"/>
            <path id="Trazado_1274299" data-name="Trazado 1274299" d="M253.394,159.112c0,5.976-26.366,10.821-58.89,10.821s-58.89-4.845-58.89-10.821,26.366-10.821,58.89-10.821,58.89,4.845,58.89,10.821" transform="translate(-22.15 -24.221)" fill="#465daf"/>
            <rect id="Rectángulo_464687" data-name="Rectángulo 464687" width="128.348" height="48.774" transform="translate(108.179 77.991)" fill="#6e80db"/>
            <path id="Trazado_1274300" data-name="Trazado 1274300" d="M257.646,149.114c0,6.783-28.732,12.282-64.174,12.282S129.3,155.9,129.3,149.114s28.732-12.282,64.174-12.282,64.174,5.5,64.174,12.282" transform="translate(-21.119 -22.35)" fill="#6e80db"/>
            <path id="Trazado_1274301" data-name="Trazado 1274301" d="M257.646,90.818c0,6.783-28.732,12.282-64.174,12.282S129.3,97.6,129.3,90.818s28.732-12.282,64.174-12.282,64.174,5.5,64.174,12.282" transform="translate(-21.119 -12.828)" fill="#a0b2f2"/>
            <rect id="Rectángulo_464688" data-name="Rectángulo 464688" width="117.781" height="42.973" transform="translate(113.463 31.452)" fill="#465daf"/>
            <path id="Trazado_1274302" data-name="Trazado 1274302" d="M253.394,86.841c0,5.976-26.366,10.821-58.89,10.821s-58.89-4.845-58.89-10.821S161.979,76.02,194.5,76.02s58.89,4.845,58.89,10.821" transform="translate(-22.15 -12.417)" fill="#465daf"/>
            <rect id="Rectángulo_464689" data-name="Rectángulo 464689" width="128.348" height="48.774" transform="translate(108.179 15.748)" fill="#6e80db"/>
            <path id="Trazado_1274303" data-name="Trazado 1274303" d="M257.646,74.72C257.646,81.5,228.914,87,193.472,87S129.3,81.5,129.3,74.72s28.732-12.282,64.174-12.282,64.174,5.5,64.174,12.282" transform="translate(-21.119 -10.198)" fill="#6e80db"/>
            <path id="Trazado_1274304" data-name="Trazado 1274304" d="M257.646,16.425c0,6.783-28.732,12.282-64.174,12.282S129.3,23.208,129.3,16.425,158.03,4.143,193.472,4.143s64.174,5.5,64.174,12.282" transform="translate(-21.119 -0.677)" fill="#d7e2ff"/>
            <path id="Trazado_1274305" data-name="Trazado 1274305" d="M245.566,16.986c0,5.2-22.011,9.409-49.163,9.409s-49.162-4.213-49.162-9.409S169.251,7.577,196.4,7.577s49.163,4.213,49.163,9.409" transform="translate(-24.05 -1.238)" fill="#a0b2f2"/>
            <path id="Trazado_1274306" data-name="Trazado 1274306" d="M172.535,60.62a4.039,4.039,0,1,1-4.039-4.039,4.039,4.039,0,0,1,4.039,4.039" transform="translate(-26.862 -9.242)" fill="#2b417f"/>
            <path id="Trazado_1274307" data-name="Trazado 1274307" d="M196.672,60.62a4.039,4.039,0,1,1-4.039-4.039,4.038,4.038,0,0,1,4.039,4.039" transform="translate(-30.804 -9.242)" fill="#57ea5f"/>
            <path id="Trazado_1274308" data-name="Trazado 1274308" d="M220.81,60.62a4.039,4.039,0,1,1-4.039-4.039,4.039,4.039,0,0,1,4.039,4.039" transform="translate(-34.747 -9.242)" fill="#465daf"/>
            <path id="Trazado_1274309" data-name="Trazado 1274309" d="M253.116,64.658H235.823a3.246,3.246,0,0,1-3.246-3.246V59.826a3.246,3.246,0,0,1,3.246-3.246h17.293a3.245,3.245,0,0,1,3.245,3.246v1.585a3.245,3.245,0,0,1-3.245,3.246" transform="translate(-37.988 -9.242)" fill="#465daf"/>
            <path id="Trazado_1274310" data-name="Trazado 1274310" d="M172.535,136.044a4.039,4.039,0,1,1-4.039-4.039,4.039,4.039,0,0,1,4.039,4.039" transform="translate(-26.862 -21.561)" fill="#465daf"/>
            <path id="Trazado_1274311" data-name="Trazado 1274311" d="M196.672,136.044a4.039,4.039,0,1,1-4.039-4.039,4.038,4.038,0,0,1,4.039,4.039" transform="translate(-30.804 -21.561)" fill="#fff"/>
            <path id="Trazado_1274312" data-name="Trazado 1274312" d="M220.81,136.044a4.039,4.039,0,1,1-4.039-4.039,4.039,4.039,0,0,1,4.039,4.039" transform="translate(-34.747 -21.561)" fill="#57ea5f"/>
            <path id="Trazado_1274313" data-name="Trazado 1274313" d="M253.116,140.082H235.823a3.246,3.246,0,0,1-3.246-3.246V135.25A3.246,3.246,0,0,1,235.823,132h17.293a3.245,3.245,0,0,1,3.245,3.246v1.585a3.245,3.245,0,0,1-3.245,3.246" transform="translate(-37.988 -21.561)" fill="#2b417f"/>
            <path id="Trazado_1274314" data-name="Trazado 1274314" d="M172.535,211.468a4.039,4.039,0,1,1-4.039-4.039,4.039,4.039,0,0,1,4.039,4.039" transform="translate(-26.862 -33.881)" fill="#2b417f"/>
            <path id="Trazado_1274315" data-name="Trazado 1274315" d="M196.672,211.468a4.039,4.039,0,1,1-4.039-4.039,4.038,4.038,0,0,1,4.039,4.039" transform="translate(-30.804 -33.881)" fill="#465daf"/>
            <path id="Trazado_1274316" data-name="Trazado 1274316" d="M220.81,211.468a4.039,4.039,0,1,1-4.039-4.039,4.039,4.039,0,0,1,4.039,4.039" transform="translate(-34.747 -33.881)" fill="#fff"/>
            <path id="Trazado_1274317" data-name="Trazado 1274317" d="M253.116,215.506H235.823a3.246,3.246,0,0,1-3.246-3.246v-1.585a3.246,3.246,0,0,1,3.246-3.246h17.293a3.245,3.245,0,0,1,3.245,3.246v1.585a3.245,3.245,0,0,1-3.245,3.246" transform="translate(-37.988 -33.88)" fill="#465daf"/>
            <path id="Trazado_1274318" data-name="Trazado 1274318" d="M201.93,165.563H136.246a3.465,3.465,0,0,0-2.221.806L126,176.19l79.4,48.063V169.026a3.463,3.463,0,0,0-3.463-3.463" transform="translate(-20.579 -27.042)" fill="#ffbe5f"/>
            <path id="Trazado_1274319" data-name="Trazado 1274319" d="M202.212,211.328V140.959H148.339v70.847Z" transform="translate(-24.229 -23.024)" fill="#d2dfff"/>
            <path id="Trazado_1274320" data-name="Trazado 1274320" d="M194.944,228.95H107.2a3.668,3.668,0,0,1-3.668-3.668L84.481,181.933a3.667,3.667,0,0,1,3.668-3.667h91.414l19.049,47.016a3.668,3.668,0,0,1-3.668,3.668" transform="translate(-13.799 -29.117)" fill="#ffcf73"/>
            <g id="Grupo_1211892" data-name="Grupo 1211892" transform="translate(172.354 76.885)" opacity="0.17" style="mix-blend-mode: multiply;isolation: isolate">
              <g id="Grupo_1211891" data-name="Grupo 1211891">
                <g id="Grupo_1211890" data-name="Grupo 1211890" clip-path="url(#clip-path-3)">
                  <path id="Trazado_1274321" data-name="Trazado 1274321" d="M264.893,146.655v1.933c3.388,1.489,5.279,3.146,5.279,4.878v48.778c0,6.777-28.731,12.282-64.172,12.282v-29.35L247.423,91.9l22.749,10.7v39.181c0,1.732-1.891,3.38-5.279,4.878" transform="translate(-206.001 -91.895)" fill="#383736"/>
                </g>
              </g>
            </g>
            <path id="Trazado_1274322" data-name="Trazado 1274322" d="M356.133,226.924H325.991c.325-6.115,10.307-7.08,10.626-22.537l4.444.74,4.444-.74c.32,15.457,10.3,16.422,10.626,22.537" transform="translate(-53.246 -33.384)" fill="#1e1e1e"/>
            <path id="Trazado_1274323" data-name="Trazado 1274323" d="M395.557,188.825H262.8a9.573,9.573,0,0,1-9.573-9.573V101.326a9.574,9.574,0,0,1,9.573-9.574H395.557a9.574,9.574,0,0,1,9.573,9.574v77.926a9.573,9.573,0,0,1-9.573,9.573" transform="translate(-41.36 -14.986)" fill="#383736"/>
            <path id="Trazado_1274324" data-name="Trazado 1274324" d="M396.094,82.713H262.26a9.037,9.037,0,0,0-9.037,9.038v77.812H405.131V91.751a9.037,9.037,0,0,0-9.038-9.038" transform="translate(-41.36 -13.51)" fill="#383736"/>
            <path id="Trazado_1274325" data-name="Trazado 1274325" d="M347.044,195.622a3.777,3.777,0,1,1-3.778-3.777,3.778,3.778,0,0,1,3.778,3.777" transform="translate(-55.451 -31.335)" fill="#1e1e1e"/>
            <path id="Trazado_1274326" data-name="Trazado 1274326" d="M400.7,170.513H260.647V90.687a2.156,2.156,0,0,1,2.157-2.156h135.74a2.156,2.156,0,0,1,2.156,2.156Z" transform="translate(-42.573 -14.46)" fill="#6e80db"/>
            <path id="Trazado_1274327" data-name="Trazado 1274327" d="M356.213,233.58H325.476a.815.815,0,0,1-.814-.815v-.627a.815.815,0,0,1,.814-.815h30.737a.815.815,0,0,1,.815.815v.627a.815.815,0,0,1-.815.815" transform="translate(-53.029 -37.783)" fill="#1e1e1e"/>
            <path id="Trazado_1274328" data-name="Trazado 1274328" d="M397.342,96.921H265.494a1.812,1.812,0,0,1-1.812-1.812V93.716a1.812,1.812,0,0,1,1.812-1.812H397.342a1.812,1.812,0,0,1,1.812,1.812v1.393a1.812,1.812,0,0,1-1.812,1.812" transform="translate(-43.069 -15.011)" fill="#a0b2f2"/>
            <path id="Trazado_1274329" data-name="Trazado 1274329" d="M409.751,94.689a1.1,1.1,0,1,1-1.1-1.1,1.1,1.1,0,0,1,1.1,1.1" transform="translate(-66.568 -15.287)" fill="#d7e2ff"/>
            <path id="Trazado_1274330" data-name="Trazado 1274330" d="M413.9,94.689a1.1,1.1,0,1,1-1.1-1.1,1.1,1.1,0,0,1,1.1,1.1" transform="translate(-67.246 -15.287)" fill="#d7e2ff"/>
            <path id="Trazado_1274331" data-name="Trazado 1274331" d="M418.053,94.689a1.1,1.1,0,1,1-1.1-1.1,1.1,1.1,0,0,1,1.1,1.1" transform="translate(-67.924 -15.287)" fill="#d7e2ff"/>
            <path id="Trazado_1274332" data-name="Trazado 1274332" d="M295.021,122.927a12.67,12.67,0,1,1-12.67-12.67,12.67,12.67,0,0,1,12.67,12.67" transform="translate(-44.048 -18.009)" fill="#a0b2f2"/>
            <path id="Trazado_1274333" data-name="Trazado 1274333" d="M293.592,153.721H271.11a1.43,1.43,0,0,1-1.43-1.429v-1.1a1.43,1.43,0,0,1,1.43-1.43h22.482a1.429,1.429,0,0,1,1.429,1.43v1.1a1.429,1.429,0,0,1-1.429,1.429" transform="translate(-44.048 -24.462)" fill="#4b62b2"/>
            <rect id="Rectángulo_464691" data-name="Rectángulo 464691" width="25.341" height="11.138" transform="translate(225.632 132.483)" fill="#a0b2f2"/>
            <path id="Trazado_1274334" data-name="Trazado 1274334" d="M346.711,114.962H314.038a1.7,1.7,0,0,1-1.7-1.7v-1.306a1.7,1.7,0,0,1,1.7-1.7h32.673a1.7,1.7,0,0,1,1.7,1.7v1.306a1.7,1.7,0,0,1-1.7,1.7" transform="translate(-51.016 -18.009)" fill="#4b62b2"/>
            <path id="Trazado_1274335" data-name="Trazado 1274335" d="M373.372,127.294H314.039a1.7,1.7,0,0,1-1.7-1.7v-1.306a1.7,1.7,0,0,1,1.7-1.7h59.333a1.7,1.7,0,0,1,1.7,1.7v1.306a1.7,1.7,0,0,1-1.7,1.7" transform="translate(-51.016 -20.023)" fill="#a0b2f2"/>
            <rect id="Rectángulo_464692" data-name="Rectángulo 464692" width="36.071" height="22.963" transform="translate(261.323 112.884)" fill="#a0b2f2"/>
            <path id="Trazado_1274336" data-name="Trazado 1274336" d="M346.711,171.153H314.038a1.7,1.7,0,0,1-1.7-1.7v-1.306a1.7,1.7,0,0,1,1.7-1.7h32.673a1.7,1.7,0,0,1,1.7,1.7v1.306a1.7,1.7,0,0,1-1.7,1.7" transform="translate(-51.016 -27.187)" fill="#4b62b2"/>
            <rect id="Rectángulo_464693" data-name="Rectángulo 464693" width="36.071" height="22.963" transform="translate(305.863 112.884)" fill="#a0b2f2"/>
            <path id="Trazado_1274337" data-name="Trazado 1274337" d="M399.946,171.153H367.273a1.7,1.7,0,0,1-1.7-1.7v-1.306a1.7,1.7,0,0,1,1.7-1.7h32.673a1.7,1.7,0,0,1,1.7,1.7v1.306a1.7,1.7,0,0,1-1.7,1.7" transform="translate(-59.711 -27.187)" fill="#4b62b2"/>
            <g id="Grupo_1211895" data-name="Grupo 1211895" transform="translate(243.454 69.203)" opacity="0.2" style="mix-blend-mode: overlay;isolation: isolate">
              <g id="Grupo_1211894" data-name="Grupo 1211894">
                <g id="Grupo_1211893" data-name="Grupo 1211893" clip-path="url(#clip-path-4)">
                  <path id="Trazado_1274338" data-name="Trazado 1274338" d="M290.982,82.713l18.035,86.85h34.743l-21.413-86.85Z" transform="translate(-290.982 -82.713)" fill="#fff"/>
                </g>
              </g>
            </g>
            <g id="Grupo_1211898" data-name="Grupo 1211898" transform="translate(286.955 69.203)" opacity="0.2" style="mix-blend-mode: overlay;isolation: isolate">
              <g id="Grupo_1211897" data-name="Grupo 1211897">
                <g id="Grupo_1211896" data-name="Grupo 1211896" clip-path="url(#clip-path-5)">
                  <path id="Trazado_1274339" data-name="Trazado 1274339" d="M342.975,82.713l18.035,86.85h19.06l-21.412-86.85Z" transform="translate(-342.975 -82.713)" fill="#fff"/>
                </g>
              </g>
            </g>
            <g id="Grupo_1211901" data-name="Grupo 1211901" transform="translate(318.003 68.324)" opacity="0.17" style="mix-blend-mode: multiply;isolation: isolate">
              <g id="Grupo_1211900" data-name="Grupo 1211900">
                <g id="Grupo_1211899" data-name="Grupo 1211899" clip-path="url(#clip-path-6)">
                  <path id="Trazado_1274340" data-name="Trazado 1274340" d="M380.084,81.7C381.6,98.556,399.312,99,405.1,110.545s13.589,25.988,20.756,23.261V90.172l-27.792-8.51Z" transform="translate(-380.084 -81.662)" fill="#383736"/>
                </g>
              </g>
            </g>
            <path id="Trazado_1274341" data-name="Trazado 1274341" d="M415.76,110.479l.108,5.016,5.145.314.055-5.987Z" transform="translate(-67.908 -17.938)" fill="#ffca9f"/>
            <path id="Trazado_1274342" data-name="Trazado 1274342" d="M390.967,79.924l27.578-.373.573-6.463a5.791,5.791,0,0,0-5.376-6.29l-22.356-1.519a7.162,7.162,0,0,0-7.615,6.48l-.032.342a7.161,7.161,0,0,0,7.227,7.824" transform="translate(-62.673 -10.659)" fill="#5d74c6"/>
            <path id="Trazado_1274343" data-name="Trazado 1274343" d="M413.658,70.588l1.7,35.333,5.473.333,2.855-28.52Z" transform="translate(-67.565 -11.53)" fill="#ffca9f"/>
            <path id="Trazado_1274344" data-name="Trazado 1274344" d="M422.147,104.521c-1.473,4.395-4.912,4.186-4.912,4.186l4.64.282Z" transform="translate(-68.149 -17.072)" fill="#ffca9f"/>
            <path id="Trazado_1274345" data-name="Trazado 1274345" d="M413.995,125.427l16.415,1a2.61,2.61,0,0,0-.131-.831l0-.005c-.558-1.68-2.794-2.509-5.314-3.783a6.347,6.347,0,0,1-3.235-4.689l.078-1.274a.939.939,0,0,0-.88-.995l-4.935-.3a.934.934,0,0,0-1,.988,4.771,4.771,0,0,0,.092.66h.005a3.715,3.715,0,0,0,.2.682c-.916,2.322-1.3,8.547-1.3,8.547" transform="translate(-67.62 -18.71)" fill="#fff"/>
            <path id="Trazado_1274346" data-name="Trazado 1274346" d="M424.094,121.206a3.757,3.757,0,0,0-3.138,2.607" transform="translate(-68.757 -19.797)" fill="none" stroke="#383736" stroke-miterlimit="10" stroke-width="1"/>
            <path id="Trazado_1274347" data-name="Trazado 1274347" d="M426.485,122.81a3.976,3.976,0,0,0-1.775,2.256" transform="translate(-69.37 -20.059)" fill="none" stroke="#383736" stroke-miterlimit="10" stroke-width="1"/>
            <path id="Trazado_1274348" data-name="Trazado 1274348" d="M413.995,125.749l16.415,1a2.61,2.61,0,0,0-.131-.831l0-.005a19.908,19.908,0,0,1-5.8.068c-3.7-.393-7.827-.07-8.922-1.486s-.571-4.991-.025-6.273c.284-.652,1.283-.792,2.205-.779a5.489,5.489,0,0,1-2.646-.922,3.715,3.715,0,0,0,.2.682c-.916,2.322-1.3,8.547-1.3,8.547" transform="translate(-67.62 -19.032)" fill="#ddd"/>
            <path id="Trazado_1274349" data-name="Trazado 1274349" d="M430.369,128.535a2.417,2.417,0,0,1-.068,1.107l-16.549-1.008a2.119,2.119,0,0,1,.2-1.1c.261-.423,16.415,1,16.415,1" transform="translate(-67.579 -20.818)" fill="#eae9e8"/>
            <path id="Trazado_1274350" data-name="Trazado 1274350" d="M402.421,112.82l.264,5.01,5.153.153L407.705,112Z" transform="translate(-65.73 -18.293)" fill="#ffca9f"/>
            <path id="Trazado_1274351" data-name="Trazado 1274351" d="M378.061,82.5l26.125-1.188.371-6.477a5.792,5.792,0,0,0-5.57-6.12L375.23,65.367c-3.882-.143-6.068,4.51-6.454,9.248l-.022.344c-1,6.648,5.055,7.732,9.306,7.543" transform="translate(-60.213 -10.676)" fill="#6e80db"/>
            <path id="Trazado_1274352" data-name="Trazado 1274352" d="M399.075,73.046l2.8,35.263,5.481.163,1.966-28.6Z" transform="translate(-65.183 -11.931)" fill="#ffca9f"/>
            <path id="Trazado_1274353" data-name="Trazado 1274353" d="M370.591,66.226c-4.988,5.783-5.08,16.3,1.505,16.972s21.737-.689,21.737-.689l-.131,5.8H418.07s.774-18.893-2.226-19.77-27.187-3.253-27.187-3.253Z" transform="translate(-59.942 -10.663)" fill="#644602"/>
            <path id="Trazado_1274354" data-name="Trazado 1274354" d="M408.641,106.669c-1.335,4.439-4.78,4.336-4.78,4.336l4.647.138Z" transform="translate(-65.965 -17.423)" fill="#ffca9f"/>
            <path id="Trazado_1274355" data-name="Trazado 1274355" d="M401.185,127.836l16.437.489a2.615,2.615,0,0,0-.157-.827l0-.005c-.61-1.661-2.871-2.421-5.43-3.615a6.348,6.348,0,0,1-3.379-4.586l.038-1.275a.939.939,0,0,0-.911-.967l-4.941-.147a.936.936,0,0,0-.964,1.019,5,5,0,0,0,.112.657h.005a3.786,3.786,0,0,0,.223.675c-.844,2.349-1.028,8.583-1.028,8.583" transform="translate(-65.528 -19.094)" fill="#fff"/>
            <path id="Trazado_1274356" data-name="Trazado 1274356" d="M411.1,123.295a3.756,3.756,0,0,0-3.056,2.7" transform="translate(-66.648 -20.138)" fill="none" stroke="#383736" stroke-miterlimit="10" stroke-width="1"/>
            <path id="Trazado_1274357" data-name="Trazado 1274357" d="M413.533,124.832a3.976,3.976,0,0,0-1.7,2.311" transform="translate(-67.266 -20.39)" fill="none" stroke="#383736" stroke-miterlimit="10" stroke-width="1"/>
            <path id="Trazado_1274358" data-name="Trazado 1274358" d="M401.185,128.164l16.437.489a2.616,2.616,0,0,0-.157-.827l0-.005a19.891,19.891,0,0,1-5.792.248c-3.713-.278-7.825.173-8.965-1.207s-.725-4.971-.219-6.269c.263-.661,1.257-.832,2.18-.848a5.492,5.492,0,0,1-2.675-.839,3.786,3.786,0,0,0,.223.675c-.844,2.349-1.028,8.583-1.028,8.583" transform="translate(-65.528 -19.422)" fill="#ddd"/>
            <path id="Trazado_1274359" data-name="Trazado 1274359" d="M417.587,130.436a2.42,2.42,0,0,1-.033,1.109l-16.573-.493a2.125,2.125,0,0,1,.167-1.1c.248-.432,16.438.489,16.438.489" transform="translate(-65.493 -21.206)" fill="#eae9e8"/>
            <path id="Trazado_1274360" data-name="Trazado 1274360" d="M374.533,30.15l-8.1,20.052-6.758-2.451,6.195-20.694a4.566,4.566,0,0,1,3.842-3.226h3.108Z" transform="translate(-58.749 -3.893)" fill="#69d7e5"/>
            <path id="Trazado_1274361" data-name="Trazado 1274361" d="M369.549,65.4s1,.591,8.1,1.452,16.473-.861,16.473-.861a5.232,5.232,0,0,0-2.292-3.193h-20c-.924.258-1.714,1.528-2.078,2.194-.129.244-.2.408-.2.408" transform="translate(-60.36 -10.257)" fill="#eae9e8"/>
            <path id="Trazado_1274362" data-name="Trazado 1274362" d="M369.549,65.4s1,.591,8.1,1.452,16.473-.861,16.473-.861a5.232,5.232,0,0,0-2.292-3.193h-1.19c2.007,2.62-2.042,3.859-5.994,3.641s-9.879.422-12.491-.72a8.893,8.893,0,0,0-2.4-.728c-.129.244-.2.408-.2.408" transform="translate(-60.36 -10.257)" fill="#d6d5d4"/>
            <path id="Trazado_1274363" data-name="Trazado 1274363" d="M394.463,24.12c-2.949-2.369-11.15-4.177-11.15-4.177h-2.5s-9.949,1.852-11.554,4L371.784,55.8h20Z" transform="translate(-60.314 -3.257)" fill="#69d7e5"/>
            <path id="Trazado_1274364" data-name="Trazado 1274364" d="M371.209,49.315c1.966,8.622,15.05,11.281,15.05,11.281H372.1Z" transform="translate(-60.632 -8.055)" fill="#1e535a"/>
            <path id="Trazado_1274365" data-name="Trazado 1274365" d="M384.57,68.057c2.615-.868,4.39-1.127,5.278-.231s1.154,3.212,1.686,3.918-2.005.21-2.112-.519c0,0-4.206,1.713-6.638-.572s0-2.827,0-2.827Z" transform="translate(-62.346 -10.987)" fill="#ffca9f"/>
            <path id="Trazado_1274366" data-name="Trazado 1274366" d="M360.674,62.443l18.151,6.089,1.786-2.6L358.744,54.282l-.8,1.609a4.711,4.711,0,0,0,2.725,6.552" transform="translate(-58.386 -8.866)" fill="#ffca9f"/>
            <path id="Trazado_1274367" data-name="Trazado 1274367" d="M366.054,55.568l-.57,2.032-6.719-3.129.6-1.4,6.69,2.094Z" transform="translate(-58.599 -8.668)" fill="#fca781"/>
            <path id="Trazado_1274368" data-name="Trazado 1274368" d="M390.929,30.15l8.1,20.052,6.758-2.451-6.195-20.694a4.566,4.566,0,0,0-3.842-3.226h-3.173Z" transform="translate(-63.853 -3.893)" fill="#69d7e5"/>
            <path id="Trazado_1274369" data-name="Trazado 1274369" d="M397.467,46.189l.6-7.115s1.492,11.588,5.708,11.426-3.469,2.736-3.469,2.736Z" transform="translate(-64.921 -6.382)" fill="#1e535a"/>
            <path id="Trazado_1274370" data-name="Trazado 1274370" d="M363.289,47.056c4.61.75,7.265-6.36,7.265-6.36l.569,1.8-2.836,7.34-5-2.315Z" transform="translate(-59.338 -6.647)" fill="#1e535a"/>
            <path id="Trazado_1274371" data-name="Trazado 1274371" d="M377.339,21.038l6.44,9.151,4.852-9.077-5.171-.7-2-.336-4.608,1.086Z" transform="translate(-61.554 -3.28)" fill="#eae9e8"/>
            <path id="Trazado_1274372" data-name="Trazado 1274372" d="M381.425,17.4v3.975a2.211,2.211,0,1,0,4.423,0V17.4l-1.776-.592-.433-.142-.433.142Z" transform="translate(-62.3 -2.722)" fill="#ffab8a"/>
            <path id="Trazado_1274373" data-name="Trazado 1274373" d="M395.683,12.237c.959-1.418,1.452-.643,1.181.566s-1.649,2.78-2.048,1.932l.352-2.036Z" transform="translate(-64.487 -1.874)" fill="#ffab8a"/>
            <path id="Trazado_1274374" data-name="Trazado 1274374" d="M379.831,9.646c-.427-1.658-1.152-1.093-1.3.136s.619,3.173,1.28,2.507l.352-2.036Z" transform="translate(-61.824 -1.407)" fill="#ffab8a"/>
            <path id="Trazado_1274375" data-name="Trazado 1274375" d="M379.77,10.1c-.286-.748-.705-.7-.745-.3s-.014,1.584.382,1.921c0,0-.4-1.455-.113-1.722s.475.1.475.1" transform="translate(-61.906 -1.554)" fill="#f99273"/>
            <path id="Trazado_1274376" data-name="Trazado 1274376" d="M379.954,8.862c-.247,4.392.118,9.095,5.6,9.933,4.671.714,6.474-3.4,7.721-7.624,1.769-6.276-3.636-8.277-5.309-8.736-.089-.024-.165-.043-.232-.059l-.027-.005-.238-.022c-1.734-.131-7.075.007-7.515,6.513" transform="translate(-62.051 -0.38)" fill="#ffca9f"/>
            <path id="Trazado_1274377" data-name="Trazado 1274377" d="M391.733,12.573c-.09.521.028.977.264,1.018s.5-.349.59-.871-.028-.977-.264-1.018-.5.349-.59.871" transform="translate(-63.979 -1.911)" fill="#5c301d"/>
            <path id="Trazado_1274378" data-name="Trazado 1274378" d="M385.385,11.474c-.09.522.028.978.264,1.018s.5-.349.59-.871-.028-.977-.264-1.018-.5.349-.59.871" transform="translate(-62.942 -1.731)" fill="#5c301d"/>
            <path id="Trazado_1274379" data-name="Trazado 1274379" d="M388.79,16.232l.439.136a.309.309,0,0,0,.4-.286l.069-2.5Z" transform="translate(-63.503 -2.219)" fill="#ffab8a"/>
            <path id="Trazado_1274380" data-name="Trazado 1274380" d="M389.3,18.425l-3.1-.552a1.826,1.826,0,0,0,1.534,1.27,1.337,1.337,0,0,0,1.565-.718" transform="translate(-63.08 -2.919)" fill="#fff"/>
            <path id="Trazado_1274381" data-name="Trazado 1274381" d="M393.583,9.541l-.873,2.292.245-3.628-.536-1.712L391.127,4.86s-4.037,1.508-6.7.679a5.006,5.006,0,0,0,1.883-1.513,14.821,14.821,0,0,1-4.77,1.6s-1.844,1.918-1.793,3.334a3.074,3.074,0,0,1-1.211-2.932A13.9,13.9,0,0,1,381.1,1.1,17.089,17.089,0,0,1,385.382,0c.484.084,4.587,1.836,4.587,1.836s2.874,1.846,3.26,2.1.771,2.339.874,2.6a21.355,21.355,0,0,1-.52,3" transform="translate(-61.821 0)" fill="#f05823"/>
            <path id="Trazado_1274382" data-name="Trazado 1274382" d="M408.431,57.165,409.3,60.5l-1.448,5.313-4.953-1.04.735-4.362-1.642-2.84Z" transform="translate(-65.66 -9.337)" fill="#ffca9f"/>
            <path id="Trazado_1274383" data-name="Trazado 1274383" d="M408.1,51.121l.758,4.741-7.773,2.83-1.795-4.624Z" transform="translate(-65.218 -8.35)" fill="#eae9e8"/>
            <path id="Trazado_1274384" data-name="Trazado 1274384" d="M368.415,50.418l-8.767-3.6-.167,5.23,7.593,2.733Z" transform="translate(-58.716 -7.647)" fill="#eae9e8"/>
            <path id="Trazado_1274385" data-name="Trazado 1274385" d="M395.956,12.727c.521-.608.9-.421.8-.028s-.519,1.5-1.006,1.681c0,0,.864-1.237.684-1.585s-.479-.069-.479-.069" transform="translate(-64.64 -2.015)" fill="#f99273"/>
            <path id="Trazado_1274386" data-name="Trazado 1274386" d="M417.53,67.645H389.038a1.676,1.676,0,0,1-1.642-2.009l2.572-12.672a1.676,1.676,0,0,1,1.642-1.342H420.1a1.675,1.675,0,0,1,1.642,2.009L419.171,66.3a1.675,1.675,0,0,1-1.642,1.342" transform="translate(-63.27 -8.432)" fill="#e3f5fc"/>
            <path id="Trazado_1274387" data-name="Trazado 1274387" d="M418.82,67.645H390.328a1.676,1.676,0,0,1-1.642-2.009l2.572-12.672a1.676,1.676,0,0,1,1.642-1.342h28.492a1.675,1.675,0,0,1,1.642,2.009L420.462,66.3a1.675,1.675,0,0,1-1.642,1.342" transform="translate(-63.481 -8.432)" fill="#f8fdff"/>
            <path id="Trazado_1274388" data-name="Trazado 1274388" d="M413.823,73.45H384.588a1.338,1.338,0,1,1,0-2.676h29.236a1.338,1.338,0,1,1,0,2.676" transform="translate(-62.598 -11.56)" fill="#e3f5fc"/>
            <path id="Trazado_1274389" data-name="Trazado 1274389" d="M418.779,73.45H389.544a1.338,1.338,0,0,1,0-2.676h29.236a1.338,1.338,0,1,1,0,2.676" transform="translate(-63.408 -11.56)" fill="#f8fdff"/>
            <path id="Trazado_1274390" data-name="Trazado 1274390" d="M411.559,61.129a1.816,1.816,0,1,1-1.816-1.816,1.815,1.815,0,0,1,1.816,1.816" transform="translate(-66.629 -9.688)" fill="#e3f5fc"/>
            <path id="Trazado_1274391" data-name="Trazado 1274391" d="M70.692,223.558l.417,5.063h5.22l-.314-6.055Z" transform="translate(-11.546 -36.353)" fill="#ffca9f"/>
            <path id="Trazado_1274392" data-name="Trazado 1274392" d="M27.228,164.287a6.885,6.885,0,0,0-.151,3.59c.515,1.5.18,2.871.863,4.8-.28.73-1.48-.174-1.76-1.6s-.284-1.064-.284-1.064-1.238,3.532-1.631,4.943-1.435.809-1.138-.262c.311-1.123.686-3.58.686-3.58s-1.747,5.09-2.451,4.9c-.8-.223-.188-1.825.826-5.431,0,0-1.367,3.97-2.108,3.639-.863-.387,1.035-4.946,1.035-4.946s-1.035,3.132-1.889,2.851c-.637-.21.962-2.859,2.308-5.273s2.021-1.8,2.4-3.474Z" transform="translate(-3.117 -26.685)" fill="#ffca9f"/>
            <path id="Trazado_1274393" data-name="Trazado 1274393" d="M32.072,127.767l-1.131,1.384a6.614,6.614,0,0,0-1.349,2.814L24.88,157.558l3.342,1.4L38.87,130.682Z" transform="translate(-4.064 -20.869)" fill="#6cb9ff"/>
            <path id="Trazado_1274394" data-name="Trazado 1274394" d="M48.979,103.809l-8.815,21.836-7.36-2.669,6.746-22.534a4.974,4.974,0,0,1,4.184-3.514h3.385Z" transform="translate(-5.358 -15.832)" fill="#6cb9ff"/>
            <rect id="Rectángulo_464697" data-name="Rectángulo 464697" width="16.333" height="18.287" transform="translate(44.256 116.597)" fill="#644602"/>
            <path id="Trazado_1274395" data-name="Trazado 1274395" d="M61.535,140.655l3.823,35.791H76.572l.448-35.791Z" transform="translate(-10.051 -22.974)" fill="#644602"/>
            <path id="Trazado_1274396" data-name="Trazado 1274396" d="M65.094,146.966v9.627l-1.651,1.318V146.6Z" transform="translate(-10.363 -23.944)" fill="#644602"/>
            <path id="Trazado_1274397" data-name="Trazado 1274397" d="M48.186,140.655l.567,35.791H59.967l.448-35.791Z" transform="translate(-7.87 -22.974)" fill="#644602"/>
            <path id="Trazado_1274398" data-name="Trazado 1274398" d="M79.975,99.139l18.363,9.269L97.3,115.861l-22.553-8.856a4.662,4.662,0,0,1-2.953-4.183l.959-2.518,3.563-1.355a4.534,4.534,0,0,1,3.655.19" transform="translate(-11.727 -16.113)" fill="#6cb9ff"/>
            <path id="Trazado_1274399" data-name="Trazado 1274399" d="M73.367,97.574c-1.561-2.031-12.614-4.856-12.614-4.856H58.27S46.5,94.094,44.233,96.957l2.308,44.852,30.037-.356Z" transform="translate(-7.225 -15.144)" fill="#6cb9ff"/>
            <path id="Trazado_1274400" data-name="Trazado 1274400" d="M46.15,135.04c.016.044.032.089.049.132,2.431,6.419,14.366,9.337,19.138,9.775,4.8.44-4.618,1.949-4.618,1.949H46.76" transform="translate(-7.538 -22.057)" fill="#344866"/>
            <path id="Trazado_1274401" data-name="Trazado 1274401" d="M66.3,94.545c-1.631,4.98-7.2,5.957-10.1-.213a1.5,1.5,0,0,1,1.051-2.12,16.331,16.331,0,0,1,8.086.442,1.5,1.5,0,0,1,.964,1.891" transform="translate(-9.155 -15.01)" fill="#9ed1ff"/>
            <path id="Trazado_1274402" data-name="Trazado 1274402" d="M66.1,183.433,70,219.04h5.553l1.765-35.607Z" transform="translate(-10.797 -29.961)" fill="#644602"/>
            <path id="Trazado_1274403" data-name="Trazado 1274403" d="M23.048,214.879l-2.923,4.155,4.007,3.344,3.639-4.848Z" transform="translate(-3.287 -35.097)" fill="#ffca9f"/>
            <path id="Trazado_1274404" data-name="Trazado 1274404" d="M45.535,181.912l-23.3,29.058,4.263,3.557,27.132-24.116a5.471,5.471,0,0,0,1.819-3.662l.279-3.565Z" transform="translate(-3.632 -29.713)" fill="#644602"/>
            <path id="Trazado_1274405" data-name="Trazado 1274405" d="M66.348,67.714l-1.053.195a12.975,12.975,0,0,0-3.834-2.632c-1.857-.659-7.478.584-7.421.574S49.69,70.2,49.69,70.2s-.706,5.685-.185,7.635a11.26,11.26,0,0,0,.487,1.4,14.653,14.653,0,0,0,7.039,7.4c.936.468,2.364.858,2.376.689.033-.469,3.967-13.584,3.967-13.584l5.785,3.5Z" transform="translate(-8.055 -10.63)" fill="#d38d4f"/>
            <path id="Trazado_1274406" data-name="Trazado 1274406" d="M59.617,89.1v4.329a2.408,2.408,0,0,0,4.815,0V89.1L62.5,88.459l-.472-.156-.471.156Z" transform="translate(-9.738 -14.423)" fill="#ffab8a"/>
            <path id="Trazado_1274407" data-name="Trazado 1274407" d="M71.742,79.076c.443-1.811,1.24-1.206,1.42.131S72.53,82.67,71.8,81.954l-.41-2.213Z" transform="translate(-11.661 -12.731)" fill="#ffab8a"/>
            <path id="Trazado_1274408" data-name="Trazado 1274408" d="M54.244,81.651c1.707,4.48,5.889,8.026,9.827,7.3.087-.016.182-.018.272-.033s.175-.061.259-.1c5.08-2.006,5.88-6.265,5.313-11.026-.933-7.045-7.574-6.586-9.559-6.284l-.272.046-.032.008c-.072.024-.161.052-.262.086-1.9.655-7.994,3.334-5.546,10" transform="translate(-8.767 -11.657)" fill="#ffca9f"/>
            <path id="Trazado_1274409" data-name="Trazado 1274409" d="M69.333,80.705c.105.567.4.988.654.94s.378-.546.273-1.113-.4-.988-.653-.94-.379.546-.274,1.113" transform="translate(-11.318 -13)" fill="#5c301d"/>
            <path id="Trazado_1274410" data-name="Trazado 1274410" d="M63.194,81.844c.105.567.4.988.654.94s.378-.546.273-1.113-.4-.988-.654-.94-.378.546-.273,1.113" transform="translate(-10.316 -13.186)" fill="#5c301d"/>
            <path id="Trazado_1274411" data-name="Trazado 1274411" d="M67.314,85.629l.5-.028a.336.336,0,0,0,.3-.443l-.874-2.576Z" transform="translate(-10.983 -13.489)" fill="#ffab8a"/>
            <path id="Trazado_1274412" data-name="Trazado 1274412" d="M67.214,87.859l-3.374.608a1.987,1.987,0,0,0,2.047.716c1.341-.3,1.327-1.324,1.327-1.324" transform="translate(-10.427 -14.35)" fill="#fff"/>
            <path id="Trazado_1274413" data-name="Trazado 1274413" d="M54.3,79.464,55.489,80.8l-.652,1.519,2.045,4.708s-4.632-5.042-4.736-5.606-.444-4.868-.444-4.868l2.663-.494.594,1.883Z" transform="translate(-8.445 -12.423)" fill="#d38d4f"/>
            <path id="Trazado_1274414" data-name="Trazado 1274414" d="M56.48,81.859c-1.39-2-2.269-.828-1.861.888s2.4,3.931,2.95,2.716l-.537-2.894Z" transform="translate(-8.905 -13.199)" fill="#ffca9f"/>
            <path id="Trazado_1274415" data-name="Trazado 1274415" d="M45.625,118.5l-.6-7.019L43.05,125.018Z" transform="translate(-7.032 -18.209)" fill="#344866"/>
            <path id="Trazado_1274416" data-name="Trazado 1274416" d="M26.61,210.529c-1.97,4.26.709,6.5.709,6.5L23.7,214.009Z" transform="translate(-3.872 -34.387)" fill="#402d02"/>
            <path id="Trazado_1274417" data-name="Trazado 1274417" d="M77.05,218.132c-.181,3.645-3.873,4.533-3.873,4.533h3.648Z" transform="translate(-11.952 -35.629)" fill="#402d02"/>
            <path id="Trazado_1274418" data-name="Trazado 1274418" d="M77.329,223.549H69.26l.754,3.027h6.712Z" transform="translate(-11.313 -36.514)" fill="#ae7c0c"/>
            <path id="Trazado_1274419" data-name="Trazado 1274419" d="M29.033,219.356l-6.195-5.171-1.361,2.808,5.153,4.3Z" transform="translate(-3.508 -34.984)" fill="#ae7c0c"/>
            <path id="Trazado_1274420" data-name="Trazado 1274420" d="M69.912,239.8H86.564a2.631,2.631,0,0,0-.184-.832l0-.005c-.668-1.663-2.979-2.364-5.6-3.5a6.427,6.427,0,0,1-3.559-4.541v-1.292a.951.951,0,0,0-.951-.951H71.256a.947.947,0,0,0-.945,1.06,4.9,4.9,0,0,0,.134.661h.005a3.709,3.709,0,0,0,.246.677c-.783,2.4-.783,8.718-.783,8.718" transform="translate(-11.419 -37.352)" fill="#5f7e93"/>
            <path id="Trazado_1274421" data-name="Trazado 1274421" d="M79.76,234.9a3.8,3.8,0,0,0-3.011,2.828" transform="translate(-12.536 -38.367)" fill="none" stroke="#fff" stroke-miterlimit="10" stroke-width="1"/>
            <path id="Trazado_1274422" data-name="Trazado 1274422" d="M82.271,236.387a4.026,4.026,0,0,0-1.655,2.39" transform="translate(-13.167 -38.61)" fill="none" stroke="#fff" stroke-miterlimit="10" stroke-width="1"/>
            <path id="Trazado_1274423" data-name="Trazado 1274423" d="M69.912,240.135H86.564a2.631,2.631,0,0,0-.184-.832l0-.005a20.16,20.16,0,0,1-5.856.426c-3.766-.17-7.915.411-9.109-.953s-.885-5.009-.412-6.339c.247-.677,1.247-.88,2.181-.924a5.553,5.553,0,0,1-2.732-.769,3.71,3.71,0,0,0,.246.677c-.783,2.4-.783,8.718-.783,8.718" transform="translate(-11.419 -37.688)" fill="#426070"/>
            <path id="Trazado_1274424" data-name="Trazado 1274424" d="M86.533,241.93a2.457,2.457,0,0,1,0,1.123H69.745a2.144,2.144,0,0,1,.136-1.123c.238-.444,16.652,0,16.652,0" transform="translate(-11.388 -39.484)" fill="#eae9e8"/>
            <path id="Trazado_1274425" data-name="Trazado 1274425" d="M11.108,226.625l12.784,10.67a2.624,2.624,0,0,0,.392-.756v-.007c.553-1.7-.772-3.723-2.062-6.274a6.425,6.425,0,0,1,.177-5.766l.827-.991a.951.951,0,0,0-.12-1.34l-3.844-3.208a.946.946,0,0,0-1.4.208,4.936,4.936,0,0,0-.321.593l0,0a3.742,3.742,0,0,0-.245.677c-2.141,1.344-6.187,6.191-6.187,6.191" transform="translate(-1.814 -35.726)" fill="#5f7e93"/>
            <path id="Trazado_1274426" data-name="Trazado 1274426" d="M22.847,229.322a3.805,3.805,0,0,0-4.125.242" transform="translate(-3.058 -37.372)" fill="none" stroke="#fff" stroke-miterlimit="10" stroke-width="1"/>
            <path id="Trazado_1274427" data-name="Trazado 1274427" d="M23.874,232a4.029,4.029,0,0,0-2.8.775" transform="translate(-3.442 -37.893)" fill="none" stroke="#fff" stroke-miterlimit="10" stroke-width="1"/>
            <path id="Trazado_1274428" data-name="Trazado 1274428" d="M11.108,226.825,23.892,237.5a2.624,2.624,0,0,0,.392-.756v-.007a20.144,20.144,0,0,1-4.768-3.425c-2.783-2.543-6.34-4.756-6.383-6.568s2.53-4.413,3.746-5.13c.623-.361,1.522.124,2.267.689a5.551,5.551,0,0,1-1.6-2.34,3.742,3.742,0,0,0-.245.677c-2.141,1.344-6.187,6.191-6.187,6.191" transform="translate(-1.814 -35.927)" fill="#426070"/>
            <path id="Trazado_1274429" data-name="Trazado 1274429" d="M23.731,238.836a2.449,2.449,0,0,1-.72.862l-12.89-10.758a2.149,2.149,0,0,1,.825-.774c.468-.189,12.784,10.67,12.784,10.67" transform="translate(-1.653 -37.267)" fill="#eae9e8"/>
            <path id="Trazado_1274430" data-name="Trazado 1274430" d="M56.751,82.856c-.634-.921-1.151-.543-1.284-.225a3.532,3.532,0,0,0,1.576,2.406s-1.167-1.082-1.03-1.943.708-.1.708-.1Z" transform="translate(-9.058 -13.439)" fill="#f99273"/>
            <path id="Trazado_1274431" data-name="Trazado 1274431" d="M69.45,75.479c1-5.15-.6-9.017-3.469-11.261s-5.26-1.337-5.26-1.337-2.591.944-2.68,2-.333,1.157-.333,1.157-5.439,3.74-5.476,5.511,8.624-.829,8.624-.829l4.468-.085,2.792,2.5Z" transform="translate(-8.531 -10.241)" fill="#d38d4f"/>
            <path id="Trazado_1274432" data-name="Trazado 1274432" d="M67.806,73.432c-2.343-1.5-5.063-.621-6.692.1a22.027,22.027,0,0,0-3.334,1.946s-.284-1.266.576-1.771c0,0-2.574,2.236-2.228,4.513s.583,3.143.583,3.143-1.04-1.816-2.293-2.19-1.922-1.729-1.688-2.3,1.811-4.545,1.811-4.545,2.822-1.547,3.431-1.736A31.352,31.352,0,0,1,63.4,70a20.107,20.107,0,0,1,2.95.855l1.595,1.183Z" transform="translate(-8.605 -11.431)" fill="#d38d4f"/>
            <path id="Trazado_1274433" data-name="Trazado 1274433" d="M45.707,149.565a2.226,2.226,0,0,1,2.157-2.224c8.715-.279,27.56-.889,29.465-.254,2.082.694.521,6.7.521,6.7s-24.394,1.921-28.484,1.156c-3.342-.625-3.655-2.427-3.659-5.377" transform="translate(-7.466 -23.979)" fill="#9ed1ff"/>
            <path id="Trazado_1274434" data-name="Trazado 1274434" d="M109.14,84.4a6.31,6.31,0,0,0-.172-3.292c-.6-1.322-.412-2.607-1.2-4.312.193-.69,1.367.032,1.745,1.314s.353.948.353.948.826-3.333,1.062-4.658,1.242-.863,1.063.141c-.187,1.053-.317,3.33-.317,3.33s1.155-4.8,1.816-4.684c.755.135.33,1.652-.284,5.033,0,0,.905-3.746,1.611-3.506.822.278-.518,4.608-.518,4.608s.675-2.95,1.479-2.768c.6.137-.632,2.7-1.652,5.017s-1.69,1.823-1.892,3.381Z" transform="translate(-17.602 -11.954)" fill="#ffca9f"/>
            <path id="Trazado_1274435" data-name="Trazado 1274435" d="M110.579,80.58c1.315.7,1.346,2.786,1.346,2.786s1.037-1.656,2.062-1.608a1.478,1.478,0,0,0-1.713.4,1.61,1.61,0,0,0-1.7-1.576" transform="translate(-18.061 -13.161)" fill="#ffb185"/>
            <path id="Trazado_1274436" data-name="Trazado 1274436" d="M99.888,113.073l1.64.568a4.865,4.865,0,0,0,6.4-3.849L111,86.061l-2.744-1.195-7.084,20.793Z" transform="translate(-16.315 -13.862)" fill="#6cb9ff"/>
            <path id="Trazado_1274437" data-name="Trazado 1274437" d="M24.2,160.119l5.366,1.611s-.282,2.574-1.339,2.927-4.867-1.34-4.867-1.34a4.2,4.2,0,0,1,.841-3.2" transform="translate(-3.809 -26.153)" fill="#9ed1ff"/>
            <path id="Trazado_1274438" data-name="Trazado 1274438" d="M108.787,84.867A6.832,6.832,0,0,1,112.736,86l-.475,2.749s-4.089-.643-4.522-1.38.317-2.5,1.048-2.5" transform="translate(-17.577 -13.862)" fill="#9ed1ff"/>
          </g>
        </g>
      </g>
    </g>
    <rect id="Rectángulo_464700" data-name="Rectángulo 464700" width="396" height="214" transform="translate(288.63 880)" fill="none"/>
  </g>
</svg>
