<svg xmlns="http://www.w3.org/2000/svg" width="396" height="953" viewBox="0 0 396 953">
  <g id="Grupo_1212383" data-name="Grupo 1212383" transform="translate(3295 10228)">
    <g id="Grupo_1212381" data-name="Grupo 1212381">
      <g id="Grupo_1212286" data-name="Grupo 1212286" transform="translate(-3585 -21841)">
        <path id="Trazado_1285073" data-name="Trazado 1285073" d="M18,0H378a18,18,0,0,1,18,18V935a18,18,0,0,1-18,18H18A18,18,0,0,1,0,935V18A18,18,0,0,1,18,0Z" transform="translate(290 11613)" fill="#cfe8ff"/>
        <path id="Trazado_1285074" data-name="Trazado 1285074" d="M19,0H99a19,19,0,0,1,19,19V49A19,19,0,0,1,99,68H19A19,19,0,0,1,0,49V19A19,19,0,0,1,19,0Z" transform="translate(326 11659.5)" fill="#69d7e5"/>
        <path id="Trazado_1285075" data-name="Trazado 1285075" d="M19,0H120a19,19,0,0,1,19,19V49a19,19,0,0,1-19,19H19A19,19,0,0,1,0,49V19A19,19,0,0,1,19,0Z" transform="translate(389 12158.148)" fill="#69d7e5"/>
        <path id="Trazado_1285076" data-name="Trazado 1285076" d="M22.547,16h5.288v2H20.056V5.914h2.49Zm9.206,0H37.04v2H29.262V5.914h2.49Zm13.7-.49H41.082L40.252,18H37.6L42.1,5.914h2.308L48.935,18H46.287Zm-3.694-2.017h3.021L43.257,8.969ZM53.89,15,56.63,5.914H59.4L55.194,18H52.6L48.4,5.914h2.764Zm13.92-2.241H63.03V16h5.611v2h-8.1V5.914h8.085V7.931H63.03v2.88h4.781ZM7.4,37.742V42H4.907V29.914H9.622a5.455,5.455,0,0,1,2.395.5,3.67,3.67,0,0,1,1.59,1.415,3.946,3.946,0,0,1,.556,2.088,3.47,3.47,0,0,1-1.216,2.8,5.065,5.065,0,0,1-3.366,1.025Zm0-2.017H9.622a2.187,2.187,0,0,0,1.507-.465,1.691,1.691,0,0,0,.519-1.328,1.994,1.994,0,0,0-.523-1.436,1.953,1.953,0,0,0-1.444-.564H7.4Zm12.949,1.851H18.363V42h-2.49V29.914h4.491a5.076,5.076,0,0,1,3.3.955,3.3,3.3,0,0,1,1.162,2.7,3.718,3.718,0,0,1-.535,2.063,3.651,3.651,0,0,1-1.623,1.316l2.615,4.939V42H22.613Zm-1.984-2.017h2.009a2.057,2.057,0,0,0,1.453-.477,1.706,1.706,0,0,0,.515-1.316,1.826,1.826,0,0,0-.486-1.345,2.018,2.018,0,0,0-1.49-.49h-2ZM29.37,42H26.88V29.914h2.49Zm5.562-12.086,3.1,8.766,3.088-8.766h3.271V42H41.9V38.7l.249-5.7L38.883,42h-1.71l-3.254-9,.249,5.694V42h-2.49V29.914Zm18.461,9.6H49.026L48.2,42H45.548l4.5-12.086h2.308L56.879,42H54.231ZM49.7,37.493H52.72L51.2,32.969Zm12.783.083H60.5V42h-2.49V29.914H62.5a5.077,5.077,0,0,1,3.3.955,3.3,3.3,0,0,1,1.162,2.7,3.718,3.718,0,0,1-.535,2.063,3.651,3.651,0,0,1-1.623,1.316l2.615,4.939V42H64.748ZM60.5,35.559h2.009a2.057,2.057,0,0,0,1.453-.477,1.706,1.706,0,0,0,.515-1.316,1.826,1.826,0,0,0-.486-1.345,2.018,2.018,0,0,0-1.49-.49h-2ZM71.5,42h-2.49V29.914H71.5Zm9.131-2.49H76.269L75.439,42H72.791l4.5-12.086H79.6L84.122,42H81.474Zm-3.694-2.017h3.021l-1.519-4.524Z" transform="translate(341 11668.5)" fill="#12263f"/>
        <path id="Trazado_1285077" data-name="Trazado 1285077" d="M33.047,16h5.288v2H30.556V5.914h2.49Zm9.206,0H47.54v2H39.762V5.914h2.49Zm13.7-.49H51.582L50.752,18H48.1L52.6,5.914h2.308L59.435,18H56.787Zm-3.694-2.017h3.021L53.757,8.969ZM64.39,15,67.13,5.914H69.9L65.694,18H63.1L58.9,5.914h2.764Zm13.92-2.241H73.53V16h5.611v2h-8.1V5.914h8.085V7.931H73.53v2.88h4.781ZM9.817,38.829a1.278,1.278,0,0,0-.5-1.083,6.533,6.533,0,0,0-1.793-.8,12.71,12.71,0,0,1-2.05-.826,3.35,3.35,0,0,1-2.059-3,2.919,2.919,0,0,1,.552-1.747,3.6,3.6,0,0,1,1.585-1.2,5.967,5.967,0,0,1,2.32-.432,5.432,5.432,0,0,1,2.308.469,3.674,3.674,0,0,1,1.573,1.324,3.464,3.464,0,0,1,.56,1.942H9.825A1.63,1.63,0,0,0,9.3,32.193a2.15,2.15,0,0,0-1.469-.461,2.3,2.3,0,0,0-1.419.386,1.217,1.217,0,0,0-.506,1.017,1.166,1.166,0,0,0,.594.988,6.705,6.705,0,0,0,1.747.747,7.55,7.55,0,0,1,3.1,1.585,3.157,3.157,0,0,1,.971,2.357,2.909,2.909,0,0,1-1.187,2.461,5.2,5.2,0,0,1-3.2.892,6.171,6.171,0,0,1-2.54-.51,4.019,4.019,0,0,1-1.747-1.4,3.582,3.582,0,0,1-.6-2.059h2.5q0,2,2.391,2a2.326,2.326,0,0,0,1.386-.361A1.175,1.175,0,0,0,9.817,38.829Zm11.455-2.067H16.491V40H22.1v2H14V29.914h8.085v2.017H16.491v2.88h4.781Zm11.779,1.212a4.277,4.277,0,0,1-1.44,3.071,5.058,5.058,0,0,1-3.424,1.121A4.548,4.548,0,0,1,24.53,40.6a6.416,6.416,0,0,1-1.332-4.3v-.739a7.245,7.245,0,0,1,.614-3.071,4.6,4.6,0,0,1,1.756-2.038,4.918,4.918,0,0,1,2.652-.71,4.927,4.927,0,0,1,3.37,1.121,4.6,4.6,0,0,1,1.478,3.146h-2.49a2.524,2.524,0,0,0-.652-1.7,2.413,2.413,0,0,0-1.706-.527,2.116,2.116,0,0,0-1.864.892,5,5,0,0,0-.635,2.768v.913a5.352,5.352,0,0,0,.594,2.864,2.077,2.077,0,0,0,1.872.9,2.458,2.458,0,0,0,1.722-.527,2.381,2.381,0,0,0,.652-1.631Zm10.783-8.06v7.96a4.076,4.076,0,0,1-1.241,3.138A4.784,4.784,0,0,1,39.2,42.166a4.838,4.838,0,0,1-3.362-1.121,4.006,4.006,0,0,1-1.27-3.08V29.914h2.49v7.977a2.3,2.3,0,0,0,.569,1.731,2.183,2.183,0,0,0,1.573.544q2.1,0,2.133-2.208V29.914ZM55.7,42h-2.49l-4.848-7.952V42h-2.49V29.914h2.49l4.856,7.969V29.914H55.7Zm2.175,0V29.914H61.6a5.647,5.647,0,0,1,2.851.718,5.007,5.007,0,0,1,1.963,2.042,6.3,6.3,0,0,1,.706,3.009v.556a6.316,6.316,0,0,1-.693,3,4.964,4.964,0,0,1-1.955,2.034,5.69,5.69,0,0,1-2.847.73Zm2.49-10.069V40h1.2a2.7,2.7,0,0,0,2.233-.955,4.314,4.314,0,0,0,.789-2.731v-.639a4.382,4.382,0,0,0-.764-2.793,2.7,2.7,0,0,0-2.233-.95ZM75.75,39.51H71.384L70.554,42H67.906l4.5-12.086h2.308L79.236,42H76.588Zm-3.694-2.017h3.021l-1.519-4.524Zm12.783.083H82.855V42h-2.49V29.914h4.491a5.077,5.077,0,0,1,3.3.955,3.3,3.3,0,0,1,1.162,2.7,3.718,3.718,0,0,1-.535,2.063,3.651,3.651,0,0,1-1.623,1.316l2.615,4.939V42H87.105Zm-1.984-2.017h2.009a2.057,2.057,0,0,0,1.453-.477,1.706,1.706,0,0,0,.515-1.316,1.826,1.826,0,0,0-.486-1.345,2.018,2.018,0,0,0-1.49-.49h-2ZM93.862,42h-2.49V29.914h2.49Zm9.131-2.49H98.627L97.8,42H95.149l4.5-12.086h2.308L106.479,42h-2.648ZM99.3,37.493h3.021L100.8,32.969Z" transform="translate(404 12167.148)" fill="#12263f"/>
        <g id="Trazado_1285078" data-name="Trazado 1285078" transform="translate(464 11665)" fill="#fff">
          <path d="M 187 165 L 1 165 L 1 1 L 187 1 L 187 165 Z" stroke="none"/>
          <path d="M 2 2 L 2 164 L 186 164 L 186 2 L 2 2 M 0 0 L 188 0 L 188 166 L 0 166 L 0 0 Z" stroke="none" fill="#1e535a"/>
        </g>
        <g id="Trazado_1285079" data-name="Trazado 1285079" transform="translate(324 11929.524)" fill="#fff">
          <path d="M 187 212.1484375 L 1 212.1484375 L 1 0.999996542930603 L 187 0.999996542930603 L 187 212.1484375 Z" stroke="none"/>
          <path d="M 2 2 L 2 211.1484375 L 186 211.1484375 L 186 2 L 2 2 M 0 0 L 188 0 L 188 213.1484375 L 0 213.1484375 L 0 0 Z" stroke="none" fill="#1e535a"/>
        </g>
        <path id="Trazado_1285080" data-name="Trazado 1285080" d="M5,0H183a5,5,0,0,1,5,5V32a5,5,0,0,1-5,5H5a5,5,0,0,1-5-5V5A5,5,0,0,1,5,0Z" transform="translate(464 11642)" fill="#1e535a"/>
        <path id="Trazado_1285081" data-name="Trazado 1285081" d="M5,0H183a5,5,0,0,1,5,5V32a5,5,0,0,1-5,5H5a5,5,0,0,1-5-5V5A5,5,0,0,1,5,0Z" transform="translate(324 11906.524)" fill="#1e535a"/>
        <path id="Trazado_1285082" data-name="Trazado 1285082" d="M50.468,14.065a4.364,4.364,0,0,1-1.428,3.017,4.867,4.867,0,0,1-3.312,1.083,4.713,4.713,0,0,1-2.544-.685,4.5,4.5,0,0,1-1.7-1.947,7.024,7.024,0,0,1-.623-2.93V11.476a7.075,7.075,0,0,1,.606-3.013,4.567,4.567,0,0,1,1.739-2.009,4.851,4.851,0,0,1,2.619-.706,4.672,4.672,0,0,1,3.221,1.083A4.527,4.527,0,0,1,50.468,9.9H48.376a2.985,2.985,0,0,0-.76-1.88,2.51,2.51,0,0,0-1.789-.577,2.452,2.452,0,0,0-2.1,1,5,5,0,0,0-.751,2.937v1.072a5.308,5.308,0,0,0,.7,2.991,2.328,2.328,0,0,0,2.054,1.03,2.715,2.715,0,0,0,1.859-.556,2.9,2.9,0,0,0,.789-1.851Zm3.976,2.258h5.487V18H52.344V5.914h2.1ZM63.758,18H61.666V5.914h2.092ZM73.4,12.6H68.439v3.719h5.8V18h-7.9V5.914h7.844V7.607H68.439v3.337H73.4ZM85.539,18h-2.1L78.052,9.425V18h-2.1V5.914h2.1l5.4,8.608V5.914h2.083ZM96.753,7.607H92.985V18H90.9V7.607H87.166V5.914h9.587Zm8.649,5h-4.964v3.719h5.8V18h-7.9V5.914h7.844V7.607h-5.744v3.337H105.4Zm8.865,2.283a1.459,1.459,0,0,0-.56-1.229,6.741,6.741,0,0,0-2.021-.872,9.76,9.76,0,0,1-2.324-.979A3.1,3.1,0,0,1,107.71,9.1,2.945,2.945,0,0,1,108.9,6.694a4.821,4.821,0,0,1,3.092-.946,5.223,5.223,0,0,1,2.25.465A3.692,3.692,0,0,1,115.8,7.537a3.4,3.4,0,0,1,.564,1.905h-2.092a1.894,1.894,0,0,0-.594-1.482,2.45,2.45,0,0,0-1.7-.535,2.558,2.558,0,0,0-1.6.44,1.465,1.465,0,0,0-.569,1.229,1.325,1.325,0,0,0,.614,1.108,7.076,7.076,0,0,0,2.025.863,9.316,9.316,0,0,1,2.266.955,3.6,3.6,0,0,1,1.253,1.229,3.2,3.2,0,0,1,.4,1.623,2.876,2.876,0,0,1-1.158,2.4,5.023,5.023,0,0,1-3.142.892,5.9,5.9,0,0,1-2.411-.486,4.051,4.051,0,0,1-1.71-1.341,3.341,3.341,0,0,1-.61-1.992h2.1a1.955,1.955,0,0,0,.681,1.594,2.981,2.981,0,0,0,1.951.564,2.59,2.59,0,0,0,1.648-.444A1.433,1.433,0,0,0,114.268,14.887Z" transform="translate(480 11649)" fill="#fff"/>
        <path id="Trazado_1285083" data-name="Trazado 1285083" d="M52.2,15.369,55.27,5.914h2.308L53.228,18H51.195L46.862,5.914h2.3ZM66,12.6H61.039v3.719h5.8V18h-7.9V5.914h7.844V7.607H61.039v3.337H66ZM78.139,18h-2.1L70.652,9.425V18h-2.1V5.914h2.1l5.4,8.608V5.914h2.083ZM89.353,7.607H85.585V18H83.5V7.607H79.766V5.914h9.587Zm7.354,7.579H92.026L91.047,18H88.864L93.429,5.914h1.884L99.887,18H97.7Zm-4.092-1.693h3.5L94.367,8.479Zm14.958,1.395a1.459,1.459,0,0,0-.56-1.229,6.741,6.741,0,0,0-2.021-.872,9.76,9.76,0,0,1-2.324-.979A3.1,3.1,0,0,1,101.016,9.1a2.945,2.945,0,0,1,1.191-2.407,4.821,4.821,0,0,1,3.092-.946,5.223,5.223,0,0,1,2.25.465A3.692,3.692,0,0,1,109.1,7.537a3.4,3.4,0,0,1,.564,1.905h-2.092a1.894,1.894,0,0,0-.594-1.482,2.45,2.45,0,0,0-1.7-.535,2.558,2.558,0,0,0-1.6.44,1.465,1.465,0,0,0-.569,1.229,1.325,1.325,0,0,0,.614,1.108,7.076,7.076,0,0,0,2.025.863,9.316,9.316,0,0,1,2.266.955,3.6,3.6,0,0,1,1.253,1.229,3.2,3.2,0,0,1,.4,1.623,2.876,2.876,0,0,1-1.158,2.4,5.023,5.023,0,0,1-3.142.892,5.9,5.9,0,0,1-2.411-.486,4.051,4.051,0,0,1-1.71-1.341,3.341,3.341,0,0,1-.61-1.992h2.1a1.955,1.955,0,0,0,.681,1.594,2.981,2.981,0,0,0,1.951.564,2.59,2.59,0,0,0,1.648-.444A1.433,1.433,0,0,0,107.573,14.887Z" transform="translate(340 11913.524)" fill="#fff"/>
        <path id="Trazado_1285084" data-name="Trazado 1285084" d="M13.892,14.6h-1.6l-.6,3.4H10.173l.6-3.4H8.886V13.169H11.02l.415-2.357H9.509V9.367h2.183L12.3,5.914h1.511L13.2,9.367h1.61l.606-3.453h1.519l-.606,3.453H18.15v1.444H16.075l-.415,2.357h1.859V14.6H15.411l-.6,3.4H13.294Zm-1.353-1.428h1.6l.415-2.357h-1.61Zm20.744.805a4.277,4.277,0,0,1-1.44,3.071,5.058,5.058,0,0,1-3.424,1.121A4.548,4.548,0,0,1,24.762,16.6a6.416,6.416,0,0,1-1.332-4.3v-.739A7.245,7.245,0,0,1,24.044,8.5,4.6,4.6,0,0,1,25.8,6.458a4.918,4.918,0,0,1,2.652-.71,4.927,4.927,0,0,1,3.37,1.121A4.6,4.6,0,0,1,33.3,10.015h-2.49a2.524,2.524,0,0,0-.652-1.7,2.413,2.413,0,0,0-1.706-.527,2.116,2.116,0,0,0-1.864.892,5,5,0,0,0-.635,2.768v.913a5.352,5.352,0,0,0,.594,2.864,2.077,2.077,0,0,0,1.872.9,2.458,2.458,0,0,0,1.722-.527,2.381,2.381,0,0,0,.652-1.631ZM37.408,16H42.7v2H34.918V5.914h2.49Zm9.363,2h-2.49V5.914h2.49Zm9.579-5.238H51.569V16H57.18v2h-8.1V5.914h8.085V7.931H51.569v2.88H56.35ZM68.469,18h-2.49l-4.848-7.952V18h-2.49V5.914h2.49l4.856,7.969V5.914h2.482ZM79.742,7.931h-3.7V18H73.55V7.931H69.9V5.914h9.845Zm8.691,4.831H83.652V16h5.611v2h-8.1V5.914h8.085V7.931H83.652v2.88h4.781ZM24.961,42h-2.49l-4.848-7.952V42h-2.49V29.914h2.49l4.856,7.969V29.914h2.482Zm12.1-5.769a7.3,7.3,0,0,1-.631,3.129,4.751,4.751,0,0,1-1.805,2.075,5.335,5.335,0,0,1-5.375.008,4.8,4.8,0,0,1-1.826-2.063,7.087,7.087,0,0,1-.656-3.084v-.6a7.258,7.258,0,0,1,.643-3.142,4.79,4.79,0,0,1,1.818-2.083,5.327,5.327,0,0,1,5.371,0,4.79,4.79,0,0,1,1.818,2.083,7.237,7.237,0,0,1,.643,3.134Zm-2.523-.548a5.086,5.086,0,0,0-.681-2.889,2.4,2.4,0,0,0-3.876-.012,5.028,5.028,0,0,0-.689,2.86v.589a5.15,5.15,0,0,0,.681,2.872,2.383,2.383,0,0,0,3.885.037,5.12,5.12,0,0,0,.681-2.868Zm7.587-5.769,3.1,8.766,3.088-8.766H51.59V42h-2.5V38.7l.249-5.7L46.078,42h-1.71l-3.254-9,.249,5.694V42h-2.49V29.914ZM53.765,42V29.914H58a5.559,5.559,0,0,1,3.337.843,2.881,2.881,0,0,1,1.137,2.469,2.731,2.731,0,0,1-.457,1.565,2.637,2.637,0,0,1-1.27.992,2.551,2.551,0,0,1,1.465.938,2.773,2.773,0,0,1,.535,1.727,3.19,3.19,0,0,1-1.112,2.64A5.007,5.007,0,0,1,58.463,42Zm2.49-5.263V40h2.133a2.059,2.059,0,0,0,1.374-.419,1.437,1.437,0,0,0,.494-1.158,1.518,1.518,0,0,0-1.718-1.685Zm0-1.76H58.1q1.884-.033,1.884-1.5a1.388,1.388,0,0,0-.477-1.183A2.51,2.51,0,0,0,58,31.931H56.255Zm12.833,2.6H67.1V42h-2.49V29.914H69.1a5.077,5.077,0,0,1,3.3.955,3.3,3.3,0,0,1,1.162,2.7,3.718,3.718,0,0,1-.535,2.063,3.651,3.651,0,0,1-1.623,1.316l2.615,4.939V42H71.354ZM67.1,35.559h2.009a2.057,2.057,0,0,0,1.453-.477,1.706,1.706,0,0,0,.515-1.316,1.826,1.826,0,0,0-.486-1.345,2.018,2.018,0,0,0-1.49-.49h-2Zm15.63,1.2H77.953V40h5.611v2h-8.1V29.914h8.085v2.017H77.953v2.88h4.781ZM17.843,63.51H13.477L12.647,66H10l4.5-12.086h2.308L21.329,66H18.681Zm-3.694-2.017h3.021l-1.519-4.524Zm10.8.249V66h-2.49V53.914h4.715a5.455,5.455,0,0,1,2.395.5,3.67,3.67,0,0,1,1.59,1.415,3.946,3.946,0,0,1,.556,2.088,3.47,3.47,0,0,1-1.216,2.8,5.065,5.065,0,0,1-3.366,1.025Zm0-2.017h2.225a2.187,2.187,0,0,0,1.507-.465,1.691,1.691,0,0,0,.519-1.328,1.994,1.994,0,0,0-.523-1.436,1.953,1.953,0,0,0-1.444-.564H24.948ZM40.7,60.762H35.914V64h5.611v2h-8.1V53.914h8.085v2.017H35.914v2.88H40.7ZM45.476,64h5.288v2H42.986V53.914h2.49Zm9.206,0h5.288v2H52.192V53.914h2.49Zm9.363,2h-2.49V53.914h2.49Zm2.308,0V53.914h3.719a5.647,5.647,0,0,1,2.851.718,5.007,5.007,0,0,1,1.963,2.042,6.3,6.3,0,0,1,.706,3.009v.556a6.316,6.316,0,0,1-.693,3,4.964,4.964,0,0,1-1.955,2.034A5.69,5.69,0,0,1,70.1,66Zm2.49-10.069V64h1.2a2.7,2.7,0,0,0,2.233-.955,4.314,4.314,0,0,0,.789-2.731v-.639a4.382,4.382,0,0,0-.764-2.793,2.7,2.7,0,0,0-2.233-.95Zm18.486,4.3A7.3,7.3,0,0,1,86.7,63.36a4.751,4.751,0,0,1-1.805,2.075,5.335,5.335,0,0,1-5.375.008,4.8,4.8,0,0,1-1.826-2.063,7.087,7.087,0,0,1-.656-3.084v-.6a7.258,7.258,0,0,1,.643-3.142A4.79,4.79,0,0,1,79.5,54.474a5.327,5.327,0,0,1,5.371,0,4.79,4.79,0,0,1,1.818,2.083,7.237,7.237,0,0,1,.643,3.134Zm-2.523-.548a5.086,5.086,0,0,0-.681-2.889,2.4,2.4,0,0,0-3.876-.012,5.028,5.028,0,0,0-.689,2.86v.589A5.15,5.15,0,0,0,80.24,63.1a2.383,2.383,0,0,0,3.885.037,5.12,5.12,0,0,0,.681-2.868ZM35.175,86.829a1.278,1.278,0,0,0-.5-1.083,6.532,6.532,0,0,0-1.793-.8,12.71,12.71,0,0,1-2.05-.826,3.35,3.35,0,0,1-2.059-3,2.919,2.919,0,0,1,.552-1.747,3.6,3.6,0,0,1,1.585-1.2,5.967,5.967,0,0,1,2.32-.432,5.432,5.432,0,0,1,2.308.469,3.674,3.674,0,0,1,1.573,1.324,3.464,3.464,0,0,1,.56,1.942h-2.49a1.63,1.63,0,0,0-.523-1.291,2.15,2.15,0,0,0-1.469-.461,2.3,2.3,0,0,0-1.419.386,1.217,1.217,0,0,0-.506,1.017,1.166,1.166,0,0,0,.594.988,6.705,6.705,0,0,0,1.747.747,7.55,7.55,0,0,1,3.1,1.585,3.157,3.157,0,0,1,.971,2.357,2.909,2.909,0,0,1-1.187,2.461,5.2,5.2,0,0,1-3.2.892,6.171,6.171,0,0,1-2.54-.51A4.019,4.019,0,0,1,29,88.257a3.582,3.582,0,0,1-.6-2.059h2.5q0,2,2.391,2a2.326,2.326,0,0,0,1.386-.361A1.175,1.175,0,0,0,35.175,86.829ZM46.63,84.762H41.849V88H47.46v2h-8.1V77.914h8.085v2.017H41.849v2.88H46.63Zm6.616-2.681,2.266-4.167h2.864l-3.52,5.993L58.467,90h-2.9l-2.324-4.233L50.922,90h-2.9l3.611-6.093-3.52-5.993H50.98Zm16.195,2.15a7.3,7.3,0,0,1-.631,3.129A4.751,4.751,0,0,1,67,89.436a5.335,5.335,0,0,1-5.375.008A4.8,4.8,0,0,1,59.8,87.381a7.087,7.087,0,0,1-.656-3.084v-.6a7.258,7.258,0,0,1,.643-3.142,4.79,4.79,0,0,1,1.818-2.083,5.327,5.327,0,0,1,5.371,0A4.79,4.79,0,0,1,68.8,80.558a7.237,7.237,0,0,1,.643,3.134Zm-2.523-.548a5.086,5.086,0,0,0-.681-2.889,2.4,2.4,0,0,0-3.876-.012,5.028,5.028,0,0,0-.689,2.86v.589a5.15,5.15,0,0,0,.681,2.872,2.383,2.383,0,0,0,3.885.037,5.12,5.12,0,0,0,.681-2.868Zm-49.56,20.248h-3.7V114h-2.49V103.931H7.513v-2.017h9.845Zm8.691,4.831H21.267V112h5.611v2h-8.1V101.914h8.085v2.017H21.267v2.88h4.781ZM30.83,112h5.288v2H28.339V101.914h2.49Zm13.987-3.237H40.035V112h5.611v2h-8.1V101.914H45.63v2.017H40.035v2.88h4.781Zm-2.6-10.11h2.615l-2.3,2.573H40.583Zm12.161,10.409H49.6V114h-2.49V101.914h7.869v2.017H49.6v3.121h4.781Zm11.97-.83a7.3,7.3,0,0,1-.631,3.129,4.751,4.751,0,0,1-1.805,2.075,5.335,5.335,0,0,1-5.375.008,4.8,4.8,0,0,1-1.826-2.063,7.087,7.087,0,0,1-.656-3.084v-.6a7.258,7.258,0,0,1,.643-3.142,4.79,4.79,0,0,1,1.818-2.083,5.327,5.327,0,0,1,5.371,0,4.79,4.79,0,0,1,1.818,2.083,7.237,7.237,0,0,1,.643,3.134Zm-2.523-.548a5.086,5.086,0,0,0-.681-2.889,2.4,2.4,0,0,0-3.876-.012,5.028,5.028,0,0,0-.689,2.86v.589a5.15,5.15,0,0,0,.681,2.872,2.383,2.383,0,0,0,3.885.037,5.12,5.12,0,0,0,.681-2.868ZM77.986,114H75.5l-4.848-7.952V114h-2.49V101.914h2.49l4.856,7.969v-7.969h2.482Zm12.1-5.769a7.3,7.3,0,0,1-.631,3.129,4.751,4.751,0,0,1-1.805,2.075,5.335,5.335,0,0,1-5.375.008,4.8,4.8,0,0,1-1.826-2.063A7.087,7.087,0,0,1,79.8,108.3v-.6a7.258,7.258,0,0,1,.643-3.142,4.79,4.79,0,0,1,1.818-2.083,5.327,5.327,0,0,1,5.371,0,4.79,4.79,0,0,1,1.818,2.083,7.237,7.237,0,0,1,.643,3.134Zm-2.523-.548a5.086,5.086,0,0,0-.681-2.889,2.4,2.4,0,0,0-3.876-.012,5.028,5.028,0,0,0-.689,2.86v.589A5.15,5.15,0,0,0,83,111.1a2.383,2.383,0,0,0,3.885.037,5.12,5.12,0,0,0,.681-2.868Z" transform="translate(509 11694.648)" fill="#12263f"/>
        <g id="Grupo_1212285" data-name="Grupo 1212285" transform="translate(-607 1352.648)">
          <g id="Rectángulo_465153" data-name="Rectángulo 465153" transform="translate(1071 11018.5)" fill="#fff" stroke="#1e535a" stroke-width="2">
            <rect width="188" height="166" stroke="none"/>
            <rect x="1" y="1" width="186" height="164" fill="none"/>
          </g>
          <rect id="Rectángulo_465154" data-name="Rectángulo 465154" width="188" height="37" rx="5" transform="translate(1071 10995.5)" fill="#1e535a"/>
          <path id="Trazado_1285087" data-name="Trazado 1285087" d="M32.659,13.518V18h-2.1V5.914h4.624A4.675,4.675,0,0,1,38.4,6.969,3.549,3.549,0,0,1,39.59,9.761a3.431,3.431,0,0,1-1.166,2.767,4.9,4.9,0,0,1-3.266.989Zm0-1.693h2.523a2.485,2.485,0,0,0,1.71-.527,1.937,1.937,0,0,0,.589-1.523,2.09,2.09,0,0,0-.6-1.565,2.3,2.3,0,0,0-1.644-.6H32.659Zm13.207,1.527H43.525V18h-2.1V5.914h4.25a4.944,4.944,0,0,1,3.229.939A3.321,3.321,0,0,1,50.041,9.57a3.4,3.4,0,0,1-.585,2.031,3.724,3.724,0,0,1-1.631,1.259l2.714,5.033V18h-2.25Zm-2.341-1.693h2.158a2.4,2.4,0,0,0,1.66-.535,1.867,1.867,0,0,0,.6-1.465,1.988,1.988,0,0,0-.552-1.5,2.345,2.345,0,0,0-1.648-.548H43.525Zm18.154.614a7.415,7.415,0,0,1-.614,3.117,4.644,4.644,0,0,1-1.756,2.059,5.15,5.15,0,0,1-5.246,0A4.716,4.716,0,0,1,52.286,15.4a7.183,7.183,0,0,1-.635-3.063v-.681a7.352,7.352,0,0,1,.627-3.121,4.71,4.71,0,0,1,1.768-2.071,5.161,5.161,0,0,1,5.238-.008A4.65,4.65,0,0,1,61.048,8.5a7.336,7.336,0,0,1,.631,3.1Zm-2.1-.631a5.283,5.283,0,0,0-.76-3.08,2.68,2.68,0,0,0-4.283,0,5.181,5.181,0,0,0-.784,3.017v.7a5.243,5.243,0,0,0,.776,3.08,2.5,2.5,0,0,0,2.154,1.087,2.47,2.47,0,0,0,2.146-1.062,5.356,5.356,0,0,0,.751-3.1ZM63.77,18V5.914H67.34a5.6,5.6,0,0,1,2.843.714A4.868,4.868,0,0,1,72.1,8.653a6.429,6.429,0,0,1,.681,3v.606a6.4,6.4,0,0,1-.685,3.021,4.809,4.809,0,0,1-1.951,2.009,5.858,5.858,0,0,1-2.9.706Zm2.1-10.393v8.716h1.37a3.154,3.154,0,0,0,2.536-1.033,4.5,4.5,0,0,0,.9-2.968V11.65a4.619,4.619,0,0,0-.855-3A3.031,3.031,0,0,0,67.34,7.607ZM83.717,5.914v8.077a3.925,3.925,0,0,1-1.233,3.051,5.4,5.4,0,0,1-6.578.017,3.944,3.944,0,0,1-1.22-3.075V5.914h2.092V14a2.568,2.568,0,0,0,.614,1.851,2.4,2.4,0,0,0,1.81.639q2.424,0,2.424-2.557V5.914ZM95.18,14.065a4.364,4.364,0,0,1-1.428,3.017,4.867,4.867,0,0,1-3.312,1.083,4.713,4.713,0,0,1-2.544-.685,4.5,4.5,0,0,1-1.7-1.947,7.024,7.024,0,0,1-.623-2.93V11.476a7.075,7.075,0,0,1,.606-3.013,4.567,4.567,0,0,1,1.739-2.009,4.851,4.851,0,0,1,2.619-.706,4.672,4.672,0,0,1,3.221,1.083A4.527,4.527,0,0,1,95.18,9.9H93.089a2.985,2.985,0,0,0-.76-1.88,2.51,2.51,0,0,0-1.789-.577,2.452,2.452,0,0,0-2.1,1,5,5,0,0,0-.751,2.937v1.072a5.308,5.308,0,0,0,.7,2.991,2.328,2.328,0,0,0,2.054,1.03,2.715,2.715,0,0,0,1.859-.556,2.9,2.9,0,0,0,.789-1.851Zm10.368-6.458H101.78V18H99.7V7.607H95.961V5.914h9.587Zm11,4.665a7.415,7.415,0,0,1-.614,3.117,4.644,4.644,0,0,1-1.756,2.059,5.15,5.15,0,0,1-5.246,0,4.716,4.716,0,0,1-1.776-2.046,7.183,7.183,0,0,1-.635-3.063v-.681a7.351,7.351,0,0,1,.627-3.121,4.71,4.71,0,0,1,1.768-2.071,5.161,5.161,0,0,1,5.238-.008A4.651,4.651,0,0,1,115.916,8.5a7.336,7.336,0,0,1,.631,3.1Zm-2.1-.631a5.283,5.283,0,0,0-.76-3.08,2.68,2.68,0,0,0-4.283,0,5.181,5.181,0,0,0-.784,3.017v.7a5.243,5.243,0,0,0,.776,3.08,2.5,2.5,0,0,0,2.154,1.087,2.47,2.47,0,0,0,2.146-1.062,5.356,5.356,0,0,0,.751-3.1Zm10.509,3.246a1.459,1.459,0,0,0-.56-1.229,6.741,6.741,0,0,0-2.021-.872,9.76,9.76,0,0,1-2.324-.979A3.1,3.1,0,0,1,118.4,9.1a2.945,2.945,0,0,1,1.191-2.407,4.821,4.821,0,0,1,3.092-.946,5.223,5.223,0,0,1,2.25.465,3.692,3.692,0,0,1,1.552,1.324,3.4,3.4,0,0,1,.564,1.905h-2.092a1.894,1.894,0,0,0-.594-1.482,2.45,2.45,0,0,0-1.7-.535,2.558,2.558,0,0,0-1.6.44,1.465,1.465,0,0,0-.569,1.229,1.325,1.325,0,0,0,.614,1.108,7.076,7.076,0,0,0,2.025.863,9.316,9.316,0,0,1,2.266.955,3.6,3.6,0,0,1,1.253,1.229,3.2,3.2,0,0,1,.4,1.623,2.876,2.876,0,0,1-1.158,2.4,5.023,5.023,0,0,1-3.142.892,5.9,5.9,0,0,1-2.411-.486,4.051,4.051,0,0,1-1.71-1.341,3.341,3.341,0,0,1-.61-1.992h2.1a1.955,1.955,0,0,0,.681,1.594,2.981,2.981,0,0,0,1.951.564,2.59,2.59,0,0,0,1.648-.444A1.433,1.433,0,0,0,124.955,14.887Z" transform="translate(1087 11002.5)" fill="#fff"/>
          <text id="CLAVE_NOMBRE_DESCRIPCIÓN_P._UNITARIO_EXISTENCIAS" data-name="CLAVE
NOMBRE
DESCRIPCIÓN
P. UNITARIO
EXISTENCIAS" transform="translate(1111 11043)" fill="#12263f" font-size="17" font-family="Roboto-Bold, Roboto" font-weight="700"><tspan x="28.519" y="18">CLAVE</tspan><tspan x="19.554" y="42">NOMBRE</tspan><tspan x="0.113" y="66">DESCRIPCIÓN</tspan><tspan x="7.783" y="90">P. UNITARIO</tspan><tspan x="1.591" y="114">EXISTENCIAS</tspan></text>
        </g>
        <path id="Trazado_1285085" data-name="Trazado 1285085" d="M39.376,13.061H34.595V18H32.1V5.914h7.869V7.931H34.595v3.121h4.781Zm11.97-.83a7.3,7.3,0,0,1-.631,3.129,4.751,4.751,0,0,1-1.805,2.075,5.335,5.335,0,0,1-5.375.008,4.8,4.8,0,0,1-1.826-2.063,7.087,7.087,0,0,1-.656-3.084v-.6A7.258,7.258,0,0,1,41.7,8.558a4.79,4.79,0,0,1,1.818-2.083,5.327,5.327,0,0,1,5.371,0A4.79,4.79,0,0,1,50.7,8.558a7.237,7.237,0,0,1,.643,3.134Zm-2.523-.548a5.086,5.086,0,0,0-.681-2.889,2.4,2.4,0,0,0-3.876-.012,5.028,5.028,0,0,0-.689,2.86v.589a5.15,5.15,0,0,0,.681,2.872,2.383,2.383,0,0,0,3.885.037,5.12,5.12,0,0,0,.681-2.868ZM55.646,16h5.288v2H53.155V5.914h2.49Zm9.363,2h-2.49V5.914h2.49Zm12.235-5.769a7.3,7.3,0,0,1-.631,3.129,4.751,4.751,0,0,1-1.805,2.075,5.335,5.335,0,0,1-5.375.008,4.8,4.8,0,0,1-1.826-2.063,7.087,7.087,0,0,1-.656-3.084v-.6a7.258,7.258,0,0,1,.643-3.142,4.79,4.79,0,0,1,1.818-2.083,5.327,5.327,0,0,1,5.371,0A4.79,4.79,0,0,1,76.6,8.558a7.237,7.237,0,0,1,.643,3.134Zm-2.523-.548a5.086,5.086,0,0,0-.681-2.889,2.4,2.4,0,0,0-3.876-.012,5.028,5.028,0,0,0-.689,2.86v.589a5.15,5.15,0,0,0,.681,2.872,2.383,2.383,0,0,0,3.885.037,5.12,5.12,0,0,0,.681-2.868ZM19.392,38.6h-1.6l-.6,3.4H15.673l.6-3.4H14.386V37.169H16.52l.415-2.357H15.009V33.367h2.183l.606-3.453h1.511L18.7,33.367h1.61l.606-3.453h1.519l-.606,3.453H23.65v1.444H21.575l-.415,2.357h1.859V38.6H20.911l-.6,3.4H18.794Zm-1.353-1.428h1.6l.415-2.357h-1.61Zm20.744.805a4.277,4.277,0,0,1-1.44,3.071,5.058,5.058,0,0,1-3.424,1.121A4.548,4.548,0,0,1,30.262,40.6a6.416,6.416,0,0,1-1.332-4.3v-.739a7.245,7.245,0,0,1,.614-3.071A4.6,4.6,0,0,1,31.3,30.458a5.486,5.486,0,0,1,6.022.411A4.6,4.6,0,0,1,38.8,34.015h-2.49a2.524,2.524,0,0,0-.652-1.7,2.413,2.413,0,0,0-1.706-.527,2.116,2.116,0,0,0-1.864.892,5,5,0,0,0-.635,2.768v.913a5.352,5.352,0,0,0,.594,2.864,2.077,2.077,0,0,0,1.872.9,2.458,2.458,0,0,0,1.722-.527,2.381,2.381,0,0,0,.652-1.631ZM42.908,40H48.2v2H40.418V29.914h2.49Zm9.363,2h-2.49V29.914h2.49Zm9.579-5.238H57.069V40H62.68v2h-8.1V29.914h8.085v2.017H57.069v2.88H61.85ZM73.969,42h-2.49l-4.848-7.952V42h-2.49V29.914h2.49l4.856,7.969V29.914h2.482ZM85.242,31.931h-3.7V42H79.05V31.931H75.4V29.914h9.845Zm8.691,4.831H89.152V40h5.611v2h-8.1V29.914h8.085v2.017H89.152v2.88h4.781ZM39.085,61.974a4.277,4.277,0,0,1-1.44,3.071,5.058,5.058,0,0,1-3.424,1.121A4.548,4.548,0,0,1,30.565,64.6a6.416,6.416,0,0,1-1.332-4.3v-.739a7.245,7.245,0,0,1,.614-3.071A4.6,4.6,0,0,1,31.6,54.458a5.486,5.486,0,0,1,6.022.411A4.6,4.6,0,0,1,39.1,58.015h-2.49a2.524,2.524,0,0,0-.652-1.7,2.413,2.413,0,0,0-1.706-.527,2.116,2.116,0,0,0-1.864.892,5,5,0,0,0-.635,2.768v.913a5.352,5.352,0,0,0,.594,2.864,2.077,2.077,0,0,0,1.872.9,2.458,2.458,0,0,0,1.722-.527,2.381,2.381,0,0,0,.652-1.631ZM43.211,64H48.5v2H40.721V53.914h2.49Zm13.7-.49H52.541L51.711,66H49.063l4.5-12.086H55.87L60.394,66H57.746Zm-3.694-2.017h3.021l-1.519-4.524ZM65.349,63l2.739-9.089h2.772L66.652,66h-2.6L59.862,53.914h2.764Zm13.92-2.241H74.488V64H80.1v2H72V53.914h8.085v2.017H74.488v2.88H79.27ZM23.281,85.974a4.277,4.277,0,0,1-1.44,3.071,5.058,5.058,0,0,1-3.424,1.121A4.548,4.548,0,0,1,14.76,88.6a6.416,6.416,0,0,1-1.332-4.3v-.739a7.245,7.245,0,0,1,.614-3.071A4.6,4.6,0,0,1,15.8,78.458a4.918,4.918,0,0,1,2.652-.71,4.927,4.927,0,0,1,3.37,1.121A4.6,4.6,0,0,1,23.3,82.015h-2.49a2.524,2.524,0,0,0-.652-1.7,2.413,2.413,0,0,0-1.706-.527,2.116,2.116,0,0,0-1.864.892,5,5,0,0,0-.635,2.768v.913a5.352,5.352,0,0,0,.594,2.864,2.077,2.077,0,0,0,1.872.9,2.458,2.458,0,0,0,1.722-.527,2.381,2.381,0,0,0,.652-1.631Zm8.458,1.536H27.373L26.543,90H23.9l4.5-12.086H30.7L35.226,90H32.578Zm-3.694-2.017h3.021l-1.519-4.524ZM46.183,90h-2.49l-4.848-7.952V90h-2.49V77.914h2.49L43.7,85.883V77.914h2.482ZM57.455,79.931h-3.7V90h-2.49V79.931H47.61V77.914h9.845ZM61.522,90h-2.49V77.914h2.49Zm2.308,0V77.914h3.719a5.647,5.647,0,0,1,2.851.718,5.007,5.007,0,0,1,1.963,2.042,6.3,6.3,0,0,1,.706,3.009v.556a6.316,6.316,0,0,1-.693,3,4.964,4.964,0,0,1-1.955,2.034,5.69,5.69,0,0,1-2.847.73Zm2.49-10.069V88h1.2a2.7,2.7,0,0,0,2.233-.955,4.314,4.314,0,0,0,.789-2.731v-.639a4.382,4.382,0,0,0-.764-2.793,2.7,2.7,0,0,0-2.233-.95ZM81.7,87.51H77.335L76.505,90H73.857l4.5-12.086h2.308L85.188,90H82.54Zm-3.694-2.017h3.021L79.51,80.969ZM86.317,90V77.914h3.719a5.647,5.647,0,0,1,2.851.718,5.007,5.007,0,0,1,1.963,2.042,6.3,6.3,0,0,1,.706,3.009v.556a6.316,6.316,0,0,1-.693,3,4.964,4.964,0,0,1-1.955,2.034,5.69,5.69,0,0,1-2.847.73Zm2.49-10.069V88h1.2a2.7,2.7,0,0,0,2.233-.955,4.314,4.314,0,0,0,.789-2.731v-.639a4.382,4.382,0,0,0-.764-2.793,2.7,2.7,0,0,0-2.233-.95Zm-68.834,30.9a1.278,1.278,0,0,0-.5-1.083,6.532,6.532,0,0,0-1.793-.8,12.71,12.71,0,0,1-2.05-.826,3.35,3.35,0,0,1-2.059-3,2.919,2.919,0,0,1,.552-1.747,3.6,3.6,0,0,1,1.585-1.2,5.967,5.967,0,0,1,2.32-.432,5.432,5.432,0,0,1,2.308.469,3.674,3.674,0,0,1,1.573,1.324,3.464,3.464,0,0,1,.56,1.942h-2.49a1.63,1.63,0,0,0-.523-1.291,2.15,2.15,0,0,0-1.469-.461,2.3,2.3,0,0,0-1.419.386,1.217,1.217,0,0,0-.506,1.017,1.166,1.166,0,0,0,.594.988,6.705,6.705,0,0,0,1.747.747,7.55,7.55,0,0,1,3.1,1.585,3.157,3.157,0,0,1,.971,2.357,2.909,2.909,0,0,1-1.187,2.461,5.2,5.2,0,0,1-3.2.892,6.171,6.171,0,0,1-2.54-.51,4.019,4.019,0,0,1-1.747-1.4,3.582,3.582,0,0,1-.6-2.059h2.5q0,2,2.391,2a2.326,2.326,0,0,0,1.386-.361A1.175,1.175,0,0,0,19.973,110.829ZM33.3,101.914v7.96a4.076,4.076,0,0,1-1.241,3.138,4.784,4.784,0,0,1-3.391,1.154,4.838,4.838,0,0,1-3.362-1.121,4.006,4.006,0,0,1-1.27-3.08v-8.052h2.49v7.977a2.3,2.3,0,0,0,.569,1.731,2.183,2.183,0,0,0,1.573.544q2.1,0,2.133-2.208v-8.043ZM35.346,114V101.914h4.233a5.559,5.559,0,0,1,3.337.843,2.881,2.881,0,0,1,1.137,2.469,2.731,2.731,0,0,1-.457,1.565,2.637,2.637,0,0,1-1.27.992,2.551,2.551,0,0,1,1.465.938,2.773,2.773,0,0,1,.535,1.727,3.19,3.19,0,0,1-1.112,2.64,5.007,5.007,0,0,1-3.171.913Zm2.49-5.263V112h2.133a2.059,2.059,0,0,0,1.374-.419,1.437,1.437,0,0,0,.494-1.158,1.518,1.518,0,0,0-1.718-1.685Zm0-1.76h1.843q1.884-.033,1.884-1.5a1.388,1.388,0,0,0-.477-1.183,2.51,2.51,0,0,0-1.507-.361H37.836Zm17.232-3.046h-3.7V114h-2.49V103.931H45.224v-2.017h9.845Zm11.115,4.3a7.3,7.3,0,0,1-.631,3.129,4.751,4.751,0,0,1-1.805,2.075,5.335,5.335,0,0,1-5.375.008,4.8,4.8,0,0,1-1.826-2.063,7.087,7.087,0,0,1-.656-3.084v-.6a7.258,7.258,0,0,1,.643-3.142,4.79,4.79,0,0,1,1.818-2.083,5.327,5.327,0,0,1,5.371,0,4.79,4.79,0,0,1,1.818,2.083,7.237,7.237,0,0,1,.643,3.134Zm-2.523-.548a5.086,5.086,0,0,0-.681-2.889,2.4,2.4,0,0,0-3.876-.012,5.028,5.028,0,0,0-.689,2.86v.589a5.15,5.15,0,0,0,.681,2.872,2.383,2.383,0,0,0,3.885.037,5.12,5.12,0,0,0,.681-2.868Zm12.725-3.752h-3.7V114h-2.49V103.931H66.54v-2.017h9.845Zm7.247,7.579H79.265l-.83,2.49H75.787l4.5-12.086h2.308L87.118,114H84.47Zm-3.694-2.017h3.021l-1.519-4.524ZM90.737,112h5.288v2H88.247V101.914h2.49ZM44.784,138h-2.49V125.914h2.49Zm6.773-3,2.739-9.089h2.772L52.861,138h-2.6l-4.192-12.086h2.764Zm12.85.506H60.041l-.83,2.49H56.563l4.5-12.086h2.308L67.893,138H65.245Zm-3.694-2.017h3.021l-1.519-4.524ZM38.936,151.931h-3.7V162h-2.49V151.931H29.091v-2.017h9.845Zm11.115,4.3a7.3,7.3,0,0,1-.631,3.129,4.751,4.751,0,0,1-1.805,2.075,5.335,5.335,0,0,1-5.375.008,4.8,4.8,0,0,1-1.826-2.063,7.087,7.087,0,0,1-.656-3.084v-.6a7.258,7.258,0,0,1,.643-3.142,4.79,4.79,0,0,1,1.818-2.083,5.327,5.327,0,0,1,5.371,0,4.79,4.79,0,0,1,1.818,2.083,7.237,7.237,0,0,1,.643,3.134Zm-2.523-.548a5.086,5.086,0,0,0-.681-2.889,2.4,2.4,0,0,0-3.876-.012,5.028,5.028,0,0,0-.689,2.86v.589a5.15,5.15,0,0,0,.681,2.872,2.383,2.383,0,0,0,3.885.037,5.12,5.12,0,0,0,.681-2.868Zm12.725-3.752h-3.7V162H54.06V151.931H50.408v-2.017h9.845ZM67.5,159.51H63.133L62.3,162H59.655l4.5-12.086h2.308L70.985,162H68.337Zm-3.694-2.017h3.021l-1.519-4.524ZM74.6,160h5.288v2H72.114V149.914H74.6Z" transform="translate(360 11959.673)" fill="#12263f"/>
        <path id="Trazado_1284576" data-name="Trazado 1284576" d="M4159.828-1851v91h159" transform="translate(-1387 7588.172) rotate(90)" fill="none" stroke="#1e535a" stroke-width="3"/>
        <path id="Trazado_1284577" data-name="Trazado 1284577" d="M4055.767-1702.424h104.061V-1851h103.728" transform="translate(-1329.424 8085.906) rotate(90)" fill="none" stroke="#1e535a" stroke-width="3"/>
      </g>
    </g>
  </g>
</svg>
