<svg xmlns="http://www.w3.org/2000/svg" xmlns:xlink="http://www.w3.org/1999/xlink" width="292" height="248" viewBox="0 0 292 248">
  <defs>
    <clipPath id="clip-path">
      <rect id="Rectángulo_464529" data-name="Rectángulo 464529" width="292" height="248" transform="translate(290 6264)" fill="#ffe79e" stroke="#707070" stroke-width="1"/>
    </clipPath>
    <clipPath id="clip-path-2">
      <rect id="Rectángulo_464867" data-name="Rectángulo 464867" width="263.065" height="276.871" fill="none"/>
    </clipPath>
    <clipPath id="clip-path-3">
      <rect id="Rectángulo_464848" data-name="Rectángulo 464848" width="263.065" height="263.065" fill="none"/>
    </clipPath>
    <clipPath id="clip-path-4">
      <rect id="Rectángulo_464847" data-name="Rectángulo 464847" width="176.294" height="176.295" fill="#fff7df"/>
    </clipPath>
    <clipPath id="clip-path-6">
      <rect id="Rectángulo_464849" data-name="Rectángulo 464849" width="29.031" height="23.278" fill="none"/>
    </clipPath>
  </defs>
  <g id="Enmascarar_grupo_1178591" data-name="Enmascarar grupo 1178591" transform="translate(-290 -6264)" clip-path="url(#clip-path)">
    <g id="Grupo_1212012" data-name="Grupo 1212012" transform="translate(299 6247.391)">
      <g id="Grupo_1212011" data-name="Grupo 1212011" clip-path="url(#clip-path-2)">
        <g id="Grupo_1212005" data-name="Grupo 1212005" transform="translate(0 -0.001)">
          <g id="Grupo_1212004" data-name="Grupo 1212004" clip-path="url(#clip-path-3)">
            <g id="Grupo_1212003" data-name="Grupo 1212003" transform="translate(63.336 53.999)" opacity="0.62">
              <g id="Grupo_1212002" data-name="Grupo 1212002">
                <g id="Grupo_1212001" data-name="Grupo 1212001" clip-path="url(#clip-path-4)">
                  <path id="Trazado_1283755" data-name="Trazado 1283755" d="M296.674,190.781a88.147,88.147,0,1,1-88.147-88.147,88.148,88.148,0,0,1,88.147,88.147" transform="translate(-120.38 -102.634)" fill="#fff7df"/>
                </g>
              </g>
            </g>
          </g>
        </g>
        <line id="Línea_3272" data-name="Línea 3272" y1="73.897" transform="translate(62.181 51.848)" fill="none" stroke="#a8c5e2" stroke-miterlimit="10" stroke-width="1"/>
        <line id="Línea_3273" data-name="Línea 3273" x2="46.283" transform="translate(89.956 50.281)" fill="none" stroke="#a8c5e2" stroke-miterlimit="10" stroke-width="1"/>
        <g id="Grupo_1212010" data-name="Grupo 1212010" transform="translate(0 -0.001)">
          <g id="Grupo_1212009" data-name="Grupo 1212009" clip-path="url(#clip-path-3)">
            <path id="Trazado_1283756" data-name="Trazado 1283756" d="M377.689,341.541c6.879,19.012,2.133,87.218,2.133,87.218l-70.516-2.53s.267-70.427,15.488-87.853,52.9,3.165,52.9,3.165" transform="translate(-146.571 -157.027)" fill="#87a1cf"/>
            <path id="Trazado_1283757" data-name="Trazado 1283757" d="M426.816,354.518c6.128,32.1-3.115,85.208-3.115,85.208" transform="translate(-200.779 -167.995)" fill="none" stroke="#536c7f" stroke-linecap="round" stroke-miterlimit="10" stroke-width="1"/>
            <path id="Trazado_1283758" data-name="Trazado 1283758" d="M321.288,128.339a4.481,4.481,0,0,0-.381-.9,18.487,18.487,0,0,1-1.951-8.931c.271-7.518,7.88-6.885,13.506-5.417a3.151,3.151,0,0,1,.306-2.939c1.553-2.486,6.213-4.226,8.936-5.184,3.326-1.171,7.592-.722,10.991-.13,6.631,1.155,13.809,4.309,17.577,10.16,5.191,8.062,8.049,16.343,2.143,22.62s-4.382,11.789,6.1,14.027,11.621,10.676,0,15.67c-8.24,3.541-18.777,2.512-27.412,1.4a93.366,93.366,0,0,1-14.37-2.905,43.858,43.858,0,0,1-5.707-2.027c-2.464-1.112-2.2-1.807-3.519-3.938-1.874-3.036-5.257-4.766-7.74-7.327a15.506,15.506,0,0,1,.466-22.048,2.8,2.8,0,0,0,1.105-1.656,1.513,1.513,0,0,0-.047-.477" transform="translate(-149.454 -49.393)" fill="#5a2402"/>
            <path id="Trazado_1283759" data-name="Trazado 1283759" d="M417.754,169.7C408.6,180.462,415.6,185.58,415.6,185.58" transform="translate(-195.727 -80.416)" fill="none" stroke="#af7e62" stroke-linecap="round" stroke-miterlimit="10" stroke-width="1"/>
            <path id="Trazado_1283760" data-name="Trazado 1283760" d="M326.6,150.048a11.565,11.565,0,0,0,2.876,3.854" transform="translate(-154.766 -71.103)" fill="none" stroke="#af7e62" stroke-linecap="round" stroke-miterlimit="10" stroke-width="1"/>
            <path id="Trazado_1283761" data-name="Trazado 1283761" d="M335.845,203.887c23.759-5.083,37.607-.622,37.607-.622s16.156,59.927,12.288,76.711H329.121l-.227-27.157c1.87,4.17-10.682-26.05,6.952-48.932" transform="translate(-154.621 -95.462)" fill="#fca695"/>
            <g id="Grupo_1212008" data-name="Grupo 1212008" transform="translate(205.817 145.253)" opacity="0.57" style="mix-blend-mode: multiply;isolation: isolate">
              <g id="Grupo_1212007" data-name="Grupo 1212007">
                <g id="Grupo_1212006" data-name="Grupo 1212006" clip-path="url(#clip-path-6)">
                  <path id="Trazado_1283762" data-name="Trazado 1283762" d="M408.871,276.076c-1.674,12.4-17.682,23.278-17.682,23.278l29.031-3.648Z" transform="translate(-391.189 -276.076)" fill="#fca695"/>
                </g>
              </g>
            </g>
            <path id="Trazado_1283763" data-name="Trazado 1283763" d="M354.523,200.841c-5.3,2.382.357,4.517.357,4.517s-3.928,5.638,0,8.609,6.873-1.171,6.873-1.171a5.76,5.76,0,0,0,5.721,2.624c3.761-.662,3.761-5.241,3.761-5.241a4.526,4.526,0,0,0,6.1.654c3.494-2.4,1.079-6.541,1.079-6.541s2.713,1.343,3.723-1.09-10.667-9.978-27.614-2.362" transform="translate(-166.923 -93.599)" fill="#fff"/>
            <path id="Trazado_1283764" data-name="Trazado 1283764" d="M365.171,185.759v4.567c0,4.714,2.385,7.061,8.422,5.077a7.916,7.916,0,0,0,5.829-7.352c0-2.886.185-16.573.185-16.573l-14.414,11.779Z" transform="translate(-173.043 -81.258)" fill="#f9d5bf"/>
            <path id="Trazado_1283765" data-name="Trazado 1283765" d="M375.427,176.354c-.8,8.085-5.128,13.157-10.251,13.157-.006-.07-.006-.145-.006-.215V174.559Z" transform="translate(-173.043 -82.718)" fill="#fca695"/>
            <path id="Trazado_1283766" data-name="Trazado 1283766" d="M333.9,134.329c-2.443,7.858-.365,18.48,4.131,23.058s10.623,5.652,15.567,3.072,9.885-7.3,11.823-11.6,1.643-14.261-1.221-18.74-11.75-5.525-17.3-5.432-9.694,2.756-13,9.647" transform="translate(-157.735 -59.08)" fill="#f9d5bf"/>
            <path id="Trazado_1283767" data-name="Trazado 1283767" d="M346.731,153.046c0,.879-.447,1.592-1,1.592s-1-.712-1-1.592.447-1.592,1-1.592,1,.712,1,1.592" transform="translate(-163.359 -71.769)" fill="#5a2402"/>
            <path id="Trazado_1283768" data-name="Trazado 1283768" d="M368.508,153.046c0,.879-.447,1.592-1,1.592s-1-.712-1-1.592.447-1.592,1-1.592,1,.712,1,1.592" transform="translate(-173.679 -71.769)" fill="#5a2402"/>
            <path id="Trazado_1283769" data-name="Trazado 1283769" d="M364.044,140.323c2.374-1.012,6.056.167,6.4,1.706s-.258,2.308-.945,2.308-2.36-1.96-5.584-1.154c-1.14.285-1.977-1.962.129-2.86" transform="translate(-171.895 -66.316)" fill="#5a2402"/>
            <path id="Trazado_1283770" data-name="Trazado 1283770" d="M345.875,140.323c-1.977-1.012-5.042.167-5.329,1.706s.215,2.308.787,2.308,1.966-1.96,4.649-1.154c.949.285,1.646-1.962-.107-2.86" transform="translate(-161.335 -66.316)" fill="#5a2402"/>
            <path id="Trazado_1283771" data-name="Trazado 1283771" d="M354.995,152.22a13.636,13.636,0,0,1-1.41,7.195.567.567,0,0,0,.439.836,9.157,9.157,0,0,0,3.413-.1" transform="translate(-167.52 -72.132)" fill="none" stroke="#db7665" stroke-linecap="round" stroke-miterlimit="10" stroke-width="0.75"/>
            <path id="Trazado_1283772" data-name="Trazado 1283772" d="M359.539,170.747c2.066-.281,5.725-2.066,5.585-2.348,0,0,.558,2.855-1.8,3.386a4.077,4.077,0,0,1-3.788-1.038" transform="translate(-170.374 -79.799)" fill="#fff"/>
            <path id="Trazado_1283773" data-name="Trazado 1283773" d="M391.189,155.784c2.269-4.478,6.051-4.616,7.186-1.788s-1.229,8.609-5.484,9.027" transform="translate(-185.372 -72.076)" fill="#f9d5bf"/>
            <path id="Trazado_1283774" data-name="Trazado 1283774" d="M397.094,157.643c.837.492,1.577,2.206-.331,3.8a5.724,5.724,0,0,1-3.827,1.436,4.757,4.757,0,0,1,.889-3.512c1.214-1.284,2.7-2.1,3.268-1.726" transform="translate(-186.182 -74.658)" fill="#fca695"/>
            <path id="Trazado_1283775" data-name="Trazado 1283775" d="M393.7,160.123c1.986-3.386,3.971-2.819,4.35-1.968" transform="translate(-186.565 -74.636)" fill="none" stroke="#db7665" stroke-linecap="round" stroke-miterlimit="10" stroke-width="0.75"/>
            <path id="Trazado_1283776" data-name="Trazado 1283776" d="M395.847,159.93c1.521-.47,1.615,1.552,1.048,2.054" transform="translate(-187.58 -75.752)" fill="none" stroke="#db7665" stroke-linecap="round" stroke-miterlimit="10" stroke-width="0.75"/>
            <path id="Trazado_1283777" data-name="Trazado 1283777" d="M365.171,185.588a20.023,20.023,0,0,0,13.689-11.03" transform="translate(-173.043 -82.717)" fill="none" stroke="#db7665" stroke-linecap="round" stroke-miterlimit="10" stroke-width="0.75"/>
            <path id="Trazado_1283778" data-name="Trazado 1283778" d="M365.758,176.055c.685,0,2.531-1.375,2.754-.921s-.455,1.422-1.121,1.868-2.318-.945-1.634-.948" transform="translate(-173.244 -82.946)" fill="#fca695"/>
            <path id="Trazado_1283779" data-name="Trazado 1283779" d="M377.441,159.356a2.139,2.139,0,1,1-2.076-1.62,1.891,1.891,0,0,1,2.076,1.62" transform="translate(-176.891 -74.746)" fill="#fca695"/>
            <path id="Trazado_1283780" data-name="Trazado 1283780" d="M342.894,159.356a2.139,2.139,0,1,1-2.076-1.62,1.891,1.891,0,0,1,2.076,1.62" transform="translate(-160.52 -74.746)" fill="#fca695"/>
            <path id="Trazado_1283781" data-name="Trazado 1283781" d="M350.222,122.616c4.333,12.391,21.617,11.927,21.617,11.927l-.753,6.085s2.981-4.032,4.571-3.99c0,0,3.522-14.546-5.088-16.785s-20.348,2.762-20.348,2.762" transform="translate(-165.959 -56.521)" fill="#5a2402"/>
            <path id="Trazado_1283782" data-name="Trazado 1283782" d="M350.222,125.623c2.143,8.809,16.288,12.271,21.617,11.927l-.753,6.085" transform="translate(-165.959 -59.528)" fill="none" stroke="#af7e62" stroke-linecap="round" stroke-miterlimit="10" stroke-width="1"/>
            <path id="Trazado_1283783" data-name="Trazado 1283783" d="M337,325.642l-4.656.766s-11.787-4.331-12.7-4.353-1.382,3.587,2.925,5.216,4.6,1.729,4.6,1.729-18.122,3.041-17.858,5.242,11.534-.453,11.534-.453-11.081,2.328-11.081,4.074,10.592,0,10.592,0-8.73,1.746-8.613,3.259,9.1.7,9.1.7-5.844.233-5.844,1.862,24.452-1.241,24.452-1.241Z" transform="translate(-146.571 -152.611)" fill="#f9d5bf"/>
            <line id="Línea_3274" data-name="Línea 3274" y1="1.459" x2="6.128" transform="translate(167.431 181.348)" fill="none" stroke="#db7665" stroke-linecap="round" stroke-miterlimit="10" stroke-width="0.75"/>
            <line id="Línea_3275" data-name="Línea 3275" y1="0.877" x2="4.377" transform="translate(170.123 184.992)" fill="none" stroke="#db7665" stroke-linecap="round" stroke-miterlimit="10" stroke-width="0.75"/>
            <line id="Línea_3276" data-name="Línea 3276" y1="0.836" x2="4.484" transform="translate(172.106 188.468)" fill="none" stroke="#db7665" stroke-linecap="round" stroke-miterlimit="10" stroke-width="0.75"/>
            <path id="Trazado_1283784" data-name="Trazado 1283784" d="M329.878,343.085c.313,6.069,3.885,8.8,3.885,8.8" transform="translate(-156.319 -162.577)" fill="none" stroke="#db7665" stroke-linecap="round" stroke-miterlimit="10" stroke-width="0.75"/>
            <path id="Trazado_1283785" data-name="Trazado 1283785" d="M193.9,193.561,190.8,190s-2.5-12.306-2.967-13.1-3.778.708-2.9,5.229.945,4.824.945,4.824-12.1-13.825-13.84-12.444,6.442,9.578,6.442,9.578-7.8-8.208-9.287-7.291,5.563,9.014,5.563,9.014-6.071-6.512-7.3-5.618,4.186,8.113,4.186,8.113-3.267-4.85-4.654-3.995,13.9,20.157,13.9,20.157Z" transform="translate(-79.09 -82.65)" fill="#f9d5bf"/>
            <line id="Línea_3277" data-name="Línea 3277" x2="4.461" y2="4.448" transform="translate(94.41 96.475)" fill="none" stroke="#db7665" stroke-linecap="round" stroke-miterlimit="10" stroke-width="0.75"/>
            <path id="Trazado_1283786" data-name="Trazado 1283786" d="M201.656,198.253a9.481,9.481,0,0,0-1.15,7.451" transform="translate(-94.868 -93.945)" fill="none" stroke="#db7665" stroke-linecap="round" stroke-miterlimit="10" stroke-width="0.75"/>
            <line id="Línea_3278" data-name="Línea 3278" x2="3.045" y2="3.264" transform="translate(93.219 100.374)" fill="none" stroke="#db7665" stroke-linecap="round" stroke-miterlimit="10" stroke-width="0.75"/>
            <line id="Línea_3279" data-name="Línea 3279" x1="3.066" y1="3.377" transform="translate(91.338 103.865)" fill="none" stroke="#db7665" stroke-linecap="round" stroke-miterlimit="10" stroke-width="0.75"/>
            <path id="Trazado_1283787" data-name="Trazado 1283787" d="M389.468,204.9c10.307,1.281,22.121,7.585,26.822,30.975,3.228,16.059,8.9,37.154-.69,43.091s-53.143,8.018-53.143,8.018l-2.365-18.292,36.582-8.967-6.9-42.464" transform="translate(-170.636 -97.093)" fill="#fca695"/>
            <path id="Trazado_1283788" data-name="Trazado 1283788" d="M272.284,206.078c-7.143.826-40.7,33.067-40.7,33.067s-20.38-26.445-25.711-32.03l-13.706,11.975s15.827,31.886,20.22,38.667c8.392,12.956,18.781,16.091,28.253,12.029s34.686-30.895,34.686-30.895Z" transform="translate(-91.06 -97.653)" fill="#fca695"/>
            <path id="Trazado_1283789" data-name="Trazado 1283789" d="M322.525,237a59.436,59.436,0,0,0,4.849,31.281" transform="translate(-152.663 -112.309)" fill="none" stroke="#db7665" stroke-linecap="round" stroke-miterlimit="10" stroke-width="1"/>
            <path id="Trazado_1283790" data-name="Trazado 1283790" d="M267.082,268.927a75.376,75.376,0,0,1,3.647,14.485" transform="translate(-126.562 -127.436)" fill="none" stroke="#db7665" stroke-linecap="round" stroke-miterlimit="10" stroke-width="1"/>
            <path id="Trazado_1283791" data-name="Trazado 1283791" d="M424.049,239.628c-1.588,16.119,2.767,36.553,2.767,36.553s5.695,5.025,5.695,9.044" transform="translate(-200.779 -113.552)" fill="none" stroke="#db7665" stroke-linecap="round" stroke-miterlimit="10" stroke-width="1"/>
            <path id="Trazado_1283792" data-name="Trazado 1283792" d="M396.674,309.1l-36.582,8.967" transform="translate(-170.636 -146.473)" fill="none" stroke="#db7665" stroke-linecap="round" stroke-miterlimit="10" stroke-width="1"/>
            <path id="Trazado_1283793" data-name="Trazado 1283793" d="M137.9,286.585a2.079,2.079,0,1,1-2.079-2.079,2.079,2.079,0,0,1,2.079,2.079" transform="translate(-63.377 -134.818)" fill="#9bb0c4"/>
            <rect id="Rectángulo_464850" data-name="Rectángulo 464850" width="105.021" height="91.086" transform="translate(33.956 185.785)" fill="#87a1cf"/>
            <path id="Trazado_1283794" data-name="Trazado 1283794" d="M149.175,341.5h-96.8a2.222,2.222,0,0,1-2.222-2.223V322.542a2.222,2.222,0,0,1,2.222-2.223h96.8a2.223,2.223,0,0,1,2.223,2.223v16.731a2.223,2.223,0,0,1-2.223,2.223" transform="translate(-23.766 -151.789)" fill="#bbcadb"/>
            <path id="Trazado_1283795" data-name="Trazado 1283795" d="M180.6,341.5H83.8a2.222,2.222,0,0,1-2.222-2.223V322.542a2.222,2.222,0,0,1,2.222-2.223h96.8a2.223,2.223,0,0,1,2.223,2.223v16.731A2.223,2.223,0,0,1,180.6,341.5" transform="translate(-38.659 -151.789)" fill="#d2dfee"/>
            <path id="Trazado_1283796" data-name="Trazado 1283796" d="M134.077,341.179H89.852a1.388,1.388,0,0,1-1.388-1.388V327.757a1.388,1.388,0,0,1,1.388-1.387h44.226a1.388,1.388,0,0,1,1.388,1.387v12.034a1.388,1.388,0,0,1-1.388,1.388" transform="translate(-41.92 -154.656)" fill="#87a1cf"/>
            <rect id="Rectángulo_464851" data-name="Rectángulo 464851" width="26.541" height="3.394" transform="translate(51.964 174.721)" fill="#d2dfee"/>
            <rect id="Rectángulo_464852" data-name="Rectángulo 464852" width="26.541" height="3.394" transform="translate(51.964 180.122)" fill="#d2dfee"/>
            <path id="Trazado_1283797" data-name="Trazado 1283797" d="M195.659,332.452h-7.985a.437.437,0,0,1-.437-.437v-5.209a.437.437,0,0,1,.437-.437h7.985a.437.437,0,0,1,.437.437v5.209a.437.437,0,0,1-.437.437" transform="translate(-88.726 -154.656)" fill="#bbcadb"/>
            <path id="Trazado_1283798" data-name="Trazado 1283798" d="M220.431,332.452h-7.985a.437.437,0,0,1-.437-.437v-5.209a.437.437,0,0,1,.437-.437h7.985a.437.437,0,0,1,.437.437v5.209a.437.437,0,0,1-.437.437" transform="translate(-100.465 -154.656)" fill="#bbcadb"/>
            <path id="Trazado_1283799" data-name="Trazado 1283799" d="M245.2,332.452h-7.985a.437.437,0,0,1-.437-.437v-5.209a.437.437,0,0,1,.437-.437H245.2a.437.437,0,0,1,.437.437v5.209a.437.437,0,0,1-.437.437" transform="translate(-112.204 -154.656)" fill="#bbcadb"/>
            <path id="Trazado_1283800" data-name="Trazado 1283800" d="M195.659,349.04h-7.985a.437.437,0,0,1-.437-.437v-5.209a.436.436,0,0,1,.437-.436h7.985a.436.436,0,0,1,.437.436V348.6a.437.437,0,0,1-.437.437" transform="translate(-88.726 -162.517)" fill="#bbcadb"/>
            <path id="Trazado_1283801" data-name="Trazado 1283801" d="M220.431,349.04h-7.985a.437.437,0,0,1-.437-.437v-5.209a.437.437,0,0,1,.437-.436h7.985a.436.436,0,0,1,.437.436V348.6a.437.437,0,0,1-.437.437" transform="translate(-100.465 -162.517)" fill="#bbcadb"/>
            <path id="Trazado_1283802" data-name="Trazado 1283802" d="M245.2,349.04h-7.985a.437.437,0,0,1-.437-.437v-5.209a.437.437,0,0,1,.437-.436H245.2a.437.437,0,0,1,.437.436V348.6a.437.437,0,0,1-.437.437" transform="translate(-112.204 -162.517)" fill="#bbcadb"/>
            <line id="Línea_3280" data-name="Línea 3280" x2="82.425" transform="translate(59.519 189.707)" fill="none" stroke="#536c7f" stroke-linecap="round" stroke-miterlimit="10" stroke-width="1"/>
            <path id="Trazado_1283803" data-name="Trazado 1283803" d="M149.175,387.015h-96.8a2.222,2.222,0,0,1-2.222-2.223V368.061a2.222,2.222,0,0,1,2.222-2.223h96.8a2.223,2.223,0,0,1,2.223,2.223v16.731a2.223,2.223,0,0,1-2.223,2.223" transform="translate(-23.766 -173.359)" fill="#bbcadb"/>
            <path id="Trazado_1283804" data-name="Trazado 1283804" d="M180.6,387.015H83.8a2.222,2.222,0,0,1-2.222-2.223V368.061a2.222,2.222,0,0,1,2.222-2.223h96.8a2.223,2.223,0,0,1,2.223,2.223v16.731a2.223,2.223,0,0,1-2.223,2.223" transform="translate(-38.659 -173.359)" fill="#d2dfee"/>
            <path id="Trazado_1283805" data-name="Trazado 1283805" d="M134.077,386.7H89.852a1.388,1.388,0,0,1-1.388-1.388V373.277a1.388,1.388,0,0,1,1.388-1.388h44.226a1.388,1.388,0,0,1,1.388,1.388v12.034a1.388,1.388,0,0,1-1.388,1.388" transform="translate(-41.92 -176.226)" fill="#87a1cf"/>
            <rect id="Rectángulo_464853" data-name="Rectángulo 464853" width="26.541" height="3.394" transform="translate(51.964 198.67)" fill="#d2dfee"/>
            <rect id="Rectángulo_464854" data-name="Rectángulo 464854" width="26.541" height="3.394" transform="translate(51.964 204.071)" fill="#d2dfee"/>
            <path id="Trazado_1283806" data-name="Trazado 1283806" d="M195.659,377.971h-7.985a.437.437,0,0,1-.437-.437v-5.209a.437.437,0,0,1,.437-.437h7.985a.437.437,0,0,1,.437.437v5.209a.437.437,0,0,1-.437.437" transform="translate(-88.726 -176.226)" fill="#bbcadb"/>
            <path id="Trazado_1283807" data-name="Trazado 1283807" d="M220.431,377.971h-7.985a.437.437,0,0,1-.437-.437v-5.209a.437.437,0,0,1,.437-.437h7.985a.437.437,0,0,1,.437.437v5.209a.437.437,0,0,1-.437.437" transform="translate(-100.465 -176.226)" fill="#bbcadb"/>
            <path id="Trazado_1283808" data-name="Trazado 1283808" d="M245.2,377.971h-7.985a.437.437,0,0,1-.437-.437v-5.209a.437.437,0,0,1,.437-.437H245.2a.437.437,0,0,1,.437.437v5.209a.437.437,0,0,1-.437.437" transform="translate(-112.204 -176.226)" fill="#bbcadb"/>
            <path id="Trazado_1283809" data-name="Trazado 1283809" d="M195.659,394.559h-7.985a.437.437,0,0,1-.437-.437v-5.209a.437.437,0,0,1,.437-.437h7.985a.437.437,0,0,1,.437.437v5.209a.437.437,0,0,1-.437.437" transform="translate(-88.726 -184.087)" fill="#bbcadb"/>
            <path id="Trazado_1283810" data-name="Trazado 1283810" d="M220.431,394.559h-7.985a.437.437,0,0,1-.437-.437v-5.209a.437.437,0,0,1,.437-.437h7.985a.437.437,0,0,1,.437.437v5.209a.437.437,0,0,1-.437.437" transform="translate(-100.465 -184.087)" fill="#bbcadb"/>
            <path id="Trazado_1283811" data-name="Trazado 1283811" d="M245.2,394.559h-7.985a.437.437,0,0,1-.437-.437v-5.209a.437.437,0,0,1,.437-.437H245.2a.437.437,0,0,1,.437.437v5.209a.437.437,0,0,1-.437.437" transform="translate(-112.204 -184.087)" fill="#bbcadb"/>
            <line id="Línea_3281" data-name="Línea 3281" x2="82.425" transform="translate(59.519 213.656)" fill="none" stroke="#536c7f" stroke-linecap="round" stroke-miterlimit="10" stroke-width="1"/>
            <path id="Trazado_1283812" data-name="Trazado 1283812" d="M149.175,432.534h-96.8a2.223,2.223,0,0,1-2.222-2.223V413.58a2.222,2.222,0,0,1,2.222-2.223h96.8a2.223,2.223,0,0,1,2.223,2.223v16.731a2.223,2.223,0,0,1-2.223,2.223" transform="translate(-23.766 -194.929)" fill="#bbcadb"/>
            <path id="Trazado_1283813" data-name="Trazado 1283813" d="M180.6,432.534H83.8a2.223,2.223,0,0,1-2.222-2.223V413.58a2.222,2.222,0,0,1,2.222-2.223h96.8a2.223,2.223,0,0,1,2.223,2.223v16.731a2.223,2.223,0,0,1-2.223,2.223" transform="translate(-38.659 -194.929)" fill="#d2dfee"/>
            <path id="Trazado_1283814" data-name="Trazado 1283814" d="M134.077,432.218H89.852a1.388,1.388,0,0,1-1.388-1.388V418.8a1.388,1.388,0,0,1,1.388-1.387h44.226a1.388,1.388,0,0,1,1.388,1.387V430.83a1.388,1.388,0,0,1-1.388,1.388" transform="translate(-41.92 -197.796)" fill="#87a1cf"/>
            <rect id="Rectángulo_464855" data-name="Rectángulo 464855" width="26.541" height="3.394" transform="translate(51.964 222.618)" fill="#d2dfee"/>
            <rect id="Rectángulo_464856" data-name="Rectángulo 464856" width="26.541" height="3.394" transform="translate(51.964 228.02)" fill="#d2dfee"/>
            <path id="Trazado_1283815" data-name="Trazado 1283815" d="M195.659,423.49h-7.985a.437.437,0,0,1-.437-.437v-5.209a.437.437,0,0,1,.437-.437h7.985a.437.437,0,0,1,.437.437v5.209a.437.437,0,0,1-.437.437" transform="translate(-88.726 -197.796)" fill="#bbcadb"/>
            <path id="Trazado_1283816" data-name="Trazado 1283816" d="M220.431,423.49h-7.985a.437.437,0,0,1-.437-.437v-5.209a.437.437,0,0,1,.437-.437h7.985a.437.437,0,0,1,.437.437v5.209a.437.437,0,0,1-.437.437" transform="translate(-100.465 -197.796)" fill="#bbcadb"/>
            <path id="Trazado_1283817" data-name="Trazado 1283817" d="M245.2,423.49h-7.985a.437.437,0,0,1-.437-.437v-5.209a.437.437,0,0,1,.437-.437H245.2a.437.437,0,0,1,.437.437v5.209a.437.437,0,0,1-.437.437" transform="translate(-112.204 -197.796)" fill="#bbcadb"/>
            <path id="Trazado_1283818" data-name="Trazado 1283818" d="M195.659,440.078h-7.985a.437.437,0,0,1-.437-.437v-5.209a.437.437,0,0,1,.437-.437h7.985a.437.437,0,0,1,.437.437v5.209a.437.437,0,0,1-.437.437" transform="translate(-88.726 -205.657)" fill="#bbcadb"/>
            <path id="Trazado_1283819" data-name="Trazado 1283819" d="M220.431,440.078h-7.985a.437.437,0,0,1-.437-.437v-5.209a.437.437,0,0,1,.437-.437h7.985a.437.437,0,0,1,.437.437v5.209a.437.437,0,0,1-.437.437" transform="translate(-100.465 -205.657)" fill="#bbcadb"/>
            <path id="Trazado_1283820" data-name="Trazado 1283820" d="M245.2,440.078h-7.985a.437.437,0,0,1-.437-.437v-5.209a.437.437,0,0,1,.437-.437H245.2a.437.437,0,0,1,.437.437v5.209a.437.437,0,0,1-.437.437" transform="translate(-112.204 -205.657)" fill="#bbcadb"/>
            <line id="Línea_3282" data-name="Línea 3282" x2="82.425" transform="translate(59.519 237.605)" fill="none" stroke="#536c7f" stroke-linecap="round" stroke-miterlimit="10" stroke-width="1"/>
            <path id="Trazado_1283821" data-name="Trazado 1283821" d="M149.175,478.052h-96.8a2.222,2.222,0,0,1-2.222-2.223V459.1a2.222,2.222,0,0,1,2.222-2.223h96.8A2.223,2.223,0,0,1,151.4,459.1v16.731a2.223,2.223,0,0,1-2.223,2.223" transform="translate(-23.766 -216.498)" fill="#bbcadb"/>
            <path id="Trazado_1283822" data-name="Trazado 1283822" d="M180.6,478.052H83.8a2.222,2.222,0,0,1-2.222-2.223V459.1a2.222,2.222,0,0,1,2.222-2.223h96.8a2.223,2.223,0,0,1,2.223,2.223v16.731a2.223,2.223,0,0,1-2.223,2.223" transform="translate(-38.659 -216.498)" fill="#d2dfee"/>
            <path id="Trazado_1283823" data-name="Trazado 1283823" d="M134.077,477.737H89.852a1.388,1.388,0,0,1-1.388-1.388V464.314a1.388,1.388,0,0,1,1.388-1.387h44.226a1.388,1.388,0,0,1,1.388,1.387v12.034a1.388,1.388,0,0,1-1.388,1.388" transform="translate(-41.92 -219.366)" fill="#87a1cf"/>
            <rect id="Rectángulo_464857" data-name="Rectángulo 464857" width="26.541" height="3.394" transform="translate(51.964 246.567)" fill="#d2dfee"/>
            <rect id="Rectángulo_464858" data-name="Rectángulo 464858" width="26.541" height="3.394" transform="translate(51.964 251.969)" fill="#d2dfee"/>
            <path id="Trazado_1283824" data-name="Trazado 1283824" d="M195.659,469.008h-7.985a.437.437,0,0,1-.437-.437v-5.209a.437.437,0,0,1,.437-.437h7.985a.437.437,0,0,1,.437.437v5.209a.437.437,0,0,1-.437.437" transform="translate(-88.726 -219.366)" fill="#bbcadb"/>
            <path id="Trazado_1283825" data-name="Trazado 1283825" d="M220.431,469.008h-7.985a.437.437,0,0,1-.437-.437v-5.209a.437.437,0,0,1,.437-.437h7.985a.437.437,0,0,1,.437.437v5.209a.437.437,0,0,1-.437.437" transform="translate(-100.465 -219.366)" fill="#bbcadb"/>
            <path id="Trazado_1283826" data-name="Trazado 1283826" d="M245.2,469.008h-7.985a.437.437,0,0,1-.437-.437v-5.209a.437.437,0,0,1,.437-.437H245.2a.437.437,0,0,1,.437.437v5.209a.437.437,0,0,1-.437.437" transform="translate(-112.204 -219.366)" fill="#bbcadb"/>
            <path id="Trazado_1283827" data-name="Trazado 1283827" d="M195.659,485.6h-7.985a.437.437,0,0,1-.437-.437v-5.209a.437.437,0,0,1,.437-.437h7.985a.437.437,0,0,1,.437.437v5.209a.437.437,0,0,1-.437.437" transform="translate(-88.726 -227.227)" fill="#bbcadb"/>
            <path id="Trazado_1283828" data-name="Trazado 1283828" d="M220.431,485.6h-7.985a.437.437,0,0,1-.437-.437v-5.209a.437.437,0,0,1,.437-.437h7.985a.437.437,0,0,1,.437.437v5.209a.437.437,0,0,1-.437.437" transform="translate(-100.465 -227.227)" fill="#bbcadb"/>
            <path id="Trazado_1283829" data-name="Trazado 1283829" d="M245.2,485.6h-7.985a.437.437,0,0,1-.437-.437v-5.209a.437.437,0,0,1,.437-.437H245.2a.437.437,0,0,1,.437.437v5.209a.437.437,0,0,1-.437.437" transform="translate(-112.204 -227.227)" fill="#bbcadb"/>
            <line id="Línea_3283" data-name="Línea 3283" x2="82.425" transform="translate(59.519 261.554)" fill="none" stroke="#536c7f" stroke-linecap="round" stroke-miterlimit="10" stroke-width="1"/>
            <line id="Línea_3284" data-name="Línea 3284" x2="65.097" transform="translate(40.687 168.53)" fill="none" stroke="#536c7f" stroke-linecap="round" stroke-miterlimit="10" stroke-width="1"/>
            <path id="Trazado_1283830" data-name="Trazado 1283830" d="M123.321,279.42H62.414l-10.876-34.7a2.966,2.966,0,0,1,2.83-3.853H106.96a5.823,5.823,0,0,1,5.557,4.082Z" transform="translate(-24.357 -114.14)" fill="#a2b8cc"/>
            <path id="Trazado_1283831" data-name="Trazado 1283831" d="M128.321,279.42H67.413l-10.876-34.7a2.966,2.966,0,0,1,2.83-3.853H111.96a5.823,5.823,0,0,1,5.557,4.082Z" transform="translate(-26.726 -114.14)" fill="#bcccdd"/>
            <path id="Trazado_1283832" data-name="Trazado 1283832" d="M125.778,275.268h-52.1l-9.135-29.1h52.1Z" transform="translate(-30.583 -116.649)" fill="#fff"/>
            <path id="Trazado_1283833" data-name="Trazado 1283833" d="M128.78,313.386h-59.1a.9.9,0,0,0-.9.9v1.839a.9.9,0,0,0,.9.9h59.1a.9.9,0,0,0,.9-.9V314.29a.9.9,0,0,0-.9-.9" transform="translate(-32.591 -148.503)" fill="#a2b8cc"/>
            <path id="Trazado_1283834" data-name="Trazado 1283834" d="M145.3,313.386H86.2a.9.9,0,0,0-.9.9v1.839a.9.9,0,0,0,.9.9h59.1a.9.9,0,0,0,.9-.9V314.29a.9.9,0,0,0-.9-.9" transform="translate(-40.418 -148.503)" fill="#bcccdd"/>
            <line id="Línea_3285" data-name="Línea 3285" x2="60.908" transform="translate(40.687 165.279)" fill="none" stroke="#536c7f" stroke-linecap="round" stroke-miterlimit="10" stroke-width="1"/>
            <path id="Trazado_1283835" data-name="Trazado 1283835" d="M78.411,240.869H57.346a2.028,2.028,0,0,0-1.929,2.651L63.1,267.3" transform="translate(-26.213 -114.14)" fill="none" stroke="#536c7f" stroke-linecap="round" stroke-miterlimit="10" stroke-width="1"/>
            <path id="Trazado_1283836" data-name="Trazado 1283836" d="M118.037,259.353H88.158a1.81,1.81,0,1,1,0-3.621h29.878a1.81,1.81,0,0,1,0,3.621" transform="translate(-40.917 -121.183)" fill="#e2eaf2"/>
            <path id="Trazado_1283837" data-name="Trazado 1283837" d="M123.843,272.083H93.964a1.81,1.81,0,1,1,0-3.621h29.878a1.81,1.81,0,0,1,0,3.621" transform="translate(-43.668 -127.215)" fill="#e2eaf2"/>
            <path id="Trazado_1283838" data-name="Trazado 1283838" d="M129.648,284.813H99.769a1.81,1.81,0,1,1,0-3.621h29.878a1.81,1.81,0,0,1,0,3.621" transform="translate(-46.419 -133.248)" fill="#e2eaf2"/>
            <rect id="Rectángulo_464859" data-name="Rectángulo 464859" width="47.264" height="9.84" transform="translate(40.492 49.199)" fill="#87a1cf"/>
            <path id="Trazado_1283839" data-name="Trazado 1283839" d="M124.507,63.994a15.9,15.9,0,1,1-15.9-15.9,15.9,15.9,0,0,1,15.9,15.9" transform="translate(-43.93 -22.789)" fill="#87a1cf"/>
            <path id="Trazado_1283840" data-name="Trazado 1283840" d="M77.99,83.168A10.368,10.368,0,1,1,67.622,72.8,10.368,10.368,0,0,1,77.99,83.168" transform="translate(-27.131 -34.497)" fill="#87a1cf"/>
            <path id="Trazado_1283841" data-name="Trazado 1283841" d="M164.425,89.367a8.155,8.155,0,1,1-8.155-8.155,8.155,8.155,0,0,1,8.155,8.155" transform="translate(-70.187 -38.483)" fill="#87a1cf"/>
            <line id="Línea_3286" data-name="Línea 3286" x2="48.336" transform="translate(40.491 59.039)" fill="none" stroke="#536c7f" stroke-linecap="round" stroke-miterlimit="10" stroke-width="1"/>
            <path id="Trazado_1283842" data-name="Trazado 1283842" d="M94.118,65.522c-2.139,4.637-1.495,11.454-1.495,11.454" transform="translate(-43.848 -31.048)" fill="none" stroke="#536c7f" stroke-linecap="round" stroke-miterlimit="10" stroke-width="1"/>
            <path id="Trazado_1283843" data-name="Trazado 1283843" d="M148.114,89.862a9.027,9.027,0,0,1,5.211-7.605" transform="translate(-70.187 -38.979)" fill="none" stroke="#536c7f" stroke-linecap="round" stroke-miterlimit="10" stroke-width="1"/>
            <path id="Trazado_1283844" data-name="Trazado 1283844" d="M368.362,64.963a11.951,11.951,0,1,0-10.669-10.669,11.954,11.954,0,0,0,10.669,10.669M368.6,48.1a5.069,5.069,0,1,1-3.976,3.971A5.075,5.075,0,0,1,368.6,48.1" transform="translate(-169.471 -19.488)" fill="#ffe79e"/>
            <path id="Trazado_1283845" data-name="Trazado 1283845" d="M376.928,83.97h2.665a1.181,1.181,0,0,1,1.181,1.181v4.1a1.181,1.181,0,0,1-1.181,1.181h-2.665a1.181,1.181,0,0,1-1.181-1.181v-4.1a1.181,1.181,0,0,1,1.181-1.181" transform="translate(-178.055 -39.79)" fill="#ffe79e"/>
            <path id="Trazado_1283846" data-name="Trazado 1283846" d="M392.605,77.728l1.885-1.884a1.18,1.18,0,0,1,1.67,0l2.9,2.9a1.181,1.181,0,0,1,0,1.67L397.176,82.3a1.182,1.182,0,0,1-1.67,0l-2.9-2.9a1.181,1.181,0,0,1,0-1.67" transform="translate(-185.88 -35.776)" fill="#ffe79e"/>
            <path id="Trazado_1283847" data-name="Trazado 1283847" d="M400.478,62.726V60.061a1.181,1.181,0,0,1,1.181-1.181h4.1a1.181,1.181,0,0,1,1.181,1.181v2.665a1.181,1.181,0,0,1-1.181,1.181h-4.1a1.181,1.181,0,0,1-1.181-1.181" transform="translate(-189.774 -27.901)" fill="#ffe79e"/>
            <path id="Trazado_1283848" data-name="Trazado 1283848" d="M394.236,45.139l-1.885-1.885a1.181,1.181,0,0,1,0-1.67l2.9-2.9a1.181,1.181,0,0,1,1.67,0l1.885,1.884a1.182,1.182,0,0,1,0,1.67l-2.9,2.9a1.181,1.181,0,0,1-1.67,0" transform="translate(-185.759 -18.167)" fill="#ffe79e"/>
            <path id="Trazado_1283849" data-name="Trazado 1283849" d="M379.233,37.882h-2.665a1.181,1.181,0,0,1-1.181-1.181V32.6a1.181,1.181,0,0,1,1.181-1.181h2.665a1.181,1.181,0,0,1,1.181,1.181v4.1a1.181,1.181,0,0,1-1.181,1.181" transform="translate(-177.884 -14.888)" fill="#ffe79e"/>
            <path id="Trazado_1283850" data-name="Trazado 1283850" d="M361.647,43.509l-1.885,1.885a1.181,1.181,0,0,1-1.67,0l-2.9-2.9a1.18,1.18,0,0,1,0-1.67l1.884-1.885a1.18,1.18,0,0,1,1.67,0l2.9,2.9a1.182,1.182,0,0,1,0,1.67" transform="translate(-168.15 -18.287)" fill="#ffe79e"/>
            <path id="Trazado_1283851" data-name="Trazado 1283851" d="M354.389,60.42v2.665a1.181,1.181,0,0,1-1.181,1.181h-4.1a1.181,1.181,0,0,1-1.181-1.181V60.42a1.181,1.181,0,0,1,1.181-1.181h4.1a1.181,1.181,0,0,1,1.181,1.181" transform="translate(-164.871 -28.071)" fill="#ffe79e"/>
            <path id="Trazado_1283852" data-name="Trazado 1283852" d="M360.016,76.1l1.884,1.885a1.18,1.18,0,0,1,0,1.67l-2.9,2.9a1.181,1.181,0,0,1-1.67,0l-1.885-1.884a1.182,1.182,0,0,1,0-1.67l2.9-2.9a1.181,1.181,0,0,1,1.67,0" transform="translate(-168.271 -35.896)" fill="#ffe79e"/>
            <path id="Trazado_1283853" data-name="Trazado 1283853" d="M420.111,86.473h1.537a.609.609,0,0,0,.179-.026,5.213,5.213,0,0,0,.758,1.786.714.714,0,0,0-.132.1l-1.086,1.086a.663.663,0,0,0,0,.931l.638.638a.657.657,0,0,0,.931,0l1.086-1.086a.59.59,0,0,0,.108-.149,5.207,5.207,0,0,0,1.8.735.591.591,0,0,0-.02.161v1.537a.655.655,0,0,0,.656.656h.9a.658.658,0,0,0,.659-.656V90.651a.638.638,0,0,0-.026-.182,5.134,5.134,0,0,0,1.789-.756.7.7,0,0,0,.1.132l1.086,1.086a.663.663,0,0,0,.931,0l.639-.639a.663.663,0,0,0,0-.931l-1.086-1.086a.662.662,0,0,0-.147-.111,5.143,5.143,0,0,0,.729-1.8.613.613,0,0,0,.164.021h1.537a.655.655,0,0,0,.656-.656v-.9a.657.657,0,0,0-.656-.659h-1.537a.6.6,0,0,0-.178.026,5.22,5.22,0,0,0-.759-1.786.738.738,0,0,0,.132-.1l1.086-1.086a.662.662,0,0,0,0-.931l-.638-.638a.657.657,0,0,0-.931,0l-1.086,1.086a.584.584,0,0,0-.108.149,5.2,5.2,0,0,0-1.8-.735.591.591,0,0,0,.02-.161V78.455a.654.654,0,0,0-.656-.656h-.9a.657.657,0,0,0-.659.656v1.538a.645.645,0,0,0,.026.182,5.138,5.138,0,0,0-1.789.756.714.714,0,0,0-.1-.132l-1.086-1.086a.663.663,0,0,0-.931,0l-.638.639a.657.657,0,0,0,0,.931l1.086,1.086a.661.661,0,0,0,.146.112,5.166,5.166,0,0,0-.729,1.8.631.631,0,0,0-.164-.021h-1.537a.655.655,0,0,0-.656.656v.9a.657.657,0,0,0,.656.659m4.677-1.593a2.235,2.235,0,1,1,2.624,2.635,2.231,2.231,0,0,1-2.624-2.635" transform="translate(-198.767 -36.866)" fill="#ffe79e"/>
            <path id="Trazado_1283854" data-name="Trazado 1283854" d="M118.991,164.653a8.11,8.11,0,1,1-8.11-8.11,8.11,8.11,0,0,1,8.11,8.11" transform="translate(-48.7 -74.18)" fill="#76a87e"/>
            <path id="Trazado_1283855" data-name="Trazado 1283855" d="M109.857,170.259l3.709,2.985,4.774-4.871" transform="translate(-52.058 -79.786)" fill="none" stroke="#fff" stroke-miterlimit="10" stroke-width="2"/>
            <path id="Trazado_1283856" data-name="Trazado 1283856" d="M278.217,64.913H258.951V58.908a9.633,9.633,0,0,1,19.266,0Zm-17.4-1.871h15.525V58.908a7.762,7.762,0,0,0-15.525,0Z" transform="translate(-122.709 -23.349)" fill="#bcccdd"/>
            <path id="Trazado_1283857" data-name="Trazado 1283857" d="M275.643,99.569h-28.5a3.367,3.367,0,0,1-3.367-3.367V76.043a3.367,3.367,0,0,1,3.367-3.367h28.5a3.367,3.367,0,0,1,3.367,3.367V96.2a3.367,3.367,0,0,1-3.367,3.367" transform="translate(-115.518 -34.438)" fill="#bcccdd"/>
            <path id="Trazado_1283858" data-name="Trazado 1283858" d="M251.727,72.676h28.254a2.8,2.8,0,0,1,2.8,2.8v17.58" transform="translate(-119.286 -34.438)" fill="none" stroke="#536c7f" stroke-linecap="round" stroke-miterlimit="10" stroke-width="1"/>
            <path id="Trazado_1283859" data-name="Trazado 1283859" d="M277.5,89.57a2.425,2.425,0,1,1-2.425-2.425A2.425,2.425,0,0,1,277.5,89.57" transform="translate(-129.2 -41.295)" fill="#fff"/>
            <path id="Trazado_1283860" data-name="Trazado 1283860" d="M277.487,100.443h-4.563l1.247-6.893h2.068Z" transform="translate(-129.33 -44.33)" fill="#fff"/>
            <rect id="Rectángulo_464860" data-name="Rectángulo 464860" width="17.02" height="4.59" transform="translate(31.464 67.645)" fill="#ffe79e"/>
            <rect id="Rectángulo_464861" data-name="Rectángulo 464861" width="20.997" height="4.59" transform="translate(27.487 74.786)" fill="#ffd453"/>
            <rect id="Rectángulo_464862" data-name="Rectángulo 464862" width="11.902" height="4.59" transform="translate(36.582 81.928)" fill="#ffe79e"/>
            <rect id="Rectángulo_464863" data-name="Rectángulo 464863" width="7.978" height="4.59" transform="translate(40.506 89.069)" fill="#ffe79e"/>
            <rect id="Rectángulo_464864" data-name="Rectángulo 464864" width="33.811" height="6.054" transform="translate(117.672 70.321)" fill="#ffe79e"/>
            <rect id="Rectángulo_464865" data-name="Rectángulo 464865" width="21.484" height="6.054" transform="translate(117.671 79.772)" fill="#ffe79e"/>
            <path id="Trazado_1283861" data-name="Trazado 1283861" d="M209.318,88.263a8.11,8.11,0,1,1-8.11-8.11,8.111,8.111,0,0,1,8.11,8.11" transform="translate(-91.503 -37.982)" fill="#76a87e"/>
            <path id="Trazado_1283862" data-name="Trazado 1283862" d="M200.185,93.868l3.709,2.985,4.774-4.872" transform="translate(-94.862 -43.587)" fill="none" stroke="#fff" stroke-miterlimit="10" stroke-width="2"/>
          </g>
        </g>
      </g>
    </g>
  </g>
</svg>
