<svg xmlns="http://www.w3.org/2000/svg" xmlns:xlink="http://www.w3.org/1999/xlink" width="396" height="291" viewBox="0 0 396 291">
  <defs>
    <clipPath id="clip-path">
      <rect id="Rectángulo_464662" data-name="Rectángulo 464662" width="396" height="291" transform="translate(186 7086)" fill="#ffe79e"/>
    </clipPath>
    <clipPath id="clip-path-2">
      <rect id="Rectángulo_464962" data-name="Rectángulo 464962" width="314.948" height="328.744" fill="none"/>
    </clipPath>
    <clipPath id="clip-path-3">
      <rect id="Rectángulo_464936" data-name="Rectángulo 464936" width="314.948" height="314.948" fill="none"/>
    </clipPath>
    <clipPath id="clip-path-4">
      <rect id="Rectángulo_464935" data-name="Rectángulo 464935" width="211.064" height="211.064" fill="#fff7df"/>
    </clipPath>
    <clipPath id="clip-path-6">
      <rect id="Rectángulo_464937" data-name="Rectángulo 464937" width="36.323" height="30.215" fill="none"/>
    </clipPath>
    <clipPath id="clip-path-7">
      <rect id="Rectángulo_464938" data-name="Rectángulo 464938" width="31.425" height="26.14" fill="none"/>
    </clipPath>
    <clipPath id="clip-path-8">
      <rect id="Rectángulo_464939" data-name="Rectángulo 464939" width="36.323" height="30.214" fill="none"/>
    </clipPath>
    <clipPath id="clip-path-12">
      <rect id="Rectángulo_464960" data-name="Rectángulo 464960" width="54.813" height="128.852" fill="none"/>
    </clipPath>
  </defs>
  <g id="Enmascarar_grupo_1178592" data-name="Enmascarar grupo 1178592" transform="translate(-186 -7086)" clip-path="url(#clip-path)">
    <g id="Grupo_1212044" data-name="Grupo 1212044" transform="translate(227 7069.026)">
      <g id="Grupo_1212043" data-name="Grupo 1212043" clip-path="url(#clip-path-2)">
        <g id="Grupo_1212020" data-name="Grupo 1212020" transform="translate(0 -0.001)">
          <g id="Grupo_1212019" data-name="Grupo 1212019" clip-path="url(#clip-path-3)">
            <g id="Grupo_1212018" data-name="Grupo 1212018" transform="translate(83.111 57.397)" opacity="0.62">
              <g id="Grupo_1212017" data-name="Grupo 1212017">
                <g id="Grupo_1212016" data-name="Grupo 1212016" clip-path="url(#clip-path-4)">
                  <path id="Trazado_1283921" data-name="Trazado 1283921" d="M343.008,196.652A105.532,105.532,0,1,1,237.476,91.12,105.532,105.532,0,0,1,343.008,196.652" transform="translate(-131.944 -91.12)" fill="#fff7df"/>
                </g>
              </g>
            </g>
          </g>
        </g>
        <path id="Trazado_1283922" data-name="Trazado 1283922" d="M251.21,70.754V216.3H137.672" transform="translate(-50.953 -26.186)" fill="none" stroke="#a8c5e2" stroke-miterlimit="10" stroke-width="1"/>
        <line id="Línea_3287" data-name="Línea 3287" y1="64.239" transform="translate(86.886 136.906)" fill="none" stroke="#a8c5e2" stroke-miterlimit="10" stroke-width="1"/>
        <g id="Grupo_1212037" data-name="Grupo 1212037" transform="translate(0 -0.001)">
          <g id="Grupo_1212036" data-name="Grupo 1212036" clip-path="url(#clip-path-3)">
            <path id="Trazado_1283923" data-name="Trazado 1283923" d="M154.936,484.065c0,3.561-18.453,6.447-41.215,6.447S72.5,487.626,72.5,484.065s18.453-6.447,41.215-6.447,41.215,2.886,41.215,6.447" transform="translate(-26.834 -176.767)" fill="#a7adb3"/>
            <path id="Trazado_1283924" data-name="Trazado 1283924" d="M151.795,485.356c0,2.347-15.043,4.25-33.6,4.25s-33.6-1.9-33.6-4.25,15.043-4.25,33.6-4.25,33.6,1.9,33.6,4.25" transform="translate(-31.31 -178.058)" fill="#b0b5b8"/>
            <path id="Trazado_1283925" data-name="Trazado 1283925" d="M154.936,487.853c0,3.561-18.453,6.447-41.215,6.447S72.5,491.414,72.5,487.853" transform="translate(-26.834 -180.555)" fill="none" stroke="#5a6c7b" stroke-linecap="round" stroke-miterlimit="10" stroke-width="1"/>
            <path id="Trazado_1283926" data-name="Trazado 1283926" d="M157.586,465.758v22.76c0,4.115-21.327,7.454-47.64,7.454s-47.64-3.34-47.64-7.454v-22.76Z" transform="translate(-23.059 -172.378)" fill="#b2bdca"/>
            <g id="Grupo_1212023" data-name="Grupo 1212023" transform="translate(85.462 293.377)" opacity="0.4">
              <g id="Grupo_1212022" data-name="Grupo 1212022">
                <g id="Grupo_1212021" data-name="Grupo 1212021" clip-path="url(#clip-path-6)">
                  <path id="Trazado_1283927" data-name="Trazado 1283927" d="M172,465.752v26.2a6.438,6.438,0,0,1-.223,1.665,223.3,223.3,0,0,1-34.677,2.353h-.126a7.157,7.157,0,0,1-1.3-4.018v-26.2Z" transform="translate(-135.676 -465.752)" fill="#c3cad1"/>
                </g>
              </g>
            </g>
            <path id="Trazado_1283928" data-name="Trazado 1283928" d="M157.586,461.383c0,4.116-21.329,7.452-47.639,7.452s-47.64-3.337-47.64-7.452,21.329-7.452,47.64-7.452,47.639,3.337,47.639,7.452" transform="translate(-23.06 -168.001)" fill="#c3cad1"/>
            <path id="Trazado_1283929" data-name="Trazado 1283929" d="M153.954,462.876c0,2.713-17.387,4.913-38.834,4.913s-38.836-2.2-38.836-4.913,17.386-4.913,38.836-4.913,38.834,2.2,38.834,4.913" transform="translate(-28.233 -169.493)" fill="#ccd2d6"/>
            <path id="Trazado_1283930" data-name="Trazado 1283930" d="M157.586,465.762c0,4.116-21.329,7.452-47.639,7.452s-47.64-3.337-47.64-7.452" transform="translate(-23.06 -172.379)" fill="none" stroke="#708699" stroke-linecap="round" stroke-miterlimit="10" stroke-width="1"/>
            <path id="Trazado_1283931" data-name="Trazado 1283931" d="M96.362,488.486v5.944A142.58,142.58,0,0,1,76.283,491.9v-5.944a142.5,142.5,0,0,0,20.079,2.527" transform="translate(-28.233 -179.854)" fill="#dfe3e8"/>
            <path id="Trazado_1283932" data-name="Trazado 1283932" d="M172.217,485.036v5.944C163.969,493.207,148.6,494.7,131,494.7c-4.075,0-8.035-.077-11.811-.232v-5.944c3.776.155,7.735.232,11.811.232,17.6,0,32.964-1.491,41.212-3.718" transform="translate(-44.114 -179.513)" fill="#dfe3e8"/>
            <path id="Trazado_1283933" data-name="Trazado 1283933" d="M154.936,428.063v19.691c0,3.56-18.452,6.449-41.216,6.449S72.5,451.314,72.5,447.754V428.063Z" transform="translate(-26.834 -158.427)" fill="#8ea1b2"/>
            <g id="Grupo_1212026" data-name="Grupo 1212026" transform="translate(85.654 269.633)" opacity="0.42">
              <g id="Grupo_1212025" data-name="Grupo 1212025">
                <g id="Grupo_1212024" data-name="Grupo 1212024" clip-path="url(#clip-path-7)">
                  <path id="Trazado_1283934" data-name="Trazado 1283934" d="M167.406,428.058v22.664a5.561,5.561,0,0,1-.193,1.441,193.132,193.132,0,0,1-30,2.035H137.1a6.193,6.193,0,0,1-1.122-3.476V428.058Z" transform="translate(-135.981 -428.058)" fill="#b2bdca"/>
                </g>
              </g>
            </g>
            <path id="Trazado_1283935" data-name="Trazado 1283935" d="M154.936,424.278c0,3.561-18.453,6.447-41.215,6.447S72.5,427.839,72.5,424.278s18.453-6.447,41.215-6.447,41.215,2.886,41.215,6.447" transform="translate(-26.834 -154.64)" fill="#a7adb3"/>
            <path id="Trazado_1283936" data-name="Trazado 1283936" d="M151.795,425.569c0,2.347-15.043,4.25-33.6,4.25s-33.6-1.9-33.6-4.25,15.043-4.25,33.6-4.25,33.6,1.9,33.6,4.25" transform="translate(-31.31 -155.931)" fill="#b0b5b8"/>
            <path id="Trazado_1283937" data-name="Trazado 1283937" d="M154.936,428.066c0,3.561-18.453,6.447-41.215,6.447S72.5,431.627,72.5,428.066" transform="translate(-26.834 -158.428)" fill="none" stroke="#5a6c7b" stroke-linecap="round" stroke-miterlimit="10" stroke-width="1"/>
            <path id="Trazado_1283938" data-name="Trazado 1283938" d="M157.586,405.972v22.76c0,4.114-21.327,7.454-47.64,7.454s-47.64-3.34-47.64-7.454v-22.76Z" transform="translate(-23.059 -150.251)" fill="#b2bdca"/>
            <g id="Grupo_1212029" data-name="Grupo 1212029" transform="translate(85.462 255.717)" opacity="0.4">
              <g id="Grupo_1212028" data-name="Grupo 1212028">
                <g id="Grupo_1212027" data-name="Grupo 1212027" clip-path="url(#clip-path-8)">
                  <path id="Trazado_1283939" data-name="Trazado 1283939" d="M172,405.966v26.2a6.438,6.438,0,0,1-.223,1.665,223.3,223.3,0,0,1-34.677,2.353h-.126a7.157,7.157,0,0,1-1.3-4.018v-26.2Z" transform="translate(-135.676 -405.966)" fill="#c3cad1"/>
                </g>
              </g>
            </g>
            <path id="Trazado_1283940" data-name="Trazado 1283940" d="M157.586,401.6c0,4.116-21.329,7.452-47.639,7.452s-47.64-3.337-47.64-7.452,21.329-7.452,47.64-7.452,47.639,3.336,47.639,7.452" transform="translate(-23.06 -145.874)" fill="#c3cad1"/>
            <path id="Trazado_1283941" data-name="Trazado 1283941" d="M153.954,403.089c0,2.713-17.387,4.913-38.834,4.913s-38.836-2.2-38.836-4.913,17.386-4.913,38.836-4.913,38.834,2.2,38.834,4.913" transform="translate(-28.233 -147.366)" fill="#ccd2d6"/>
            <path id="Trazado_1283942" data-name="Trazado 1283942" d="M157.586,405.975c0,4.116-21.329,7.452-47.639,7.452s-47.64-3.337-47.64-7.452" transform="translate(-23.06 -150.252)" fill="none" stroke="#708699" stroke-linecap="round" stroke-miterlimit="10" stroke-width="1"/>
            <path id="Trazado_1283943" data-name="Trazado 1283943" d="M157.586,442.892c0,4.116-21.329,7.452-47.639,7.452s-47.64-3.336-47.64-7.452" transform="translate(-23.06 -163.915)" fill="none" stroke="#708699" stroke-linecap="round" stroke-miterlimit="10" stroke-width="1"/>
            <path id="Trazado_1283944" data-name="Trazado 1283944" d="M96.362,428.7v5.944a142.581,142.581,0,0,1-20.079-2.527v-5.944A142.5,142.5,0,0,0,96.362,428.7" transform="translate(-28.233 -157.727)" fill="#dfe3e8"/>
            <path id="Trazado_1283945" data-name="Trazado 1283945" d="M172.217,425.249v5.944c-8.248,2.227-23.612,3.718-41.212,3.718-4.075,0-8.035-.077-11.811-.232v-5.944c3.776.155,7.735.232,11.811.232,17.6,0,32.964-1.491,41.212-3.718" transform="translate(-44.114 -157.385)" fill="#dfe3e8"/>
            <path id="Trazado_1283946" data-name="Trazado 1283946" d="M154.936,368.276v19.691c0,3.56-18.452,6.449-41.216,6.449S72.5,391.527,72.5,387.967V368.276Z" transform="translate(-26.834 -136.3)" fill="#8ea1b2"/>
            <g id="Grupo_1212032" data-name="Grupo 1212032" transform="translate(85.654 231.973)" opacity="0.42">
              <g id="Grupo_1212031" data-name="Grupo 1212031">
                <g id="Grupo_1212030" data-name="Grupo 1212030" clip-path="url(#clip-path-7)">
                  <path id="Trazado_1283947" data-name="Trazado 1283947" d="M167.406,368.271v22.664a5.565,5.565,0,0,1-.193,1.441,193.137,193.137,0,0,1-30,2.035H137.1a6.193,6.193,0,0,1-1.122-3.476V368.271Z" transform="translate(-135.981 -368.271)" fill="#b2bdca"/>
                </g>
              </g>
            </g>
            <path id="Trazado_1283948" data-name="Trazado 1283948" d="M154.936,364.491c0,3.561-18.453,6.447-41.215,6.447S72.5,368.052,72.5,364.491s18.453-6.447,41.215-6.447,41.215,2.886,41.215,6.447" transform="translate(-26.834 -132.513)" fill="#a7adb3"/>
            <path id="Trazado_1283949" data-name="Trazado 1283949" d="M151.795,365.782c0,2.347-15.043,4.25-33.6,4.25s-33.6-1.9-33.6-4.25,15.043-4.25,33.6-4.25,33.6,1.9,33.6,4.25" transform="translate(-31.31 -133.804)" fill="#b0b5b8"/>
            <path id="Trazado_1283950" data-name="Trazado 1283950" d="M154.936,368.279c0,3.561-18.453,6.447-41.215,6.447S72.5,371.84,72.5,368.279" transform="translate(-26.834 -136.301)" fill="none" stroke="#5a6c7b" stroke-linecap="round" stroke-miterlimit="10" stroke-width="1"/>
            <path id="Trazado_1283951" data-name="Trazado 1283951" d="M157.586,346.185v22.76c0,4.115-21.327,7.454-47.64,7.454s-47.64-3.34-47.64-7.454v-22.76Z" transform="translate(-23.059 -128.124)" fill="#b2bdca"/>
            <g id="Grupo_1212035" data-name="Grupo 1212035" transform="translate(85.462 218.058)" opacity="0.4">
              <g id="Grupo_1212034" data-name="Grupo 1212034">
                <g id="Grupo_1212033" data-name="Grupo 1212033" clip-path="url(#clip-path-8)">
                  <path id="Trazado_1283952" data-name="Trazado 1283952" d="M172,346.179v26.2a6.438,6.438,0,0,1-.223,1.665,223.307,223.307,0,0,1-34.677,2.352h-.126a7.154,7.154,0,0,1-1.3-4.017v-26.2Z" transform="translate(-135.676 -346.179)" fill="#c3cad1"/>
                </g>
              </g>
            </g>
            <path id="Trazado_1283953" data-name="Trazado 1283953" d="M157.586,341.809c0,4.116-21.329,7.452-47.639,7.452s-47.64-3.337-47.64-7.452,21.329-7.452,47.64-7.452,47.639,3.337,47.639,7.452" transform="translate(-23.06 -123.746)" fill="#c3cad1"/>
            <path id="Trazado_1283954" data-name="Trazado 1283954" d="M153.954,343.3c0,2.713-17.387,4.913-38.834,4.913s-38.836-2.2-38.836-4.913,17.386-4.913,38.836-4.913,38.834,2.2,38.834,4.913" transform="translate(-28.233 -125.238)" fill="#ccd2d6"/>
            <path id="Trazado_1283955" data-name="Trazado 1283955" d="M157.586,346.188c0,4.116-21.329,7.452-47.639,7.452s-47.64-3.337-47.64-7.452" transform="translate(-23.06 -128.125)" fill="none" stroke="#708699" stroke-linecap="round" stroke-miterlimit="10" stroke-width="1"/>
            <path id="Trazado_1283956" data-name="Trazado 1283956" d="M157.586,383.105c0,4.116-21.329,7.453-47.639,7.453s-47.64-3.337-47.64-7.453" transform="translate(-23.06 -141.788)" fill="none" stroke="#708699" stroke-linecap="round" stroke-miterlimit="10" stroke-width="1"/>
            <path id="Trazado_1283957" data-name="Trazado 1283957" d="M96.362,368.912v5.944a142.49,142.49,0,0,1-20.079-2.527v-5.944a142.5,142.5,0,0,0,20.079,2.527" transform="translate(-28.233 -135.6)" fill="#dfe3e8"/>
            <path id="Trazado_1283958" data-name="Trazado 1283958" d="M172.217,365.462v5.945c-8.248,2.226-23.612,3.717-41.212,3.717-4.075,0-8.035-.077-11.811-.232v-5.944c3.776.156,7.735.233,11.811.233,17.6,0,32.964-1.492,41.212-3.718" transform="translate(-44.114 -135.258)" fill="#dfe3e8"/>
            <path id="Trazado_1283959" data-name="Trazado 1283959" d="M78.352,243.369a26.023,26.023,0,1,1-26.023-26.023,26.023,26.023,0,0,1,26.023,26.023" transform="translate(-9.736 -80.44)" fill="#ea7468"/>
          </g>
        </g>
        <text id="NoSQL" transform="translate(24 167.025)" fill="#fff" font-size="12" font-family="Roboto-Bold, Roboto" font-weight="700"><tspan x="0" y="0">NoSQL</tspan></text>
        <g id="Grupo_1212042" data-name="Grupo 1212042" transform="translate(0 -0.001)">
          <g id="Grupo_1212041" data-name="Grupo 1212041" clip-path="url(#clip-path-3)">
            <path id="Trazado_1283960" data-name="Trazado 1283960" d="M139.86,338.668h-9.329v-.32a4.665,4.665,0,0,1,9.329,0Z" transform="translate(-48.31 -123.497)" fill="#5f7b93"/>
            <path id="Trazado_1283961" data-name="Trazado 1283961" d="M57.9,299.443h9.329v.319a4.665,4.665,0,1,1-9.329,0Z" transform="translate(-21.428 -110.824)" fill="#5f7b93"/>
            <path id="Trazado_1283962" data-name="Trazado 1283962" d="M309.626,81.914h9.329v.32a4.665,4.665,0,0,1-9.329,0Z" transform="translate(-114.594 -30.316)" fill="#5f7b93"/>
            <path id="Trazado_1283963" data-name="Trazado 1283963" d="M65.3,307.355V314.9h45.753v9.042" transform="translate(-24.169 -113.753)" fill="none" stroke="#a8c5e2" stroke-miterlimit="10" stroke-width="1"/>
            <path id="Trazado_1283964" data-name="Trazado 1283964" d="M141.942,278.323a9.71,9.71,0,1,1-9.71-9.71,9.71,9.71,0,0,1,9.71,9.71" transform="translate(-45.346 -99.414)" fill="#76a87e"/>
            <path id="Trazado_1283965" data-name="Trazado 1283965" d="M129.61,282.7l4.441,3.574,5.716-5.833" transform="translate(-47.969 -103.792)" fill="none" stroke="#fff" stroke-miterlimit="10" stroke-width="2"/>
            <path id="Trazado_1283966" data-name="Trazado 1283966" d="M295.616,57.971a11.007,11.007,0,1,1-11.007-11.007,11.008,11.008,0,0,1,11.007,11.007" transform="translate(-101.261 -17.381)" fill="#bcccdd"/>
            <path id="Trazado_1283967" data-name="Trazado 1283967" d="M369.993,65.286a7.644,7.644,0,1,1-7.644-7.644,7.644,7.644,0,0,1,7.644,7.644" transform="translate(-131.277 -21.333)" fill="#bcccdd"/>
            <path id="Trazado_1283968" data-name="Trazado 1283968" d="M338.437,46.154A16.44,16.44,0,1,1,322,29.714a16.44,16.44,0,0,1,16.44,16.44" transform="translate(-113.087 -10.997)" fill="#bcccdd"/>
            <path id="Trazado_1283969" data-name="Trazado 1283969" d="M338.8,72.931H291.076l1.533-15.288,43.918,7.644Z" transform="translate(-107.728 -21.333)" fill="#bcccdd"/>
            <path id="Trazado_1283970" data-name="Trazado 1283970" d="M302.275,51.026c5.063,3.418,4.621,11.812,4.621,11.812" transform="translate(-111.873 -18.884)" fill="none" stroke="#536c7f" stroke-linecap="round" stroke-miterlimit="10" stroke-width="1"/>
            <path id="Trazado_1283971" data-name="Trazado 1283971" d="M349.931,37.187c6.005,7.371,6.245,14.448,3.876,17.525" transform="translate(-129.511 -13.762)" fill="none" stroke="#536c7f" stroke-linecap="round" stroke-miterlimit="10" stroke-width="1"/>
            <line id="Línea_3288" data-name="Línea 3288" x1="11.51" transform="translate(216.851 51.954)" fill="none" stroke="#536c7f" stroke-linecap="round" stroke-miterlimit="10" stroke-width="1"/>
            <path id="Trazado_1283972" data-name="Trazado 1283972" d="M67.416,55.491A25.649,25.649,0,1,0,93.07,81.136,25.643,25.643,0,0,0,67.416,55.491m0,42.3a16.655,16.655,0,1,1,16.66-16.66A16.655,16.655,0,0,1,67.416,97.8" transform="translate(-15.46 -20.537)" fill="#ffe79e"/>
            <rect id="Rectángulo_464943" data-name="Rectángulo 464943" width="6.744" height="13.794" transform="translate(48.588 28.057)" fill="#ffe79e"/>
            <rect id="Rectángulo_464944" data-name="Rectángulo 464944" width="6.744" height="13.794" transform="translate(26.562 39.974) rotate(-45)" fill="#ffe79e"/>
            <rect id="Rectángulo_464945" data-name="Rectángulo 464945" width="13.793" height="6.744" transform="translate(19.414 57.231)" fill="#ffe79e"/>
            <rect id="Rectángulo_464946" data-name="Rectángulo 464946" width="13.794" height="6.744" transform="translate(26.562 81.232) rotate(-45)" fill="#ffe79e"/>
            <rect id="Rectángulo_464947" data-name="Rectángulo 464947" width="6.744" height="13.794" transform="translate(48.587 79.354)" fill="#ffe79e"/>
            <rect id="Rectángulo_464948" data-name="Rectángulo 464948" width="6.744" height="13.794" transform="matrix(0.707, -0.707, 0.707, 0.707, 62.834, 76.247)" fill="#d3e4f2"/>
            <rect id="Rectángulo_464949" data-name="Rectángulo 464949" width="13.794" height="6.744" transform="translate(70.711 57.231)" fill="#ffe79e"/>
            <rect id="Rectángulo_464950" data-name="Rectángulo 464950" width="13.794" height="6.744" transform="translate(62.834 44.959) rotate(-45)" fill="#ffe79e"/>
            <path id="Trazado_1283973" data-name="Trazado 1283973" d="M87.677,88.822A12.574,12.574,0,1,1,75.1,76.248,12.574,12.574,0,0,1,87.677,88.822" transform="translate(-23.143 -28.219)" fill="#ffe79e"/>
            <path id="Trazado_1283974" data-name="Trazado 1283974" d="M75.1,101.4a12.574,12.574,0,1,1,0-25.147" transform="translate(-23.142 -28.219)" fill="none" stroke="#536c7f" stroke-linecap="round" stroke-miterlimit="10" stroke-width="1"/>
            <path id="Trazado_1283975" data-name="Trazado 1283975" d="M145.457,31.915a13.125,13.125,0,1,0,13.128,13.123,13.122,13.122,0,0,0-13.128-13.123m0,21.648a8.523,8.523,0,1,1,8.525-8.525,8.523,8.523,0,0,1-8.525,8.525" transform="translate(-48.977 -11.811)" fill="#ffe79e"/>
            <rect id="Rectángulo_464951" data-name="Rectángulo 464951" width="3.451" height="7.059" transform="translate(94.756 16.574)" fill="#ffe79e"/>
            <rect id="Rectángulo_464952" data-name="Rectángulo 464952" width="3.451" height="7.059" transform="translate(83.485 22.673) rotate(-45)" fill="#ffe79e"/>
            <rect id="Rectángulo_464953" data-name="Rectángulo 464953" width="7.059" height="3.451" transform="translate(79.827 31.504)" fill="#ffe79e"/>
            <rect id="Rectángulo_464954" data-name="Rectángulo 464954" width="7.059" height="3.451" transform="matrix(0.707, -0.707, 0.707, 0.707, 83.485, 43.785)" fill="#ffe79e"/>
            <rect id="Rectángulo_464955" data-name="Rectángulo 464955" width="3.451" height="7.059" transform="translate(94.756 42.825)" fill="#ffe79e"/>
            <rect id="Rectángulo_464956" data-name="Rectángulo 464956" width="3.451" height="7.059" transform="translate(102.047 41.234) rotate(-45)" fill="#ffe79e"/>
            <rect id="Rectángulo_464957" data-name="Rectángulo 464957" width="7.059" height="3.451" transform="translate(106.077 31.504)" fill="#ffe79e"/>
            <rect id="Rectángulo_464958" data-name="Rectángulo 464958" width="7.059" height="3.451" transform="translate(102.047 25.224) rotate(-45)" fill="#ffe79e"/>
            <path id="Trazado_1283976" data-name="Trazado 1283976" d="M155.826,48.971a6.434,6.434,0,1,1-6.434-6.434,6.434,6.434,0,0,1,6.434,6.434" transform="translate(-52.909 -15.742)" fill="#ffe79e"/>
            <path id="Trazado_1283977" data-name="Trazado 1283977" d="M436.278,453.424c.936,4.119-6.574,10.806-4.492,13.6.711.955,2.982-.887,3.99-1.519A26.581,26.581,0,0,0,439.9,461.4s2.636,16.956,4.817,17.223c2.162.265,1.832-5.886,1.832-5.886s.664,8.671,2.915,8.648,1.679-9.1,1.679-9.1.806,7.4,2.764,7.14.937-9.5.937-9.5.77,4.624,2.779,4-4.285-25.85-4.285-25.85Z" transform="translate(-159.67 -165.833)" fill="#f9d5bf"/>
            <path id="Trazado_1283978" data-name="Trazado 1283978" d="M435.054,300.941l2.723,17.466,8.558,76.485-16.728,3.817-17.117-61.864v-37.4Z" transform="translate(-152.664 -110.824)" fill="#f9d5bf"/>
            <path id="Trazado_1283979" data-name="Trazado 1283979" d="M436.322,312.867l-26.512,2.816L411.5,292.5l22.824,3.152Z" transform="translate(-151.672 -108.255)" fill="#fca695"/>
            <path id="Trazado_1283980" data-name="Trazado 1283980" d="M246.569,285.712l-4.114,11.935L207.8,275.4,198.3,290.543s37.388,33.314,42.137,36.006c6.635,3.761,11.627,8.887,21.894-4.425,4.147-5.376,11.32-29.743,11.32-29.743Z" transform="translate(-73.39 -101.925)" fill="#f9d5bf"/>
            <path id="Trazado_1283981" data-name="Trazado 1283981" d="M271.468,298.1l23.957,16.619,5.3-16.28-27.078-6.669Z" transform="translate(-100.471 -107.985)" fill="#fca695"/>
            <path id="Trazado_1283982" data-name="Trazado 1283982" d="M360.656,367.657c2.711,27.64,8.08,92.5,8.08,92.5H326.869l-3.657-58.122L304.8,460.159H268.241s11.865-67.228,26.207-92.5Z" transform="translate(-99.277 -136.07)" fill="#fca695"/>
            <path id="Trazado_1283983" data-name="Trazado 1283983" d="M344.059,367.657v26.111h7.654V369.327" transform="translate(-127.337 -136.07)" fill="none" stroke="#a84c40" stroke-linecap="round" stroke-miterlimit="10" stroke-width="1"/>
            <line id="Línea_3289" data-name="Línea 3289" x2="8.788" y2="92.502" transform="translate(255.695 231.587)" fill="none" stroke="#a84c40" stroke-linecap="round" stroke-miterlimit="10" stroke-width="1"/>
            <line id="Línea_3290" data-name="Línea 3290" x1="20.679" y2="70.732" transform="translate(196.043 257.697)" fill="none" stroke="#a84c40" stroke-linecap="round" stroke-miterlimit="10" stroke-width="1"/>
            <path id="Trazado_1283984" data-name="Trazado 1283984" d="M321.049,195.541s-25.283,2.537-30.993,8.247-21.815,55.57-21.815,55.57l31.974,7.876,31.974-52.028L329.5,196.063Z" transform="translate(-99.277 -72.37)" fill="#c4ba8c"/>
            <path id="Trazado_1283985" data-name="Trazado 1283985" d="M301.89,221.649s46.027-9.68,79.3,0l-8.08,90.378H306.9l1.087-47.34Z" transform="translate(-111.73 -80.44)" fill="#c4ba8c"/>
            <path id="Trazado_1283986" data-name="Trazado 1283986" d="M389.328,195.11c9.068.719,29.6,6.194,33.022,11.327s8.514,60.637,8.514,60.637l-32.468,2.67-14.764-44.311Z" transform="translate(-141.983 -72.21)" fill="#c4ba8c"/>
            <path id="Trazado_1283987" data-name="Trazado 1283987" d="M377.312,195.177c2.641,22.336-14.355,108.127-14.355,108.127H339.419V195.942s24.539-4.307,37.893-.764" transform="translate(-125.62 -71.718)" fill="#5a2402"/>
            <path id="Trazado_1283988" data-name="Trazado 1283988" d="M374.409,194.551c0,16.6-13.434,22.345-21.534,21.2s-10.329-14.348-9.329-20.268c0,0,23.056-3.517,30.864-.928" transform="translate(-127.064 -71.651)" fill="#fff"/>
            <path id="Trazado_1283989" data-name="Trazado 1283989" d="M365.679,140.118c-.758-.088-1.412-.088-1.42.183-.024.663-.83-7.628-.83-7.628l-8.386-3.655-.144-.064-11.411-4.963-13.382,8.291c-.2.008-.4.008-.607.008-7.764,0,.191-7.948,6.591-9.855a41.276,41.276,0,0,1,22.007,0c7.677,2.035,10.6,13.062,7.581,17.682" transform="translate(-120.761 -44.762)" fill="#5a2402"/>
            <path id="Trazado_1283990" data-name="Trazado 1283990" d="M352.777,188.019v6.247c0,5.624,5.82,9.477,13.756,5.445,6.746-3.427,7.53-7.614,7.53-11.057V170.983L352.81,185.035Z" transform="translate(-130.564 -63.281)" fill="#f9d5bf"/>
            <path id="Trazado_1283991" data-name="Trazado 1283991" d="M367.9,176.193c-1.175,9.645-7.562,15.7-15.116,15.7-.008-.084-.008-.174-.008-.257V174.051Z" transform="translate(-130.564 -64.416)" fill="#fca695"/>
            <path id="Trazado_1283992" data-name="Trazado 1283992" d="M334.7,124.943c-11.918,7.9-11.557,18.7-9.785,27.605,1.914,9.613,8.633,16.384,17.212,16.384,11.606,0,21.093-7.195,22.058-18.367s-1.681-24.3-10.291-25.622-19.194,0-19.194,0" transform="translate(-119.91 -46.024)" fill="#f9d5bf"/>
            <path id="Trazado_1283993" data-name="Trazado 1283993" d="M338.02,152.926c0,1.049-.533,1.9-1.19,1.9s-1.191-.85-1.191-1.9.533-1.9,1.191-1.9,1.19.85,1.19,1.9" transform="translate(-124.221 -55.895)" fill="#5a2402"/>
            <path id="Trazado_1283994" data-name="Trazado 1283994" d="M359.72,152.926c0,1.049-.533,1.9-1.19,1.9s-1.191-.85-1.191-1.9.533-1.9,1.191-1.9,1.19.85,1.19,1.9" transform="translate(-132.252 -55.895)" fill="#5a2402"/>
            <path id="Trazado_1283995" data-name="Trazado 1283995" d="M355.134,140.011c2.832-1.207,7.224.2,7.634,2.035s-.307,2.754-1.128,2.754-2.816-2.338-6.661-1.377c-1.361.34-2.358-2.341.154-3.412" transform="translate(-130.864 -51.651)" fill="#5a2402"/>
            <path id="Trazado_1283996" data-name="Trazado 1283996" d="M337.838,140.011c-2.358-1.207-6.016.2-6.356,2.035s.256,2.754.939,2.754,2.344-2.338,5.546-1.377c1.133.34,1.964-2.341-.128-3.412" transform="translate(-122.646 -51.651)" fill="#5a2402"/>
            <path id="Trazado_1283997" data-name="Trazado 1283997" d="M346.031,151.791c-.355,1.936-1.434,6.333-1.943,8.376a.977.977,0,0,0,.853,1.211,10.709,10.709,0,0,0,4-.13" transform="translate(-127.337 -56.178)" fill="none" stroke="#db7665" stroke-linecap="round" stroke-miterlimit="10" stroke-width="1"/>
            <path id="Trazado_1283998" data-name="Trazado 1283998" d="M351.839,170.054a22.253,22.253,0,0,0,4.942-1.448.474.474,0,0,1,.666.484,3.2,3.2,0,0,1-2.293,2.71,3.113,3.113,0,0,1-3.6-.959.477.477,0,0,1,.286-.787" transform="translate(-130.067 -62.385)" fill="#fff"/>
            <path id="Trazado_1283999" data-name="Trazado 1283999" d="M381.93,156.066c2.707-5.343,7.219-5.507,8.572-2.133s-1.466,10.27-6.543,10.77" transform="translate(-141.354 -56.134)" fill="#f9d5bf"/>
            <path id="Trazado_1284000" data-name="Trazado 1284000" d="M388.639,157.214c1,.588,1.882,2.632-.4,4.536a6.828,6.828,0,0,1-4.565,1.713s-.387-2.658,1.061-4.189,3.226-2.508,3.9-2.06" transform="translate(-141.983 -58.144)" fill="#fca695"/>
            <path id="Trazado_1284001" data-name="Trazado 1284001" d="M384.436,160.181c2.369-4.04,4.737-3.363,5.188-2.348" transform="translate(-142.281 -58.127)" fill="none" stroke="#db7665" stroke-linecap="round" stroke-miterlimit="10" stroke-width="1"/>
            <path id="Trazado_1284002" data-name="Trazado 1284002" d="M386.57,159.488c1.814-.56,1.927,1.851,1.25,2.45" transform="translate(-143.071 -58.995)" fill="none" stroke="#db7665" stroke-linecap="round" stroke-miterlimit="10" stroke-width="1"/>
            <path id="Trazado_1284003" data-name="Trazado 1284003" d="M352.777,188.584c10.643,0,18.057-6.529,19.942-11.132" transform="translate(-130.564 -65.675)" fill="none" stroke="#db7665" stroke-linecap="round" stroke-miterlimit="10" stroke-width="1"/>
            <path id="Trazado_1284004" data-name="Trazado 1284004" d="M355.9,176.72c.817,0,3.02-1.641,3.286-1.1s-.542,1.7-1.337,2.229-2.766-1.128-1.949-1.131" transform="translate(-131.649 -64.957)" fill="#fca695"/>
            <path id="Trazado_1284005" data-name="Trazado 1284005" d="M369.046,159.221a2.552,2.552,0,1,1-2.476-1.933,2.256,2.256,0,0,1,2.476,1.933" transform="translate(-134.752 -58.212)" fill="#fca695"/>
            <path id="Trazado_1284006" data-name="Trazado 1284006" d="M334.62,159.221a2.552,2.552,0,1,1-2.475-1.933,2.255,2.255,0,0,1,2.475,1.933" transform="translate(-122.011 -58.212)" fill="#fca695"/>
            <path id="Trazado_1284007" data-name="Trazado 1284007" d="M365.008,132.623s-1.333-.326-2.426-.462a1.771,1.771,0,0,1-.168.256c-3.1,1.42-5.386,12.089-5.386,12.089H355a96.078,96.078,0,0,1,1.077-12.568s-4.157-5.993-4.157-10.3l.024-.574c0-.032.008-.064.008-.1a1.047,1.047,0,0,1-.152.031c-1.173.288-9.041,2.043-13.142-.031,0,0-7.309,1.939-12.257.159l-3.208,5.562c-7.413-7.341-6.638-13.222,0-14.859,0,0-5.961-7.556,7.078-11.275s29.8,2.195,33.49,13.07a15.6,15.6,0,0,1,4.819,6.136c1.364,3.359,1.34,7.852-3.575,12.862" transform="translate(-117.664 -36.804)" fill="#5a2402"/>
            <path id="Trazado_1284008" data-name="Trazado 1284008" d="M384.985,144.56s-1.333-.326-2.426-.462a1.77,1.77,0,0,1-.168.256c-3.1,1.42-5.386,12.089-5.386,12.089h-2.027a96.081,96.081,0,0,1,1.077-12.568s-4.157-5.993-4.157-10.3l.024-.574a51.846,51.846,0,0,0,16.637-1.3c1.364,3.359,1.34,7.852-3.575,12.862" transform="translate(-137.641 -48.741)" fill="#6b4029"/>
            <path id="Trazado_1284009" data-name="Trazado 1284009" d="M391.862,116.789c0-2.51,1.263-4.767,1.907-4.768,1.693,0,3.594,1.576,2.412,2.193a11.3,11.3,0,0,0-3.454,3.021c-.268.314-.865-.445-.865-.445" transform="translate(-145.029 -41.459)" fill="#5a2402"/>
            <path id="Trazado_1284010" data-name="Trazado 1284010" d="M424.86,243.25c.368,18.02-4.977,43.647-4.977,43.647" transform="translate(-155.4 -90.027)" fill="none" stroke="#706536" stroke-linecap="round" stroke-miterlimit="10" stroke-width="1"/>
            <path id="Trazado_1284011" data-name="Trazado 1284011" d="M307.775,240.2c-.073,15.55,2.176,42.354,2.176,42.354l-.871,37.929h18.627" transform="translate(-113.908 -88.899)" fill="none" stroke="#706536" stroke-linecap="round" stroke-miterlimit="10" stroke-width="1"/>
            <path id="Trazado_1284012" data-name="Trazado 1284012" d="M268.4,310.72c5.072,5.129,8.958,14.889,8.958,14.889" transform="translate(-99.336 -114.998)" fill="none" stroke="#db7665" stroke-linecap="round" stroke-miterlimit="10" stroke-width="1"/>
            <line id="Línea_3291" data-name="Línea 3291" y1="0.004" x2="11.386" transform="translate(261.699 228.003)" fill="none" stroke="#db7665" stroke-linecap="round" stroke-miterlimit="10" stroke-width="1"/>
            <line id="Línea_3292" data-name="Línea 3292" x1="0.812" y1="6.957" transform="translate(286.08 301.416)" fill="none" stroke="#db7665" stroke-linecap="round" stroke-miterlimit="10" stroke-width="1"/>
            <line id="Línea_3293" data-name="Línea 3293" x1="1.579" y1="8.027" transform="translate(289.959 300.345)" fill="none" stroke="#db7665" stroke-linecap="round" stroke-miterlimit="10" stroke-width="1"/>
            <line id="Línea_3294" data-name="Línea 3294" x1="2.576" y1="9.477" transform="translate(293.671 298.895)" fill="none" stroke="#db7665" stroke-linecap="round" stroke-miterlimit="10" stroke-width="1"/>
            <path id="Trazado_1284013" data-name="Trazado 1284013" d="M196,266.9c-3.386-2.525-3.486-10.358-5.413-13.262l-4.092,2.433,1.572,7.118S177,252.577,174.822,252.448s.791,5.011.791,5.011-6.1-4.737-7.793-3.258,4.63,8.01,4.63,8.01-4.152-5.148-5.733-3.368,4.368,7.478,4.368,7.478-3.506-2.931-4.629-1.152S186.5,282.049,186.5,282.049Z" transform="translate(-61.589 -93.43)" fill="#f9d5bf"/>
            <path id="Trazado_1284014" data-name="Trazado 1284014" d="M200.791,269.506c-.071,2.517,2.615,7.889,2.615,7.889" transform="translate(-74.313 -99.744)" fill="none" stroke="#db7665" stroke-linecap="round" stroke-miterlimit="10" stroke-width="1"/>
            <line id="Línea_3295" data-name="Línea 3295" x2="5.222" y2="5.633" transform="translate(109.494 167.278)" fill="none" stroke="#db7665" stroke-linecap="round" stroke-miterlimit="10" stroke-width="1"/>
            <line id="Línea_3296" data-name="Línea 3296" x2="8.029" y2="5.862" transform="translate(106.687 170.841)" fill="none" stroke="#db7665" stroke-linecap="round" stroke-miterlimit="10" stroke-width="1"/>
            <path id="Trazado_1284015" data-name="Trazado 1284015" d="M153.965,192.242s-62.133-35.558-54.1-99.6l54.1-29.252,54.1,29.252c8.037,64.042-54.1,99.6-54.1,99.6" transform="translate(-36.696 -23.46)" fill="#b5c9e5"/>
            <path id="Trazado_1284016" data-name="Trazado 1284016" d="M127,180.278a122.1,122.1,0,0,1-8.914-10.788C106.027,153.025,96.4,130.671,99.871,103l21.505-11.629" transform="translate(-36.697 -33.815)" fill="none" stroke="#536c7f" stroke-linecap="round" stroke-miterlimit="10" stroke-width="1"/>
            <path id="Trazado_1284017" data-name="Trazado 1284017" d="M161.745,185.824s-47.13-26.136-41.033-74.713l41.033-23.023,41.033,23.023c6.1,48.578-41.033,74.713-41.033,74.713" transform="translate(-44.474 -32.601)" fill="#87a1cf"/>
            <path id="Trazado_1284018" data-name="Trazado 1284018" d="M161.745,185.824s-47.13-26.136-41.033-74.713l41.033-23.023" transform="translate(-44.474 -32.601)" fill="none" stroke="#536c7f" stroke-linecap="round" stroke-miterlimit="10" stroke-width="1"/>
            <path id="Trazado_1284019" data-name="Trazado 1284019" d="M189.3,170.3H165.777a3.033,3.033,0,0,1-3.033-3.033V150.84a3.033,3.033,0,0,1,3.033-3.034H189.3a3.033,3.033,0,0,1,3.033,3.034v16.425A3.033,3.033,0,0,1,189.3,170.3" transform="translate(-60.232 -54.703)" fill="#fff"/>
            <path id="Trazado_1284020" data-name="Trazado 1284020" d="M190.244,143.86H170.785v-6.066a9.729,9.729,0,1,1,19.459,0Zm-17.569-1.89h15.679v-4.176a7.84,7.84,0,0,0-15.679,0Z" transform="translate(-63.208 -47.397)" fill="#fff"/>
            <path id="Trazado_1284021" data-name="Trazado 1284021" d="M187.614,156.492a3.352,3.352,0,1,1-3.352-3.352,3.353,3.353,0,0,1,3.352,3.352" transform="translate(-66.955 -56.677)" fill="#d2dfee"/>
            <rect id="Rectángulo_464959" data-name="Rectángulo 464959" width="2.474" height="8.411" transform="translate(116.069 101.529)" fill="#d2dfee"/>
            <g id="Grupo_1212040" data-name="Grupo 1212040" transform="translate(117.269 39.93)" opacity="0.48" style="mix-blend-mode: multiply;isolation: isolate">
              <g id="Grupo_1212039" data-name="Grupo 1212039">
                <g id="Grupo_1212038" data-name="Grupo 1212038" clip-path="url(#clip-path-12)">
                  <path id="Trazado_1284022" data-name="Trazado 1284022" d="M186.171,192.242V63.39l54.1,29.252c8.037,64.042-54.1,99.6-54.1,99.6" transform="translate(-186.171 -63.39)" fill="#bcccdd"/>
                </g>
              </g>
            </g>
          </g>
        </g>
      </g>
    </g>
  </g>
</svg>
