<svg xmlns="http://www.w3.org/2000/svg" xmlns:xlink="http://www.w3.org/1999/xlink" width="150" height="150" viewBox="0 0 150 150">
  <defs>
    <clipPath id="clip-path">
      <rect id="Rectángulo_454829" data-name="Rectángulo 454829" width="150" height="150" fill="#1e535a"/>
    </clipPath>
    <clipPath id="clip-path-2">
      <rect id="Rectángulo_465016" data-name="Rectángulo 465016" width="58.718" height="60.75" fill="#1e535a"/>
    </clipPath>
  </defs>
  <g id="Grupo_1211071" data-name="Grupo 1211071" transform="translate(-186 -4323.945)">
    <g id="Grupo_1177591" data-name="Grupo 1177591" transform="translate(186 4323.945)">
      <g id="Grupo_1177589" data-name="Grupo 1177589" transform="translate(0 0)">
        <g id="Grupo_1177587" data-name="Grupo 1177587" clip-path="url(#clip-path)">
          <path id="Trazado_997422" data-name="Trazado 997422" d="M143.876,66.392A68.963,68.963,0,0,0,128.3,30.506a7.931,7.931,0,0,0-11.16-10.685A68.861,68.861,0,0,0,81.486,5.891,7.933,7.933,0,0,0,66.079,6.2,68.956,68.956,0,0,0,31.872,20.827,7.935,7.935,0,0,0,20.859,31.915,68.9,68.9,0,0,0,6.425,66.324a7.938,7.938,0,0,0-.19,15.546,68.878,68.878,0,0,0,13.982,35.106A7.934,7.934,0,0,0,31,128.179,68.951,68.951,0,0,0,66.016,143.5a7.935,7.935,0,0,0,15.546.313,68.892,68.892,0,0,0,35.914-14.188,7.933,7.933,0,0,0,11.1-10.74A68.98,68.98,0,0,0,144.062,81.8a7.935,7.935,0,0,0-.186-15.4M121.469,34.413a7.89,7.89,0,0,0,4.394-1.33,65.489,65.489,0,0,1,14.453,33.289,7.946,7.946,0,0,0-5.071,3.674l-20.281-7.6c.016-.222.032-.447.032-.677a7.935,7.935,0,0,0-3.361-6.484l8.871-20.93a8.6,8.6,0,0,0,.962.063m-4.287-1.263-8.816,20.791a7.853,7.853,0,0,0-8.741,5.047L62.936,50.537a7.72,7.72,0,0,0-.166-1.58l52.065-18.131a7.961,7.961,0,0,0,2.348,2.324M73.822,15.882a7.941,7.941,0,0,0,7.795-6.441,65.381,65.381,0,0,1,33.059,12.929,7.9,7.9,0,0,0-1.148,4.1,8.337,8.337,0,0,0,.075,1.049L61.277,45.739A7.965,7.965,0,0,0,59.84,44.3L73.565,15.87c.087,0,.17.012.257.012M66.1,9.754a7.943,7.943,0,0,0,3.994,5.2L56.637,42.817A7.963,7.963,0,0,0,55,42.647a7.883,7.883,0,0,0-4.525,1.421L34.524,30.747a7.894,7.894,0,0,0-.269-7.308A65.433,65.433,0,0,1,66.1,9.754M15.688,72.393,48.676,55.378a7.912,7.912,0,0,0,6.259,3.147L66.241,94.665a8.071,8.071,0,0,0-1.75,1.936l-48.9-20.376a7.888,7.888,0,0,0,.293-2.106,7.98,7.98,0,0,0-.194-1.726m7.791-38.111a7.935,7.935,0,0,0,8.864-.756L48.091,46.677a7.919,7.919,0,0,0-.875,5.487L14.172,69.2a7.939,7.939,0,0,0-4.2-2.755A65.4,65.4,0,0,1,23.479,34.282m3.286,79.246a7.918,7.918,0,0,0-3.943,1.053A65.346,65.346,0,0,1,9.786,81.835a7.948,7.948,0,0,0,4.121-2.486L63.3,99.926a8.514,8.514,0,0,0-.063.954,7.939,7.939,0,0,0,.475,2.684L33.839,117.875a7.94,7.94,0,0,0-7.074-4.347M66.17,139.96a65.5,65.5,0,0,1-32.675-14.295,7.858,7.858,0,0,0,1.211-4.2l0-.091,30.926-14.821a7.941,7.941,0,0,0,2.8,1.77l1.853,26.63a7.941,7.941,0,0,0-4.113,5m3.29-46.828L58.4,57.758a7.952,7.952,0,0,0,3.773-3.773L99.154,62.5a7.894,7.894,0,0,0,1.263,3.61L75.049,93.952a7.843,7.843,0,0,0-5.59-.819m12.094,47.136a7.938,7.938,0,0,0-7.731-6.152l-.059,0L72,108.782a7.927,7.927,0,0,0,4.853-2.355l36.978,16.31c0,.071-.012.135-.012.206A7.9,7.9,0,0,0,115,127.083a65.377,65.377,0,0,1-33.443,13.186m33.17-21-36.016-15.89a7.894,7.894,0,0,0-1.041-7.062l25.292-27.762a7.894,7.894,0,0,0,4.1,1.148,8.74,8.74,0,0,0,.974-.063l9.453,46.618a7.923,7.923,0,0,0-2.759,3.013m11.393-2.969a7.893,7.893,0,0,0-5.277-1.247l-9.457-46.638a7.973,7.973,0,0,0,2.5-2.613l20.269,7.6a7.042,7.042,0,0,0-.036.713A7.938,7.938,0,0,0,140.5,81.9a65.431,65.431,0,0,1-14.382,34.4" transform="translate(0 0.002)" fill="#1e535a"/>
        </g>
      </g>
    </g>
    <g id="Elipse_13614" data-name="Elipse 13614" transform="translate(210.273 4348.213)" fill="#fff" stroke="#1e535a" stroke-width="3">
      <ellipse cx="50.732" cy="50.733" rx="50.732" ry="50.733" stroke="none"/>
      <ellipse cx="50.732" cy="50.733" rx="49.232" ry="49.233" fill="none"/>
    </g>
    <g id="Grupo_1212117" data-name="Grupo 1212117" transform="translate(231.645 4368.57)">
      <g id="Grupo_1212116" data-name="Grupo 1212116" clip-path="url(#clip-path-2)">
        <path id="Trazado_1284292" data-name="Trazado 1284292" d="M4.763,29.411l7.631-.071c-.76-.778-2.719-1.063-2.144-2.426a.985.985,0,0,1,1.376-.452l4.954,2.953a1.1,1.1,0,0,1,.585.873,1.086,1.086,0,0,1-.582,1.049l-4.956,2.953a.983.983,0,0,1-1.307-.327c-.847-1.43,1.408-1.781,2.059-2.57L4.7,31.467c-.812.008-2.559.62-2.584,1.605-.151,6.012-.155,11.883,0,17.9.072,1.02,1.888,1.639,2.769,1.642l15.886.051A7.613,7.613,0,0,1,27.3,45.648l.021-5.694a4.846,4.846,0,0,1-2.172-1.319l-5.46-5.469a3.988,3.988,0,0,1-.09-5.672l5.86-5.88a4.516,4.516,0,0,1,1.846-1l.037-5.418-7.1-.007a6.03,6.03,0,0,1-6.06-6.065V6.052A5.951,5.951,0,0,1,20.051.041L36.25,0a6.081,6.081,0,0,1,6.275,6.073l0,3.054a6.026,6.026,0,0,1-6.062,6.065l-7.095.008,0,5.456a5.444,5.444,0,0,1,2.191,1.462l5.35,5.37a4.512,4.512,0,0,1,1.011,1.855l5.688.025A7.587,7.587,0,0,1,58.525,28.7a7.476,7.476,0,0,1-4.81,8.785,7.7,7.7,0,0,1-6.792-.778,7.56,7.56,0,0,1-3.287-5.279l-5.76-.032a5.679,5.679,0,0,1-1.564,2.287l-4.955,4.955a5.345,5.345,0,0,1-1.978,1.269l-.006,5.737a7.587,7.587,0,0,1,6.555,7.126A7.581,7.581,0,0,1,20.942,54.7L5.088,54.663C2.74,54.658,0,53.2,0,50.416V33.625c0-2.653,2.587-4.193,4.763-4.214m31.8-16.267a3.961,3.961,0,0,0,3.935-4V6.075a4.053,4.053,0,0,0-4.246-4.053l-16,.021a3.991,3.991,0,0,0-4.042,4.022v3.07a4.012,4.012,0,0,0,4.048,4.026ZM56.7,30.38a5.56,5.56,0,1,0-5.56,5.56,5.56,5.56,0,0,0,5.56-5.56M33.914,53.159a5.561,5.561,0,1,0-5.561,5.561,5.561,5.561,0,0,0,5.561-5.561" transform="translate(0 0.001)" fill="#1e535a"/>
        <path id="Trazado_1284293" data-name="Trazado 1284293" d="M242.124,136.108a3.539,3.539,0,1,1-3.539-3.539,3.539,3.539,0,0,1,3.539,3.539" transform="translate(-187.449 -105.724)" fill="#1e535a"/>
        <path id="Trazado_1284294" data-name="Trazado 1284294" d="M206.38,220.224l-12.27.019a4.021,4.021,0,0,1-4.035-4.039V204.048a4.062,4.062,0,0,1,4.236-4.056h11.757a4.063,4.063,0,0,1,4.235,4.057V216.2a3.954,3.954,0,0,1-3.922,4.022m-1.053-13.155a.974.974,0,0,0,.871-1.253c-.1-.52-.537-.751-1.148-.752l-9.723,0c-.766,0-1.218.409-1.173,1.1a1.035,1.035,0,0,0,1.177.933Zm-4.044,4.044a.963.963,0,0,0,.865-1.25c-.1-.511-.539-.751-1.144-.751l-5.68,0c-.764,0-1.216.42-1.17,1.105a1.03,1.03,0,0,0,1.173.931Zm3.033,4.055a.972.972,0,0,0,.87-1.253c-.1-.512-.538-.754-1.147-.753l-8.912.013a.955.955,0,0,0-.972,1.088c.035.585.492.936,1.174.934Z" transform="translate(-151.585 -159.493)" fill="#1e535a"/>
        <path id="Trazado_1284295" data-name="Trazado 1284295" d="M11.2,7.057l-9.818.006C.682,7.064.237,6.7.2,6.131c-.044-.7.406-1.1,1.174-1.1l9.724,0c.683,0,1.138.308,1.172.918A.994.994,0,0,1,11.2,7.057" transform="translate(-0.158 -4.011)" fill="#1e535a"/>
        <path id="Trazado_1284296" data-name="Trazado 1284296" d="M10.189,47.054l-8.808.006c-.695,0-1.139-.359-1.176-.932-.044-.694.406-1.1,1.172-1.1l8.713,0c.682,0,1.137.31,1.171.918a.993.993,0,0,1-1.073,1.108" transform="translate(-0.161 -35.908)" fill="#1e535a"/>
        <path id="Trazado_1284297" data-name="Trazado 1284297" d="M10.19,87.054l-8.808.006c-.695,0-1.139-.359-1.175-.932-.044-.694.406-1.1,1.172-1.1l8.713,0c.681,0,1.137.31,1.171.918a.993.993,0,0,1-1.073,1.108" transform="translate(-0.162 -67.808)" fill="#1e535a"/>
        <path id="Trazado_1284298" data-name="Trazado 1284298" d="M7.156,27.047l-5.778.007c-.693,0-1.136-.356-1.173-.932-.044-.688.4-1.1,1.17-1.1l5.68,0c.679,0,1.134.316,1.169.919a.989.989,0,0,1-1.069,1.107" transform="translate(-0.161 -19.953)" fill="#1e535a"/>
        <path id="Trazado_1284299" data-name="Trazado 1284299" d="M7.156,67.047l-5.778.007c-.693,0-1.136-.356-1.173-.932-.044-.688.4-1.1,1.17-1.1l5.68,0c.679,0,1.135.316,1.169.919a.99.99,0,0,1-1.069,1.107" transform="translate(-0.161 -51.853)" fill="#1e535a"/>
      </g>
    </g>
  </g>
</svg>
