<svg xmlns="http://www.w3.org/2000/svg" xmlns:xlink="http://www.w3.org/1999/xlink" width="80" height="80" viewBox="0 0 80 80">
  <defs>
    <clipPath id="clip-path">
      <rect id="Rectángulo_465002" data-name="Rectángulo 465002" width="63.915" height="63.571" fill="#344866"/>
    </clipPath>
  </defs>
  <g id="Grupo_1211790" data-name="Grupo 1211790" transform="translate(-710 -1680.92)">
    <g id="Grupo_1119665" data-name="Grupo 1119665" transform="translate(534.111 -3840.08)">
      <rect id="Rectángulo_402006" data-name="Rectángulo 402006" width="80" height="80" rx="5" transform="translate(175.889 5521)" fill="#a4e7f0"/>
    </g>
    <g id="Grupo_1212094" data-name="Grupo 1212094" transform="translate(718.043 1689.134)">
      <g id="Grupo_1212093" data-name="Grupo 1212093" clip-path="url(#clip-path)">
        <path id="Trazado_1284183" data-name="Trazado 1284183" d="M81.926,285.69a2.719,2.719,0,0,1-1.335-1.322.99.99,0,0,1,.219-1.259.949.949,0,0,1,1.365.279c.408.729,1.51.97,1.031,1.935a.953.953,0,0,1-1.281.368" transform="translate(-64.392 -226.423)" fill="#344866"/>
        <path id="Trazado_1284184" data-name="Trazado 1284184" d="M104.343,289.8c-.171,1.059-3.085,1.1-3.285.007a.883.883,0,0,1,.775-1.1,5.1,5.1,0,0,1,1.981.067.855.855,0,0,1,.528,1.027" transform="translate(-80.857 -230.984)" fill="#344866"/>
        <path id="Trazado_1284185" data-name="Trazado 1284185" d="M127.461,289.555c-.029,1.1-1.525.994-2.544.88a.905.905,0,0,1-.785-.712.857.857,0,0,1,.574-1.032c.738-.185,2.788-.392,2.755.864" transform="translate(-99.322 -230.915)" fill="#344866"/>
        <path id="Trazado_1284186" data-name="Trazado 1284186" d="M149.818,290.456c-.956.1-2.326.19-2.48-.721a.865.865,0,0,1,.711-1.081c1.022-.15,2.61-.25,2.6.918a.894.894,0,0,1-.826.884" transform="translate(-117.895 -230.926)" fill="#344866"/>
        <path id="Trazado_1284187" data-name="Trazado 1284187" d="M173.019,290.406c-1.088.185-2.4.2-2.589-.738a.842.842,0,0,1,.528-.979c.575-.174,2.628-.421,2.778.69a.886.886,0,0,1-.717,1.027" transform="translate(-136.375 -230.903)" fill="#344866"/>
        <path id="Trazado_1284188" data-name="Trazado 1284188" d="M81.448,262.615a.964.964,0,0,1-1.063.589c-.922-.143-.8-1.334-.765-2.258.019-.56.28-.965.766-1.028a.87.87,0,0,1,1.046.652,8.908,8.908,0,0,1,.016,2.045" transform="translate(-63.698 -207.993)" fill="#344866"/>
        <path id="Trazado_1284189" data-name="Trazado 1284189" d="M217.033,161.817a1.57,1.57,0,0,1,1.676,1.534l.013,6.79a1.554,1.554,0,0,1-1.593,1.618l-21.362-.008c-2.262,0-1.208-3.028-1.675-3.938-.2-.387-.644-.562-.644-.973,0-.449.342-.633.615-1.014.51-.711-.519-3.955,1.573-3.971l9.856-.076a5.986,5.986,0,0,0,.012-1.8l-9.548-.024a1.621,1.621,0,0,1-1.719-1.646l.006-6.714a1.6,1.6,0,0,1,1.706-1.6l9.537-.007a5.08,5.08,0,0,0,0-1.83l-9.534-.02a1.617,1.617,0,0,1-1.708-1.61l-.006-6.722a1.563,1.563,0,0,1,1.513-1.624l9.777-.029c.184-1.029-.42-2.7.763-2.943a.884.884,0,0,1,1.081.752,10.862,10.862,0,0,1-.008,2.193l9.772.015a1.563,1.563,0,0,1,1.585,1.6l-.005,6.806a1.576,1.576,0,0,1-1.6,1.557l-9.662.035a6.049,6.049,0,0,0,.037,1.826l9.8.035a1.5,1.5,0,0,1,1.423,1.522l0,6.8c0,2.014-2.544,1.648-4.4,1.595a.944.944,0,0,1-1.014-.9c-.041-1.564,2.291-.64,3.532-1.012l.011-6.146-20.661-.018-.045,6.236,13.589,0c.648,0,1.044.331,1.034.939a.929.929,0,0,1-1.025.9l-2.246.031a4.778,4.778,0,0,0-.025,1.809Zm-.169-21.779H196.116v6.194h20.748Zm0,23.68H196.116V169.9h20.748Z" transform="translate(-154.807 -108.187)" fill="#344866"/>
        <path id="Trazado_1284190" data-name="Trazado 1284190" d="M234.459,231.407l-13.816.009a.926.926,0,0,1,.048-1.85l13.661-.01a.936.936,0,0,1,.963.859.9.9,0,0,1-.856.993" transform="translate(-175.864 -183.703)" fill="#344866"/>
        <path id="Trazado_1284191" data-name="Trazado 1284191" d="M254.168,69a.857.857,0,0,1-.881.6c-.943-.005-.759-.957-1.222-1.968a.912.912,0,0,1,.259-1.084.956.956,0,0,1,1.06-.029A2.43,2.43,0,0,1,254.168,69" transform="translate(-201.653 -53.116)" fill="#344866"/>
        <path id="Trazado_1284192" data-name="Trazado 1284192" d="M255.511,114.838a.841.841,0,0,1-1.039.617c-1.081-.223-1.077-3.106-.017-3.286a.855.855,0,0,1,1.055.593,4.614,4.614,0,0,1,0,2.076" transform="translate(-202.993 -89.75)" fill="#344866"/>
        <path id="Trazado_1284193" data-name="Trazado 1284193" d="M255.673,89.84c.1,1.009.223,2.509-.913,2.487-1.16-.023-1.023-1.7-.862-2.668a.84.84,0,0,1,.839-.648.873.873,0,0,1,.937.83" transform="translate(-203.098 -71.231)" fill="#344866"/>
        <path id="Trazado_1284194" data-name="Trazado 1284194" d="M234.465,290.626l-13.827.007a.9.9,0,0,1-.863-.886.941.941,0,0,1,1.049-.976l13.576,0a.9.9,0,0,1,.924.81.91.91,0,0,1-.859,1.04" transform="translate(-175.876 -231.091)" fill="#344866"/>
        <path id="Trazado_1284195" data-name="Trazado 1284195" d="M234.45,172.19l-13.607.019a.959.959,0,0,1-1.05-.84.913.913,0,0,1,.869-1.049l13.737,0a.938.938,0,0,1,.051,1.874" transform="translate(-175.887 -136.296)" fill="#344866"/>
        <path id="Trazado_1284196" data-name="Trazado 1284196" d="M22.982,21.911c-1.253-1.669,1.176-2.829,1.69-3.82.175-.338-.249-1.18-.567-1.345a10.6,10.6,0,0,0-2.333-.07c-1.163-.117-1.682-1.054-1.63-2.236l-13.271.015L1.864,19.476l.006,27.408,18.161.01A8.314,8.314,0,0,1,27.4,38.282l.016-4.108a.851.851,0,0,1,.658-.994c.6-.092,1.142.1,1.151.785l.056,4.3A8.275,8.275,0,1,1,20.357,48.8a14.464,14.464,0,0,0-2.422-.009c-.4.033.271,1.6-.884,1.794a.9.9,0,0,1-1.105-.826c-.036-.33-.01-.6-.072-.992L2.2,48.745a2.161,2.161,0,0,1-2.2-2.2L0,19.625a2.154,2.154,0,0,1,.643-1.582l4.889-4.885A1.8,1.8,0,0,1,6.8,12.61l13.357-.026a1.847,1.847,0,0,1,1.832-2.127,6.694,6.694,0,0,0,2.133-.076,1.423,1.423,0,0,0,.569-1.28c-.479-1-2.986-2.179-1.693-3.882a12.39,12.39,0,0,1,2.361-2.36C27.006,1.6,28.238,4.082,29.2,4.551a1.37,1.37,0,0,0,1.311-.559c.31-.956-.589-3.745,1.664-3.92A15.851,15.851,0,0,1,35.3.086C37.47.353,36.511,2.823,36.852,4a1.433,1.433,0,0,0,1.379.528c.686-.311,1.113-1.092,1.676-1.551a1.79,1.79,0,0,1,2.4.076A15.442,15.442,0,0,1,44.378,5.17c1.312,1.7-.987,2.805-1.709,3.9.021.331.2,1.121.554,1.274.776.338,1.661.021,2.481.15,1.761.277,1.325,1.844,1.641,2.019.426.235,1.284-.189,1.719.477a.97.97,0,0,1,.074.911c-.547,1.126-1.9-.1-1.945,1.1-.08,2.3-2.663,1.49-3.994,1.71a4.483,4.483,0,0,0-.573,1.375c.818,1.077,3.088,2.27,1.722,3.944A15.406,15.406,0,0,1,42.183,24.2c-1.741,1.431-2.94-.993-3.914-1.556a1.348,1.348,0,0,0-1.4.544c-.376,1.146.611,3.5-1.467,3.854a9.5,9.5,0,0,1-3.438,0c-2.823-.548.105-4.455-2.673-4.446l-.069,7.183a.872.872,0,0,1-.949.808.925.925,0,0,1-.862-1L27.371,24.4a2.2,2.2,0,0,1-1.843,0,10.968,10.968,0,0,1-2.545-2.495m11.944,3.268-.01-1.969a2.08,2.08,0,0,1,1.724-2.159c.77-.242,1.692-.929,2.4-.291l2.069,1.864A5.448,5.448,0,0,0,42.74,20.9c-.6-.712-1.305-1.2-1.8-1.9-.561-.786-.107-1.631.215-2.41.3-.723.524-1.673,1.425-1.712l2.751-.119a6.669,6.669,0,0,0,0-2.358c-2.317-.2-3.332.593-4.185-1.819-.277-.784-.892-1.706-.215-2.423l1.834-1.941A7.123,7.123,0,0,0,41.1,4.538c-2.058,1.521-1.7,2.751-4.295,1.63-.8-.344-1.8-.575-1.84-1.587l-.1-2.628a5.724,5.724,0,0,0-2.362.041l-.084,2.653c-.036,1.122-3.342,2.433-4.085,1.746L26.346,4.556a5.37,5.37,0,0,0-1.7,1.627l1.815,1.946c.682.732.1,1.567-.165,2.353-.387,1.151-.97,2.009-2.34,1.913a10.09,10.09,0,0,0-1.882.007,7.49,7.49,0,0,0,0,2.353l2.661.1c1,.039,1.22,1.033,1.558,1.821,1.11,2.588-.03,2.171-1.612,4.294a5.631,5.631,0,0,0,1.68,1.657c.74-.585,1.226-1.337,1.954-1.837.783-.538,1.625-.072,2.389.246s1.686.543,1.724,1.474L32.53,25.2a5.827,5.827,0,0,0,2.4-.021M34.69,46.5A6.387,6.387,0,1,0,28.3,52.888,6.387,6.387,0,0,0,34.69,46.5" transform="translate(0 -0.001)" fill="#344866"/>
        <path id="Trazado_1284197" data-name="Trazado 1284197" d="M50.027,131.356l-12.942,0a.962.962,0,0,1-.983-.862.951.951,0,0,1,1.011-1.01l12.734-.006a.943.943,0,0,1,1.068.837.914.914,0,0,1-.888,1.037" transform="translate(-28.888 -103.619)" fill="#344866"/>
        <path id="Trazado_1284198" data-name="Trazado 1284198" d="M50.153,176.887l-13.05-.006a.94.94,0,0,1-.982-.94.9.9,0,0,1,.975-.908l12.961,0a.873.873,0,0,1,.867.726.955.955,0,0,1-.771,1.124" transform="translate(-28.906 -140.071)" fill="#344866"/>
        <path id="Trazado_1284199" data-name="Trazado 1284199" d="M49.95,108.794l-13.045-.023c-.514,0-.8-.6-.8-.919a.913.913,0,0,1,.969-.912l13.162.023c.487,0,.7.592.689.907a.935.935,0,0,1-.972.924" transform="translate(-28.891 -85.58)" fill="#344866"/>
        <path id="Trazado_1284200" data-name="Trazado 1284200" d="M49.945,153.966H37.072a.945.945,0,0,1-.974-.953.963.963,0,0,1,.983-.925l12.965.012a.908.908,0,0,1,.874.9.926.926,0,0,1-.976.966" transform="translate(-28.888 -121.709)" fill="#344866"/>
        <path id="Trazado_1284201" data-name="Trazado 1284201" d="M42.872,199.559l-5.789.011a.935.935,0,0,1-.976-.9.908.908,0,0,1,.974-.956l5.6-.008a.949.949,0,0,1,1.084.842.935.935,0,0,1-.894,1.011" transform="translate(-28.894 -158.215)" fill="#344866"/>
        <path id="Trazado_1284202" data-name="Trazado 1284202" d="M144.067,37.052a4.8,4.8,0,0,0-5.753,1.782,4.731,4.731,0,1,0,8.3.763.934.934,0,1,1,1.719-.72,6.6,6.6,0,1,1-11.818-.689c2.548-4.489,8.738-3.728,8.677-1.981-.014.4-.5,1.067-1.12.845" transform="translate(-108.55 -27.878)" fill="#344866"/>
        <path id="Trazado_1284203" data-name="Trazado 1284203" d="M159.972,56.35a2.9,2.9,0,1,1-2.9-2.9,2.9,2.9,0,0,1,2.9,2.9m-1.881.007a1.016,1.016,0,1,0-1.016,1.015,1.015,1.015,0,0,0,1.016-1.015" transform="translate(-123.376 -42.773)" fill="#344866"/>
        <path id="Trazado_1284204" data-name="Trazado 1284204" d="M120.863,222.231a.966.966,0,0,1-.145-1.294.943.943,0,0,1,1.406-.08l2.17,2.109,3.091-3.022a.94.94,0,0,1,1.248-.1.928.928,0,0,1,.145,1.316l-3.765,3.8a.982.982,0,0,1-1.435,0Z" transform="translate(-96.457 -175.776)" fill="#344866"/>
      </g>
    </g>
  </g>
</svg>
