<svg xmlns="http://www.w3.org/2000/svg" xmlns:xlink="http://www.w3.org/1999/xlink" width="96" height="96" viewBox="0 0 96 96">
  <defs>
    <clipPath id="clip-path">
      <rect id="Rectángulo_454829" data-name="Rectángulo 454829" width="96" height="96" fill="#1e535a"/>
    </clipPath>
    <clipPath id="clip-path-2">
      <rect id="Rectángulo_465010" data-name="Rectángulo 465010" width="41.856" height="28.906" fill="#1e535a"/>
    </clipPath>
  </defs>
  <g id="Grupo_1211496" data-name="Grupo 1211496" transform="translate(-1481 -8562.5)">
    <g id="Grupo_1177591" data-name="Grupo 1177591" transform="translate(1481 8562.5)">
      <g id="Grupo_1177589" data-name="Grupo 1177589" transform="translate(0 0)">
        <g id="Grupo_1177587" data-name="Grupo 1177587" clip-path="url(#clip-path)">
          <path id="Trazado_997422" data-name="Trazado 997422" d="M92.081,42.491a44.136,44.136,0,0,0-9.97-22.967,5.076,5.076,0,0,0-7.142-6.838A44.071,44.071,0,0,0,52.151,3.77a5.077,5.077,0,0,0-9.861.2A44.132,44.132,0,0,0,20.4,13.329a5.079,5.079,0,0,0-7.048,7.1A44.1,44.1,0,0,0,4.112,42.448,5.08,5.08,0,0,0,3.99,52.4a44.082,44.082,0,0,0,8.949,22.468,5.078,5.078,0,0,0,6.9,7.17,44.128,44.128,0,0,0,22.412,9.8,5.078,5.078,0,0,0,9.949.2,44.091,44.091,0,0,0,22.985-9.08,5.077,5.077,0,0,0,7.107-6.874A44.147,44.147,0,0,0,92.2,52.349a5.078,5.078,0,0,0-.119-9.858M77.74,22.024a5.05,5.05,0,0,0,2.812-.851,41.913,41.913,0,0,1,9.25,21.3,5.086,5.086,0,0,0-3.246,2.351l-12.98-4.867c.01-.142.02-.286.02-.433a5.079,5.079,0,0,0-2.151-4.15l5.678-13.4a5.5,5.5,0,0,0,.616.041M75,21.216,69.354,34.523a5.026,5.026,0,0,0-5.594,3.23L40.279,32.344a4.941,4.941,0,0,0-.106-1.011l33.322-11.6A5.1,5.1,0,0,0,75,21.216M47.246,10.165a5.083,5.083,0,0,0,4.989-4.122,41.844,41.844,0,0,1,21.158,8.275,5.054,5.054,0,0,0-.735,2.625,5.335,5.335,0,0,0,.048.671L39.217,29.273a5.1,5.1,0,0,0-.92-.92l8.784-18.2c.056,0,.109.008.165.008M42.3,6.243A5.083,5.083,0,0,0,44.86,9.569L36.248,27.4a5.1,5.1,0,0,0-1.049-.109,5.045,5.045,0,0,0-2.9.91L22.1,19.678A5.052,5.052,0,0,0,21.923,15,41.877,41.877,0,0,1,42.3,6.243M10.041,46.332,31.153,35.442a5.064,5.064,0,0,0,4.006,2.014l7.236,23.129a5.166,5.166,0,0,0-1.12,1.239l-31.3-13.04a5.048,5.048,0,0,0,.187-1.348,5.107,5.107,0,0,0-.124-1.1m4.986-24.391a5.079,5.079,0,0,0,5.673-.484l10.079,8.417a5.068,5.068,0,0,0-.56,3.512L9.07,44.29A5.081,5.081,0,0,0,6.38,42.526a41.859,41.859,0,0,1,8.647-20.585m2.1,50.717a5.067,5.067,0,0,0-2.523.674A41.822,41.822,0,0,1,6.263,52.374,5.087,5.087,0,0,0,8.9,50.783l31.609,13.17a5.45,5.45,0,0,0-.041.611,5.081,5.081,0,0,0,.3,1.718L21.657,75.44a5.081,5.081,0,0,0-4.528-2.782M42.349,89.575a41.919,41.919,0,0,1-20.912-9.149,5.029,5.029,0,0,0,.775-2.686l0-.058L42,68.2A5.082,5.082,0,0,0,43.8,69.329l1.186,17.043a5.082,5.082,0,0,0-2.632,3.2m2.105-29.97-7.081-22.64a5.089,5.089,0,0,0,2.415-2.415L63.459,40a5.052,5.052,0,0,0,.808,2.311L48.032,60.13a5.019,5.019,0,0,0-3.577-.524m7.74,30.167a5.081,5.081,0,0,0-4.948-3.937l-.038,0L46.081,69.62a5.073,5.073,0,0,0,3.106-1.507L72.853,78.551c0,.046-.008.086-.008.132a5.057,5.057,0,0,0,.752,2.65,41.841,41.841,0,0,1-21.4,8.439M73.423,76.334,50.373,66.165a5.052,5.052,0,0,0-.666-4.52L65.893,43.877a5.052,5.052,0,0,0,2.622.735,5.594,5.594,0,0,0,.623-.041l6.05,29.836a5.071,5.071,0,0,0-1.766,1.928m7.292-1.9a5.051,5.051,0,0,0-3.377-.8L71.285,43.788a5.1,5.1,0,0,0,1.6-1.672L85.858,46.98a4.506,4.506,0,0,0-.023.456,5.08,5.08,0,0,0,4.084,4.981,41.876,41.876,0,0,1-9.2,22.017" transform="translate(0 0.001)" fill="#1e535a"/>
        </g>
      </g>
    </g>
    <g id="Elipse_13614" data-name="Elipse 13614" transform="translate(1497.766 8579.268)" fill="#d5f4f8" stroke="#1e535a" stroke-width="3">
      <ellipse cx="31.232" cy="31.233" rx="31.232" ry="31.233" stroke="none"/>
      <ellipse cx="31.232" cy="31.233" rx="29.732" ry="29.733" fill="none"/>
    </g>
    <g id="Grupo_1212111" data-name="Grupo 1212111" transform="translate(1510.061 8596.047)">
      <g id="Grupo_1212110" data-name="Grupo 1212110" clip-path="url(#clip-path-2)">
        <path id="Trazado_1284274" data-name="Trazado 1284274" d="M147.494,45.85c-1.136.024-2.194.038-3.257-.007-1.528-.065-.221-2.54-1.6-3.131a.928.928,0,0,0-.982.2l-1.245,1a.748.748,0,0,1-1.035-.111l-2.291-2.3c-1.14-1.141,1.791-2.087.994-3.474-.544-.947-3.018.039-3.018-1.4v-3.3a.74.74,0,0,1,.708-.8l1.6-.161a1.007,1.007,0,0,0,.721-.449c.79-1.351-2.134-2.328-1-3.464l2.291-2.294a.8.8,0,0,1,1.117-.059l1.167.952a.931.931,0,0,0,.98.209c1.372-.608.075-3.116,1.594-3.114l3.436.006c1.3,0,.155,2.493,1.48,3.111a.92.92,0,0,0,.978-.213l1.161-.946a.8.8,0,0,1,1.124.052l2.292,2.294c1.141,1.142-1.769,2.056-1,3.484a1.1,1.1,0,0,0,.84.451l1.478.14a.739.739,0,0,1,.706.8v3.3c0,1.421-2.507.475-3.019,1.4-.775,1.4,2.134,2.337,1,3.476l-2.291,2.294a.8.8,0,0,1-1.118.057l-1.163-.951a.951.951,0,0,0-1.026-.206c-1.3.519,0,3.11-1.613,3.144m2.131-10.862a3.731,3.731,0,1,0-3.731,3.731,3.731,3.731,0,0,0,3.731-3.731" transform="translate(-114.873 -20.548)" fill="#1e535a"/>
        <path id="Trazado_1284275" data-name="Trazado 1284275" d="M21.313,6.751a2.6,2.6,0,0,0-.733,2.468L2.5,9.213,2.43,7.454A2.252,2.252,0,0,1,.076,5.179L.084,2.172A2.166,2.166,0,0,1,2.233.017L22.925,0A2.239,2.239,0,0,1,25.3,1.743a7.61,7.61,0,0,1,.032,2.074,2.62,2.62,0,0,0-1.806.739ZM4.516,3.722a.725.725,0,1,0-.724.724.725.725,0,0,0,.724-.724m2.99,0a.725.725,0,1,0-.725.724.725.725,0,0,0,.725-.724m2.989,0a.725.725,0,1,0-.725.725.725.725,0,0,0,.725-.725" transform="translate(-0.065 0)" fill="#1e535a"/>
        <path id="Trazado_1284276" data-name="Trazado 1284276" d="M25.274,149.157a2.241,2.241,0,0,1-2.24,1.744l-20.562.01a2.31,2.31,0,0,1-2.423-2.353l0-2.875a2.141,2.141,0,0,1,1.937-2.195l18.7-.042c.815.931,1.655,1.7,2.512,2.582a2.738,2.738,0,0,0,2.117,1.025,8.049,8.049,0,0,1-.042,2.1M4.493,147.164a.724.724,0,1,0-.724.724.724.724,0,0,0,.724-.724m2.989,0a.724.724,0,1,0-.724.724.724.724,0,0,0,.724-.724m2.99,0a.725.725,0,1,0-.724.724.724.724,0,0,0,.724-.724" transform="translate(-0.042 -122.004)" fill="#1e535a"/>
        <path id="Trazado_1284277" data-name="Trazado 1284277" d="M20.456,81.006,2.428,81l-.067-1.782A2.3,2.3,0,0,1,0,76.844V74.123a2.23,2.23,0,0,1,2.126-2.329l17.746-.014a2.425,2.425,0,0,0-1.187,2.214l0,2.84c0,1.757.853,2.513,2.6,2.681a5.548,5.548,0,0,0-.83,1.491M4.45,75.491a.724.724,0,1,0-.724.724.724.724,0,0,0,.724-.724m2.989,0a.724.724,0,1,0-.724.724.724.724,0,0,0,.724-.724m2.989,0a.724.724,0,1,0-.724.724.724.724,0,0,0,.724-.724" transform="translate(0 -61.051)" fill="#1e535a"/>
      </g>
    </g>
  </g>
</svg>
