<svg xmlns="http://www.w3.org/2000/svg" width="396" height="226.341" viewBox="0 0 396 226.341">
  <g id="Grupo_1212387" data-name="Grupo 1212387" transform="translate(3770 7210.004)">
    <g id="Grupo_1212385" data-name="Grupo 1212385">
      <g id="Grupo_1212294" data-name="Grupo 1212294" transform="translate(-3548 -7284.004)">
        <path id="Trazado_1284594" data-name="Trazado 1284594" d="M6.988,0H389.012A6.988,6.988,0,0,1,396,6.988V219.353a6.988,6.988,0,0,1-6.988,6.988H6.988A6.988,6.988,0,0,1,0,219.353V6.988A6.988,6.988,0,0,1,6.988,0Z" transform="translate(-222 74)" fill="#cfe8ff"/>
        <path id="Trazado_1284636" data-name="Trazado 1284636" d="M7.571,0H46.394a7.571,7.571,0,1,1,0,15.141H7.571A7.571,7.571,0,0,1,7.571,0Z" transform="translate(106.835 108.941)" fill="#6cb9ff"/>
        <path id="Trazado_1284637" data-name="Trazado 1284637" d="M7.571,0H46.394a7.571,7.571,0,1,1,0,15.141H7.571A7.571,7.571,0,0,1,7.571,0Z" transform="translate(106.835 87.2)" fill="#6cb9ff"/>
        <path id="Trazado_1284604" data-name="Trazado 1284604" d="M7.571,0H46.394a7.571,7.571,0,1,1,0,15.141H7.571A7.571,7.571,0,0,1,7.571,0Z" transform="translate(28.024 87.2)" fill="#6cb9ff"/>
        <path id="Trazado_1284638" data-name="Trazado 1284638" d="M7.571,0H46.394a7.571,7.571,0,1,1,0,15.141H7.571A7.571,7.571,0,0,1,7.571,0Z" transform="translate(106.835 130.682)" fill="#6cb9ff"/>
        <path id="Trazado_1284639" data-name="Trazado 1284639" d="M7.571,0H46.394a7.571,7.571,0,1,1,0,15.141H7.571A7.571,7.571,0,0,1,7.571,0Z" transform="translate(106.835 152.424)" fill="#6cb9ff"/>
        <path id="Trazado_1284642" data-name="Trazado 1284642" d="M30.879,6.291H29.442V10.2h-.967V6.291H27.057V5.508h3.822Zm1.5,3.909h-.931V6.713h.931ZM32.1,5.3h1.015l-.893,1h-.757Zm2.191.558v.857h.6V7.4h-.6v1.74a.416.416,0,0,0,.074.277.372.372,0,0,0,.284.084,1.485,1.485,0,0,0,.274-.023v.706a1.917,1.917,0,0,1-.564.084.889.889,0,0,1-1-.989V7.4h-.509V6.713h.509V5.856Zm3.2,3.99a1.168,1.168,0,0,1-.954.419,1.1,1.1,0,0,1-.856-.322,1.376,1.376,0,0,1-.3-.944V6.713h.931V8.968q0,.545.5.545a.672.672,0,0,0,.651-.329V6.713H38.4V10.2h-.877Zm2.588.354h-.935V5.25h.935ZM40.7,8.424a2.068,2.068,0,0,1,.2-.925,1.463,1.463,0,0,1,.575-.628,1.678,1.678,0,0,1,.872-.222A1.588,1.588,0,0,1,43.5,7.08,1.733,1.733,0,0,1,44,8.254l.006.238a1.823,1.823,0,0,1-.448,1.287,1.736,1.736,0,0,1-2.406,0,1.855,1.855,0,0,1-.45-1.315Zm.931.066a1.3,1.3,0,0,0,.187.76.671.671,0,0,0,1.063,0,1.426,1.426,0,0,0,.19-.831,1.29,1.29,0,0,0-.19-.755.618.618,0,0,0-.535-.268.608.608,0,0,0-.529.266A1.45,1.45,0,0,0,41.636,8.49Z" transform="translate(98.436 108.835)" fill="#12263f"/>
        <path id="Trazado_1284643" data-name="Trazado 1284643" d="M26.47,8.637a1.66,1.66,0,0,1-.559,1.192,1.964,1.964,0,0,1-1.329.435,1.766,1.766,0,0,1-1.42-.607,2.491,2.491,0,0,1-.517-1.668V7.7a2.813,2.813,0,0,1,.238-1.192,1.787,1.787,0,0,1,.682-.791,2.13,2.13,0,0,1,2.338.16A1.784,1.784,0,0,1,26.477,7.1H25.51a.98.98,0,0,0-.253-.659.937.937,0,0,0-.662-.2.821.821,0,0,0-.723.346,1.942,1.942,0,0,0-.247,1.075v.354a2.078,2.078,0,0,0,.23,1.112.806.806,0,0,0,.727.351.954.954,0,0,0,.669-.2.924.924,0,0,0,.253-.633Zm.429-.213a2.068,2.068,0,0,1,.2-.925,1.463,1.463,0,0,1,.575-.628,1.678,1.678,0,0,1,.872-.222A1.588,1.588,0,0,1,29.7,7.08a1.733,1.733,0,0,1,.5,1.173l.006.238a1.823,1.823,0,0,1-.448,1.287,1.736,1.736,0,0,1-2.406,0,1.855,1.855,0,0,1-.45-1.315Zm.931.066a1.3,1.3,0,0,0,.187.76.671.671,0,0,0,1.063,0,1.426,1.426,0,0,0,.19-.831,1.29,1.29,0,0,0-.19-.755.618.618,0,0,0-.535-.268.608.608,0,0,0-.529.266A1.45,1.45,0,0,0,27.83,8.49Zm.9-3.24h1.015l-.893,1h-.757Zm1.9,3.181A2.1,2.1,0,0,1,31,7.132a1.187,1.187,0,0,1,1-.483,1.068,1.068,0,0,1,.841.38V5.25h.935V10.2h-.841l-.045-.371a1.1,1.1,0,0,1-.9.435A1.184,1.184,0,0,1,31,9.779,2.169,2.169,0,0,1,30.631,8.431Zm.931.069a1.377,1.377,0,0,0,.171.752.556.556,0,0,0,.5.261.623.623,0,0,0,.609-.365V7.771a.614.614,0,0,0-.6-.365Q31.562,7.406,31.562,8.5Zm3.916,1.7h-.935V6.713h.935Zm-.989-4.389a.459.459,0,0,1,.14-.345.6.6,0,0,1,.762,0,.492.492,0,0,1,0,.693.6.6,0,0,1-.757,0A.457.457,0,0,1,34.488,5.811Zm1.621,2.62a2.044,2.044,0,0,1,.382-1.292,1.237,1.237,0,0,1,1.03-.49,1.085,1.085,0,0,1,.893.393l.039-.329H39.3v3.371a1.49,1.49,0,0,1-.208.8,1.335,1.335,0,0,1-.585.516,2.056,2.056,0,0,1-.883.177,1.912,1.912,0,0,1-.748-.153,1.327,1.327,0,0,1-.551-.395l.412-.567a1.091,1.091,0,0,0,.844.39.8.8,0,0,0,.577-.2.743.743,0,0,0,.206-.562V9.9a1.077,1.077,0,0,1-.848.364A1.234,1.234,0,0,1,36.5,9.773a2.043,2.043,0,0,1-.388-1.3Zm.931.069a1.272,1.272,0,0,0,.19.744.6.6,0,0,0,.522.269.647.647,0,0,0,.609-.32V7.726a.645.645,0,0,0-.6-.32.609.609,0,0,0-.527.274A1.434,1.434,0,0,0,37.041,8.5Zm2.826-.076a2.068,2.068,0,0,1,.2-.925,1.463,1.463,0,0,1,.575-.628,1.678,1.678,0,0,1,.872-.222,1.588,1.588,0,0,1,1.152.432,1.733,1.733,0,0,1,.5,1.173l.006.238a1.823,1.823,0,0,1-.448,1.287,1.736,1.736,0,0,1-2.406,0,1.855,1.855,0,0,1-.45-1.315Zm.931.066a1.3,1.3,0,0,0,.187.76.671.671,0,0,0,1.063,0,1.426,1.426,0,0,0,.19-.831,1.29,1.29,0,0,0-.19-.755.618.618,0,0,0-.535-.268.608.608,0,0,0-.529.266A1.45,1.45,0,0,0,40.8,8.49Z" transform="translate(101.135 87.094)" fill="#12263f"/>
        <path id="Trazado_1284605" data-name="Trazado 1284605" d="M20.213,8.547V10.2h-.967V5.508h1.83a2.118,2.118,0,0,1,.93.193,1.425,1.425,0,0,1,.617.549,1.532,1.532,0,0,1,.216.81,1.347,1.347,0,0,1-.472,1.088,1.966,1.966,0,0,1-1.307.4Zm0-.783h.864a.849.849,0,0,0,.585-.18.656.656,0,0,0,.2-.516.774.774,0,0,0-.2-.558.758.758,0,0,0-.561-.219h-.886Zm5.25,2.436a1.034,1.034,0,0,1-.093-.313,1.127,1.127,0,0,1-.88.377,1.238,1.238,0,0,1-.849-.3A.954.954,0,0,1,23.3,9.22a.985.985,0,0,1,.411-.851,2.027,2.027,0,0,1,1.188-.3h.429v-.2a.575.575,0,0,0-.124-.387.488.488,0,0,0-.392-.145.555.555,0,0,0-.369.113.383.383,0,0,0-.134.309h-.931a.936.936,0,0,1,.187-.561,1.236,1.236,0,0,1,.529-.4,1.926,1.926,0,0,1,.767-.147,1.522,1.522,0,0,1,1.023.324,1.133,1.133,0,0,1,.379.91V9.394a1.667,1.667,0,0,0,.139.751V10.2Zm-.77-.648a.8.8,0,0,0,.38-.092.6.6,0,0,0,.258-.247v-.6h-.348q-.7,0-.744.483l0,.055a.373.373,0,0,0,.122.287A.476.476,0,0,0,24.692,9.552Zm.354-4.3h1.015l-.893,1h-.757Zm1.8,3.181a2.044,2.044,0,0,1,.382-1.292,1.237,1.237,0,0,1,1.03-.49,1.085,1.085,0,0,1,.893.393l.039-.329h.844v3.371a1.49,1.49,0,0,1-.208.8,1.335,1.335,0,0,1-.585.516,2.056,2.056,0,0,1-.883.177,1.912,1.912,0,0,1-.748-.153,1.327,1.327,0,0,1-.551-.395l.413-.567a1.091,1.091,0,0,0,.844.39.8.8,0,0,0,.577-.2.743.743,0,0,0,.206-.562V9.9a1.077,1.077,0,0,1-.848.364,1.234,1.234,0,0,1-1.017-.491,2.043,2.043,0,0,1-.388-1.3Zm.931.069a1.272,1.272,0,0,0,.19.744.6.6,0,0,0,.522.269.647.647,0,0,0,.609-.32V7.726a.645.645,0,0,0-.6-.32.609.609,0,0,0-.527.274A1.434,1.434,0,0,0,27.776,8.5Zm3.954,1.7H30.8V6.713h.935Zm-.989-4.389a.459.459,0,0,1,.14-.345.6.6,0,0,1,.762,0,.492.492,0,0,1,0,.693.6.6,0,0,1-.757,0A.457.457,0,0,1,30.741,5.811Zm2.614.9.029.4a1.217,1.217,0,0,1,1-.467,1.012,1.012,0,0,1,.825.325,1.519,1.519,0,0,1,.277.973V10.2h-.931V7.97a.6.6,0,0,0-.129-.43A.577.577,0,0,0,34,7.406a.641.641,0,0,0-.59.335V10.2h-.931V6.713Zm4.86,3.487a1.034,1.034,0,0,1-.093-.313,1.127,1.127,0,0,1-.88.377,1.238,1.238,0,0,1-.849-.3.954.954,0,0,1-.337-.748.985.985,0,0,1,.411-.851,2.027,2.027,0,0,1,1.188-.3h.429v-.2a.575.575,0,0,0-.124-.387.488.488,0,0,0-.392-.145.555.555,0,0,0-.369.113.383.383,0,0,0-.134.309h-.931a.936.936,0,0,1,.187-.561,1.235,1.235,0,0,1,.529-.4,1.926,1.926,0,0,1,.767-.147,1.522,1.522,0,0,1,1.023.324,1.133,1.133,0,0,1,.379.91V9.394a1.667,1.667,0,0,0,.139.751V10.2Zm-.77-.648a.8.8,0,0,0,.38-.092.6.6,0,0,0,.258-.247v-.6h-.348q-.7,0-.744.483l0,.055a.373.373,0,0,0,.122.287A.476.476,0,0,0,37.444,9.552Zm4.177-.316a.3.3,0,0,0-.169-.269,1.922,1.922,0,0,0-.543-.176q-1.244-.261-1.244-1.057a.958.958,0,0,1,.385-.775,1.553,1.553,0,0,1,1.007-.311,1.672,1.672,0,0,1,1.062.313.985.985,0,0,1,.4.812h-.931a.451.451,0,0,0-.129-.33.546.546,0,0,0-.4-.131.557.557,0,0,0-.364.106.336.336,0,0,0-.129.271.287.287,0,0,0,.147.25A1.508,1.508,0,0,0,41.2,8.1a4.04,4.04,0,0,1,.587.156.964.964,0,0,1,.738.938.91.91,0,0,1-.409.772,1.765,1.765,0,0,1-1.057.295,1.844,1.844,0,0,1-.778-.156,1.306,1.306,0,0,1-.533-.429,1,1,0,0,1-.193-.588h.883a.486.486,0,0,0,.184.38.729.729,0,0,0,.458.132.674.674,0,0,0,.4-.1A.316.316,0,0,0,41.621,9.236Z" transform="translate(24.403 87.094)" fill="#12263f"/>
        <path id="Trazado_1284644" data-name="Trazado 1284644" d="M32.074,10.5h-.967V5.813h.967ZM35.4,9.274a.5.5,0,0,0-.193-.421,2.536,2.536,0,0,0-.7-.309,4.934,4.934,0,0,1-.8-.321,1.3,1.3,0,0,1-.8-1.163,1.133,1.133,0,0,1,.214-.678,1.4,1.4,0,0,1,.616-.466,2.317,2.317,0,0,1,.9-.168,2.109,2.109,0,0,1,.9.182,1.427,1.427,0,0,1,.611.514,1.345,1.345,0,0,1,.218.754h-.967a.633.633,0,0,0-.2-.5.835.835,0,0,0-.57-.179.892.892,0,0,0-.551.15.473.473,0,0,0-.2.395.453.453,0,0,0,.23.383,2.6,2.6,0,0,0,.678.29,2.931,2.931,0,0,1,1.2.616,1.226,1.226,0,0,1,.377.915,1.129,1.129,0,0,1-.461.956,2.017,2.017,0,0,1-1.241.346,2.4,2.4,0,0,1-.986-.2,1.56,1.56,0,0,1-.678-.543,1.391,1.391,0,0,1-.234-.8h.97q0,.777.928.777a.9.9,0,0,0,.538-.14A.456.456,0,0,0,35.4,9.274ZM37.028,10.5V5.813h1.644a2.158,2.158,0,0,1,1.3.327,1.119,1.119,0,0,1,.442.959,1.06,1.06,0,0,1-.177.607,1.024,1.024,0,0,1-.493.385.991.991,0,0,1,.569.364,1.077,1.077,0,0,1,.208.67,1.238,1.238,0,0,1-.432,1.025,1.944,1.944,0,0,1-1.231.354Zm.967-2.043V9.728h.828a.8.8,0,0,0,.533-.163.558.558,0,0,0,.192-.45.589.589,0,0,0-.667-.654Zm0-.683h.715q.732-.013.732-.583a.539.539,0,0,0-.185-.459.975.975,0,0,0-.585-.14h-.677ZM45.055,10.5h-.967L42.206,7.417V10.5H41.24V5.813h.967l1.885,3.094V5.813h.964Z" transform="translate(95.958 130.272)" fill="#12263f"/>
        <path id="Trazado_1284645" data-name="Trazado 1284645" d="M21.359,8.167H19.5V9.423h2.179V10.2H18.536V5.508h3.139v.783H19.5V7.409h1.856Zm.683.264a2.1,2.1,0,0,1,.366-1.3,1.187,1.187,0,0,1,1-.483,1.068,1.068,0,0,1,.841.38V5.25h.935V10.2h-.841L24.3,9.829a1.1,1.1,0,0,1-.9.435,1.184,1.184,0,0,1-.988-.485A2.169,2.169,0,0,1,22.042,8.431Zm.931.069a1.377,1.377,0,0,0,.171.752.556.556,0,0,0,.5.261.623.623,0,0,0,.609-.365V7.771a.614.614,0,0,0-.6-.365Q22.974,7.406,22.974,8.5Zm3.916,1.7h-.935V6.713h.935ZM25.9,5.811a.459.459,0,0,1,.14-.345.6.6,0,0,1,.762,0,.492.492,0,0,1,0,.693.6.6,0,0,1-.757,0A.457.457,0,0,1,25.9,5.811Zm2.871.045v.857h.6V7.4h-.6v1.74a.416.416,0,0,0,.074.277.372.372,0,0,0,.284.084,1.485,1.485,0,0,0,.274-.023v.706a1.917,1.917,0,0,1-.564.084.889.889,0,0,1-1-.989V7.4h-.509V6.713h.509V5.856Zm.873,2.568a2.068,2.068,0,0,1,.2-.925,1.463,1.463,0,0,1,.575-.628,1.678,1.678,0,0,1,.872-.222,1.588,1.588,0,0,1,1.152.432,1.733,1.733,0,0,1,.5,1.173l.006.238A1.823,1.823,0,0,1,32.5,9.779a1.736,1.736,0,0,1-2.406,0,1.855,1.855,0,0,1-.45-1.315Zm.931.066a1.3,1.3,0,0,0,.187.76.671.671,0,0,0,1.063,0,1.426,1.426,0,0,0,.19-.831,1.29,1.29,0,0,0-.19-.755.618.618,0,0,0-.535-.268.608.608,0,0,0-.529.266A1.45,1.45,0,0,0,30.576,8.49Zm4.9-.9a2.53,2.53,0,0,0-.335-.026.682.682,0,0,0-.693.358V10.2h-.931V6.713h.88l.026.416a.863.863,0,0,1,.777-.48.976.976,0,0,1,.29.042ZM36.912,10.2h-.935V6.713h.935Zm-.989-4.389a.459.459,0,0,1,.14-.345.6.6,0,0,1,.762,0,.492.492,0,0,1,0,.693.6.6,0,0,1-.757,0A.457.457,0,0,1,35.922,5.811ZM39.7,10.2a1.034,1.034,0,0,1-.093-.313,1.127,1.127,0,0,1-.88.377,1.238,1.238,0,0,1-.849-.3.954.954,0,0,1-.337-.748.985.985,0,0,1,.411-.851,2.027,2.027,0,0,1,1.188-.3h.429v-.2a.575.575,0,0,0-.124-.387.488.488,0,0,0-.392-.145.555.555,0,0,0-.369.113.383.383,0,0,0-.134.309h-.931A.936.936,0,0,1,37.8,7.2a1.236,1.236,0,0,1,.529-.4,1.926,1.926,0,0,1,.767-.147,1.522,1.522,0,0,1,1.023.324,1.133,1.133,0,0,1,.379.91V9.394a1.667,1.667,0,0,0,.139.751V10.2Zm-.77-.648a.8.8,0,0,0,.38-.092.6.6,0,0,0,.258-.247v-.6h-.348q-.7,0-.744.483l0,.055a.373.373,0,0,0,.122.287A.476.476,0,0,0,38.929,9.552ZM42.2,10.2h-.935V5.25H42.2Z" transform="translate(103.648 151.929)" fill="#12263f"/>
        <path id="Trazado_1284578" data-name="Trazado 1284578" d="M1.165,236.824H0V0H1.165Z" transform="translate(94.606 126.791) rotate(90)" fill="#344866"/>
        <path id="Trazado_1284591" data-name="Trazado 1284591" d="M1.165,117.635H0V0H1.165Z" transform="translate(55.597 219.976) rotate(180)" fill="#344866"/>
        <path id="Trazado_1284593" data-name="Trazado 1284593" d="M1.165,12.057H0V0H1.165Z" transform="translate(-23.418 259.771) rotate(180)" fill="#344866"/>
        <path id="Trazado_1284583" data-name="Trazado 1284583" d="M1.165,237.406H0V0H1.165Z" transform="translate(94.606 222.685) rotate(90)" fill="#344866"/>
        <path id="Trazado_1284579" data-name="Trazado 1284579" d="M13.978,22.906H0V0H13.978V1.165H1.165V21.741H13.978Z" transform="translate(-141.635 139.029) rotate(180)" fill="#344866"/>
        <path id="Trazado_1284580" data-name="Trazado 1284580" d="M12.812,66.194H0V65.029H11.647V1.165H0V0H12.812Z" transform="translate(106.835 160.576) rotate(180)" fill="#344866"/>
        <path id="Trazado_1284585" data-name="Trazado 1284585" d="M12.812,22.712H0V21.547H11.647V1.165H0V0H12.812Z" transform="translate(106.835 234.729) rotate(180)" fill="#344866"/>
        <path id="Trazado_1284592" data-name="Trazado 1284592" d="M12.812,62.118H0V60.953H11.647V1.165H0V0H12.812Z" transform="translate(-55.059 272) rotate(-90)" fill="#344866"/>
        <path id="Trazado_1284581" data-name="Trazado 1284581" d="M1.165,12.229H0V0H1.165Z" transform="translate(106.835 115.929) rotate(90)" fill="#344866"/>
        <path id="Trazado_1284582" data-name="Trazado 1284582" d="M1.165,12.229H0V0H1.165Z" transform="translate(106.835 137.865) rotate(90)" fill="#344866"/>
        <g id="Grupo_1212288" data-name="Grupo 1212288" transform="translate(-155.029 190.082)">
          <path id="Trazado_1284589" data-name="Trazado 1284589" d="M12.812,64.694H0V63.529H11.647V-.335H0V-1.5H12.812Z" transform="translate(0 1.5)" fill="#344866"/>
          <path id="Trazado_1284588" data-name="Trazado 1284588" d="M1.165,12.229H0V0H1.165Z" transform="translate(12.229 21.547) rotate(90)" fill="#344866"/>
          <path id="Trazado_1284590" data-name="Trazado 1284590" d="M1.165,12.229H0V0H1.165Z" transform="translate(12.229 43.482) rotate(90)" fill="#344866"/>
        </g>
        <path id="Trazado_1284595" data-name="Trazado 1284595" d="M0,0H53.965V15.141H0Z" transform="translate(-129.988 119.812)" fill="#ffd453"/>
        <path id="Trazado_1284606" data-name="Trazado 1284606" d="M0,0H53.965V15.141H0Z" transform="translate(-129.988 215.706)" fill="#ffd453"/>
        <path id="Trazado_1284607" data-name="Trazado 1284607" d="M0,0H53.965V15.141H0Z" transform="translate(28.024 119.812)" fill="#ffd453"/>
        <path id="Trazado_1284608" data-name="Trazado 1284608" d="M0,0H53.965V15.141H0Z" transform="translate(28.024 215.706)" fill="#ffd453"/>
        <path id="Trazado_1284609" data-name="Trazado 1284609" d="M6.988,0H31.707A6.988,6.988,0,0,1,38.7,6.988V31.707A6.988,6.988,0,0,1,31.707,38.7H6.988A6.988,6.988,0,0,1,0,31.707V6.988A6.988,6.988,0,0,1,6.988,0Z" transform="translate(-23.814 100.012) rotate(45)" fill="#69d7e5"/>
        <path id="Trazado_1284610" data-name="Trazado 1284610" d="M6.988,0H31.707A6.988,6.988,0,0,1,38.7,6.988V31.707A6.988,6.988,0,0,1,31.707,38.7H6.988A6.988,6.988,0,0,1,0,31.707V6.988A6.988,6.988,0,0,1,6.988,0Z" transform="translate(-23.814 195.906) rotate(45)" fill="#69d7e5"/>
        <path id="Trazado_1284611" data-name="Trazado 1284611" d="M6.988,0H31.707A6.988,6.988,0,0,1,38.7,6.988V31.707A6.988,6.988,0,0,1,31.707,38.7H6.988A6.988,6.988,0,0,1,0,31.707V6.988A6.988,6.988,0,0,1,6.988,0Z" transform="translate(54.998 148.153) rotate(45)" fill="#69d7e5"/>
        <path id="Trazado_1284612" data-name="Trazado 1284612" d="M32.584,8.167H30.728V9.423h2.179V10.2H29.761V5.508H32.9v.783H30.728V7.409h1.856ZM35.3,9.236a.3.3,0,0,0-.169-.269,1.922,1.922,0,0,0-.543-.176q-1.244-.261-1.244-1.057a.958.958,0,0,1,.385-.775,1.553,1.553,0,0,1,1.007-.311,1.672,1.672,0,0,1,1.062.313.985.985,0,0,1,.4.812h-.931a.451.451,0,0,0-.129-.33.546.546,0,0,0-.4-.131.557.557,0,0,0-.364.106.336.336,0,0,0-.129.271.287.287,0,0,0,.147.25,1.508,1.508,0,0,0,.495.164,4.04,4.04,0,0,1,.587.156.964.964,0,0,1,.738.938.91.91,0,0,1-.409.772,1.766,1.766,0,0,1-1.057.295,1.844,1.844,0,0,1-.778-.156,1.306,1.306,0,0,1-.533-.429,1,1,0,0,1-.193-.588h.883a.486.486,0,0,0,.184.38.729.729,0,0,0,.458.132.674.674,0,0,0,.4-.1A.316.316,0,0,0,35.3,9.236Zm2.955.277a.611.611,0,0,0,.419-.142.5.5,0,0,0,.168-.377h.873a1.2,1.2,0,0,1-.193.649A1.276,1.276,0,0,1,39,10.1a1.629,1.629,0,0,1-.73.163,1.514,1.514,0,0,1-1.179-.475,1.881,1.881,0,0,1-.432-1.313V8.415a1.86,1.86,0,0,1,.429-1.286,1.5,1.5,0,0,1,1.176-.48,1.467,1.467,0,0,1,1.049.372,1.318,1.318,0,0,1,.4.991h-.873a.64.64,0,0,0-.168-.442.623.623,0,0,0-.917.067,1.375,1.375,0,0,0-.166.77v.1a1.392,1.392,0,0,0,.164.775A.568.568,0,0,0,38.256,9.514Zm3.951-1.927a2.53,2.53,0,0,0-.335-.026.682.682,0,0,0-.693.358V10.2h-.931V6.713h.88l.026.416a.863.863,0,0,1,.777-.48.976.976,0,0,1,.29.042ZM43.638,10.2H42.7V6.713h.935Zm-.989-4.389a.459.459,0,0,1,.14-.345.6.6,0,0,1,.762,0,.492.492,0,0,1,0,.693.6.6,0,0,1-.757,0A.457.457,0,0,1,42.648,5.811Zm4.9,2.678A2.111,2.111,0,0,1,47.189,9.8a1.185,1.185,0,0,1-1,.469,1.089,1.089,0,0,1-.906-.435l-.042.371H44.4V5.25h.931V7.026a1.061,1.061,0,0,1,.848-.377,1.2,1.2,0,0,1,1,.469,2.114,2.114,0,0,1,.363,1.32Zm-.931-.068a1.387,1.387,0,0,0-.168-.772.567.567,0,0,0-.5-.243.614.614,0,0,0-.612.364V9.146a.623.623,0,0,0,.619.367.575.575,0,0,0,.593-.445A2.294,2.294,0,0,0,46.615,8.421Zm3.11,1.843a1.712,1.712,0,0,1-1.249-.471,1.672,1.672,0,0,1-.482-1.254V8.45a2.106,2.106,0,0,1,.2-.939,1.49,1.49,0,0,1,.575-.638,1.615,1.615,0,0,1,.849-.224,1.447,1.447,0,0,1,1.126.451,1.833,1.833,0,0,1,.411,1.279v.38h-2.22a.865.865,0,0,0,.272.548.823.823,0,0,0,.575.206,1,1,0,0,0,.841-.39l.458.512a1.4,1.4,0,0,1-.567.462A1.861,1.861,0,0,1,49.725,10.264ZM49.619,7.4a.582.582,0,0,0-.45.188.972.972,0,0,0-.221.537h1.3V8.05a.693.693,0,0,0-.168-.481A.6.6,0,0,0,49.619,7.4Z" transform="translate(-63.745 119.503)" fill="#12263f"/>
        <path id="Trazado_1284613" data-name="Trazado 1284613" d="M8.049,10.606H7.082L5.2,7.519v3.087H4.233V5.914H5.2L7.085,9.008V5.914h.964Zm.828-.458a.469.469,0,0,1,.15-.361.582.582,0,0,1,.754,0,.469.469,0,0,1,.15.361.462.462,0,0,1-.148.356.592.592,0,0,1-.757,0A.462.462,0,0,1,8.877,10.149Zm0-2.639a.469.469,0,0,1,.15-.361.582.582,0,0,1,.754,0,.469.469,0,0,1,.15.361.462.462,0,0,1-.148.356.592.592,0,0,1-.757,0A.462.462,0,0,1,8.877,7.509Zm3.142-1.6,1.205,3.4,1.2-3.4h1.27v4.692h-.97V9.324l.1-2.214-1.267,3.5h-.664L11.626,7.113l.1,2.211v1.283h-.967V5.914Z" transform="translate(-33.764 89.992)" fill="#12263f"/>
        <path id="Trazado_1284635" data-name="Trazado 1284635" d="M7.708,10.6H6.777V7.006l-1.112.345V6.594l1.943-.7h.1Zm1.608-.458a.469.469,0,0,1,.15-.361.582.582,0,0,1,.754,0,.469.469,0,0,1,.15.361.462.462,0,0,1-.148.356.592.592,0,0,1-.757,0A.462.462,0,0,1,9.316,10.138Zm0-2.639a.469.469,0,0,1,.15-.361.582.582,0,0,1,.754,0,.469.469,0,0,1,.15.361.462.462,0,0,1-.148.356.592.592,0,0,1-.757,0A.462.462,0,0,1,9.316,7.5Zm3.142-1.6,1.205,3.4,1.2-3.4h1.27V10.6h-.97V9.313l.1-2.214-1.267,3.5h-.664L12.065,7.1l.1,2.211V10.6h-.967V5.9Z" transform="translate(77.358 167.248)" fill="#12263f"/>
        <path id="Trazado_1284614" data-name="Trazado 1284614" d="M8.049,10.606H7.082L5.2,7.519v3.087H4.233V5.914H5.2L7.085,9.008V5.914h.964Zm.828-.458a.469.469,0,0,1,.15-.361.582.582,0,0,1,.754,0,.469.469,0,0,1,.15.361.462.462,0,0,1-.148.356.592.592,0,0,1-.757,0A.462.462,0,0,1,8.877,10.149Zm0-2.639a.469.469,0,0,1,.15-.361.582.582,0,0,1,.754,0,.469.469,0,0,1,.15.361.462.462,0,0,1-.148.356.592.592,0,0,1-.757,0A.462.462,0,0,1,8.877,7.509Zm3.142-1.6,1.205,3.4,1.2-3.4h1.27v4.692h-.97V9.324l.1-2.214-1.267,3.5h-.664L11.626,7.113l.1,2.211v1.283h-.967V5.914Z" transform="translate(-33.764 185.882)" fill="#12263f"/>
        <path id="Trazado_1284601" data-name="Trazado 1284601" d="M2.336,7.886a4.946,4.946,0,0,1,.2-1.405A3.708,3.708,0,0,1,3.113,5.3a2.166,2.166,0,0,1,.831-.714l.18.5A2.243,2.243,0,0,0,3.39,6.165a4.984,4.984,0,0,0-.264,1.7v.1a5.079,5.079,0,0,0,.261,1.708,2.287,2.287,0,0,0,.738,1.092l-.18.493a2.167,2.167,0,0,1-.817-.694,3.646,3.646,0,0,1-.578-1.149,4.916,4.916,0,0,1-.213-1.36Zm4.5,1.908H5.9V6.2l-1.112.345V5.791l1.943-.7h.1Zm1.8,1.176-.487-.255.116-.209a1.674,1.674,0,0,0,.222-.783V9h.786l0,.645a1.674,1.674,0,0,1-.18.722A1.851,1.851,0,0,1,8.64,10.97Zm2.227-4.663.029.4a1.217,1.217,0,0,1,1-.467,1.012,1.012,0,0,1,.825.325A1.519,1.519,0,0,1,13,7.541V9.794h-.931V7.564a.6.6,0,0,0-.129-.43A.577.577,0,0,0,11.511,7a.641.641,0,0,0-.59.335V9.794H9.99V6.307ZM15.311,7.96a4.693,4.693,0,0,1-.209,1.4,3.805,3.805,0,0,1-.6,1.189,2.171,2.171,0,0,1-.841.709l-.18-.493A2.266,2.266,0,0,0,14.2,9.7a4.925,4.925,0,0,0,.274-1.653V7.879a5.036,5.036,0,0,0-.263-1.7,2.362,2.362,0,0,0-.733-1.1l.18-.493a2.172,2.172,0,0,1,.827.69,3.756,3.756,0,0,1,.6,1.163,4.66,4.66,0,0,1,.224,1.376Z" transform="translate(-70.464 112.347)" fill="#12263f"/>
        <path id="Trazado_1284615" data-name="Trazado 1284615" d="M2.336,7.886a4.946,4.946,0,0,1,.2-1.405A3.708,3.708,0,0,1,3.113,5.3a2.166,2.166,0,0,1,.831-.714l.18.5A2.243,2.243,0,0,0,3.39,6.165a4.984,4.984,0,0,0-.264,1.7v.1a5.079,5.079,0,0,0,.261,1.708,2.287,2.287,0,0,0,.738,1.092l-.18.493a2.167,2.167,0,0,1-.817-.694,3.646,3.646,0,0,1-.578-1.149,4.916,4.916,0,0,1-.213-1.36Zm4.5,1.908H5.9V6.2l-1.112.345V5.791l1.943-.7h.1Zm1.8,1.176-.487-.255.116-.209a1.674,1.674,0,0,0,.222-.783V9h.786l0,.645a1.674,1.674,0,0,1-.18.722A1.851,1.851,0,0,1,8.64,10.97Zm2.227-4.663.029.4a1.217,1.217,0,0,1,1-.467,1.012,1.012,0,0,1,.825.325A1.519,1.519,0,0,1,13,7.541V9.794h-.931V7.564a.6.6,0,0,0-.129-.43A.577.577,0,0,0,11.511,7a.641.641,0,0,0-.59.335V9.794H9.99V6.307ZM15.311,7.96a4.693,4.693,0,0,1-.209,1.4,3.805,3.805,0,0,1-.6,1.189,2.171,2.171,0,0,1-.841.709l-.18-.493A2.266,2.266,0,0,0,14.2,9.7a4.925,4.925,0,0,0,.274-1.653V7.879a5.036,5.036,0,0,0-.263-1.7,2.362,2.362,0,0,0-.733-1.1l.18-.493a2.172,2.172,0,0,1,.827.69,3.756,3.756,0,0,1,.6,1.163,4.66,4.66,0,0,1,.224,1.376Z" transform="translate(-70.464 208.242)" fill="#12263f"/>
        <path id="Trazado_1284616" data-name="Trazado 1284616" d="M2.336,7.886a4.946,4.946,0,0,1,.2-1.405A3.708,3.708,0,0,1,3.113,5.3a2.166,2.166,0,0,1,.831-.714l.18.5A2.243,2.243,0,0,0,3.39,6.165a4.984,4.984,0,0,0-.264,1.7v.1a5.079,5.079,0,0,0,.261,1.708,2.287,2.287,0,0,0,.738,1.092l-.18.493a2.167,2.167,0,0,1-.817-.694,3.646,3.646,0,0,1-.578-1.149,4.916,4.916,0,0,1-.213-1.36Zm4.5,1.908H5.9V6.2l-1.112.345V5.791l1.943-.7h.1Zm1.8,1.176-.487-.255.116-.209a1.674,1.674,0,0,0,.222-.783V9h.786l0,.645a1.674,1.674,0,0,1-.18.722A1.851,1.851,0,0,1,8.64,10.97Zm2.227-4.663.029.4a1.217,1.217,0,0,1,1-.467,1.012,1.012,0,0,1,.825.325A1.519,1.519,0,0,1,13,7.541V9.794h-.931V7.564a.6.6,0,0,0-.129-.43A.577.577,0,0,0,11.511,7a.641.641,0,0,0-.59.335V9.794H9.99V6.307ZM15.311,7.96a4.693,4.693,0,0,1-.209,1.4,3.805,3.805,0,0,1-.6,1.189,2.171,2.171,0,0,1-.841.709l-.18-.493A2.266,2.266,0,0,0,14.2,9.7a4.925,4.925,0,0,0,.274-1.653V7.879a5.036,5.036,0,0,0-.263-1.7,2.362,2.362,0,0,0-.733-1.1l.18-.493a2.172,2.172,0,0,1,.827.69,3.756,3.756,0,0,1,.6,1.163,4.66,4.66,0,0,1,.224,1.376Z" transform="translate(5.241 112.347)" fill="#12263f"/>
        <path id="Trazado_1284617" data-name="Trazado 1284617" d="M2.336,7.886a4.946,4.946,0,0,1,.2-1.405A3.708,3.708,0,0,1,3.113,5.3a2.166,2.166,0,0,1,.831-.714l.18.5A2.243,2.243,0,0,0,3.39,6.165a4.984,4.984,0,0,0-.264,1.7v.1a5.079,5.079,0,0,0,.261,1.708,2.287,2.287,0,0,0,.738,1.092l-.18.493a2.167,2.167,0,0,1-.817-.694,3.646,3.646,0,0,1-.578-1.149,4.916,4.916,0,0,1-.213-1.36Zm4.5,1.908H5.9V6.2l-1.112.345V5.791l1.943-.7h.1Zm1.8,1.176-.487-.255.116-.209a1.674,1.674,0,0,0,.222-.783V9h.786l0,.645a1.674,1.674,0,0,1-.18.722A1.851,1.851,0,0,1,8.64,10.97Zm2.227-4.663.029.4a1.217,1.217,0,0,1,1-.467,1.012,1.012,0,0,1,.825.325A1.519,1.519,0,0,1,13,7.541V9.794h-.931V7.564a.6.6,0,0,0-.129-.43A.577.577,0,0,0,11.511,7a.641.641,0,0,0-.59.335V9.794H9.99V6.307ZM15.311,7.96a4.693,4.693,0,0,1-.209,1.4,3.805,3.805,0,0,1-.6,1.189,2.171,2.171,0,0,1-.841.709l-.18-.493A2.266,2.266,0,0,0,14.2,9.7a4.925,4.925,0,0,0,.274-1.653V7.879a5.036,5.036,0,0,0-.263-1.7,2.362,2.362,0,0,0-.733-1.1l.18-.493a2.172,2.172,0,0,1,.827.69,3.756,3.756,0,0,1,.6,1.163,4.66,4.66,0,0,1,.224,1.376Z" transform="translate(5.241 208.242)" fill="#12263f"/>
        <path id="Trazado_1284618" data-name="Trazado 1284618" d="M2.22,7.886a4.946,4.946,0,0,1,.2-1.405A3.708,3.708,0,0,1,3,5.3a2.166,2.166,0,0,1,.831-.714l.18.5a2.243,2.243,0,0,0-.735,1.076,4.984,4.984,0,0,0-.264,1.7v.1a5.079,5.079,0,0,0,.261,1.708,2.287,2.287,0,0,0,.738,1.092l-.18.493a2.167,2.167,0,0,1-.817-.694,3.646,3.646,0,0,1-.578-1.149,4.916,4.916,0,0,1-.213-1.36Zm4.5,1.908H5.787V6.2l-1.112.345V5.791l1.943-.7h.1Zm1.8,1.176-.487-.255.116-.209a1.674,1.674,0,0,0,.222-.783V9h.786l0,.645a1.674,1.674,0,0,1-.18.722A1.851,1.851,0,0,1,8.523,10.97Zm3.593-1.176h-.931V6.2l-1.112.345V5.791l1.943-.7h.1ZM15.285,7.96a4.693,4.693,0,0,1-.209,1.4,3.805,3.805,0,0,1-.6,1.189,2.171,2.171,0,0,1-.841.709l-.18-.493A2.266,2.266,0,0,0,14.173,9.7a4.925,4.925,0,0,0,.274-1.653V7.879a5.036,5.036,0,0,0-.263-1.7,2.362,2.362,0,0,0-.733-1.1l.18-.493a2.172,2.172,0,0,1,.827.69,3.756,3.756,0,0,1,.6,1.163,4.66,4.66,0,0,1,.224,1.376Z" transform="translate(55.783 135.642)" fill="#12263f"/>
        <path id="Trazado_1284619" data-name="Trazado 1284619" d="M2.336,7.886a4.946,4.946,0,0,1,.2-1.405A3.708,3.708,0,0,1,3.113,5.3a2.166,2.166,0,0,1,.831-.714l.18.5A2.243,2.243,0,0,0,3.39,6.165a4.984,4.984,0,0,0-.264,1.7v.1a5.079,5.079,0,0,0,.261,1.708,2.287,2.287,0,0,0,.738,1.092l-.18.493a2.167,2.167,0,0,1-.817-.694,3.646,3.646,0,0,1-.578-1.149,4.916,4.916,0,0,1-.213-1.36Zm4.5,1.908H5.9V6.2l-1.112.345V5.791l1.943-.7h.1Zm1.8,1.176-.487-.255.116-.209a1.674,1.674,0,0,0,.222-.783V9h.786l0,.645a1.674,1.674,0,0,1-.18.722A1.851,1.851,0,0,1,8.64,10.97Zm2.227-4.663.029.4a1.217,1.217,0,0,1,1-.467,1.012,1.012,0,0,1,.825.325A1.519,1.519,0,0,1,13,7.541V9.794h-.931V7.564a.6.6,0,0,0-.129-.43A.577.577,0,0,0,11.511,7a.641.641,0,0,0-.59.335V9.794H9.99V6.307ZM15.311,7.96a4.693,4.693,0,0,1-.209,1.4,3.805,3.805,0,0,1-.6,1.189,2.171,2.171,0,0,1-.841.709l-.18-.493A2.266,2.266,0,0,0,14.2,9.7a4.925,4.925,0,0,0,.274-1.653V7.879a5.036,5.036,0,0,0-.263-1.7,2.362,2.362,0,0,0-.733-1.1l.18-.493a2.172,2.172,0,0,1,.827.69,3.756,3.756,0,0,1,.6,1.163,4.66,4.66,0,0,1,.224,1.376Z" transform="translate(55.712 200.477)" fill="#12263f"/>
        <path id="Trazado_1284620" data-name="Trazado 1284620" d="M41.43,9.274a.5.5,0,0,0-.193-.421,2.536,2.536,0,0,0-.7-.309,4.934,4.934,0,0,1-.8-.321,1.3,1.3,0,0,1-.8-1.163,1.133,1.133,0,0,1,.214-.678,1.4,1.4,0,0,1,.616-.466,2.317,2.317,0,0,1,.9-.168,2.109,2.109,0,0,1,.9.182,1.427,1.427,0,0,1,.611.514A1.345,1.345,0,0,1,42.4,7.2h-.967a.633.633,0,0,0-.2-.5.835.835,0,0,0-.57-.179.892.892,0,0,0-.551.15.473.473,0,0,0-.2.395.453.453,0,0,0,.23.383,2.6,2.6,0,0,0,.678.29,2.931,2.931,0,0,1,1.2.616,1.226,1.226,0,0,1,.377.915,1.129,1.129,0,0,1-.461.956,2.017,2.017,0,0,1-1.241.346,2.4,2.4,0,0,1-.986-.2,1.56,1.56,0,0,1-.678-.543,1.391,1.391,0,0,1-.234-.8h.97q0,.777.928.777a.9.9,0,0,0,.538-.14A.456.456,0,0,0,41.43,9.274ZM45.014,10.5a1.034,1.034,0,0,1-.093-.313,1.127,1.127,0,0,1-.88.377,1.238,1.238,0,0,1-.849-.3.954.954,0,0,1-.337-.748.985.985,0,0,1,.411-.851,2.027,2.027,0,0,1,1.188-.3h.429v-.2a.575.575,0,0,0-.124-.387.488.488,0,0,0-.392-.145A.555.555,0,0,0,44,7.756a.383.383,0,0,0-.134.309h-.931a.936.936,0,0,1,.187-.561,1.236,1.236,0,0,1,.529-.4,1.926,1.926,0,0,1,.767-.147,1.522,1.522,0,0,1,1.023.324,1.133,1.133,0,0,1,.379.91V9.7a1.667,1.667,0,0,0,.139.751V10.5Zm-.77-.648a.8.8,0,0,0,.38-.092.6.6,0,0,0,.258-.247v-.6h-.348q-.7,0-.744.483l0,.055a.373.373,0,0,0,.122.287A.476.476,0,0,0,44.244,9.857Zm3.738-.039a.611.611,0,0,0,.419-.142.5.5,0,0,0,.168-.377h.873a1.2,1.2,0,0,1-.193.649,1.276,1.276,0,0,1-.52.458,1.629,1.629,0,0,1-.73.163,1.514,1.514,0,0,1-1.179-.475,1.881,1.881,0,0,1-.432-1.313V8.719a1.86,1.86,0,0,1,.429-1.286,1.5,1.5,0,0,1,1.176-.48,1.467,1.467,0,0,1,1.049.372,1.318,1.318,0,0,1,.4.991h-.873a.64.64,0,0,0-.168-.442.623.623,0,0,0-.917.067,1.375,1.375,0,0,0-.166.77v.1a1.392,1.392,0,0,0,.164.775A.568.568,0,0,0,47.982,9.818Zm4.012.686a1.034,1.034,0,0,1-.093-.313,1.127,1.127,0,0,1-.88.377,1.238,1.238,0,0,1-.849-.3.954.954,0,0,1-.337-.748.985.985,0,0,1,.411-.851,2.027,2.027,0,0,1,1.188-.3h.429v-.2a.575.575,0,0,0-.124-.387.488.488,0,0,0-.392-.145.555.555,0,0,0-.369.113.383.383,0,0,0-.134.309h-.931A.936.936,0,0,1,50.1,7.5a1.236,1.236,0,0,1,.529-.4,1.926,1.926,0,0,1,.767-.147,1.522,1.522,0,0,1,1.023.324,1.133,1.133,0,0,1,.379.91V9.7a1.667,1.667,0,0,0,.139.751V10.5Zm-.77-.648a.8.8,0,0,0,.38-.092.6.6,0,0,0,.258-.247v-.6h-.348q-.7,0-.744.483l0,.055a.373.373,0,0,0,.122.287A.476.476,0,0,0,51.224,9.857Z" transform="translate(-69.276 215.092)" fill="#12263f"/>
        <path id="Trazado_1284621" data-name="Trazado 1284621" d="M39.692,6.418H38.255v3.909h-.967V6.418H35.87V5.635h3.822Zm1.473,3.909h-.935V6.84h.935Zm-.989-4.389a.459.459,0,0,1,.14-.345.6.6,0,0,1,.762,0,.492.492,0,0,1,0,.693.6.6,0,0,1-.757,0A.457.457,0,0,1,40.176,5.938Zm3.361,4.454a1.712,1.712,0,0,1-1.249-.471,1.672,1.672,0,0,1-.482-1.254v-.09a2.106,2.106,0,0,1,.2-.939A1.49,1.49,0,0,1,42.585,7a1.615,1.615,0,0,1,.849-.224,1.447,1.447,0,0,1,1.126.451,1.833,1.833,0,0,1,.411,1.279v.38h-2.22a.865.865,0,0,0,.272.548.823.823,0,0,0,.575.206,1,1,0,0,0,.841-.39l.458.512a1.4,1.4,0,0,1-.567.462A1.861,1.861,0,0,1,43.537,10.391Zm-.106-2.865a.582.582,0,0,0-.45.188.972.972,0,0,0-.221.537h1.3V8.177a.693.693,0,0,0-.168-.481A.6.6,0,0,0,43.431,7.526Zm2.926-.686.029.4a1.217,1.217,0,0,1,1-.467,1.012,1.012,0,0,1,.825.325,1.519,1.519,0,0,1,.277.973v2.253h-.931V8.1a.6.6,0,0,0-.129-.43A.577.577,0,0,0,47,7.533a.641.641,0,0,0-.59.335v2.459H45.48V6.84ZM50.8,10.391a1.712,1.712,0,0,1-1.249-.471,1.672,1.672,0,0,1-.482-1.254v-.09a2.106,2.106,0,0,1,.2-.939A1.49,1.49,0,0,1,49.849,7a1.615,1.615,0,0,1,.849-.224,1.447,1.447,0,0,1,1.126.451,1.833,1.833,0,0,1,.411,1.279v.38h-2.22a.865.865,0,0,0,.272.548.823.823,0,0,0,.575.206,1,1,0,0,0,.841-.39l.458.512a1.4,1.4,0,0,1-.567.462A1.861,1.861,0,0,1,50.8,10.391Zm-.106-2.865a.582.582,0,0,0-.45.188.972.972,0,0,0-.221.537h1.3V8.177a.693.693,0,0,0-.168-.481A.6.6,0,0,0,50.695,7.526Z" transform="translate(11.329 167.332)" fill="#12263f"/>
        <path id="Trazado_1284622" data-name="Trazado 1284622" d="M35.248,9.728H37.3V10.5h-3.02V5.813h.967Zm3.635.777h-.967V5.813h.967Zm.9,0V5.813h1.644a2.158,2.158,0,0,1,1.3.327,1.118,1.118,0,0,1,.442.959,1.06,1.06,0,0,1-.177.607,1.024,1.024,0,0,1-.493.385.991.991,0,0,1,.569.364,1.077,1.077,0,0,1,.208.67,1.238,1.238,0,0,1-.432,1.025A1.944,1.944,0,0,1,41.6,10.5Zm.967-2.043V9.728h.828a.8.8,0,0,0,.533-.163.558.558,0,0,0,.192-.45.589.589,0,0,0-.667-.654Zm0-.683h.715q.732-.013.732-.583a.539.539,0,0,0-.185-.459.975.975,0,0,0-.585-.14h-.677Zm4.982,1.009h-.77V10.5h-.967V5.813h1.743a1.971,1.971,0,0,1,1.283.371,1.279,1.279,0,0,1,.451,1.047,1.444,1.444,0,0,1-.208.8,1.418,1.418,0,0,1-.63.511l1.015,1.917V10.5H46.607ZM44.957,8h.78a.8.8,0,0,0,.564-.185.662.662,0,0,0,.2-.511.709.709,0,0,0-.189-.522.783.783,0,0,0-.578-.19h-.777Zm7.1.261a2.833,2.833,0,0,1-.245,1.215,1.845,1.845,0,0,1-.7.806,2.071,2.071,0,0,1-2.087,0,1.863,1.863,0,0,1-.709-.8,2.751,2.751,0,0,1-.255-1.2V8.059a2.818,2.818,0,0,1,.25-1.22,1.86,1.86,0,0,1,.706-.809,2.068,2.068,0,0,1,2.085,0,1.86,1.86,0,0,1,.706.809,2.81,2.81,0,0,1,.25,1.217Zm-.98-.213a1.975,1.975,0,0,0-.264-1.121.933.933,0,0,0-1.5,0,1.952,1.952,0,0,0-.267,1.11v.229A2,2,0,0,0,49.3,9.38a.925.925,0,0,0,1.508.015,1.988,1.988,0,0,0,.264-1.113Z" transform="translate(11.905 119.198)" fill="#12263f"/>
        <path id="Trazado_1284623" data-name="Trazado 1284623" d="M17.838,8.573H15.981V9.83H18.16v.777H15.015V5.914h3.139V6.7H15.981V7.815h1.856Zm2.781-2.659h.967V9.163a1.553,1.553,0,0,1-.2.791,1.345,1.345,0,0,1-.559.53,1.747,1.747,0,0,1-.815.187,1.66,1.66,0,0,1-1.16-.379,1.376,1.376,0,0,1-.416-1.072h.973a.754.754,0,0,0,.145.509.58.58,0,0,0,.458.164.554.554,0,0,0,.442-.19.8.8,0,0,0,.164-.541Zm4.618,2.659H23.381V9.83h2.179v.777H22.414V5.914h3.139V6.7H23.381V7.815h1.856ZM27.39,5.914l1.205,3.4,1.2-3.4h1.27v4.692h-.97V9.324l.1-2.214-1.267,3.5H28.26L27,7.113l.1,2.211v1.283h-.967V5.914Zm5.485,3.039v1.653h-.967V5.914h1.83a2.118,2.118,0,0,1,.93.193,1.425,1.425,0,0,1,.617.549,1.532,1.532,0,0,1,.216.81,1.347,1.347,0,0,1-.472,1.088,1.966,1.966,0,0,1-1.307.4Zm0-.783h.864a.849.849,0,0,0,.585-.18.656.656,0,0,0,.2-.516.774.774,0,0,0-.2-.558.758.758,0,0,0-.561-.219h-.886Zm4.257,1.66h2.053v.777h-3.02V5.914h.967Zm5.317-.19h-1.7l-.322.967H39.4L41.15,5.914h.9L43.8,10.606H42.775Zm-1.434-.783h1.173L41.6,7.1Zm4.963.032h-.77v1.718h-.967V5.914h1.743a1.971,1.971,0,0,1,1.283.371,1.279,1.279,0,0,1,.451,1.047,1.444,1.444,0,0,1-.208.8,1.418,1.418,0,0,1-.63.511L47.9,10.561v.045H46.858Zm-.77-.783h.78a.8.8,0,0,0,.564-.185.662.662,0,0,0,.2-.511.709.709,0,0,0-.189-.522.783.783,0,0,0-.578-.19h-.777Z" transform="translate(23.691 214.991)" fill="#12263f"/>
        <path id="Trazado_1284596" data-name="Trazado 1284596" d="M32.425,9.538h-1.7l-.322.967H29.379l1.747-4.692h.9L33.778,10.5H32.75ZM30.99,8.755h1.173L31.574,7Zm6.722-2.942V8.9a1.582,1.582,0,0,1-.482,1.218,1.857,1.857,0,0,1-1.316.448,1.878,1.878,0,0,1-1.305-.435,1.555,1.555,0,0,1-.493-1.2V5.813h.967v3.1a.894.894,0,0,0,.221.672.847.847,0,0,0,.611.211q.815,0,.828-.857V5.813Zm4.325.783H40.6V10.5h-.967V6.6H38.216V5.813h3.822Zm4.315,1.669a2.833,2.833,0,0,1-.245,1.215,1.845,1.845,0,0,1-.7.806,2.071,2.071,0,0,1-2.087,0,1.863,1.863,0,0,1-.709-.8,2.752,2.752,0,0,1-.255-1.2V8.059a2.818,2.818,0,0,1,.25-1.22,1.86,1.86,0,0,1,.706-.809,2.068,2.068,0,0,1,2.085,0,1.86,1.86,0,0,1,.706.809,2.81,2.81,0,0,1,.25,1.217Zm-.98-.213a1.975,1.975,0,0,0-.264-1.121.933.933,0,0,0-1.5,0,1.952,1.952,0,0,0-.267,1.11v.229A2,2,0,0,0,43.6,9.38a.925.925,0,0,0,1.508.015,1.988,1.988,0,0,0,.264-1.113Zm3.419.735h-.77V10.5h-.967V5.813H48.8a1.971,1.971,0,0,1,1.283.371,1.279,1.279,0,0,1,.451,1.047,1.444,1.444,0,0,1-.208.8,1.418,1.418,0,0,1-.63.511L50.71,10.46V10.5H49.672ZM48.022,8h.78a.8.8,0,0,0,.564-.185.662.662,0,0,0,.2-.511.709.709,0,0,0-.189-.522A.783.783,0,0,0,48.8,6.6h-.777Z" transform="translate(-143.108 119.198)" fill="#12263f"/>
        <path id="Trazado_1284624" data-name="Trazado 1284624" d="M25.746,5.813V8.9a1.582,1.582,0,0,1-.482,1.218,1.857,1.857,0,0,1-1.316.448,1.878,1.878,0,0,1-1.305-.435,1.555,1.555,0,0,1-.493-1.2V5.813h.967v3.1a.894.894,0,0,0,.221.672.847.847,0,0,0,.611.211q.815,0,.828-.857V5.813Zm3.226,3.461a.5.5,0,0,0-.193-.421,2.536,2.536,0,0,0-.7-.309,4.935,4.935,0,0,1-.8-.321,1.3,1.3,0,0,1-.8-1.163,1.133,1.133,0,0,1,.214-.678,1.4,1.4,0,0,1,.616-.466,2.317,2.317,0,0,1,.9-.168,2.109,2.109,0,0,1,.9.182,1.427,1.427,0,0,1,.611.514,1.345,1.345,0,0,1,.218.754h-.967a.633.633,0,0,0-.2-.5.835.835,0,0,0-.57-.179.892.892,0,0,0-.551.15.473.473,0,0,0-.2.395.453.453,0,0,0,.23.383,2.6,2.6,0,0,0,.678.29,2.931,2.931,0,0,1,1.2.616,1.226,1.226,0,0,1,.377.915,1.129,1.129,0,0,1-.461.956,2.017,2.017,0,0,1-1.241.346,2.4,2.4,0,0,1-.986-.2,1.56,1.56,0,0,1-.678-.543,1.391,1.391,0,0,1-.234-.8h.97q0,.777.928.777a.9.9,0,0,0,.538-.14A.456.456,0,0,0,28.972,9.274Zm5.176-3.461V8.9a1.582,1.582,0,0,1-.482,1.218,1.857,1.857,0,0,1-1.316.448,1.878,1.878,0,0,1-1.305-.435,1.555,1.555,0,0,1-.493-1.2V5.813h.967v3.1a.894.894,0,0,0,.221.672.847.847,0,0,0,.611.211q.815,0,.828-.857V5.813Zm3.371,3.725h-1.7L35.5,10.5H34.473l1.747-4.692h.9L38.872,10.5H37.844Zm-1.434-.783h1.173L36.667,7Zm4.963.032h-.77V10.5H39.31V5.813h1.743a1.971,1.971,0,0,1,1.283.371,1.279,1.279,0,0,1,.451,1.047,1.444,1.444,0,0,1-.208.8,1.418,1.418,0,0,1-.63.511l1.015,1.917V10.5H41.927ZM40.277,8h.78a.8.8,0,0,0,.564-.185.662.662,0,0,0,.2-.511.709.709,0,0,0-.189-.522.783.783,0,0,0-.578-.19h-.777Zm4.273,2.5h-.967V5.813h.967Zm4.75-2.24a2.833,2.833,0,0,1-.245,1.215,1.845,1.845,0,0,1-.7.806,2.071,2.071,0,0,1-2.087,0,1.863,1.863,0,0,1-.709-.8,2.752,2.752,0,0,1-.255-1.2V8.059a2.818,2.818,0,0,1,.25-1.22,1.86,1.86,0,0,1,.706-.809,2.068,2.068,0,0,1,2.085,0,1.86,1.86,0,0,1,.706.809,2.81,2.81,0,0,1,.25,1.217Zm-.98-.213a1.975,1.975,0,0,0-.264-1.121.933.933,0,0,0-1.5,0,1.952,1.952,0,0,0-.267,1.11v.229a2,2,0,0,0,.264,1.115.925.925,0,0,0,1.508.015,1.988,1.988,0,0,0,.264-1.113Z" transform="translate(-138.685 215.092)" fill="#12263f"/>
        <path id="Trazado_1284597" data-name="Trazado 1284597" d="M7.571,0H46.394a7.571,7.571,0,1,1,0,15.141H7.571A7.571,7.571,0,0,1,7.571,0Z" transform="translate(-208.8 108.941)" fill="#6cb9ff"/>
        <path id="Trazado_1284640" data-name="Trazado 1284640" d="M7.571,0H46.394a7.571,7.571,0,1,1,0,15.141H7.571A7.571,7.571,0,0,1,7.571,0Z" transform="translate(106.835 204.835)" fill="#6cb9ff"/>
        <path id="Trazado_1284598" data-name="Trazado 1284598" d="M7.571,0H46.394a7.571,7.571,0,1,1,0,15.141H7.571A7.571,7.571,0,0,1,7.571,0Z" transform="translate(-208.8 130.682)" fill="#6cb9ff"/>
        <path id="Trazado_1284641" data-name="Trazado 1284641" d="M7.571,0H46.394a7.571,7.571,0,1,1,0,15.141H7.571A7.571,7.571,0,0,1,7.571,0Z" transform="translate(106.835 226.576)" fill="#6cb9ff"/>
        <path id="Trazado_1284599" data-name="Trazado 1284599" d="M26.47,8.637a1.66,1.66,0,0,1-.559,1.192,1.964,1.964,0,0,1-1.329.435,1.766,1.766,0,0,1-1.42-.607,2.491,2.491,0,0,1-.517-1.668V7.7a2.813,2.813,0,0,1,.238-1.192,1.787,1.787,0,0,1,.682-.791,2.13,2.13,0,0,1,2.338.16A1.784,1.784,0,0,1,26.477,7.1H25.51a.98.98,0,0,0-.253-.659.937.937,0,0,0-.662-.2.821.821,0,0,0-.723.346,1.942,1.942,0,0,0-.247,1.075v.354a2.078,2.078,0,0,0,.23,1.112.806.806,0,0,0,.727.351.954.954,0,0,0,.669-.2.924.924,0,0,0,.253-.633Zm.429-.213a2.068,2.068,0,0,1,.2-.925,1.463,1.463,0,0,1,.575-.628,1.678,1.678,0,0,1,.872-.222A1.588,1.588,0,0,1,29.7,7.08a1.733,1.733,0,0,1,.5,1.173l.006.238a1.823,1.823,0,0,1-.448,1.287,1.736,1.736,0,0,1-2.406,0,1.855,1.855,0,0,1-.45-1.315Zm.931.066a1.3,1.3,0,0,0,.187.76.671.671,0,0,0,1.063,0,1.426,1.426,0,0,0,.19-.831,1.29,1.29,0,0,0-.19-.755.618.618,0,0,0-.535-.268.608.608,0,0,0-.529.266A1.45,1.45,0,0,0,27.83,8.49Zm.9-3.24h1.015l-.893,1h-.757Zm1.9,3.181A2.1,2.1,0,0,1,31,7.132a1.187,1.187,0,0,1,1-.483,1.068,1.068,0,0,1,.841.38V5.25h.935V10.2h-.841l-.045-.371a1.1,1.1,0,0,1-.9.435A1.184,1.184,0,0,1,31,9.779,2.169,2.169,0,0,1,30.631,8.431Zm.931.069a1.377,1.377,0,0,0,.171.752.556.556,0,0,0,.5.261.623.623,0,0,0,.609-.365V7.771a.614.614,0,0,0-.6-.365Q31.562,7.406,31.562,8.5Zm3.916,1.7h-.935V6.713h.935Zm-.989-4.389a.459.459,0,0,1,.14-.345.6.6,0,0,1,.762,0,.492.492,0,0,1,0,.693.6.6,0,0,1-.757,0A.457.457,0,0,1,34.488,5.811Zm1.621,2.62a2.044,2.044,0,0,1,.382-1.292,1.237,1.237,0,0,1,1.03-.49,1.085,1.085,0,0,1,.893.393l.039-.329H39.3v3.371a1.49,1.49,0,0,1-.208.8,1.335,1.335,0,0,1-.585.516,2.056,2.056,0,0,1-.883.177,1.912,1.912,0,0,1-.748-.153,1.327,1.327,0,0,1-.551-.395l.412-.567a1.091,1.091,0,0,0,.844.39.8.8,0,0,0,.577-.2.743.743,0,0,0,.206-.562V9.9a1.077,1.077,0,0,1-.848.364A1.234,1.234,0,0,1,36.5,9.773a2.043,2.043,0,0,1-.388-1.3Zm.931.069a1.272,1.272,0,0,0,.19.744.6.6,0,0,0,.522.269.647.647,0,0,0,.609-.32V7.726a.645.645,0,0,0-.6-.32.609.609,0,0,0-.527.274A1.434,1.434,0,0,0,37.041,8.5Zm2.826-.076a2.068,2.068,0,0,1,.2-.925,1.463,1.463,0,0,1,.575-.628,1.678,1.678,0,0,1,.872-.222,1.588,1.588,0,0,1,1.152.432,1.733,1.733,0,0,1,.5,1.173l.006.238a1.823,1.823,0,0,1-.448,1.287,1.736,1.736,0,0,1-2.406,0,1.855,1.855,0,0,1-.45-1.315Zm.931.066a1.3,1.3,0,0,0,.187.76.671.671,0,0,0,1.063,0,1.426,1.426,0,0,0,.19-.831,1.29,1.29,0,0,0-.19-.755.618.618,0,0,0-.535-.268.608.608,0,0,0-.529.266A1.45,1.45,0,0,0,40.8,8.49Z" transform="translate(-214.5 108.835)" fill="#12263f"/>
        <path id="Trazado_1284646" data-name="Trazado 1284646" d="M26.47,8.637a1.66,1.66,0,0,1-.559,1.192,1.964,1.964,0,0,1-1.329.435,1.766,1.766,0,0,1-1.42-.607,2.491,2.491,0,0,1-.517-1.668V7.7a2.813,2.813,0,0,1,.238-1.192,1.787,1.787,0,0,1,.682-.791,2.13,2.13,0,0,1,2.338.16A1.784,1.784,0,0,1,26.477,7.1H25.51a.98.98,0,0,0-.253-.659.937.937,0,0,0-.662-.2.821.821,0,0,0-.723.346,1.942,1.942,0,0,0-.247,1.075v.354a2.078,2.078,0,0,0,.23,1.112.806.806,0,0,0,.727.351.954.954,0,0,0,.669-.2.924.924,0,0,0,.253-.633Zm.429-.213a2.068,2.068,0,0,1,.2-.925,1.463,1.463,0,0,1,.575-.628,1.678,1.678,0,0,1,.872-.222A1.588,1.588,0,0,1,29.7,7.08a1.733,1.733,0,0,1,.5,1.173l.006.238a1.823,1.823,0,0,1-.448,1.287,1.736,1.736,0,0,1-2.406,0,1.855,1.855,0,0,1-.45-1.315Zm.931.066a1.3,1.3,0,0,0,.187.76.671.671,0,0,0,1.063,0,1.426,1.426,0,0,0,.19-.831,1.29,1.29,0,0,0-.19-.755.618.618,0,0,0-.535-.268.608.608,0,0,0-.529.266A1.45,1.45,0,0,0,27.83,8.49Zm.9-3.24h1.015l-.893,1h-.757Zm1.9,3.181A2.1,2.1,0,0,1,31,7.132a1.187,1.187,0,0,1,1-.483,1.068,1.068,0,0,1,.841.38V5.25h.935V10.2h-.841l-.045-.371a1.1,1.1,0,0,1-.9.435A1.184,1.184,0,0,1,31,9.779,2.169,2.169,0,0,1,30.631,8.431Zm.931.069a1.377,1.377,0,0,0,.171.752.556.556,0,0,0,.5.261.623.623,0,0,0,.609-.365V7.771a.614.614,0,0,0-.6-.365Q31.562,7.406,31.562,8.5Zm3.916,1.7h-.935V6.713h.935Zm-.989-4.389a.459.459,0,0,1,.14-.345.6.6,0,0,1,.762,0,.492.492,0,0,1,0,.693.6.6,0,0,1-.757,0A.457.457,0,0,1,34.488,5.811Zm1.621,2.62a2.044,2.044,0,0,1,.382-1.292,1.237,1.237,0,0,1,1.03-.49,1.085,1.085,0,0,1,.893.393l.039-.329H39.3v3.371a1.49,1.49,0,0,1-.208.8,1.335,1.335,0,0,1-.585.516,2.056,2.056,0,0,1-.883.177,1.912,1.912,0,0,1-.748-.153,1.327,1.327,0,0,1-.551-.395l.412-.567a1.091,1.091,0,0,0,.844.39.8.8,0,0,0,.577-.2.743.743,0,0,0,.206-.562V9.9a1.077,1.077,0,0,1-.848.364A1.234,1.234,0,0,1,36.5,9.773a2.043,2.043,0,0,1-.388-1.3Zm.931.069a1.272,1.272,0,0,0,.19.744.6.6,0,0,0,.522.269.647.647,0,0,0,.609-.32V7.726a.645.645,0,0,0-.6-.32.609.609,0,0,0-.527.274A1.434,1.434,0,0,0,37.041,8.5Zm2.826-.076a2.068,2.068,0,0,1,.2-.925,1.463,1.463,0,0,1,.575-.628,1.678,1.678,0,0,1,.872-.222,1.588,1.588,0,0,1,1.152.432,1.733,1.733,0,0,1,.5,1.173l.006.238a1.823,1.823,0,0,1-.448,1.287,1.736,1.736,0,0,1-2.406,0,1.855,1.855,0,0,1-.45-1.315Zm.931.066a1.3,1.3,0,0,0,.187.76.671.671,0,0,0,1.063,0,1.426,1.426,0,0,0,.19-.831,1.29,1.29,0,0,0-.19-.755.618.618,0,0,0-.535-.268.608.608,0,0,0-.529.266A1.45,1.45,0,0,0,40.8,8.49Z" transform="translate(101.135 204.729)" fill="#12263f"/>
        <path id="Trazado_1284600" data-name="Trazado 1284600" d="M23.248,10.2h-.967L20.4,7.113V10.2h-.967V5.508H20.4L22.285,8.6V5.508h.964Zm.638-1.776a2.068,2.068,0,0,1,.2-.925,1.463,1.463,0,0,1,.575-.628,1.678,1.678,0,0,1,.872-.222,1.588,1.588,0,0,1,1.152.432,1.733,1.733,0,0,1,.5,1.173l.006.238a1.823,1.823,0,0,1-.448,1.287,1.736,1.736,0,0,1-2.406,0,1.855,1.855,0,0,1-.45-1.315Zm.931.066a1.3,1.3,0,0,0,.187.76.671.671,0,0,0,1.063,0,1.426,1.426,0,0,0,.19-.831,1.29,1.29,0,0,0-.19-.755.618.618,0,0,0-.535-.268A.608.608,0,0,0,25,7.666,1.45,1.45,0,0,0,24.818,8.49Zm3.819-1.777.029.39a1.225,1.225,0,0,1,1-.454.93.93,0,0,1,.925.532,1.2,1.2,0,0,1,1.047-.532,1.04,1.04,0,0,1,.844.33,1.518,1.518,0,0,1,.277.994V10.2h-.935V7.976a.664.664,0,0,0-.116-.433.514.514,0,0,0-.409-.137.581.581,0,0,0-.58.4l0,2.394h-.931V7.98a.656.656,0,0,0-.119-.438.519.519,0,0,0-.406-.135.6.6,0,0,0-.574.329V10.2h-.931V6.713Zm7.983,1.776A2.111,2.111,0,0,1,36.261,9.8a1.185,1.185,0,0,1-1,.469,1.089,1.089,0,0,1-.906-.435l-.042.371h-.838V5.25h.931V7.026a1.061,1.061,0,0,1,.848-.377,1.2,1.2,0,0,1,1,.469,2.114,2.114,0,0,1,.363,1.32Zm-.931-.068a1.387,1.387,0,0,0-.168-.772.567.567,0,0,0-.5-.243.614.614,0,0,0-.612.364V9.146a.623.623,0,0,0,.619.367.575.575,0,0,0,.593-.445A2.294,2.294,0,0,0,35.688,8.421Zm3.464-.835a2.53,2.53,0,0,0-.335-.026.682.682,0,0,0-.693.358V10.2h-.931V6.713h.88l.026.416a.863.863,0,0,1,.777-.48.976.976,0,0,1,.29.042ZM41.2,10.264a1.712,1.712,0,0,1-1.249-.471,1.672,1.672,0,0,1-.482-1.254V8.45a2.106,2.106,0,0,1,.2-.939,1.49,1.49,0,0,1,.575-.638,1.615,1.615,0,0,1,.849-.224,1.447,1.447,0,0,1,1.126.451,1.833,1.833,0,0,1,.411,1.279v.38h-2.22a.865.865,0,0,0,.272.548.823.823,0,0,0,.575.206,1,1,0,0,0,.841-.39l.458.512A1.4,1.4,0,0,1,42,10.1,1.861,1.861,0,0,1,41.2,10.264ZM41.1,7.4a.582.582,0,0,0-.45.188.972.972,0,0,0-.221.537h1.3V8.05a.693.693,0,0,0-.168-.481A.6.6,0,0,0,41.1,7.4Z" transform="translate(-212.535 130.576)" fill="#12263f"/>
        <path id="Trazado_1284647" data-name="Trazado 1284647" d="M3.005,9.423H5.058V10.2H2.038V5.508h.967Zm2.4-1a2.068,2.068,0,0,1,.2-.925,1.463,1.463,0,0,1,.575-.628,1.678,1.678,0,0,1,.872-.222A1.588,1.588,0,0,1,8.2,7.08a1.733,1.733,0,0,1,.5,1.173l.006.238a1.823,1.823,0,0,1-.448,1.287,1.557,1.557,0,0,1-1.2.485,1.565,1.565,0,0,1-1.2-.483,1.855,1.855,0,0,1-.45-1.315Zm.931.066a1.3,1.3,0,0,0,.187.76.671.671,0,0,0,1.063,0,1.426,1.426,0,0,0,.19-.831,1.29,1.29,0,0,0-.19-.755A.618.618,0,0,0,7.053,7.4a.608.608,0,0,0-.529.266A1.45,1.45,0,0,0,6.337,8.49Zm4.4,1.023a.611.611,0,0,0,.419-.142.5.5,0,0,0,.168-.377h.873A1.2,1.2,0,0,1,12,9.644a1.276,1.276,0,0,1-.52.458,1.629,1.629,0,0,1-.73.163A1.514,1.514,0,0,1,9.57,9.789a1.881,1.881,0,0,1-.432-1.313V8.415a1.86,1.86,0,0,1,.429-1.286,1.5,1.5,0,0,1,1.176-.48,1.467,1.467,0,0,1,1.049.372,1.318,1.318,0,0,1,.4.991H11.32a.64.64,0,0,0-.168-.442.623.623,0,0,0-.917.067,1.375,1.375,0,0,0-.166.77v.1a1.392,1.392,0,0,0,.164.775A.568.568,0,0,0,10.733,9.514Zm4.012.686a1.034,1.034,0,0,1-.093-.313,1.127,1.127,0,0,1-.88.377,1.238,1.238,0,0,1-.849-.3.954.954,0,0,1-.337-.748A.985.985,0,0,1,13,8.37a2.027,2.027,0,0,1,1.188-.3h.429v-.2a.575.575,0,0,0-.124-.387.488.488,0,0,0-.392-.145.555.555,0,0,0-.369.113.383.383,0,0,0-.134.309h-.931A.936.936,0,0,1,12.85,7.2a1.236,1.236,0,0,1,.529-.4,1.926,1.926,0,0,1,.767-.147,1.522,1.522,0,0,1,1.023.324,1.133,1.133,0,0,1,.379.91V9.394a1.667,1.667,0,0,0,.139.751V10.2Zm-.77-.648a.8.8,0,0,0,.38-.092.6.6,0,0,0,.258-.247v-.6h-.348q-.7,0-.744.483l0,.055a.373.373,0,0,0,.122.287A.476.476,0,0,0,13.975,9.552Zm3.271.648h-.935V5.25h.935Zm1.75,0h-.935V6.713H19Zm-.989-4.389a.459.459,0,0,1,.14-.345.6.6,0,0,1,.762,0,.492.492,0,0,1,0,.693.6.6,0,0,1-.757,0A.457.457,0,0,1,18.007,5.811Zm2.826,3.638h1.7V10.2H19.644V9.633l1.64-2.169H19.692V6.713h2.794v.549Zm4.309.751a1.034,1.034,0,0,1-.093-.313,1.127,1.127,0,0,1-.88.377,1.238,1.238,0,0,1-.849-.3.954.954,0,0,1-.337-.748.985.985,0,0,1,.411-.851,2.027,2.027,0,0,1,1.188-.3h.429v-.2a.575.575,0,0,0-.124-.387.488.488,0,0,0-.392-.145.555.555,0,0,0-.369.113.383.383,0,0,0-.134.309H23.06a.936.936,0,0,1,.187-.561,1.236,1.236,0,0,1,.529-.4,1.926,1.926,0,0,1,.767-.147,1.522,1.522,0,0,1,1.023.324,1.133,1.133,0,0,1,.379.91V9.394a1.667,1.667,0,0,0,.139.751V10.2Zm-.77-.648a.8.8,0,0,0,.38-.092.6.6,0,0,0,.258-.247v-.6h-.348q-.7,0-.744.483l0,.055a.373.373,0,0,0,.122.287A.476.476,0,0,0,24.371,9.552Zm3.738-.039a.611.611,0,0,0,.419-.142.5.5,0,0,0,.168-.377h.873a1.2,1.2,0,0,1-.193.649,1.276,1.276,0,0,1-.52.458,1.629,1.629,0,0,1-.73.163,1.514,1.514,0,0,1-1.179-.475,1.881,1.881,0,0,1-.432-1.313V8.415a1.86,1.86,0,0,1,.429-1.286,1.5,1.5,0,0,1,1.176-.48,1.467,1.467,0,0,1,1.049.372,1.318,1.318,0,0,1,.4.991H28.7a.64.64,0,0,0-.168-.442.623.623,0,0,0-.917.067,1.375,1.375,0,0,0-.166.77v.1a1.392,1.392,0,0,0,.164.775A.568.568,0,0,0,28.11,9.514Zm2.975.686H30.15V6.713h.935Zm-.989-4.389a.459.459,0,0,1,.14-.345.6.6,0,0,1,.762,0,.492.492,0,0,1,0,.693.6.6,0,0,1-.757,0A.457.457,0,0,1,30.095,5.811Zm1.611,2.614a2.068,2.068,0,0,1,.2-.925,1.463,1.463,0,0,1,.575-.628,1.678,1.678,0,0,1,.872-.222A1.588,1.588,0,0,1,34.5,7.08,1.733,1.733,0,0,1,35,8.254l.006.238a1.823,1.823,0,0,1-.448,1.287,1.736,1.736,0,0,1-2.406,0,1.855,1.855,0,0,1-.45-1.315Zm.931.066a1.3,1.3,0,0,0,.187.76.671.671,0,0,0,1.063,0,1.426,1.426,0,0,0,.19-.831,1.29,1.29,0,0,0-.19-.755.618.618,0,0,0-.535-.268.608.608,0,0,0-.529.266A1.45,1.45,0,0,0,32.637,8.49Zm.9-3.24h1.015l-.893,1H32.9Zm2.9,1.463.029.4a1.217,1.217,0,0,1,1-.467,1.012,1.012,0,0,1,.825.325,1.519,1.519,0,0,1,.277.973V10.2h-.931V7.97a.6.6,0,0,0-.129-.43.577.577,0,0,0-.429-.134.641.641,0,0,0-.59.335V10.2h-.931V6.713Z" transform="translate(113.741 226.471)" fill="#12263f"/>
        <path id="Trazado_1284625" data-name="Trazado 1284625" d="M7.571,0H46.394a7.571,7.571,0,1,1,0,15.141H7.571A7.571,7.571,0,0,1,7.571,0Z" transform="translate(-208.8 204.835)" fill="#6cb9ff"/>
        <path id="Trazado_1284602" data-name="Trazado 1284602" d="M7.571,0H46.394a7.571,7.571,0,1,1,0,15.141H7.571A7.571,7.571,0,0,1,7.571,0Z" transform="translate(-208.8 183.094)" fill="#6cb9ff"/>
        <path id="Trazado_1284626" data-name="Trazado 1284626" d="M7.571,0H46.394a7.571,7.571,0,1,1,0,15.141H7.571A7.571,7.571,0,0,1,7.571,0Z" transform="translate(-208.8 226.576)" fill="#6cb9ff"/>
        <path id="Trazado_1284627" data-name="Trazado 1284627" d="M7.571,0H46.394a7.571,7.571,0,1,1,0,15.141H7.571A7.571,7.571,0,0,1,7.571,0Z" transform="translate(-208.8 248.318)" fill="#6cb9ff"/>
        <path id="Trazado_1284628" data-name="Trazado 1284628" d="M23.248,10.2h-.967L20.4,7.113V10.2h-.967V5.508H20.4L22.285,8.6V5.508h.964Zm.638-1.776a2.068,2.068,0,0,1,.2-.925,1.463,1.463,0,0,1,.575-.628,1.678,1.678,0,0,1,.872-.222,1.588,1.588,0,0,1,1.152.432,1.733,1.733,0,0,1,.5,1.173l.006.238a1.823,1.823,0,0,1-.448,1.287,1.736,1.736,0,0,1-2.406,0,1.855,1.855,0,0,1-.45-1.315Zm.931.066a1.3,1.3,0,0,0,.187.76.671.671,0,0,0,1.063,0,1.426,1.426,0,0,0,.19-.831,1.29,1.29,0,0,0-.19-.755.618.618,0,0,0-.535-.268A.608.608,0,0,0,25,7.666,1.45,1.45,0,0,0,24.818,8.49Zm3.819-1.777.029.39a1.225,1.225,0,0,1,1-.454.93.93,0,0,1,.925.532,1.2,1.2,0,0,1,1.047-.532,1.04,1.04,0,0,1,.844.33,1.518,1.518,0,0,1,.277.994V10.2h-.935V7.976a.664.664,0,0,0-.116-.433.514.514,0,0,0-.409-.137.581.581,0,0,0-.58.4l0,2.394h-.931V7.98a.656.656,0,0,0-.119-.438.519.519,0,0,0-.406-.135.6.6,0,0,0-.574.329V10.2h-.931V6.713Zm7.983,1.776A2.111,2.111,0,0,1,36.261,9.8a1.185,1.185,0,0,1-1,.469,1.089,1.089,0,0,1-.906-.435l-.042.371h-.838V5.25h.931V7.026a1.061,1.061,0,0,1,.848-.377,1.2,1.2,0,0,1,1,.469,2.114,2.114,0,0,1,.363,1.32Zm-.931-.068a1.387,1.387,0,0,0-.168-.772.567.567,0,0,0-.5-.243.614.614,0,0,0-.612.364V9.146a.623.623,0,0,0,.619.367.575.575,0,0,0,.593-.445A2.294,2.294,0,0,0,35.688,8.421Zm3.464-.835a2.53,2.53,0,0,0-.335-.026.682.682,0,0,0-.693.358V10.2h-.931V6.713h.88l.026.416a.863.863,0,0,1,.777-.48.976.976,0,0,1,.29.042ZM41.2,10.264a1.712,1.712,0,0,1-1.249-.471,1.672,1.672,0,0,1-.482-1.254V8.45a2.106,2.106,0,0,1,.2-.939,1.49,1.49,0,0,1,.575-.638,1.615,1.615,0,0,1,.849-.224,1.447,1.447,0,0,1,1.126.451,1.833,1.833,0,0,1,.411,1.279v.38h-2.22a.865.865,0,0,0,.272.548.823.823,0,0,0,.575.206,1,1,0,0,0,.841-.39l.458.512A1.4,1.4,0,0,1,42,10.1,1.861,1.861,0,0,1,41.2,10.264ZM41.1,7.4a.582.582,0,0,0-.45.188.972.972,0,0,0-.221.537h1.3V8.05a.693.693,0,0,0-.168-.481A.6.6,0,0,0,41.1,7.4Z" transform="translate(-212.535 204.729)" fill="#12263f"/>
        <path id="Trazado_1284603" data-name="Trazado 1284603" d="M26.47,8.637a1.66,1.66,0,0,1-.559,1.192,1.964,1.964,0,0,1-1.329.435,1.766,1.766,0,0,1-1.42-.607,2.491,2.491,0,0,1-.517-1.668V7.7a2.813,2.813,0,0,1,.238-1.192,1.787,1.787,0,0,1,.682-.791,2.13,2.13,0,0,1,2.338.16A1.784,1.784,0,0,1,26.477,7.1H25.51a.98.98,0,0,0-.253-.659.937.937,0,0,0-.662-.2.821.821,0,0,0-.723.346,1.942,1.942,0,0,0-.247,1.075v.354a2.078,2.078,0,0,0,.23,1.112.806.806,0,0,0,.727.351.954.954,0,0,0,.669-.2.924.924,0,0,0,.253-.633Zm.429-.213a2.068,2.068,0,0,1,.2-.925,1.463,1.463,0,0,1,.575-.628,1.678,1.678,0,0,1,.872-.222A1.588,1.588,0,0,1,29.7,7.08a1.733,1.733,0,0,1,.5,1.173l.006.238a1.823,1.823,0,0,1-.448,1.287,1.736,1.736,0,0,1-2.406,0,1.855,1.855,0,0,1-.45-1.315Zm.931.066a1.3,1.3,0,0,0,.187.76.671.671,0,0,0,1.063,0,1.426,1.426,0,0,0,.19-.831,1.29,1.29,0,0,0-.19-.755.618.618,0,0,0-.535-.268.608.608,0,0,0-.529.266A1.45,1.45,0,0,0,27.83,8.49Zm.9-3.24h1.015l-.893,1h-.757Zm1.9,3.181A2.1,2.1,0,0,1,31,7.132a1.187,1.187,0,0,1,1-.483,1.068,1.068,0,0,1,.841.38V5.25h.935V10.2h-.841l-.045-.371a1.1,1.1,0,0,1-.9.435A1.184,1.184,0,0,1,31,9.779,2.169,2.169,0,0,1,30.631,8.431Zm.931.069a1.377,1.377,0,0,0,.171.752.556.556,0,0,0,.5.261.623.623,0,0,0,.609-.365V7.771a.614.614,0,0,0-.6-.365Q31.562,7.406,31.562,8.5Zm3.916,1.7h-.935V6.713h.935Zm-.989-4.389a.459.459,0,0,1,.14-.345.6.6,0,0,1,.762,0,.492.492,0,0,1,0,.693.6.6,0,0,1-.757,0A.457.457,0,0,1,34.488,5.811Zm1.621,2.62a2.044,2.044,0,0,1,.382-1.292,1.237,1.237,0,0,1,1.03-.49,1.085,1.085,0,0,1,.893.393l.039-.329H39.3v3.371a1.49,1.49,0,0,1-.208.8,1.335,1.335,0,0,1-.585.516,2.056,2.056,0,0,1-.883.177,1.912,1.912,0,0,1-.748-.153,1.327,1.327,0,0,1-.551-.395l.412-.567a1.091,1.091,0,0,0,.844.39.8.8,0,0,0,.577-.2.743.743,0,0,0,.206-.562V9.9a1.077,1.077,0,0,1-.848.364A1.234,1.234,0,0,1,36.5,9.773a2.043,2.043,0,0,1-.388-1.3Zm.931.069a1.272,1.272,0,0,0,.19.744.6.6,0,0,0,.522.269.647.647,0,0,0,.609-.32V7.726a.645.645,0,0,0-.6-.32.609.609,0,0,0-.527.274A1.434,1.434,0,0,0,37.041,8.5Zm2.826-.076a2.068,2.068,0,0,1,.2-.925,1.463,1.463,0,0,1,.575-.628,1.678,1.678,0,0,1,.872-.222,1.588,1.588,0,0,1,1.152.432,1.733,1.733,0,0,1,.5,1.173l.006.238a1.823,1.823,0,0,1-.448,1.287,1.736,1.736,0,0,1-2.406,0,1.855,1.855,0,0,1-.45-1.315Zm.931.066a1.3,1.3,0,0,0,.187.76.671.671,0,0,0,1.063,0,1.426,1.426,0,0,0,.19-.831,1.29,1.29,0,0,0-.19-.755.618.618,0,0,0-.535-.268.608.608,0,0,0-.529.266A1.45,1.45,0,0,0,40.8,8.49Z" transform="translate(-214.5 182.988)" fill="#12263f"/>
        <path id="Trazado_1284629" data-name="Trazado 1284629" d="M19.034,6.184H17.6v3.909H16.63V6.184H15.212V5.4h3.822Zm2.095,3.974a1.712,1.712,0,0,1-1.249-.471A1.672,1.672,0,0,1,19.4,8.434v-.09a2.106,2.106,0,0,1,.2-.939,1.49,1.49,0,0,1,.575-.638,1.615,1.615,0,0,1,.849-.224,1.447,1.447,0,0,1,1.126.451,1.833,1.833,0,0,1,.411,1.279v.38h-2.22a.865.865,0,0,0,.272.548.823.823,0,0,0,.575.206,1,1,0,0,0,.841-.39l.458.512a1.4,1.4,0,0,1-.567.462A1.861,1.861,0,0,1,21.128,10.158Zm-.106-2.865a.582.582,0,0,0-.45.188.972.972,0,0,0-.221.537h1.3V7.943a.693.693,0,0,0-.168-.481A.6.6,0,0,0,21.022,7.293Zm3.052,2.8h-.935V5.143h.935Zm2.372.064A1.712,1.712,0,0,1,25.2,9.687a1.672,1.672,0,0,1-.482-1.254v-.09a2.106,2.106,0,0,1,.2-.939,1.49,1.49,0,0,1,.575-.638,1.615,1.615,0,0,1,.849-.224,1.447,1.447,0,0,1,1.126.451,1.833,1.833,0,0,1,.411,1.279v.38H25.66a.865.865,0,0,0,.272.548.823.823,0,0,0,.575.206,1,1,0,0,0,.841-.39l.458.512a1.4,1.4,0,0,1-.567.462A1.861,1.861,0,0,1,26.446,10.158ZM26.34,7.293a.582.582,0,0,0-.45.188.972.972,0,0,0-.221.537h1.3V7.943a.693.693,0,0,0-.168-.481A.6.6,0,0,0,26.34,7.293Zm.084-2.15h1.015l-.893,1h-.757Zm2.24,4.95V7.29h-.519V6.606h.519v-.3A1.2,1.2,0,0,1,29,5.4a1.3,1.3,0,0,1,.943-.324,2.177,2.177,0,0,1,.474.064l-.01.722a1.187,1.187,0,0,0-.284-.029q-.525,0-.525.493v.28h.693V7.29H29.6v2.8Zm1.966-1.776a2.068,2.068,0,0,1,.2-.925,1.463,1.463,0,0,1,.575-.628,1.678,1.678,0,0,1,.872-.222,1.588,1.588,0,0,1,1.152.432,1.733,1.733,0,0,1,.5,1.173l.006.238a1.823,1.823,0,0,1-.448,1.287,1.736,1.736,0,0,1-2.406,0,1.855,1.855,0,0,1-.45-1.315Zm.931.066a1.3,1.3,0,0,0,.187.76.671.671,0,0,0,1.063,0A1.426,1.426,0,0,0,33,8.316a1.29,1.29,0,0,0-.19-.755.618.618,0,0,0-.535-.268.608.608,0,0,0-.529.266A1.45,1.45,0,0,0,31.56,8.384Zm3.8-1.777.029.4a1.217,1.217,0,0,1,1-.467,1.012,1.012,0,0,1,.825.325,1.519,1.519,0,0,1,.277.973v2.253h-.931V7.863a.6.6,0,0,0-.129-.43.577.577,0,0,0-.429-.134.641.641,0,0,0-.59.335v2.459h-.931V6.606Zm2.694,1.711a2.068,2.068,0,0,1,.2-.925,1.463,1.463,0,0,1,.575-.628,1.678,1.678,0,0,1,.872-.222,1.588,1.588,0,0,1,1.152.432,1.733,1.733,0,0,1,.5,1.173l.006.238a1.822,1.822,0,0,1-.448,1.287,1.736,1.736,0,0,1-2.406,0,1.855,1.855,0,0,1-.45-1.315Zm.931.066a1.3,1.3,0,0,0,.187.76.671.671,0,0,0,1.063,0,1.426,1.426,0,0,0,.19-.831,1.29,1.29,0,0,0-.19-.755.618.618,0,0,0-.535-.268.608.608,0,0,0-.529.266A1.45,1.45,0,0,0,38.988,8.384Z" transform="translate(-209.953 226.577)" fill="#12263f"/>
        <path id="Trazado_1284630" data-name="Trazado 1284630" d="M13.921,10.2V5.508h1.444a2.193,2.193,0,0,1,1.107.279,1.944,1.944,0,0,1,.762.793,2.445,2.445,0,0,1,.274,1.168v.216a2.452,2.452,0,0,1-.269,1.163,1.927,1.927,0,0,1-.759.79,2.209,2.209,0,0,1-1.105.284Zm.967-3.909V9.423h.467a1.05,1.05,0,0,0,.867-.371,1.675,1.675,0,0,0,.306-1.06V7.744a1.7,1.7,0,0,0-.3-1.084,1.046,1.046,0,0,0-.867-.369ZM19.132,10.2H18.2V6.713h.935Zm-.989-4.389a.459.459,0,0,1,.14-.345.6.6,0,0,1,.762,0,.492.492,0,0,1,0,.693.6.6,0,0,1-.757,0A.457.457,0,0,1,18.143,5.811Zm3.716,1.776a2.53,2.53,0,0,0-.335-.026.682.682,0,0,0-.693.358V10.2H19.9V6.713h.88l.026.416a.863.863,0,0,1,.777-.48.976.976,0,0,1,.29.042Zm2.053,2.678a1.712,1.712,0,0,1-1.249-.471,1.672,1.672,0,0,1-.482-1.254V8.45a2.106,2.106,0,0,1,.2-.939,1.49,1.49,0,0,1,.575-.638,1.615,1.615,0,0,1,.849-.224,1.447,1.447,0,0,1,1.126.451,1.833,1.833,0,0,1,.411,1.279v.38h-2.22a.865.865,0,0,0,.272.548.823.823,0,0,0,.575.206,1,1,0,0,0,.841-.39l.458.512a1.4,1.4,0,0,1-.567.462A1.861,1.861,0,0,1,23.911,10.264ZM23.8,7.4a.582.582,0,0,0-.45.188.972.972,0,0,0-.221.537h1.3V8.05a.693.693,0,0,0-.168-.481A.6.6,0,0,0,23.8,7.4Zm3.519,2.114a.611.611,0,0,0,.419-.142.5.5,0,0,0,.168-.377h.873a1.2,1.2,0,0,1-.193.649,1.276,1.276,0,0,1-.52.458,1.629,1.629,0,0,1-.73.163,1.514,1.514,0,0,1-1.179-.475,1.881,1.881,0,0,1-.432-1.313V8.415a1.86,1.86,0,0,1,.429-1.286,1.5,1.5,0,0,1,1.176-.48,1.467,1.467,0,0,1,1.049.372,1.318,1.318,0,0,1,.4.991H27.91a.64.64,0,0,0-.168-.442.623.623,0,0,0-.917.067,1.375,1.375,0,0,0-.166.77v.1a1.392,1.392,0,0,0,.164.775A.568.568,0,0,0,27.324,9.514Zm3.442,0a.611.611,0,0,0,.419-.142.5.5,0,0,0,.168-.377h.873a1.2,1.2,0,0,1-.193.649,1.276,1.276,0,0,1-.52.458,1.629,1.629,0,0,1-.73.163A1.514,1.514,0,0,1,29.6,9.789a1.881,1.881,0,0,1-.432-1.313V8.415A1.86,1.86,0,0,1,29.6,7.129a1.5,1.5,0,0,1,1.176-.48,1.467,1.467,0,0,1,1.049.372,1.318,1.318,0,0,1,.4.991h-.873a.64.64,0,0,0-.168-.442.623.623,0,0,0-.917.067,1.375,1.375,0,0,0-.166.77v.1a1.392,1.392,0,0,0,.164.775A.568.568,0,0,0,30.766,9.514Zm2.975.686h-.935V6.713h.935Zm-.989-4.389a.459.459,0,0,1,.14-.345.6.6,0,0,1,.762,0,.492.492,0,0,1,0,.693.6.6,0,0,1-.757,0A.457.457,0,0,1,32.751,5.811Zm1.611,2.614a2.068,2.068,0,0,1,.2-.925,1.463,1.463,0,0,1,.575-.628,1.678,1.678,0,0,1,.872-.222,1.588,1.588,0,0,1,1.152.432,1.733,1.733,0,0,1,.5,1.173l.006.238a1.823,1.823,0,0,1-.448,1.287,1.736,1.736,0,0,1-2.406,0,1.855,1.855,0,0,1-.45-1.315Zm.931.066a1.3,1.3,0,0,0,.187.76.671.671,0,0,0,1.063,0,1.426,1.426,0,0,0,.19-.831,1.29,1.29,0,0,0-.19-.755.618.618,0,0,0-.535-.268.608.608,0,0,0-.529.266A1.45,1.45,0,0,0,35.294,8.49Zm.9-3.24h1.015l-.893,1h-.757Zm2.9,1.463.029.4a1.217,1.217,0,0,1,1-.467,1.012,1.012,0,0,1,.825.325,1.519,1.519,0,0,1,.277.973V10.2H40.3V7.97a.6.6,0,0,0-.129-.43.577.577,0,0,0-.429-.134.641.641,0,0,0-.59.335V10.2H38.22V6.713Z" transform="translate(-209.163 247.824)" fill="#12263f"/>
        <path id="Trazado_1284631" data-name="Trazado 1284631" d="M7.571,0H46.394a7.571,7.571,0,1,1,0,15.141H7.571A7.571,7.571,0,0,1,7.571,0Z" transform="translate(-81.459 272)" fill="#6cb9ff"/>
        <path id="Trazado_1284632" data-name="Trazado 1284632" d="M7.571,0H46.394a7.571,7.571,0,1,1,0,15.141H7.571A7.571,7.571,0,0,1,7.571,0Z" transform="translate(-20.506 272)" fill="#6cb9ff"/>
        <path id="Trazado_1284633" data-name="Trazado 1284633" d="M15.544,8.283H13.688V10.2h-.967V5.508h3.055v.783H13.688V7.5h1.856Zm2.336,1.982a1.712,1.712,0,0,1-1.249-.471A1.672,1.672,0,0,1,16.15,8.54V8.45a2.106,2.106,0,0,1,.2-.939,1.49,1.49,0,0,1,.575-.638,1.615,1.615,0,0,1,.849-.224A1.447,1.447,0,0,1,18.9,7.1a1.833,1.833,0,0,1,.411,1.279v.38h-2.22a.865.865,0,0,0,.272.548.823.823,0,0,0,.575.206,1,1,0,0,0,.841-.39l.458.512a1.4,1.4,0,0,1-.567.462A1.861,1.861,0,0,1,17.881,10.264ZM17.775,7.4a.582.582,0,0,0-.45.188.972.972,0,0,0-.221.537h1.3V8.05a.693.693,0,0,0-.168-.481A.6.6,0,0,0,17.775,7.4Zm3.519,2.114a.611.611,0,0,0,.419-.142.5.5,0,0,0,.168-.377h.873a1.2,1.2,0,0,1-.193.649,1.276,1.276,0,0,1-.52.458,1.629,1.629,0,0,1-.73.163,1.514,1.514,0,0,1-1.179-.475A1.881,1.881,0,0,1,19.7,8.476V8.415a1.86,1.86,0,0,1,.429-1.286,1.5,1.5,0,0,1,1.176-.48,1.467,1.467,0,0,1,1.049.372,1.318,1.318,0,0,1,.4.991H21.88a.64.64,0,0,0-.168-.442.623.623,0,0,0-.917.067,1.375,1.375,0,0,0-.166.77v.1a1.392,1.392,0,0,0,.164.775A.568.568,0,0,0,21.294,9.514Zm2.9-2.42a1.162,1.162,0,0,1,.931-.445q1.134,0,1.15,1.318V10.2h-.931V7.992a.648.648,0,0,0-.129-.443.553.553,0,0,0-.429-.143.634.634,0,0,0-.593.316V10.2h-.931V5.25h.931ZM29,10.2a1.034,1.034,0,0,1-.093-.313,1.127,1.127,0,0,1-.88.377,1.238,1.238,0,0,1-.849-.3.954.954,0,0,1-.337-.748.985.985,0,0,1,.411-.851,2.027,2.027,0,0,1,1.188-.3h.429v-.2a.575.575,0,0,0-.124-.387.488.488,0,0,0-.392-.145.555.555,0,0,0-.369.113.383.383,0,0,0-.134.309h-.931A.936.936,0,0,1,27.1,7.2a1.236,1.236,0,0,1,.529-.4,1.926,1.926,0,0,1,.767-.147,1.522,1.522,0,0,1,1.023.324,1.133,1.133,0,0,1,.379.91V9.394a1.667,1.667,0,0,0,.139.751V10.2Zm-.77-.648a.8.8,0,0,0,.38-.092.6.6,0,0,0,.258-.247v-.6h-.348q-.7,0-.744.483l0,.055a.373.373,0,0,0,.122.287A.476.476,0,0,0,28.229,9.552Zm2.349.648V5.508h1.444a2.192,2.192,0,0,1,1.107.279,1.944,1.944,0,0,1,.762.793,2.445,2.445,0,0,1,.274,1.168v.216A2.452,2.452,0,0,1,33.9,9.127a1.927,1.927,0,0,1-.759.79,2.209,2.209,0,0,1-1.105.284Zm.967-3.909V9.423h.467a1.05,1.05,0,0,0,.867-.371,1.675,1.675,0,0,0,.306-1.06V7.744a1.7,1.7,0,0,0-.3-1.084,1.046,1.046,0,0,0-.867-.369Zm4.866,3.974a1.712,1.712,0,0,1-1.249-.471,1.672,1.672,0,0,1-.482-1.254V8.45a2.106,2.106,0,0,1,.2-.939,1.49,1.49,0,0,1,.575-.638,1.615,1.615,0,0,1,.849-.224,1.447,1.447,0,0,1,1.126.451,1.833,1.833,0,0,1,.411,1.279v.38h-2.22a.865.865,0,0,0,.272.548.823.823,0,0,0,.575.206,1,1,0,0,0,.841-.39l.458.512a1.4,1.4,0,0,1-.567.462A1.861,1.861,0,0,1,36.411,10.264ZM36.3,7.4a.582.582,0,0,0-.45.188.972.972,0,0,0-.221.537h1.3V8.05a.693.693,0,0,0-.168-.481A.6.6,0,0,0,36.3,7.4Zm3.332,1.663.648-2.349h.973L40.082,10.2h-.889L38.016,6.713h.973Z" transform="translate(-81.088 271.894)" fill="#12263f"/>
        <path id="Trazado_1284634" data-name="Trazado 1284634" d="M9.485,8.283H7.629V10.2H6.662V5.508H9.717v.783H7.629V7.5H9.485Zm2.336,1.982a1.712,1.712,0,0,1-1.249-.471,1.672,1.672,0,0,1-.482-1.254V8.45a2.106,2.106,0,0,1,.2-.939,1.49,1.49,0,0,1,.575-.638,1.615,1.615,0,0,1,.849-.224,1.447,1.447,0,0,1,1.126.451,1.833,1.833,0,0,1,.411,1.279v.38h-2.22a.865.865,0,0,0,.272.548.823.823,0,0,0,.575.206,1,1,0,0,0,.841-.39l.458.512a1.4,1.4,0,0,1-.567.462A1.861,1.861,0,0,1,11.821,10.264ZM11.715,7.4a.582.582,0,0,0-.45.188.972.972,0,0,0-.221.537h1.3V8.05a.693.693,0,0,0-.168-.481A.6.6,0,0,0,11.715,7.4Zm3.519,2.114a.611.611,0,0,0,.419-.142.5.5,0,0,0,.168-.377h.873a1.2,1.2,0,0,1-.193.649,1.276,1.276,0,0,1-.52.458,1.629,1.629,0,0,1-.73.163,1.514,1.514,0,0,1-1.179-.475,1.881,1.881,0,0,1-.432-1.313V8.415a1.86,1.86,0,0,1,.429-1.286,1.5,1.5,0,0,1,1.176-.48,1.467,1.467,0,0,1,1.049.372,1.318,1.318,0,0,1,.4.991h-.873a.64.64,0,0,0-.168-.442.623.623,0,0,0-.917.067,1.375,1.375,0,0,0-.166.77v.1a1.392,1.392,0,0,0,.164.775A.568.568,0,0,0,15.234,9.514Zm2.9-2.42a1.162,1.162,0,0,1,.931-.445q1.134,0,1.15,1.318V10.2h-.931V7.992a.648.648,0,0,0-.129-.443.553.553,0,0,0-.429-.143.634.634,0,0,0-.593.316V10.2H17.2V5.25h.931Zm4.8,3.107a1.034,1.034,0,0,1-.093-.313,1.127,1.127,0,0,1-.88.377,1.238,1.238,0,0,1-.849-.3.954.954,0,0,1-.337-.748.985.985,0,0,1,.411-.851,2.027,2.027,0,0,1,1.188-.3h.429v-.2a.575.575,0,0,0-.124-.387.488.488,0,0,0-.392-.145.555.555,0,0,0-.369.113.383.383,0,0,0-.134.309h-.931a.936.936,0,0,1,.187-.561,1.236,1.236,0,0,1,.529-.4,1.926,1.926,0,0,1,.767-.147,1.522,1.522,0,0,1,1.023.324,1.133,1.133,0,0,1,.379.91V9.394a1.667,1.667,0,0,0,.139.751V10.2Zm-.77-.648a.8.8,0,0,0,.38-.092.6.6,0,0,0,.258-.247v-.6h-.348q-.7,0-.744.483l0,.055a.373.373,0,0,0,.122.287A.476.476,0,0,0,22.169,9.552Zm3.316-1.005V10.2h-.967V5.508h1.83a2.118,2.118,0,0,1,.93.193,1.425,1.425,0,0,1,.617.549,1.532,1.532,0,0,1,.216.81,1.347,1.347,0,0,1-.472,1.088,1.966,1.966,0,0,1-1.307.4Zm0-.783h.864a.849.849,0,0,0,.585-.18.656.656,0,0,0,.2-.516.774.774,0,0,0-.2-.558.758.758,0,0,0-.561-.219h-.886Zm5.188-.177a2.53,2.53,0,0,0-.335-.026.682.682,0,0,0-.693.358V10.2h-.931V6.713h.88l.026.416a.863.863,0,0,1,.777-.48.976.976,0,0,1,.29.042Zm2.053,2.678a1.712,1.712,0,0,1-1.249-.471A1.672,1.672,0,0,1,31,8.54V8.45a2.106,2.106,0,0,1,.2-.939,1.49,1.49,0,0,1,.575-.638,1.615,1.615,0,0,1,.849-.224A1.447,1.447,0,0,1,33.75,7.1a1.833,1.833,0,0,1,.411,1.279v.38H31.94a.865.865,0,0,0,.272.548.823.823,0,0,0,.575.206,1,1,0,0,0,.841-.39l.458.512a1.4,1.4,0,0,1-.567.462A1.861,1.861,0,0,1,32.727,10.264ZM32.62,7.4a.582.582,0,0,0-.45.188.972.972,0,0,0-.221.537h1.3V8.05a.693.693,0,0,0-.168-.481A.6.6,0,0,0,32.62,7.4Zm3.957,1.837a.3.3,0,0,0-.169-.269,1.922,1.922,0,0,0-.543-.176q-1.244-.261-1.244-1.057a.958.958,0,0,1,.385-.775,1.554,1.554,0,0,1,1.007-.311,1.672,1.672,0,0,1,1.062.313.985.985,0,0,1,.4.812h-.931a.451.451,0,0,0-.129-.33.546.546,0,0,0-.4-.131.557.557,0,0,0-.364.106.336.336,0,0,0-.129.271.287.287,0,0,0,.147.25,1.508,1.508,0,0,0,.495.164,4.04,4.04,0,0,1,.587.156.964.964,0,0,1,.738.938.91.91,0,0,1-.409.772,1.765,1.765,0,0,1-1.057.295,1.844,1.844,0,0,1-.778-.156,1.306,1.306,0,0,1-.533-.429,1,1,0,0,1-.193-.588H35.4a.486.486,0,0,0,.184.38.729.729,0,0,0,.458.132.674.674,0,0,0,.4-.1A.316.316,0,0,0,36.578,9.236ZM39.2,5.856v.857h.6V7.4h-.6v1.74a.416.416,0,0,0,.074.277.372.372,0,0,0,.284.084,1.485,1.485,0,0,0,.274-.023v.706a1.917,1.917,0,0,1-.564.084.889.889,0,0,1-1-.989V7.4h-.509V6.713h.509V5.856Z" transform="translate(-16.428 271.894)" fill="#12263f"/>
      </g>
    </g>
  </g>
</svg>
