<svg xmlns="http://www.w3.org/2000/svg" xmlns:xlink="http://www.w3.org/1999/xlink" width="150" height="150" viewBox="0 0 150 150">
  <defs>
    <clipPath id="clip-path">
      <rect id="Rectángulo_454829" data-name="Rectángulo 454829" width="150" height="150" fill="#1e535a"/>
    </clipPath>
    <clipPath id="clip-path-2">
      <rect id="Rectángulo_465015" data-name="Rectángulo 465015" width="61.289" height="57.188" fill="#1e535a"/>
    </clipPath>
  </defs>
  <g id="Grupo_1211072" data-name="Grupo 1211072" transform="translate(-186 -4323.945)">
    <g id="Grupo_1177591" data-name="Grupo 1177591" transform="translate(186 4323.945)">
      <g id="Grupo_1177589" data-name="Grupo 1177589" transform="translate(0 0)">
        <g id="Grupo_1177587" data-name="Grupo 1177587" clip-path="url(#clip-path)">
          <path id="Trazado_997422" data-name="Trazado 997422" d="M143.876,66.392A68.963,68.963,0,0,0,128.3,30.506a7.931,7.931,0,0,0-11.16-10.685A68.861,68.861,0,0,0,81.486,5.891,7.933,7.933,0,0,0,66.079,6.2,68.956,68.956,0,0,0,31.872,20.827,7.935,7.935,0,0,0,20.859,31.915,68.9,68.9,0,0,0,6.425,66.324a7.938,7.938,0,0,0-.19,15.546,68.878,68.878,0,0,0,13.982,35.106A7.934,7.934,0,0,0,31,128.179,68.951,68.951,0,0,0,66.016,143.5a7.935,7.935,0,0,0,15.546.313,68.892,68.892,0,0,0,35.914-14.188,7.933,7.933,0,0,0,11.1-10.74A68.98,68.98,0,0,0,144.062,81.8a7.935,7.935,0,0,0-.186-15.4M121.469,34.413a7.89,7.89,0,0,0,4.394-1.33,65.489,65.489,0,0,1,14.453,33.289,7.946,7.946,0,0,0-5.071,3.674l-20.281-7.6c.016-.222.032-.447.032-.677a7.935,7.935,0,0,0-3.361-6.484l8.871-20.93a8.6,8.6,0,0,0,.962.063m-4.287-1.263-8.816,20.791a7.853,7.853,0,0,0-8.741,5.047L62.936,50.537a7.72,7.72,0,0,0-.166-1.58l52.065-18.131a7.961,7.961,0,0,0,2.348,2.324M73.822,15.882a7.941,7.941,0,0,0,7.795-6.441,65.381,65.381,0,0,1,33.059,12.929,7.9,7.9,0,0,0-1.148,4.1,8.337,8.337,0,0,0,.075,1.049L61.277,45.739A7.965,7.965,0,0,0,59.84,44.3L73.565,15.87c.087,0,.17.012.257.012M66.1,9.754a7.943,7.943,0,0,0,3.994,5.2L56.637,42.817A7.963,7.963,0,0,0,55,42.647a7.883,7.883,0,0,0-4.525,1.421L34.524,30.747a7.894,7.894,0,0,0-.269-7.308A65.433,65.433,0,0,1,66.1,9.754M15.688,72.393,48.676,55.378a7.912,7.912,0,0,0,6.259,3.147L66.241,94.665a8.071,8.071,0,0,0-1.75,1.936l-48.9-20.376a7.888,7.888,0,0,0,.293-2.106,7.98,7.98,0,0,0-.194-1.726m7.791-38.111a7.935,7.935,0,0,0,8.864-.756L48.091,46.677a7.919,7.919,0,0,0-.875,5.487L14.172,69.2a7.939,7.939,0,0,0-4.2-2.755A65.4,65.4,0,0,1,23.479,34.282m3.286,79.246a7.918,7.918,0,0,0-3.943,1.053A65.346,65.346,0,0,1,9.786,81.835a7.948,7.948,0,0,0,4.121-2.486L63.3,99.926a8.514,8.514,0,0,0-.063.954,7.939,7.939,0,0,0,.475,2.684L33.839,117.875a7.94,7.94,0,0,0-7.074-4.347M66.17,139.96a65.5,65.5,0,0,1-32.675-14.295,7.858,7.858,0,0,0,1.211-4.2l0-.091,30.926-14.821a7.941,7.941,0,0,0,2.8,1.77l1.853,26.63a7.941,7.941,0,0,0-4.113,5m3.29-46.828L58.4,57.758a7.952,7.952,0,0,0,3.773-3.773L99.154,62.5a7.894,7.894,0,0,0,1.263,3.61L75.049,93.952a7.843,7.843,0,0,0-5.59-.819m12.094,47.136a7.938,7.938,0,0,0-7.731-6.152l-.059,0L72,108.782a7.927,7.927,0,0,0,4.853-2.355l36.978,16.31c0,.071-.012.135-.012.206A7.9,7.9,0,0,0,115,127.083a65.377,65.377,0,0,1-33.443,13.186m33.17-21-36.016-15.89a7.894,7.894,0,0,0-1.041-7.062l25.292-27.762a7.894,7.894,0,0,0,4.1,1.148,8.74,8.74,0,0,0,.974-.063l9.453,46.618a7.923,7.923,0,0,0-2.759,3.013m11.393-2.969a7.893,7.893,0,0,0-5.277-1.247l-9.457-46.638a7.973,7.973,0,0,0,2.5-2.613l20.269,7.6a7.042,7.042,0,0,0-.036.713A7.938,7.938,0,0,0,140.5,81.9a65.431,65.431,0,0,1-14.382,34.4" transform="translate(0 0.002)" fill="#1e535a"/>
        </g>
      </g>
    </g>
    <g id="Elipse_13614" data-name="Elipse 13614" transform="translate(210.273 4348.213)" fill="#fff" stroke="#1e535a" stroke-width="3">
      <ellipse cx="50.732" cy="50.733" rx="50.732" ry="50.733" stroke="none"/>
      <ellipse cx="50.732" cy="50.733" rx="49.232" ry="49.233" fill="none"/>
    </g>
    <g id="Grupo_1212115" data-name="Grupo 1212115" transform="translate(230.36 4370.352)">
      <g id="Grupo_1212114" data-name="Grupo 1212114" clip-path="url(#clip-path-2)">
        <path id="Trazado_1284286" data-name="Trazado 1284286" d="M108.768,148.689c.09,2.658.078,5.307.031,8.023a4.734,4.734,0,0,1-4.926,4.669h-35.6a4.739,4.739,0,0,1-4.9-4.754l-.013-23.6a3.989,3.989,0,0,1,3.931-4.119l6.911-.016a3.739,3.739,0,0,1,2.591,1.1l5.378,5.181a2.666,2.666,0,0,0,1.816.823L99.424,136a8.254,8.254,0,0,0,9.344,12.691M78.028,150.1a.849.849,0,0,0,.912-.928.859.859,0,0,0-.794-.787l-8.315-.016a.9.9,0,0,0-.961.8.849.849,0,0,0,.92.931Zm25.294,4.185-34.447,0v1.7l34.447,0Z" transform="translate(-51.223 -104.193)" fill="#1e535a"/>
        <path id="Trazado_1284287" data-name="Trazado 1284287" d="M265.217,164.368a6.478,6.478,0,1,1-6.478-6.478,6.478,6.478,0,0,1,6.478,6.478m-8.4,3.4c.3.263.84.03,1.033-.165l5.341-5.373a.855.855,0,0,0-.183-1.211.88.88,0,0,0-1.112.115l-4.648,4.62-1.693-1.607a.843.843,0,0,0-1.26,1.114,35.131,35.131,0,0,0,2.522,2.507" transform="translate(-203.928 -127.638)" fill="#1e535a"/>
        <path id="Trazado_1284288" data-name="Trazado 1284288" d="M140.261,64.977c-.727-.213-1.208-.976-1.635-1.487l17.568-.036A.793.793,0,0,0,157,62.64a.776.776,0,0,0-.763-.868l-18.008-.007a1.379,1.379,0,0,0-.954.5,38.131,38.131,0,0,0-4.194-3.767l.009-14.329c0-.641.507-.96,1.117-.96l18.426.008.058,6.384a2.4,2.4,0,0,0,2.2,2.236l6.365.009.005,11.661a9.589,9.589,0,0,0-3.711,1.505Zm9.482-14.129c.555,0,.742-.7.677-.982a.9.9,0,0,0-.9-.7H138.233a.854.854,0,0,0-.893.84.841.841,0,0,0,.9.87Zm6.554,4.217c.644,0,.729-.7.69-1.014-.056-.441-.4-.681-.954-.681l-17.777,0a.828.828,0,0,0-.912.846.847.847,0,0,0,.894.86Zm-18.96,4.218h19.678V57.552H137.338Z" transform="translate(-107.584 -34.932)" fill="#1e535a"/>
        <path id="Trazado_1284289" data-name="Trazado 1284289" d="M72.362,11.019l-.011,13.666-7.421-.01L60.2,14.28a.885.885,0,0,1,.533-1.2L84.773,2.114a.93.93,0,0,1,1.069.519L88.4,8.264l-13.372.028a2.618,2.618,0,0,0-2.664,2.727" transform="translate(-48.598 -1.699)" fill="#1e535a"/>
        <path id="Trazado_1284290" data-name="Trazado 1284290" d="M10.02,13.272,14.526,23.2c-2.984.981-4.411,3.614-4.134,6.963L.332,21.554a.912.912,0,0,1-.077-1.34L17.3.495c.415-.48.954-.7,1.477-.246l4.681,4.058L11.367,9.843a2.548,2.548,0,0,0-1.347,3.43" transform="translate(0.001 -0.001)" fill="#1e535a"/>
        <path id="Trazado_1284291" data-name="Trazado 1284291" d="M244.907,52.781a.75.75,0,0,1-.71-.8c.053-1.841-.093-3.576.081-5.469l6.21,6.2c-1.886.16-3.684.02-5.58.072" transform="translate(-197.403 -37.599)" fill="#1e535a"/>
      </g>
    </g>
  </g>
</svg>
