<svg xmlns="http://www.w3.org/2000/svg" xmlns:xlink="http://www.w3.org/1999/xlink" width="396" height="231" viewBox="0 0 396 231">
  <defs>
    <clipPath id="clip-path">
      <rect id="Rectángulo_464709" data-name="Rectángulo 464709" width="374.74" height="230.633" fill="none"/>
    </clipPath>
    <clipPath id="clip-path-3">
      <rect id="Rectángulo_464701" data-name="Rectángulo 464701" width="34.803" height="94.355" fill="none"/>
    </clipPath>
    <clipPath id="clip-path-4">
      <rect id="Rectángulo_464702" data-name="Rectángulo 464702" width="82.472" height="23.694" fill="none"/>
    </clipPath>
    <clipPath id="clip-path-5">
      <rect id="Rectángulo_464703" data-name="Rectángulo 464703" width="22.46" height="50.597" fill="none"/>
    </clipPath>
    <clipPath id="clip-path-6">
      <rect id="Rectángulo_464705" data-name="Rectángulo 464705" width="110.761" height="110.762" fill="none"/>
    </clipPath>
    <clipPath id="clip-path-7">
      <rect id="Rectángulo_464706" data-name="Rectángulo 464706" width="143.957" height="12.535" fill="#ffd453"/>
    </clipPath>
    <clipPath id="clip-path-8">
      <rect id="Rectángulo_464707" data-name="Rectángulo 464707" width="73.555" height="62.171" fill="#ffd453"/>
    </clipPath>
  </defs>
  <g id="Grupo_1211929" data-name="Grupo 1211929" transform="translate(-913.711 -7190)">
    <rect id="Rectángulo_464443" data-name="Rectángulo 464443" width="396" height="231" transform="translate(913.711 7190)" fill="none"/>
    <g id="Grupo_1211928" data-name="Grupo 1211928" transform="translate(924.711 7190)">
      <g id="Grupo_1211927" data-name="Grupo 1211927" clip-path="url(#clip-path)">
        <g id="Grupo_1211926" data-name="Grupo 1211926">
          <g id="Grupo_1211925" data-name="Grupo 1211925" clip-path="url(#clip-path)">
            <path id="Trazado_1274439" data-name="Trazado 1274439" d="M363.007,218.952c17.714-15.439,2.03-36.87-11.089-33.509s-30.253-25.67-19.62-52.244-11.837-69.22-53.747-79.146C227.138,41.876,185.3,75.14,147.48,53.9,94.12,23.927,58.017,69.272,63.051,116.366S58.9,156.857,39.13,167.331,4.6,192.161,16.4,209.708c0,0-13.58-2.8-12.99,9.244Z" transform="translate(0.891 -6.232)" fill="#fff7df"/>
            <path id="Trazado_1274440" data-name="Trazado 1274440" d="M218.47,100.087a326.411,326.411,0,0,0-72.634,107.4L187.867,226.4l36.019-122.575Z" transform="translate(25.547 -14.089)" fill="#fec02d"/>
            <path id="Trazado_1274441" data-name="Trazado 1274441" d="M78.841,88.551,51.9,96.973a142.256,142.256,0,0,0-14.151,29.3c-11.658,33.6-7.919,64.341-6.862,73.03,0,0,.018.149,3.415,25.481H157.5A195.323,195.323,0,0,0,155.663,188c-2.572-17.663-4.958-34.062-15.644-52.071-4.345-7.323-19.463-30.757-48.454-43.024a95.608,95.608,0,0,0-12.724-4.355" transform="translate(191.726 -12.465)" fill="#fec02d"/>
            <path id="Trazado_1274442" data-name="Trazado 1274442" d="M153.57,148.25a277.838,277.838,0,0,1-56.544,11.834,277.772,277.772,0,0,1-54.279.229q-.643,5.287-1.285,10.572a333.53,333.53,0,0,0,56.156-.162,333.475,333.475,0,0,0,61.118-11.155L153.57,148.25" transform="translate(180.381 -20.869)" fill="#ff7129"/>
            <g id="Grupo_1211909" data-name="Grupo 1211909" transform="translate(212.232 117.959)" opacity="0.5">
              <g id="Grupo_1211908" data-name="Grupo 1211908">
                <g id="Grupo_1211907" data-name="Grupo 1211907" clip-path="url(#clip-path-3)">
                  <path id="Trazado_1274443" data-name="Trazado 1274443" d="M154.73,137.284l-6.1,1.362,22.222,92.994h12.582Z" transform="translate(-148.627 -137.284)" fill="#e8a600"/>
                </g>
              </g>
            </g>
            <path id="Trazado_1274444" data-name="Trazado 1274444" d="M142.862,224.956l-5.227-1.627-11.979,6.193-3.021-7.326,15.2-5.847,6.207,2.909Z" transform="translate(125.323 -30.455)" fill="#e8a600"/>
            <g id="Grupo_1211912" data-name="Grupo 1211912" transform="translate(266.948 182.654)" opacity="0.5">
              <g id="Grupo_1211911" data-name="Grupo 1211911">
                <g id="Grupo_1211910" data-name="Grupo 1211910" clip-path="url(#clip-path-4)">
                  <path id="Trazado_1274445" data-name="Trazado 1274445" d="M111.941,228.316a266.274,266.274,0,0,1-43.4,7.112,266.225,266.225,0,0,1-39.068.244V221.666l81.343-9.087Z" transform="translate(-29.468 -212.579)" fill="#e8a600"/>
                </g>
              </g>
            </g>
            <path id="Trazado_1274446" data-name="Trazado 1274446" d="M141.612,103.575h0a14,14,0,0,0,11.43-16.16l-5.09-29.686-27.589,4.729,5.089,29.687a14,14,0,0,0,16.16,11.43" transform="translate(118.075 -8.126)" fill="#f7a99c"/>
            <path id="Trazado_1274447" data-name="Trazado 1274447" d="M135.315,86.085l16.339-12.374a21.383,21.383,0,0,1-5.176,15.2,20.574,20.574,0,0,1-9.644,5.972Z" transform="translate(106.787 -10.376)" fill="#ff7769"/>
            <path id="Trazado_1274448" data-name="Trazado 1274448" d="M111.131,46.259c.009-.463,1.071-1.347,1.393-1.644a8.654,8.654,0,0,1,1.806-1.273,8.142,8.142,0,0,1,4.168-.954,7.545,7.545,0,0,1,6.655,4.778,8.557,8.557,0,0,1,.033,4.995,12.565,12.565,0,0,1-4.073,6.3,13.685,13.685,0,0,1-5.6,2.78,34.667,34.667,0,0,1-4.66.575q.142-7.781.283-15.562" transform="translate(153.954 -5.966)" fill="#f7a99c"/>
            <path id="Trazado_1274449" data-name="Trazado 1274449" d="M176.916,41.744A35.918,35.918,0,0,1,168,66.124c-1.672,1.859-12.788,14.221-25.444,11.359-16.263-3.678-18.974-28.856-19.1-30.222-.437-4.619-1.727-18.226,8.131-27.336,8.046-7.434,18.252-7.009,19.7-6.925a28.033,28.033,0,0,1,18.634,8.978c6.656,7.415,6.892,16.049,6.993,19.765" transform="translate(91.998 -1.825)" fill="#f7a99c"/>
            <path id="Trazado_1274450" data-name="Trazado 1274450" d="M181.306,50.579c.1,1.986-1.154,3.66-2.793,3.74s-3.047-1.466-3.143-3.451,1.154-3.66,2.793-3.74,3.046,1.465,3.143,3.451" transform="translate(42.751 -6.634)" fill="#262626"/>
            <path id="Trazado_1274451" data-name="Trazado 1274451" d="M169.152,53.451l-2.048,4.1a1.432,1.432,0,0,0,.759,1.974l2.727,1.068" transform="translate(60.7 -7.524)" fill="none" stroke="#262626" stroke-linecap="round" stroke-linejoin="round" stroke-width="1.705"/>
            <path id="Trazado_1274452" data-name="Trazado 1274452" d="M153.91,58.954a4.039,4.039,0,1,1-4.231-3.838,4.04,4.04,0,0,1,4.231,3.838" transform="translate(95.518 -7.758)" fill="#ff7769"/>
            <path id="Trazado_1274453" data-name="Trazado 1274453" d="M116.988,56.721a7.489,7.489,0,0,1,1.355-5.941,7.3,7.3,0,0,1,4.3-2.6" transform="translate(151.694 -6.782)" fill="none" stroke="#262626" stroke-linecap="round" stroke-linejoin="round" stroke-width="1.705"/>
            <path id="Trazado_1274454" data-name="Trazado 1274454" d="M117.066,51.907a3.4,3.4,0,0,1,3.006.465,3.312,3.312,0,0,1,1.238,2.274" transform="translate(152.844 -7.284)" fill="none" stroke="#262626" stroke-linecap="round" stroke-linejoin="round" stroke-width="1.705"/>
            <path id="Trazado_1274455" data-name="Trazado 1274455" d="M179.083,58.366a4.009,4.009,0,0,0-2.067.7,57.858,57.858,0,0,0,2.062,7.344c.133.006.262.027.4.021a4.039,4.039,0,1,0-.393-8.069" transform="translate(39.325 -8.215)" fill="#ff7769"/>
            <path id="Trazado_1274456" data-name="Trazado 1274456" d="M158.6,46.178l-3.362,3.816,4.814,1.7" transform="translate(81.3 -6.5)" fill="none" stroke="#262626" stroke-linecap="round" stroke-linejoin="round" stroke-width="1.705"/>
            <path id="Trazado_1274457" data-name="Trazado 1274457" d="M167.344,70.536l-12.1,1.379c.034-.247.563-3.823,3.436-5.123,2.817-1.274,6.785.137,8.669,3.744" transform="translate(74.01 -9.337)" fill="#fff"/>
            <path id="Trazado_1274458" data-name="Trazado 1274458" d="M186.071,38.117a7.9,7.9,0,0,0-5,6.48c-12.555-1.192-19.8-4.72-24.168-7.9,0,0-.319-.232-9.523-7.224a28.954,28.954,0,0,1-14.853,8.559c-6.6-1.535-11.2-6.465-11.351-11.613-.161-5.421,4.658-9.525,8.078-11.23,5.58-2.783,8.148.464,16.33-1.679,6.6-1.728,6.35-4.21,12.534-5.709,1.869-.453,9.634-2.335,17.436,1.773A23.131,23.131,0,0,1,187.868,28.1a21.807,21.807,0,0,1-1.8,10.02" transform="translate(82.714 -0.983)" fill="#262626"/>
            <path id="Trazado_1274459" data-name="Trazado 1274459" d="M22.813,88.551A115.129,115.129,0,0,1,73.89,114.71S93.334,132.1,106.6,164.359a65.605,65.605,0,0,1,3.94,12.216,73.973,73.973,0,0,1,1.8,13.407,6.8,6.8,0,0,1-4.483,6.662c-2.445.888-5.26,1.877-8.381,2.917-5.78,1.928-18.6,7.179-33.123,9.195-30.284,4.2-47.1,5.254-47.1,5.254l-2.2-52.277,40.03-5.068Z" transform="translate(247.754 -12.465)" fill="#fec02d"/>
            <path id="Trazado_1274460" data-name="Trazado 1274460" d="M169,119.837c-5.029,17.585-8.144,32.307-10.115,43.042" transform="translate(69.214 -16.869)" fill="none" stroke="#262626" stroke-linecap="round" stroke-linejoin="round" stroke-width="1"/>
            <g id="Grupo_1211915" data-name="Grupo 1211915" transform="translate(290.581 99.815)" opacity="0.5">
              <g id="Grupo_1211914" data-name="Grupo 1211914">
                <g id="Grupo_1211913" data-name="Grupo 1211913" clip-path="url(#clip-path-5)">
                  <path id="Trazado_1274461" data-name="Trazado 1274461" d="M71.808,116.168l22.46,50.6H80.673Z" transform="translate(-71.808 -116.168)" fill="#e8a600"/>
                </g>
              </g>
            </g>
            <rect id="Rectángulo_464704" data-name="Rectángulo 464704" width="97.132" height="12.609" transform="translate(241.626 212.315) rotate(-105.818)" fill="#344866"/>
            <path id="Trazado_1274462" data-name="Trazado 1274462" d="M164.007,187.774s-22.762-2.267-25.188-1.518-10.732,5.45-11.906,6.791a4.775,4.775,0,0,0-1.425,3.857c.168,1.257,1.845,2.683,1.845,2.683-1.315,2.047-1.359,3.449-1.079,4.4a9.764,9.764,0,0,0,2.5,3.484,9.9,9.9,0,0,0-.357,2.19,7.912,7.912,0,0,0,.735,4.215,6.97,6.97,0,0,0,4.5,3.18,3.274,3.274,0,0,0,.32,3.494c1.342,1.593,5.367,3.605,10.146,2.933s17.187-6.791,17.187-6.791l3.989,1.248Z" transform="translate(101.67 -26.198)" fill="#f7a99c"/>
            <g id="Grupo_1211918" data-name="Grupo 1211918" transform="translate(148.122 7.197)" opacity="0.5">
              <g id="Grupo_1211917" data-name="Grupo 1211917">
                <g id="Grupo_1211916" data-name="Grupo 1211916" clip-path="url(#clip-path-6)">
                  <path id="Trazado_1274463" data-name="Trazado 1274463" d="M134.837,63.757A55.381,55.381,0,1,0,190.218,8.376a55.381,55.381,0,0,0-55.381,55.381" transform="translate(-134.837 -8.376)" fill="#cdebf5"/>
                </g>
              </g>
            </g>
            <path id="Trazado_1274464" data-name="Trazado 1274464" d="M189.04,0a62.578,62.578,0,1,1-62.578,62.578A62.578,62.578,0,0,1,189.04,0m0,114.938a52.36,52.36,0,1,0-52.36-52.36,52.36,52.36,0,0,0,52.36,52.36" transform="translate(14.462)" fill="#344866"/>
            <path id="Trazado_1274465" data-name="Trazado 1274465" d="M148.164,200.717s8.382-1.563,12.618-3.533a45.615,45.615,0,0,0,5.813-3.054" transform="translate(80.838 -27.327)" fill="none" stroke="#262626" stroke-linecap="round" stroke-linejoin="round" stroke-width="1.5"/>
            <path id="Trazado_1274466" data-name="Trazado 1274466" d="M145.837,209.824s9.715-.972,13.656-3.238a25.834,25.834,0,0,0,5.349-3.744" transform="translate(84.591 -28.554)" fill="none" stroke="#262626" stroke-linecap="round" stroke-linejoin="round" stroke-width="1.5"/>
            <path id="Trazado_1274467" data-name="Trazado 1274467" d="M143.693,220.4a27.48,27.48,0,0,0,9.467-1.987,66.7,66.7,0,0,0,8.176-4.335" transform="translate(89.939 -30.135)" fill="none" stroke="#262626" stroke-linecap="round" stroke-linejoin="round" stroke-width="1.5"/>
            <path id="Trazado_1274468" data-name="Trazado 1274468" d="M128.17,188.025l1.271,30.165-3.989-1.248,1.279-29.057Z" transform="translate(137.507 -26.448)" fill="#ff7769"/>
            <path id="Trazado_1274469" data-name="Trazado 1274469" d="M56.823,119.837s20.88,45.906,20.291,47.088-47.645-.789-47.645-.789l2.2,52.277s36.741-2.323,51.276-5.93,31.141-9.259,31.141-9.259" transform="translate(235.334 -16.869)" fill="none" stroke="#262626" stroke-linecap="round" stroke-linejoin="round" stroke-width="1"/>
            <path id="Trazado_1274470" data-name="Trazado 1274470" d="M238.67,29.122a3.109,3.109,0,0,1-3.929,4.184,21.785,21.785,0,0,0-9.153-1.336,21.1,21.1,0,0,0-7.308,1.87,17.117,17.117,0,0,0-6.917,5.35,16.636,16.636,0,0,0-2.69,11.662,3.11,3.11,0,1,1-6.168.808,22.548,22.548,0,0,1,3.824-16.126,23.173,23.173,0,0,1,9.3-7.324,27.1,27.1,0,0,1,9.5-2.444,28.019,28.019,0,0,1,11.789,1.717,3.094,3.094,0,0,1,1.744,1.639" transform="translate(-38.025 -3.617)" fill="#fff"/>
            <path id="Trazado_1274471" data-name="Trazado 1274471" d="M25.412,114.41a146.8,146.8,0,0,1,26.25,30.8,146.774,146.774,0,0,1,17.1,37.694" transform="translate(284.149 -16.105)" fill="none" stroke="#fff" stroke-linecap="round" stroke-linejoin="round" stroke-width="1"/>
            <path id="Trazado_1274472" data-name="Trazado 1274472" d="M131.2,245.333H224.19a6.567,6.567,0,0,0,6.568-6.567v-4.2H131.2Z" transform="translate(31.255 -33.019)" fill="#014b8f"/>
            <path id="Trazado_1274473" data-name="Trazado 1274473" d="M218.117,233.767H319.572c3.984,0,6.82-3.405,6.333-7.607L318.237,160a8.559,8.559,0,0,0-8.1-7.607H208.686c-3.984,0-6.82,3.406-6.332,7.607l7.668,66.157a8.559,8.559,0,0,0,8.1,7.607" transform="translate(-125.04 -21.453)" fill="#014b8f"/>
            <path id="Trazado_1274474" data-name="Trazado 1274474" d="M229.517,233.767H330.972c3.984,0,6.82-3.405,6.333-7.607L329.637,160a8.559,8.559,0,0,0-8.1-7.607H220.086c-3.984,0-6.82,3.406-6.333,7.607l7.668,66.157a8.559,8.559,0,0,0,8.1,7.607" transform="translate(-146.235 -21.453)" fill="#6cb9ff"/>
            <path id="Trazado_1274475" data-name="Trazado 1274475" d="M258,165.677l7.668,62.745s-.343,7.214,11.478,7.214h66.4A87.959,87.959,0,0,1,258,165.677" transform="translate(-190.481 -23.322)" fill="#399af2"/>
            <path id="Trazado_1274476" data-name="Trazado 1274476" d="M289.843,175.055a87.63,87.63,0,0,0,56.067,57.3" transform="translate(-220.212 -24.642)" fill="none" stroke="#262626" stroke-linecap="round" stroke-linejoin="round" stroke-width="1"/>
            <path id="Trazado_1274477" data-name="Trazado 1274477" d="M283.816,205.1h3.546l-2.26-14.383h-3.546Z" transform="translate(-154.544 -26.847)" fill="#fec02d"/>
            <path id="Trazado_1274478" data-name="Trazado 1274478" d="M288.532,205.83h3.546l-1.558-9.916h-3.547Z" transform="translate(-163.915 -27.578)" fill="#fec02d"/>
            <path id="Trazado_1274479" data-name="Trazado 1274479" d="M130.91,10.285a66.615,66.615,0,0,1,33.5,65.117" transform="translate(97.475 -1.448)" fill="none" stroke="#262626" stroke-linecap="round" stroke-linejoin="round" stroke-width="1"/>
            <line id="Línea_3267" data-name="Línea 3267" y1="14.068" x2="1.995" transform="translate(222.129 169.087)" fill="none" stroke="#262626" stroke-linecap="round" stroke-linejoin="round" stroke-width="1"/>
            <path id="Trazado_1274480" data-name="Trazado 1274480" d="M250.916,179.066H383.842a5.516,5.516,0,0,0,5.515-5.515V76.233a5.516,5.516,0,0,0-5.515-5.515H250.916a5.516,5.516,0,0,0-5.515,5.515v97.317a5.516,5.516,0,0,0,5.515,5.515" transform="translate(-225.474 -9.955)" fill="#fff7df"/>
            <g id="Grupo_1211921" data-name="Grupo 1211921" transform="translate(19.927 60.764)" opacity="0.5">
              <g id="Grupo_1211920" data-name="Grupo 1211920">
                <g id="Grupo_1211919" data-name="Grupo 1211919" clip-path="url(#clip-path-7)">
                  <path id="Trazado_1274481" data-name="Trazado 1274481" d="M245.4,83.254v-7.02a5.516,5.516,0,0,1,5.515-5.515H383.842a5.516,5.516,0,0,1,5.515,5.515v7.02Z" transform="translate(-245.401 -70.719)" fill="#ffd453"/>
                </g>
              </g>
            </g>
            <path id="Trazado_1274482" data-name="Trazado 1274482" d="M250.139,78.5a1.708,1.708,0,1,0,1.707-1.707,1.707,1.707,0,0,0-1.707,1.707" transform="translate(-93.742 -10.81)" fill="#f5f5f5"/>
            <path id="Trazado_1274483" data-name="Trazado 1274483" d="M256.422,78.5a1.707,1.707,0,1,0,1.707-1.707,1.707,1.707,0,0,0-1.707,1.707" transform="translate(-105.422 -10.81)" fill="#f5f5f5"/>
            <path id="Trazado_1274484" data-name="Trazado 1274484" d="M262.843,78.5a1.707,1.707,0,1,0,1.707-1.707,1.707,1.707,0,0,0-1.707,1.707" transform="translate(-117.36 -10.81)" fill="#f5f5f5"/>
            <g id="Grupo_1211924" data-name="Grupo 1211924" transform="translate(51.913 87.846)" opacity="0.5">
              <g id="Grupo_1211923" data-name="Grupo 1211923">
                <g id="Grupo_1211922" data-name="Grupo 1211922" clip-path="url(#clip-path-8)">
                  <path id="Trazado_1274485" data-name="Trazado 1274485" d="M314.542,113.436V106.41a4.172,4.172,0,0,1,4.172-4.172h40.779a4.172,4.172,0,0,1,4.172,4.172v53.827a4.173,4.173,0,0,1-4.172,4.172h-65.21a4.173,4.173,0,0,1-4.172-4.172V117.608a4.172,4.172,0,0,1,4.172-4.172Z" transform="translate(-290.111 -102.238)" fill="#ffd453"/>
                </g>
              </g>
            </g>
            <path id="Trazado_1274486" data-name="Trazado 1274486" d="M322.539,126.69l8.216,8.216,8.215-8.216,4.958,4.958-8.215,8.215,8.215,8.216-4.958,4.958-8.215-8.216-8.216,8.216-4.958-4.958,8.216-8.216-8.216-8.215Z" transform="translate(-242.064 -17.834)" fill="#ffd453"/>
            <path id="Trazado_1274487" data-name="Trazado 1274487" d="M390.261,70.719H257.335a5.516,5.516,0,0,0-5.515,5.515v97.317" transform="translate(-231.893 -9.955)" fill="none" stroke="#262626" stroke-linecap="round" stroke-linejoin="round" stroke-width="0.274"/>
            <path id="Trazado_1274488" data-name="Trazado 1274488" d="M9.159,265.417H365.581a9.159,9.159,0,1,0,0-18.319H9.159a9.159,9.159,0,1,0,0,18.319" transform="translate(0 -34.784)" fill="#69d7e5"/>
          </g>
        </g>
      </g>
    </g>
  </g>
</svg>
