<svg xmlns="http://www.w3.org/2000/svg" xmlns:xlink="http://www.w3.org/1999/xlink" width="128" height="128" viewBox="0 0 128 128">
  <defs>
    <clipPath id="clip-path">
      <rect id="Rectángulo_454829" data-name="Rectángulo 454829" width="128" height="128" fill="#1e535a"/>
    </clipPath>
    <clipPath id="clip-path-2">
      <rect id="Rectángulo_465020" data-name="Rectángulo 465020" width="49.033" height="44.597" fill="#1e535a"/>
    </clipPath>
  </defs>
  <g id="Grupo_1211637" data-name="Grupo 1211637" transform="translate(-186 -4323.945)">
    <g id="Grupo_1177591" data-name="Grupo 1177591" transform="translate(186 4323.945)">
      <g id="Grupo_1177589" data-name="Grupo 1177589" transform="translate(0 0)">
        <g id="Grupo_1177587" data-name="Grupo 1177587" clip-path="url(#clip-path)">
          <path id="Trazado_997422" data-name="Trazado 997422" d="M122.774,56.654a58.848,58.848,0,0,0-13.293-30.623,6.768,6.768,0,0,0-9.523-9.118A58.761,58.761,0,0,0,69.535,5.027a6.769,6.769,0,0,0-13.148.267A58.842,58.842,0,0,0,27.2,17.772a6.771,6.771,0,0,0-9.4,9.462A58.794,58.794,0,0,0,5.483,56.6a6.774,6.774,0,0,0-.162,13.266A58.776,58.776,0,0,0,17.252,99.82a6.771,6.771,0,0,0,9.2,9.56,58.838,58.838,0,0,0,29.883,13.07,6.771,6.771,0,0,0,13.266.267,58.788,58.788,0,0,0,30.646-12.107,6.769,6.769,0,0,0,9.476-9.165A58.863,58.863,0,0,0,122.933,69.8a6.771,6.771,0,0,0-.159-13.144m-19.12-27.288a6.733,6.733,0,0,0,3.75-1.135,55.884,55.884,0,0,1,12.333,28.407,6.781,6.781,0,0,0-4.327,3.135L98.1,53.283c.013-.189.027-.382.027-.578a6.772,6.772,0,0,0-2.868-5.533l7.57-17.86a7.335,7.335,0,0,0,.821.054M100,28.288,92.472,46.03a6.7,6.7,0,0,0-7.459,4.307L53.705,43.125a6.588,6.588,0,0,0-.142-1.348L97.992,26.305a6.793,6.793,0,0,0,2,1.983M63,13.553a6.777,6.777,0,0,0,6.651-5.5A55.792,55.792,0,0,1,97.857,19.09a6.739,6.739,0,0,0-.98,3.5,7.114,7.114,0,0,0,.064.9L52.29,39.031A6.8,6.8,0,0,0,51.064,37.8L62.775,13.543c.074,0,.145.01.22.01M56.4,8.324a6.778,6.778,0,0,0,3.409,4.435L48.331,36.538a6.8,6.8,0,0,0-1.4-.145,6.727,6.727,0,0,0-3.861,1.213L29.461,26.238A6.736,6.736,0,0,0,29.231,20,55.836,55.836,0,0,1,56.4,8.324M13.387,61.776l28.15-14.519a6.751,6.751,0,0,0,5.341,2.686l9.648,30.839a6.887,6.887,0,0,0-1.493,1.652L13.3,65.046a6.731,6.731,0,0,0,.25-1.8,6.81,6.81,0,0,0-.166-1.473m6.648-32.521a6.771,6.771,0,0,0,7.564-.645L41.037,39.831a6.758,6.758,0,0,0-.747,4.682l-28.2,14.539A6.774,6.774,0,0,0,8.506,56.7,55.812,55.812,0,0,1,20.036,29.254m2.8,67.623a6.756,6.756,0,0,0-3.365.9A55.762,55.762,0,0,1,8.351,69.832a6.783,6.783,0,0,0,3.517-2.121L54.013,85.27a7.266,7.266,0,0,0-.054.814,6.775,6.775,0,0,0,.405,2.29L28.876,100.587a6.775,6.775,0,0,0-6.037-3.709m33.626,22.556a55.892,55.892,0,0,1-27.883-12.2,6.705,6.705,0,0,0,1.034-3.581l0-.078L56,90.929a6.776,6.776,0,0,0,2.392,1.51l1.581,22.725a6.776,6.776,0,0,0-3.51,4.27m2.807-39.96L49.831,49.287a6.786,6.786,0,0,0,3.219-3.219l31.562,7.266a6.736,6.736,0,0,0,1.078,3.081L64.042,80.173a6.692,6.692,0,0,0-4.77-.7M69.592,119.7a6.774,6.774,0,0,0-6.6-5.25l-.051,0-1.5-21.623a6.764,6.764,0,0,0,4.142-2.01l31.555,13.918c0,.061-.01.115-.01.176a6.743,6.743,0,0,0,1,3.534A55.789,55.789,0,0,1,69.592,119.7M97.9,101.779,67.164,88.22a6.736,6.736,0,0,0-.888-6.027L87.858,58.5a6.736,6.736,0,0,0,3.5.98,7.46,7.46,0,0,0,.831-.054l8.067,39.781a6.761,6.761,0,0,0-2.355,2.571m9.722-2.534a6.735,6.735,0,0,0-4.5-1.064l-8.07-39.8a6.8,6.8,0,0,0,2.135-2.23l17.3,6.486a6.009,6.009,0,0,0-.03.608,6.774,6.774,0,0,0,5.445,6.641A55.835,55.835,0,0,1,107.62,99.246" transform="translate(0 0.001)" fill="#1e535a"/>
        </g>
      </g>
    </g>
    <g id="Elipse_13614" data-name="Elipse 13614" transform="translate(210.273 4348.213)" fill="#fff" stroke="#1e535a" stroke-width="3">
      <ellipse cx="39.732" cy="39.733" rx="39.732" ry="39.733" stroke="none"/>
      <ellipse cx="39.732" cy="39.733" rx="38.232" ry="38.233" fill="none"/>
    </g>
    <g id="Grupo_1212121" data-name="Grupo 1212121" transform="translate(225.483 4365.647)">
      <g id="Grupo_1212120" data-name="Grupo 1212120" clip-path="url(#clip-path-2)">
        <path id="Trazado_1284306" data-name="Trazado 1284306" d="M13.818,39.5a10.257,10.257,0,0,0,9.019-2.9,10.13,10.13,0,0,0,2.6-9.483l20.405-.014,0-23.34a.555.555,0,0,0-.471-.609l-41.738,0a.512.512,0,0,0-.469.461l0,23.472,2.645.063a10.618,10.618,0,0,0,.49,6.269,18.119,18.119,0,0,1-2.908,0A3.74,3.74,0,0,1,0,29.749V3.772A3.766,3.766,0,0,1,3.855,0h41.3A3.725,3.725,0,0,1,48.99,3.632l.043,25.809a3.8,3.8,0,0,1-3.724,4.01l-13.087.043.018,5.939,6,.049a2.868,2.868,0,0,1,2.821,2.029,10.935,10.935,0,0,1,.031,3.086H7.908a13.1,13.1,0,0,1,.007-2.951,2.782,2.782,0,0,1,2.572-2.123,14.4,14.4,0,0,1,3.332-.02" transform="translate(0 0.001)" fill="#1e535a"/>
        <path id="Trazado_1284307" data-name="Trazado 1284307" d="M54.669,43.975l-.014,9.5a10.146,10.146,0,0,0-13.1,3.3.511.511,0,0,1-.25.2c-.094.03-.357-.076-.357-.268l.02-17.443,8.4-.021.051,2.858c.314,2.7,3,1.607,5.25,1.879m-6.876,1.692a.811.811,0,1,0-.063-1.618L43,44.063a.769.769,0,0,0-.812.911.872.872,0,0,0,.847.7c1.568.035,3.1.045,4.762-.005M50.4,48.634a.772.772,0,0,0,.773-.892.786.786,0,0,0-.857-.728l-7.312.007a.813.813,0,0,0-.838.87.843.843,0,0,0,.838.756Zm-.07,2.983a.791.791,0,0,0,.851-.787A.778.778,0,0,0,50.425,50l-7.525.009a.8.8,0,0,0,.1,1.606Z" transform="translate(-34.283 -32.852)" fill="#1e535a"/>
        <path id="Trazado_1284308" data-name="Trazado 1284308" d="M149.9,37.476a2.335,2.335,0,0,1-.927,2.635,2.2,2.2,0,0,1-2.921-3.208,2.3,2.3,0,0,1,2.757-.636l1.844-1.613a2.25,2.25,0,0,1,1.826-2.911,2.281,2.281,0,0,1,2.532,2.273,2.383,2.383,0,0,0,1.312.658c.6-.593,1.549-.426,2.223-.441a17.647,17.647,0,0,0,2.141-2.137,2.254,2.254,0,0,1,.8-2.737,2.208,2.208,0,0,1,2.75.245,2.174,2.174,0,0,1,.378,2.682,2.27,2.27,0,0,1-2.736.968l-2.114,2.214a2.241,2.241,0,0,1-1.6,3.069,2.283,2.283,0,0,1-2.67-2.213c-1.833-1.663-1.369.47-3.739-.416Zm13.368-6.287a.555.555,0,1,0-.555.555.555.555,0,0,0,.555-.555m-9.947,2.732a.556.556,0,1,0-.556.556.556.556,0,0,0,.556-.556m4.967,2.452a.555.555,0,1,0-.555.555.555.555,0,0,0,.555-.555m-9.938,1.881a.556.556,0,1,0-.556.556.556.556,0,0,0,.556-.556" transform="translate(-121.896 -24.271)" fill="#1e535a"/>
        <rect id="Rectángulo_465018" data-name="Rectángulo 465018" width="2.668" height="13.19" transform="translate(39.481 11.56)" fill="#1e535a"/>
        <rect id="Rectángulo_465019" data-name="Rectángulo 465019" width="2.67" height="9.657" transform="translate(29.539 15.093)" fill="#1e535a"/>
        <path id="Trazado_1284309" data-name="Trazado 1284309" d="M214.674,111.664a8.185,8.185,0,0,1-2.655.006l0-7.639a8.751,8.751,0,0,1,2.635-.013Z" transform="translate(-177.515 -87.012)" fill="#1e535a"/>
        <path id="Trazado_1284310" data-name="Trazado 1284310" d="M153.66,131.664a8.727,8.727,0,0,1-2.627.056L151,126.745a7.62,7.62,0,0,1,2.635,0Z" transform="translate(-126.426 -106.023)" fill="#1e535a"/>
        <path id="Trazado_1284311" data-name="Trazado 1284311" d="M106.5,42.024a13.7,13.7,0,0,1-3.5.134,15.345,15.345,0,0,1,.007-3.1Z" transform="translate(-86.177 -32.704)" fill="#1e535a"/>
        <path id="Trazado_1284312" data-name="Trazado 1284312" d="M1.931,152.763.286,151.084a.8.8,0,0,1,.008-1.16l4.6-4.473c.379-.368.831-.088,1.233.014l2.589-2.479a8.431,8.431,0,1,1,1.449,1.607l-2.492,2.452c.043.367.387.835.014,1.2l-4.606,4.476a.791.791,0,0,1-1.153.043m19.088-14.615a5.356,5.356,0,1,0-5.356,5.356,5.356,5.356,0,0,0,5.356-5.356" transform="translate(-0.032 -108.594)" fill="#1e535a"/>
        <path id="Trazado_1284313" data-name="Trazado 1284313" d="M78.547,171.231c-.842.766-1.721-.428-2.7-1.481a.822.822,0,0,1,.043-1.11c.857-.731,1.428.451,2.069.875l3.108-2.739a.8.8,0,0,1,1.058.158.84.84,0,0,1-.088,1.122Z" transform="translate(-63.342 -139.517)" fill="#1e535a"/>
      </g>
    </g>
  </g>
</svg>
