<svg xmlns="http://www.w3.org/2000/svg" xmlns:xlink="http://www.w3.org/1999/xlink" width="160" height="160" viewBox="0 0 160 160">
  <defs>
    <clipPath id="clip-path">
      <rect id="Rectángulo_454829" data-name="Rectángulo 454829" width="160" height="160" fill="#1e535a"/>
    </clipPath>
    <clipPath id="clip-path-2">
      <rect id="Rectángulo_465027" data-name="Rectángulo 465027" width="63.473" height="77.999" fill="#1e535a"/>
    </clipPath>
  </defs>
  <g id="Grupo_1211650" data-name="Grupo 1211650" transform="translate(-186 -4323.945)">
    <g id="Grupo_1177591" data-name="Grupo 1177591" transform="translate(186 4323.945)">
      <g id="Grupo_1177589" data-name="Grupo 1177589" transform="translate(0 0)">
        <g id="Grupo_1177587" data-name="Grupo 1177587" clip-path="url(#clip-path)">
          <path id="Trazado_997422" data-name="Trazado 997422" d="M153.468,70.818A73.56,73.56,0,0,0,136.851,32.54a8.46,8.46,0,0,0-11.9-11.4A73.452,73.452,0,0,0,86.919,6.283a8.462,8.462,0,0,0-16.435.334A73.553,73.553,0,0,0,34,22.215,8.464,8.464,0,0,0,22.249,34.043a73.492,73.492,0,0,0-15.4,36.7,8.467,8.467,0,0,0-.2,16.582,73.47,73.47,0,0,0,14.914,37.446,8.463,8.463,0,0,0,11.5,11.95,73.548,73.548,0,0,0,37.353,16.337A8.464,8.464,0,0,0,87,153.4a73.485,73.485,0,0,0,38.308-15.134,8.462,8.462,0,0,0,11.845-11.456,73.578,73.578,0,0,0,16.515-39.558,8.464,8.464,0,0,0-.2-16.43m-23.9-34.11a8.416,8.416,0,0,0,4.687-1.419A69.855,69.855,0,0,1,149.671,70.8a8.476,8.476,0,0,0-5.409,3.919L122.63,66.6c.017-.236.034-.477.034-.722a8.465,8.465,0,0,0-3.585-6.917l9.463-22.325a9.168,9.168,0,0,0,1.026.068m-4.573-1.347-9.4,22.177a8.377,8.377,0,0,0-9.324,5.384L67.131,53.906a8.235,8.235,0,0,0-.177-1.685l55.536-19.34a8.491,8.491,0,0,0,2.5,2.479M78.744,16.941a8.471,8.471,0,0,0,8.314-6.87,69.74,69.74,0,0,1,35.263,13.791,8.424,8.424,0,0,0-1.225,4.375,8.893,8.893,0,0,0,.08,1.119L65.362,48.788a8.5,8.5,0,0,0-1.533-1.533l14.64-30.327c.093,0,.182.013.274.013M70.505,10.4a8.472,8.472,0,0,0,4.261,5.544L60.413,45.672a8.494,8.494,0,0,0-1.748-.182,8.409,8.409,0,0,0-4.826,1.516L36.826,32.8A8.42,8.42,0,0,0,36.538,25,69.8,69.8,0,0,1,70.505,10.4M16.734,77.219,51.922,59.07A8.439,8.439,0,0,0,58.6,62.427l12.06,38.548a8.609,8.609,0,0,0-1.866,2.065L16.629,81.307a8.414,8.414,0,0,0,.312-2.246,8.512,8.512,0,0,0-.207-1.841m8.31-40.651a8.464,8.464,0,0,0,9.454-.807L51.3,49.789a8.447,8.447,0,0,0-.933,5.853L15.117,73.816a8.468,8.468,0,0,0-4.484-2.939A69.764,69.764,0,0,1,25.044,36.568m3.5,84.529a8.445,8.445,0,0,0-4.206,1.123A69.7,69.7,0,0,1,10.438,87.29a8.478,8.478,0,0,0,4.4-2.652l52.682,21.949a9.082,9.082,0,0,0-.068,1.018,8.469,8.469,0,0,0,.507,2.863L36.1,125.733a8.469,8.469,0,0,0-7.546-4.636m42.032,28.195a69.865,69.865,0,0,1-34.854-15.248,8.382,8.382,0,0,0,1.292-4.476l0-.1L70,113.661a8.47,8.47,0,0,0,2.99,1.888l1.976,28.406a8.47,8.47,0,0,0-4.387,5.337M74.09,99.342l-11.8-37.733a8.482,8.482,0,0,0,4.024-4.024l39.452,9.083a8.42,8.42,0,0,0,1.347,3.851l-27.059,29.7a8.366,8.366,0,0,0-5.962-.874m12.9,50.279a8.468,8.468,0,0,0-8.247-6.562l-.063,0L76.8,116.034a8.455,8.455,0,0,0,5.177-2.512l39.444,17.4c0,.076-.013.144-.013.22a8.428,8.428,0,0,0,1.254,4.417A69.736,69.736,0,0,1,86.991,149.62m35.381-22.4-38.418-16.95a8.42,8.42,0,0,0-1.111-7.533l26.978-29.613a8.42,8.42,0,0,0,4.37,1.225,9.324,9.324,0,0,0,1.039-.068l10.084,49.726a8.451,8.451,0,0,0-2.943,3.213m12.153-3.167a8.419,8.419,0,0,0-5.629-1.33L118.808,72.98a8.5,8.5,0,0,0,2.669-2.787L143.1,78.3a7.511,7.511,0,0,0-.038.76,8.467,8.467,0,0,0,6.807,8.3,69.793,69.793,0,0,1-15.341,36.695" transform="translate(0 0.002)" fill="#1e535a"/>
        </g>
      </g>
    </g>
    <g id="Elipse_13614" data-name="Elipse 13614" transform="translate(210.273 4348.213)" fill="#fff" stroke="#1e535a" stroke-width="3">
      <ellipse cx="55.732" cy="55.733" rx="55.732" ry="55.733" stroke="none"/>
      <ellipse cx="55.732" cy="55.733" rx="54.232" ry="54.233" fill="none"/>
    </g>
    <g id="Grupo_1212131" data-name="Grupo 1212131" transform="translate(234.268 4363.662)">
      <g id="Grupo_1212130" data-name="Grupo 1212130" clip-path="url(#clip-path-2)">
        <path id="Trazado_1284325" data-name="Trazado 1284325" d="M14.007,125.046l10.666,10.571a5.206,5.206,0,0,1,1.319,4.315l-.477,3.883-15.605,4.2a7.9,7.9,0,0,0-2.18-4.748l-5.7-6.139A6.946,6.946,0,0,1,0,132.36l.025-23.918A3.768,3.768,0,0,1,3.9,104.818a3.882,3.882,0,0,1,3.766,4.139l-.113,13.474a6.452,6.452,0,0,0-3.144,3.75A5.476,5.476,0,0,0,5.749,131.4l5.676,5.657a1.291,1.291,0,1,0,1.833-1.816L7.593,129.57a2.887,2.887,0,0,1-.009-3.966,4.246,4.246,0,0,1,6.423-.557" transform="translate(0 -78.405)" fill="#1e535a"/>
        <path id="Trazado_1284326" data-name="Trazado 1284326" d="M150.014,135.686,160.8,125a4.225,4.225,0,0,1,6.35.608,2.891,2.891,0,0,1-.006,3.971l-5.849,5.913c-.443.448-.123,1.379.2,1.665a1.367,1.367,0,0,0,1.809-.082l5.788-5.795a5.363,5.363,0,0,0,1.224-5.085,6.371,6.371,0,0,0-3.156-3.758l-.047-13.984a3.729,3.729,0,0,1,3.95-3.622,3.816,3.816,0,0,1,3.669,3.866l-.02,23.923A6.534,6.534,0,0,1,172.821,137l-6.05,6.557a7.588,7.588,0,0,0-1.946,4.454l-15.606-4.2c-.261-2.491-1.269-6.076.8-8.121" transform="translate(-111.263 -78.415)" fill="#1e535a"/>
        <rect id="Rectángulo_465025" data-name="Rectángulo 465025" width="5.281" height="20.739" transform="translate(34.492 72.621) rotate(-74.999)" fill="#1e535a"/>
        <rect id="Rectángulo_465026" data-name="Rectángulo 465026" width="20.741" height="5.295" transform="translate(7.579 72.884) rotate(-14.995)" fill="#1e535a"/>
        <path id="Trazado_1284327" data-name="Trazado 1284327" d="M91.793,83.72a17.35,17.35,0,1,1-17.35-17.35,17.35,17.35,0,0,1,17.35,17.35M74.508,88.663l7.267,4.3-1.854-8.275,6.364-5.609-8.453-.831-3.4-7.816-3.372,7.821L62.6,79.08l6.363,5.609-1.854,8.324Z" transform="translate(-42.707 -49.646)" fill="#1e535a"/>
        <path id="Trazado_1284328" data-name="Trazado 1284328" d="M113.383,14.145l-4.46.105-.1-7.311-2.007-.079a.734.734,0,0,1-.617-.267.714.714,0,0,1,.019-.67L110.476.375a.724.724,0,0,1,1.165-.129l4.387,5.671c.117.151.058.41.066.516.011.164-.2.4-.488.407l-2.2.093Z" transform="translate(-79.383 -0.001)" fill="#1e535a"/>
        <path id="Trazado_1284329" data-name="Trazado 1284329" d="M164.218,41.494a25.7,25.7,0,0,0-4.273-3.542l-.154-3.32c-.681-.181-2.328.107-2.6-.312a.683.683,0,0,1-.045-.675l4.369-5.677a.838.838,0,0,1,.485-.3.717.717,0,0,1,.655.3l4.368,5.679a.587.587,0,0,1-.419.9c-.761.094-1.461-.065-2.229.089Z" transform="translate(-117.496 -20.687)" fill="#1e535a"/>
        <path id="Trazado_1284330" data-name="Trazado 1284330" d="M62.259,37.826a24.345,24.345,0,0,0-4.4,3.774l-.142-6.952c-.746-.215-2.246.117-2.616-.32a.624.624,0,0,1-.044-.683l4.377-5.675a.8.8,0,0,1,.491-.3.742.742,0,0,1,.648.306l4.368,5.676a.692.692,0,0,1-.046.677c-.268.429-1.933.123-2.6.3a18.94,18.94,0,0,0-.029,3.2" transform="translate(-41.117 -20.691)" fill="#1e535a"/>
      </g>
    </g>
  </g>
</svg>
