<svg xmlns="http://www.w3.org/2000/svg" xmlns:xlink="http://www.w3.org/1999/xlink" width="85" height="85" viewBox="0 0 85 85">
  <defs>
    <clipPath id="clip-path">
      <rect id="Rectángulo_464998" data-name="Rectángulo 464998" width="62.02" height="69.496" fill="#344866"/>
    </clipPath>
  </defs>
  <g id="Grupo_1211746" data-name="Grupo 1211746" transform="translate(-179.734 -5520.842)">
    <rect id="Rectángulo_402006" data-name="Rectángulo 402006" width="85" height="85" rx="5" transform="translate(179.734 5520.842)" fill="#69d7e5"/>
    <g id="Grupo_1212086" data-name="Grupo 1212086" transform="translate(189.647 5528.594)">
      <rect id="Rectángulo_464995" data-name="Rectángulo 464995" width="17.425" height="1.873" transform="translate(39.569 10.259)" fill="#344866"/>
      <rect id="Rectángulo_464996" data-name="Rectángulo 464996" width="17.433" height="1.858" transform="translate(39.798 15.278)" fill="#344866"/>
      <g id="Grupo_1212085" data-name="Grupo 1212085">
        <g id="Grupo_1212084" data-name="Grupo 1212084" clip-path="url(#clip-path)">
          <path id="Trazado_1284139" data-name="Trazado 1284139" d="M188.289,89.689l-15.464-.005a.961.961,0,0,1-.94-.765c-.074-.367.16-1.038.7-1.038h15.958c.608,0,.777.632.725,1.034a.919.919,0,0,1-.983.774" transform="translate(-132.065 -67.527)" fill="#344866"/>
          <rect id="Rectángulo_464997" data-name="Rectángulo 464997" width="17.445" height="1.886" transform="translate(39.793 25.3)" fill="#344866"/>
          <path id="Trazado_1284140" data-name="Trazado 1284140" d="M53.308,63.773,50.067,67.02a1.819,1.819,0,0,1-2.744-.2.828.828,0,0,0-.932-.359c-.361.106-.477.465-.441.9a1.871,1.871,0,0,1-1.981,2.139H39.786a1.884,1.884,0,0,1-2-2.128c.019-.322-.009-.7-.229-.827a.772.772,0,0,0-1,.15,1.856,1.856,0,0,1-2.869.326l-3.25-3.24a3.668,3.668,0,0,1-.645-1.55c-7.485,1.142-20.6.905-27.014-3.454C1.645,58,0,56.7,0,55.1L.036,17.184c0-1.636,1.936-3.01,3.117-3.737,6.93-4.264,19.843-4.342,27.834-3l.032-5.827A1.958,1.958,0,0,1,32.85,2.592,15.988,15.988,0,0,0,35.058,2.5,2.725,2.725,0,0,1,35.5.693,2.189,2.189,0,0,1,37.252,0L56.193.025l5.827,6.8L62,31.934c0,1.389-1.608,1.854-2.811,1.621-.46.582.561,3.995-2.034,4L42.677,37.6l-.012,4.048c1.05.27,2.012-.227,2.841.7.872.979-.025,2.146.975,2.455a.675.675,0,0,0,.769-.319,1.821,1.821,0,0,1,2.673-.406L53.28,47.4c1.691,1.674-.814,2.9-.59,3.61.33,1.047,3.088-.2,3.077,2.479l-.018,4.4a1.778,1.778,0,0,1-2.059,1.767.857.857,0,0,0-1,.565c-.279.662,2.287,1.88.62,3.55M57.033,8.093a2.282,2.282,0,0,1-2.175-2.306l-.085-3.94-17.825,0,0,29.9,23.221.008,0-23.615c-1.042-.125-1.988.02-3.135-.047m1.96-1.925a16.719,16.719,0,0,0-2.207-2.5A6.782,6.782,0,0,0,56.8,6.15a4.985,4.985,0,0,0,2.193.018M37.136,33.593a1.881,1.881,0,0,1-2.056-1.886L35.061,4.541a4.152,4.152,0,0,0-2.207-.01l-.011,31.145,24.207,0A4.583,4.583,0,0,0,57.09,33.6ZM6.788,22.014a39.167,39.167,0,0,0,11.235,2.108,52.144,52.144,0,0,0,12.985-.8L31,12.369a52.432,52.432,0,0,0-21.438.454c-2.246.6-7.6,2.357-7.745,4.9C1.7,19.8,4.867,21.232,6.788,22.014M31.043,35.546,31,25.217a52.28,52.28,0,0,1-22.757-.782,20.157,20.157,0,0,1-6.413-3.014c.055,3.19-.17,6.072.089,9.133.087,1.033,1.339,1.9,2.163,2.388,6.712,3.956,19.536,4.22,26.963,2.6M38.5,42.094c.551-.466,1.484-.238,2.166-.447.323-1.148.032-2.665.113-3.986l-7.927-.168a9.578,9.578,0,0,0-2.153.02C22.372,38.939,9.11,38.865,1.826,33.694c.06,3.178-.169,6.1.091,9.123.1,1.175,1.475,1.835,2.277,2.5,7.068,3.763,18.021,3.961,25.715,2.723l3.557-3.652a2.047,2.047,0,0,1,1.584-.71c1.351.036,1.418,1.338,2.231,1.121,1.048-.28-.114-1.576,1.221-2.7m5.613,25.488c.084-.842-.262-1.869.353-2.24A6.318,6.318,0,0,1,47.1,64.318c.69-.025,1.038.9,1.628,1.292a34.2,34.2,0,0,0,3.181-3.052c-.492-.687-1.071-.977-1.444-1.738a12.011,12.011,0,0,1,1.179-2.666c.469-.6,1.5-.189,2.234-.345a31.705,31.705,0,0,0-.055-4.387c-.779-.146-1.819.218-2.2-.388a7.338,7.338,0,0,1-1.068-2.685c.132-.751,1.018-1.025,1.337-1.729a38.116,38.116,0,0,0-3.155-3.036c-.587.413-.951,1.333-1.643,1.3a6.117,6.117,0,0,1-2.749-1.1c-.472-.555-.114-1.5-.276-2.147a36.432,36.432,0,0,0-4.381.011c-.2.664.259,1.8-.366,2.2a6.24,6.24,0,0,1-2.664,1.037c-.693.037-1.041-.89-1.646-1.292a24.128,24.128,0,0,0-3.166,3.139c.46.629,1.422,1.016,1.31,1.758a6.18,6.18,0,0,1-1.116,2.625c-.428.537-1.389.135-2.1.29a31.412,31.412,0,0,0-.051,4.388,12.81,12.81,0,0,1,2.193.2A11.943,11.943,0,0,1,33.168,60.7c.119.762-.918,1.154-1.312,1.829l3.05,3.083,1.744-1.415A10.005,10.005,0,0,1,39.4,65.452c.52.478.124,1.47.273,2.144a39.01,39.01,0,0,0,4.445-.014M28.046,58.036l-.032-4.549c-.02-2.84,2.891-1.279,3.085-2.6.043-.292-.342-.8-.754-1-7.987,1.254-21.454,1.2-28.508-3.967.043,3.094-.194,6.069.09,9.177.1,1.068,1.428,1.949,2.286,2.436,9.343,5.308,26.725,3.016,26.6,2.455-.136-.59-2.749.154-2.764-1.955" transform="translate(0 0.001)" fill="#344866"/>
          <path id="Trazado_1284141" data-name="Trazado 1284141" d="M20.189,172.094a.931.931,0,0,1,.681,1.084c-.281,1.513-3.018.051-4.06-.485a.941.941,0,0,1-.492-1.021c.349-1.475,2.184-.112,3.871.423" transform="translate(-12.523 -131.4)" fill="#344866"/>
          <path id="Trazado_1284142" data-name="Trazado 1284142" d="M20.208,119.178a.921.921,0,0,1,.644,1.058c-.2,1.565-3.019.054-4.05-.468a.929.929,0,0,1-.5-1.035c.361-1.466,2.184-.091,3.9.444" transform="translate(-12.511 -90.731)" fill="#344866"/>
          <path id="Trazado_1284143" data-name="Trazado 1284143" d="M166.794,220.037a6.042,6.042,0,1,1-6.042-6.042,6.042,6.042,0,0,1,6.042,6.042m-7.229-4.01a4.137,4.137,0,0,0-2.48,5.986c2.908-1.568,2.761-2.791,2.48-5.986m-1.148,7.447a4.178,4.178,0,1,0,3.183-7.545l-.184,3.851c-.078,1.638-1.56,2.636-3,3.694" transform="translate(-118.878 -164.432)" fill="#344866"/>
          <path id="Trazado_1284144" data-name="Trazado 1284144" d="M20.2,225.011a.957.957,0,0,1,.68,1.118c-.328,1.434-3.036,0-4.045-.513a.984.984,0,0,1-.5-1.043c.349-1.454,2.235-.073,3.869.438" transform="translate(-12.532 -172.063)" fill="#344866"/>
        </g>
      </g>
    </g>
  </g>
</svg>
