<svg xmlns="http://www.w3.org/2000/svg" xmlns:xlink="http://www.w3.org/1999/xlink" width="85" height="85" viewBox="0 0 85 85">
  <defs>
    <clipPath id="clip-path">
      <rect id="Rectángulo_465005" data-name="Rectángulo 465005" width="64.245" height="54.219" fill="#344866"/>
    </clipPath>
  </defs>
  <g id="Grupo_1212382" data-name="Grupo 1212382" transform="translate(-290 -7795)">
    <g id="Grupo_1211886" data-name="Grupo 1211886" transform="translate(110.266 2274.158)">
      <rect id="Rectángulo_402006" data-name="Rectángulo 402006" width="85" height="85" rx="5" transform="translate(179.734 5520.842)" fill="#69d7e5"/>
      <g id="Grupo_1212100" data-name="Grupo 1212100" transform="translate(179.734 5530.031)">
        <g id="Grupo_1212099" data-name="Grupo 1212099" transform="translate(10 6)" clip-path="url(#clip-path)">
          <path id="Trazado_1284237" data-name="Trazado 1284237" d="M117.056,14.052l-.048,3.013a.94.94,0,0,1-.9.975.955.955,0,0,1-1.074-.975l0-4.012a.958.958,0,0,1,.991-.982l7.455-.079c-.388-.556-.536-1.042-.252-1.5.864-1.392,2.551.858,3.523,1.836a1.093,1.093,0,0,1-.079,1.549l-1.9,1.877a1.035,1.035,0,0,1-1.462-.031c-.4-.437-.242-1.063.175-1.639Z" transform="translate(-91.933 -8.032)" fill="#344866"/>
          <path id="Trazado_1284238" data-name="Trazado 1284238" d="M80.767,143.345a1.043,1.043,0,0,1,.056,1.386,1.023,1.023,0,0,1-1.358.124l-4.01-3.971a1.1,1.1,0,0,1-.086-1.553l4.092-4.068a1,1,0,0,1,1.273.024c.26.221.536.893.191,1.252L77.54,140.06Z" transform="translate(-60.009 -107.929)" fill="#344866"/>
          <path id="Trazado_1284239" data-name="Trazado 1284239" d="M146.827,144.693a1.11,1.11,0,0,1-1.381.22.987.987,0,0,1-.219-1.436l3.314-3.4-3.317-3.4a.988.988,0,0,1,1.394-1.385l4.085,4.057a1.1,1.1,0,0,1-.082,1.557Z" transform="translate(-115.888 -107.947)" fill="#344866"/>
          <path id="Trazado_1284240" data-name="Trazado 1284240" d="M117.058,141.22a1.044,1.044,0,0,1-1.295.851.989.989,0,0,1-.668-1.285l2.953-9.878a1.03,1.03,0,0,1,1.265-.773,1,1,0,0,1,.666,1.293Z" transform="translate(-91.946 -103.981)" fill="#344866"/>
          <path id="Trazado_1284241" data-name="Trazado 1284241" d="M57.127,45.187a.99.99,0,0,1,1.078,1l0,4.035a3.975,3.975,0,0,1-4.035,4l-50.14,0A3.987,3.987,0,0,1,0,50.22l0-4.036c0-.688.552-1,1.182-1l3.827-.013L5,15.281a3.01,3.01,0,0,1,3.039-3.217l33.052,0a7.959,7.959,0,0,0,.03-2,2.036,2.036,0,0,1-1.97-2.021V2.01A2.017,2.017,0,0,1,41.362,0L62.228.015A1.962,1.962,0,0,1,64.234,2l-.022,6.222a1.948,1.948,0,0,1-1.939,1.819,9.757,9.757,0,0,0-.008,2,2.009,2.009,0,0,1,1.972,2.006v6.034a2,2,0,0,1-1.972,2,11.008,11.008,0,0,0,0,2A2.009,2.009,0,0,1,64.236,26.1l.008,6.038a2,2,0,0,1-2.019,2l-9.028.013,0,11.03ZM62.236,2.008H41.153V8.046H62.236ZM60.228,10.04H43.161v2.022H60.228ZM9.03,17.206a1,1,0,0,1,1.029-1.125l29.031,0a8.253,8.253,0,0,0,.024-2.01l-31.063,0a.984.984,0,0,0-1.025,1.02L7.017,45.143a7.536,7.536,0,0,0,2.009,0Zm53.206-3.151H41.153v6.038H62.236ZM39.154,26.1a2.01,2.01,0,0,1,1.94-2.006,7.023,7.023,0,0,0,.023-1.989,2.051,2.051,0,0,1-1.964-2.214l-.038-1.805-28.083,0,0,27.112H47.173l.008-11.049H41.339a2.03,2.03,0,0,1-2.185-2.011Zm21.074-4.01H43.161v2.022H60.228ZM62.236,26.1H41.153v6.038H62.236ZM51.193,34.134H49.185V45.192h2.008Zm2.874,18.08a2.068,2.068,0,0,0,2.154-2L56.186,47.2H2.025l-.031,3a2.082,2.082,0,0,0,2.25,2.018Z" transform="translate(0 0)" fill="#344866"/>
          <path id="Trazado_1284242" data-name="Trazado 1284242" d="M251.105,22.06l-10.023,0a.979.979,0,0,1-.984-.913.956.956,0,0,1,.978-1.074l10.031-.006a.95.95,0,0,1,.976.9.977.977,0,0,1-.978,1.087" transform="translate(-191.887 -16.039)" fill="#344866"/>
          <path id="Trazado_1284243" data-name="Trazado 1284243" d="M217.6,20.067a.963.963,0,0,1,.37,1.231c-.307.844-2.313.8-2.724.136a.993.993,0,0,1,.24-1.33,2.514,2.514,0,0,1,2.114-.037" transform="translate(-171.907 -15.866)" fill="#344866"/>
          <path id="Trazado_1284244" data-name="Trazado 1284244" d="M251.105,82.06l-10.023,0a.979.979,0,0,1-.984-.913.955.955,0,0,1,.978-1.074l10.031-.006a.95.95,0,0,1,.976.9.977.977,0,0,1-.978,1.087" transform="translate(-191.887 -63.992)" fill="#344866"/>
          <path id="Trazado_1284245" data-name="Trazado 1284245" d="M217.6,80.067a.963.963,0,0,1,.37,1.231c-.307.844-2.313.8-2.724.136a.993.993,0,0,1,.24-1.33,2.513,2.513,0,0,1,2.115-.038" transform="translate(-171.907 -63.819)" fill="#344866"/>
          <path id="Trazado_1284246" data-name="Trazado 1284246" d="M251.105,142.06l-10.023,0a.979.979,0,0,1-.984-.913.955.955,0,0,1,.978-1.074l10.031-.006a.95.95,0,0,1,.976.9.977.977,0,0,1-.978,1.087" transform="translate(-191.887 -111.945)" fill="#344866"/>
          <path id="Trazado_1284247" data-name="Trazado 1284247" d="M217.6,140.066a.964.964,0,0,1,.37,1.231c-.308.844-2.313.8-2.724.136a.993.993,0,0,1,.24-1.33,2.513,2.513,0,0,1,2.114-.037" transform="translate(-171.907 -111.771)" fill="#344866"/>
        </g>
      </g>
    </g>
  </g>
</svg>
