<svg xmlns="http://www.w3.org/2000/svg" xmlns:xlink="http://www.w3.org/1999/xlink" width="150" height="150" viewBox="0 0 150 150">
  <defs>
    <clipPath id="clip-path">
      <rect id="Rectángulo_454829" data-name="Rectángulo 454829" width="150" height="150" fill="#1e535a"/>
    </clipPath>
    <clipPath id="clip-path-2">
      <rect id="Rectángulo_465045" data-name="Rectángulo 465045" width="58.458" height="51.474" fill="#1e535a"/>
    </clipPath>
  </defs>
  <g id="Grupo_1211822" data-name="Grupo 1211822" transform="translate(-186 -4323.945)">
    <g id="Grupo_1177591" data-name="Grupo 1177591" transform="translate(186 4323.945)">
      <g id="Grupo_1177589" data-name="Grupo 1177589" transform="translate(0 0)">
        <g id="Grupo_1177587" data-name="Grupo 1177587" clip-path="url(#clip-path)">
          <path id="Trazado_997422" data-name="Trazado 997422" d="M143.876,66.392A68.963,68.963,0,0,0,128.3,30.506a7.931,7.931,0,0,0-11.16-10.685A68.861,68.861,0,0,0,81.486,5.891,7.933,7.933,0,0,0,66.079,6.2,68.956,68.956,0,0,0,31.872,20.827,7.935,7.935,0,0,0,20.859,31.915,68.9,68.9,0,0,0,6.425,66.324a7.938,7.938,0,0,0-.19,15.546,68.878,68.878,0,0,0,13.982,35.106A7.934,7.934,0,0,0,31,128.179,68.951,68.951,0,0,0,66.016,143.5a7.935,7.935,0,0,0,15.546.313,68.892,68.892,0,0,0,35.914-14.188,7.933,7.933,0,0,0,11.1-10.74A68.98,68.98,0,0,0,144.062,81.8a7.935,7.935,0,0,0-.186-15.4M121.469,34.413a7.89,7.89,0,0,0,4.394-1.33,65.489,65.489,0,0,1,14.453,33.289,7.946,7.946,0,0,0-5.071,3.674l-20.281-7.6c.016-.222.032-.447.032-.677a7.935,7.935,0,0,0-3.361-6.484l8.871-20.93a8.6,8.6,0,0,0,.962.063m-4.287-1.263-8.816,20.791a7.853,7.853,0,0,0-8.741,5.047L62.936,50.537a7.72,7.72,0,0,0-.166-1.58l52.065-18.131a7.961,7.961,0,0,0,2.348,2.324M73.822,15.882a7.941,7.941,0,0,0,7.795-6.441,65.381,65.381,0,0,1,33.059,12.929,7.9,7.9,0,0,0-1.148,4.1,8.337,8.337,0,0,0,.075,1.049L61.277,45.739A7.965,7.965,0,0,0,59.84,44.3L73.565,15.87c.087,0,.17.012.257.012M66.1,9.754a7.943,7.943,0,0,0,3.994,5.2L56.637,42.817A7.963,7.963,0,0,0,55,42.647a7.883,7.883,0,0,0-4.525,1.421L34.524,30.747a7.894,7.894,0,0,0-.269-7.308A65.433,65.433,0,0,1,66.1,9.754M15.688,72.393,48.676,55.378a7.912,7.912,0,0,0,6.259,3.147L66.241,94.665a8.071,8.071,0,0,0-1.75,1.936l-48.9-20.376a7.888,7.888,0,0,0,.293-2.106,7.98,7.98,0,0,0-.194-1.726m7.791-38.111a7.935,7.935,0,0,0,8.864-.756L48.091,46.677a7.919,7.919,0,0,0-.875,5.487L14.172,69.2a7.939,7.939,0,0,0-4.2-2.755A65.4,65.4,0,0,1,23.479,34.282m3.286,79.246a7.918,7.918,0,0,0-3.943,1.053A65.346,65.346,0,0,1,9.786,81.835a7.948,7.948,0,0,0,4.121-2.486L63.3,99.926a8.514,8.514,0,0,0-.063.954,7.939,7.939,0,0,0,.475,2.684L33.839,117.875a7.94,7.94,0,0,0-7.074-4.347M66.17,139.96a65.5,65.5,0,0,1-32.675-14.295,7.858,7.858,0,0,0,1.211-4.2l0-.091,30.926-14.821a7.941,7.941,0,0,0,2.8,1.77l1.853,26.63a7.941,7.941,0,0,0-4.113,5m3.29-46.828L58.4,57.758a7.952,7.952,0,0,0,3.773-3.773L99.154,62.5a7.894,7.894,0,0,0,1.263,3.61L75.049,93.952a7.843,7.843,0,0,0-5.59-.819m12.094,47.136a7.938,7.938,0,0,0-7.731-6.152l-.059,0L72,108.782a7.927,7.927,0,0,0,4.853-2.355l36.978,16.31c0,.071-.012.135-.012.206A7.9,7.9,0,0,0,115,127.083a65.377,65.377,0,0,1-33.443,13.186m33.17-21-36.016-15.89a7.894,7.894,0,0,0-1.041-7.062l25.292-27.762a7.894,7.894,0,0,0,4.1,1.148,8.74,8.74,0,0,0,.974-.063l9.453,46.618a7.923,7.923,0,0,0-2.759,3.013m11.393-2.969a7.893,7.893,0,0,0-5.277-1.247l-9.457-46.638a7.973,7.973,0,0,0,2.5-2.613l20.269,7.6a7.042,7.042,0,0,0-.036.713A7.938,7.938,0,0,0,140.5,81.9a65.431,65.431,0,0,1-14.382,34.4" transform="translate(0 0.002)" fill="#1e535a"/>
        </g>
      </g>
    </g>
    <g id="Elipse_13614" data-name="Elipse 13614" transform="translate(210.273 4348.213)" fill="#fff" stroke="#1e535a" stroke-width="3">
      <ellipse cx="50.732" cy="50.733" rx="50.732" ry="50.733" stroke="none"/>
      <ellipse cx="50.732" cy="50.733" rx="49.232" ry="49.233" fill="none"/>
    </g>
    <g id="Grupo_1212161" data-name="Grupo 1212161" transform="translate(231.771 4373.209)">
      <g id="Grupo_1212160" data-name="Grupo 1212160" clip-path="url(#clip-path-2)">
        <path id="Trazado_1284389" data-name="Trazado 1284389" d="M37.19,45.5l7.042.1a3.221,3.221,0,0,1,3.227,2.556,17.3,17.3,0,0,1,.006,3.315l-38.389,0a20.809,20.809,0,0,1,.042-3.362,3.1,3.1,0,0,1,2.947-2.474l7.273-.1.039-6.892L4.465,38.627A4.346,4.346,0,0,1,0,34.29L0,4.3A4.287,4.287,0,0,1,4.307.006L52.2,0A4.3,4.3,0,0,1,56.56,4.3l-.02,19.328a18.635,18.635,0,0,0-3.587-1.993L52.912,3.692l-48.4-.023c-.51-.067-.866.137-.866.649L3.653,31.31l34.767,0a11.042,11.042,0,0,0,2.044,7.225l-3.257.119Z" transform="translate(0 0)" fill="#1e535a"/>
        <path id="Trazado_1284390" data-name="Trazado 1284390" d="M49.646,54.575a24.45,24.45,0,0,1-3.016.052c-.478-.541-.47-1.267-.893-1.873a11.821,11.821,0,0,1-2.755-1.128c-.707.192-1.209.625-1.893.737l-2.061-2.095.7-1.917a13.078,13.078,0,0,1-1.16-2.787l-1.756-.7a17.571,17.571,0,0,1-.085-3.006,14.376,14.376,0,0,1,1.855-.85,14.18,14.18,0,0,1,1.151-2.791l-.727-1.824a20.929,20.929,0,0,1,2.038-2.115c.744.063,1.24.523,1.953.68a12.246,12.246,0,0,1,2.71-1.1,17.713,17.713,0,0,0,.834-1.846,25.139,25.139,0,0,1,3.024-.041l.767,1.831a14.906,14.906,0,0,1,2.794,1.149l1.923-.7L57.126,36.3l-.714,1.9a14.21,14.21,0,0,1,1.136,2.8c.618.369,1.307.381,1.855.846a22.9,22.9,0,0,1-.031,2.951l-1.826.8A11.972,11.972,0,0,1,56.4,48.351l.742,1.891-2.1,2.121-1.9-.738a11.127,11.127,0,0,1-2.745,1.133,13.517,13.517,0,0,0-.748,1.817M53.426,43.3a5.355,5.355,0,1,0-5.355,5.355A5.355,5.355,0,0,0,53.426,43.3" transform="translate(-29.553 -25.717)" fill="#1e535a"/>
        <path id="Trazado_1284391" data-name="Trazado 1284391" d="M177.375,89.3l-17.414,0a.943.943,0,0,1-.976-.929.957.957,0,0,1,1.005-1l17.289,0a.982.982,0,0,1,1.075.888.971.971,0,0,1-.978,1.047" transform="translate(-127.996 -70.337)" fill="#1e535a"/>
        <path id="Trazado_1284392" data-name="Trazado 1284392" d="M177.371,57.362H159.957a.949.949,0,0,1-.973-.941.965.965,0,0,1,1.008-1l17.417,0a.969.969,0,0,1-.038,1.937" transform="translate(-127.996 -44.621)" fill="#1e535a"/>
        <path id="Trazado_1284393" data-name="Trazado 1284393" d="M168.805,121.3l-8.855-.016a.967.967,0,0,1,.009-1.934l10.7.018Z" transform="translate(-128.001 -96.083)" fill="#1e535a"/>
        <path id="Trazado_1284394" data-name="Trazado 1284394" d="M225.087,127.285a9.059,9.059,0,1,1-9.059-9.059,9.059,9.059,0,0,1,9.059,9.059m-2.389-.053a8.159,8.159,0,0,0-6.85-3.426,8.022,8.022,0,0,0-6.5,3.488,8.093,8.093,0,0,0,6.841,3.483,7.882,7.882,0,0,0,6.505-3.544" transform="translate(-166.629 -95.183)" fill="#1e535a"/>
        <path id="Trazado_1284395" data-name="Trazado 1284395" d="M247.743,157.218a1.818,1.818,0,1,1-1.818-1.818,1.818,1.818,0,0,1,1.818,1.818" transform="translate(-196.529 -125.111)" fill="#1e535a"/>
      </g>
    </g>
  </g>
</svg>
