<svg xmlns="http://www.w3.org/2000/svg" xmlns:xlink="http://www.w3.org/1999/xlink" width="85" height="85" viewBox="0 0 85 85">
  <defs>
    <clipPath id="clip-path">
      <rect id="Rectángulo_464999" data-name="Rectángulo 464999" width="64.567" height="64.05" fill="#344866"/>
    </clipPath>
  </defs>
  <g id="Grupo_1211751" data-name="Grupo 1211751" transform="translate(-179.734 -5520.842)">
    <rect id="Rectángulo_402006" data-name="Rectángulo 402006" width="85" height="85" rx="5" transform="translate(179.734 5520.842)" fill="#69d7e5"/>
    <g id="Grupo_1212088" data-name="Grupo 1212088" transform="translate(189.951 5531.317)">
      <g id="Grupo_1212087" data-name="Grupo 1212087" clip-path="url(#clip-path)">
        <path id="Trazado_1284145" data-name="Trazado 1284145" d="M176.15,47.47c-.9,1.021-2.508-1.259-3.829-2.52a.98.98,0,0,1,.06-1.389l2.459-2.45a.917.917,0,0,1,1.337.056c.75.952-.887,1.654-.9,2.224a24.045,24.045,0,0,0,3.05.023l-.007-14.776H157.113a2.083,2.083,0,0,1-2.205-1.825l.031-21.223c0-1.835,2.346-1.907,3.642-1.853C158.86,2.508,157.936,0,159.923,0l7.329.01c1.244,0,1.972,2.779,2.867,3.746l13.629.016a2.058,2.058,0,0,1,2.167,2.031l0,20.765a1.986,1.986,0,0,1-1.941,2.021l-3.821.06-.038,14.827a1.684,1.684,0,0,1-1.6,1.684l-3.219.076c.153.6,1.654,1.313.848,2.229m3.793-39.563c1.9,0,1.627,2.094,1.684,3.034a15.246,15.246,0,0,0,2.527-.008l-.033-5.357-15-.063L166.9,1.8l-6.49.012c-.244,1.376.552,3.717-.929,3.735l-2.783.033-.02,5.364a15.083,15.083,0,0,0,2.486-.008,5.588,5.588,0,0,0,.073-1.251,1.655,1.655,0,0,1,1.768-1.8ZM161,9.656v1.322l18.832,0V9.658Zm23.163,3.072H156.671V26.839h27.491Z" transform="translate(-121.352 -0.004)" fill="#344866"/>
        <path id="Trazado_1284146" data-name="Trazado 1284146" d="M219.522,80.08a2.647,2.647,0,1,1-2.647-2.647,2.647,2.647,0,0,1,2.647,2.647m-1.788.008a.862.862,0,1,0-.862.862.862.862,0,0,0,.862-.862" transform="translate(-167.822 -60.659)" fill="#344866"/>
        <path id="Trazado_1284147" data-name="Trazado 1284147" d="M188.933,80.08a2.648,2.648,0,1,1-2.648-2.648,2.648,2.648,0,0,1,2.648,2.648m-1.776,0a.869.869,0,1,0-.869.869.869.869,0,0,0,.869-.869" transform="translate(-143.858 -60.659)" fill="#344866"/>
        <path id="Trazado_1284148" data-name="Trazado 1284148" d="M250.129,80.093a2.646,2.646,0,1,1-2.646-2.646,2.646,2.646,0,0,1,2.646,2.646m-1.78,0a.869.869,0,1,0-.869.869.869.869,0,0,0,.869-.869" transform="translate(-191.8 -60.67)" fill="#344866"/>
        <path id="Trazado_1284149" data-name="Trazado 1284149" d="M12.626,43.508a.986.986,0,0,1,.09,1.431l-2.491,2.49a.944.944,0,0,1-1.2.144.907.907,0,0,1-.138-1.308c.276-.377.693-.554.855-1.031-1.119-.226-4.765.576-4.775-1.548l-.07-15.009C3.383,28.474,0,29.313,0,26.564L.005,5.776c0-2.1,2.31-2.043,3.677-2.07C4,2.477,3.055,0,4.989,0L12.35.011a1.061,1.061,0,0,1,.939.5L15.2,3.764H28.821a2.014,2.014,0,0,1,2.155,1.822l.032,21a1.994,1.994,0,0,1-1.99,2.005L6.7,28.607,6.688,43.25a9.39,9.39,0,0,0,3.056.019c-.242-.613-1.579-1.217-.907-2.115a.889.889,0,0,1,1.256-.14ZM25.018,7.9c1.981,0,1.58,2.12,1.724,3.047a11.854,11.854,0,0,0,2.49-.041l-.025-5.34-15-.062L11.989,1.788l-6.47.032L5.472,4.7c-.023,1.435-2.62.61-3.686.9l-.024,5.342a11.839,11.839,0,0,0,2.521-.032A12.04,12.04,0,0,0,4.33,9.44,1.653,1.653,0,0,1,6.082,7.892Zm-.1,1.754L6.083,9.673l0,1.321,18.833-.022Zm4.328,3.075H1.753V26.839H29.244Z" transform="translate(0 0)" fill="#344866"/>
        <path id="Trazado_1284150" data-name="Trazado 1284150" d="M64.673,80.132a2.646,2.646,0,1,1-2.646-2.646,2.646,2.646,0,0,1,2.646,2.646m-1.78-.007a.863.863,0,1,0-.863.863.863.863,0,0,0,.863-.863" transform="translate(-46.518 -60.701)" fill="#344866"/>
        <path id="Trazado_1284151" data-name="Trazado 1284151" d="M95.258,80.126a2.647,2.647,0,1,1-2.647-2.647,2.647,2.647,0,0,1,2.647,2.647m-1.779-.007a.87.87,0,1,0-.87.87.87.87,0,0,0,.87-.87" transform="translate(-70.476 -60.695)" fill="#344866"/>
        <path id="Trazado_1284152" data-name="Trazado 1284152" d="M34.075,80.13a2.645,2.645,0,1,1-2.646-2.646,2.646,2.646,0,0,1,2.646,2.646m-1.782-.008a.867.867,0,1,0-.867.867.867.867,0,0,0,.867-.867" transform="translate(-22.549 -60.699)" fill="#344866"/>
        <path id="Trazado_1284153" data-name="Trazado 1284153" d="M98.863,159.771c1.849.37,6.963,1.813,6.963,4.106l0,20.147c0,2.215-4.709,3.7-6.531,4.1A46.448,46.448,0,0,1,78.883,188c-1.747-.406-6.013-1.891-6.016-3.976l-.022-19.941c0-2.46,4.7-3.748,6.453-4.218a.9.9,0,1,1,.425,1.734c-1.2.3-5.2,1.368-5.089,2.792s4.4,2.557,5.776,2.825a47.139,47.139,0,0,0,17.531.065c1.194-.22,8.3-1.919,5.507-3.908-2.813-2-5.723-1.354-5.578-2.844a.852.852,0,0,1,.992-.759m4.274,15.41a1.764,1.764,0,0,0,.992-1.562l-.058-6.594a19.908,19.908,0,0,1-5.341,1.926c-6.812,1.38-17.73,1.48-24.124-1.922.092,2.539-.164,4.831.115,7.218.092.793,1.358,1.06,1.885,1.489,6.383,2.649,20.347,2.809,26.532-.556m-.206,9.794c.448-.371,1.116-.644,1.116-1.213l.005-7.069a20.517,20.517,0,0,1-6.326,2.085,50.458,50.458,0,0,1-16.761.005A21.524,21.524,0,0,1,74.6,176.7c-.007,2.494-.1,4.721.033,7.073.036.646.852.93,1.266,1.3,6.206,3.052,20.77,3.145,27.03-.1" transform="translate(-57.065 -125.148)" fill="#344866"/>
        <path id="Trazado_1284154" data-name="Trazado 1284154" d="M118.357,148.506a1.09,1.09,0,0,1-1.632.049l-2.447-2.49a.905.905,0,0,1-.008-1.188c.8-.948,1.8.639,2.3.922l.112-5.347c.011-.542.562-.682.93-.657,1.473.1.424,4.395.828,6,.648-.364,1.3-1.755,2.21-1.017a.877.877,0,0,1,.105,1.28Z" transform="translate(-89.346 -109.51)" fill="#344866"/>
        <path id="Trazado_1284155" data-name="Trazado 1284155" d="M156.416,147.861c-.007.73-.442,1.081-.974,1.025-1.458-.154-.442-4.2-.825-5.983-.55.167-1.424,1.922-2.324.852a.883.883,0,0,1,.028-1.167l2.588-2.59a1,1,0,0,1,1.381.082l2.467,2.5a.887.887,0,0,1-.066,1.283c-.974.784-1.713-.877-2.224-.984Z" transform="translate(-119.141 -109.482)" fill="#344866"/>
        <path id="Trazado_1284156" data-name="Trazado 1284156" d="M172.548,263.541a.975.975,0,1,1-.975-.975.974.974,0,0,1,.975.975" transform="translate(-133.644 -205.689)" fill="#344866"/>
        <path id="Trazado_1284157" data-name="Trazado 1284157" d="M120.413,263.559a.973.973,0,1,1-.973-.973.973.973,0,0,1,.973.973" transform="translate(-92.804 -205.704)" fill="#344866"/>
        <path id="Trazado_1284158" data-name="Trazado 1284158" d="M137.76,263.572a.97.97,0,1,1-.97-.97.97.97,0,0,1,.97.97" transform="translate(-106.398 -205.717)" fill="#344866"/>
        <path id="Trazado_1284159" data-name="Trazado 1284159" d="M155.218,263.584a.97.97,0,1,1-.97-.97.97.97,0,0,1,.97.97" transform="translate(-120.075 -205.726)" fill="#344866"/>
        <path id="Trazado_1284160" data-name="Trazado 1284160" d="M154.025,218.734c-.788-.034-1.031-.488-.964-1.045.057-.472.452-.745,1.065-.731a.939.939,0,0,1,.967.759.919.919,0,0,1-1.069,1.017" transform="translate(-119.897 -169.96)" fill="#344866"/>
        <path id="Trazado_1284161" data-name="Trazado 1284161" d="M120.357,217.552a.979.979,0,1,1-.98-.98.98.98,0,0,1,.98.98" transform="translate(-92.75 -169.658)" fill="#344866"/>
        <path id="Trazado_1284162" data-name="Trazado 1284162" d="M136.483,218.741a.893.893,0,1,1-.007-1.78c.6-.007,1.032.292,1.081.732.077.693-.34,1.082-1.074,1.048" transform="translate(-106.155 -169.963)" fill="#344866"/>
        <path id="Trazado_1284163" data-name="Trazado 1284163" d="M172.522,217.542a.98.98,0,1,1-.98-.98.98.98,0,0,1,.98.98" transform="translate(-133.615 -169.65)" fill="#344866"/>
      </g>
    </g>
  </g>
</svg>
