<svg xmlns="http://www.w3.org/2000/svg" xmlns:xlink="http://www.w3.org/1999/xlink" width="85" height="85" viewBox="0 0 85 85">
  <defs>
    <clipPath id="clip-path">
      <rect id="Rectángulo_464970" data-name="Rectángulo 464970" width="59.495" height="59.498" fill="#344866"/>
    </clipPath>
  </defs>
  <g id="Grupo_1212387" data-name="Grupo 1212387" transform="translate(-602 -15094.711)">
    <g id="Grupo_1211600" data-name="Grupo 1211600" transform="translate(422.266 9573.869)">
      <rect id="Rectángulo_402006" data-name="Rectángulo 402006" width="85" height="85" rx="5" transform="translate(179.734 5520.842)" fill="#69d7e5"/>
      <g id="Grupo_1212067" data-name="Grupo 1212067" transform="translate(193.487 5535.842)">
        <g id="Grupo_1212066" data-name="Grupo 1212066" clip-path="url(#clip-path)">
          <path id="Trazado_1284055" data-name="Trazado 1284055" d="M58.645,29.01a19.428,19.428,0,0,1-9.654-3.8l-.049-.035L41.257,25.1,41.164,6.8c-.018-3.621-8.654-5.522-8.741-5.541A56.121,56.121,0,0,0,8.97,1.217,19.1,19.1,0,0,0,2.489,3.654C.843,4.684.008,5.74.008,6.793L0,45.847c0,1.18.98,1.972,1.768,2.608.212.171.413.333.583.492l.035.026C10.3,53.5,24.723,53.124,32.532,51.407a23.681,23.681,0,0,0,10.875,7.916,2.918,2.918,0,0,0,.976.176,3.457,3.457,0,0,0,1.124-.209c6.54-2.1,13.881-9.42,13.916-16.085l.071-13.22a1.059,1.059,0,0,0-.85-.974m-1.2,1.935L57.422,42.6a12.5,12.5,0,0,1-2.168,6.592A21.491,21.491,0,0,1,44.42,57.47a21.048,21.048,0,0,1-10.8-8.14,12.453,12.453,0,0,1-2.251-6.671l-.025-11.7a21.7,21.7,0,0,0,9.227-3.777l7.64-.005a21.455,21.455,0,0,0,9.24,3.772m-26.124-6.8a54.214,54.214,0,0,1-21.837-.086c-1.979-.414-7.415-2.107-7.424-3.9l-.049-9.483c5.588,3.486,14.563,3.919,19.469,3.863,5.433-.086,12.856-.829,17.679-3.853l-.037,9.455c-.007,1.832-5.36,3.517-7.8,4m-2.008,5.843-.033,7.248c-7.916,1.192-18.766.906-25.331-2.418-.169-.134-.357-.261-.555-.4-.657-.446-1.337-.907-1.34-1.613l-.04-9.446c4.2,2.6,10.2,3.482,14.534,3.759a59.554,59.554,0,0,0,15.465-1,22.259,22.259,0,0,0,7.121-2.754,9.641,9.641,0,0,1,0,2.288A18.912,18.912,0,0,1,30.208,29a.99.99,0,0,0-.893.986m9.708-22.1c-.91,1.748-5.583,3.108-7.148,3.446-7.93,1.715-19.785,1.751-27.1-1.5A6.877,6.877,0,0,1,2.435,8.227a1.265,1.265,0,0,1-.385-1.3c.642-1.969,6.269-3.5,7.628-3.775a55,55,0,0,1,21.708-.026c2.305.459,6.88,1.837,7.692,3.767a1.105,1.105,0,0,1-.055.99M2.034,36.041c6.917,4.374,19.909,4.375,27.208,3.28l.1,4.076A13.165,13.165,0,0,0,31.3,49.512C23.721,51.2,9.562,51.082,3.235,47.026c-.078-.07-.162-.141-.247-.214-.45-.382-.961-.816-.96-1.38Z" transform="translate(0 0)" fill="#344866"/>
          <path id="Trazado_1284056" data-name="Trazado 1284056" d="M37.861,90.666c-1.471-.265-2.71-.543-3.9-.874a1.046,1.046,0,0,0-1.33.6,1.093,1.093,0,0,0,.053.827.949.949,0,0,0,.568.489,33.118,33.118,0,0,0,3.835.926l.657.132.035-.006a1.126,1.126,0,0,0,1-1.063,1.078,1.078,0,0,0-.922-1.032" transform="translate(-26.334 -72.546)" fill="#344866"/>
          <path id="Trazado_1284057" data-name="Trazado 1284057" d="M37.96,156.865c-.307-.064-.612-.125-.916-.186-1.077-.216-2.094-.42-3.137-.738a1.084,1.084,0,0,0-.871.087,1.036,1.036,0,0,0-.49.679,1.024,1.024,0,0,0,.768,1.208,29.276,29.276,0,0,0,4.377.963l.027,0,.028,0a1.022,1.022,0,0,0,.213-2.013" transform="translate(-26.289 -126.018)" fill="#344866"/>
          <path id="Trazado_1284058" data-name="Trazado 1284058" d="M33.324,224.156a34.3,34.3,0,0,0,4.076.922,1.478,1.478,0,0,0,.241.02,1.2,1.2,0,0,0,.725-.227.929.929,0,0,0,.368-.653,1.033,1.033,0,0,0-.889-1.143c-1.375-.237-2.6-.532-4.013-.9a1.01,1.01,0,0,0-1.3.877,1.054,1.054,0,0,0,.79,1.107" transform="translate(-26.295 -179.569)" fill="#344866"/>
          <path id="Trazado_1284059" data-name="Trazado 1284059" d="M185.2,148.154l-6.854,0-.048.031a24.588,24.588,0,0,1-7.691,3.415,1.01,1.01,0,0,0-.665,1.008l.072,10.361a10.118,10.118,0,0,0,1.9,5.271,19.3,19.3,0,0,0,9.812,7.714l.06.021.061-.019c5.4-1.674,11.7-7.881,11.724-13.375l.046-9.975a1.1,1.1,0,0,0-.869-1.063,24.072,24.072,0,0,1-7.5-3.357Zm-.59,2.054a25.885,25.885,0,0,0,6.95,3.166l-.015,8.8a9.733,9.733,0,0,1-1.558,4.85,17.735,17.735,0,0,1-8.184,6.752,17.271,17.271,0,0,1-8.361-6.919,9.377,9.377,0,0,1-1.436-4.437l-.025-9.028a26.753,26.753,0,0,0,6.934-3.187Z" transform="translate(-137.382 -119.764)" fill="#344866"/>
          <path id="Trazado_1284060" data-name="Trazado 1284060" d="M204.716,183.164l.175,0a6.376,6.376,0,0,0,6.171-6.2c.061-2.068.058-4.049-.012-6.232-.026-.833-.618-.842-1.01-.848-.244,0-.474-.007-.6-.147a1.273,1.273,0,0,1-.12-.917,4.989,4.989,0,0,0-1.189-3.871,4.554,4.554,0,0,0-3.426-1.521h-.016a4.511,4.511,0,0,0-3.339,1.449,4.883,4.883,0,0,0-1.268,3.745c0,.046.008.1.014.153.03.322.087.923-.153,1.006a1.985,1.985,0,0,1-.394.058c-.448.039-1.124.1-1.149.754-.1,2.632-.107,4.668-.015,6.6a6.343,6.343,0,0,0,6.328,5.976M202.25,167.4a2.5,2.5,0,0,1,2.476-1.908,2.745,2.745,0,0,1,.325.019c2.136.255,2.406,2.42,2.234,4.263l-5.069.041a7.817,7.817,0,0,1,.035-2.415m-1.839,9.439,0-4.977,8.576,0,.013,4.9a4.278,4.278,0,0,1-1.28,3.114A4.331,4.331,0,0,1,204.7,181.1h-.012a4.331,4.331,0,0,1-3.039-1.258,4.2,4.2,0,0,1-1.236-3" transform="translate(-160.32 -132.109)" fill="#344866"/>
          <path id="Trazado_1284061" data-name="Trazado 1284061" d="M223.963,219.328a2.154,2.154,0,0,0,.307,1.545.939.939,0,0,0,.7.261h0a.949.949,0,0,0,.709-.265,2.276,2.276,0,0,0,.329-1.633,2.157,2.157,0,0,1,.107-1.024,1.647,1.647,0,0,0-.076-2.316,1.582,1.582,0,0,0-2.254.113,1.654,1.654,0,0,0,.046,2.206,2.226,2.226,0,0,1,.127,1.112" transform="translate(-180.587 -174.19)" fill="#344866"/>
        </g>
      </g>
    </g>
  </g>
</svg>
