<svg xmlns="http://www.w3.org/2000/svg" xmlns:xlink="http://www.w3.org/1999/xlink" width="85" height="85" viewBox="0 0 85 85">
  <defs>
    <clipPath id="clip-path">
      <rect id="Rectángulo_464982" data-name="Rectángulo 464982" width="60.435" height="60.512" fill="#344866"/>
    </clipPath>
  </defs>
  <g id="Grupo_1212394" data-name="Grupo 1212394" transform="translate(-290 -12812.4)">
    <g id="Grupo_1211671" data-name="Grupo 1211671" transform="translate(110.266 7291.558)">
      <rect id="Rectángulo_402006" data-name="Rectángulo 402006" width="85" height="85" rx="5" transform="translate(179.734 5520.842)" fill="#69d7e5"/>
      <g id="Grupo_1212075" data-name="Grupo 1212075" transform="translate(194.734 5532.085)">
        <g id="Grupo_1212074" data-name="Grupo 1212074" clip-path="url(#clip-path)">
          <path id="Trazado_1284081" data-name="Trazado 1284081" d="M188.494,62.451c-1.724.267-3.506.414-4.708-.673-.616-.557-.575-1.573-.671-2.392-1.309-.556-1.37-2.067-1.809-3.1-.415-.979-1.591-1.449-1.433-2.893.382-3.478-.953-6.526-2.62-9.455a10.408,10.408,0,0,1,2.631-12.928,10.629,10.629,0,0,1,13.47-.115,10.415,10.415,0,0,1,2.723,13.167c-1.625,2.813-2.922,5.795-2.542,9.133.17,1.49-1,2.081-1.377,3.05a8.337,8.337,0,0,1-1.676,3.241c-.649.7-.132,2.682-1.988,2.969m-1.13-22.01a1.562,1.562,0,0,0,.051-.622,3.226,3.226,0,0,1,3-3.738,3.188,3.188,0,0,1,3.42,3.229,3.249,3.249,0,0,1-3.5,3.18,1.78,1.78,0,0,0-.967.129v8.535a12.089,12.089,0,0,0,2.251,0c.079-3.014,1.306-5.5,2.778-8.068a8.491,8.491,0,0,0-2.228-10.655,8.687,8.687,0,0,0-10.91-.023,8.49,8.49,0,0,0-2.218,10.75,16.964,16.964,0,0,1,2.754,8.017,12.793,12.793,0,0,0,2.245-.036l.015-8.557a3.414,3.414,0,0,0-1.111-.091,3.22,3.22,0,0,1-3.37-3.367,3.174,3.174,0,0,1,3.653-3.023c3.366.422,2.621,4.309,2.945,4.42.116.04,1.154.067,1.2-.081m-3.317-.909a1.287,1.287,0,0,0-1.4-1.5,1.213,1.213,0,0,0-1.1,1.478c.211,1.414,2.348,1.075,2.45.888.115-.213.036-.515.05-.865m6.716.986a1.257,1.257,0,0,0,1.1-1.379,1.229,1.229,0,0,0-1.256-1.115,1.2,1.2,0,0,0-1.233,1.038,5.154,5.154,0,0,0,.016,1.44,5.129,5.129,0,0,0,1.368.016m-3.35,10.505-.016-8.452a2.4,2.4,0,0,0-1.377.024v8.435a1.19,1.19,0,0,0,1.4-.006m3.295,3.337a.753.753,0,0,0,.708-.365c.089-.176.2-.827-.119-.827l-9.144,0c-.369,0-.267.649-.175.86s.38.335.768.335ZM189.165,57.5a.761.761,0,0,0,.713-.4c.068-.183.183-.778-.138-.775-2.078.022-4.128-.116-6.136.066-.287.039-.119,1.093.3,1.094Zm-.9,2.725c.064-.17.146-.7-.087-.711a11.435,11.435,0,0,0-2.978.054c-.282.064-.1.982.277,1.025.769.087,2.56.241,2.788-.367" transform="translate(-141.838 -23.001)" fill="#344866"/>
          <path id="Trazado_1284082" data-name="Trazado 1284082" d="M265.493,14.949a1.04,1.04,0,0,1-1.337.5.963.963,0,0,1-.422-1.364l1.078-1.866a.991.991,0,0,1,1.331-.467.951.951,0,0,1,.421,1.312Z" transform="translate(-212.417 -9.383)" fill="#344866"/>
          <path id="Trazado_1284083" data-name="Trazado 1284083" d="M154.177,44.755a.976.976,0,1,1-1.065,1.635l-1.835-1.069a.991.991,0,0,1-.378-1.368.981.981,0,0,1,1.4-.289Z" transform="translate(-121.488 -35.047)" fill="#344866"/>
          <path id="Trazado_1284084" data-name="Trazado 1284084" d="M294.585,45.267c-1.415.9-2.65,1.849-3.3.787s1.164-1.832,2.358-2.465a.945.945,0,0,1,1.287.393.968.968,0,0,1-.343,1.285" transform="translate(-234.611 -35.031)" fill="#344866"/>
          <path id="Trazado_1284085" data-name="Trazado 1284085" d="M185.628,14.078a.955.955,0,0,1-.266,1.274.977.977,0,0,1-1.416-.315c-.544-.99-2.005-2.762-.664-3.325a.969.969,0,0,1,1.238.447Z" transform="translate(-147.25 -9.376)" fill="#344866"/>
          <path id="Trazado_1284086" data-name="Trazado 1284086" d="M227.9.888c.141,1.441.289,3.224-.919,3.306a.948.948,0,0,1-.994-1.01l-.008-2.1a1.008,1.008,0,0,1,.849-1.074A.964.964,0,0,1,227.9.888" transform="translate(-182.1 0.001)" fill="#344866"/>
          <path id="Trazado_1284087" data-name="Trazado 1284087" d="M36.431,111.666c-4.655-.019-9.035.362-13.163,2.58-4-2.286-8.774-2.589-13.193-2.583a1.017,1.017,0,0,1-1.068-.916L8.949,100.2C6.372,99.9.407,98.837,0,95.743L.033,71.4c0-1.992,3.331-3.3,5-3.714a34.6,34.6,0,0,1,16.558-.007c1.745.429,5.017,1.674,5.021,3.825l.031,16.256a38.415,38.415,0,0,1,10.187-.939c.533.019.768.512.8,1.012v22.7a1.091,1.091,0,0,1-1.2,1.129M21.115,73.645c.98-.233,3.535-1.176,3.505-2.047-.035-1.017-2.993-1.94-4-2.16a33.322,33.322,0,0,0-14.875.075c-.938.223-3.783,1.182-3.752,2.095.03.88,2.73,1.844,3.636,2.059a33.475,33.475,0,0,0,15.484-.022m3.4,6.161c.416-1.9.041-3.621.14-5.423-6.033,2.9-16.824,2.786-22.7.006.122,1.86-.215,3.62.123,5.392.529.9,1.96,1.414,3.038,1.7a31.706,31.706,0,0,0,16.3.038c1.033-.271,2.632-.777,3.1-1.716m-2.195,8.637c.736.239,1.857.257,2.285-.262l.037-5.811c-5.809,2.829-16.789,2.884-22.66-.033a44.438,44.438,0,0,0,.068,5.37c.161,1.232,5.493,2.521,6.864,2.537.377-1.622-.665-3.41,1.315-3.443a36.389,36.389,0,0,1,12.092,1.643m-.013,23.046.02-21a33.934,33.934,0,0,0-11.39-1.719l.008,20.966a34.168,34.168,0,0,1,11.362,1.758m13.359-1.775V88.77a34.074,34.074,0,0,0-11.4,1.711l.013,21.084a32.123,32.123,0,0,1,11.387-1.851M8.982,98.151,8.948,92.22a21.593,21.593,0,0,1-6.977-1.909,47.778,47.778,0,0,0,.082,5.36c.175,1.252,5.721,2.658,6.93,2.48" transform="translate(0 -53.734)" fill="#344866"/>
          <path id="Trazado_1284088" data-name="Trazado 1284088" d="M138.56,231.439a34.956,34.956,0,0,0-7.666,1.185.959.959,0,0,1-.509-1.846,30.138,30.138,0,0,1,7.894-1.243.931.931,0,0,1,.988.695c.092.406-.04,1.175-.707,1.209" transform="translate(-104.549 -184.965)" fill="#344866"/>
          <path id="Trazado_1284089" data-name="Trazado 1284089" d="M138.23,270.854a30.484,30.484,0,0,0-7.3,1.149.94.94,0,0,1-1.154-.742.973.973,0,0,1,.691-1.125,30.354,30.354,0,0,1,7.812-1.237.928.928,0,0,1,1.033.813,1,1,0,0,1-1.086,1.141" transform="translate(-104.569 -216.685)" fill="#344866"/>
          <path id="Trazado_1284090" data-name="Trazado 1284090" d="M138.36,211.812a34.512,34.512,0,0,0-7.476,1.122.949.949,0,0,1-1.119-.724,1,1,0,0,1,.781-1.181,32.764,32.764,0,0,1,7.719-1.151.968.968,0,1,1,.1,1.934" transform="translate(-104.551 -169.125)" fill="#344866"/>
          <path id="Trazado_1284091" data-name="Trazado 1284091" d="M138.362,251.312a30.582,30.582,0,0,0-7.478,1.161.969.969,0,0,1-.384-1.9,28.4,28.4,0,0,1,7.974-1.177.873.873,0,0,1,.848.905.967.967,0,0,1-.96,1.009" transform="translate(-104.563 -200.971)" fill="#344866"/>
          <path id="Trazado_1284092" data-name="Trazado 1284092" d="M138.3,192.236a33.042,33.042,0,0,0-7.366,1.06.938.938,0,0,1-1.14-.723.958.958,0,0,1,.679-1.137,31.335,31.335,0,0,1,7.833-1.143.942.942,0,0,1,1.03.921.965.965,0,0,1-1.037,1.022" transform="translate(-104.58 -153.343)" fill="#344866"/>
          <path id="Trazado_1284093" data-name="Trazado 1284093" d="M69.436,272a31.522,31.522,0,0,0-7.357-1.154,1.037,1.037,0,0,1-1.1-.947.982.982,0,0,1,1.113-1.01,31.339,31.339,0,0,1,7.69,1.217.992.992,0,0,1,.758,1.126.929.929,0,0,1-1.108.769" transform="translate(-49.14 -216.672)" fill="#344866"/>
          <path id="Trazado_1284094" data-name="Trazado 1284094" d="M69.414,232.606a32.393,32.393,0,0,0-7.491-1.146.95.95,0,0,1-.917-1.044.986.986,0,0,1,1.1-.894,31.869,31.869,0,0,1,7.744,1.2.993.993,0,0,1,.719,1.018.948.948,0,0,1-1.155.861" transform="translate(-49.159 -184.954)" fill="#344866"/>
          <path id="Trazado_1284095" data-name="Trazado 1284095" d="M69.378,193.279a32.919,32.919,0,0,0-7.451-1.073.98.98,0,0,1-.943-1.009.961.961,0,0,1,1.108-.925,31.459,31.459,0,0,1,7.82,1.161.946.946,0,0,1,.624,1.095.934.934,0,0,1-1.159.751" transform="translate(-49.141 -153.325)" fill="#344866"/>
          <path id="Trazado_1284096" data-name="Trazado 1284096" d="M69.375,212.934a32.692,32.692,0,0,0-7.287-1.1c-.641-.021-1.084-.343-1.1-.941a.967.967,0,0,1,.947-1.008,32.316,32.316,0,0,1,7.844,1.154,1,1,0,0,1,.779,1,.949.949,0,0,1-1.18.894" transform="translate(-49.141 -169.133)" fill="#344866"/>
          <path id="Trazado_1284097" data-name="Trazado 1284097" d="M69.349,252.4a29.626,29.626,0,0,0-7.421-1.156,1,1,0,0,1-.947-1.013.953.953,0,0,1,1.107-.917,29.809,29.809,0,0,1,7.766,1.207.992.992,0,0,1,.67,1.178.975.975,0,0,1-1.175.7" transform="translate(-49.139 -200.905)" fill="#344866"/>
          <path id="Trazado_1284098" data-name="Trazado 1284098" d="M17.765,120.644a1.371,1.371,0,1,1-1.37-1.37,1.371,1.371,0,0,1,1.37,1.37" transform="translate(-12.107 -96.114)" fill="#344866"/>
          <path id="Trazado_1284099" data-name="Trazado 1284099" d="M17.76,161.709a1.372,1.372,0,1,1-1.372-1.372,1.372,1.372,0,0,1,1.372,1.372" transform="translate(-12.1 -129.204)" fill="#344866"/>
          <path id="Trazado_1284100" data-name="Trazado 1284100" d="M17.755,203.06a1.373,1.373,0,1,1-1.373-1.373,1.373,1.373,0,0,1,1.373,1.373" transform="translate(-12.095 -162.524)" fill="#344866"/>
        </g>
      </g>
    </g>
  </g>
</svg>
