<svg xmlns="http://www.w3.org/2000/svg" xmlns:xlink="http://www.w3.org/1999/xlink" width="160" height="160" viewBox="0 0 160 160">
  <defs>
    <clipPath id="clip-path">
      <rect id="Rectángulo_454829" data-name="Rectángulo 454829" width="160" height="160" fill="#1e535a"/>
    </clipPath>
    <clipPath id="clip-path-2">
      <rect id="Rectángulo_465029" data-name="Rectángulo 465029" width="74.835" height="74.405" fill="#1e535a"/>
    </clipPath>
  </defs>
  <g id="Grupo_1211651" data-name="Grupo 1211651" transform="translate(-186 -4323.945)">
    <g id="Grupo_1177591" data-name="Grupo 1177591" transform="translate(186 4323.945)">
      <g id="Grupo_1177589" data-name="Grupo 1177589" transform="translate(0 0)">
        <g id="Grupo_1177587" data-name="Grupo 1177587" clip-path="url(#clip-path)">
          <path id="Trazado_997422" data-name="Trazado 997422" d="M153.468,70.818A73.56,73.56,0,0,0,136.851,32.54a8.46,8.46,0,0,0-11.9-11.4A73.452,73.452,0,0,0,86.919,6.283a8.462,8.462,0,0,0-16.435.334A73.553,73.553,0,0,0,34,22.215,8.464,8.464,0,0,0,22.249,34.043a73.492,73.492,0,0,0-15.4,36.7,8.467,8.467,0,0,0-.2,16.582,73.47,73.47,0,0,0,14.914,37.446,8.463,8.463,0,0,0,11.5,11.95,73.548,73.548,0,0,0,37.353,16.337A8.464,8.464,0,0,0,87,153.4a73.485,73.485,0,0,0,38.308-15.134,8.462,8.462,0,0,0,11.845-11.456,73.578,73.578,0,0,0,16.515-39.558,8.464,8.464,0,0,0-.2-16.43m-23.9-34.11a8.416,8.416,0,0,0,4.687-1.419A69.855,69.855,0,0,1,149.671,70.8a8.476,8.476,0,0,0-5.409,3.919L122.63,66.6c.017-.236.034-.477.034-.722a8.465,8.465,0,0,0-3.585-6.917l9.463-22.325a9.168,9.168,0,0,0,1.026.068m-4.573-1.347-9.4,22.177a8.377,8.377,0,0,0-9.324,5.384L67.131,53.906a8.235,8.235,0,0,0-.177-1.685l55.536-19.34a8.491,8.491,0,0,0,2.5,2.479M78.744,16.941a8.471,8.471,0,0,0,8.314-6.87,69.74,69.74,0,0,1,35.263,13.791,8.424,8.424,0,0,0-1.225,4.375,8.893,8.893,0,0,0,.08,1.119L65.362,48.788a8.5,8.5,0,0,0-1.533-1.533l14.64-30.327c.093,0,.182.013.274.013M70.505,10.4a8.472,8.472,0,0,0,4.261,5.544L60.413,45.672a8.494,8.494,0,0,0-1.748-.182,8.409,8.409,0,0,0-4.826,1.516L36.826,32.8A8.42,8.42,0,0,0,36.538,25,69.8,69.8,0,0,1,70.505,10.4M16.734,77.219,51.922,59.07A8.439,8.439,0,0,0,58.6,62.427l12.06,38.548a8.609,8.609,0,0,0-1.866,2.065L16.629,81.307a8.414,8.414,0,0,0,.312-2.246,8.512,8.512,0,0,0-.207-1.841m8.31-40.651a8.464,8.464,0,0,0,9.454-.807L51.3,49.789a8.447,8.447,0,0,0-.933,5.853L15.117,73.816a8.468,8.468,0,0,0-4.484-2.939A69.764,69.764,0,0,1,25.044,36.568m3.5,84.529a8.445,8.445,0,0,0-4.206,1.123A69.7,69.7,0,0,1,10.438,87.29a8.478,8.478,0,0,0,4.4-2.652l52.682,21.949a9.082,9.082,0,0,0-.068,1.018,8.469,8.469,0,0,0,.507,2.863L36.1,125.733a8.469,8.469,0,0,0-7.546-4.636m42.032,28.195a69.865,69.865,0,0,1-34.854-15.248,8.382,8.382,0,0,0,1.292-4.476l0-.1L70,113.661a8.47,8.47,0,0,0,2.99,1.888l1.976,28.406a8.47,8.47,0,0,0-4.387,5.337M74.09,99.342l-11.8-37.733a8.482,8.482,0,0,0,4.024-4.024l39.452,9.083a8.42,8.42,0,0,0,1.347,3.851l-27.059,29.7a8.366,8.366,0,0,0-5.962-.874m12.9,50.279a8.468,8.468,0,0,0-8.247-6.562l-.063,0L76.8,116.034a8.455,8.455,0,0,0,5.177-2.512l39.444,17.4c0,.076-.013.144-.013.22a8.428,8.428,0,0,0,1.254,4.417A69.736,69.736,0,0,1,86.991,149.62m35.381-22.4-38.418-16.95a8.42,8.42,0,0,0-1.111-7.533l26.978-29.613a8.42,8.42,0,0,0,4.37,1.225,9.324,9.324,0,0,0,1.039-.068l10.084,49.726a8.451,8.451,0,0,0-2.943,3.213m12.153-3.167a8.419,8.419,0,0,0-5.629-1.33L118.808,72.98a8.5,8.5,0,0,0,2.669-2.787L143.1,78.3a7.511,7.511,0,0,0-.038.76,8.467,8.467,0,0,0,6.807,8.3,69.793,69.793,0,0,1-15.341,36.695" transform="translate(0 0.002)" fill="#1e535a"/>
        </g>
      </g>
    </g>
    <g id="Elipse_13614" data-name="Elipse 13614" transform="translate(210.273 4348.213)" fill="#fff" stroke="#1e535a" stroke-width="3">
      <ellipse cx="55.732" cy="55.733" rx="55.732" ry="55.733" stroke="none"/>
      <ellipse cx="55.732" cy="55.733" rx="54.232" ry="54.233" fill="none"/>
    </g>
    <g id="Grupo_1212133" data-name="Grupo 1212133" transform="translate(228.587 4366.743)">
      <g id="Grupo_1212132" data-name="Grupo 1212132" clip-path="url(#clip-path-2)">
        <path id="Trazado_1284331" data-name="Trazado 1284331" d="M171.145,38.753l2.324-10.89a17.5,17.5,0,1,1,8.876,6.328ZM195.844,22l-4.453-4.587,4.207-4.28a2.889,2.889,0,0,0,.349-3.768,2.682,2.682,0,0,0-3.871-.187l-4.52,4.413-4.264-4.224a2.763,2.763,0,0,0-4.223.143,2.905,2.905,0,0,0,.45,3.615l4.216,4.252-4.509,4.693a2.6,2.6,0,0,0,3.7,3.643l4.639-4.477,4.621,4.477a2.629,2.629,0,0,0,3.617-.094A2.7,2.7,0,0,0,195.844,22" transform="translate(-130.219 0)" fill="#1e535a"/>
        <path id="Trazado_1284332" data-name="Trazado 1284332" d="M63.561,169.31a1.212,1.212,0,0,0-1.317,1.083,1.151,1.151,0,0,0,1.183,1.3l5.145.026a3.344,3.344,0,1,1,0,6.688l-14.267.059,4.312,5.284a4.181,4.181,0,0,1-.669,5.931A4.225,4.225,0,0,1,52,188.926L44.721,180.1a8.025,8.025,0,0,0-1.877-1.729l.017-23.021c2-1.784,3.82-3.621,6.75-3.619l16.157.012a3.263,3.263,0,0,1,2.954,4.167l-7.629.049a1.171,1.171,0,0,0-1.186,1.073,1.137,1.137,0,0,0,1.176,1.294l6.785.036A3.276,3.276,0,0,1,71,162.584l-8.41.06a1.193,1.193,0,0,0,.148,2.381l7.5.013a3.333,3.333,0,0,1,2.658,1.254,3.178,3.178,0,0,1,.583,2.97Z" transform="translate(-32.804 -116.178)" fill="#1e535a"/>
        <rect id="Rectángulo_465028" data-name="Rectángulo 465028" width="7.613" height="25.407" transform="translate(0 38.035)" fill="#1e535a"/>
      </g>
    </g>
  </g>
</svg>
