<svg xmlns="http://www.w3.org/2000/svg" xmlns:xlink="http://www.w3.org/1999/xlink" width="160" height="160" viewBox="0 0 160 160">
  <defs>
    <clipPath id="clip-path">
      <rect id="Rectángulo_454829" data-name="Rectángulo 454829" width="160" height="160" fill="#1e535a"/>
    </clipPath>
    <clipPath id="clip-path-2">
      <rect id="Rectángulo_465040" data-name="Rectángulo 465040" width="65.853" height="56.328" fill="#1e535a"/>
    </clipPath>
  </defs>
  <g id="Grupo_1211764" data-name="Grupo 1211764" transform="translate(-186 -4323.945)">
    <g id="Grupo_1177591" data-name="Grupo 1177591" transform="translate(186 4323.945)">
      <g id="Grupo_1177589" data-name="Grupo 1177589" transform="translate(0 0)">
        <g id="Grupo_1177587" data-name="Grupo 1177587" clip-path="url(#clip-path)">
          <path id="Trazado_997422" data-name="Trazado 997422" d="M153.468,70.818A73.56,73.56,0,0,0,136.851,32.54a8.46,8.46,0,0,0-11.9-11.4A73.452,73.452,0,0,0,86.919,6.283a8.462,8.462,0,0,0-16.435.334A73.553,73.553,0,0,0,34,22.215,8.464,8.464,0,0,0,22.249,34.043a73.492,73.492,0,0,0-15.4,36.7,8.467,8.467,0,0,0-.2,16.582,73.47,73.47,0,0,0,14.914,37.446,8.463,8.463,0,0,0,11.5,11.95,73.548,73.548,0,0,0,37.353,16.337A8.464,8.464,0,0,0,87,153.4a73.485,73.485,0,0,0,38.308-15.134,8.462,8.462,0,0,0,11.845-11.456,73.578,73.578,0,0,0,16.515-39.558,8.464,8.464,0,0,0-.2-16.43m-23.9-34.11a8.416,8.416,0,0,0,4.687-1.419A69.855,69.855,0,0,1,149.671,70.8a8.476,8.476,0,0,0-5.409,3.919L122.63,66.6c.017-.236.034-.477.034-.722a8.465,8.465,0,0,0-3.585-6.917l9.463-22.325a9.168,9.168,0,0,0,1.026.068m-4.573-1.347-9.4,22.177a8.377,8.377,0,0,0-9.324,5.384L67.131,53.906a8.235,8.235,0,0,0-.177-1.685l55.536-19.34a8.491,8.491,0,0,0,2.5,2.479M78.744,16.941a8.471,8.471,0,0,0,8.314-6.87,69.74,69.74,0,0,1,35.263,13.791,8.424,8.424,0,0,0-1.225,4.375,8.893,8.893,0,0,0,.08,1.119L65.362,48.788a8.5,8.5,0,0,0-1.533-1.533l14.64-30.327c.093,0,.182.013.274.013M70.505,10.4a8.472,8.472,0,0,0,4.261,5.544L60.413,45.672a8.494,8.494,0,0,0-1.748-.182,8.409,8.409,0,0,0-4.826,1.516L36.826,32.8A8.42,8.42,0,0,0,36.538,25,69.8,69.8,0,0,1,70.505,10.4M16.734,77.219,51.922,59.07A8.439,8.439,0,0,0,58.6,62.427l12.06,38.548a8.609,8.609,0,0,0-1.866,2.065L16.629,81.307a8.414,8.414,0,0,0,.312-2.246,8.512,8.512,0,0,0-.207-1.841m8.31-40.651a8.464,8.464,0,0,0,9.454-.807L51.3,49.789a8.447,8.447,0,0,0-.933,5.853L15.117,73.816a8.468,8.468,0,0,0-4.484-2.939A69.764,69.764,0,0,1,25.044,36.568m3.5,84.529a8.445,8.445,0,0,0-4.206,1.123A69.7,69.7,0,0,1,10.438,87.29a8.478,8.478,0,0,0,4.4-2.652l52.682,21.949a9.082,9.082,0,0,0-.068,1.018,8.469,8.469,0,0,0,.507,2.863L36.1,125.733a8.469,8.469,0,0,0-7.546-4.636m42.032,28.195a69.865,69.865,0,0,1-34.854-15.248,8.382,8.382,0,0,0,1.292-4.476l0-.1L70,113.661a8.47,8.47,0,0,0,2.99,1.888l1.976,28.406a8.47,8.47,0,0,0-4.387,5.337M74.09,99.342l-11.8-37.733a8.482,8.482,0,0,0,4.024-4.024l39.452,9.083a8.42,8.42,0,0,0,1.347,3.851l-27.059,29.7a8.366,8.366,0,0,0-5.962-.874m12.9,50.279a8.468,8.468,0,0,0-8.247-6.562l-.063,0L76.8,116.034a8.455,8.455,0,0,0,5.177-2.512l39.444,17.4c0,.076-.013.144-.013.22a8.428,8.428,0,0,0,1.254,4.417A69.736,69.736,0,0,1,86.991,149.62m35.381-22.4-38.418-16.95a8.42,8.42,0,0,0-1.111-7.533l26.978-29.613a8.42,8.42,0,0,0,4.37,1.225,9.324,9.324,0,0,0,1.039-.068l10.084,49.726a8.451,8.451,0,0,0-2.943,3.213m12.153-3.167a8.419,8.419,0,0,0-5.629-1.33L118.808,72.98a8.5,8.5,0,0,0,2.669-2.787L143.1,78.3a7.511,7.511,0,0,0-.038.76,8.467,8.467,0,0,0,6.807,8.3,69.793,69.793,0,0,1-15.341,36.695" transform="translate(0 0.002)" fill="#1e535a"/>
        </g>
      </g>
    </g>
    <g id="Elipse_13614" data-name="Elipse 13614" transform="translate(210.273 4348.213)" fill="#fff" stroke="#1e535a" stroke-width="3">
      <ellipse cx="55.732" cy="55.733" rx="55.732" ry="55.733" stroke="none"/>
      <ellipse cx="55.732" cy="55.733" rx="54.232" ry="54.233" fill="none"/>
    </g>
    <g id="Grupo_1212151" data-name="Grupo 1212151" transform="translate(233.078 4375.781)">
      <g id="Grupo_1212150" data-name="Grupo 1212150" clip-path="url(#clip-path-2)">
        <path id="Trazado_1284367" data-name="Trazado 1284367" d="M40.85,204.982l23.75-.054c1.518,0,1.277,2.25,1.173,3.772a4.674,4.674,0,0,1-4.709,4.443l-56.277,0A4.682,4.682,0,0,1,.08,208.7c-.105-1.561-.345-3.767,1.176-3.765l23.665.025c1.863,0-.153,3.49,2.37,3.49H38.562c2.49,0,.575-3.465,2.288-3.469" transform="translate(0 -156.817)" fill="#1e535a"/>
        <path id="Trazado_1284368" data-name="Trazado 1284368" d="M59.321,24.6l-2.7-4.642,15.05-.064a4.684,4.684,0,0,1,4.915,4.719L76.6,59.823H20.254l.033-35.437A4.613,4.613,0,0,1,24.93,19.9l15.321.014-2.688,4.667-12.617.024.006,30.522H71.9l.006-30.525Z" transform="translate(-15.499 -15.225)" fill="#1e535a"/>
        <path id="Trazado_1284369" data-name="Trazado 1284369" d="M95.535,32.849l-32.913.008A2.277,2.277,0,0,1,60.645,31.8a2.317,2.317,0,0,1-.1-2.428L77.066,1.129A2.195,2.195,0,0,1,78.919,0a2.231,2.231,0,0,1,2.072,1.125L97.515,29.369a2.313,2.313,0,0,1-.033,2.3,2.18,2.18,0,0,1-1.947,1.179M80.762,20.856l.545-12.621c.066-1.536-2.1-1.248-3.464-1.19A1.143,1.143,0,0,0,76.75,8.237l.565,12.641a5.193,5.193,0,0,0,3.447-.021m1.192,5.534a2.927,2.927,0,1,0-2.927,2.927,2.927,2.927,0,0,0,2.927-2.927" transform="translate(-46.102 -0.001)" fill="#1e535a"/>
      </g>
    </g>
  </g>
</svg>
