<svg xmlns="http://www.w3.org/2000/svg" xmlns:xlink="http://www.w3.org/1999/xlink" width="396" height="344" viewBox="0 0 396 344">
  <defs>
    <clipPath id="clip-path">
      <rect id="Rectángulo_464506" data-name="Rectángulo 464506" width="396" height="344" transform="translate(290 12218)" fill="#ffe79e" stroke="#707070" stroke-width="1"/>
    </clipPath>
    <clipPath id="clip-path-2">
      <rect id="Rectángulo_464818" data-name="Rectángulo 464818" width="380.187" height="386.613" fill="none"/>
    </clipPath>
    <clipPath id="clip-path-3">
      <rect id="Rectángulo_464817" data-name="Rectángulo 464817" width="353.096" height="353.096" fill="none"/>
    </clipPath>
    <clipPath id="clip-path-4">
      <rect id="Rectángulo_464812" data-name="Rectángulo 464812" width="16.086" height="18.973" fill="none"/>
    </clipPath>
    <clipPath id="clip-path-5">
      <rect id="Rectángulo_464813" data-name="Rectángulo 464813" width="6.429" height="6.769" fill="none"/>
    </clipPath>
    <clipPath id="clip-path-6">
      <rect id="Rectángulo_464814" data-name="Rectángulo 464814" width="5.267" height="4.112" fill="none"/>
    </clipPath>
    <clipPath id="clip-path-8">
      <rect id="Rectángulo_464816" data-name="Rectángulo 464816" width="77.632" height="19.011" fill="none"/>
    </clipPath>
  </defs>
  <g id="Enmascarar_grupo_1178589" data-name="Enmascarar grupo 1178589" transform="translate(-290 -12218)" clip-path="url(#clip-path)">
    <g id="Grupo_1211959" data-name="Grupo 1211959" transform="translate(298 12207.739)">
      <g id="Grupo_1211958" data-name="Grupo 1211958" clip-path="url(#clip-path-2)">
        <rect id="Rectángulo_464787" data-name="Rectángulo 464787" width="353.096" height="27.232" transform="translate(4.608 325.864)" fill="#ffe79e"/>
        <g id="Grupo_1211957" data-name="Grupo 1211957" transform="translate(4.608)">
          <g id="Grupo_1211956" data-name="Grupo 1211956" clip-path="url(#clip-path-3)">
            <path id="Trazado_1274687" data-name="Trazado 1274687" d="M363.329,200.065A120.024,120.024,0,1,1,243.306,80.041,120.024,120.024,0,0,1,363.329,200.065" transform="translate(-40.829 -23.517)" fill="#fff7df"/>
            <path id="Trazado_1274688" data-name="Trazado 1274688" d="M175.947,468.926v33.641c0,2.913-24.088,5.281-53.8,5.281s-53.8-2.368-53.8-5.281V468.926Z" transform="translate(-24.69 -137.774)" fill="#b2bdca"/>
            <path id="Trazado_1274689" data-name="Trazado 1274689" d="M167.422,476.4v24.512c0,2.123-17.551,3.848-39.2,3.848s-39.2-1.725-39.2-3.848V476.4Z" transform="translate(-30.764 -139.971)" fill="#9aa9b7"/>
            <path id="Trazado_1274690" data-name="Trazado 1274690" d="M175.944,466.722c0,2.919-24.085,5.284-53.795,5.284s-53.795-2.366-53.795-5.284,24.085-5.284,53.795-5.284,53.795,2.366,53.795,5.284" transform="translate(-24.691 -135.574)" fill="#c3cad1"/>
            <path id="Trazado_1274691" data-name="Trazado 1274691" d="M175.944,468.921c0,2.919-24.085,5.284-53.795,5.284s-53.795-2.366-53.795-5.284" transform="translate(-24.691 -137.773)" fill="none" stroke="#708699" stroke-linecap="round" stroke-miterlimit="10" stroke-width="1"/>
            <path id="Trazado_1274692" data-name="Trazado 1274692" d="M172.192,457.075v5.594c0,2.566-21.208,4.65-47.367,4.65s-47.366-2.085-47.366-4.65v-5.594Z" transform="translate(-27.366 -134.292)" fill="#8699ad"/>
            <path id="Trazado_1274693" data-name="Trazado 1274693" d="M172.189,455.135c0,2.57-21.206,4.653-47.364,4.653S77.46,457.7,77.46,455.135s21.206-4.653,47.365-4.653,47.364,2.083,47.364,4.653" transform="translate(-27.366 -132.355)" fill="#b2bdca"/>
            <path id="Trazado_1274694" data-name="Trazado 1274694" d="M196.255,494.868a3.882,3.882,0,1,1-3.882-3.882,3.882,3.882,0,0,1,3.882,3.882" transform="translate(-59.988 -144.256)" fill="#fff"/>
            <path id="Trazado_1274695" data-name="Trazado 1274695" d="M171.763,494.868a3.882,3.882,0,1,1-3.882-3.882,3.882,3.882,0,0,1,3.882,3.882" transform="translate(-52.792 -144.256)" fill="#fff"/>
            <path id="Trazado_1274696" data-name="Trazado 1274696" d="M147.27,494.868a3.882,3.882,0,1,1-3.882-3.882,3.882,3.882,0,0,1,3.882,3.882" transform="translate(-45.596 -144.256)" fill="#fff"/>
            <path id="Trazado_1274697" data-name="Trazado 1274697" d="M175.947,411.858V445.5c0,2.913-24.088,5.281-53.8,5.281s-53.8-2.368-53.8-5.281V411.858Z" transform="translate(-24.69 -121.007)" fill="#b2bdca"/>
            <path id="Trazado_1274698" data-name="Trazado 1274698" d="M167.422,419.336v24.512c0,2.123-17.551,3.848-39.2,3.848s-39.2-1.725-39.2-3.848V419.336Z" transform="translate(-30.764 -123.204)" fill="#9aa9b7"/>
            <path id="Trazado_1274699" data-name="Trazado 1274699" d="M175.944,409.654c0,2.919-24.085,5.284-53.795,5.284s-53.795-2.366-53.795-5.284,24.085-5.284,53.795-5.284,53.795,2.366,53.795,5.284" transform="translate(-24.691 -118.807)" fill="#c3cad1"/>
            <path id="Trazado_1274700" data-name="Trazado 1274700" d="M175.944,411.853c0,2.919-24.085,5.284-53.795,5.284s-53.795-2.366-53.795-5.284" transform="translate(-24.691 -121.006)" fill="none" stroke="#708699" stroke-linecap="round" stroke-miterlimit="10" stroke-width="1"/>
            <path id="Trazado_1274701" data-name="Trazado 1274701" d="M172.192,400.007V405.6c0,2.566-21.208,4.65-47.367,4.65s-47.366-2.085-47.366-4.65v-5.594Z" transform="translate(-27.366 -117.525)" fill="#8699ad"/>
            <path id="Trazado_1274702" data-name="Trazado 1274702" d="M172.189,398.067c0,2.57-21.206,4.653-47.364,4.653s-47.365-2.083-47.365-4.653,21.206-4.653,47.365-4.653,47.364,2.083,47.364,4.653" transform="translate(-27.366 -115.588)" fill="#b2bdca"/>
            <path id="Trazado_1274703" data-name="Trazado 1274703" d="M196.255,437.8a3.882,3.882,0,1,1-3.882-3.882,3.882,3.882,0,0,1,3.882,3.882" transform="translate(-59.988 -127.489)" fill="#fff"/>
            <path id="Trazado_1274704" data-name="Trazado 1274704" d="M171.763,437.8a3.882,3.882,0,1,1-3.882-3.882,3.882,3.882,0,0,1,3.882,3.882" transform="translate(-52.792 -127.489)" fill="#fff"/>
            <path id="Trazado_1274705" data-name="Trazado 1274705" d="M147.27,437.8a3.882,3.882,0,1,1-3.882-3.882,3.882,3.882,0,0,1,3.882,3.882" transform="translate(-45.596 -127.489)" fill="#fff"/>
            <path id="Trazado_1274706" data-name="Trazado 1274706" d="M175.947,354.791v33.641c0,2.913-24.088,5.281-53.8,5.281s-53.8-2.368-53.8-5.281V354.791Z" transform="translate(-24.69 -104.24)" fill="#b2bdca"/>
            <path id="Trazado_1274707" data-name="Trazado 1274707" d="M167.422,362.269v24.512c0,2.123-17.551,3.848-39.2,3.848s-39.2-1.725-39.2-3.848V362.269Z" transform="translate(-30.764 -106.437)" fill="#9aa9b7"/>
            <path id="Trazado_1274708" data-name="Trazado 1274708" d="M175.944,352.587c0,2.919-24.085,5.284-53.795,5.284s-53.795-2.366-53.795-5.284,24.085-5.284,53.795-5.284,53.795,2.366,53.795,5.284" transform="translate(-24.691 -102.04)" fill="#c3cad1"/>
            <path id="Trazado_1274709" data-name="Trazado 1274709" d="M175.944,354.786c0,2.919-24.085,5.284-53.795,5.284s-53.795-2.366-53.795-5.284" transform="translate(-24.691 -104.239)" fill="none" stroke="#708699" stroke-linecap="round" stroke-miterlimit="10" stroke-width="1"/>
            <path id="Trazado_1274710" data-name="Trazado 1274710" d="M172.192,342.94v5.594c0,2.566-21.208,4.65-47.367,4.65s-47.366-2.085-47.366-4.65V342.94Z" transform="translate(-27.366 -100.758)" fill="#8699ad"/>
            <path id="Trazado_1274711" data-name="Trazado 1274711" d="M172.189,341c0,2.57-21.206,4.653-47.364,4.653S77.46,343.57,77.46,341s21.206-4.653,47.365-4.653,47.364,2.083,47.364,4.653" transform="translate(-27.366 -98.821)" fill="#b2bdca"/>
            <path id="Trazado_1274712" data-name="Trazado 1274712" d="M196.255,380.733a3.882,3.882,0,1,1-3.882-3.882,3.882,3.882,0,0,1,3.882,3.882" transform="translate(-59.988 -110.722)" fill="#fff"/>
            <path id="Trazado_1274713" data-name="Trazado 1274713" d="M171.763,380.733a3.882,3.882,0,1,1-3.882-3.882,3.882,3.882,0,0,1,3.882,3.882" transform="translate(-52.792 -110.722)" fill="#fff"/>
            <path id="Trazado_1274714" data-name="Trazado 1274714" d="M147.27,380.733a3.882,3.882,0,1,1-3.882-3.882,3.882,3.882,0,0,1,3.882,3.882" transform="translate(-45.596 -110.722)" fill="#fff"/>
            <path id="Trazado_1274715" data-name="Trazado 1274715" d="M175.947,297.723v33.641c0,2.913-24.088,5.281-53.8,5.281s-53.8-2.368-53.8-5.281V297.723Z" transform="translate(-24.69 -87.473)" fill="#b2bdca"/>
            <path id="Trazado_1274716" data-name="Trazado 1274716" d="M167.422,305.2v24.512c0,2.123-17.551,3.848-39.2,3.848s-39.2-1.725-39.2-3.848V305.2Z" transform="translate(-30.764 -89.671)" fill="#9aa9b7"/>
            <path id="Trazado_1274717" data-name="Trazado 1274717" d="M175.944,295.519c0,2.919-24.085,5.284-53.795,5.284s-53.795-2.366-53.795-5.284,24.085-5.284,53.795-5.284,53.795,2.366,53.795,5.284" transform="translate(-24.691 -85.273)" fill="#c3cad1"/>
            <path id="Trazado_1274718" data-name="Trazado 1274718" d="M175.944,297.718c0,2.919-24.085,5.284-53.795,5.284s-53.795-2.366-53.795-5.284" transform="translate(-24.691 -87.472)" fill="none" stroke="#708699" stroke-linecap="round" stroke-miterlimit="10" stroke-width="1"/>
            <path id="Trazado_1274719" data-name="Trazado 1274719" d="M196.255,323.666a3.882,3.882,0,1,1-3.882-3.882,3.882,3.882,0,0,1,3.882,3.882" transform="translate(-59.988 -93.955)" fill="#fff"/>
            <path id="Trazado_1274720" data-name="Trazado 1274720" d="M171.763,323.666a3.882,3.882,0,1,1-3.882-3.882,3.882,3.882,0,0,1,3.882,3.882" transform="translate(-52.792 -93.955)" fill="#fff"/>
            <path id="Trazado_1274721" data-name="Trazado 1274721" d="M147.27,323.666a3.882,3.882,0,1,1-3.882-3.882,3.882,3.882,0,0,1,3.882,3.882" transform="translate(-45.596 -93.955)" fill="#fff"/>
            <path id="Trazado_1274722" data-name="Trazado 1274722" d="M157.023,127.278H59.083a5.8,5.8,0,0,1-5.8-5.8V54.513H156.418a6.406,6.406,0,0,1,6.407,6.406v60.557a5.8,5.8,0,0,1-5.8,5.8" transform="translate(-20.262 -16.016)" fill="#efa765"/>
            <path id="Trazado_1274723" data-name="Trazado 1274723" d="M158.688,134.757H61.006a5.8,5.8,0,0,1-5.676-7l9.053-42.708a6.405,6.405,0,0,1,6.267-5.078H167.1a6.406,6.406,0,0,1,6.267,7.735l-9,42.456a5.8,5.8,0,0,1-5.676,4.6" transform="translate(-20.827 -23.495)" fill="#f7c272"/>
            <path id="Trazado_1274724" data-name="Trazado 1274724" d="M55.383,127.752l9.053-42.707A6.406,6.406,0,0,1,70.7,79.967H167.15a6.407,6.407,0,0,1,6.267,7.735" transform="translate(-20.88 -23.495)" fill="none" stroke="#c98839" stroke-linecap="round" stroke-miterlimit="10" stroke-width="1"/>
            <path id="Trazado_1274725" data-name="Trazado 1274725" d="M96.418,38.645H56.948a3.667,3.667,0,0,0-3.667,3.667v7.539h49.744v-4.6a6.607,6.607,0,0,0-6.607-6.607" transform="translate(-20.262 -11.354)" fill="#efa765"/>
            <line id="Línea_3268" data-name="Línea 3268" x2="36.949" transform="translate(45.814 38.496)" fill="none" stroke="#c98839" stroke-linecap="round" stroke-miterlimit="10" stroke-width="1"/>
            <path id="Trazado_1274726" data-name="Trazado 1274726" d="M117.758,162.092v24.789l44.559-.172v65.876" transform="translate(-39.206 -47.624)" fill="none" stroke="#a8c5e2" stroke-miterlimit="10" stroke-width="1"/>
            <path id="Trazado_1274727" data-name="Trazado 1274727" d="M115.7,164.979h0a4.943,4.943,0,0,1-4.943-4.943v-4.943h9.887v4.943a4.943,4.943,0,0,1-4.943,4.943" transform="translate(-37.149 -45.567)" fill="#5f799e"/>
            <path id="Trazado_1274728" data-name="Trazado 1274728" d="M183.743,288.544h-9.887v-3.531a4.943,4.943,0,0,1,9.887,0Z" transform="translate(-55.688 -82.287)" fill="#5f799e"/>
            <path id="Trazado_1274729" data-name="Trazado 1274729" d="M188.293,191.653a12.736,12.736,0,1,1-12.736-12.736A12.736,12.736,0,0,1,188.293,191.653Z" transform="translate(-52.446 -52.567)" fill="none" stroke="#ea7468" stroke-miterlimit="10" stroke-width="1"/>
            <path id="Trazado_1274730" data-name="Trazado 1274730" d="M184.148,194.606a5.638,5.638,0,1,1-5.638-5.638,5.638,5.638,0,0,1,5.638,5.638" transform="translate(-55.399 -55.52)" fill="#ea7468"/>
            <rect id="Rectángulo_464788" data-name="Rectángulo 464788" width="61.272" height="80.357" transform="translate(19.458 152.22)" fill="#ffe79e"/>
            <rect id="Rectángulo_464789" data-name="Rectángulo 464789" width="37.49" height="4.326" transform="translate(31.349 159.09)" fill="#fff"/>
            <rect id="Rectángulo_464790" data-name="Rectángulo 464790" width="37.49" height="4.325" transform="translate(31.349 169.473)" fill="#fff"/>
            <rect id="Rectángulo_464791" data-name="Rectángulo 464791" width="37.49" height="4.326" transform="translate(31.349 179.854)" fill="#fff"/>
            <rect id="Rectángulo_464792" data-name="Rectángulo 464792" width="37.49" height="4.326" transform="translate(31.349 190.235)" fill="#fff"/>
            <rect id="Rectángulo_464793" data-name="Rectángulo 464793" width="37.49" height="4.326" transform="translate(31.349 200.617)" fill="#fff"/>
            <rect id="Rectángulo_464794" data-name="Rectángulo 464794" width="37.49" height="4.326" transform="translate(31.349 211)" fill="#fff"/>
            <rect id="Rectángulo_464795" data-name="Rectángulo 464795" width="37.49" height="4.326" transform="translate(31.349 221.381)" fill="#fff"/>
            <path id="Trazado_1274731" data-name="Trazado 1274731" d="M359.4,50.78a28.7,28.7,0,1,0,28.706,28.7A28.695,28.695,0,0,0,359.4,50.78m0,47.338a18.636,18.636,0,1,1,18.641-18.641A18.636,18.636,0,0,1,359.4,98.118" transform="translate(-101.77 -14.92)" fill="#ffe79e"/>
            <rect id="Rectángulo_464796" data-name="Rectángulo 464796" width="9.594" height="19.623" transform="translate(252.831 18.262)" fill="#ffe79e"/>
            <rect id="Rectángulo_464797" data-name="Rectángulo 464797" width="9.593" height="19.623" transform="translate(221.498 35.214) rotate(-45)" fill="#ffe79e"/>
            <rect id="Rectángulo_464798" data-name="Rectángulo 464798" width="19.623" height="9.594" transform="translate(211.329 59.764)" fill="#ffe79e"/>
            <rect id="Rectángulo_464799" data-name="Rectángulo 464799" width="19.623" height="9.593" transform="translate(221.498 93.908) rotate(-45)" fill="#ffe79e"/>
            <rect id="Rectángulo_464800" data-name="Rectángulo 464800" width="9.594" height="19.623" transform="translate(252.832 91.237)" fill="#d3e4f2"/>
            <rect id="Rectángulo_464801" data-name="Rectángulo 464801" width="9.593" height="19.623" transform="translate(273.099 86.816) rotate(-45)" fill="#ffe79e"/>
            <rect id="Rectángulo_464802" data-name="Rectángulo 464802" width="19.623" height="9.594" transform="translate(284.304 59.764)" fill="#ffe79e"/>
            <rect id="Rectángulo_464803" data-name="Rectángulo 464803" width="19.623" height="9.593" transform="translate(273.099 42.307) rotate(-45)" fill="#ffe79e"/>
            <path id="Trazado_1274732" data-name="Trazado 1274732" d="M377.212,87.238a10.053,10.053,0,1,1-10.053-10.053,10.054,10.054,0,0,1,10.053,10.053" transform="translate(-109.528 -22.678)" fill="#ffe79e"/>
            <path id="Trazado_1274733" data-name="Trazado 1274733" d="M272.637,128.847a11.553,11.553,0,1,0,11.555,11.55,11.55,11.55,0,0,0-11.555-11.55m0,19.054a7.5,7.5,0,1,1,7.5-7.5,7.5,7.5,0,0,1-7.5,7.5" transform="translate(-81.317 -37.856)" fill="#ffe79e"/>
            <rect id="Rectángulo_464804" data-name="Rectángulo 464804" width="3.861" height="7.899" transform="translate(189.391 83.907)" fill="#ffe79e"/>
            <rect id="Rectángulo_464805" data-name="Rectángulo 464805" width="3.862" height="7.899" transform="matrix(0.707, -0.707, 0.707, 0.707, 176.778, 90.731)" fill="#ffe79e"/>
            <rect id="Rectángulo_464806" data-name="Rectángulo 464806" width="7.898" height="3.861" transform="translate(172.686 100.612)" fill="#ffe79e"/>
            <rect id="Rectángulo_464807" data-name="Rectángulo 464807" width="7.899" height="3.861" transform="matrix(0.707, -0.707, 0.707, 0.707, 176.779, 114.355)" fill="#ffe79e"/>
            <rect id="Rectángulo_464808" data-name="Rectángulo 464808" width="3.861" height="7.898" transform="translate(189.391 113.28)" fill="#ffe79e"/>
            <rect id="Rectángulo_464809" data-name="Rectángulo 464809" width="3.861" height="7.899" transform="translate(197.549 111.5) rotate(-45)" fill="#ffe79e"/>
            <rect id="Rectángulo_464810" data-name="Rectángulo 464810" width="7.899" height="3.861" transform="translate(202.059 100.612)" fill="#ffe79e"/>
            <rect id="Rectángulo_464811" data-name="Rectángulo 464811" width="7.898" height="3.861" transform="translate(197.548 93.584) rotate(-44.993)" fill="#ffe79e"/>
            <path id="Trazado_1274734" data-name="Trazado 1274734" d="M279.809,143.521a4.046,4.046,0,1,1-4.046-4.046,4.046,4.046,0,0,1,4.046,4.046" transform="translate(-84.44 -40.979)" fill="#ffe79e"/>
            <path id="Trazado_1274735" data-name="Trazado 1274735" d="M194.8,196.8c-.67,2.276-3.386,6.541-2.852,8.323s8.2,5.347,9.981,5.169,13.011-5.979,13.011-5.979l-3.208-10.24Z" transform="translate(-60.983 -57.021)" fill="#f28b79"/>
            <path id="Trazado_1274736" data-name="Trazado 1274736" d="M202.393,203.24c-.534,1.067,0,3.6,0,3.6l3.023,3.656" transform="translate(-64.003 -59.714)" fill="none" stroke="#c95b4c" stroke-linecap="round" stroke-miterlimit="10" stroke-width="1"/>
            <path id="Trazado_1274737" data-name="Trazado 1274737" d="M209.891,203.24v2.749l2.6,3.536" transform="translate(-66.275 -59.713)" fill="none" stroke="#c95b4c" stroke-linecap="round" stroke-miterlimit="10" stroke-width="1"/>
            <path id="Trazado_1274738" data-name="Trazado 1274738" d="M273.579,251.5l-3.647,6.919s-29.109-45.049-35.175-51.286l-10.022,12.8s18.24,73.753,40.922,78.645C289.5,303.719,297.843,283.49,303.5,256.8s-29.926-5.3-29.926-5.3" transform="translate(-70.637 -60.857)" fill="#fca697"/>
            <path id="Trazado_1274739" data-name="Trazado 1274739" d="M351.281,181.841s-31.106,4.809-36.767,8.468-25.778,56.634-25.778,56.634l48.006,7.684,29.895-19.007Z" transform="translate(-89.441 -53.426)" fill="#87a1cf"/>
            <path id="Trazado_1274740" data-name="Trazado 1274740" d="M397.317,176.631c21.15,2.066,41.7,6.625,45.822,14.522s19.048,70.907,19.048,70.907H425.771l-37.048-72.81-.439-9.733Z" transform="translate(-118.689 -51.896)" fill="#87a1cf"/>
            <path id="Trazado_1274741" data-name="Trazado 1274741" d="M329.937,198.717s55.035-10.993,90.538,0l-7.3,48.874-1.319,53.76H339.488l-3.043-53.76Z" transform="translate(-101.546 -56.949)" fill="#87a1cf"/>
            <path id="Trazado_1274742" data-name="Trazado 1274742" d="M337.484,244.742c16.44,1.208,68.207-3.675,68.207-3.675l5.077,24.469s-48.3,6.693-74.492,1.234Z" transform="translate(-103.408 -70.827)" fill="#a2badd"/>
            <path id="Trazado_1274743" data-name="Trazado 1274743" d="M431.145,224.609c1.46,6.961,10.69,51.5,10.69,51.5" transform="translate(-131.282 -65.992)" fill="none" stroke="#3a6599" stroke-linecap="round" stroke-miterlimit="10" stroke-width="1"/>
            <line id="Línea_3269" data-name="Línea 3269" x1="2.52" y2="18.215" transform="translate(233.478 164.807)" fill="none" stroke="#3a6599" stroke-linecap="round" stroke-miterlimit="10" stroke-width="1"/>
            <path id="Trazado_1274744" data-name="Trazado 1274744" d="M401.287,177.919s-4.724,20.043-24,19.67c-18.259-.353-16.992-15.6-16.992-15.6a91.633,91.633,0,0,1,19.989-5.539,56.03,56.03,0,0,1,21,1.472" transform="translate(-110.46 -51.711)" fill="#fff"/>
            <path id="Trazado_1274745" data-name="Trazado 1274745" d="M372.974,169.535v6.644c0,5.982,6.19,10.08,14.632,5.792,7.176-3.645,8.009-8.1,8.009-11.761v-18.8l-22.607,14.947Z" transform="translate(-114.191 -44.487)" fill="#fca697"/>
            <g id="Grupo_1211943" data-name="Grupo 1211943" transform="translate(258.783 113.162)" opacity="0.46" style="mix-blend-mode: multiply;isolation: isolate">
              <g id="Grupo_1211942" data-name="Grupo 1211942">
                <g id="Grupo_1211941" data-name="Grupo 1211941" clip-path="url(#clip-path-4)">
                  <path id="Trazado_1274746" data-name="Trazado 1274746" d="M389.061,162.52c-1.25,10.259-8.043,16.7-16.077,16.7-.009-.089-.009-.184-.009-.273v-18.7Z" transform="translate(-372.974 -160.243)" fill="#fca695"/>
                </g>
              </g>
            </g>
            <path id="Trazado_1274747" data-name="Trazado 1274747" d="M357.052,107.8c-12.676,8.4-12.292,19.9-10.408,29.362,2.035,10.224,9.183,17.427,18.307,17.427,12.345,0,22.435-7.653,23.462-19.536s-1.788-25.846-10.945-27.253-20.416,0-20.416,0" transform="translate(-106.167 -31.49)" fill="#fca697"/>
            <path id="Trazado_1274748" data-name="Trazado 1274748" d="M359.247,134.5c0,1.116-.567,2.02-1.266,2.02s-1.266-.9-1.266-2.02.567-2.02,1.266-2.02,1.266.9,1.266,2.02" transform="translate(-109.414 -38.925)" fill="#5a2402"/>
            <path id="Trazado_1274749" data-name="Trazado 1274749" d="M379.835,134.5c0,1.116-.567,2.02-1.266,2.02s-1.266-.9-1.266-2.02.567-2.02,1.266-2.02,1.266.9,1.266,2.02" transform="translate(-115.463 -38.925)" fill="#5a2402"/>
            <path id="Trazado_1274750" data-name="Trazado 1274750" d="M375.389,122.083c3.013-1.284,7.684.212,8.121,2.165s-.328,2.929-1.2,2.929-3-2.486-7.086-1.464c-1.447.362-2.508-2.491.165-3.63" transform="translate(-114.417 -35.728)" fill="#5a2402"/>
            <path id="Trazado_1274751" data-name="Trazado 1274751" d="M359.543,122.083c-2.508-1.284-6.4.212-6.761,2.165s.273,2.929,1,2.929,2.494-2.486,5.9-1.464c1.2.362,2.088-2.491-.137-3.63" transform="translate(-108.227 -35.728)" fill="#5a2402"/>
            <path id="Trazado_1274752" data-name="Trazado 1274752" d="M402.792,146.955c5.4-.532,8.4-7.867,6.959-11.455s-6.239-3.414-9.118,2.268" transform="translate(-122.317 -39.105)" fill="#fca697"/>
            <g id="Grupo_1211946" data-name="Grupo 1211946" transform="translate(279.456 97.63)" opacity="0.46" style="mix-blend-mode: multiply;isolation: isolate">
              <g id="Grupo_1211945" data-name="Grupo 1211945">
                <g id="Grupo_1211944" data-name="Grupo 1211944" clip-path="url(#clip-path-5)">
                  <path id="Trazado_1274753" data-name="Trazado 1274753" d="M407.572,138.364c1.062.625,2,2.8-.42,4.825a7.26,7.26,0,0,1-4.855,1.822s-.412-2.827,1.128-4.456,3.431-2.668,4.147-2.191" transform="translate(-402.247 -138.248)" fill="#fca695"/>
                </g>
              </g>
            </g>
            <path id="Trazado_1274754" data-name="Trazado 1274754" d="M403.01,141.527c2.52-4.3,5.039-3.577,5.519-2.5" transform="translate(-123.015 -40.605)" fill="none" stroke="#db7665" stroke-linecap="round" stroke-miterlimit="10" stroke-width="1"/>
            <path id="Trazado_1274755" data-name="Trazado 1274755" d="M405.035,140.519c1.929-.6,2.049,1.969,1.33,2.606" transform="translate(-123.61 -41.259)" fill="none" stroke="#db7665" stroke-linecap="round" stroke-miterlimit="10" stroke-width="1"/>
            <path id="Trazado_1274756" data-name="Trazado 1274756" d="M372.974,169.393c10.606.339,19.206-6.945,21.211-11.841" transform="translate(-114.191 -46.29)" fill="none" stroke="#db7665" stroke-linecap="round" stroke-miterlimit="10" stroke-width="1"/>
            <path id="Trazado_1274757" data-name="Trazado 1274757" d="M375.064,153.841c.869,0,3.212-1.745,3.495-1.169s-.576,1.8-1.422,2.371-2.942-1.2-2.073-1.2" transform="translate(-114.744 -44.822)" fill="#fca695"/>
            <g id="Grupo_1211949" data-name="Grupo 1211949" transform="translate(266.366 97.753)" opacity="0.46" style="mix-blend-mode: multiply;isolation: isolate">
              <g id="Grupo_1211948" data-name="Grupo 1211948">
                <g id="Grupo_1211947" data-name="Grupo 1211947" clip-path="url(#clip-path-6)">
                  <path id="Trazado_1274758" data-name="Trazado 1274758" d="M388.978,140.478a2.714,2.714,0,1,1-2.633-2.056,2.4,2.4,0,0,1,2.633,2.056" transform="translate(-383.711 -138.423)" fill="#fca695"/>
                </g>
              </g>
            </g>
            <g id="Grupo_1211952" data-name="Grupo 1211952" transform="translate(243.301 97.753)" opacity="0.46" style="mix-blend-mode: multiply;isolation: isolate">
              <g id="Grupo_1211951" data-name="Grupo 1211951">
                <g id="Grupo_1211950" data-name="Grupo 1211950" clip-path="url(#clip-path-6)">
                  <path id="Trazado_1274759" data-name="Trazado 1274759" d="M356.317,140.478a2.714,2.714,0,1,1-2.633-2.056,2.4,2.4,0,0,1,2.633,2.056" transform="translate(-351.05 -138.423)" fill="#fca695"/>
                </g>
              </g>
            </g>
            <path id="Trazado_1274760" data-name="Trazado 1274760" d="M389.388,121.083a9.993,9.993,0,0,0-5.437,7.644s-3.019-8.4-1.158-14.76c0,0-5.246-3.282-7.16-7.916,0,0-7.514,5.6-15.237,5.02s-1.076-6.178-1.076-6.178-8.955,8.176-11.469,9.495c0,0-1.347-7.178,0-9.495a8.906,8.906,0,0,1,3.233-3.282s-2.042-4.441,4.118-7.529,24.183-5.859,34.593,6.185,2.724,21.083,2.724,21.083Z" transform="translate(-106.633 -26.86)" fill="#5a2402"/>
            <path id="Trazado_1274761" data-name="Trazado 1274761" d="M383.09,135.5c-3.463,15.37-11.148,19.566-20.71,20.23-8.4.584-11.6-3.971-13.068-6.09a11.913,11.913,0,0,1-.963-1.636,5.981,5.981,0,0,1-.392-1.209s-.491,17.279,13.235,19.7c9.518,1.681,14.05-1.43,19.655-6.917s7.956-13.265,6.467-13.19c0,0-2.592-1.7-3.161-6.33s2.255-8.443,2.142-8.849-3.205,4.286-3.205,4.286" transform="translate(-106.84 -38.545)" fill="#5a2402"/>
            <path id="Trazado_1274762" data-name="Trazado 1274762" d="M376.968,156.553c-6.23-5.827-19.283-5.849-22.271,2.672l-2.02-.652s3.766-11.863,13.7-11.094,12.654,8.349,12.654,8.349Z" transform="translate(-108.227 -43.32)" fill="#5a2402"/>
            <path id="Trazado_1274763" data-name="Trazado 1274763" d="M366.8,134.026c-.377,2.059-1.525,6.736-2.066,8.909a1.04,1.04,0,0,0,.907,1.289,13.93,13.93,0,0,0,4.9-1.209" transform="translate(-111.761 -39.378)" fill="#fca697"/>
            <path id="Trazado_1274764" data-name="Trazado 1274764" d="M366.8,134.026c-.377,2.059-1.525,6.736-2.066,8.909a1.04,1.04,0,0,0,.907,1.289,13.93,13.93,0,0,0,4.9-1.209" transform="translate(-111.761 -39.378)" fill="none" stroke="#db7665" stroke-linecap="round" stroke-miterlimit="10" stroke-width="1"/>
            <path id="Trazado_1274765" data-name="Trazado 1274765" d="M367.189,156.142a23.647,23.647,0,0,0,5.405-.9.505.505,0,0,1,.641.6,3.4,3.4,0,0,1-2.769,2.568,3.31,3.31,0,0,1-3.679-1.475.508.508,0,0,1,.4-.794" transform="translate(-112.347 -45.605)" fill="#fff"/>
            <path id="Trazado_1274766" data-name="Trazado 1274766" d="M429.485,468.952H383.951l-12.489-76.835L367.2,468.952H325.605c-2.307-45.583,6.8-95.722,10.746-114.85,1.062-5.12,1.751-8.017,1.751-8.017h72.371c1.054,4.564,2.249,10.755,3.51,17.942,6.747,38.289,15.5,104.925,15.5,104.925" transform="translate(-100.165 -101.682)" fill="#c4ba8c"/>
            <path id="Trazado_1274767" data-name="Trazado 1274767" d="M380.177,346.085v38.028h6.181V357.456" transform="translate(-116.307 -101.683)" fill="none" stroke="#706536" stroke-linecap="round" stroke-miterlimit="10" stroke-width="1"/>
            <line id="Línea_3270" data-name="Línea 3270" x2="16.999" y2="121.879" transform="translate(305.208 245.394)" fill="none" stroke="#706536" stroke-linecap="round" stroke-miterlimit="10" stroke-width="1"/>
            <line id="Línea_3271" data-name="Línea 3271" x1="4.299" y2="84.841" transform="translate(259.572 282.432)" fill="none" stroke="#706536" stroke-linecap="round" stroke-miterlimit="10" stroke-width="1"/>
            <g id="Grupo_1211955" data-name="Grupo 1211955" transform="translate(236.187 244.403)" opacity="0.57" style="mix-blend-mode: multiply;isolation: isolate">
              <g id="Grupo_1211954" data-name="Grupo 1211954">
                <g id="Grupo_1211953" data-name="Grupo 1211953" clip-path="url(#clip-path-8)">
                  <path id="Trazado_1274768" data-name="Trazado 1274768" d="M418.608,364.026,418.5,365.1,340.984,354.11l-.008-.008c1.062-5.12,1.751-8.017,1.751-8.017H415.1c1.054,4.564,2.249,10.755,3.51,17.942" transform="translate(-340.976 -346.086)" fill="#c4ba8c"/>
                </g>
              </g>
            </g>
            <path id="Trazado_1274769" data-name="Trazado 1274769" d="M379.106,294.555h-49.9a2.643,2.643,0,0,1-2.643-2.643v-30.1a2.643,2.643,0,0,1,2.643-2.643h49.9a2.643,2.643,0,0,1,2.643,2.643v30.1a2.643,2.643,0,0,1-2.643,2.643" transform="translate(-100.555 -76.146)" fill="#e9eeff"/>
            <path id="Trazado_1274770" data-name="Trazado 1274770" d="M375.03,294.555h-49.9a2.643,2.643,0,0,1-2.643-2.643v-30.1a2.643,2.643,0,0,1,2.643-2.643h49.9a2.643,2.643,0,0,1,2.643,2.643v30.1a2.643,2.643,0,0,1-2.643,2.643" transform="translate(-99.358 -76.146)" fill="#fff"/>
            <path id="Trazado_1274771" data-name="Trazado 1274771" d="M372.311,292.052H331.724a2.643,2.643,0,0,1-2.643-2.643v-21.53a2.642,2.642,0,0,1,2.643-2.643h40.588a2.642,2.642,0,0,1,2.643,2.643v21.53a2.643,2.643,0,0,1-2.643,2.643" transform="translate(-101.294 -77.928)" fill="#e9eeff"/>
            <path id="Trazado_1274772" data-name="Trazado 1274772" d="M452.1,297.623c2.079,7.811,5.92,32.688,0,39.332-10.577,11.87-78.007-16.642-78.007-16.642l4.323-17.6,47.042,1.816-.383-7Z" transform="translate(-114.518 -87.418)" fill="#fca697"/>
            <path id="Trazado_1274773" data-name="Trazado 1274773" d="M367.805,298.445s-1.324-3.557-2.135-6.363-4.777-4.025-6.619-7.085-3.782,1.058-1.41,4.483,1.8,3,1.8,3a33.071,33.071,0,0,1-11.928-8.553c-2.724-3.263-4.426,2.734-1.7,7.26,0,0-1.934-8.132-3.909-7.26s-2.258,7.7,1.039,11.786c0,0-3.65-6.056-4.768-4.558s2.874,12.21,7.637,14.76c0,0-6.52-9.07-7.637-7.468s7.97,14.32,26.636,17.526,2.993-17.526,2.993-17.526" transform="translate(-103.911 -83.146)" fill="#fca697"/>
            <path id="Trazado_1274774" data-name="Trazado 1274774" d="M347.149,288.482a16.417,16.417,0,0,0,4.335,8.042" transform="translate(-106.603 -84.758)" fill="#fca697"/>
            <path id="Trazado_1274775" data-name="Trazado 1274775" d="M347.149,288.482a16.417,16.417,0,0,0,4.335,8.042" transform="translate(-106.603 -84.758)" fill="none" stroke="#db7665" stroke-linecap="round" stroke-miterlimit="10" stroke-width="1"/>
            <path id="Trazado_1274776" data-name="Trazado 1274776" d="M342.651,297.535a32.8,32.8,0,0,0,5.343,6.387" transform="translate(-105.281 -87.418)" fill="#fca697"/>
            <path id="Trazado_1274777" data-name="Trazado 1274777" d="M342.651,297.535a32.8,32.8,0,0,0,5.343,6.387" transform="translate(-105.281 -87.418)" fill="none" stroke="#db7665" stroke-linecap="round" stroke-miterlimit="10" stroke-width="1"/>
            <path id="Trazado_1274778" data-name="Trazado 1274778" d="M341.732,306.58a9.881,9.881,0,0,0,5.05,3.936" transform="translate(-105.011 -90.076)" fill="#fca697"/>
            <path id="Trazado_1274779" data-name="Trazado 1274779" d="M341.732,306.58a9.881,9.881,0,0,0,5.05,3.936" transform="translate(-105.011 -90.076)" fill="none" stroke="#db7665" stroke-linecap="round" stroke-miterlimit="10" stroke-width="1"/>
            <path id="Trazado_1274780" data-name="Trazado 1274780" d="M221.865,201.911c-1.076-1.912-6.244-11.18-9.1-12.25s-13.61,1.062-13.61,1.062-14.906,2.5-18.292,1.79c0,0-.811,5.746,11.941,4.97,8.552-.52,12.654-1.762,12.654-1.762l2.68,5.082s-2.68,4.721-5.71,5.255-10.159.357-10.337,3.03,12.3,3.386,12.3,3.386l7.452,2.236Z" transform="translate(-57.745 -55.636)" fill="#fca697"/>
            <path id="Trazado_1274781" data-name="Trazado 1274781" d="M458.1,317.333a25.83,25.83,0,0,0-11.272-9.887" transform="translate(-135.888 -90.33)" fill="#fca697"/>
            <path id="Trazado_1274782" data-name="Trazado 1274782" d="M458.1,317.333a25.83,25.83,0,0,0-11.272-9.887" transform="translate(-135.888 -90.33)" fill="none" stroke="#db7665" stroke-linecap="round" stroke-miterlimit="10" stroke-width="1"/>
            <path id="Trazado_1274783" data-name="Trazado 1274783" d="M288.735,279.755c4.594,7.268,6.443,18.944,6.443,18.944" transform="translate(-89.441 -82.194)" fill="#fca697"/>
            <path id="Trazado_1274784" data-name="Trazado 1274784" d="M288.735,279.755c4.594,7.268,6.443,18.944,6.443,18.944" transform="translate(-89.441 -82.194)" fill="none" stroke="#db7665" stroke-linecap="round" stroke-miterlimit="10" stroke-width="1"/>
            <path id="Trazado_1274785" data-name="Trazado 1274785" d="M224.735,222.4l5.381-6.873" transform="translate(-70.637 -63.322)" fill="#fca697"/>
            <path id="Trazado_1274786" data-name="Trazado 1274786" d="M224.735,222.4l5.381-6.873" transform="translate(-70.637 -63.322)" fill="none" stroke="#db7665" stroke-linecap="round" stroke-miterlimit="10" stroke-width="1"/>
          </g>
        </g>
      </g>
    </g>
  </g>
</svg>
